<svg xmlns="http://www.w3.org/2000/svg" viewBox="0 0 171.36 358.92"><defs><style>.cls-1{fill:#ccc;}.cls-2{fill:#b77158;}.cls-3{fill:#8e503d;}.cls-4{fill:#bd4761;}.cls-5{fill:#fff;}.cls-6{fill:#444;}.cls-7{fill:#cc836d;}.cls-8{fill:#e0e0e0;}.cls-9{fill:#ffb600;}.cls-10{fill:#845652;}.cls-11{fill:#683534;}.cls-12{fill:#434356;}.cls-13{fill:#343345;}.cls-14{fill:#8bccca;}.cls-15{fill:#ffdda0;}.cls-16{fill:#1d1e1e;}.cls-17{fill:#c7806d;}.cls-18{fill:#efca8f;}.cls-19{fill:#feeaaf;}.cls-20{fill:#6baaa7;}.cls-21{fill:#b88b61;}.cls-22{fill:#9b704c;}</style></defs><g id="Layer_2" data-name="Layer 2"><g id="Object"><path class="cls-1" d="M171.36,349.57a352.45,352.45,0,0,1-80,9.35,352.45,352.45,0,0,1-80-9.35,352.09,352.09,0,0,1,80-9.36A352.09,352.09,0,0,1,171.36,349.57Z"/><path class="cls-2" d="M2.23,105.2c.77,1.45,2.34,2.27,3.81,3,2.7,1.31,5.34,3,8,4.27l4.53,6.66,6-6.17,1.77-1.82L22,104.7a33.45,33.45,0,0,0-.81-13.11,47.59,47.59,0,0,1-1.58-5c-.39-2.21,0-4.49-.14-6.74A2.15,2.15,0,0,0,19,78.36a1.54,1.54,0,0,0-1.84-.11,3.71,3.71,0,0,0-1.28,1.49l-.1.2a14,14,0,0,0-1.43,8.8,2,2,0,0,1,0,1.15,1.59,1.59,0,0,1-.77.67,9.56,9.56,0,0,1-6.25.57A4.88,4.88,0,0,0,4.63,91c-1.2.46-1.7,1.86-2,3.12a38.05,38.05,0,0,0-1,7.52A7.17,7.17,0,0,0,2.23,105.2Z"/><path class="cls-3" d="M11.18,100.46a14.86,14.86,0,0,0,.84,6.92A11.88,11.88,0,0,1,9.73,101a7.09,7.09,0,0,1,2.84-6,3.09,3.09,0,0,1,1.16-.58c-.08.84-1.2,1.88-1.58,2.68A11.51,11.51,0,0,0,11.18,100.46Z"/><path class="cls-2" d="M17.52,117.53s10.66,14,19.44,22h0c3.61,3.29,6.9,5.56,9,5.42,7.18-.5,12-23.24,12-23.24L42,120.06l-1.11,1.84L22,104.7l-3,8.55h0Z"/><rect class="cls-4" x="5.85" y="83.3" width="12.97" height="16.5"/><rect class="cls-5" x="5.85" y="87.64" width="12.97" height="7.5" transform="translate(24.67 182.78) rotate(180)"/><rect class="cls-6" x="6.23" y="78.39" width="12.21" height="3.49" transform="translate(24.67 160.28) rotate(180)"/><rect class="cls-6" x="4.4" y="80.97" width="15.88" height="2.33" transform="translate(24.67 164.27) rotate(180)"/><path class="cls-2" d="M2,106c3.42,1.39,7.83.39,7.83.39a8.81,8.81,0,0,0,.7-2.54,9.49,9.49,0,0,0,.13-1.22,23.54,23.54,0,0,0,0-2.91c0-.43,0-.87-.08-1.3-.11-1.16-.26-2.3-.44-3.36-.07-.46-.15-.9-.23-1.32-.21-1.14-.43-2.13-.61-2.87s-.35-1.37-.35-1.37c-3.36-.3-8.21,2-8.21,2A13.11,13.11,0,0,0,0,95.28,30.4,30.4,0,0,0,2,106Z"/><path class="cls-3" d="M4.62,94.91s.47.07,1.17.14a20.45,20.45,0,0,0,2.62.1c.6,0,1.18-.08,1.69-.14-.07-.46-.15-.9-.23-1.32a6.66,6.66,0,0,0-1.52-.14,6.69,6.69,0,0,0-2.72.72A5.48,5.48,0,0,0,4.62,94.91Z"/><path class="cls-3" d="M5.45,99.37s.44.11,1.1.22A15.35,15.35,0,0,0,9,99.8a14.85,14.85,0,0,0,1.58-.13c0-.43,0-.87-.08-1.3A6.53,6.53,0,0,0,9,98.19a6.62,6.62,0,0,0-2.59.61A5.15,5.15,0,0,0,5.45,99.37Z"/><path class="cls-3" d="M4.94,103.53a11,11,0,0,0,1.16.24,14.42,14.42,0,0,0,2.66.2,11.27,11.27,0,0,0,1.73-.17,9.49,9.49,0,0,0,.13-1.22,7,7,0,0,0-1.9-.21A7.49,7.49,0,0,0,6,103,7.36,7.36,0,0,0,4.94,103.53Z"/><path class="cls-7" d="M0,95.28a9.05,9.05,0,0,1,2.37-2.37,10.82,10.82,0,0,1,2.85-1.19,20.1,20.1,0,0,1,3.49-.9,3.23,3.23,0,0,1,.54,0c-.2-.85-.35-1.37-.35-1.37-3.36-.3-8.21,2-8.21,2A13.11,13.11,0,0,0,0,95.28Z"/><path class="cls-5" d="M65.49,63.33s-9.7,3.78-10.18,6.55S43.1,115.6,43.1,115.6L59.29,119l8.23-42.3Z"/><polygon class="cls-8" points="59.72 116.35 41.71 111.72 40.17 119.89 59.72 121.89 59.72 116.35"/><polygon class="cls-9" points="153.48 29.31 128.06 29.29 148.61 17.98 153.48 29.31"/><polygon class="cls-9" points="133.15 49.7 125.07 34.85 138.21 43.25 133.15 49.7"/><polygon class="cls-9" points="135.41 11.75 121.43 24.13 127.22 7.89 135.41 11.75"/><rect class="cls-8" x="61.67" y="170.54" width="50.71" height="42.17" transform="translate(174.05 383.26) rotate(180)"/><path class="cls-10" d="M41.16,341.17A2.63,2.63,0,0,1,42.68,339c3-1.29,13.83-5.29,16.77-7.58,2.29-1.78,4.31-5.65,5.1-7.29l20.19,1c1.16,5.15,1.89,15.06,2,17.14Z"/><polygon class="cls-11" points="41.02 345.67 86.64 346.85 86.78 342.35 41.16 341.17 41.02 345.67"/><path class="cls-11" d="M63.26,332.82a.8.8,0,0,1,.08.16c.22.4.34,1-.19,1.23a1.55,1.55,0,0,1-.88,0A9.63,9.63,0,0,1,59.49,333,7,7,0,0,1,57,331c-.62-1,.29-1.82,1.37-1.57A8.16,8.16,0,0,1,63.26,332.82Z"/><path class="cls-11" d="M59.76,335.14a.8.8,0,0,1,.08.16c.22.4.34,1-.19,1.23a1.55,1.55,0,0,1-.88,0A9.63,9.63,0,0,1,56,335.36a7.1,7.1,0,0,1-2.52-2.08c-.62-1,.29-1.83,1.37-1.58A8.16,8.16,0,0,1,59.76,335.14Z"/><path class="cls-11" d="M55.49,336.62a.8.8,0,0,1,.08.16c.21.4.34,1-.2,1.23a1.51,1.51,0,0,1-.87,0,9.63,9.63,0,0,1-2.78-1.18,7.25,7.25,0,0,1-2.53-2.09c-.61-1,.3-1.82,1.38-1.57A8.16,8.16,0,0,1,55.49,336.62Z"/><path class="cls-10" d="M136.11,343.21s-9.9,7-12.6,7.2-16.87-3.38-16.87-5.18c0-.63.3-2.86.74-5.56.8-5,2.05-11.56,2.63-12.44.9-1.35,0-9.45,0-9.45s14.63-3.38,16.65-2.7c1.57.52,6.35,17,8.45,24.48C135.73,341.78,136.11,343.21,136.11,343.21Z"/><path class="cls-11" d="M136.11,343.21s-9.9,7-12.6,7.2-16.87-3.38-16.87-5.18c0-.63.3-2.86.74-5.56,4.61,1.81,14.49,5.39,17.74,4.22,2.21-.79,6.42-2.68,10-4.33C135.73,341.78,136.11,343.21,136.11,343.21Z"/><path class="cls-12" d="M136.08,323.79l-1,.38a58.2,58.2,0,0,1-32.4,2l-2.22-77.51L89.77,188.24l-.61-3.8L89,188.26,86.17,246l5.19,81.9a28.13,28.13,0,0,1-3.12,1.1c-14.38,4.21-32.9-1.1-32.9-1.1S57.43,256,57.05,250.6c-.25-3.48,2.08-40.11,3.75-65.36.9-13.61,1.61-26.84,1.61-26.84l62.71,2.93-.19,20.88L126.52,246S137.34,323.3,136.08,323.79Z"/><path class="cls-13" d="M61.67,172.1c18.59,4.69,61.14-.74,63.36-1l.1-9.74-62.72-2.93S62.12,165.53,61.67,172.1Z"/><path class="cls-11" d="M123.48,329.53l.17.08c.41.19.87.6.58,1.1a1.49,1.49,0,0,1-.7.53,9.21,9.21,0,0,1-2.93.73,6.9,6.9,0,0,1-3.26-.14c-1.07-.4-.87-1.63.14-2.08A8.14,8.14,0,0,1,123.48,329.53Z"/><path class="cls-11" d="M123.48,333.43l.17.08c.41.19.87.6.58,1.1a1.49,1.49,0,0,1-.7.53,9.21,9.21,0,0,1-2.93.73,6.9,6.9,0,0,1-3.26-.14c-1.07-.4-.87-1.63.14-2.08A8.14,8.14,0,0,1,123.48,333.43Z"/><path class="cls-11" d="M123.86,337l.17.08c.41.19.87.6.58,1.1a1.43,1.43,0,0,1-.7.53,9.51,9.51,0,0,1-2.92.74,7.08,7.08,0,0,1-3.27-.15c-1.07-.4-.87-1.63.14-2.08A8.14,8.14,0,0,1,123.86,337Z"/><path class="cls-13" d="M91.36,327.85a30.33,30.33,0,0,1-3.12,1.1l-6-83L88,176.38l1.12,8.06L89,188.26,86.17,246Z"/><path class="cls-13" d="M136.08,323.79l-1,.38L122.27,246l-.84-84.62h3.69l-.19,20.88L126.52,246S137.34,323.3,136.08,323.79Z"/><path class="cls-14" d="M106.15,56l8,2.33,2.72,107.84s-19.74,3.11-28.75,3.11-24-3.11-24-3.11L72.91,61l10.79-2.6Z"/><path class="cls-2" d="M88.45,55c.13-1.05.23-1.81.24-2,.12-1.37-.56-7.41-.56-7.41l15.14-5.46s0,3-.08,6.36c-.06,4-.17,8.51-.37,8.68l-8.67,8-6-5.71Z"/><path class="cls-3" d="M103.19,46.46c-4.29,2.61-13.75,8.3-14.66,8.48h-.08c.13-1.05.23-1.81.24-2,.12-1.37-.56-7.41-.56-7.41l15.14-5.46S103.25,43.12,103.19,46.46Z"/><path class="cls-2" d="M106.3,39.69a7,7,0,0,1-2,2.49h0a14.34,14.34,0,0,1-1.18.93c-1.73,1.22-17.85,8-20.32,7.66S78,41.9,77.9,41c-.76-5.49-2.84-22.48-2.84-22.48,6.23-18.45,28-8.73,30.43-6.9S106.3,39.69,106.3,39.69Z"/><path class="cls-7" d="M104.28,42.18a14.34,14.34,0,0,1-1.18.93c-1.73,1.22-17.85,8-20.32,7.66S78,41.9,77.9,41c1.52,3.75,3.23,8.93,5,8.78C85.53,49.55,102.32,43.2,104.28,42.18Z"/><path class="cls-15" d="M77.09,24.88s1-4.85,3.16-4.13,1.56,1.19,1.56,1.19Z"/><path class="cls-15" d="M100.58,21.24s-6.41-5.32-8.25-2.75c-1.08,1.5,0,2.23,0,2.23Z"/><path class="cls-16" d="M80.25,28.79c0,1.28.64,2.33,1.44,2.34s1.46-1,1.47-2.33-.64-2.33-1.44-2.34S80.26,27.5,80.25,28.79Z"/><path class="cls-5" d="M79,27.65a3.5,3.5,0,0,0,1.34,1,3.54,3.54,0,0,0,1.68.21,3.5,3.5,0,0,0-1.34-1A3.4,3.4,0,0,0,79,27.65Z"/><path class="cls-16" d="M99.12,26.88c0,1.64-.85,3-1.87,3s-1.84-1.34-1.83-3,.85-3,1.87-3S99.13,25.24,99.12,26.88Z"/><path class="cls-5" d="M100.71,25.45A4.44,4.44,0,0,1,99,26.75a4.48,4.48,0,0,1-2.14.24,4.53,4.53,0,0,1,1.72-1.3A4.48,4.48,0,0,1,100.71,25.45Z"/><path class="cls-3" d="M93.33,42.16a5.67,5.67,0,0,1-4.75.11,2.48,2.48,0,0,0,2.16,1.19A4.07,4.07,0,0,0,93.33,42.16Z"/><path class="cls-7" d="M80.32,35.93c-.26.68-1.72.75-3.27.16s-2.59-1.62-2.33-2.29,1.72-.75,3.27-.16S80.58,35.26,80.32,35.93Z"/><path class="cls-7" d="M99.84,32.9c.26,1-1.43,2.33-3.77,2.92s-4.45.24-4.71-.78,1.43-2.33,3.78-2.92S99.59,31.88,99.84,32.9Z"/><path class="cls-3" d="M96.79,37.6s-.11.13-.28.37a6.3,6.3,0,0,1-.88,1,8.58,8.58,0,0,1-8,2,7,7,0,0,1-1.22-.44l-.42-.2.46.08a8.42,8.42,0,0,0,1.24.17,13.19,13.19,0,0,0,4-.33,13,13,0,0,0,3.72-1.56,9.89,9.89,0,0,0,1-.72Z"/><path class="cls-7" d="M88.22,32.84a3.38,3.38,0,0,0,.15,1.22,1.3,1.3,0,0,1-.23,1.17,1.44,1.44,0,0,1-.86.32,5.72,5.72,0,0,1-1.37.1c-1.17-.1-1.44-.57-.38-1.07A10.18,10.18,0,0,0,88.22,32.84Z"/><path class="cls-3" d="M85,25.3a21.08,21.08,0,0,1-1.07,10.44,5.36,5.36,0,0,0,4.57-.68,4.86,4.86,0,0,1-3-.13A15.64,15.64,0,0,0,85,25.3Z"/><path class="cls-17" d="M103.93,40.33a10.06,10.06,0,0,0,7-3.82,8.42,8.42,0,0,0,.71-1c1-1.7,1.26-7.65-1.16-9-1.7-1-3,.42-3.55,1.35h0a6.09,6.09,0,0,0-.39.7Z"/><path class="cls-2" d="M103.93,40.33a10.06,10.06,0,0,0,7-3.82c.12-.17.21-.33.3-.48.95-1.71,1.26-7.65-1.16-9a2.34,2.34,0,0,0-3.14.79h0a6.09,6.09,0,0,0-.39.7Z"/><path class="cls-7" d="M111.25,31.15a2.63,2.63,0,0,1-.13,1.44c-.67,2-2.68,3.5-4.59,4.9a5,5,0,0,0,.69-3.12,10.46,10.46,0,0,1-.12-1.11C107.09,31.77,110.54,28.34,111.25,31.15Z"/><path class="cls-3" d="M105.56,38.06l.11-.07a3.18,3.18,0,0,0,.31-.18,4.44,4.44,0,0,0,1-.84,3.78,3.78,0,0,0,.78-1.58,3.32,3.32,0,0,0-.22-2.1,2.15,2.15,0,0,0-.14-.26l0-.07h0s0,0,0,0l0-.06.07-.11c0-.08.09-.15.13-.22a8.53,8.53,0,0,1,.58-.82,7.18,7.18,0,0,1,.62-.7,6.1,6.1,0,0,1,.61-.56,1.36,1.36,0,0,1,.62-.27,1,1,0,0,1,.52.09.49.49,0,0,1,.23.22c0,.06,0,.1,0,.1a.23.23,0,0,0,0-.11.42.42,0,0,0-.19-.27,1.07,1.07,0,0,0-.6-.2,1.78,1.78,0,0,0-.82.23,5.38,5.38,0,0,0-.75.53,7.73,7.73,0,0,0-.74.68,8,8,0,0,0-.68.84,1.88,1.88,0,0,0-.16.23l-.07.12-.1.17-.07.12.07.11.09.17a1.27,1.27,0,0,1,.12.23,3.46,3.46,0,0,1,.3,1.86,4,4,0,0,1-.52,1.51,4.49,4.49,0,0,1-.72.91c-.1.11-.2.17-.26.23Z"/><path class="cls-18" d="M111.17,22.31c-.32,2.26-.66,4.12-.66,4.12s-5.06,5.15-6.41,8.56a48.11,48.11,0,0,0-.34-14.12,8.87,8.87,0,0,1-6-7.82,7.63,7.63,0,0,1-3.27,2.76A4.2,4.2,0,0,0,95,12.23a11.8,11.8,0,0,1-8.48,6.34q1.23-2,2.44-3.91a26.39,26.39,0,0,1-12.08,5.9c-1.93.37-4.18.46-5.62-.89A4.43,4.43,0,0,1,70,16.17a8.79,8.79,0,0,1,.73-3.07,15.53,15.53,0,0,1,9-8.47C79.09,3.34,78,1.9,77.34.61a8.21,8.21,0,0,0,6,.93c2-.33,4-1,6-1.37a16,16,0,0,1,15.2,6.53,7.12,7.12,0,0,1,5.76,3.13,12.68,12.68,0,0,1,1.45,6.35A46.48,46.48,0,0,1,111.17,22.31Z"/><path class="cls-15" d="M111.62,18.77c-.11,1.15-.28,2.4-.45,3.54a12.34,12.34,0,0,0-3,4.15,14.16,14.16,0,0,0-3.76-10.66c-.11,1.23-.22,2.46-.32,3.69a23.83,23.83,0,0,1-5.77-12.8l-2.92,3.75a8.34,8.34,0,0,0-.21-4.54,15.06,15.06,0,0,1-5.42,6c.05-1.43.11-2.85.17-4.28a20.63,20.63,0,0,1-10.78,7.93,20.56,20.56,0,0,1-9.19.65,8.79,8.79,0,0,1,.73-3.07,12.68,12.68,0,0,1,.76-1.52,15.54,15.54,0,0,1,8.27-6.95C79.09,3.34,78,1.9,77.34.61a8.21,8.21,0,0,0,6,.93c2-.33,4-1,6-1.37a16,16,0,0,1,15.2,6.53,7.12,7.12,0,0,1,5.76,3.13,12.68,12.68,0,0,1,1.45,6.35A24,24,0,0,1,111.62,18.77Z"/><path class="cls-19" d="M111.62,18.77l-.34.53a24.29,24.29,0,0,0-8.83-9.06c-.16,1.24-.32,2.46-.48,3.69-1-4.09-2-8.35-4.79-11.56-.17.91-.34,1.83-.5,2.74a10,10,0,0,0-6.81-2.19C89.72,4,89.56,5,89.42,6.06a9.91,9.91,0,0,0-3.66-1.6,10.94,10.94,0,0,1-7,7.34,11,11,0,0,1-7.25-.22,15.54,15.54,0,0,1,8.27-6.95C79.09,3.34,78,1.9,77.34.61a8.21,8.21,0,0,0,6,.93c2-.33,4-1,6-1.37a16,16,0,0,1,15.2,6.53,7.12,7.12,0,0,1,5.76,3.13,12.68,12.68,0,0,1,1.45,6.35A24,24,0,0,1,111.62,18.77Z"/><path class="cls-20" d="M102.82,55.14s-8.21,7.81-8.67,8-6-5.71-6-5.71l-4.42,1-.64,9.69,8.28,3.21,3-4.61,3.93,5.08,7.06-5.86,2.13-9.47Z"/><path class="cls-5" d="M51.32,218.55H67.21c3.83-7.67,8.18-51.28,11.47-91.46,2.53-30.92,4.44-59.83,5-68.73-1.23.29-2.65.62-4.13,1l-4.65,1.13c-1.44.37-2.85.73-4.13,1.08a32.12,32.12,0,0,0-5.3,1.81S60,89.51,58.59,97.87,51.32,218.55,51.32,218.55Z"/><path class="cls-8" d="M67.18,103c0,3,7.17,16.35,11.5,24.14,2.53-30.92,4.44-59.83,5-68.73-1.23.29-2.65.62-4.13,1l-4.65,1.13C73.25,69,70.11,85,70,86.2c-.14,1.64,6,6.49,6,6.49S67.18,98.7,67.18,103Z"/><rect class="cls-20" x="57.92" y="98.2" width="19.98" height="11.14" transform="translate(135.82 207.53) rotate(180)"/><rect class="cls-14" x="69.1" y="100.33" width="6.88" height="6.88" transform="translate(145.07 207.53) rotate(180)"/><rect class="cls-14" x="59.85" y="100.33" width="7.33" height="1.63" transform="translate(127.03 202.29) rotate(180)"/><rect class="cls-14" x="59.85" y="102.95" width="7.33" height="1.63" transform="translate(127.03 207.53) rotate(180)"/><rect class="cls-14" x="59.85" y="105.57" width="7.33" height="1.63" transform="translate(127.03 212.78) rotate(180)"/><rect class="cls-12" x="66.81" y="94.76" width="2.21" height="4.35" transform="translate(135.82 193.87) rotate(180)"/><path class="cls-5" d="M104.85,118.61c0,3.54,0,7.14.08,10.74.37,43.36,1.48,89.2,1.48,89.2h24.15s-2.9-115.6-3.63-121.77-5.5-36.61-5.5-36.61l-2.69-.74-3.87-1L113.49,58l-2.38-.64-5-1.35C104.93,63.94,104.68,89.79,104.85,118.61Z"/><path class="cls-8" d="M104.85,118.61c2.87-8,8.64-24.08,8.57-25.06-.06-1.31-4.5-8.13-4.5-8.13s6.84-4.92,6.31-7.42c-.41-2-1.37-15-1.74-20l-2.38-.64-5-1.35C104.93,63.94,104.68,89.79,104.85,118.61Z"/><polygon class="cls-20" points="113.81 98.72 117.18 98.72 117.18 95.35 120.4 95.35 120.4 98.72 123.77 98.72 123.77 101.94 120.4 101.94 120.4 105.31 117.18 105.31 117.18 101.94 113.81 101.94 113.81 98.72"/><path class="cls-5" d="M121.43,60.17s11.84,4.07,16.78,11.56,20.12,48.12,20.12,48.12l-26.69,7.24-7.32-17.75Z"/><path class="cls-2" d="M138.48,169.33s17.7-28.11,18.31-30.88c.26-1.17-4.41-19.83-4.41-19.83l-16.2,6.15,3.7,10.6L131.19,160Z"/><path class="cls-8" d="M158.33,111.44s3.24,8.93,3.24,10.31-28.92,9.08-29.93,8.31-3.89-5-2.84-6.15S158.33,111.44,158.33,111.44Z"/><path class="cls-8" d="M129.86,70.34s-5,12.93-4.79,16.62,2.39,26.79,2.39,26.79l-.68-27.4Z"/><polygon class="cls-21" points="100.56 148.1 147.73 173.8 127.98 204.65 78.98 184.33 100.56 148.1"/><path class="cls-22" d="M93.48,156.57l3.5,2-8.92,15.9-4-1.83,3.26-5.26s-2.2-2.36-1-4.35,4.85-2.49,4.85-2.49Z"/><path class="cls-2" d="M120.31,155.72a5.78,5.78,0,0,0-2.06.06c-4.07,1-10.28,2.6-10.09,4.31s11.79-1,11.79-1l1.85,2.73-4.73,1.61-4.94,5.34s.54,1.3,1.3,2.86a3.42,3.42,0,0,0,.21.43l0,0,.07.13c.08.18.18.37.27.54a23.3,23.3,0,0,0,1.23,2.17,1.2,1.2,0,0,1,.15.24,10.51,10.51,0,0,0,.79,1,2,2,0,0,0,.79.57l4.65-3.24s7.52,2.21,8.67,1.93c.46-.11,8.56-6.44,8.56-6.44l-4.9-10.32L131.19,160C131,159.91,122.14,155.93,120.31,155.72Z"/><path class="cls-3" d="M113.43,171.6l.29.59.11-.1c.63-.57,1.49-1.32,2.43-2.11a17.86,17.86,0,0,1,2.59-1.86l.51-.28.4-.18.35-.16h-.4l-.48,0-.62.1a7.39,7.39,0,0,0-3.17,1.54A8.75,8.75,0,0,0,113.43,171.6Z"/><path class="cls-3" d="M115.23,174.89l.15.23.68-.62c.62-.57,1.48-1.32,2.43-2.12a19.55,19.55,0,0,1,2.59-1.86l.51-.27.4-.18.35-.17h-.88l-.62.1a7.42,7.42,0,0,0-3.17,1.55,8.65,8.65,0,0,0-2.1,2.61A7.19,7.19,0,0,0,115.23,174.89Z"/></g></g></svg>