<svg xmlns="http://www.w3.org/2000/svg" viewBox="0 0 160.27 358.47"><defs><style>.cls-1{fill:#ccc;}.cls-2{fill:#845652;}.cls-3{fill:#683534;}.cls-4{fill:#385077;}.cls-5{fill:#526995;}.cls-6{fill:#ffb600;}.cls-7{fill:#fff;}.cls-8{fill:#e0e0e0;}.cls-9{fill:#8bccca;}.cls-10{fill:#6baaa7;}.cls-11{fill:#f3a080;}.cls-12{fill:#ea7c6f;}.cls-13{fill:#f8bf92;}.cls-14{fill:#ed802f;}.cls-15{fill:#1d1e1e;}.cls-16{fill:#dd5b67;}.cls-17{fill:#b54b57;}.cls-18{fill:#e86a15;}.cls-19{fill:#ff9d46;}.cls-20{fill:#b6c09c;}.cls-21{fill:#959e77;}.cls-22{fill:#434356;}</style></defs><g id="Layer_2" data-name="Layer 2"><g id="Object"><path class="cls-1" d="M160,349.11a352.09,352.09,0,0,1-80,9.36,352.09,352.09,0,0,1-80-9.36,352.45,352.45,0,0,1,80-9.35A352.45,352.45,0,0,1,160,349.11Z"/><path class="cls-2" d="M59.53,348.26a2.64,2.64,0,0,0,.08-2.65c-1.62-2.83-8-12.59-9-16.23-.77-2.82,0-7.19.37-9l-17.2-11.23c-4.15,3.52-10.94,11.18-12.36,12.79Z"/><polygon class="cls-3" points="56.84 352.02 18.71 325.69 21.4 321.94 59.53 348.26 56.84 352.02"/><path class="cls-3" d="M46.63,328.22l-.17.08c-.43.2-.91.62-.61,1.12a1.46,1.46,0,0,0,.71.53,9.78,9.78,0,0,0,3,.7,7.47,7.47,0,0,0,3.36-.19c1.11-.42.9-1.67-.14-2.11A8.48,8.48,0,0,0,46.63,328.22Z"/><path class="cls-3" d="M48.05,332.21l-.17.07c-.43.2-.91.63-.61,1.13a1.48,1.48,0,0,0,.72.53,9.71,9.71,0,0,0,3,.7,7.52,7.52,0,0,0,3.37-.19c1.1-.42.89-1.67-.15-2.11A8.43,8.43,0,0,0,48.05,332.21Z"/><path class="cls-3" d="M50.63,336l-.18.08c-.42.2-.9.62-.6,1.12a1.46,1.46,0,0,0,.71.53,9.78,9.78,0,0,0,3,.7,7.47,7.47,0,0,0,3.36-.19c1.11-.42.9-1.67-.14-2.11A8.48,8.48,0,0,0,50.63,336Z"/><polygon class="cls-4" points="98.04 259.39 74.92 237.05 28.95 307.17 53.68 324.31 98.04 259.39"/><path class="cls-4" d="M109.28,177.16H77.62c1.62,17.07,4.09,47.92,1.4,54.36-.08.2-.69,1.22-1.7,2.85l25.91,22.94s9.27-15.18,10.39-20.91C116.46,221.83,109.36,180,109.28,177.16Z"/><path class="cls-5" d="M47.82,178.91s27.82,68.94,34.59,85.22l8.35,69.09,26.56-5.52-.66-7.91-5.56-67.42L87.19,178.73l-31.32.15Z"/><path class="cls-2" d="M140.16,342.46a2.71,2.71,0,0,0-1.76-2c-3.13-1-14.57-4-17.78-6.08-2.5-1.58-4.93-5.32-5.89-6.91l-20.43,3c-.67,5.34-.46,15.49-.41,17.62Z"/><polygon class="cls-3" points="140.73 347.02 94.47 352.63 93.89 348.08 140.16 342.46 140.73 347.02"/><path class="cls-3" d="M116.88,336.11a1.22,1.22,0,0,0-.07.17c-.18.43-.25,1.06.32,1.23a1.51,1.51,0,0,0,.89-.07,9.63,9.63,0,0,0,2.71-1.47,7.42,7.42,0,0,0,2.37-2.36c.53-1-.48-1.83-1.55-1.47A8.3,8.3,0,0,0,116.88,336.11Z"/><path class="cls-3" d="M120.66,338.13c0,.06,0,.11-.07.17-.18.43-.24,1.06.32,1.23a1.44,1.44,0,0,0,.89-.08,9.47,9.47,0,0,0,2.71-1.46,7.32,7.32,0,0,0,2.37-2.36c.53-1-.48-1.83-1.55-1.47A8.33,8.33,0,0,0,120.66,338.13Z"/><path class="cls-3" d="M125.15,339.22l-.08.17c-.17.43-.24,1.06.33,1.23a1.44,1.44,0,0,0,.89-.08,9.6,9.6,0,0,0,2.71-1.46,7.22,7.22,0,0,0,2.36-2.37c.53-1-.47-1.82-1.54-1.46A8.26,8.26,0,0,0,125.15,339.22Z"/><path class="cls-4" d="M47.82,178.91s27.82,68.94,34.59,85.22l8.35,69.09,26.56-5.52-.66-7.91L95.8,322s-6.85-56.07-8.41-62c-1.43-5.45-27-69.68-31.52-81Z"/><polygon class="cls-6" points="111.59 32.98 129.51 16.67 135.23 28.89 111.59 32.98"/><polygon class="cls-6" points="103.94 31.12 102.22 15.99 110.53 17.11 103.94 31.12"/><polygon class="cls-6" points="112.31 43.58 128.47 43.69 127.72 51.34 112.31 43.58"/><path class="cls-7" d="M124.58,237.05c-.56,1.52-6.28,15.06-8.14,13.83s-10.31-13.83-10.31-13.83L101.23,222s-17.75,28.51-24.58,31.39-43.34-8.62-43.34-8.62L51.16,109.27l2.42-43.53v-.39l14-1.54,12.59,2.36L89,68.06l9.41,2S110,72.4,112.17,75.65,118.23,100,118.23,100l-11.72-1.3c-.28,9.88,7.33,63,9.78,79.79C116.29,178.48,125.14,235.53,124.58,237.05Z"/><path class="cls-8" d="M91.85,84.91c1.48,1.38,0,27,0,27S70.36,94.6,70,93.68s0-4.77,0-4.77-4.73.46-6.17,0c-1.2-.38-8-17.36-10.25-23.17v-.39l14-1.54,12.59,2.36L89,68.06c1.58,3.8,3.19,7.72,3.48,8.69.61,2-3.88,4.41-3.88,4.41A32.84,32.84,0,0,0,91.85,84.91Z"/><path class="cls-9" d="M85.66,73.82S89.23,97.53,88,101.07,55.44,65.21,55.44,65.21l18.09,7.43Z"/><path class="cls-10" d="M58.1,61.86c-.58.22-2.66,3.35-2.66,3.35S67.73,79.32,71.85,80.05l7.68-6.33,9.1,2.85S85.19,69.32,83,67c0,0-4.55-4.13-7.09-4.34S62.26,60.26,58.1,61.86Z"/><path class="cls-11" d="M60.9,62.94c.43.25,18.48,7.45,18.48,7.45s-2.16-6.79-3.27-10.33c-.34-1.1-.58-1.89-.63-2.06-.38-1.44-.79-8-.79-8l-17.08-3s.59,3.2,1.27,6.73C59.7,58.07,60.66,62.8,60.9,62.94Z"/><path class="cls-12" d="M58.88,53.81c5,2,16.14,6.23,17.14,6.25h.09c-.34-1.1-.58-1.89-.63-2.06-.38-1.44-.79-8-.79-8l-17.08-3S58.2,50.28,58.88,53.81Z"/><path class="cls-11" d="M55.67,48.16a7.42,7.42,0,0,0,2.77,2.05h0c.43.22.92.44,1.48.66,2.13.81,20.75,3.57,23.24,2.55s2.59-10.53,2.47-11.5c-.67-5.93-3-24.2-3-24.2C71.15.14,51.08,16.09,49,18.66S55.67,48.16,55.67,48.16Z"/><path class="cls-7" d="M66.43,42.86l12-.19s-.11,5.77-5.55,6.14S66.43,42.86,66.43,42.86Z"/><path class="cls-13" d="M58.44,50.21c.43.22.92.44,1.48.66,2.13.81,20.75,3.57,23.24,2.55s2.59-10.53,2.47-11.5c-.58,4.32-1,10.18-2.84,10.49C80,52.88,60.76,50.75,58.44,50.21Z"/><path class="cls-14" d="M82.79,25.54s-4.17-3.31-5.46-1.22-.47,2.05-.47,2.05Z"/><path class="cls-14" d="M57.86,28.4s4.31-7.87,7.18-6c1.67,1.07.91,2.21.91,2.21Z"/><path class="cls-15" d="M62.31,31.87c.27,1.66,1.32,2.86,2.35,2.69s1.64-1.64,1.37-3.3-1.32-2.85-2.35-2.68S62,30.22,62.31,31.87Z"/><path class="cls-7" d="M60.25,30.49a4.31,4.31,0,0,0,2,1.2,4.38,4.38,0,0,0,2.35-.2,3.89,3.89,0,0,0-4.39-1Z"/><path class="cls-15" d="M81,30.41c.22,1.37-.29,2.59-1.14,2.73s-1.73-.85-1.95-2.22.28-2.59,1.14-2.73S80.79,29.05,81,30.41Z"/><path class="cls-7" d="M82.14,29a3.43,3.43,0,0,1-3,1.83,3.48,3.48,0,0,1,3-1.83Z"/><path class="cls-12" d="M81.76,37.28c.45.64,2,.32,3.45-.71s2.27-2.38,1.82-3-2-.32-3.45.71S81.31,36.65,81.76,37.28Z"/><path class="cls-12" d="M60.58,39.34c0,1.14,2.12,2,4.72,2s4.7-.94,4.7-2.07-2.12-2.05-4.72-2S60.57,38.21,60.58,39.34Z"/><path class="cls-12" d="M77.08,36.92a21.54,21.54,0,0,1-4.43,1.73,3,3,0,0,0,2.64,1.14,15.52,15.52,0,0,0,3.26-.86A10.37,10.37,0,0,1,77.08,36.92Z"/><path class="cls-16" d="M79,38.6a21.09,21.09,0,0,1-4.67-8.54c0-.06-.12,0-.12,0A14,14,0,0,0,78,38.69c-1.11.32-2.22.5-3.35.8a.3.3,0,0,0,.07.59,8.45,8.45,0,0,0,4.13-.78A.43.43,0,0,0,79,38.6Z"/><path class="cls-13" d="M58.31,48.19A10.83,10.83,0,0,1,50,46.08a7.16,7.16,0,0,1-1-.89c-1.46-1.52-3.37-7.64-1.22-9.75,1.51-1.47,3.19-.35,4.06.45h0a6.83,6.83,0,0,1,.6.62Z"/><path class="cls-11" d="M58.31,48.19A10.83,10.83,0,0,1,50,46.08l-.44-.41c-1.45-1.53-3.37-7.65-1.21-9.75a2.51,2.51,0,0,1,3.48,0h0a6.83,6.83,0,0,1,.6.62Z"/><path class="cls-12" d="M48.22,40.57A2.74,2.74,0,0,0,48.73,42c1.24,1.9,3.73,2.93,6.11,3.88a5.37,5.37,0,0,1-1.56-3.07,9.74,9.74,0,0,0-.17-1.19C52.71,40.1,48.2,37.45,48.22,40.57Z"/><path class="cls-17" d="M56,46.25l-.13,0c-.08,0-.21,0-.37-.11a4.87,4.87,0,0,1-1.21-.63A4.08,4.08,0,0,1,53,44.05a3.56,3.56,0,0,1-.33-2.25,2.82,2.82,0,0,1,.07-.31l0-.08h0l0,0-.1-.1-.2-.2a10.46,10.46,0,0,0-.83-.69c-.28-.21-.56-.4-.83-.57a6,6,0,0,0-.78-.42,1.45,1.45,0,0,0-.72-.11,1,1,0,0,0-.52.23.59.59,0,0,0-.19.29c0,.07,0,.11,0,.11a.21.21,0,0,1,0-.11.54.54,0,0,1,.13-.34,1.18,1.18,0,0,1,.58-.36,1.76,1.76,0,0,1,.91,0,5.43,5.43,0,0,1,.92.35,8.16,8.16,0,0,1,1,.51,8.26,8.26,0,0,1,.93.69l.23.2.11.11.14.15.11.1s0,.1,0,.14l-.06.21a2.61,2.61,0,0,0-.06.27,3.73,3.73,0,0,0,.19,2,4.23,4.23,0,0,0,.94,1.44,4.62,4.62,0,0,0,1,.76c.14.08.25.12.33.16Z"/><path class="cls-18" d="M82.84,15.18l5.75-1.41C87.21,18,82.29,20,77.86,20s-8.76-1.29-13.18-1.34-9.39,1.69-11.07,5.77l1.71,6.21L53,33.29l1.23,6.88S50.86,33.9,47.29,36c0,0-1.51-2.66-3.19-5.81-2.15-4-4.58-8.8-4.51-9.91.13-2,5.52-5.1,5.52-5.1S46.68,4.61,61.84,3.65c3.81-.24,7.58,1,11.39,1s8-1.3,9.88-4.63a7.72,7.72,0,0,1-.8,6.5,7.1,7.1,0,0,1-1.48,1.75,10.76,10.76,0,0,0,6.6-3.09A10.57,10.57,0,0,1,82.84,15.18Z"/><path class="cls-14" d="M83.11,0a7.72,7.72,0,0,1-.8,6.5,31.64,31.64,0,0,1-8.26,5.3l4.83.56c-2.53,2.09-6.26,1.67-9.44.85s-6.56-1.91-9.65-.79-5,4.09-6.79,6.83-4,5.65-7.16,6.36l5.23,4-7,.61c-1.33-2.47-2.76-5.25-3.64-7.26a8.61,8.61,0,0,1-.87-2.65c.13-2,5.52-5.1,5.52-5.1S46.68,4.61,61.84,3.65c3.81-.24,7.58,1,11.39,1a15.65,15.65,0,0,0,3.4-.36A9.43,9.43,0,0,0,83.11,0Z"/><path class="cls-19" d="M68,7.47,71.08,9.1a37.82,37.82,0,0,0-8.66-1,12.75,12.75,0,0,0-8.05,2.93c-2,1.85-3.2,4.49-5,6.62s-4.73,3.78-7.24,2.62l1.74,3.16-3.44-.54a8.61,8.61,0,0,1-.87-2.65c.13-2,5.52-5.1,5.52-5.1S46.68,4.61,61.84,3.65c3.81-.24,7.58,1,11.39,1a15.65,15.65,0,0,0,3.4-.36A21,21,0,0,1,68,7.47Z"/><path class="cls-20" d="M83.06,117.81c.27,1.33.62,2.63,1,3.9a39,39,0,0,0,76-15.81c-.14-1.32-.35-2.65-.62-4s-.62-2.63-1-3.9a39,39,0,0,0-76,15.81C82.58,115.15,82.78,116.48,83.06,117.81Z"/><path class="cls-21" d="M83.06,117.81a39,39,0,0,0,63.19,22A39,39,0,0,1,102.5,75.65,39,39,0,0,0,83.06,117.81Z"/><path class="cls-21" d="M83.06,117.81c.27,1.33.62,2.63,1,3.9l76-15.81c-.14-1.32-.35-2.65-.62-4s-.62-2.63-1-3.9l-76,15.81C82.58,115.15,82.78,116.48,83.06,117.81Z"/><path class="cls-11" d="M118.1,122c-.4-1.37-23.12.52-23.12.52a16.16,16.16,0,0,0,4.49-9.68v-.1a.92.92,0,0,0-.28-.86.81.81,0,0,0-.43-.11,4.49,4.49,0,0,0-3.39,1.62,33.21,33.21,0,0,0-2.28,3.12,19.39,19.39,0,0,1-5.71,4.6c-3.56,2.19-3.77,9.75-3.77,9.75s-.59.15-1.38.38l2.2,11.32,5-1,3,1.33c2.23.67,23.71-3.27,23.86-4.73a8.43,8.43,0,0,0,0-1.24c0-.65-.08-1.26-.12-1.67s-.07-.48-.07-.48a14.11,14.11,0,0,0,.61-1.64,8.26,8.26,0,0,0,.38-1.64,1.66,1.66,0,0,0-.26-1.32,10.06,10.06,0,0,0-3.45-.64c-4.46-.43-11.59-.65-11.28-1.08.44-.59,15.81-4,15.81-4a3.1,3.1,0,0,0,.34-1.06A3.07,3.07,0,0,0,118.1,122Z"/><path class="cls-13" d="M116.78,130.2a10.06,10.06,0,0,0-3.45-.64c-.73,1.09-1.2,2.52-1.94,3.48a12.43,12.43,0,0,1-4.37,3.58,19.56,19.56,0,0,1-9.1,1.55c-3.11-.07-6.22-.45-9.32-.28a31.69,31.69,0,0,0-4.95.68l.83,4.55,4.91-1.53,3,1.33c2.23.67,23.71-3.27,23.86-4.73a8.43,8.43,0,0,0,0-1.24c0-.65-.08-1.26-.12-1.67s-.07-.48-.07-.48a14.11,14.11,0,0,0,.61-1.64,8.26,8.26,0,0,0,.38-1.64A1.66,1.66,0,0,0,116.78,130.2Z"/><path class="cls-17" d="M116.66,133.16c-.4,0-.82.07-1.24.09a35,35,0,0,1-6.32-.28c-1.51-.21-2.47-.43-2.59-.46.12,0,1.09-.19,2.59-.38s3.81-.43,6.23-.55l1.71-.06A7.62,7.62,0,0,1,116.66,133.16Z"/><path class="cls-17" d="M116.24,137a36.69,36.69,0,0,1-7.31-.23,37.79,37.79,0,0,1,7.19-1.44C116.16,135.69,116.22,136.3,116.24,137Z"/><path class="cls-7" d="M53.59,65.35S43,67.26,40.11,72.94c-1.91,3.78-15.58,64.08-8.31,75s54.54-1,54.54-1l-2.86-22.32-29.76,3.56Z"/><path class="cls-8" d="M53.14,128.08a1.42,1.42,0,0,0,1.41,1.41c5.56-.42,11.11-1,16.65-1.52,3.52-.35,8.22.07,10.83-2.55a.08.08,0,0,0,0-.12c-3.28-2.19-8.06-.68-11.8-.31-4.79.47-9.59,1-14.38,1.54,0,0,.69-39.83-.4-42.91s-8.68-11-8.68-11,6.76,10.88,6.76,12.11S53.14,128.08,53.14,128.08Z"/><path class="cls-8" d="M82,142.72c-5.94,1.4-11.57,4.05-17.51,5.54-6.35,1.6-12.81,1.8-19.24,2.76-.86.13-.58,1.38.19,1.43a70.44,70.44,0,0,0,37.17-8.28A.8.8,0,0,0,82,142.72Z"/><polygon class="cls-8" points="75.11 124.05 84.35 122.32 86.34 146.95 78.98 148.6 75.11 124.05"/><rect class="cls-10" x="60.01" y="102.86" width="19.98" height="11.14" transform="translate(140 216.86) rotate(180)"/><rect class="cls-9" x="71.18" y="104.99" width="6.88" height="6.88" transform="translate(149.24 216.86) rotate(180)"/><rect class="cls-9" x="61.94" y="104.99" width="7.33" height="1.63" transform="translate(131.21 211.62) rotate(180)"/><rect class="cls-9" x="61.94" y="107.61" width="7.33" height="1.63" transform="translate(131.21 216.86) rotate(180)"/><rect class="cls-9" x="61.94" y="110.23" width="7.33" height="1.63" transform="translate(131.21 222.1) rotate(180)"/><rect class="cls-22" x="68.9" y="99.43" width="2.21" height="4.35" transform="translate(140 203.2) rotate(180)"/><path class="cls-11" d="M139.63,137.94c-1.2,1,.21,8.87-.21,6.48s-5.67-10.23-7.3-9.53.54,14.1.54,14.1-4.06-10-6.94-8c-.94.64-1.15,2.58-1,4.88-2-1.68-3.85-2.67-4.5-1-1.51,3.83,6.49,12.09,6.49,12.09,10.25,8.57,19.23-10.63,19.23-10.63S140.82,136.91,139.63,137.94Z"/><path class="cls-8" d="M98,148.6s5.66,39.22,6,45.1-2.36,25.89-2.36,25.89l-.11-26.48Z"/><polygon class="cls-8" points="83.65 171.56 87.19 178.73 61.94 191.88 59.06 185.72 83.65 171.56"/></g></g></svg>