<svg xmlns="http://www.w3.org/2000/svg" viewBox="0 0 54.81 71.93"><g id="Layer_2" data-name="Layer 2"><g id="Layer_1-2" data-name="Layer 1"><path d="M47.36,0a9.69,9.69,0,0,1,4.09,1.71,8.14,8.14,0,0,1,3.33,6.45,43.2,43.2,0,0,1-.2,6.44c-.4,3-2,5.4-3.88,7.68a69.67,69.67,0,0,1-9.53,9.2c-.88.74-1.76,1.48-2.62,2.23a2.76,2.76,0,0,0,0,4.53c2.78,2.43,5.58,4.85,8.34,7.31.91.8,1.73,1.71,2.56,2.6a2.79,2.79,0,0,1,0,4,2.74,2.74,0,0,1-4-.16A116,116,0,0,0,35,42.6a8.43,8.43,0,0,1,0-13.25c3.24-2.81,6.44-5.65,9.55-8.6a16.13,16.13,0,0,0,4.17-5.84,7.54,7.54,0,0,0,.47-2.31c.08-1.33,0-2.67,0-4a2.81,2.81,0,0,0-2.94-3H8.58a2.81,2.81,0,0,0-2.95,3c0,1.36,0,2.72,0,4.08A7.66,7.66,0,0,0,7.1,16.83a41,41,0,0,0,7.54,8.09c1.73,1.51,3.49,3,5.23,4.47a8.42,8.42,0,0,1,0,13.16c-3.23,2.81-6.44,5.65-9.55,8.6A16.12,16.12,0,0,0,6.14,57a7.56,7.56,0,0,0-.49,2.31c-.08,1.35,0,2.71,0,4.07a2.8,2.8,0,0,0,3,3H46.18a2.82,2.82,0,0,0,3-2.84,2.81,2.81,0,1,1,5.61.25,8.47,8.47,0,0,1-8,8.2H8.62A8.41,8.41,0,0,1,.23,65.39a3.89,3.89,0,0,1-.14-.83,65.37,65.37,0,0,1,.16-7.28c.35-2.93,2-5.35,3.84-7.61a70.92,70.92,0,0,1,9.53-9.21c.84-.7,1.69-1.41,2.52-2.13,1.71-1.49,1.71-3.22,0-4.71C13.22,31,10.24,28.5,7.38,25.84a27.77,27.77,0,0,1-5.77-7.29A12.7,12.7,0,0,1,0,12.23c.05-1.7,0-3.43.15-5.11A8.29,8.29,0,0,1,7,.13,2.42,2.42,0,0,0,7.45,0Z"/><path d="M27.36,60.27H16.2a2.45,2.45,0,0,1-2.53-1.53,2.25,2.25,0,0,1,.62-2.62C17.7,53.05,21.1,50,24.58,47A4.2,4.2,0,0,1,30.3,47c3.44,3,6.81,6,10.18,9a2.24,2.24,0,0,1,.64,2.68,2.38,2.38,0,0,1-2.39,1.51Z"/><path d="M27.56,17.84h5.12a2.58,2.58,0,0,1,1.81,4.64c-1.29,1.15-2.58,2.3-3.91,3.41a4.37,4.37,0,0,1-6,0c-1.34-1.13-2.65-2.29-4-3.46a2.58,2.58,0,0,1,1.8-4.62Z"/></g></g></svg>