<svg width="247" height="223" viewBox="0 0 247 223" fill="none" xmlns="http://www.w3.org/2000/svg">
<path d="M244.518 51.7877L215.186 29.1872C213.193 27.9077 211.026 26.9219 208.752 26.2603C206.487 25.5272 204.129 25.1197 201.75 25.05H117.325L127.217 86.8H201.75C203.775 86.8 206.307 86.343 208.74 85.5897C211.173 84.8363 213.519 83.7989 215.174 82.6751L244.505 60.0499C246.173 58.926 247 57.4317 247 55.925C247 54.4183 246.173 52.9239 244.518 51.7877V51.7877ZM104.975 0.349976H92.625C90.9873 0.349976 89.4167 1.00055 88.2586 2.15859C87.1006 3.31663 86.45 4.88726 86.45 6.52498V49.75H45.2504C43.2003 49.75 40.6809 50.2069 38.2479 50.9726C35.8026 51.7136 33.4685 52.7387 31.8136 53.8872L2.48235 76.4877C0.8151 77.6116 0 79.1183 0 80.625C0 82.1193 0.8151 83.6137 2.48235 84.7622L31.8136 107.387C33.4685 108.511 35.8026 109.549 38.2479 110.29C40.6809 111.043 43.2003 111.5 45.2504 111.5H86.45V216.475C86.45 218.113 87.1006 219.683 88.2586 220.841C89.4167 221.999 90.9873 222.65 92.625 222.65H104.975C106.613 222.65 108.183 221.999 109.341 220.841C110.499 219.683 111.15 218.113 111.15 216.475V6.52498C111.15 4.88726 110.499 3.31663 109.341 2.15859C108.183 1.00055 106.613 0.349976 104.975 0.349976V0.349976Z" fill="#FDAB15"/>
</svg>
