<svg xmlns="http://www.w3.org/2000/svg" viewBox="0 0 159.98 357.84"><defs><style>.cls-1{isolation:isolate;}.cls-2{fill:#ccc;}.cls-3{fill:#474747;}.cls-4{fill:#2c2c2c;}.cls-5{fill:#845652;}.cls-6{fill:#683534;}.cls-7{fill:#fff;}.cls-21,.cls-8{fill:#e0e0e0;}.cls-9{fill:#8bccca;}.cls-10{fill:#ea7c6f;}.cls-11{fill:#f3a080;}.cls-12{fill:#f8bf92;}.cls-13{fill:#b54b57;}.cls-14{fill:#1d1e1e;}.cls-15{fill:#dd5b67;}.cls-16{fill:#38102b;}.cls-17{fill:#4a0e2f;}.cls-18{fill:#5f1234;}.cls-19{fill:#6baaa7;}.cls-20{fill:#526995;}.cls-21{mix-blend-mode:multiply;}.cls-22{fill:#bd4761;}.cls-23{fill:#f3803d;}.cls-24{fill:#8d964d;}.cls-25{fill:#b88b61;}.cls-26{fill:#434356;}.cls-27{fill:#ffb600;}</style></defs><g class="cls-1"><g id="Layer_2" data-name="Layer 2"><g id="Object"><path class="cls-2" d="M160,348.48a352.09,352.09,0,0,1-80,9.36,352.09,352.09,0,0,1-80-9.36,352.45,352.45,0,0,1,80-9.35A352.45,352.45,0,0,1,160,348.48Z"/><path class="cls-3" d="M105,235s10.32,19.88,10.93,27.89c.31,4.17,3.34,59.36,3.34,59.36H106.33s-13-67.72-16.25-74.69c-1.46-3.15-4.48-17.05-7.35-31.37,7.55-.75,15-1.88,22.4-3.25C105.06,225,105,235,105,235Z"/><path class="cls-3" d="M71.86,217c-.22,10.87-.46,20.25-.66,21.36,0,0,4.59,13.53,6,20.64,1,5.2-4.16,69.64-4.16,69.64H59.84s-4.52-79.68-6.26-84.7c-.8-2.31-2.75-14-4.46-27.28A170.73,170.73,0,0,0,71.86,217Z"/><path class="cls-4" d="M105,235s10.32,19.88,10.93,27.89c.31,4.17,3.34,59.36,3.34,59.36h-2.11c-.81-14-3.89-59.37-4.82-60.3-1.11-1.11-12.64-29-12.64-29s.4-8.32.77-19.12c1.57-.27,3.13-.55,4.69-.84C105.06,225,105,235,105,235Z"/><path class="cls-4" d="M71.2,238.35s4.59,13.53,6,20.64c1,5.2-4.16,69.64-4.16,69.64H70.07L74,262.7l-6.63-25.82.15-19.72c1.45,0,2.9-.1,4.35-.17C71.64,227.86,71.4,237.24,71.2,238.35Z"/><path class="cls-5" d="M34.49,343.54a2.66,2.66,0,0,1,1.38-2.16c2.73-1.35,12.76-5.54,15.46-7.88,2.1-1.82,3.92-5.73,4.63-7.39l18.75.71c1.14,5.15,2,15.08,2.11,17.15Z"/><polygon class="cls-6" points="34.42 348.05 76.75 348.48 76.82 343.97 34.49 343.54 34.42 348.05"/><path class="cls-6" d="M54.88,334.8c0,.05,0,.11.08.16.2.4.33,1-.17,1.24a1.25,1.25,0,0,1-.81,0,8.33,8.33,0,0,1-2.59-1.14A6.65,6.65,0,0,1,49,333a1.07,1.07,0,0,1,1.25-1.61A7.52,7.52,0,0,1,54.88,334.8Z"/><path class="cls-6" d="M51.66,337.18l.08.16c.21.4.33,1-.16,1.24a1.28,1.28,0,0,1-.82,0,8.1,8.1,0,0,1-2.59-1.14,6.56,6.56,0,0,1-2.37-2c-.58-1,.25-1.83,1.25-1.6A7.54,7.54,0,0,1,51.66,337.18Z"/><path class="cls-6" d="M47.72,338.74a1.09,1.09,0,0,1,.08.15c.2.4.33,1-.17,1.24a1.25,1.25,0,0,1-.81,0A8.3,8.3,0,0,1,44.23,339a6.68,6.68,0,0,1-2.37-2c-.58-1,.25-1.83,1.25-1.6A7.52,7.52,0,0,1,47.72,338.74Z"/><path class="cls-5" d="M100.39,345.09c-.28,2.85,12.06,9.23,14.31,8.39s11.21-6.74,12-10.52c.27-1.19-.19-3.75-1-6.68-1.64-6.37-4.67-14.55-4.67-14.55l-17.29-.18s-1.92,12.56-2.89,19.35C100.67,342.9,100.45,344.45,100.39,345.09Z"/><path class="cls-6" d="M100.39,345.09c-.28,2.85,12.06,9.23,14.31,8.39s11.21-6.74,12-10.52c.27-1.19-.19-3.75-1-6.68-3.25,3.64-8.52,8.84-12.19,8.81-3.06,0-8.4-2.2-12.66-4.19C100.67,342.9,100.45,344.45,100.39,345.09Z"/><path class="cls-6" d="M115.66,328.07a8.46,8.46,0,0,1-2.47,1.39,6.66,6.66,0,0,1-3.06.65,1.06,1.06,0,0,1-.52-2,7.52,7.52,0,0,1,5.46-1.65l.18,0c.44.08,1,.35.89.88A1.31,1.31,0,0,1,115.66,328.07Z"/><path class="cls-6" d="M110.1,334.12a1.07,1.07,0,0,1-.53-2A7.59,7.59,0,0,1,115,330.5l.17,0c.44.08,1,.35.89.88a1.25,1.25,0,0,1-.47.66,8.46,8.46,0,0,1-2.47,1.39A6.86,6.86,0,0,1,110.1,334.12Z"/><path class="cls-6" d="M110.58,336.46a7.55,7.55,0,0,1,5.46-1.65l.18,0c.43.08,1,.35.88.88a1.23,1.23,0,0,1-.47.66,8.46,8.46,0,0,1-2.47,1.39,6.69,6.69,0,0,1-3.06.65A1.06,1.06,0,0,1,110.58,336.46Z"/><path class="cls-7" d="M131,250.94c-10.78,4.61-45.57-2.47-45.57-2.47l-5.22-15.39-3.42,14.16c-3.42,4.31-35.16,5.42-35.16,5.42L55.48,119s-7.56-7.48-9.1-13.66,6.88-31.38,6.88-31.38V68.08l8.62-3.35L72,60.81l15.72-.62,16,3.22s0,.19.07.54c.66,4.93,5.6,41.72,5.47,44.31C109,111,131,250.94,131,250.94Z"/><path class="cls-8" d="M103.72,64a15.1,15.1,0,0,1-1,5.21c-1.48,2.61-8.25,7.62-8.25,7.62s1.81,1.59.93,5S82.29,94,82.29,94s-12.82-6.2-12.7-7.28,1.88-6.32,1.88-6.32-4.93-.45-6.81-2.11c-1.25-1.09-2.25-8.57-2.78-13.55L72,60.81l15.72-.62,16,3.22S103.68,63.6,103.72,64Z"/><polygon class="cls-8" points="97.01 169.22 94.39 174.53 113.1 184.28 115.23 179.71 97.01 169.22"/><polygon class="cls-8" points="67.47 172.92 69.64 177.29 54.22 185.32 52.47 181.56 67.47 172.92"/><path class="cls-9" d="M72,60.81,66.33,63s14,30.73,16,31S96,61.86,96,61.86L87.7,60.19Z"/><path class="cls-8" d="M79.92,227.85s-4-34.68-4.47-40.63,4.47-37.62,4.47-37.62L78.5,188.73Z"/><path class="cls-7" d="M53.26,68.08s-10.15,4-11.59,6.16-13.76,64-12.84,67.11,10.22,12,12.19,13.23,36.27,8.32,36.27,8.32l2.63-14.8L58,138.46l2.6-50.82Z"/><path class="cls-7" d="M103.65,63.4s17.32,5.91,18.77,8.07,13.48,66.8,12.56,69.88-10.22,12-12.19,13.23-36.28,8.32-36.28,8.32l-2.62-14.8,21.88-9.64-2.6-50.82Z"/><path class="cls-10" d="M82.82,56.4A13.94,13.94,0,0,1,74.16,55c.16-3.46.15-7.63.15-7.63L86,47.54a60.65,60.65,0,0,0,.09,7.18A6.46,6.46,0,0,1,82.82,56.4Z"/><path class="cls-11" d="M85,63.6a13.22,13.22,0,0,0,2.75-3.41l0,0c-.93-.76-1.37-3-1.58-5.43a6.46,6.46,0,0,1-3.25,1.68A13.94,13.94,0,0,1,74.16,55a22.48,22.48,0,0,1-.45,4.19A4.91,4.91,0,0,1,72,60.81c2.06,2.08,4.29,3.93,7,4.59C81,65.94,83.06,64.94,85,63.6Z"/><path class="cls-12" d="M67.29,41.54A7,7,0,0,1,62,38.45a9.24,9.24,0,0,1-.57-.9c-.8-1.5-1.42-6.85.21-8.23,1.15-1,2.13.22,2.62,1h0a4.59,4.59,0,0,1,.32.61Z"/><path class="cls-11" d="M67.29,41.54A7,7,0,0,1,62,38.45L61.78,38c-.8-1.49-1.42-6.84.21-8.23.93-.79,1.75-.15,2.29.55h0a4.59,4.59,0,0,1,.32.61Z"/><path class="cls-10" d="M61.46,33.62a3,3,0,0,0,.18,1.3c.62,1.76,2.15,3,3.6,4.19a5.71,5.71,0,0,1-.7-2.78,8.53,8.53,0,0,0,0-1C64.45,34,61.77,31,61.46,33.62Z"/><path class="cls-13" d="M66,39.57l-.09,0-.23-.15a3.88,3.88,0,0,1-.73-.71,4.09,4.09,0,0,1-.66-1.39,3.75,3.75,0,0,1,0-1.91,2.25,2.25,0,0,1,.08-.24l0-.06s0,0,0,0h0l0,0,0-.1-.11-.2c-.15-.25-.31-.49-.47-.71a7.49,7.49,0,0,0-.49-.6,3.47,3.47,0,0,0-.47-.47.87.87,0,0,0-.45-.21.54.54,0,0,0-.37.11.33.33,0,0,0-.15.2.32.32,0,0,0,0,.09.21.21,0,0,1,0-.09.4.4,0,0,1,.12-.26.64.64,0,0,1,.41-.2,1,1,0,0,1,.6.16,3.79,3.79,0,0,1,.57.44,6.29,6.29,0,0,1,.57.58,6.76,6.76,0,0,1,.54.72l.13.2.06.11.08.14.06.11s0,.07,0,.11l-.06.15a1.42,1.42,0,0,0-.07.22,3.75,3.75,0,0,0-.08,1.69,4.15,4.15,0,0,0,.46,1.33,3.93,3.93,0,0,0,.58.79,1.59,1.59,0,0,0,.2.19Z"/><path class="cls-12" d="M94.52,39.37a7,7,0,0,0,4.71-3.89c.17-.35.31-.68.42-1,.55-1.6.31-7-1.52-8.09-1.28-.78-2.06.56-2.42,1.43h0a5.21,5.21,0,0,0-.22.66Z"/><path class="cls-11" d="M94.52,39.37a7,7,0,0,0,4.71-3.89L99.4,35c.55-1.6.31-7-1.52-8.09-1-.63-1.75.13-2.17.9h0a5.21,5.21,0,0,0-.22.66Z"/><path class="cls-10" d="M99,30.63a2.89,2.89,0,0,1,0,1.31c-.33,1.83-1.64,3.32-2.89,4.71a5.57,5.57,0,0,0,.25-2.86c-.06-.33-.14-.66-.17-1C96.11,31.44,98.3,28.13,99,30.63Z"/><path class="cls-13" d="M95.51,37.21l.07-.06.21-.18a3.4,3.4,0,0,0,.6-.82,3.81,3.81,0,0,0,.12-3.36,1.55,1.55,0,0,0-.12-.22l0-.06s0,0,0,0h0l0-.06,0-.1.08-.21c.11-.28.23-.54.35-.78s.26-.46.39-.67a5,5,0,0,1,.39-.54.89.89,0,0,1,.41-.28.61.61,0,0,1,.39.05.44.44,0,0,1,.18.18.78.78,0,0,1,0,.09.67.67,0,0,0,0-.1.48.48,0,0,0-.16-.23.65.65,0,0,0-.45-.14,1,1,0,0,0-.56.26,3.06,3.06,0,0,0-.49.52,7,7,0,0,0-.47.66,6,6,0,0,0-.42.8,1.47,1.47,0,0,0-.1.22l0,.11-.06.16,0,.11.06.1.08.15a1.24,1.24,0,0,1,.1.2,3.8,3.8,0,0,1,.35,1.65,4.12,4.12,0,0,1-.25,1.4,4.07,4.07,0,0,1-.44.87l-.16.22Z"/><path class="cls-12" d="M95.52,27.51s.41,10.47-2,14.57c-2.06,3.42-4.94,8.85-10,11a5.1,5.1,0,0,1-3.18.25c-5.4-1.34-9.1-6.24-11.67-9.3-3.08-3.65-4.34-14-4.34-14-.08-.69-.13-1.36-.18-2v0C62.79,8.2,78.23,8.06,78.23,8.06S93.36,7,95.43,26.49Z"/><path class="cls-11" d="M95.43,26.49c0,1.68.16,10.59-2.06,14.29-2.06,3.43-4.94,8.85-10.06,11a5,5,0,0,1-3.17.25c-5.4-1.34-9.1-6.24-11.68-9.3-3.07-3.65-4.33-14-4.33-14,0-.24,0-.48-.08-.71v0C62.79,8.2,78.23,8.06,78.23,8.06S93.36,7,95.43,26.49Z"/><path class="cls-14" d="M68.6,27.64A3.42,3.42,0,0,0,70.38,29a1.42,1.42,0,0,1,1-.63c1-.07,1.93,1.19,2,2.81s-.61,3-1.62,3.08-1.93-1.18-2-2.81A4.61,4.61,0,0,1,69.9,30,5.45,5.45,0,0,1,68.6,27.64Z"/><path class="cls-7" d="M71.73,31.57a3.78,3.78,0,0,1-4.29-.87,3.77,3.77,0,0,1,4.29.87Z"/><path class="cls-14" d="M90.31,25.91a3.37,3.37,0,0,1-1.55,1.57A1.39,1.39,0,0,0,87.65,27c-1,.08-1.72,1.47-1.57,3.1s1.07,2.87,2.08,2.78,1.72-1.48,1.58-3.1a4.11,4.11,0,0,0-.34-1.37A5.5,5.5,0,0,0,90.31,25.91Z"/><path class="cls-7" d="M87.84,30.28a3.75,3.75,0,0,0,4.1-1.54,4.3,4.3,0,0,0-2.3.12A4.24,4.24,0,0,0,87.84,30.28Z"/><path class="cls-10" d="M79.93,37.24a2.19,2.19,0,0,1,2,1.09.41.41,0,0,1,.07.28c0,.14-.18.22-.32.27a7.49,7.49,0,0,1-3.07.47C76.71,39.23,79,37.28,79.93,37.24Z"/><path class="cls-15" d="M79.06,38.83v-.31c0-.1,0-.22,0-.36s0-.3,0-.47,0-.36,0-.56,0-.42,0-.64c0-.44-.08-.93-.12-1.44s-.11-1-.16-1.43c0-.22-.06-.43-.09-.63s-.06-.39-.09-.56-.06-.32-.08-.46,0-.26-.07-.36l0-.3.19.24a3,3,0,0,1,.21.3c.08.12.17.26.26.42s.18.34.26.53.17.41.25.63A7.65,7.65,0,0,1,79.83,35a7.3,7.3,0,0,1,0,1.56c0,.24-.07.46-.12.67a5.71,5.71,0,0,1-.16.57,3.44,3.44,0,0,1-.17.46,2.63,2.63,0,0,1-.15.33A1.85,1.85,0,0,1,79.06,38.83Z"/><path class="cls-7" d="M87.19,40.87s-5.1.2-12.43,3.92c0,0,3.2,3.76,7.64,2.11A7.43,7.43,0,0,0,87.19,40.87Z"/><path class="cls-16" d="M94.62,36.78s0-.24.07-.66l0-.35c0-.13,0-.26,0-.41s.07-.64.09-1c0-.19,0-.38,0-.58s0-.42,0-.63c0-.44.05-.9.08-1.38,0-1,.08-2,.1-3.15s0-2.17,0-3.15c0-.48,0-.95,0-1.38l0-.64c0-.2,0-.4,0-.58,0-.38,0-.72-.07-1,0-.15,0-.29,0-.42l0-.35c0-.43,0-.67,0-.67s.1.21.26.6l.14.32c0,.13.09.26.15.4s.22.61.33,1c.05.18.11.38.16.58s.11.42.16.64c.11.44.2.92.29,1.43a21.67,21.67,0,0,1,.24,3.34A19.58,19.58,0,0,1,96.25,32c-.1.5-.2,1-.32,1.4l-.18.62-.18.56c-.12.36-.25.67-.36.94l-.16.38-.14.31C94.73,36.58,94.62,36.78,94.62,36.78Z"/><path class="cls-16" d="M67.32,42.13s-.12-.2-.31-.57-.47-.9-.78-1.58-.64-1.52-1-2.46a32.39,32.39,0,0,1-.89-3.14,30.34,30.34,0,0,1-.52-3.23c-.11-1-.15-1.92-.17-2.69s0-1.38,0-1.81,0-.66,0-.66.07.22.18.63.28,1,.47,1.73.41,1.58.65,2.54.48,2,.73,3.1.46,2.16.64,3.12.36,1.85.49,2.59.24,1.35.31,1.77S67.32,42.13,67.32,42.13Z"/><path class="cls-10" d="M71.8,37.63c-.2.7-2.09.78-4.21.18s-3.68-1.68-3.48-2.38,2.09-.79,4.21-.18S72,36.92,71.8,37.63Z"/><path class="cls-10" d="M96.51,32.71c.33.65-1,2-3,3s-3.83,1.29-4.17.64,1-2,3-3S96.17,32.06,96.51,32.71Z"/><path class="cls-16" d="M79.86,16.8l2.21,3.36c-6.18-1.41-9.53-2.39-12.92-7.75A27.59,27.59,0,0,1,60,33.49c-.49-1.65-1-3.35-1.3-5.05-.92-4.31-1.12-8.69.74-12.64a13.78,13.78,0,0,1,6.37-6.47,12.75,12.75,0,0,1,6-7.57A16.18,16.18,0,0,1,81,.08a17.75,17.75,0,0,1,6.34,1.84,18.91,18.91,0,0,1,8.58,10.31,23.93,23.93,0,0,1,.89,3.31c1.09,5.14,1.78,12.52,1.78,12.52S85.09,20.58,79.86,16.8Z"/><path class="cls-17" d="M64.56,23.67s7.9-3.26,9.88-1c1.16,1.32-.11,1.75-.11,1.75Z"/><path class="cls-17" d="M93.64,21.19s-8.31-2-9.91.59c-.94,1.49.38,1.71.38,1.71Z"/><path class="cls-17" d="M87.75,14.66A60.19,60.19,0,0,1,74.24,9.43a14.38,14.38,0,0,0,.6,3.32,36.47,36.47,0,0,1-7.5-3.54,22.36,22.36,0,0,1-3.41,11.46,6.21,6.21,0,0,0-1-3.56c.18.28-.27,1.71-.33,2.06-.14.72-.29,1.43-.46,2.14A17.21,17.21,0,0,1,59,28.11c-.09.1-.17.21-.26.33a24.08,24.08,0,0,1-.5-8.47,14.58,14.58,0,0,1,1.24-4.17,13.94,13.94,0,0,1,6.31-6.45l.06,0A11.49,11.49,0,0,1,68.3,4.71a12.71,12.71,0,0,1,3.56-2.95A16.18,16.18,0,0,1,81,.08a17.75,17.75,0,0,1,6.34,1.84,17.66,17.66,0,0,1,6.93,6.84,20.41,20.41,0,0,1,1.65,3.47,23.93,23.93,0,0,1,.89,3.31A33.07,33.07,0,0,1,87.75,14.66Z"/><path class="cls-18" d="M65.77,9.35a1.38,1.38,0,0,1,0,.2A9.54,9.54,0,0,1,63.13,15c0-.59-.09-1.17-.13-1.75A25.13,25.13,0,0,1,58.22,20a14.58,14.58,0,0,1,1.24-4.17A13.94,13.94,0,0,1,65.77,9.35Z"/><path class="cls-18" d="M73.06,3.52q.18,1.18.39,2.37A18.19,18.19,0,0,1,68.3,4.71a12.71,12.71,0,0,1,3.56-2.95A16.18,16.18,0,0,1,81,.08a17.75,17.75,0,0,1,6.34,1.84,17.66,17.66,0,0,1,6.93,6.84C87,9.67,79.43,7.32,73.06,3.52Z"/><path class="cls-19" d="M74,57.7,66.33,63l6.16,13.18L81,68.08l9.63,8.1L96,61.86l-9.62-4.93s-.11,6-5.72,6.47S74,57.7,74,57.7Z"/><path class="cls-20" d="M99.16,128.93c-.2-4.88-2.15-8.77-4.35-8.68s-3.83,4.12-3.63,9a2.72,2.72,0,0,0,0,.28c.26,4.75,2.18,8.48,4.34,8.39s3.7-3.82,3.64-8.45C99.17,129.3,99.17,129.12,99.16,128.93Z"/><path class="cls-7" d="M99.17,129.48a11.41,11.41,0,0,0-4-.93,12.36,12.36,0,0,0-4,1c.26,4.75,2.18,8.48,4.34,8.39S99.23,134.11,99.17,129.48Z"/><path class="cls-21" d="M95.82,120.49a2.06,2.06,0,0,0-1-.24c-2.21.09-3.83,4.12-3.63,9a2.72,2.72,0,0,0,0,.28c.26,4.75,2.18,8.48,4.34,8.39a2,2,0,0,0,1-.31c-1.72-.89-3.12-4.17-3.33-8.16,0-.1,0-.19,0-.28C93,125.06,94.13,121.54,95.82,120.49Z"/><path class="cls-7" d="M104.56,132.77c-3.43,3.48-7.49,5-9.06,3.49s-.06-5.62,3.37-9.1l.21-.2c3.38-3.34,7.31-4.81,8.85-3.29s.17,5.32-3,8.71Z"/><path class="cls-22" d="M104.94,132.38a11.61,11.61,0,0,1-3.61-2,12.72,12.72,0,0,1-2.25-3.4c3.38-3.34,7.31-4.81,8.85-3.29S108.1,129,104.94,132.38Z"/><path class="cls-21" d="M96.41,136.77a2.05,2.05,0,0,1-.91-.51c-1.57-1.55-.06-5.62,3.37-9.1l.21-.2c3.38-3.34,7.31-4.81,8.85-3.29a2.09,2.09,0,0,1,.53.9c-1.88-.5-5.11,1-8,3.8l-.2.19C97.4,131.5,95.87,134.86,96.41,136.77Z"/><path class="cls-23" d="M67.64,132.33c-1.39-4.69-.8-9,1.32-9.61s5,2.66,6.34,7.35c0,.09,0,.18.07.27,1.29,4.58.68,8.73-1.4,9.35s-4.73-2.43-6.17-6.83C67.74,132.68,67.69,132.51,67.64,132.33Z"/><path class="cls-7" d="M67.8,132.86a11.33,11.33,0,0,1,3.51-2.18,12.18,12.18,0,0,1,4.06-.34c1.29,4.58.68,8.73-1.4,9.35S69.24,137.26,67.8,132.86Z"/><path class="cls-21" d="M68.08,123.27a1.88,1.88,0,0,1,.88-.55c2.12-.63,5,2.66,6.34,7.35,0,.09,0,.18.07.27,1.29,4.58.68,8.73-1.4,9.35a2.15,2.15,0,0,1-1,0c1.35-1.4,1.61-5,.52-8.81a2.68,2.68,0,0,0-.07-.27C72.21,126.68,70,123.72,68.08,123.27Z"/><path class="cls-7" d="M67.54,127.72c4.06,2.73,6.35,6.42,5.12,8.25s-5.52,1.11-9.57-1.62a1.88,1.88,0,0,1-.23-.16c-3.92-2.7-6.1-6.29-4.89-8.09s5.19-1.15,9.11,1.32Z"/><path class="cls-22" d="M67.08,127.42a11.64,11.64,0,0,1-1.31,3.92,12.75,12.75,0,0,1-2.91,2.85c-3.92-2.7-6.1-6.29-4.89-8.09S63.16,125,67.08,127.42Z"/><path class="cls-21" d="M73,135a2,2,0,0,1-.32,1c-1.23,1.83-5.52,1.11-9.57-1.62a1.88,1.88,0,0,1-.23-.16c-3.92-2.7-6.1-6.29-4.89-8.09a2,2,0,0,1,.79-.68c-.15,1.94,1.92,4.84,5.21,7.11a1.88,1.88,0,0,0,.23.16C67.62,135,71.21,135.87,73,135Z"/><path class="cls-24" d="M85.77,132.51c-4.18-2.53-6.64-6.1-5.5-8s5.45-1.37,9.64,1.15l.23.15c4,2.52,6.39,6,5.27,7.85s-5.13,1.4-9.16-.88Z"/><path class="cls-7" d="M86.25,132.79a11.3,11.3,0,0,1,1.12-4,13,13,0,0,1,2.77-3c4,2.52,6.39,6,5.27,7.85S90.28,135.07,86.25,132.79Z"/><path class="cls-21" d="M80,125.52a2,2,0,0,1,.28-1c1.14-1.89,5.45-1.37,9.64,1.15l.23.15c4,2.52,6.39,6,5.27,7.85a2.16,2.16,0,0,1-.75.72c0-1.94-2.15-4.74-5.55-6.85a1.58,1.58,0,0,0-.24-.15C85.34,125.25,81.72,124.55,80,125.52Z"/><path class="cls-19" d="M77.48,133.73c4.18-2.52,6.65-6.1,5.51-8s-5.46-1.37-9.64,1.16a1.58,1.58,0,0,0-.24.15c-4,2.51-6.39,6-5.27,7.84S73,136.3,77,134Z"/><path class="cls-7" d="M77,134a11.52,11.52,0,0,0-1.12-4,12.57,12.57,0,0,0-2.78-3c-4,2.51-6.39,6-5.27,7.84S73,136.3,77,134Z"/><path class="cls-21" d="M83.27,126.74a2,2,0,0,0-.28-1c-1.14-1.89-5.46-1.37-9.64,1.16a1.58,1.58,0,0,0-.24.15c-4,2.51-6.39,6-5.27,7.84a2.11,2.11,0,0,0,.76.72c0-1.94,2.15-4.74,5.55-6.85a1.82,1.82,0,0,1,.23-.15C77.91,126.48,81.54,125.77,83.27,126.74Z"/><polygon class="cls-25" points="58.39 131.48 61.77 162.9 105.2 162.9 108.37 129.97 58.39 131.48"/><path class="cls-8" d="M51.5,157.48,41,154.58s-4.18-8.18-3.57-9.63,9.38-13.35,11.67-14,9.22,1.5,9.2,1.88,1.35,8,1.35,8Z"/><path class="cls-11" d="M57,154.91s-5.54,2.13-6.57,1.52S45,150,45.46,148.1s6.89-11.62,8.16-11.19,7.43,5,7.43,5Z"/><path class="cls-11" d="M82,140.89c-.1,1.85-12.69-.29-12.69-.29l-1.79,3.05L72.67,145l5.67,5.37s-.49,1.43-1.19,3.16a2.76,2.76,0,0,1-.2.47s0,0,0,0a.91.91,0,0,0-.07.14c-.08.19-.17.41-.26.6a22.32,22.32,0,0,1-1.17,2.4,1.66,1.66,0,0,0-.13.27,10.92,10.92,0,0,1-.78,1.13,2,2,0,0,1-.81.67l-5.2-3.14s-7.9,2.88-9.15,2.67c-.5-.08-2.17-1.55-4-3.26l-1.91-1.87a.17.17,0,0,0-.05-.05l-.67-.66,1.09-2.29.28-.57.11-.27.11-.26L58,141.9l.51-.33c.63-.38,1.38-.81,2.21-1.26.53-.28,1.08-.58,1.66-.87a25,25,0,0,1,6.35-2.38,6.23,6.23,0,0,1,2.21-.08C75.32,137.78,82.07,139.05,82,140.89Z"/><path class="cls-13" d="M77.15,153.57l-.27.66-.13-.1c-.71-.56-1.68-1.31-2.75-2.09a20,20,0,0,0-2.9-1.81l-.56-.26-.44-.17-.39-.15.43,0,.51,0,.67.06a8,8,0,0,1,3.51,1.44A9.48,9.48,0,0,1,77.15,153.57Z"/><path class="cls-13" d="M75.45,157.22l-.15.26-.76-.62c-.71-.56-1.69-1.31-2.75-2.09A20.06,20.06,0,0,0,68.88,153l-.56-.26-.44-.17-.39-.15.43,0,.51,0,.67.07a7.86,7.86,0,0,1,3.51,1.43A9.3,9.3,0,0,1,75,156.48C75.21,156.76,75.35,157,75.45,157.22Z"/><path class="cls-8" d="M113.38,156.58l10.47-2.9s4.19-8.18,3.57-9.63-9.38-13.36-11.66-14-9.23,1.49-9.21,1.87-1.35,8-1.35,8Z"/><path class="cls-11" d="M107.93,154s5.54,2.13,6.56,1.52,5.34-6.39,4.93-8.32-6.9-11.63-8.17-11.19-7.43,4.94-7.43,4.94Z"/><path class="cls-11" d="M82.89,140c.11,1.85,12.7-.29,12.7-.29l1.78,3.05-5.17,1.4-5.66,5.37s.49,1.43,1.19,3.15a3.29,3.29,0,0,0,.19.47l0,0,.07.15c.07.19.16.4.25.59a24.57,24.57,0,0,0,1.17,2.41c0,.08.1.18.14.26a9.74,9.74,0,0,0,.78,1.14,1.92,1.92,0,0,0,.81.67l5.2-3.14s7.89,2.88,9.14,2.66c.5-.08,2.18-1.54,4-3.26.64-.61,1.29-1.26,1.92-1.87l0-.05c.21-.22.44-.44.67-.65l-1.09-2.3-.28-.57-.12-.27-.11-.26L106.93,141l-.52-.32c-.62-.38-1.37-.81-2.21-1.27-.52-.27-1.08-.58-1.65-.86a24.78,24.78,0,0,0-6.35-2.39,6.52,6.52,0,0,0-2.22-.08C89.56,136.87,82.81,138.14,82.89,140Z"/><path class="cls-13" d="M87.73,152.67c.08.21.18.43.27.65l.13-.09c.71-.57,1.68-1.32,2.74-2.1a20.06,20.06,0,0,1,2.91-1.81l.55-.26.45-.17.39-.15-.43,0h-.51l-.67.06a8,8,0,0,0-3.51,1.43A9.33,9.33,0,0,0,87.73,152.67Z"/><path class="cls-13" d="M89.43,156.31c0,.09.1.18.14.27l.77-.62c.71-.57,1.68-1.31,2.75-2.1a20.94,20.94,0,0,1,2.9-1.81l.56-.26.45-.16.39-.16-.44,0h-.51l-.67.06a8,8,0,0,0-3.5,1.43,9.44,9.44,0,0,0-2.43,2.65C89.66,155.86,89.53,156.11,89.43,156.31Z"/><path class="cls-8" d="M44.1,76.78S53.47,88.5,53.47,90s-5.65,12.52-5.75,18.06S53.47,125,53.47,125s-4.58-15.7-4.14-16.83S55.72,91.58,56,89.94,44.1,76.78,44.1,76.78Z"/><path class="cls-8" d="M119.45,77.09s-9.37,11.72-9.37,13.26,5.65,12.52,5.75,18.06-5.75,16.93-5.75,16.93,4.58-15.7,4.14-16.83-6.4-16.62-6.7-18.26S119.45,77.09,119.45,77.09Z"/><rect class="cls-19" x="88.39" y="99.32" width="19.98" height="11.14"/><rect class="cls-9" x="90.32" y="101.45" width="6.88" height="6.88"/><rect class="cls-9" x="99.11" y="101.45" width="7.33" height="1.63"/><rect class="cls-9" x="99.11" y="104.07" width="7.33" height="1.63"/><rect class="cls-9" x="99.11" y="106.69" width="7.33" height="1.63"/><rect class="cls-26" x="97.27" y="95.88" width="2.21" height="4.35"/><polygon class="cls-19" points="64.65 103.09 61.28 103.09 61.28 99.72 58.06 99.72 58.06 103.09 54.7 103.09 54.7 106.31 58.06 106.31 58.06 109.68 61.28 109.68 61.28 106.31 64.65 106.31 64.65 103.09"/><path class="cls-16" d="M99.66,79.26a73.93,73.93,0,0,0,4.49,11h0c-.7-.09-13.78-1.9-16.94-7.89-3.26-6.16-1.5-23.44-.84-25.42s7.29-9.61,7.29-9.61l-1-3.93.93-2,.91-2s7.17,4.59,10.86,11.47S98.35,74.55,99.66,79.26Z"/><path class="cls-17" d="M99.66,79.26a73.93,73.93,0,0,0,4.49,11h0C103.56,90,94.56,86,93,84.09s-1-19.8-1-23,6-10.51,4.62-13.73a62.6,62.6,0,0,0-3-6l.33-.72.58-1.27s7.17,4.59,10.86,11.47S98.35,74.55,99.66,79.26Z"/><path class="cls-18" d="M99.66,79.26a73.93,73.93,0,0,0,4.49,11s-6.36-5.86-7.08-7.39-1.33-10.77-.92-13.65,7.18-15.39,7-17.21c-.16-1.47-6.65-8.62-9.18-11.36l.58-1.27s7.17,4.59,10.86,11.47S98.35,74.55,99.66,79.26Z"/><polygon class="cls-27" points="130.03 8.05 109.14 22.52 132.47 20.13 130.03 8.05"/><polygon class="cls-27" points="101.72 2.83 103.52 19.64 109.55 5.26 101.72 2.83"/><polygon class="cls-27" points="125.16 32.76 106.62 30.53 120.61 40.59 125.16 32.76"/></g></g></g></svg>