<svg xmlns="http://www.w3.org/2000/svg" width="500" height="500" style="width:100%;height:100%;content-visibility:visible"><defs><clipPath id="d"><path d="M0 0h500v500H0z"/></clipPath><clipPath id="f"><path d="M0 0h500v500H0z"/></clipPath><clipPath id="h"><path d="M0 0h500v500H0z"/></clipPath><clipPath id="n"><path d="M0 0h500v500H0z"/></clipPath><clipPath id="l"><path d="M0 0h500v500H0z"/></clipPath><clipPath id="k"><path d="M0 0h500v500H0z"/></clipPath><clipPath id="i"><path d="M0 0h500v500H0z"/></clipPath><filter id="a" filterUnits="objectBoundingBox" x="0%" y="0%" width="100%" height="100%"><feComponentTransfer in="SourceGraphic"><feFuncA type="table" tableValues="1.0 0.0"/></feComponentTransfer></filter><filter id="b" filterUnits="objectBoundingBox" x="0%" y="0%" width="100%" height="100%"><feComponentTransfer in="SourceGraphic"><feFuncA type="table" tableValues="1.0 0.0"/></feComponentTransfer></filter><filter id="c" filterUnits="objectBoundingBox" x="0%" y="0%" width="100%" height="100%"><feComponentTransfer in="SourceGraphic"><feFuncA type="table" tableValues="1.0 0.0"/></feComponentTransfer></filter><mask id="m"><g display="block"><path fill-opacity="0" stroke="#08A88A" stroke-width="0" d="M183 78s-29.733 42.227-29.851 51.047C153 140.25 163.25 145.75 163.25 145.75l35.054-4.743L225 149l103.5.5.5 253.5h58V84l-204-6z"/><path fill="red" d="M-67-172s-29.733 42.227-29.851 51.047C-97-109.75-86.75-104.25-86.75-104.25l35.054-4.743L-25-101l103.5.5L79 153h58v-319l-204-6z" transform="translate(250 250)"/></g></mask></defs><g clip-path="url(#d)"><g mask="url(#e)" display="block"><g clip-path="url(#f)"><g mask="url(#g)" display="block"><g clip-path="url(#h)"><g clip-path="url(#i)" display="block"><path stroke-linecap="round" stroke-linejoin="round" stroke="#08A88A" stroke-width="20.16" d="M223.119 404.75l-1.29 49.25-25.5-25.5-25.005 25 .414-48.497" fill="none" display="block"/><g display="block"><path stroke-linecap="round" stroke-linejoin="round" stroke="#FFF" stroke-width="20.16" d="M364.545 154.602V98.983s-122.802-.458-185.351-1.402c-30.134-.455-35.478 23.765-35.023 32.082" fill="none"/><path stroke-linecap="round" stroke-linejoin="round" stroke="#08A88A" stroke-width="20.16" d="M364.866 325.03l.028-48.309" fill="none"/><path stroke-linecap="round" stroke-linejoin="round" stroke="#FFF" stroke-width="20.16" d="M365 157.043s-154.191.172-185.578-.01c-36.047-.209-35.478-27.566-35.478-27.566l-.455 239.77s1.364 32.009 36.842 32.431c17.283.206 184.669 0 184.669 0V157.043z" fill="none"/></g></g><g mask="url(#m)" display="block"><g clip-path="url(#n)"><path stroke-linecap="round" stroke-linejoin="round" stroke="#08A88A" stroke-width="20.16" d="M335 126.81v-.536s0 0 0 0-88.898-.023-142.808-.101" fill="none" display="block"/></g></g></g></g></g></g><path stroke-linecap="round" stroke-linejoin="round" stroke="#08A88A" stroke-width="20.16" d="M335 126.274s-94.5-.024-147.721-.109" fill="none" display="block"/></g></svg>