<svg width="121" height="23" viewBox="0 0 121 23" fill="none" xmlns="http://www.w3.org/2000/svg">
<g filter="url(#filter0_d)">
<path d="M1.5376 5.31311C1.5376 2.55169 3.77617 0.313111 6.5376 0.313111L108.021 0.313129C110.783 0.313129 113.021 2.55171 113.021 5.31313L113.021 23.885L1.53759 23.885L1.5376 5.31311Z" fill="#25B099"/>
</g>
<path fill-rule="evenodd" clip-rule="evenodd" d="M56.6147 9.28581C56.9818 8.87326 57.5771 8.87326 57.9443 9.28581L65.8767 18.1988C66.2439 18.6113 66.8392 18.6113 67.2064 18.1988L67.2971 18.0969C67.6643 17.6843 67.6643 17.0154 67.2971 16.6029L57.9443 6.09395C57.5771 5.6814 56.9818 5.6814 56.6147 6.09395L47.2619 16.6028C46.8947 17.0154 46.8947 17.6843 47.2619 18.0968L47.3526 18.1988C47.7198 18.6113 48.3151 18.6113 48.6822 18.1988L56.6147 9.28581Z" fill="#F5F5F5"/>
<defs>
<filter id="filter0_d" x="0.537598" y="0.31311" width="119.484" height="31.5719" filterUnits="userSpaceOnUse" color-interpolation-filters="sRGB">
<feFlood flood-opacity="0" result="BackgroundImageFix"/>
<feColorMatrix in="SourceAlpha" type="matrix" values="0 0 0 0 0 0 0 0 0 0 0 0 0 0 0 0 0 0 127 0"/>
<feOffset dx="3" dy="4"/>
<feGaussianBlur stdDeviation="2"/>
<feColorMatrix type="matrix" values="0 0 0 0 0 0 0 0 0 0 0 0 0 0 0 0 0 0 0.25 0"/>
<feBlend mode="normal" in2="BackgroundImageFix" result="effect1_dropShadow"/>
<feBlend mode="normal" in="SourceGraphic" in2="effect1_dropShadow" result="shape"/>
</filter>
</defs>
</svg>
