<svg width="113" height="25" viewBox="0 0 113 25" fill="none" xmlns="http://www.w3.org/2000/svg">
<path d="M0.537608 5.85339C0.537608 3.09197 2.77618 0.853394 5.53761 0.853394L107.021 0.853412C109.783 0.853412 112.021 3.09199 112.021 5.85341V24.4253H0.537598L0.537608 5.85339Z" fill="#F5F5F5"/>
<path fill-rule="evenodd" clip-rule="evenodd" d="M55.6148 9.82598C55.9819 9.41343 56.5772 9.41343 56.9444 9.82598L64.8768 18.739C65.244 19.1515 65.8393 19.1515 66.2065 18.739L66.2972 18.6371C66.6644 18.2245 66.6644 17.5556 66.2972 17.1431L56.9444 6.63412C56.5772 6.22157 55.9819 6.22157 55.6148 6.63412L46.262 17.143C45.8948 17.5556 45.8948 18.2245 46.262 18.637L46.3527 18.739C46.7199 19.1515 47.3152 19.1515 47.6823 18.739L55.6148 9.82598Z" fill="#25B099"/>
</svg>
