<svg xmlns="http://www.w3.org/2000/svg" width="500" height="500" style="width:100%;height:100%;content-visibility:visible"><defs><clipPath id="a"><path d="M0 0h500v500H0z"/></clipPath></defs><g clip-path="url(#a)"><path stroke-linecap="round" stroke-linejoin="round" stroke="#FFF" stroke-width="18.784149999999997" d="M243.717 394.73H95.884l.46-14.407c0-53.962 43.75-97.713 97.712-97.713h111.736c53.962 0 97.713 43.751 97.713 97.713l-.46 14.407s0 0 0 0H243.717" fill="none" display="block"/><path stroke-linecap="round" stroke-linejoin="round" stroke="#08A88A" stroke-width="18.784149999999997" d="M304.12 127.535c10.322 12.288 16.54 28.152 16.54 45.458 0 0 0 0 0 0 0 39.06-31.672 70.732-70.732 70.732s-70.732-31.672-70.732-70.732 31.665-70.731 70.732-70.731c21.753 0 41.213 9.82 54.192 25.273" fill="none" display="block"/></g></svg>