<svg xmlns="http://www.w3.org/2000/svg" width="500" height="500" style="width:100%;height:100%;content-visibility:visible"><defs><clipPath id="b"><path d="M0 0h500v500H0z"/></clipPath><clipPath id="d"><path d="M0 0h500v500H0z"/></clipPath><filter id="a" filterUnits="objectBoundingBox" x="0%" y="0%" width="100%" height="100%"><feComponentTransfer in="SourceGraphic"><feFuncA type="table" tableValues="1.0 0.0"/></feComponentTransfer></filter><mask id="c"><g filter="url(#a)"><g display="block"><path fill="#121331" d="M4-7C9.799-7 14.5-2.299 14.5 3.5S9.799 14 4 14-6.5 9.299-6.5 3.5-1.799-7 4-7zm0 3.381a7.119 7.119 0 110 14.238A7.119 7.119 0 114-3.619z" transform="matrix(10.75292 0 0 10.75292 255.59 264.295)"/><path fill-opacity="0" stroke="#08A88A" stroke-width="0" d="M298.602 189.024c62.356 0 112.905 50.55 112.905 112.906 0 62.356-50.55 112.905-112.905 112.905-62.357 0-112.906-50.549-112.906-112.905s50.55-112.906 112.906-112.906z"/><path fill-opacity="0" stroke="#08A88A" stroke-width="0" d="M298.602 225.38c42.28 0 76.55 34.27 76.55 76.55 0 42.28-34.27 76.55-76.55 76.55-42.28 0-76.55-34.27-76.55-76.55 0-42.28 34.27-76.55 76.55-76.55z"/></g></g></mask></defs><g clip-path="url(#b)"><g mask="url(#c)" display="block"><g clip-path="url(#d)"><path stroke="#FFF" stroke-width="18.0649056" d="M126.555 221.283H298.6c14.85 0 26.883 12.032 26.883 26.882 0 0 0 0 0 0 0 14.85-12.033 26.882-26.883 26.882H126.555c-14.85 0-26.883-12.032-26.883-26.882 0 0 0 0 0 0 0-14.85 12.033-26.882 26.883-26.882zM148.055 275.048H320.1c14.85 0 26.883 12.032 26.883 26.882 0 0 0 0 0 0 0 14.85-12.033 26.882-26.883 26.882H148.055c-14.85 0-26.883-12.032-26.883-26.882 0 0 0 0 0 0 0-14.85 12.033-26.882 26.883-26.882zM126.555 328.812H298.6c14.85 0 26.883 12.032 26.883 26.882 0 0 0 0 0 0 0 14.85-12.033 26.882-26.883 26.882H126.555c-14.85 0-26.883-12.032-26.883-26.882 0 0 0 0 0 0 0-14.85 12.033-26.882 26.883-26.882zM142.035 167.518H314.08c14.85 0 26.883 12.032 26.883 26.882 0 0 0 0 0 0 0 14.85-12.033 26.882-26.883 26.882H142.035c-14.85 0-26.883-12.032-26.883-26.882 0 0 0 0 0 0 0-14.85 12.033-26.882 26.883-26.882z" fill="none" display="block"/></g></g><g display="block"><path stroke="#FFF" stroke-width="18.0649056" d="M298.602 189.024c62.356 0 112.905 50.55 112.905 112.906 0 62.356-50.55 112.905-112.905 112.905-62.357 0-112.906-50.549-112.906-112.905s50.55-112.906 112.906-112.906z" fill="none"/><path stroke="#08A88A" stroke-width="18.0649056" d="M298.602 225.38c42.28 0 76.55 34.27 76.55 76.55 0 42.28-34.27 76.55-76.55 76.55-42.28 0-76.55-34.27-76.55-76.55 0-42.28 34.27-76.55 76.55-76.55z" fill="none"/></g></g></svg>