<svg width="1034" height="398" viewBox="0 0 1034 398" fill="none" xmlns="http://www.w3.org/2000/svg">
<path d="M969.704 395.146L777.981 397.038L692.693 397.545H688.389L524.733 397.001L74.4089 395.789C74.4089 395.789 15.3416 349.326 4.15758 269.892C-29.0913 33.812 188.965 -44.5963 369.585 23.8111C512.99 78.1208 595.269 -15.0864 678.431 37.2844C740.504 76.3535 688.684 144.816 882.135 149.917C1061.25 154.63 1046.56 403.146 969.704 395.146Z" fill="#38C6AE"/>
<path d="M240.354 270.1C240.354 270.1 234.818 263.666 240.014 259.569C240.014 259.569 243.801 257.276 246.886 257.462C246.886 257.462 242.505 264.794 243.929 265.524C245.353 266.255 248.212 257.002 248.212 257.002C248.212 257.002 256.821 256.17 259.593 257.503C259.593 257.503 252.232 263.524 253.78 263.885C255.328 264.247 263.273 258.328 263.273 258.328C263.273 258.328 271.288 259.693 270.861 264.582C270.433 269.472 267.68 270.969 266.468 270.852C265.256 270.735 258.154 268.011 257.997 269.004C257.84 269.997 262.119 273.251 265.11 273.386C265.11 273.386 259.461 279.615 255.704 277.818C251.947 276.022 251.615 273.185 249.289 272.115C246.963 271.045 244.947 271.049 245.915 272.141C246.882 273.232 251.118 274.291 252.458 276.657C253.798 279.023 255.014 280.626 251.111 280.038C247.207 279.451 240.909 276.614 240.631 273.357L240.354 270.1Z" fill="#C8DBF4"/>
<path d="M266.95 264.714C266.95 264.714 245.181 263.874 240.372 270.1C239.436 272.447 237.95 274.534 236.038 276.186L235.53 277.574C235.53 277.574 239.302 273.598 240.642 273.357C240.631 273.357 238.521 265.645 266.95 264.714Z" fill="#C8DBF4"/>
<path d="M236.02 276.186C236.02 276.186 231.35 279.64 231.025 285.815L231.872 285.892C231.872 285.892 233.365 279.505 236.06 277.008C238.755 274.51 236.02 276.186 236.02 276.186Z" fill="#C8DBF4"/>
<path d="M221.053 262.001C221.053 262.001 229.834 257.083 225.738 250.408C225.738 250.408 222.452 246.308 218.943 245.256C218.943 245.256 220.819 255.209 218.943 255.443C217.066 255.677 217.657 244.201 217.657 244.201C217.657 244.201 208.405 239.75 204.775 240.104C204.775 240.104 210.512 249.824 208.639 249.597C206.765 249.371 200.325 239.527 200.325 239.527C200.325 239.527 190.831 237.771 189.316 243.394C187.801 249.017 190.254 251.825 191.66 252.157C193.066 252.489 202.081 252.391 201.847 253.563C201.613 254.735 195.523 256.608 192.127 255.553C192.127 255.553 195.874 264.805 200.792 264.334C205.71 263.863 207.233 260.822 210.285 260.588C213.338 260.354 215.554 261.172 214.032 261.994C212.509 262.815 207.357 262.26 204.903 264.352C202.45 266.445 200.452 267.73 205.02 268.668C209.588 269.607 217.8 269.033 219.425 265.506L221.053 262.001Z" fill="#C8DBF4"/>
<path d="M193.65 245.139C193.65 245.139 218.242 253.103 221.035 262.001C221.035 262.001 220.918 265.981 223.375 270.549V272.305C223.375 272.305 220.801 266.335 219.395 265.513C219.414 265.513 224.916 257.784 193.65 245.139Z" fill="#C8DBF4"/>
<path d="M223.394 270.549C223.394 270.549 227.187 276.307 225.026 283.328L224.047 283.065C224.047 283.065 224.997 275.347 223.01 271.462C221.024 267.577 223.394 270.549 223.394 270.549Z" fill="#C8DBF4"/>
<path d="M235.023 255.217C235.023 255.217 223.448 248.736 228.849 239.936C228.849 239.936 233.172 234.532 237.802 233.145C237.802 233.145 235.333 246.264 237.802 246.574C240.27 246.885 239.499 231.753 239.499 231.753C239.499 231.753 251.695 225.889 256.482 226.353C256.482 226.353 248.916 239.166 251.37 238.855C253.824 238.545 262.324 225.579 262.324 225.579C262.324 225.579 274.826 223.264 276.834 230.673C278.842 238.081 275.6 241.787 273.749 242.251C271.898 242.715 260.009 242.561 260.319 244.102C260.63 245.643 268.652 248.119 273.128 246.728C273.128 246.728 268.191 258.923 261.707 258.306C255.222 257.689 253.217 253.672 249.205 253.366C245.192 253.059 242.267 254.136 244.264 255.217C246.262 256.298 253.064 255.582 256.314 258.328C259.563 261.074 262.181 262.782 256.16 264.017C250.139 265.251 239.335 264.48 237.174 259.847L235.023 255.217Z" fill="#D4E4F8"/>
<path d="M271.145 232.995C271.145 232.995 238.729 243.489 235.023 255.22C235.023 255.22 235.18 260.471 231.938 266.488V268.807C231.938 268.807 235.333 260.931 237.185 259.85C237.185 259.847 229.929 249.659 271.145 232.995Z" fill="#D4E4F8"/>
<path d="M231.938 266.485C231.938 266.485 226.939 274.076 229.787 283.317L231.076 282.974C231.076 282.974 229.827 272.794 232.441 267.682C235.056 262.571 231.938 266.485 231.938 266.485Z" fill="#D4E4F8"/>
<path d="M234.636 303.356C240.65 303.356 246.417 300.967 250.669 296.715C254.922 292.462 257.311 286.695 257.311 280.681H211.958C211.958 283.659 212.544 286.608 213.684 289.359C214.824 292.11 216.494 294.61 218.6 296.716C220.706 298.821 223.206 300.492 225.958 301.631C228.709 302.77 231.658 303.356 234.636 303.356Z" fill="#D4E4F8"/>
<path d="M257.625 304.51H211.644C211.644 303.768 211.938 303.056 212.463 302.532C212.987 302.007 213.699 301.713 214.441 301.713H254.828C255.569 301.713 256.281 302.007 256.805 302.532C257.33 303.056 257.625 303.768 257.625 304.51Z" fill="#D4E4F8"/>
<path d="M257.829 280.681H211.213V281.375H257.829V280.681Z" fill="#9FC1F4"/>
<path d="M274.012 306.091V308.281C274.012 309.055 273.76 309.687 273.453 309.687H192.872C192.565 309.687 192.317 309.055 192.317 308.281V306.091C192.317 305.316 192.565 304.685 192.872 304.685H273.453C273.76 304.685 274.012 305.316 274.012 306.091Z" fill="#9ABFE2"/>
<path d="M274.012 306.091V308.281C274.012 309.055 273.782 309.687 273.501 309.687H209.526C209.245 309.687 209.018 309.055 209.018 308.281V306.091C209.018 305.316 209.245 304.685 209.526 304.685H273.501C273.782 304.685 274.012 305.316 274.012 306.091Z" fill="#BAD4F4"/>
<path d="M253.615 309.702H196.407V393.087H253.615V309.702Z" fill="#C8DBF4"/>
<path d="M269.648 309.702H212.44V393.087H269.648V309.702Z" fill="#DFEBFD"/>
<path d="M266.585 388.483H215.514V312.057H266.585V388.483ZM216.076 387.931H266.023V312.594H216.065L216.076 387.931Z" fill="#B7D3F3"/>
<path d="M266.297 337.339H215.788V337.89H266.297V337.339Z" fill="#B7D3F3"/>
<path d="M266.297 363.113H215.788V363.665H266.297V363.113Z" fill="#B7D3F3"/>
<path d="M246.218 316.975H236.845C236.627 316.974 236.417 316.887 236.263 316.732C236.108 316.578 236.021 316.369 236.02 316.15C236.02 315.931 236.107 315.721 236.261 315.565C236.416 315.41 236.626 315.322 236.845 315.321H246.218C246.438 315.321 246.649 315.409 246.804 315.564C246.96 315.719 247.047 315.93 247.047 316.15C247.046 316.369 246.958 316.579 246.803 316.734C246.647 316.888 246.437 316.975 246.218 316.975Z" fill="#B7D3F3"/>
<path d="M246.218 342.191H236.845C236.626 342.19 236.416 342.102 236.261 341.947C236.107 341.792 236.02 341.581 236.02 341.362C236.021 341.144 236.108 340.934 236.263 340.78C236.417 340.625 236.627 340.538 236.845 340.537H246.218C246.437 340.537 246.647 340.624 246.803 340.779C246.958 340.933 247.046 341.143 247.047 341.362C247.047 341.582 246.96 341.793 246.804 341.948C246.649 342.104 246.438 342.191 246.218 342.191Z" fill="#B7D3F3"/>
<path d="M246.218 368.459H236.845C236.626 368.458 236.416 368.37 236.261 368.215C236.107 368.059 236.02 367.849 236.02 367.63C236.021 367.411 236.108 367.202 236.263 367.047C236.417 366.893 236.627 366.806 236.845 366.805H246.218C246.437 366.805 246.647 366.892 246.803 367.046C246.958 367.201 247.046 367.411 247.047 367.63C247.047 367.85 246.96 368.061 246.804 368.216C246.649 368.371 246.438 368.459 246.218 368.459Z" fill="#B7D3F3"/>
<path d="M479.234 87.3877H434.261C432.187 87.3877 430.507 89.0682 430.507 91.1412V134.548C430.507 136.621 432.187 138.302 434.261 138.302H479.234C481.307 138.302 482.987 136.621 482.987 134.548V91.1412C482.987 89.0682 481.307 87.3877 479.234 87.3877Z" fill="#C0D8FB"/>
<path d="M477.284 89.5931H436.207C434.313 89.5931 432.778 91.1282 432.778 93.0217V132.668C432.778 134.561 434.313 136.096 436.207 136.096H477.284C479.178 136.096 480.713 134.561 480.713 132.668V93.0217C480.713 91.1282 479.178 89.5931 477.284 89.5931Z" fill="#DFEBFD"/>
<path d="M455.657 94.2449C455.657 94.0283 455.722 93.8165 455.842 93.6364C455.962 93.4562 456.133 93.3158 456.334 93.2329C456.534 93.15 456.754 93.1283 456.967 93.1706C457.179 93.2129 457.374 93.3172 457.527 93.4704C457.681 93.6236 457.785 93.8187 457.827 94.0312C457.869 94.2437 457.848 94.464 457.765 94.6641C457.682 94.8643 457.542 95.0354 457.361 95.1557C457.181 95.2761 456.969 95.3403 456.753 95.3403C456.462 95.3403 456.184 95.2249 455.978 95.0195C455.773 94.8141 455.657 94.5354 455.657 94.2449Z" fill="#B7D3F3"/>
<path d="M464.431 95.7748C464.536 95.5841 464.695 95.4288 464.888 95.3287C465.081 95.2286 465.299 95.1881 465.515 95.2125C465.731 95.2368 465.935 95.3248 466.101 95.4654C466.266 95.6059 466.387 95.7926 466.446 96.0017C466.505 96.2108 466.501 96.4329 466.434 96.6396C466.367 96.8463 466.24 97.0284 466.069 97.1626C465.898 97.2968 465.691 97.3771 465.474 97.3933C465.257 97.4095 465.04 97.3608 464.851 97.2535C464.601 97.1115 464.417 96.8768 464.338 96.6002C464.26 96.3235 464.293 96.027 464.431 95.7748Z" fill="#B7D3F3"/>
<path d="M471.946 101.745C472.128 101.626 472.341 101.564 472.558 101.566C472.775 101.569 472.987 101.636 473.166 101.759C473.345 101.882 473.483 102.055 473.564 102.257C473.644 102.459 473.662 102.68 473.616 102.893C473.57 103.105 473.462 103.299 473.306 103.45C473.15 103.601 472.952 103.702 472.738 103.74C472.524 103.778 472.304 103.752 472.105 103.664C471.906 103.577 471.738 103.432 471.621 103.249C471.466 103.006 471.414 102.712 471.475 102.43C471.536 102.149 471.705 101.902 471.946 101.745Z" fill="#B7D3F3"/>
<path d="M475.667 110.986C475.883 110.986 476.095 111.05 476.275 111.171C476.455 111.291 476.596 111.462 476.679 111.662C476.761 111.863 476.783 112.083 476.741 112.295C476.699 112.508 476.594 112.703 476.441 112.856C476.288 113.009 476.093 113.114 475.88 113.156C475.668 113.198 475.448 113.177 475.247 113.094C475.047 113.011 474.876 112.87 474.756 112.69C474.635 112.51 474.571 112.298 474.571 112.082C474.571 111.791 474.687 111.512 474.892 111.307C475.097 111.102 475.376 110.986 475.667 110.986Z" fill="#B7D3F3"/>
<path d="M473.768 121.71C473.923 121.863 474.029 122.058 474.072 122.271C474.116 122.484 474.095 122.705 474.013 122.906C473.931 123.107 473.79 123.279 473.61 123.4C473.429 123.521 473.217 123.586 472.999 123.586C472.782 123.586 472.57 123.521 472.389 123.4C472.209 123.279 472.068 123.107 471.986 122.906C471.903 122.705 471.883 122.484 471.926 122.271C471.97 122.058 472.076 121.863 472.231 121.71C472.436 121.508 472.712 121.395 472.999 121.395C473.287 121.395 473.563 121.508 473.768 121.71Z" fill="#B7D3F3"/>
<path d="M466.94 128.567C467.095 128.72 467.201 128.915 467.244 129.128C467.288 129.341 467.267 129.562 467.185 129.763C467.103 129.964 466.962 130.136 466.782 130.257C466.601 130.378 466.389 130.443 466.171 130.443C465.954 130.443 465.742 130.378 465.561 130.257C465.381 130.136 465.24 129.964 465.158 129.763C465.075 129.562 465.055 129.341 465.098 129.128C465.142 128.915 465.248 128.72 465.403 128.567C465.608 128.365 465.884 128.252 466.171 128.252C466.459 128.252 466.735 128.365 466.94 128.567Z" fill="#B7D3F3"/>
<path d="M455.657 132.084C455.657 131.867 455.722 131.655 455.842 131.475C455.962 131.295 456.133 131.154 456.334 131.072C456.534 130.989 456.754 130.967 456.967 131.009C457.179 131.051 457.374 131.156 457.527 131.309C457.681 131.462 457.785 131.657 457.827 131.87C457.869 132.082 457.848 132.303 457.765 132.503C457.682 132.703 457.542 132.874 457.361 132.994C457.181 133.115 456.969 133.179 456.753 133.179C456.462 133.179 456.184 133.064 455.978 132.858C455.773 132.653 455.657 132.374 455.657 132.084Z" fill="#B7D3F3"/>
<path d="M449.027 95.7749C448.923 95.5841 448.764 95.4286 448.571 95.3282C448.379 95.2277 448.161 95.1868 447.945 95.2108C447.729 95.2347 447.525 95.3223 447.359 95.4624C447.192 95.6026 447.072 95.789 447.012 95.9979C446.952 96.2068 446.956 96.4288 447.022 96.6356C447.089 96.8424 447.216 97.0247 447.386 97.1593C447.557 97.294 447.764 97.3748 447.98 97.3916C448.197 97.4084 448.414 97.3604 448.603 97.2536C448.854 97.1123 449.039 96.8778 449.118 96.6011C449.197 96.3244 449.165 96.0276 449.027 95.7749Z" fill="#B7D3F3"/>
<path d="M441.512 101.745C441.331 101.625 441.118 101.563 440.9 101.564C440.683 101.566 440.471 101.633 440.292 101.756C440.112 101.878 439.974 102.051 439.893 102.253C439.812 102.455 439.793 102.676 439.839 102.889C439.884 103.101 439.992 103.295 440.148 103.447C440.304 103.598 440.501 103.699 440.715 103.738C440.929 103.776 441.15 103.751 441.349 103.664C441.548 103.577 441.717 103.432 441.833 103.249C441.988 103.006 442.041 102.713 441.981 102.431C441.921 102.15 441.753 101.903 441.512 101.745Z" fill="#B7D3F3"/>
<path d="M437.788 110.986C437.571 110.986 437.359 111.05 437.179 111.171C436.999 111.291 436.859 111.462 436.776 111.662C436.693 111.863 436.671 112.083 436.714 112.295C436.756 112.508 436.86 112.703 437.013 112.856C437.167 113.009 437.362 113.114 437.574 113.156C437.787 113.198 438.007 113.177 438.207 113.094C438.407 113.011 438.578 112.87 438.699 112.69C438.819 112.51 438.883 112.298 438.883 112.082C438.883 111.791 438.768 111.512 438.562 111.307C438.357 111.102 438.078 110.986 437.788 110.986Z" fill="#B7D3F3"/>
<path d="M439.69 121.71C439.535 121.863 439.429 122.058 439.386 122.271C439.342 122.484 439.363 122.705 439.445 122.906C439.528 123.107 439.668 123.279 439.848 123.4C440.029 123.521 440.241 123.586 440.459 123.586C440.676 123.586 440.889 123.521 441.069 123.4C441.25 123.279 441.39 123.107 441.472 122.906C441.555 122.705 441.576 122.484 441.532 122.271C441.488 122.058 441.382 121.863 441.227 121.71C441.022 121.508 440.746 121.395 440.459 121.395C440.171 121.395 439.895 121.508 439.69 121.71Z" fill="#B7D3F3"/>
<path d="M446.514 128.567C446.36 128.72 446.254 128.915 446.21 129.128C446.166 129.341 446.187 129.562 446.269 129.763C446.352 129.964 446.492 130.136 446.673 130.257C446.853 130.378 447.066 130.443 447.283 130.443C447.5 130.443 447.713 130.378 447.893 130.257C448.074 130.136 448.214 129.964 448.297 129.763C448.379 129.562 448.4 129.341 448.356 129.128C448.313 128.915 448.207 128.72 448.052 128.567C447.847 128.365 447.571 128.252 447.283 128.252C446.995 128.252 446.719 128.365 446.514 128.567Z" fill="#B7D3F3"/>
<path d="M456.453 112.074C456.453 111.858 456.518 111.646 456.638 111.466C456.758 111.286 456.93 111.145 457.13 111.062C457.33 110.979 457.55 110.958 457.763 111C457.975 111.042 458.17 111.147 458.323 111.3C458.477 111.453 458.581 111.648 458.623 111.861C458.666 112.073 458.644 112.293 458.561 112.493C458.478 112.694 458.338 112.865 458.157 112.985C457.977 113.105 457.766 113.17 457.549 113.17C457.258 113.17 456.98 113.054 456.774 112.849C456.569 112.643 456.453 112.365 456.453 112.074Z" fill="#B7D3F3"/>
<path d="M457.688 98.4951H457.392V112.074H457.688V98.4951Z" fill="#B7D3F3"/>
<path d="M464.325 106.051L457.124 111.703L457.674 112.404L464.875 106.752L464.325 106.051Z" fill="#B7D3F3"/>
<path d="M963.49 254.249C963.496 262.805 962.804 271.347 961.419 279.79C951.232 341.928 904.576 388.873 848.557 388.873C844.32 388.876 840.087 388.606 835.884 388.066C834.423 387.876 832.941 387.654 831.48 387.402C803.507 382.516 778.828 365.83 761.251 341.804C748.522 324.413 739.522 303.181 735.691 279.79C734.309 271.347 733.617 262.805 733.621 254.249C733.621 220.818 744.027 190.227 761.251 166.691C778.704 142.829 803.164 126.209 830.896 121.199C832.356 120.941 833.825 120.71 835.303 120.505C839.697 119.916 844.125 119.621 848.557 119.622C912.032 119.622 963.49 179.898 963.49 254.249Z" fill="#CDE0FB"/>
<path d="M848.557 119.622V388.873C848.557 388.873 822.6 391.586 786.284 392.733L782.439 392.85C750.278 393.744 710.713 393.357 673.944 388.873V119.622C673.944 119.622 727.983 114.345 789.417 115.81C791.148 115.853 792.884 115.902 794.627 115.956C809.623 116.401 824.973 117.27 840.013 118.727C842.085 118.927 844.146 119.137 846.198 119.359L848.557 119.622Z" fill="#CDE0FB"/>
<path d="M961.43 279.79C951.243 341.928 904.587 388.873 848.568 388.873C848.568 388.873 822.611 391.586 786.295 392.733L782.45 392.85C750.289 393.744 710.724 393.357 673.955 388.873C646.712 388.873 621.675 377.766 601.98 359.214V279.79H961.43Z" fill="#C1D8FB"/>
<path d="M788.876 254.249C788.882 262.805 788.191 271.347 786.81 279.79C782.976 303.181 773.975 324.413 761.251 341.804C740.172 370.617 708.876 388.873 673.944 388.873C646.702 388.873 621.664 377.766 601.969 359.214C575.775 334.538 559.012 296.685 559.012 254.249C559.012 179.898 610.47 119.622 673.944 119.622C708.876 119.622 740.172 137.878 761.251 166.691C778.474 190.231 788.876 220.814 788.876 254.249Z" fill="#AFCDFB"/>
<path d="M752.444 254.249C752.449 259.75 752.031 265.243 751.195 270.68C750.68 274.036 750.005 277.336 749.183 280.539C748.22 284.332 747.039 288.066 745.645 291.723C743.313 297.871 740.356 303.763 736.82 309.307C734.978 312.196 732.972 314.975 730.81 317.632C729.838 318.841 728.827 320.017 727.797 321.156C713.736 336.685 694.793 346.2 673.948 346.2C653.102 346.2 634.148 336.685 620.098 321.156C619.064 320.017 618.057 318.842 617.078 317.632C614.915 314.976 612.907 312.196 611.065 309.307C607.53 303.768 604.574 297.881 602.243 291.737C600.849 288.081 599.668 284.346 598.705 280.553C597.883 277.333 597.208 274.032 596.689 270.695C595.855 265.258 595.437 259.765 595.441 254.264C595.441 203.474 630.588 162.305 673.944 162.305C717.3 162.305 752.444 203.459 752.444 254.249Z" fill="#699DEE"/>
<path d="M652.759 291.734H378.702C373.363 291.734 369.034 296.062 369.034 301.402V307.964C369.034 313.304 373.363 317.632 378.702 317.632H652.759C658.099 317.632 662.428 313.304 662.428 307.964V301.402C662.428 296.062 658.099 291.734 652.759 291.734Z" fill="#95B3EF"/>
<path d="M745.638 291.734C743.307 297.878 740.352 303.767 736.82 309.307C734.978 312.196 732.972 314.975 730.81 317.632H420.886C420.744 317.632 414.062 317.632 413.919 317.632C404.89 317.53 404.181 314.12 404.181 309.935V299.449C404.181 295.195 405.664 291.752 414.89 291.752L745.638 291.734Z" fill="#C7DEFF"/>
<path d="M539.539 317.636H444.835V381.859H539.539V317.636Z" fill="#95B3EF"/>
<path d="M559.537 317.636H456.059V381.859H559.537V317.636Z" fill="#AFCDFB"/>
<path d="M558.96 381.859H420.944V393.237H558.96V381.859Z" fill="#95B3EF"/>
<path d="M574.968 381.859H436.952V393.237H574.968V381.859Z" fill="#AFCDFB"/>
<path d="M882.591 149.913C872.678 137.622 861.238 127.793 848.557 120.648C847.947 120.308 847.338 119.968 846.732 119.64L846.209 119.359C844.155 119.137 842.093 118.927 840.024 118.727C840.798 119.092 841.558 119.457 842.324 119.822C843.153 120.224 843.978 120.644 844.796 121.071C846.065 121.74 847.322 122.433 848.568 123.149C860.617 130.108 871.509 139.58 880.992 151.326C902.535 178.028 914.409 213.544 914.409 251.332C914.409 273.645 910.272 295.169 902.443 314.554C897.145 327.807 889.916 340.203 880.992 351.341C871.498 363.095 860.617 372.552 848.568 379.519C847.324 380.234 846.067 380.925 844.796 381.592C841.711 383.219 838.542 384.682 835.303 385.974C834.035 386.48 832.76 386.957 831.48 387.405C832.941 387.665 834.401 387.895 835.883 388.088C836.004 388.041 836.128 387.993 836.249 387.942C839.486 386.644 842.654 385.182 845.742 383.561C846.688 383.064 847.63 382.553 848.568 382.02C861.249 374.878 872.689 365.045 882.602 352.762C891.853 341.214 899.309 328.337 904.718 314.565C912.433 295.137 916.512 273.63 916.512 251.343C916.519 213.026 904.47 177.006 882.591 149.913Z" fill="#2B478B"/>
<path d="M848.557 174.892C843.939 165.3 838.309 156.229 831.761 147.835C825.737 140.079 818.828 133.053 811.175 126.899C806.079 122.823 800.631 119.21 794.894 116.102L794.62 115.956C792.879 115.902 791.143 115.853 789.409 115.81C790.933 116.54 792.447 117.31 793.952 118.121C799.182 120.949 804.167 124.21 808.853 127.87C816.804 134.108 823.958 141.302 830.151 149.288C837.498 158.727 843.676 169.019 848.55 179.941C858.354 201.736 863.575 226.521 863.575 252.347C863.575 274.215 859.829 295.352 852.72 314.558C851.442 318.019 850.055 321.415 848.561 324.745C843.689 335.674 837.511 345.973 830.162 355.416C829.716 355.986 829.266 356.552 828.811 357.114C823.385 363.865 817.266 370.028 810.554 375.502L811.084 377.897C817.804 372.515 823.95 366.452 829.424 359.805C830.22 358.831 831.008 357.858 831.787 356.884C838.336 348.49 843.967 339.418 848.583 329.824C850.983 324.86 853.126 319.775 855.005 314.591C862.016 295.352 865.704 274.226 865.704 252.38C865.678 224.564 859.712 197.942 848.557 174.892Z" fill="#2B478B"/>
<path d="M929.817 393.237H823.966C818.726 393.237 813.453 388.632 812.194 382.954L811.065 377.875L810.536 375.48L806.757 358.465C804.996 350.525 805.966 342.223 809.51 334.903L819.369 314.551H912.353C917.593 314.551 922.865 319.155 924.129 324.836L937.021 382.954C938.285 388.632 935.057 393.237 929.817 393.237Z" fill="#95B3EF"/>
<path d="M953.733 393.237H844.756C840.375 393.237 835.993 389.392 834.923 384.645L819.369 314.54H936.273C940.654 314.54 945.036 318.385 946.106 323.131L959.754 384.634C960.806 389.392 958.111 393.237 953.733 393.237Z" fill="#AFCDFB"/>
<path d="M899.672 199.669L867.778 200.516L867.241 198.077L899.135 197.227L899.672 199.669Z" fill="#699DEE"/>
<path d="M900.84 205.741L868.946 206.592L868.409 204.149L900.304 203.299L900.84 205.741Z" fill="#699DEE"/>
<path d="M902.005 211.814L870.115 212.661L869.578 210.222L901.472 209.371L902.005 211.814Z" fill="#699DEE"/>
<path d="M903.17 217.864L871.279 218.715L870.743 216.276L902.637 215.425L903.17 217.864Z" fill="#699DEE"/>
<path d="M667.233 251.912C667.233 251.912 615.041 261.11 601.969 291.734H722.674L732.128 251.912H667.233Z" fill="#ED7D2B"/>
<path d="M737.188 291.734C737.188 288.531 736.681 258.255 732.131 251.912C732.131 251.912 679.939 261.092 666.868 291.734H737.188Z" fill="#F99746"/>
<path d="M398.083 279.297L398.7 285.205C409.58 288.151 420.716 290.055 431.957 290.89C443.674 291.748 456.614 291.511 467.619 288.444C472.599 287.053 477.182 285.085 481.078 282.375C481.078 282.375 491.824 280.225 506.173 277.402C522.133 274.258 563.864 250.894 509.438 256.995C501.54 257.879 479.953 257.689 471.979 262.151C458.352 269.775 443.425 274.028 430.58 276.391C412.207 279.779 398.083 279.297 398.083 279.297Z" fill="#E8945B"/>
<path d="M394.575 291.701C391.504 292.796 389.612 288.619 388.057 283.613C386.502 278.607 385.866 280.407 382.81 273.78C379.754 267.153 380.948 263.878 381.758 263.133C382.489 262.472 384.61 265.367 386.969 268.435C387.265 268.818 387.564 269.205 387.867 269.588C390.565 273.028 394.604 274.306 398.602 276.5C402.392 278.578 412.864 278.782 412.864 278.782L417.308 287.706C417.308 287.706 407.814 287.319 403.838 287.363C401.49 287.389 399.226 288.824 397.528 290.018C396.624 290.708 395.63 291.275 394.575 291.701Z" fill="#E8945B"/>
<path d="M388.057 283.613C386.502 278.607 385.866 280.407 382.81 273.78C379.754 267.153 380.948 263.878 381.758 263.133C382.489 262.472 384.61 265.367 386.969 268.435L386.925 268.504C386.815 272.193 387.707 275.842 389.507 279.064C391.935 283.339 395.827 287.096 397.539 290.018C396.635 290.708 395.641 291.275 394.586 291.701C391.504 292.8 389.612 288.619 388.057 283.613Z" fill="#1C468A"/>
<path d="M409.855 279.966L410.345 285.884C421.157 289.065 432.247 291.21 443.466 292.289C455.15 293.402 468.108 293.443 479.176 290.613C484.185 289.335 488.808 287.465 492.762 284.84C492.762 284.84 503.552 282.923 517.956 280.411C533.978 277.618 547.386 239.732 511.665 254.753C504.337 257.839 492.171 260.135 484.101 264.426C470.31 271.75 455.296 275.679 442.4 277.767C423.957 280.751 409.855 279.966 409.855 279.966Z" fill="#FFB27D"/>
<path d="M406.065 292.289C402.973 293.322 401.172 289.101 399.727 284.062C398.281 279.023 397.594 280.809 394.691 274.116C391.789 267.423 393.045 264.177 393.87 263.451C394.6 262.804 396.674 265.747 398.982 268.862C399.266 269.256 399.559 269.647 399.854 270.038C402.48 273.532 406.485 274.901 410.443 277.18C414.186 279.337 424.65 279.768 424.65 279.768L428.904 288.787C428.904 288.787 419.436 288.192 415.442 288.152C413.094 288.13 410.801 289.514 409.078 290.667C408.151 291.341 407.138 291.886 406.065 292.289Z" fill="#FFB27D"/>
<path d="M399.737 284.062C398.277 279.023 397.605 280.809 394.702 274.116C391.799 267.423 393.055 264.177 393.881 263.451C394.611 262.804 396.685 265.747 398.992 268.862L398.945 268.931C398.756 272.616 399.569 276.282 401.296 279.542C403.633 283.872 407.445 287.692 409.081 290.667C408.161 291.339 407.155 291.884 406.091 292.289C402.983 293.322 401.183 289.101 399.737 284.062Z" fill="#1C468A"/>
<path d="M692.931 238.837C701.749 249.148 703.447 258.189 692.61 265.82C692.427 265.948 687.498 270.505 687.319 270.644C675.832 279.615 667.602 257.225 652.266 286.863C652.164 287.002 652.041 287.126 651.901 287.228C645.898 293.282 635.529 290.025 633.823 281.674L624.779 237.303C624.779 237.303 640.184 247.421 652.383 249.046C663.786 250.569 671.961 214.311 692.931 238.837Z" fill="#B64C41"/>
<path d="M616.874 240.349C631.446 238.848 643.163 242.211 643.163 242.211C643.163 242.211 644.314 244.226 644.496 244.913C644.595 245.278 644.942 245.194 645.325 245.278C646.534 245.501 649.046 245.201 651.645 244.756C655.611 244.073 659.773 243.058 659.773 243.058L664.688 255.991L665.499 254.786C658.762 255.9 651.938 257.437 649.341 259.295C648.107 260.179 648.867 264.188 648.911 265.703C648.995 268.646 645.372 267.814 644.529 271.465C644.131 273.221 602.302 241.849 616.874 240.349Z" fill="#FFB27D"/>
<path d="M659.773 243.043C659.773 243.043 655.611 244.058 651.645 244.741C653.124 252.194 660.628 254.998 664.688 255.976L659.773 243.043Z" fill="#E8945B"/>
<path d="M655.592 241.178C655.592 241.178 658.298 258.948 669.325 257.094C680.352 255.239 688.151 256.283 686.888 244.858C685.625 233.433 681.046 231.943 677.208 231.666C673.371 231.388 655.173 236.507 655.592 241.178Z" fill="#FFB27D"/>
<path d="M683.448 231.169C687.227 233.342 686.855 235.533 686.059 236.862C692.938 245.471 686.201 253.227 686.201 253.227C678.483 255.754 674.912 262.231 674.912 262.231C674.912 262.231 673.575 261.669 673.897 253.877C674.262 244.628 683.05 238.176 684.299 237.585C683.145 236.668 681.608 235.029 679.304 233.911C676.609 232.615 674.875 232.228 669.592 233.05C669.592 233.031 677.774 227.883 683.448 231.169Z" fill="#B64C41"/>
<path d="M583.519 283.153L587.901 283.54C593.319 287.881 645.865 274.671 646.15 274.222C646.187 274.244 649.298 274.09 649.298 274.09C651.678 270.403 649.338 259.281 649.338 259.281C649.338 259.281 636.974 257.667 635.098 256.878C623.008 251.766 625.82 242.956 632.907 243.507C635.488 243.7 643.554 244.675 644.489 244.913C643.784 242.872 643.802 237.61 627.919 237.333C613.361 236.464 598.953 245.216 577.611 247.98C577.381 248.013 577.421 250.923 576.045 250.704C571.645 249.963 581.964 282.054 583.519 283.153Z" fill="white"/>
<path d="M663.078 244.493C663.078 244.493 661.657 244.493 661.11 241.079C661.11 241.079 660.65 238.224 662.15 237.975C662.15 237.975 663.819 240.469 663.078 244.493Z" fill="white"/>
<path d="M465.582 259.96C452.802 281.448 477.631 306.036 478.756 305.996C484.828 305.795 507.93 298.536 542.898 292.687C564.405 289.09 586.119 281.065 587.444 282.777C587.123 282.368 582.292 276.164 583.154 264.951C583.652 258.362 584.497 251.804 585.688 245.304C581.5 243.394 561.633 244.442 542.767 244.121C498.279 243.361 465.582 259.96 465.582 259.96Z" fill="#2B478B"/>
<path d="M587.466 282.802C587.466 282.802 580.353 264.911 587.674 245.858L584.644 244.964C584.644 244.964 577.502 264.436 584.972 283.525L587.466 282.802Z" fill="#163560"/>
<path d="M644.971 264.396C644.971 264.396 608.494 279.52 602.21 280.144C595.926 280.769 559.698 287.341 559.698 287.341L560.49 292.011C560.49 292.011 599.216 292.789 607.165 291.646C615.114 290.503 646.044 279.283 646.044 279.283L644.971 264.396Z" fill="#FFB27D"/>
<path d="M562.181 287.155C562.181 287.155 550.643 286.465 549.609 287.231C548.576 287.998 541.788 292.055 542.898 292.687C544.008 293.318 550.34 292.099 551.866 292.226C553.392 292.354 554.185 293.508 556.638 293.081C559.092 292.654 562.115 291.891 562.115 291.891L562.181 287.155Z" fill="#FFB27D"/>
<path d="M650.265 265.919C650.265 265.919 652.481 278.76 641.374 282.463C641.374 282.463 626.21 272.969 627.967 265.159C629.723 257.349 645.241 261.555 645.241 261.555L650.265 265.919Z" fill="white"/>
<path d="M123.946 393.518H124.081C124.338 393.521 124.592 393.471 124.828 393.371C125.064 393.271 125.277 393.123 125.454 392.937C125.63 392.751 125.766 392.53 125.853 392.289C125.939 392.047 125.975 391.791 125.958 391.535L118.51 317.143L112.007 317.705L122.723 392.51C122.772 392.797 122.923 393.056 123.147 393.241C123.372 393.426 123.655 393.524 123.946 393.518Z" fill="#77A4E5"/>
<path d="M52.2198 393.518H52.0847C51.8284 393.521 51.5743 393.471 51.3383 393.371C51.1024 393.271 50.8897 393.123 50.7137 392.937C50.5377 392.75 50.4022 392.53 50.3158 392.288C50.2294 392.047 50.1939 391.791 50.2115 391.535L57.6602 317.143L64.1596 317.724L53.4649 392.514C53.4139 392.803 53.2596 393.065 53.0307 393.249C52.8017 393.434 52.5136 393.529 52.2198 393.518Z" fill="#77A4E5"/>
<path d="M176.496 393.518H176.635C176.891 393.521 177.145 393.471 177.381 393.371C177.617 393.271 177.83 393.123 178.006 392.937C178.182 392.75 178.317 392.53 178.404 392.288C178.49 392.047 178.526 391.791 178.508 391.535L171.059 317.143L164.56 317.705L175.255 392.495C175.301 392.788 175.453 393.054 175.681 393.242C175.91 393.43 176.2 393.528 176.496 393.518Z" fill="#77A4E5"/>
<path d="M54.4435 306.317L41.2184 241.028C39.5205 232.184 46.8451 224.1 56.3568 224.319L81.8575 224.9C86.1439 224.998 90.2872 226.461 93.6844 229.077C97.0815 231.693 99.5553 235.324 100.746 239.443L120.098 306.321L54.4435 306.317Z" fill="#77A4E5"/>
<path d="M62.4399 306.317L49.2148 241.028C47.5206 232.184 54.8452 224.1 64.3568 224.319L89.8613 224.896C94.1477 224.994 98.2909 226.458 101.688 229.073C105.085 231.689 107.559 235.321 108.75 239.44L128.102 306.317H62.4399Z" fill="#77A4E5"/>
<path d="M159.014 318.228H58.124C57.1469 318.228 56.2098 317.839 55.5189 317.148C54.828 316.458 54.4398 315.52 54.4398 314.543V306.321H159.014C159.99 306.322 160.926 306.71 161.616 307.401C162.306 308.092 162.694 309.028 162.694 310.005V314.543C162.694 315.52 162.306 316.456 161.616 317.147C160.926 317.838 159.99 318.227 159.014 318.228Z" fill="#77A4E5"/>
<path d="M105.471 318.228H169.785C171.424 318.228 172.754 316.898 172.754 315.259V309.285C172.754 307.646 171.424 306.317 169.785 306.317H105.471C103.831 306.317 102.502 307.646 102.502 309.285V315.259C102.502 316.898 103.831 318.228 105.471 318.228Z" fill="#77A4E5"/>
<path d="M105.003 239.231L115.72 266.35C115.72 266.35 126.046 278.516 134.342 274.594L108.081 223.6L105.003 239.231Z" fill="#ABDDDA"/>
<path d="M177.818 388.216C177.508 391.214 181.677 391.988 186.512 392.28C191.346 392.572 189.871 393.547 196.487 394.836C203.103 396.125 205.776 394.325 206.265 393.434C206.7 392.641 203.633 391.367 200.365 389.928C199.952 389.75 199.54 389.563 199.131 389.377C195.45 387.712 193.413 384.375 190.565 381.271C187.866 378.35 185.376 368.984 185.376 368.984L176.398 366.947C176.398 366.947 178.837 375.363 179.684 378.953C180.177 381.063 179.388 383.411 178.694 385.196C178.267 386.159 177.973 387.175 177.818 388.216Z" fill="#FFB27D"/>
<path d="M186.512 392.28C191.342 392.572 189.871 393.547 196.487 394.836C203.103 396.125 205.776 394.325 206.265 393.434C206.7 392.641 203.633 391.367 200.365 389.928L200.314 389.983C197.028 390.891 193.558 390.891 190.272 389.983C185.891 388.745 181.688 386.08 178.68 385.204C178.258 386.167 177.968 387.183 177.818 388.223C177.493 391.214 181.677 391.988 186.512 392.28Z" fill="#0F2549"/>
<path d="M164.202 284.113C159.368 280.718 127.999 265.82 111.678 264.071L93.0197 257.251C93.0197 257.251 77.6659 279.998 77.5418 297.415C77.487 305.528 81.2223 306.335 81.2223 306.335C81.2223 306.335 139.059 306.766 141.593 307.025C145.726 307.434 151.203 317.775 152.584 327.199C153.964 336.623 178.066 374.911 178.066 374.911C178.066 374.911 183.098 376.521 185.424 376.371C187.925 376.225 189.075 375.389 189.075 375.389C189.075 375.389 175.109 291.781 164.202 284.113Z" fill="#F5F5F5"/>
<path d="M162.858 388.216C162.548 391.214 166.718 391.988 171.552 392.28C176.387 392.572 174.911 393.547 181.528 394.836C188.144 396.125 190.817 394.325 191.306 393.434C191.744 392.641 188.673 391.367 185.405 389.928C184.993 389.75 184.584 389.563 184.171 389.377C180.491 387.712 178.453 384.375 175.605 381.271C172.907 378.35 170.417 368.984 170.417 368.984L161.427 366.947C161.427 366.947 163.866 375.363 164.713 378.953C165.206 381.063 164.418 383.411 163.724 385.196C163.301 386.159 163.01 387.175 162.858 388.216Z" fill="#FFB27D"/>
<path d="M171.552 392.28C176.383 392.572 174.911 393.547 181.527 394.836C188.144 396.125 190.816 394.325 191.306 393.434C191.744 392.641 188.673 391.367 185.405 389.928L185.354 389.983C182.069 390.891 178.598 390.891 175.313 389.983C170.931 388.745 166.729 386.08 163.72 385.204C163.298 386.167 163.008 387.183 162.858 388.223C162.548 391.214 166.718 391.988 171.552 392.28Z" fill="#233862"/>
<path d="M149.111 284.113C144.912 281.163 134.345 279.823 118.98 274.821C115.282 273.616 101.038 266.751 100.092 262.976L107.121 259.73L77.9287 257.251C77.9287 257.251 70.5421 271.571 70.4216 288.97C70.3668 297.083 77.5417 306.317 77.5417 306.317C77.5417 306.317 123.965 306.752 126.502 307.007C130.65 307.434 136.123 317.775 137.493 327.188C138.862 336.601 162.975 374.9 162.975 374.9C162.975 374.9 168.007 376.51 170.333 376.36C172.834 376.214 173.984 375.378 173.984 375.378C173.984 375.378 160.018 291.781 149.111 284.113Z" fill="white"/>
<path d="M105.704 162.755C101.246 160.41 94.4656 160.096 93.3629 159.947C80.178 158.176 72.2401 177.334 71.7727 183.14C70.9146 193.842 65.2515 195.474 57.2843 202.178C41.3061 215.615 45.9908 231.231 54.7284 237.03C59.9717 240.513 69.2095 237.03 69.2095 237.03C69.3409 237.121 94.4802 222.979 106.869 216.155C125.447 213.515 117.064 168.732 105.704 162.755Z" fill="#233862"/>
<path d="M102.955 209.564C103.013 209.594 97.0944 212.285 92.826 210.875C88.8096 209.55 85.2678 203.5 85.3226 203.492C87.0679 203.237 88.8425 201.517 89.339 191.323L90.1131 191.52L103.097 194.806C103.097 194.806 102.582 198.921 102.367 202.81C102.188 206.07 102.225 209.177 102.955 209.564Z" fill="#FFB27D"/>
<path d="M103.094 194.798C103.094 194.798 103.094 195.646 102.608 199.472C95.2653 197.621 92.0192 195.185 89.7408 192.4L103.094 194.798Z" fill="#ED975D"/>
<path d="M105.865 195.317C105.865 195.317 88.7037 198.114 87.1154 187.394C85.5271 176.673 82.2628 169.827 93.1474 167.574C104.032 165.321 106.781 169.115 108.176 172.566C109.571 176.016 110.309 194.313 105.865 195.317Z" fill="#FFB27D"/>
<path d="M105.88 167.125C105.88 167.125 98.0841 179.437 91.121 182.351C84.158 185.265 80.733 183.786 80.733 183.786C82.8294 180.351 84.1966 176.522 84.7495 172.536C84.8664 171.603 85.2302 170.718 85.8034 169.972C86.3766 169.226 87.1383 168.647 88.0101 168.294C92.9868 166.293 102.641 163.138 105.88 167.125Z" fill="#233862"/>
<path d="M99.0298 168.316C99.0298 168.316 103.601 170.66 105.482 172.854C107.307 174.976 109.396 180.726 109.246 183.308C109.246 183.308 111.503 170.934 106.807 166.68C101.827 162.159 99.0298 168.316 99.0298 168.316Z" fill="#233862"/>
<path d="M116.691 235.752C116.173 270.658 129.036 260.887 125.217 264.199C124.297 264.995 120.532 270.936 106.332 271.644C95.6194 272.177 76.304 267.12 75.5883 265.141C73.12 258.298 74.8581 256.173 72.8024 245.694C72.5906 244.599 72.3241 243.376 72.01 242.061C70.2939 234.864 68.6216 232.414 74.7157 220.854C80.2401 210.382 86.7358 201.867 87.2543 202.181C101.83 210.835 102.331 203.58 102.331 203.58C102.331 203.58 116.947 218.729 116.691 235.752Z" fill="white"/>
<path d="M102.331 203.58C102.331 203.58 117.246 206.11 119.01 212.569C120.773 219.029 137.997 267.898 137.997 267.898C137.997 267.898 119.638 268.398 116.114 264.875C112.591 261.351 107.742 222.154 107.742 222.154L102.331 203.58Z" fill="#E1E1E1"/>
<path d="M106.332 262.888C106.332 262.888 108.545 265.744 109.253 266.083C109.618 266.283 110.033 266.371 110.447 266.339L108.972 263.666L106.332 262.888Z" fill="#FFB27D"/>
<path d="M105.821 259.953L112.255 263.075C112.129 263.231 111.964 263.351 111.777 263.423C111.59 263.496 111.387 263.518 111.189 263.487C110.396 263.451 108.399 262.72 108.399 262.72L105.821 259.953Z" fill="#FFB27D"/>
<path d="M102.462 201.302L102.331 203.58C104.025 209.422 106.891 227.427 110.462 241.364L112.96 221.406L110.907 219.73L111.678 216.907L104.949 204.128L102.462 201.302Z" fill="#95B3EF"/>
<path d="M102.33 297.119C79.3272 304.82 61.0889 299.646 61.0889 299.646L64.8497 277.399L66.9018 265.273L71.2833 239.231L78.8014 214.468L85.3738 210.488L91.1173 239.231L102.33 297.119Z" fill="#E1E1E1"/>
<path d="M74.5804 241.937C74.197 242.543 74.1788 254.351 85.3226 257.273C96.4664 260.194 69.0049 262.983 69.0049 262.983C69.0049 262.983 60.1468 256.177 60.2855 254.508C60.4243 252.84 74.5804 241.937 74.5804 241.937Z" fill="#95B3EF"/>
<path d="M94.9001 267.682C94.9001 267.682 79.6377 276.446 64.8498 277.399L66.9019 265.273L94.9001 267.682Z" fill="#95B3EF"/>
<path d="M93.5601 261.366C93.5601 261.366 104.116 259.014 105.821 259.953C107.526 260.891 111.689 264.301 112.211 265.488C112.733 266.675 108.417 264.586 107.015 264.21C106.106 263.965 103.729 264.798 102.528 265.192C97.5437 266.854 94.4948 265.999 94.4948 265.999L93.5601 261.366Z" fill="#FFB27D"/>
<path d="M87.2542 202.182C87.2542 202.182 72.3094 203.054 67.402 209.9C60.4937 219.536 46.7757 260.603 54.6443 266.08C63.4878 272.247 94.9001 267.682 94.9001 267.682C94.9001 267.682 95.9443 262.797 94.4911 260.431C93.0379 258.065 69.4139 254.264 68.3185 253.172C67.2231 252.08 81.9452 231.9 81.9452 228.613C81.9452 225.327 87.2542 202.182 87.2542 202.182Z" fill="#E1E1E1"/>
<path d="M88.1159 200.261L91.1429 239.231L84.2054 224.312L85.392 221.654C85.392 221.654 82.858 217.272 82.858 216.776C82.858 216.279 83.5883 202.601 83.5883 202.601L88.1159 200.261Z" fill="#95B3EF"/>
<path d="M244.903 266.167H88.8644C88.1162 266.167 87.5097 266.774 87.5097 267.522V272.133C87.5097 272.882 88.1162 273.488 88.8644 273.488H244.903C245.651 273.488 246.258 272.882 246.258 272.133V267.522C246.258 266.774 245.651 266.167 244.903 266.167Z" fill="#2B478B"/>
<path d="M242.253 394.062H242.337C242.58 394.035 242.816 393.959 243.031 393.841C243.245 393.722 243.434 393.562 243.586 393.37C243.739 393.178 243.852 392.957 243.919 392.721C243.985 392.485 244.005 392.239 243.976 391.995L225.942 269.891L219.337 270.081L240.558 392.831C240.629 393.215 240.844 393.556 241.16 393.785C241.475 394.014 241.866 394.113 242.253 394.062Z" fill="#2B478B"/>
<path d="M82.2738 394.062H82.1862C81.9425 394.034 81.7066 393.959 81.492 393.841C81.2775 393.722 81.0886 393.562 80.9362 393.37C80.7838 393.178 80.671 392.957 80.6041 392.721C80.5373 392.485 80.5178 392.239 80.5467 391.995L98.5842 269.902L105.186 270.092L83.9644 392.842C83.8921 393.223 83.6766 393.562 83.3621 393.789C83.0476 394.016 82.6581 394.113 82.2738 394.062Z" fill="#2B478B"/>
<path d="M124.03 394.062H123.943C123.699 394.034 123.463 393.959 123.248 393.841C123.034 393.722 122.845 393.562 122.693 393.37C122.54 393.178 122.427 392.957 122.361 392.721C122.294 392.485 122.274 392.239 122.303 391.995L140.341 269.902L146.942 270.092L125.721 392.842C125.649 393.223 125.433 393.562 125.119 393.789C124.804 394.016 124.415 394.113 124.03 394.062Z" fill="#2B478B"/>
<path d="M178.366 256.162H117.787L128.795 215.454H189.371L178.366 256.162Z" fill="#ED7D2B"/>
<path d="M180.279 256.162H119.7L130.709 215.454H191.284L180.279 256.162Z" fill="#F99746"/>
<path d="M154.475 266.036L141.772 266.152L150.564 239.348L163.267 239.231L154.475 266.036Z" fill="#ED7D2B"/>
<path d="M161.668 264.875H133.929V266.152H161.668V264.875Z" fill="#ED7D2B"/>
<path d="M125.41 264.875H105.518V266.167H125.41V264.875Z" fill="#233862"/>
<path d="M299.257 396.001H317.035C316.727 393.84 316.253 391.706 315.619 389.618C315.348 388.742 315.011 387.887 314.611 387.062C312.884 383.608 301.901 385.806 301.901 385.806C301.901 385.806 300.878 386.679 300.075 390.016C299.631 391.984 299.358 393.986 299.257 396.001Z" fill="#233862"/>
<path d="M331.896 124.423C331.896 124.423 346.063 126.91 349.265 135.271C352.468 143.633 370.567 278.713 370.567 278.713C370.567 278.713 361.603 285.811 342.372 283.262C323.14 280.714 331.896 124.423 331.896 124.423Z" fill="#E1E1E1"/>
<path d="M352.986 390.389C353.033 392.809 353.351 395.099 354.216 396.001H389.382C388.937 394.73 387.67 392.813 384.059 392.229C379.958 391.564 373.561 389.589 369.819 385.656C368.461 384.277 367.508 382.552 367.062 380.669C365.408 373.3 353.38 382.925 353.38 382.925C353.092 385.402 352.96 387.895 352.986 390.389Z" fill="#233862"/>
<path d="M368.128 386.807C364.199 388.063 356.689 391.889 351.916 390.093C348.835 388.928 331.597 339.069 330.479 317.26C330.312 315.081 330.017 312.913 329.596 310.768C328.573 305.138 326.788 297.404 324.732 288.86C319.215 265.992 311.755 237.377 311.916 228.248C312.168 214.056 354.209 225.276 354.209 225.276C354.209 225.276 357.101 236.916 357.678 253.756C358.821 287.213 361.961 343.725 370.498 382.973C370.859 384.645 369.76 386.288 368.128 386.807Z" fill="#F5F5F5"/>
<path d="M338.947 228.292L316.721 389.381C316.721 389.381 306.961 391.736 299.37 389.852C299.37 389.852 292.863 304.177 293.404 283.463C293.944 262.749 288.734 228.04 294.594 224.232C300.455 220.423 338.947 228.292 338.947 228.292Z" fill="#F5F5F5"/>
<path d="M291.779 131.802C291.779 131.802 315.148 116.697 331.889 124.423C334.558 125.654 337.603 129.086 339.783 131.488C345.84 138.163 357.674 244.164 357.674 244.164C357.674 244.164 324.09 255.542 291.779 240.298V131.802Z" fill="white"/>
<path d="M333.225 124.04C333.225 124.04 356.871 133.73 360.073 141.175C363.275 148.62 373.685 194.346 373.685 199.71C373.685 205.073 355.56 200.907 352.643 192.261C350.222 185.079 342.054 163.017 337.742 149.066L333.225 124.04Z" fill="#E1E1E1"/>
<path d="M328.314 131.423C323.151 132.434 315.567 131.357 310.017 127.698C312.522 121.71 313.552 116.982 313.917 113.925C313.939 113.761 313.953 113.604 313.972 113.451C314.115 112.41 314.142 111.357 314.052 110.311H327.379C327.379 110.311 331.031 111.979 331.031 113.133C331.031 113.75 331.031 114.338 331.031 114.9C331.056 116.438 331.118 117.778 331.199 118.917C331.286 120.768 331.514 122.61 331.881 124.427C331.881 124.427 333.528 130.393 328.314 131.423Z" fill="#FFB27D"/>
<path d="M331.213 118.913C321.103 120.867 315.231 115.342 313.917 113.925C313.731 113.721 313.636 113.6 313.636 113.6C313.745 113.545 313.857 113.495 313.972 113.451C317.733 111.928 326.277 113.14 331.045 114.886C331.071 116.423 331.133 117.763 331.213 118.913Z" fill="#E2915A"/>
<path d="M310.616 108.12C312.42 117.843 324.97 117.526 330.392 116.916C331.918 116.744 332.878 116.551 332.878 116.551C334.598 116.091 335.558 113.382 336.004 109.829C336.887 102.804 335.77 92.4923 334.583 89.8561C332.798 85.8871 329.431 81.5931 316.798 84.6895C304.164 87.7858 308.298 95.6434 310.616 108.12Z" fill="#FFB27D"/>
<path d="M335.055 84.412C333.327 82.0204 329.665 79.0993 326.339 77.2992C319.193 73.4361 310.05 77.4233 310.014 77.4379C299.692 81.9765 296.997 89.8743 302.467 102.172C308.254 115.182 313.764 113.717 313.764 113.717C313.764 113.717 312.595 112.987 312.701 108.934C312.701 108.704 312.701 108.511 312.727 108.346C312.759 107.936 312.699 107.523 312.55 107.139C312.401 106.756 312.166 106.411 311.865 106.13C310.583 104.983 309.959 101.526 311.033 100.562C312.325 99.397 314.147 100.81 314.728 101.894C314.838 102.082 314.986 102.244 315.162 102.372C315.338 102.5 315.538 102.59 315.751 102.637C315.963 102.684 316.183 102.687 316.396 102.645C316.61 102.603 316.812 102.518 316.991 102.395C320.205 100.365 318.12 96.3043 321.187 93.8177C324.254 91.3312 330.487 93.4198 335.091 91.4407C341.119 89.1952 336.354 86.2121 335.055 84.412Z" fill="#233862"/>
<path d="M336.493 288.637C334.458 289.161 332.441 289.589 330.443 289.923C328.676 290.222 326.911 290.447 325.148 290.598C315.151 291.467 305.11 290.061 293.382 286.695C290.738 285.935 288.002 285.083 285.174 284.139C284.874 284.037 285.944 253.004 287.186 220.993C287.31 217.689 287.441 214.37 287.569 211.076C287.624 209.681 287.679 208.294 287.733 206.906C288.858 178.59 289.953 153.031 290.198 151.636C290.735 148.522 291.235 145.867 291.783 143.563C293.382 136.856 295.368 133.179 299.699 130.017C300.119 129.696 303.58 127.95 306.636 126.431C309.167 125.175 311.412 124.076 311.412 124.076C312.416 124.573 313.628 126.877 314.892 130.115C317.218 136.082 319.726 145.221 321.464 152.045V152.082C322.589 156.489 323.396 159.921 323.626 160.903C324.013 162.568 324.528 165.785 325.134 170.152C325.955 176.089 326.937 184.151 327.978 193.298C328.084 194.236 328.19 195.189 328.299 196.149C328.42 197.245 328.548 198.34 328.665 199.479C328.705 199.845 328.745 200.21 328.781 200.575C329.183 204.197 329.585 207.936 329.986 211.737C330.319 214.877 335.098 217.152 335.412 220.347C335.602 222.22 336 239.534 336.508 245.059C336.895 248.991 336.635 286.782 336.493 288.637Z" fill="#E1E1E1"/>
<path d="M302.003 163.05C302.003 163.112 301.196 191.677 322.68 195.149C344.164 198.621 329.891 199.531 329.891 199.531C329.891 199.531 289.464 197.814 288.796 196.745C288.128 195.675 302.003 163.05 302.003 163.05Z" fill="#95B3EF"/>
<path d="M320.172 207.41C320.172 207.41 319.77 207.695 318.996 208.195C318.981 208.201 318.967 208.21 318.956 208.221C315.67 210.313 305.95 216.016 291.783 219.839C290.298 220.243 288.763 220.623 287.178 220.978C287.303 217.674 287.434 214.355 287.562 211.061C285.772 210.935 283.992 210.691 282.234 210.331C282.293 209.897 282.351 209.462 282.406 209.028C284.21 208.297 285.999 207.567 287.726 206.899C289.132 206.351 290.494 205.826 291.783 205.34C297.603 203.149 301.915 201.634 301.915 201.634L319.138 207.071L320.172 207.41Z" fill="#95B3EF"/>
<path d="M324.732 206.932C324.732 206.932 322.519 207.483 318.996 208.195H318.959C312.46 209.502 301.539 211.332 291.783 211.233C290.344 211.233 288.931 211.16 287.562 211.054C285.772 210.927 283.992 210.683 282.234 210.324C278.671 209.572 275.684 208.297 273.731 206.307C259.217 191.527 281.65 138.473 286.364 133.314C291.87 127.286 301.922 125.172 307.469 124.445L308.141 124.361C310.09 124.127 311.343 124.08 311.427 124.076C311.427 124.076 310.992 125.475 310.262 127.848C309.981 128.768 309.652 129.831 309.291 131.021C305.884 142.183 299.304 164.12 296.405 176.491C295.346 181.018 294.777 184.264 295.036 185.232C296.168 189.457 307.892 191.629 315.319 192.589C318.419 192.991 320.77 193.181 321.296 193.221H321.406L321.837 194.985L322.863 199.209L323.874 203.361L324.732 206.932Z" fill="#E1E1E1"/>
<path d="M365.207 232.363L315.366 230.264L325.477 168.147L375.317 170.251L365.207 232.363Z" fill="#233862"/>
<path d="M321.395 193.228C321.395 193.228 331.096 192.553 331.586 194.813C332.718 200.086 323.242 204.416 320.172 204.12C317.101 203.825 319.164 192.878 321.395 193.228Z" fill="#FFB27D"/>
<path d="M372.594 182.862C372.594 182.862 363.312 179.96 362.315 182.048C359.993 186.915 368.208 193.316 371.265 193.732C374.321 194.149 374.846 183.038 372.594 182.862Z" fill="#FFB27D"/>
<path d="M312.424 120.958C312.424 120.958 308.341 122.904 306.293 125.84C306.293 125.84 321.552 152.33 321.483 152.082C321.413 151.833 316.327 124.35 312.424 120.958Z" fill="#95B3EF"/>
<path d="M331.425 121.33C332.769 121.838 335.347 124.478 335.927 125.938L337.753 149.066C337.753 149.066 333.879 132.094 331.911 124.423C331.624 123.416 331.461 122.377 331.425 121.33Z" fill="#95B3EF"/>
<path d="M341.999 168.845C341.999 168.845 342.394 167.121 344.661 167.322C346.929 167.523 359.694 168.151 359.694 168.151C359.694 168.151 362.155 168.107 361.925 169.685L341.999 168.845Z" fill="#C65447"/>
<path d="M327.379 110.311C327.982 110.786 328.681 111.125 329.427 111.304C330.173 111.484 330.95 111.5 331.703 111.351C333.287 111.074 334.174 109.018 334.174 109.018C334.174 109.018 331.129 108.456 327.379 110.311Z" fill="white"/>
<path d="M1032.55 392.74H3.18998C2.51846 392.74 1.97409 393.284 1.97409 393.956V394.485C1.97409 395.157 2.51846 395.701 3.18998 395.701H1032.55C1033.22 395.701 1033.76 395.157 1033.76 394.485V393.956C1033.76 393.284 1033.22 392.74 1032.55 392.74Z" fill="#2E3552"/>
</svg>
