<svg xmlns="http://www.w3.org/2000/svg" viewBox="0 0 2829.1 1088.66"><defs><style>.cls-1{fill:#ebf3fa;}.cls-2{fill:#c8dbf4;}.cls-3{fill:#d4e4f8;}.cls-4{fill:#9fc1f4;}.cls-5{fill:#9abfe2;}.cls-6{fill:#bad4f4;}.cls-7{fill:#dfebfd;}.cls-8{fill:#b7d3f3;}.cls-9{fill:#c0d8fb;}.cls-10{fill:#cde0fb;}.cls-11{fill:#c1d8fb;}.cls-12{fill:#afcdfb;}.cls-13{fill:#699dee;}.cls-14{fill:#95b3ef;}.cls-15{fill:#c7deff;}.cls-16{fill:#2b478b;}.cls-17{fill:#ed7d2b;}.cls-18{fill:#f99746;}.cls-19{fill:#e8945b;}.cls-20{fill:#1c468a;}.cls-21{fill:#ffb27d;}.cls-22{fill:#b64c41;}.cls-23{fill:#fff;}.cls-24{fill:#163560;}.cls-25{fill:#77a4e5;}.cls-26{fill:#abddda;}.cls-27{fill:#0f2549;}.cls-28{fill:#233862;}.cls-29{fill:#ed975d;}.cls-30{fill:#e2915a;}.cls-31{fill:#c65447;}.cls-32{fill:#2e3552;}</style></defs><g id="Layer_2" data-name="Layer 2"><g id="Слой_1" data-name="Слой 1"><path class="cls-1" d="M2653.66,1082.09l-525.08,5.18L1895,1088.66l-11.79,0L1435,1087.17l-1233.32-3.32S39.91,956.6,9.28,739.05C-81.78,92.49,515.42-122.25,1010.09,65.1,1402.84,213.84,1628.18-41.43,1855.94,102c170,107,28.08,294.5,557.89,308.47C2904.37,423.38,2864.15,1104,2653.66,1082.09Z"/><path class="cls-2" d="M656.16,739.62S641,722,655.23,710.78c0,0,10.37-6.28,18.82-5.77,0,0-12,20.08-8.1,22.08s11.73-23.34,11.73-23.34,23.58-2.28,31.17,1.37c0,0-20.16,16.49-15.92,17.48s26-15.22,26-15.22,21.95,3.74,20.78,17.13S731,742,727.68,741.68s-22.77-7.78-23.2-5.06,11.29,11.63,19.48,12c0,0-15.47,17.06-25.76,12.14S687,748.07,680.63,745.14s-11.89-2.92-9.24.07,14.25,5.89,17.92,12.37,7,10.87-3.69,9.26-27.94-9.38-28.7-18.3Z"/><path class="cls-2" d="M729,724.87s-59.62-2.3-72.79,14.75a43.16,43.16,0,0,1-11.87,16.67l-1.39,3.8s10.33-10.89,14-11.55C656.92,748.54,651.14,727.42,729,724.87Z"/><path class="cls-2" d="M644.29,756.29s-12.79,9.46-13.68,26.37l2.32.21s4.09-17.49,11.47-24.33S644.29,756.29,644.29,756.29Z"/><path class="cls-2" d="M603.3,717.44s24.05-13.47,12.83-31.75c0,0-9-11.23-18.61-14.11,0,0,5.14,27.26,0,27.9S594,668.69,594,668.69s-25.34-12.19-35.28-11.22c0,0,15.71,26.62,10.58,26s-22.77-27.58-22.77-27.58-26-4.81-30.15,10.59,2.57,23.09,6.42,24,28.54.64,27.9,3.85-17.32,8.34-26.62,5.45c0,0,10.26,25.34,23.73,24.05s17.64-9.62,26-10.26,14.43,1.6,10.26,3.85-18.28.73-25,6.46-12.19,9.25.32,11.82,35,1,39.45-8.66Z"/><path class="cls-2" d="M528.25,671.26s67.35,21.81,75,46.18c0,0-.32,10.9,6.41,23.41v4.81s-7.05-16.35-10.9-18.6C598.81,727.06,613.88,705.89,528.25,671.26Z"/><path class="cls-2" d="M609.71,740.85s10.39,15.77,4.47,35l-2.68-.72s2.6-21.14-2.84-31.78S609.71,740.85,609.71,740.85Z"/><path class="cls-3" d="M641.56,698.86s-31.7-17.75-16.91-41.85c0,0,11.84-14.8,24.52-18.6,0,0-6.76,35.93,0,36.78s4.65-40.59,4.65-40.59,33.4-16.06,46.51-14.79c0,0-20.72,35.09-14,34.24s30-36.36,30-36.36,34.24-6.34,39.74,13.95-3.38,30.44-8.45,31.71-37.63.85-36.78,5.07,22.82,11,35.08,7.19c0,0-13.52,33.4-31.28,31.71s-23.25-12.69-34.24-13.53-19,2.11-13.53,5.07,24.1,1,33,8.52,16.07,12.2-.42,15.58-46.08,1.27-52-11.42Z"/><path class="cls-3" d="M740.49,638s-88.78,28.74-98.93,60.87c0,0,.43,14.38-8.45,30.86v6.35s9.3-21.57,14.37-24.53C647.48,711.54,627.61,683.64,740.49,638Z"/><path class="cls-3" d="M633.11,729.72s-13.69,20.79-5.89,46.1l3.53-.94S627.33,747,634.49,733,633.11,729.72,633.11,729.72Z"/><path class="cls-3" d="M640.5,830.7a62.1,62.1,0,0,0,62.1-62.1H578.39A62.1,62.1,0,0,0,640.5,830.7Z"/><path class="cls-3" d="M703.46,833.86H577.53a7.66,7.66,0,0,1,7.66-7.66H695.8a7.66,7.66,0,0,1,7.66,7.66Z"/><rect class="cls-4" x="576.35" y="768.6" width="127.67" height="1.9"/><path class="cls-5" d="M748.34,838.19v6c0,2.12-.69,3.85-1.53,3.85H526.12c-.84,0-1.52-1.73-1.52-3.85v-6c0-2.12.68-3.85,1.52-3.85H746.81C747.65,834.34,748.34,836.07,748.34,838.19Z"/><path class="cls-6" d="M748.34,838.19v6c0,2.12-.63,3.85-1.4,3.85H571.73c-.77,0-1.39-1.73-1.39-3.85v-6c0-2.12.62-3.85,1.39-3.85H746.94C747.71,834.34,748.34,836.07,748.34,838.19Z"/><rect class="cls-2" x="535.8" y="848.08" width="156.68" height="228.37"/><rect class="cls-7" x="579.71" y="848.08" width="156.68" height="228.37"/><path class="cls-8" d="M728,1063.84H588.13V854.53H728Zm-138.33-1.51H726.46V856H589.64Z"/><rect class="cls-8" x="588.88" y="923.77" width="138.33" height="1.51"/><rect class="cls-8" x="588.88" y="994.36" width="138.33" height="1.51"/><path class="cls-8" d="M672.22,868H646.55a2.27,2.27,0,0,1-2.26-2.26h0a2.27,2.27,0,0,1,2.26-2.27h25.67a2.27,2.27,0,0,1,2.27,2.27h0A2.27,2.27,0,0,1,672.22,868Z"/><path class="cls-8" d="M672.22,937.06H646.55a2.27,2.27,0,0,1-2.26-2.27h0a2.27,2.27,0,0,1,2.26-2.26h25.67a2.27,2.27,0,0,1,2.27,2.26h0A2.27,2.27,0,0,1,672.22,937.06Z"/><path class="cls-8" d="M672.22,1009H646.55a2.27,2.27,0,0,1-2.26-2.27h0a2.27,2.27,0,0,1,2.26-2.26h25.67a2.27,2.27,0,0,1,2.27,2.26h0A2.27,2.27,0,0,1,672.22,1009Z"/><rect class="cls-9" x="1176.94" y="239.22" width="143.73" height="139.44" rx="10.28"/><rect class="cls-7" x="1183.16" y="245.26" width="131.28" height="127.36" rx="9.39"/><path class="cls-8" d="M1245.82,258a3,3,0,1,1,3,3A3,3,0,0,1,1245.82,258Z"/><path class="cls-8" d="M1269.85,262.19a3,3,0,1,1,1.15,4.05A3,3,0,0,1,1269.85,262.19Z"/><path class="cls-8" d="M1290.43,278.54a3,3,0,1,1-.89,4.12A3,3,0,0,1,1290.43,278.54Z"/><path class="cls-8" d="M1300.62,303.85a3,3,0,1,1-3,3A3,3,0,0,1,1300.62,303.85Z"/><path class="cls-8" d="M1295.42,333.22a3,3,0,1,1-4.21,0A3,3,0,0,1,1295.42,333.22Z"/><path class="cls-8" d="M1276.72,352a3,3,0,1,1-4.21,0A3,3,0,0,1,1276.72,352Z"/><path class="cls-8" d="M1245.82,361.63a3,3,0,1,1,3,3A3,3,0,0,1,1245.82,361.63Z"/><path class="cls-8" d="M1227.66,262.19a3,3,0,1,0-1.16,4.05A3,3,0,0,0,1227.66,262.19Z"/><path class="cls-8" d="M1207.08,278.54a3,3,0,1,0,.88,4.12A3,3,0,0,0,1207.08,278.54Z"/><path class="cls-8" d="M1196.88,303.85a3,3,0,1,0,3,3A3,3,0,0,0,1196.88,303.85Z"/><path class="cls-8" d="M1202.09,333.22a3,3,0,1,0,4.21,0A3,3,0,0,0,1202.09,333.22Z"/><path class="cls-8" d="M1220.78,352a3,3,0,1,0,4.21,0A3,3,0,0,0,1220.78,352Z"/><path class="cls-8" d="M1248,306.83a3,3,0,1,1,3,3A3,3,0,0,1,1248,306.83Z"/><rect class="cls-8" x="1250.57" y="269.64" width="0.81" height="37.19"/><rect class="cls-8" x="1247.92" y="297.82" width="25.07" height="2.44" transform="translate(84.32 842.07) rotate(-38.13)"/><path class="cls-10" d="M2636.64,696.21a430.48,430.48,0,0,1-5.67,69.95c-27.9,170.18-155.68,298.75-309.1,298.75a271.26,271.26,0,0,1-34.71-2.21c-4-.52-8.06-1.13-12.06-1.82-76.61-13.38-144.2-59.08-192.34-124.88-34.86-47.63-59.51-105.78-70-169.84a431.61,431.61,0,0,1-5.67-69.95c0-91.56,28.5-175.34,75.67-239.8,47.8-65.35,114.79-110.87,190.74-124.59q6-1.06,12.07-1.9a272.68,272.68,0,0,1,36.3-2.42C2495.71,327.5,2636.64,492.58,2636.64,696.21Z"/><path class="cls-10" d="M2321.87,327.5v737.41s-71.09,7.43-170.55,10.57l-10.53.32c-88.08,2.45-196.44,1.39-297.14-10.89V327.5s148-14.45,316.25-10.44q7.11.18,14.27.4c41.07,1.22,83.11,3.6,124.3,7.59q8.51.82,16.94,1.73Z"/><path class="cls-11" d="M2631,766.16c-27.9,170.18-155.68,298.75-309.1,298.75,0,0-71.09,7.43-170.55,10.57l-10.53.32c-88.08,2.45-196.44,1.39-297.14-10.89-74.61,0-143.18-30.42-197.12-81.23V766.16Z"/><path class="cls-12" d="M2158.42,696.21a431.61,431.61,0,0,1-5.66,69.95c-10.5,64.06-35.15,122.21-70,169.84-57.73,78.91-143.44,128.91-239.11,128.91-74.61,0-143.18-30.42-197.12-81.23-71.74-67.58-117.65-171.25-117.65-287.47,0-203.63,140.93-368.71,314.77-368.71,95.67,0,181.38,50,239.11,128.91C2129.93,520.88,2158.42,604.64,2158.42,696.21Z"/><path class="cls-13" d="M2058.64,696.21a294.09,294.09,0,0,1-3.42,45c-1.41,9.19-3.26,18.23-5.51,27a277.94,277.94,0,0,1-9.69,30.63A263.05,263.05,0,0,1,2015.85,847a243.56,243.56,0,0,1-16.46,22.8c-2.66,3.31-5.43,6.53-8.25,9.65-38.51,42.53-90.39,68.59-147.48,68.59s-109-26.06-147.48-68.59q-4.25-4.68-8.27-9.65a243.65,243.65,0,0,1-16.47-22.8v0a262.84,262.84,0,0,1-24.16-48.12,277.94,277.94,0,0,1-9.69-30.63c-2.25-8.82-4.1-17.86-5.52-27a295.37,295.37,0,0,1-3.42-45c0-139.1,96.26-251.85,215-251.85S2058.64,557.11,2058.64,696.21Z"/><rect class="cls-14" x="1008.58" y="798.87" width="803.53" height="70.93" rx="26.48"/><path class="cls-15" d="M2040,798.87A263.05,263.05,0,0,1,2015.85,847a243.56,243.56,0,0,1-16.46,22.8h-848.8c-.39,0-18.69,0-19.08,0-24.73-.28-26.67-9.62-26.67-21.08V820c0-11.65,4.06-21.08,29.33-21.08Z"/><rect class="cls-14" x="1216.18" y="869.81" width="259.37" height="175.89"/><rect class="cls-12" x="1246.92" y="869.81" width="283.4" height="175.89"/><rect class="cls-14" x="1150.75" y="1045.7" width="377.99" height="31.16"/><rect class="cls-12" x="1194.59" y="1045.7" width="377.99" height="31.16"/><path class="cls-16" d="M2415.08,410.46c-27.15-33.66-58.48-60.58-93.21-80.15-1.67-.93-3.34-1.86-5-2.76l-1.43-.77q-8.44-.91-16.94-1.73c2.12,1,4.2,2,6.3,3,2.27,1.1,4.53,2.25,6.77,3.42q5.21,2.75,10.33,5.69c33,19.06,62.83,45,88.8,77.17,59,73.13,91.52,170.4,91.52,273.89,0,61.11-11.33,120.06-32.77,173.15a396.58,396.58,0,0,1-58.75,100.75c-26,32.19-55.8,58.09-88.8,77.17q-5.11,2.94-10.33,5.68a271.35,271.35,0,0,1-26,12q-5.21,2.08-10.47,3.92c4,.71,8,1.34,12.06,1.87.33-.13.67-.26,1-.4a280.58,280.58,0,0,0,26-12c2.59-1.36,5.17-2.76,7.74-4.22,34.73-19.56,66.06-46.49,93.21-80.13a402.82,402.82,0,0,0,60.57-104.61c21.13-53.21,32.3-112.11,32.3-173.15C2508,583.31,2475,484.66,2415.08,410.46Z"/><path class="cls-16" d="M2321.87,478.87a408.79,408.79,0,0,0-46-74.1,345.6,345.6,0,0,0-56.38-57.34,300.7,300.7,0,0,0-44.59-29.57l-.75-.4q-7.15-.22-14.27-.4,6.26,3,12.44,6.33a291.48,291.48,0,0,1,40.81,26.7,337.13,337.13,0,0,1,58.33,58.66,406.08,406.08,0,0,1,50.39,83.95C2348.7,552.39,2363,620.27,2363,691c0,59.89-10.26,117.78-29.73,170.38q-5.25,14.22-11.39,27.9a405.71,405.71,0,0,1-50.39,84q-1.83,2.34-3.7,4.65a339.14,339.14,0,0,1-50,50.36l1.45,6.56a342.25,342.25,0,0,0,50.23-49.55q3.27-4,6.47-8a408.18,408.18,0,0,0,46-74.11,441.71,441.71,0,0,0,17.59-41.72c19.2-52.69,29.3-110.55,29.3-170.38C2368.76,614.91,2352.42,542,2321.87,478.87Z"/><path class="cls-14" d="M2544.42,1076.86h-289.9c-14.35,0-28.79-12.61-32.24-28.16l-3.09-13.91-1.45-6.56-10.35-46.6a98.92,98.92,0,0,1,7.54-64.53l27-55.74h254.66c14.35,0,28.79,12.61,32.25,28.17l35.31,159.17C2567.61,1064.25,2558.77,1076.86,2544.42,1076.86Z"/><path class="cls-12" d="M2609.92,1076.86H2311.46c-12,0-24-10.53-26.93-23.53l-42.6-192H2562.1c12,0,24,10.53,26.93,23.53l37.38,168.44C2629.29,1066.33,2621.91,1076.86,2609.92,1076.86Z"/><polygon class="cls-13" points="2461.86 546.73 2374.51 549.05 2373.04 542.37 2460.39 540.04 2461.86 546.73"/><polygon class="cls-13" points="2465.06 563.36 2377.71 565.69 2376.24 559 2463.59 556.67 2465.06 563.36"/><polygon class="cls-13" points="2468.25 579.99 2380.91 582.31 2379.44 575.63 2466.79 573.3 2468.25 579.99"/><polygon class="cls-13" points="2471.44 596.56 2384.1 598.89 2382.63 592.21 2469.98 589.88 2471.44 596.56"/><path class="cls-17" d="M1825.27,689.81S1682.33,715,1646.53,798.87h330.58L2003,689.81Z"/><path class="cls-18" d="M2016.86,798.87c0-8.77-1.39-91.69-13.85-109.06,0,0-142.94,25.14-178.74,109.06Z"/><path class="cls-19" d="M1088.14,764.81l1.69,16.18a486.31,486.31,0,0,0,91.08,15.57c32.09,2.35,67.53,1.7,97.67-6.7,13.64-3.81,26.19-9.2,36.86-16.62,0,0,29.43-5.89,68.73-13.62,43.71-8.61,158-72.6,8.94-55.89-21.63,2.42-80.75,1.9-102.59,14.12-37.32,20.88-78.2,32.53-113.38,39C1126.82,766.13,1088.14,764.81,1088.14,764.81Z"/><path class="cls-19" d="M1078.53,798.78c-8.41,3-13.59-8.44-17.85-22.15s-6-8.78-14.37-26.93-5.1-27.12-2.88-29.16c2-1.81,7.81,6.12,14.27,14.52.81,1.05,1.63,2.11,2.46,3.16,7.39,9.42,18.45,12.92,29.4,18.93,10.38,5.69,39.06,6.25,39.06,6.25l12.17,24.44s-26-1.06-36.89-.94c-6.43.07-12.63,4-17.28,7.27A34.78,34.78,0,0,1,1078.53,798.78Z"/><path class="cls-20" d="M1060.68,776.63c-4.26-13.71-6-8.78-14.37-26.93s-5.1-27.12-2.88-29.16c2-1.81,7.81,6.12,14.27,14.52l-.12.19a55.88,55.88,0,0,0,7.07,28.92c6.65,11.71,17.31,22,22,30a34.78,34.78,0,0,1-8.09,4.61C1070.12,801.79,1064.94,790.34,1060.68,776.63Z"/><path class="cls-21" d="M1120.38,766.64l1.34,16.21a486.3,486.3,0,0,0,90.71,17.54c32,3.05,67.49,3.16,97.8-4.59,13.72-3.5,26.38-8.62,37.21-15.81,0,0,29.55-5.25,69-12.13,43.88-7.65,80.6-111.41-17.23-70.27-20.07,8.45-53.39,14.74-75.49,26.49-37.77,20.06-78.89,30.82-114.21,36.54C1159,768.79,1120.38,766.64,1120.38,766.64Z"/><path class="cls-21" d="M1110,800.39c-8.47,2.83-13.4-8.73-17.36-22.53s-5.84-8.91-13.79-27.24-4.51-27.22-2.25-29.21c2-1.77,7.68,6.29,14,14.82.78,1.08,1.58,2.15,2.39,3.22,7.19,9.57,18.16,13.32,29,19.56,10.25,5.91,38.91,7.09,38.91,7.09l11.65,24.7s-25.93-1.63-36.87-1.74c-6.43-.06-12.71,3.73-17.43,6.89A34.88,34.88,0,0,1,1110,800.39Z"/><path class="cls-20" d="M1092.67,777.86c-4-13.8-5.84-8.91-13.79-27.24s-4.51-27.22-2.25-29.21c2-1.77,7.68,6.29,14,14.82l-.13.19a55.93,55.93,0,0,0,6.44,29.06c6.4,11.86,16.84,22.32,21.32,30.47a34.88,34.88,0,0,1-8.19,4.44C1101.56,803.22,1096.63,791.66,1092.67,777.86Z"/><path class="cls-22" d="M1895.65,654c24.15,28.24,28.8,53-.88,73.9-.5.35-14,12.83-14.49,13.21-31.46,24.57-54-36.75-96,44.42a4.65,4.65,0,0,1-1,1c-16.44,16.58-44.84,7.66-49.51-15.21L1709,649.8s42.19,27.71,75.6,32.16C1815.83,686.13,1838.22,586.83,1895.65,654Z"/><path class="cls-21" d="M1687.35,658.14c39.91-4.11,72,5.1,72,5.1s3.15,5.52,3.65,7.4c.27,1,1.22.77,2.27,1,3.31.61,10.19-.21,17.31-1.43,10.86-1.87,22.26-4.65,22.26-4.65l13.46,35.42,2.22-3.3c-18.45,3.05-37.14,7.26-44.25,12.35-3.38,2.42-1.3,13.4-1.18,17.55.23,8.06-9.69,5.78-12,15.78C1762,748.17,1647.44,662.25,1687.35,658.14Z"/><path class="cls-19" d="M1804.84,665.52s-11.4,2.78-22.26,4.65c4.05,20.41,24.6,28.09,35.72,30.77Z"/><path class="cls-21" d="M1793.39,660.41S1800.8,709.08,1831,704s51.56-2.22,48.1-33.51-16-35.37-26.51-36.13S1792.24,647.62,1793.39,660.41Z"/><path class="cls-22" d="M1869.68,633c10.35,5.95,9.33,11.95,7.15,15.59,18.84,23.58.39,44.82.39,44.82-21.14,6.92-30.92,24.66-30.92,24.66s-3.66-1.54-2.78-22.88c1-25.33,25.07-43,28.49-44.62-3.16-2.51-7.37-7-13.68-10.06-7.38-3.55-12.13-4.61-26.6-2.36C1831.73,638.1,1854.14,624,1869.68,633Z"/><path class="cls-23" d="M1596,775.37s12,1.06,12,1.06c14.84,11.89,158.75-24.29,159.53-25.52.1.06,8.62-.36,8.62-.36,6.52-10.1.11-40.56.11-40.56s-33.86-4.42-39-6.58c-33.11-14-25.41-38.13-6-36.62,7.07.53,29.16,3.2,31.72,3.85h0c-1.93-5.59-1.88-20-45.38-20.76-39.87-2.38-79.33,21.59-137.78,29.16-.63.09-.52,8.06-4.29,7.46C1563.48,684.47,1591.74,772.36,1596,775.37Z"/><path class="cls-23" d="M1813.89,669.49s-3.89,0-5.39-9.35c0,0-1.26-7.82,2.85-8.5C1811.35,651.64,1815.92,658.47,1813.89,669.49Z"/><path class="cls-16" d="M1273,711.85c-35,58.85,33,126.19,36.08,126.08,16.63-.55,79.9-20.43,175.67-36.45,58.9-9.85,118.37-31.83,122-27.14-.88-1.12-14.11-18.11-11.75-48.82a512.92,512.92,0,0,1,6.94-53.81c-11.47-5.23-65.88-2.36-117.55-3.24C1362.55,666.39,1273,711.85,1273,711.85Z"/><path class="cls-24" d="M1606.81,774.41s-19.48-49,.57-101.18l-8.3-2.45s-19.56,53.33.9,105.61Z"/><path class="cls-21" d="M1764.3,724s-99.9,41.42-117.11,43.13-116.43,19.71-116.43,19.71l2.17,12.79s106.06,2.13,127.83-1,106.48-33.86,106.48-33.86Z"/><path class="cls-21" d="M1537.56,786.33s-31.6-1.89-34.43.21-21.42,13.21-18.38,14.94,20.38-1.61,24.56-1.26,6.35,3.51,13.07,2.34,15-3.26,15-3.26Z"/><path class="cls-23" d="M1778.8,728.17s6.07,35.17-24.35,45.31c0,0-41.53-26-36.72-47.39s47.31-9.87,47.31-9.87Z"/><path class="cls-25" d="M337.35,1077.63h.37a5.09,5.09,0,0,0,5.14-5.43l-20.4-203.74L304.65,870,334,1074.87A3.32,3.32,0,0,0,337.35,1077.63Z"/><path class="cls-25" d="M140.91,1077.63h-.37a5.08,5.08,0,0,1-5.13-5.43l20.4-203.74,17.8,1.59-29.29,204.83A3.33,3.33,0,0,1,140.91,1077.63Z"/><path class="cls-25" d="M481.27,1077.63h.38a5.08,5.08,0,0,0,5.13-5.43l-20.4-203.74L448.58,870l29.29,204.83A3.32,3.32,0,0,0,481.27,1077.63Z"/><path class="cls-25" d="M147,838.81,110.78,660c-4.65-24.22,15.41-46.36,41.46-45.76l69.84,1.59a55.16,55.16,0,0,1,51.73,39.83l53,183.16Z"/><path class="cls-25" d="M168.9,838.81,132.68,660c-4.64-24.22,15.42-46.36,41.47-45.76L244,615.82a55.16,55.16,0,0,1,51.73,39.83l53,183.16Z"/><path class="cls-25" d="M157.08,838.81H433.39a10.09,10.09,0,0,1,10.09,10.09v22.52a0,0,0,0,1,0,0H157.08A10.09,10.09,0,0,1,147,861.33V848.9A10.09,10.09,0,0,1,157.08,838.81Z" transform="translate(590.47 1710.24) rotate(180)"/><rect class="cls-25" x="278.61" y="838.81" width="192.4" height="32.62" rx="8.13" transform="translate(749.63 1710.24) rotate(180)"/><path class="cls-26" d="M285.47,655.08l29.35,74.27s28.28,33.32,51,22.58L293.9,612.27Z"/><path class="cls-21" d="M484.89,1063.11c-.85,8.21,10.57,10.33,23.81,11.13s9.2,3.47,27.32,7,25.44-1.4,26.78-3.84c1.19-2.17-7.21-5.66-16.16-9.6-1.13-.49-2.26-1-3.38-1.51-10.08-4.56-15.66-13.7-23.46-22.2-7.39-8-14.21-33.65-14.21-33.65L481,1004.86s6.68,23.05,9,32.88c1.35,5.78-.81,12.21-2.71,17.1A32,32,0,0,0,484.89,1063.11Z"/><path class="cls-27" d="M508.7,1074.24c13.23.8,9.2,3.47,27.32,7s25.44-1.4,26.78-3.84c1.19-2.17-7.21-5.66-16.16-9.6l-.14.15a51.64,51.64,0,0,1-27.5,0c-12-3.39-23.51-10.69-31.75-13.09a32,32,0,0,0-2.36,8.27C484,1071.32,495.46,1073.44,508.7,1074.24Z"/><path class="cls-17" d="M447.6,778c-13.24-9.3-99.15-50.1-143.85-54.89l-51.1-18.68s-42.05,62.3-42.39,110c-.15,22.22,10.08,24.43,10.08,24.43s158.4,1.18,165.34,1.89C397,841.87,412,870.19,415.78,896s69.79,130.67,69.79,130.67,13.78,4.41,20.15,4c6.85-.4,10-2.69,10-2.69S477.47,799,447.6,778Z"/><path class="cls-21" d="M443.92,1063.11c-.85,8.21,10.57,10.33,23.81,11.13s9.2,3.47,27.32,7,25.44-1.4,26.78-3.84c1.2-2.17-7.21-5.66-16.16-9.6-1.13-.49-2.25-1-3.38-1.51-10.08-4.56-15.66-13.7-23.46-22.2-7.39-8-14.21-33.65-14.21-33.65L440,1004.86s6.68,23.05,9,32.88c1.35,5.78-.81,12.21-2.71,17.1A32,32,0,0,0,443.92,1063.11Z"/><path class="cls-28" d="M467.73,1074.24c13.23.8,9.2,3.47,27.32,7s25.44-1.4,26.78-3.84c1.2-2.17-7.21-5.66-16.16-9.6l-.14.15a51.64,51.64,0,0,1-27.5,0c-12-3.39-23.51-10.69-31.75-13.09a32,32,0,0,0-2.36,8.27C443.07,1071.32,454.49,1073.44,467.73,1074.24Z"/><path class="cls-18" d="M406.27,778c-11.5-8.08-40.44-11.75-82.52-25.45-10.13-3.3-49.14-22.1-51.73-32.44l19.25-8.89-79.95-6.79s-20.23,39.22-20.56,86.87c-.15,22.22,19.5,47.51,19.5,47.51S337.4,840,344.35,840.7c11.36,1.17,26.35,29.49,30.1,55.27s69.79,130.67,69.79,130.67,13.78,4.41,20.15,4c6.85-.4,10-2.69,10-2.69S436.14,799,406.27,778Z"/><path class="cls-28" d="M287.39,445.63c-12.21-6.42-30.78-7.28-33.8-7.69-36.11-4.85-57.85,47.62-59.13,63.52-2.35,29.31-17.86,33.78-39.68,52.14-43.76,36.8-30.93,79.57-7,95.45,14.36,9.54,39.66,0,39.66,0,.36.25,69.21-38.48,103.14-57.17C341.46,584.65,318.5,462,287.39,445.63Z"/><path class="cls-21" d="M279.86,573.83c.16.08-16.05,7.45-27.74,3.59-11-3.63-20.7-20.2-20.55-20.22,4.78-.7,9.64-5.41,11-33.33l2.12.54,35.56,9s-1.41,11.27-2,21.92C277.76,564.26,277.86,572.77,279.86,573.83Z"/><path class="cls-29" d="M280.24,533.39s0,2.32-1.33,12.8c-20.11-5.07-29-11.74-35.24-19.37Z"/><path class="cls-21" d="M287.83,534.81s-47,7.66-51.35-21.7S223.19,465,253,458.83s37.34,4.22,41.16,13.67S300,532.06,287.83,534.81Z"/><path class="cls-28" d="M287.87,457.6s-21.35,33.72-40.42,41.7S219,503.23,219,503.23A80.32,80.32,0,0,0,230,472.42a14.48,14.48,0,0,1,8.93-11.62C252.56,455.32,279,446.68,287.87,457.6Z"/><path class="cls-28" d="M269.11,460.86s12.52,6.42,17.67,12.43c5,5.81,10.72,21.56,10.31,28.63,0,0,6.18-33.89-6.68-45.54C276.77,444,269.11,460.86,269.11,460.86Z"/><path class="cls-23" d="M317.48,645.55c-1.42,95.6,33.81,68.84,23.35,77.91-2.52,2.18-12.83,18.45-51.72,20.39-29.34,1.46-82.24-12.39-84.2-17.81-6.76-18.74-2-24.56-7.63-53.26-.58-3-1.31-6.35-2.17-9.95-4.7-19.71-9.28-26.42,7.41-58.08,15.13-28.68,32.92-52,34.34-51.14,39.92,23.7,41.29,3.83,41.29,3.83S318.18,598.93,317.48,645.55Z"/><path class="cls-12" d="M278.15,557.44s40.85,6.93,45.68,24.62,52,151.53,52,151.53-50.28,1.37-59.93-8.28-22.93-117-22.93-117Z"/><path class="cls-21" d="M289.11,719.87s6.06,7.82,8,8.75a5.85,5.85,0,0,0,3.27.7L296.34,722Z"/><path class="cls-21" d="M287.71,711.83l17.62,8.55a3.14,3.14,0,0,1-2.92,1.13c-2.17-.1-7.64-2.1-7.64-2.1Z"/><path class="cls-14" d="M278.51,551.2l-.36,6.24c4.64,16,12.49,65.31,22.27,103.48l6.84-54.66-5.62-4.59,2.11-7.73-18.43-35Z"/><path class="cls-12" d="M278.15,813.62c-63,21.09-112.95,6.92-112.95,6.92l10.3-60.93,5.62-33.21,12-71.32,20.59-67.82,18-10.9,15.73,78.72Z"/><path class="cls-14" d="M202.15,662.49c-1.05,1.66-1.1,34,29.42,42s-44.69,15.64-44.69,15.64S162.62,701.49,163,696.92,202.15,662.49,202.15,662.49Z"/><path class="cls-14" d="M257.8,733S216,757,175.5,759.61l5.62-33.21Z"/><path class="cls-21" d="M254.13,715.7s28.91-6.44,33.58-3.87,16.07,11.91,17.5,15.16-10.39-2.47-14.23-3.5c-2.49-.67-9,1.61-12.29,2.69-13.65,4.55-22,2.21-22,2.21Z"/><path class="cls-12" d="M236.86,553.61s-40.93,2.39-54.37,21.14C163.57,601.14,126,713.61,147.55,728.61,171.77,745.5,257.8,733,257.8,733s2.86-13.38-1.12-19.86S188,696.25,185,693.26,222.32,635,222.32,626,236.86,553.61,236.86,553.61Z"/><path class="cls-14" d="M239.22,548.35l8.29,106.73-19-40.86,3.25-7.28s-6.94-12-6.94-13.36,2-38.82,2-38.82Z"/><rect class="cls-16" x="237.56" y="728.85" width="434.77" height="20.05" rx="3.71"/><path class="cls-16" d="M661.36,1079.12l.23,0a5.09,5.09,0,0,0,4.49-5.66L616.69,739.05l-18.09.52,58.12,336.18A4.16,4.16,0,0,0,661.36,1079.12Z"/><path class="cls-16" d="M223.22,1079.12l-.24,0a5.09,5.09,0,0,1-4.49-5.66l49.4-334.38,18.08.52-58.12,336.18A4.15,4.15,0,0,1,223.22,1079.12Z"/><path class="cls-16" d="M337.58,1079.12l-.24,0a5.09,5.09,0,0,1-4.49-5.66l49.4-334.38,18.08.52-58.12,336.18A4.15,4.15,0,0,1,337.58,1079.12Z"/><polygon class="cls-17" points="486.39 701.45 320.48 701.45 350.63 589.96 516.53 589.96 486.39 701.45"/><polygon class="cls-18" points="491.63 701.45 325.72 701.45 355.87 589.96 521.77 589.96 491.63 701.45"/><polygon class="cls-17" points="420.96 728.49 386.17 728.81 410.25 655.4 445.04 655.08 420.96 728.49"/><rect class="cls-17" x="364.69" y="725.31" width="75.97" height="3.5"/><rect class="cls-28" x="286.88" y="725.31" width="54.48" height="3.54"/><path class="cls-28" d="M817.48,1084.43h48.69a117.08,117.08,0,0,0-3.88-17.48,49.2,49.2,0,0,0-2.76-7c-4.73-9.46-34.81-3.44-34.81-3.44s-2.8,2.39-5,11.53A96.4,96.4,0,0,0,817.48,1084.43Z"/><path class="cls-12" d="M906.87,340.65s38.8,6.81,47.57,29.71,58.34,392.85,58.34,392.85-24.55,19.44-77.22,12.46S906.87,340.65,906.87,340.65Z"/><path class="cls-28" d="M964.63,1069.06c.13,6.63,1,12.9,3.37,15.37h96.31c-1.22-3.48-4.69-8.73-14.58-10.33-11.23-1.82-28.75-7.23-39-18a29,29,0,0,1-7.55-13.66c-4.53-20.18-37.47,6.18-37.47,6.18A162.26,162.26,0,0,0,964.63,1069.06Z"/><path class="cls-17" d="M1006.1,1059.25c-10.76,3.44-31.33,13.92-44.4,9-8.44-3.19-55.65-139.74-58.71-199.47A153.11,153.11,0,0,0,900.57,851c-2.8-15.42-7.69-36.6-13.32-60-15.11-62.63-35.54-141-35.1-166,.69-38.87,115.83-8.14,115.83-8.14s7.92,31.88,9.5,78c3.13,91.63,11.73,246.4,35.11,353.89C1013.58,1053.33,1010.57,1057.83,1006.1,1059.25Z"/><path class="cls-18" d="M926.18,625.12,865.31,1066.3s-26.73,6.45-47.52,1.29c0,0-17.82-234.64-16.34-291.37S788.66,624.43,804.71,614,926.18,625.12,926.18,625.12Z"/><path class="cls-23" d="M797,360.86s64-41.37,109.85-20.21c7.31,3.37,15.65,12.77,21.62,19.35,16.59,18.28,49,308.59,49,308.59S885.49,699.75,797,658Z"/><path class="cls-12" d="M910.51,339.6s64.76,26.54,73.53,46.93,37.28,145.62,37.28,160.31-49.64,3.28-57.63-20.4c-6.63-19.67-29-80.09-40.81-118.3Z"/><path class="cls-21" d="M897.06,359.82c-14.14,2.77-34.91-.18-50.11-10.2,6.86-16.4,9.68-29.35,10.68-37.72.06-.45.1-.88.15-1.3A38.73,38.73,0,0,0,858,302H894.5s10,4.57,10,7.73c0,1.69,0,3.3,0,4.84.07,4.21.24,7.88.46,11a99.77,99.77,0,0,0,1.87,15.09S911.34,357,897.06,359.82Z"/><path class="cls-30" d="M905,325.56c-27.69,5.35-43.77-9.78-47.37-13.66-.51-.56-.77-.89-.77-.89a9.79,9.79,0,0,1,.92-.41c10.3-4.17,33.7-.85,46.76,3.93C904.61,318.74,904.78,322.41,905,325.56Z"/><path class="cls-21" d="M848.59,296c4.94,26.63,39.31,25.76,54.16,24.09,4.18-.47,6.81-1,6.81-1,4.71-1.26,7.34-8.68,8.56-18.41,2.42-19.24-.64-47.48-3.89-54.7-4.89-10.87-14.11-22.63-48.71-14.15S842.24,261.83,848.59,296Z"/><path class="cls-28" d="M915.52,231.07c-4.73-6.55-14.76-14.55-23.87-19.48-19.57-10.58-44.61.34-44.71.38-28.27,12.43-35.65,34.06-20.67,67.74,15.85,35.63,30.94,31.62,30.94,31.62s-3.2-2-2.91-13.1c0-.63,0-1.16.07-1.61a7.48,7.48,0,0,0-2.36-6.07c-3.51-3.14-5.22-12.61-2.28-15.25,3.54-3.19,8.53.68,10.12,3.65a4.34,4.34,0,0,0,6.2,1.37c8.8-5.56,3.09-16.68,11.49-23.49s25.47-1.09,38.08-6.51C932.13,244.17,919.08,236,915.52,231.07Z"/><path class="cls-12" d="M919.46,790.39q-8.36,2.15-16.57,3.52-7.26,1.23-14.5,1.85c-27.38,2.38-54.88-1.47-87-10.69q-10.86-3.12-22.48-7c-.82-.28,2.11-85.27,5.51-172.94.34-9.05.7-18.14,1.05-27.16.15-3.82.3-7.62.45-11.42C789,489,792,419,792.67,415.18c1.47-8.53,2.84-15.8,4.34-22.11,4.38-18.37,9.82-28.44,21.68-37.1,1.15-.88,10.63-5.66,19-9.82,6.93-3.44,13.08-6.45,13.08-6.45h0c2.75,1.36,6.07,7.67,9.53,16.54,6.37,16.34,13.24,41.37,18,60.06l0,.1h0c3.08,12.07,5.29,21.47,5.92,24.16,1.06,4.56,2.47,13.37,4.13,25.33,2.25,16.26,4.94,38.34,7.79,63.39.29,2.57.58,5.18.88,7.81.33,3,.68,6,1,9.12.11,1,.22,2,.32,3,1.1,9.92,2.2,20.16,3.3,30.57.91,8.6,14,14.83,14.86,23.58.52,5.13,1.61,52.55,3,67.68C920.56,681.81,919.85,785.31,919.46,790.39Z"/><path class="cls-14" d="M825,446.44c0,.17-2.21,78.4,56.63,87.91s19.75,12,19.75,12-110.72-4.7-112.55-7.63S825,446.44,825,446.44Z"/><path class="cls-14" d="M874.76,567.93s-1.1.78-3.22,2.15a.34.34,0,0,0-.11.07c-9,5.73-35.62,21.35-74.42,31.82q-6.1,1.66-12.61,3.12c.34-9.05.7-18.14,1.05-27.16a112.56,112.56,0,0,1-14.59-2c.16-1.19.32-2.38.47-3.57,4.94-2,9.84-4,14.57-5.83,3.85-1.5,7.58-2.94,11.11-4.27,15.94-6,27.75-10.15,27.75-10.15L871.93,567Z"/><path class="cls-12" d="M887.25,566.62s-6.06,1.51-15.71,3.46l-.1,0c-17.8,3.58-47.71,8.59-74.43,8.32-3.94,0-7.81-.2-11.56-.49a112.56,112.56,0,0,1-14.59-2c-9.76-2.06-17.94-5.55-23.29-11-39.75-40.48,21.69-185.78,34.6-199.91,15.08-16.51,42.61-22.3,57.8-24.29l1.84-.23c5.34-.64,8.77-.77,9-.78h0s-1.19,3.83-3.19,10.33c-.77,2.52-1.67,5.43-2.66,8.69-9.33,30.57-27.35,90.65-35.29,124.53-2.9,12.4-4.46,21.29-3.75,23.94,3.1,11.57,35.21,17.52,55.55,20.15,8.49,1.1,14.93,1.62,16.37,1.73l.3,0,1.18,4.83,2.81,11.57,2.77,11.37Z"/><polygon class="cls-28" points="998.1 636.27 861.6 630.52 889.29 460.4 1025.79 466.16 998.1 636.27"/><path class="cls-21" d="M878.11,529.09s26.57-1.85,27.91,4.34c3.1,14.44-22.85,26.3-31.26,25.49S872,528.13,878.11,529.09Z"/><path class="cls-21" d="M1018.33,500.7s-25.42-7.95-28.15-2.23c-6.36,13.33,16.14,30.86,24.51,32S1024.5,501.18,1018.33,500.7Z"/><path class="cls-14" d="M853.54,331.16s-11.18,5.33-16.79,13.37c0,0,41.79,72.55,41.6,71.87S864.23,340.45,853.54,331.16Z"/><path class="cls-14" d="M905.58,332.18c3.68,1.39,10.74,8.62,12.33,12.62l5,63.34s-10.61-46.48-16-67.49A35.5,35.5,0,0,1,905.58,332.18Z"/><path class="cls-31" d="M934.54,462.31s1.08-4.72,7.29-4.17S983,460.41,983,460.41s6.74-.12,6.11,4.2Z"/><path class="cls-23" d="M894.5,302a14.57,14.57,0,0,0,11.84,2.85c4.34-.76,6.77-6.39,6.77-6.39S904.77,296.92,894.5,302Z"/><rect class="cls-32" x="3.3" y="1075.5" width="2825.8" height="8.11" rx="3.33"/></g></g></svg>