<svg width="37" height="37" viewBox="0 0 37 37" fill="none" xmlns="http://www.w3.org/2000/svg">
<path d="M26.1438 11H11V26.144H26.1438V11Z" fill="white"/>
<path d="M18.413 36.826C28.5822 36.826 36.826 28.5822 36.826 18.413C36.826 8.24378 28.5822 0 18.413 0C8.24378 0 0 8.24378 0 18.413C0 28.5822 8.24378 36.826 18.413 36.826Z" fill="#38C6AE"/>
<path d="M10.9793 19.7361L11.3225 19.5516C11.731 19.3324 11.975 18.939 11.975 18.5C11.975 18.061 11.731 17.6676 11.3225 17.4484L10.9793 17.2639C10.0424 16.7599 9.72201 15.6476 10.2629 14.7758L10.9154 13.7242C11.455 12.8542 12.6549 12.5555 13.5892 13.0576L13.9324 13.2415C14.3408 13.4613 14.8295 13.4613 15.2373 13.2415C15.6458 13.0218 15.8898 12.6289 15.8898 12.19V11.8214C15.8898 10.8172 16.768 10 17.8472 10H19.1521C20.2313 10 21.1095 10.8172 21.1095 11.8214V12.1906C21.1095 12.6295 21.3536 13.0224 21.762 13.2421C22.1705 13.4613 22.6585 13.4619 23.067 13.2421L23.4102 13.0576C24.3445 12.5555 25.5444 12.8542 26.0846 13.7242L26.7371 14.7758C27.278 15.6476 26.9576 16.7605 26.0207 17.2639L25.6768 17.4484C25.2684 17.6676 25.0244 18.061 25.0244 18.5C25.0244 18.939 25.2684 19.3324 25.6768 19.5516L26.02 19.7361C26.957 20.2395 27.2773 21.3524 26.7364 22.2242L26.084 23.2758C25.5437 24.1458 24.3438 24.4445 23.4102 23.9424L23.067 23.7585C22.6585 23.5381 22.1705 23.5393 21.762 23.7585C21.3536 23.9782 21.1095 24.3711 21.1095 24.81V25.1786C21.1095 26.1828 20.2313 27 19.1521 27H17.8472C16.768 27 15.8898 26.1828 15.8898 25.1786V24.8094C15.8898 24.3705 15.6458 23.9776 15.2373 23.7579C14.8295 23.5387 14.3408 23.5381 13.9324 23.7579L13.5892 23.9424C12.6549 24.4439 11.455 24.1452 10.9154 23.2758L10.2629 22.2242C9.72201 21.3524 10.0424 20.2395 10.9793 19.7361ZM18.4997 21.5357C20.2985 21.5357 21.762 20.1739 21.762 18.5C21.762 16.8261 20.2985 15.4643 18.4997 15.4643C16.7008 15.4643 15.2373 16.8261 15.2373 18.5C15.2373 20.1739 16.7008 21.5357 18.4997 21.5357Z" fill="white"/>
</svg>
