<svg xmlns="http://www.w3.org/2000/svg" viewBox="0 0 122.11 122.14"><g id="Layer_2" data-name="Layer 2"><g id="Layer_1-2" data-name="Layer 1"><path d="M97.55,122.14H75.61c-2.11-.79-2.86-2.34-2.85-4.55.06-9.09,0-18.18,0-27.27,0-4.06-2.46-6.5-6.54-6.52H56.12c-4.41,0-6.79,2.37-6.79,6.75,0,9,0,18,0,27,0,2.2-.72,3.77-2.84,4.56H24.57c-.1-.06-.2-.16-.31-.17a13.36,13.36,0,0,1-11.21-13.73c.16-11.48,0-23,0-34.45V72.46a1.68,1.68,0,0,0-.38-.12c-.59,0-1.19,0-1.79,0a11,11,0,0,1-9.67-6.12A24.9,24.9,0,0,1,0,62.76V59.42c.72-3.57,3-6.06,5.5-8.53Q29,27.46,52.48,4c5.28-5.28,11.87-5.28,17.15,0L118.19,52.5c.42.42.84.85,1.23,1.3A11.2,11.2,0,0,1,113,72.09a38,38,0,0,1-4,.34v1.46c0,11.84,0,23.69,0,35.53a13,13,0,0,1-9.39,12.17C98.92,121.79,98.24,122,97.55,122.14Z"/></g></g></svg>