<svg width="17" height="16" viewBox="0 0 17 16" fill="none" xmlns="http://www.w3.org/2000/svg">
<path d="M13.0437 15.9983H10.2533C9.98498 15.8978 9.88959 15.7007 9.89086 15.4196C9.8985 14.2636 9.89086 13.1075 9.89086 11.9514C9.89086 11.435 9.578 11.1247 9.05909 11.1222H7.77455C7.21368 11.1222 6.91098 11.4236 6.91098 11.9806C6.91098 13.1253 6.91098 14.2699 6.91098 15.4146C6.91098 15.6944 6.81941 15.894 6.54979 15.9945H3.76195C3.74923 15.9869 3.73651 15.9742 3.72252 15.9729C3.31252 15.9064 2.94107 15.692 2.67838 15.3703C2.41569 15.0485 2.27995 14.6417 2.29681 14.2267C2.31716 12.7666 2.29681 11.3015 2.29681 9.84524V9.6799C2.28136 9.67292 2.26514 9.66779 2.24848 9.66464C2.17344 9.66464 2.09713 9.66464 2.02082 9.66464C1.76415 9.66023 1.51363 9.58528 1.29671 9.44799C1.07979 9.3107 0.904822 9.11637 0.790972 8.88629C0.728933 8.74358 0.677497 8.5965 0.637081 8.44623L0.637081 8.02145C0.728652 7.5674 1.01863 7.25072 1.33658 6.93658C3.32911 4.94999 5.32078 2.96213 7.31161 0.973002C7.98313 0.30148 8.82126 0.30148 9.49278 0.973002L15.6688 7.14134C15.7222 7.19476 15.7756 7.24945 15.8252 7.30668C15.9876 7.49634 16.0974 7.72537 16.1434 7.97081C16.1894 8.21625 16.1701 8.46948 16.0874 8.70511C16.0047 8.94073 15.8615 9.15048 15.6722 9.31331C15.4828 9.47614 15.254 9.58633 15.0087 9.63284C14.84 9.65621 14.6702 9.67065 14.5 9.67609V9.86177C14.5 11.3676 14.5 12.8747 14.5 14.3806C14.4913 14.732 14.3709 15.0715 14.1561 15.3499C13.9413 15.6282 13.6435 15.8309 13.3057 15.9284C13.218 15.9538 13.1315 15.9805 13.0437 15.9983Z" fill="white"/>
</svg>
