<svg width="909" height="909" viewBox="0 0 909 909" fill="none" xmlns="http://www.w3.org/2000/svg">
<g filter="url(#filter0_d)">
<rect x="3.05301" y="3.27417" width="894.301" height="893.854" fill="url(#paint0_linear)" fill-opacity="0.75"/>
</g>
<mask id="mask0" mask-type="alpha" maskUnits="userSpaceOnUse" x="81" y="42" width="799" height="853">
<rect x="81.425" y="42.5532" width="798.085" height="852.073" fill="#25B099"/>
</mask>
<g mask="url(#mask0)">
<path d="M385.823 891.958C340.983 902.61 295.079 908.032 249.014 908.117C202.948 908.032 157.044 902.61 112.204 891.958C157.046 881.317 202.949 875.901 249.014 875.816C295.078 875.901 340.981 881.317 385.823 891.958V891.958Z" fill="#CCCCCC"/>
<path d="M291.767 696.047C291.767 696.047 309.415 730.368 310.458 744.196C310.988 751.395 316.17 846.675 316.17 846.675H294.041C294.041 846.675 271.809 729.763 266.252 717.73C263.755 712.292 258.59 688.295 253.682 663.573C266.594 662.278 279.334 660.328 291.989 657.962C291.869 678.783 291.767 696.047 291.767 696.047Z" fill="#474747"/>
<path d="M235.093 664.971C234.717 683.737 234.306 699.931 233.964 701.847C233.964 701.847 241.814 725.205 244.225 737.48C245.935 746.457 237.111 857.706 237.111 857.706H214.537C214.537 857.706 206.808 720.147 203.832 711.481C202.464 707.493 199.129 687.311 196.205 664.385C209.14 665.453 222.132 665.649 235.093 664.971V664.971Z" fill="#474747"/>
<path d="M291.767 696.046C291.767 696.046 309.415 730.367 310.458 744.196C310.988 751.395 316.17 846.674 316.17 846.674H312.562C311.176 822.505 305.909 744.178 304.319 742.573C302.421 740.656 282.703 692.507 282.703 692.507C282.703 692.507 283.387 678.144 284.02 659.499C286.705 659.032 289.372 658.549 292.04 658.048C291.869 678.782 291.767 696.046 291.767 696.046Z" fill="#2C2C2C"/>
<path d="M233.964 701.83C233.964 701.83 241.814 725.188 244.225 737.463C245.935 746.44 237.111 857.689 237.111 857.689H232.032L238.753 743.868L227.415 699.292L227.671 665.248C230.151 665.248 232.63 665.075 235.11 664.954C234.717 683.72 234.306 699.914 233.964 701.83Z" fill="#2C2C2C"/>
<path d="M171.186 883.429C171.236 882.658 171.479 881.911 171.891 881.259C172.304 880.607 172.873 880.071 173.546 879.7C178.214 877.37 195.367 870.136 199.984 866.096C203.575 862.954 206.688 856.204 207.902 853.338L239.967 854.564C241.916 863.455 243.387 880.598 243.575 884.172L171.186 883.429Z" fill="#845652"/>
<path d="M171.066 891.216L243.456 891.958L243.575 884.172L171.186 883.43L171.066 891.216Z" fill="#683534"/>
<path d="M206.055 868.341C206.055 868.427 206.055 868.531 206.192 868.617C206.534 869.308 206.756 870.343 205.901 870.758C205.452 870.913 204.965 870.913 204.516 870.758C202.939 870.362 201.441 869.696 200.087 868.79C198.462 867.952 197.06 866.733 196 865.233C195.78 864.91 195.668 864.526 195.68 864.134C195.691 863.743 195.826 863.365 196.063 863.056C196.301 862.747 196.63 862.522 197.003 862.413C197.376 862.305 197.773 862.319 198.137 862.454C201.445 863.28 204.293 865.397 206.055 868.341V868.341Z" fill="#683534"/>
<path d="M200.549 872.45L200.685 872.726C201.045 873.416 201.25 874.452 200.412 874.867C199.957 875.022 199.464 875.022 199.01 874.867C197.43 874.478 195.931 873.812 194.58 872.899C192.975 872.091 191.586 870.907 190.527 869.446C189.535 867.719 190.955 866.286 192.665 866.683C195.938 867.492 198.768 869.561 200.549 872.45V872.45Z" fill="#683534"/>
<path d="M193.811 875.143C193.863 875.226 193.909 875.312 193.948 875.402C194.29 876.092 194.512 877.128 193.657 877.543C193.208 877.698 192.721 877.698 192.272 877.543C190.696 877.153 189.198 876.493 187.842 875.592C186.242 874.778 184.853 873.595 183.789 872.139C182.798 870.413 184.217 868.98 185.927 869.377C189.202 870.182 192.033 872.252 193.811 875.143V875.143Z" fill="#683534"/>
<path d="M283.883 886.106C283.404 891.026 304.507 902.04 308.355 900.59C312.203 899.14 327.525 888.954 328.876 882.428C329.338 880.374 328.551 875.954 327.166 870.896C324.362 859.899 319.18 845.777 319.18 845.777L289.612 845.466C289.612 845.466 286.328 867.15 284.67 878.872C284.362 882.325 283.986 885.001 283.883 886.106Z" fill="#845652"/>
<path d="M283.883 886.106C283.404 891.026 304.507 902.04 308.355 900.59C312.203 899.14 327.525 888.954 328.876 882.428C329.338 880.374 328.551 875.954 327.166 870.896C321.608 877.18 312.596 886.157 306.32 886.106C301.087 886.106 291.955 882.307 284.67 878.872C284.362 882.325 283.986 885.001 283.883 886.106Z" fill="#683534"/>
<path d="M309.996 856.722C308.732 857.756 307.304 858.568 305.772 859.122C304.141 859.91 302.347 860.295 300.539 860.244C300.129 860.256 299.727 860.127 299.399 859.879C299.07 859.63 298.835 859.276 298.732 858.875C298.629 858.474 298.663 858.05 298.83 857.671C298.997 857.293 299.286 856.982 299.65 856.791C302.271 854.641 305.625 853.618 308.987 853.943H309.295C310.048 854.081 311.005 854.547 310.817 855.462C310.695 855.965 310.405 856.409 309.996 856.722V856.722Z" fill="#683534"/>
<path d="M300.488 867.167C300.084 867.167 299.692 867.033 299.371 866.784C299.051 866.536 298.821 866.187 298.718 865.793C298.615 865.399 298.643 864.981 298.799 864.605C298.956 864.229 299.231 863.916 299.582 863.714C302.203 861.607 305.531 860.605 308.868 860.918H309.159C309.911 861.056 310.869 861.522 310.681 862.437C310.545 862.896 310.263 863.297 309.877 863.576C308.612 864.61 307.184 865.421 305.653 865.976C304.044 866.765 302.277 867.173 300.488 867.167V867.167Z" fill="#683534"/>
<path d="M301.309 871.207C303.933 869.061 307.285 868.039 310.646 868.358H310.954C311.689 868.496 312.664 868.962 312.459 869.877C312.326 870.338 312.043 870.74 311.655 871.017C310.391 872.051 308.963 872.862 307.431 873.417C305.799 874.203 304.006 874.587 302.198 874.539C301.824 874.51 301.469 874.365 301.18 874.123C300.892 873.882 300.684 873.556 300.587 873.19C300.489 872.825 300.506 872.438 300.636 872.083C300.765 871.727 301 871.421 301.309 871.207V871.207Z" fill="#683534"/>
<path d="M336.23 723.565C317.795 731.524 258.299 719.301 258.299 719.301L249.373 692.732L243.524 717.178C237.675 724.619 183.396 726.535 183.396 726.535L207.081 495.785C207.081 495.785 194.153 482.871 191.519 472.202C188.886 461.533 203.285 418.028 203.285 418.028V407.877L218.026 402.093L235.332 395.326L262.216 394.255L289.578 399.814C289.578 399.814 289.578 400.142 289.697 400.747C290.826 409.258 299.274 472.772 299.052 477.243C298.607 481.974 336.23 723.565 336.23 723.565Z" fill="white"/>
<path d="M289.578 400.833C289.538 403.91 288.959 406.955 287.867 409.827C285.336 414.333 273.759 422.983 273.759 422.983C273.759 422.983 276.854 425.728 275.349 431.615C273.844 437.502 252.93 452.625 252.93 452.625C252.93 452.625 231.006 441.921 231.211 440.057C231.416 438.192 234.426 429.146 234.426 429.146C234.426 429.146 225.995 428.369 222.78 425.503C220.643 423.621 218.932 410.708 218.026 402.11L235.332 395.326L262.216 394.255L289.578 399.814C289.578 399.814 289.509 400.142 289.578 400.833Z" fill="#E0E0E0"/>
<path d="M278.103 582.484L273.622 591.652L305.619 608.484L309.261 600.594L278.103 582.484Z" fill="#E0E0E0"/>
<path d="M227.586 588.872L231.297 596.416L204.927 610.279L201.934 603.788L227.586 588.872Z" fill="#E0E0E0"/>
<path d="M235.333 395.326L225.636 399.107C225.636 399.107 249.578 452.159 252.998 452.625C256.418 453.091 276.375 397.138 276.375 397.138L262.181 394.255L235.333 395.326Z" fill="#8BCCCA"/>
<path d="M248.877 683.703C248.877 683.703 242.036 623.831 241.232 613.559C240.429 603.287 248.877 548.612 248.877 548.612L246.448 616.166L248.877 683.703Z" fill="#E0E0E0"/>
<path d="M203.285 407.876C203.285 407.876 185.927 414.782 183.464 418.511C181.002 422.24 159.933 529 161.506 534.369C163.08 539.739 178.984 555.086 182.353 557.21C185.722 559.333 244.379 571.573 244.379 571.573L248.877 546.023L211.391 529.38L215.837 441.645L203.285 407.876Z" fill="white"/>
<path d="M289.458 399.797C289.458 399.797 319.077 410 321.557 413.729C324.037 417.458 344.609 529.052 343.036 534.37C341.463 539.687 325.559 555.086 322.19 557.21C318.821 559.333 260.146 571.574 260.146 571.574L255.666 546.023L293.083 529.38L288.637 441.645L289.458 399.797Z" fill="white"/>
<path d="M253.836 387.712C248.771 388.536 243.577 387.689 239.026 385.295C239.3 379.322 239.283 372.123 239.283 372.123L259.274 372.416C259.083 376.548 259.134 380.687 259.428 384.812C257.882 386.305 255.939 387.313 253.836 387.712V387.712Z" fill="#EA7C6F"/>
<path d="M257.564 400.142C259.445 398.458 261.035 396.468 262.267 394.255V394.255C260.677 392.943 259.924 389.076 259.565 384.881C258.028 386.368 256.098 387.376 254.007 387.781C248.879 388.623 243.618 387.75 239.026 385.295C238.995 387.726 238.737 390.147 238.257 392.529C237.521 393.687 236.518 394.647 235.333 395.326C238.855 398.917 242.669 402.111 247.303 403.25C250.724 404.182 254.246 402.456 257.564 400.142Z" fill="#F3A080"/>
<path d="M227.278 362.058C225.468 361.919 223.713 361.367 222.146 360.443C220.579 359.519 219.24 358.247 218.231 356.723C217.877 356.225 217.552 355.706 217.257 355.17C215.888 352.58 214.828 343.344 217.616 340.961C219.582 339.235 221.258 341.341 222.096 342.688C222.304 343.024 222.487 343.377 222.643 343.741L227.278 362.058Z" fill="#F8BF92"/>
<path d="M227.278 362.058C225.468 361.919 223.713 361.367 222.146 360.443C220.578 359.518 219.24 358.247 218.231 356.723L217.855 355.946C216.487 353.374 215.427 344.138 218.214 341.738C219.805 340.374 221.207 341.479 222.13 342.688C222.339 343.024 222.521 343.376 222.678 343.741L227.278 362.058Z" fill="#F3A080"/>
<path d="M217.308 348.385C217.245 349.147 217.35 349.913 217.616 350.629C218.676 353.668 221.292 355.809 223.772 357.863C222.975 356.392 222.563 354.74 222.575 353.064C222.608 352.489 222.608 351.912 222.575 351.337C222.421 349.041 217.838 343.862 217.308 348.385Z" fill="#EA7C6F"/>
<path d="M225.072 358.657H224.918L224.524 358.398C224.057 358.047 223.637 357.635 223.276 357.172C222.753 356.452 222.37 355.638 222.147 354.773C221.865 353.692 221.865 352.556 222.147 351.475C222.185 351.335 222.231 351.196 222.284 351.061V350.957V350.785L222.096 350.44C221.84 350.008 221.566 349.594 221.292 349.214C221.031 348.854 220.751 348.508 220.454 348.178C220.213 347.882 219.944 347.61 219.651 347.367C219.434 347.173 219.167 347.047 218.881 347.004C218.654 346.986 218.429 347.054 218.248 347.194C218.121 347.271 218.029 347.395 217.992 347.539C217.985 347.591 217.985 347.643 217.992 347.695C217.981 347.643 217.981 347.59 217.992 347.539C218.003 347.369 218.076 347.209 218.197 347.09C218.381 346.892 218.63 346.769 218.898 346.745C219.261 346.725 219.62 346.822 219.924 347.021C220.272 347.243 220.599 347.497 220.899 347.781C221.245 348.093 221.571 348.428 221.874 348.782C222.209 349.175 222.517 349.591 222.797 350.025L223.02 350.37L223.122 350.56L223.259 350.802L223.362 350.992C223.362 350.992 223.362 351.113 223.362 351.182L223.259 351.441C223.209 351.564 223.169 351.691 223.139 351.821C222.874 352.77 222.827 353.768 223.002 354.738C223.133 355.543 223.399 356.32 223.789 357.034C224.062 357.529 224.395 357.987 224.781 358.398C224.885 358.517 225 358.627 225.123 358.726L225.072 358.657Z" fill="#B54B57"/>
<path d="M273.844 358.311C275.602 357.879 277.241 357.051 278.636 355.887C280.031 354.724 281.147 353.257 281.899 351.596C282.19 350.992 282.429 350.422 282.617 349.869C283.558 347.107 283.147 337.785 280.018 335.903C277.829 334.556 276.495 336.87 275.879 338.372C275.729 338.743 275.603 339.123 275.503 339.511L273.844 358.311Z" fill="#F8BF92"/>
<path d="M273.844 358.312C275.602 357.88 277.241 357.051 278.636 355.888C280.031 354.724 281.147 353.257 281.899 351.596L282.19 350.767C283.13 348.005 282.72 338.683 279.59 336.801C277.88 335.713 276.598 337.025 275.879 338.355C275.729 338.725 275.603 339.106 275.503 339.494L273.844 358.312Z" fill="#F3A080"/>
<path d="M281.506 343.223C281.677 343.967 281.677 344.741 281.506 345.485C280.941 348.644 278.701 351.216 276.564 353.616C277.131 352.036 277.278 350.334 276.991 348.679C276.888 348.109 276.752 347.539 276.7 346.952C276.564 344.622 280.309 338.907 281.506 343.223Z" fill="#EA7C6F"/>
<path d="M275.538 354.583L275.657 354.479L276.016 354.168C276.427 353.751 276.773 353.274 277.042 352.753C277.514 351.866 277.778 350.882 277.813 349.876C277.849 348.871 277.655 347.87 277.248 346.952C277.189 346.82 277.121 346.693 277.042 346.572V346.469V346.365V346.192L277.179 345.83C277.367 345.346 277.573 344.897 277.778 344.483C277.983 344.069 278.222 343.689 278.445 343.326C278.646 343.001 278.869 342.69 279.112 342.394C279.295 342.169 279.538 342.002 279.813 341.911C280.038 341.865 280.273 341.895 280.48 341.997C280.61 342.068 280.718 342.176 280.788 342.308C280.791 342.36 280.791 342.412 280.788 342.463C280.792 342.406 280.792 342.348 280.788 342.291C280.738 342.134 280.642 341.996 280.514 341.894C280.296 341.719 280.022 341.632 279.744 341.652C279.386 341.696 279.051 341.853 278.787 342.101C278.474 342.366 278.192 342.667 277.949 342.998C277.659 343.362 277.391 343.743 277.145 344.138C276.872 344.579 276.631 345.041 276.427 345.519C276.36 345.641 276.302 345.768 276.256 345.899V346.089L276.153 346.365V346.555L276.256 346.727L276.393 346.986C276.46 347.096 276.517 347.212 276.564 347.332C276.972 348.224 277.177 349.197 277.162 350.18C277.159 351.005 277.015 351.823 276.735 352.597C276.544 353.127 276.292 353.631 275.982 354.099L275.709 354.479L275.538 354.583Z" fill="#B54B57"/>
<path d="M275.555 337.837C275.555 337.837 276.256 355.912 272.134 362.99C268.611 368.895 263.686 378.269 255.033 381.981C253.313 382.708 251.407 382.859 249.595 382.412C240.36 380.099 234.033 371.64 229.638 366.357C224.371 360.055 222.216 342.187 222.216 342.187C222.079 340.996 221.993 339.839 221.908 338.734C219.582 304.5 245.987 304.258 245.987 304.258C245.987 304.258 271.861 302.428 275.401 336.076L275.555 337.837Z" fill="#F8BF92"/>
<path d="M275.401 336.076C275.401 338.976 275.674 354.358 271.878 360.746C268.355 366.668 263.43 376.025 254.674 379.736C252.962 380.472 251.058 380.623 249.253 380.168C240.018 377.855 233.691 369.395 229.279 364.112C224.029 357.811 221.874 339.943 221.874 339.943C221.874 339.529 221.874 339.114 221.737 338.717C219.582 304.5 245.987 304.258 245.987 304.258C245.987 304.258 271.861 302.428 275.401 336.076Z" fill="#F3A080"/>
<path d="M229.518 338.061C230.243 339.166 231.315 339.993 232.562 340.409C232.753 340.114 233.005 339.865 233.3 339.677C233.595 339.489 233.926 339.368 234.272 339.321C235.982 339.2 237.573 341.376 237.692 344.172C237.812 346.969 236.649 349.352 234.922 349.49C233.195 349.628 231.622 347.453 231.502 344.639C231.45 343.797 231.53 342.952 231.741 342.135C230.674 340.986 229.91 339.586 229.518 338.061Z" fill="#1D1E1E"/>
<path d="M234.871 344.846C233.645 345.395 232.28 345.545 230.965 345.276C229.651 345.007 228.452 344.332 227.534 343.344C228.76 342.792 230.126 342.641 231.441 342.91C232.756 343.179 233.955 343.856 234.871 344.846V344.846Z" fill="white"/>
<path d="M266.645 335.074C266.088 336.253 265.154 337.207 263.994 337.785C263.76 337.511 263.468 337.295 263.139 337.151C262.81 337.008 262.454 336.941 262.096 336.956C260.386 337.094 259.154 339.494 259.411 342.308C259.668 345.122 261.241 347.263 262.968 347.107C264.695 346.952 265.91 344.552 265.67 341.756C265.613 340.939 265.416 340.139 265.089 339.39C265.949 338.102 266.484 336.62 266.645 335.074Z" fill="#1D1E1E"/>
<path d="M262.421 342.619C263.718 342.973 265.093 342.907 266.351 342.43C267.609 341.953 268.687 341.089 269.432 339.96C268.127 339.667 266.767 339.739 265.499 340.167C264.269 340.684 263.204 341.532 262.421 342.619V342.619Z" fill="white"/>
<path d="M248.894 354.634C249.58 354.601 250.262 354.759 250.865 355.091C251.468 355.423 251.97 355.916 252.314 356.516C252.411 356.657 252.453 356.829 252.434 357C252.434 357.241 252.126 357.379 251.886 357.466C250.212 358.104 248.423 358.38 246.636 358.277C243.387 358.07 247.303 354.704 248.894 354.634Z" fill="#EA7C6F"/>
<path d="M247.406 357.379V356.844C247.406 356.672 247.406 356.464 247.406 356.223C247.406 355.981 247.406 355.705 247.406 355.411C247.406 355.118 247.406 354.79 247.406 354.445C247.406 354.099 247.406 353.72 247.406 353.34C247.406 352.58 247.269 351.734 247.201 350.854C247.132 349.973 247.013 349.127 246.927 348.385C246.927 348.005 246.825 347.643 246.773 347.297C246.722 346.952 246.671 346.624 246.619 346.331C246.568 346.037 246.517 345.778 246.483 345.536C246.448 345.295 246.483 345.088 246.363 344.915V344.397L246.688 344.811C246.818 344.976 246.938 345.149 247.047 345.329C247.184 345.536 247.338 345.778 247.491 346.054C247.645 346.331 247.799 346.641 247.936 346.969C248.073 347.297 248.227 347.677 248.364 348.057C248.576 348.945 248.696 349.854 248.723 350.767C248.818 351.663 248.818 352.565 248.723 353.461C248.723 353.875 248.603 354.255 248.518 354.617C248.443 354.95 248.352 355.278 248.244 355.601C248.166 355.873 248.069 356.138 247.953 356.395C247.881 356.591 247.795 356.781 247.697 356.965C247.611 357.111 247.514 357.249 247.406 357.379V357.379Z" fill="#DD5B67"/>
<path d="M261.309 360.901C261.309 360.901 252.588 361.247 240.052 367.669C240.052 367.669 245.525 374.16 253.118 371.312C255.295 370.497 257.21 369.097 258.654 367.261C260.098 365.426 261.016 363.226 261.309 360.901V360.901Z" fill="white"/>
<path d="M274.016 353.84C274.016 353.84 274.016 353.426 274.135 352.701V352.097C274.135 351.872 274.135 351.648 274.135 351.389C274.135 351.13 274.255 350.284 274.289 349.662C274.289 349.334 274.289 349.006 274.289 348.661C274.289 348.316 274.289 347.936 274.289 347.574C274.289 346.814 274.375 346.02 274.426 345.191C274.426 343.465 274.563 341.738 274.597 339.753C274.631 337.768 274.597 336.007 274.597 334.315C274.597 333.486 274.597 332.675 274.597 331.932V330.827C274.597 330.482 274.597 330.137 274.597 329.826C274.597 329.17 274.597 328.583 274.477 328.1C274.477 327.841 274.477 327.599 274.477 327.375V326.77C274.477 326.028 274.477 325.614 274.477 325.614C274.477 325.614 274.648 325.976 274.922 326.65L275.161 327.202C275.161 327.426 275.315 327.651 275.418 327.893C275.52 328.134 275.794 328.946 275.982 329.619C276.068 329.93 276.17 330.275 276.256 330.62C276.341 330.966 276.444 331.345 276.529 331.725C276.718 332.485 276.871 333.313 277.025 334.194C277.309 336.102 277.447 338.03 277.436 339.96C277.381 341.851 277.17 343.733 276.803 345.588C276.632 346.451 276.461 347.315 276.256 348.005L275.948 349.076L275.64 350.042C275.435 350.664 275.213 351.199 275.025 351.665L274.751 352.321L274.511 352.856C274.204 353.495 274.016 353.84 274.016 353.84Z" fill="#38102B"/>
<path d="M227.329 363.077C227.329 363.077 227.124 362.731 226.799 362.093C226.474 361.454 225.995 360.539 225.465 359.365C224.935 358.191 224.371 356.741 223.755 355.118C223.158 353.338 222.65 351.529 222.233 349.697C221.837 347.856 221.541 345.994 221.344 344.121C221.156 342.394 221.087 340.806 221.053 339.477C221.019 338.148 221.053 337.094 221.053 336.352C221.053 335.61 221.053 335.213 221.053 335.213C221.053 335.213 221.173 335.592 221.361 336.3C221.549 337.008 221.84 338.027 222.165 339.287C222.49 340.547 222.866 342.015 223.276 343.672C223.687 345.329 224.097 347.125 224.525 349.024C224.952 350.923 225.311 352.753 225.619 354.41C225.927 356.068 226.235 357.604 226.457 358.882C226.679 360.159 226.867 361.212 226.987 361.937C227.107 362.662 227.329 363.077 227.329 363.077Z" fill="#38102B"/>
<path d="M234.99 355.308C234.648 356.516 231.416 356.654 227.791 355.618C224.165 354.583 221.498 352.718 221.84 351.51C222.182 350.301 225.414 350.146 229.039 351.199C232.665 352.252 235.333 354.082 234.99 355.308Z" fill="#EA7C6F"/>
<path d="M277.248 346.814C277.812 347.936 275.538 350.267 272.117 351.993C268.697 353.72 265.567 354.22 264.986 353.098C264.405 351.976 266.696 349.645 270.116 347.919C273.537 346.193 276.666 345.692 277.248 346.814Z" fill="#EA7C6F"/>
<path d="M248.774 319.347L252.553 325.148C241.985 322.713 236.256 321.022 230.459 311.768C230.594 318.613 229.267 325.407 226.567 331.687C223.866 337.967 219.857 343.586 214.811 348.161C213.973 345.312 213.101 342.377 212.588 339.442C211.015 332.001 210.672 324.44 213.853 317.621C216.13 312.762 219.97 308.825 224.747 306.451C226.337 300.905 230.022 296.211 235.008 293.382C239.85 290.876 245.316 289.867 250.724 290.482C254.503 290.847 258.18 291.924 261.566 293.658C268.447 297.582 273.666 303.914 276.239 311.457C276.881 313.323 277.389 315.233 277.761 317.172C279.625 326.045 280.805 338.786 280.805 338.786C280.805 338.786 257.718 325.873 248.774 319.347Z" fill="#38102B"/>
<path d="M222.609 331.207C222.609 331.207 236.119 325.579 239.505 329.481C241.489 331.76 239.317 332.502 239.317 332.502L222.609 331.207Z" fill="#4A0E2F"/>
<path d="M272.34 326.926C272.34 326.926 258.129 323.473 255.392 327.944C253.785 330.517 256.042 330.896 256.042 330.896L272.34 326.926Z" fill="#4A0E2F"/>
<path d="M262.267 315.652C254.234 313.593 246.476 310.561 239.163 306.623C239.281 308.568 239.626 310.492 240.189 312.355C235.698 310.817 231.395 308.766 227.363 306.244C227.235 313.25 225.219 320.09 221.532 326.028C221.593 323.852 220.997 321.708 219.822 319.882C220.13 320.365 219.36 322.834 219.257 323.438C219.018 324.681 218.761 325.907 218.471 327.133C217.556 331.397 215.723 335.405 213.101 338.872C212.947 339.045 212.81 339.235 212.656 339.442C211.516 334.657 211.227 329.706 211.801 324.82C212.147 322.326 212.862 319.9 213.922 317.62C216.196 312.804 219.992 308.887 224.713 306.485H224.815C225.581 303.525 227.015 300.783 229.005 298.475C230.709 296.416 232.772 294.689 235.093 293.382C239.91 290.893 245.345 289.885 250.724 290.482C254.503 290.847 258.18 291.924 261.566 293.658C266.534 296.395 270.641 300.487 273.417 305.467C274.542 307.369 275.487 309.375 276.239 311.457C276.881 313.323 277.389 315.233 277.761 317.172C272.551 317.389 267.337 316.877 262.267 315.652V315.652Z" fill="#4A0E2F"/>
<path d="M224.678 306.485C224.687 306.6 224.687 306.716 224.678 306.831C224.226 310.379 222.641 313.681 220.164 316.239C220.164 315.221 220.01 314.22 219.941 313.218C217.873 317.532 215.111 321.47 211.767 324.871C212.113 322.378 212.828 319.952 213.888 317.672C216.153 312.836 219.95 308.9 224.678 306.485V306.485Z" fill="#5F1234"/>
<path d="M237.145 296.42C237.35 297.778 237.573 299.142 237.812 300.512C234.794 300.269 231.827 299.583 229.005 298.475C230.709 296.416 232.772 294.689 235.093 293.382C239.91 290.893 245.345 289.885 250.724 290.482C254.503 290.847 258.18 291.924 261.566 293.658C266.534 296.395 270.641 300.487 273.417 305.467C260.984 307.038 248.039 302.981 237.145 296.42Z" fill="#5F1234"/>
<path d="M238.753 389.957L225.636 399.106L236.171 421.86L250.724 407.877L267.192 421.86L276.375 397.138L259.924 388.627C259.924 388.627 259.736 398.986 250.142 399.797C240.548 400.608 238.753 389.957 238.753 389.957Z" fill="#6BAAA7"/>
<path d="M281.78 512.928C281.438 504.503 278.103 497.787 274.34 497.943C270.578 498.098 267.791 505.055 268.133 513.48C268.125 513.641 268.125 513.803 268.133 513.964C268.577 522.164 271.861 528.603 275.555 528.448C279.249 528.293 281.882 521.853 281.78 513.86C281.797 513.566 281.797 513.256 281.78 512.928Z" fill="#526995"/>
<path d="M281.797 513.877C279.631 512.929 277.314 512.385 274.956 512.272C272.596 512.456 270.284 513.04 268.116 513.998C268.56 522.199 271.844 528.638 275.537 528.483C279.231 528.327 281.899 521.87 281.797 513.877Z" fill="white"/>
<g style="mix-blend-mode:multiply">
<path d="M276.068 498.357C275.541 498.075 274.953 497.932 274.357 497.942C270.578 498.098 267.808 505.055 268.15 513.48C268.142 513.641 268.142 513.802 268.15 513.963C268.594 522.164 271.878 528.603 275.572 528.448C276.179 528.426 276.769 528.241 277.282 527.913C274.34 526.376 271.946 520.714 271.587 513.825C271.587 513.653 271.587 513.497 271.587 513.342C271.245 506.246 273.177 500.169 276.068 498.357Z" fill="#E0E0E0"/>
</g>
<path d="M291.014 519.557C285.148 525.565 278.205 528.189 275.52 525.582C272.835 522.975 275.418 515.88 281.283 509.872L281.643 509.527C287.423 503.761 294.144 501.223 296.777 503.847C299.411 506.471 297.068 513.031 291.647 518.884L291.014 519.557Z" fill="white"/>
<path d="M291.664 518.884C289.418 518.114 287.327 516.945 285.49 515.431C283.904 513.696 282.604 511.714 281.643 509.561C287.423 503.795 294.144 501.257 296.777 503.881C299.411 506.506 297.068 513.049 291.664 518.884Z" fill="#BD4761"/>
<g style="mix-blend-mode:multiply">
<path d="M277.077 526.463C276.491 526.31 275.955 526.006 275.52 525.582C272.835 522.906 275.418 515.88 281.283 509.872L281.643 509.527C287.423 503.761 294.144 501.223 296.777 503.847C297.205 504.279 297.517 504.814 297.684 505.401C294.468 504.538 288.945 507.127 284.003 511.961L283.661 512.289C278.77 517.365 276.153 523.165 277.077 526.463Z" fill="#E0E0E0"/>
</g>
<path d="M227.876 518.798C225.499 510.701 226.508 503.26 230.134 502.207C233.759 501.154 238.684 506.799 240.976 514.896C240.976 515.051 240.976 515.207 241.096 515.362C243.302 523.269 242.259 530.433 238.701 531.504C235.144 532.574 230.613 527.309 228.15 519.713C228.047 519.402 227.962 519.108 227.876 518.798Z" fill="#F3803D"/>
<path d="M228.15 519.713C229.905 518.097 231.94 516.822 234.153 515.949C236.418 515.361 238.765 515.163 241.096 515.362C243.302 523.269 242.259 530.434 238.702 531.504C235.144 532.574 230.613 527.309 228.15 519.713Z" fill="white"/>
<g style="mix-blend-mode:multiply">
<path d="M228.629 503.156C229.032 502.704 229.554 502.375 230.134 502.207C233.759 501.119 238.684 506.799 240.976 514.896C240.976 515.051 240.976 515.207 241.096 515.362C243.302 523.269 242.259 530.434 238.702 531.504C238.139 531.64 237.554 531.64 236.991 531.504C239.3 529.087 239.745 522.872 237.881 516.294C237.849 516.137 237.809 515.981 237.761 515.828C235.692 509.043 231.912 503.933 228.629 503.156Z" fill="#E0E0E0"/>
</g>
<path d="M227.705 510.839C234.648 515.552 238.565 521.922 236.461 525.082C234.358 528.241 227.021 526.998 220.095 522.285C219.958 522.203 219.826 522.111 219.702 522.009C212.998 517.347 209.27 511.15 211.339 508.042C213.409 504.935 220.215 506.057 226.919 510.321L227.705 510.839Z" fill="white"/>
<path d="M226.919 510.321C226.578 512.694 225.819 514.985 224.678 517.088C223.292 518.987 221.611 520.648 219.702 522.009C212.998 517.347 209.27 511.15 211.339 508.042C213.409 504.935 220.215 506.143 226.919 510.321Z" fill="#BD4761"/>
<g style="mix-blend-mode:multiply">
<path d="M237.043 523.407C237.016 524.021 236.827 524.617 236.495 525.133C234.392 528.293 227.056 527.05 220.13 522.337C219.992 522.255 219.86 522.162 219.736 522.06C213.033 517.399 209.305 511.201 211.374 508.094C211.713 507.589 212.18 507.184 212.725 506.92C212.468 510.269 216.008 515.276 221.635 519.195C221.759 519.296 221.89 519.389 222.028 519.471C227.842 523.407 233.982 524.909 237.043 523.407Z" fill="#E0E0E0"/>
</g>
<path d="M258.881 519.108C251.733 514.741 247.526 508.577 249.475 505.297C251.425 502.017 258.795 502.932 265.961 507.283L266.354 507.542C273.195 511.892 277.282 517.9 275.367 521.094C273.451 524.288 266.594 523.511 259.702 519.575L258.881 519.108Z" fill="#8D964D"/>
<path d="M259.702 519.592C259.912 517.19 260.561 514.849 261.617 512.686C262.916 510.718 264.515 508.971 266.354 507.507C273.195 511.857 277.282 517.865 275.366 521.059C273.451 524.253 266.594 523.528 259.702 519.592Z" fill="white"/>
<g style="mix-blend-mode:multiply">
<path d="M249.013 507.041C249.02 506.433 249.185 505.837 249.492 505.314C251.442 502.051 258.812 502.949 265.978 507.3L266.371 507.559C273.212 511.909 277.299 517.917 275.384 521.111C275.063 521.624 274.622 522.051 274.101 522.354C274.101 519.005 270.424 514.171 264.61 510.528C264.481 510.429 264.344 510.343 264.199 510.269C258.145 506.574 251.955 505.366 249.013 507.041Z" fill="#E0E0E0"/>
</g>
<path d="M244.704 521.214C251.852 516.864 256.076 510.683 254.127 507.403C252.177 504.123 244.789 505.038 237.641 509.406C237.497 509.48 237.36 509.566 237.231 509.665C230.39 513.998 226.303 520.023 228.218 523.2C230.134 526.376 237.043 525.651 243.883 521.681L244.704 521.214Z" fill="#6BAAA7"/>
<path d="M243.883 521.681C243.665 519.281 243.016 516.941 241.968 514.775C240.674 512.798 239.068 511.049 237.214 509.596C230.373 513.929 226.286 519.954 228.201 523.131C230.117 526.307 237.043 525.651 243.883 521.681Z" fill="white"/>
<g style="mix-blend-mode:multiply">
<path d="M254.606 509.147C254.599 508.539 254.434 507.944 254.127 507.421C252.177 504.158 244.789 505.056 237.641 509.423C237.497 509.497 237.36 509.584 237.231 509.682C230.39 514.016 226.303 520.041 228.218 523.217C228.541 523.735 228.988 524.163 229.518 524.46C229.518 521.111 233.195 516.277 239.009 512.634C239.134 512.538 239.265 512.452 239.403 512.375C245.439 508.698 251.647 507.473 254.606 509.147Z" fill="#E0E0E0"/>
</g>
<path d="M212.058 517.33L217.838 571.573H292.109L297.53 514.723L212.058 517.33Z" fill="#B88B61"/>
<path d="M200.275 562.216L182.319 557.21C182.319 557.21 175.17 543.088 176.214 540.585C177.257 538.081 192.255 517.537 196.171 516.415C200.087 515.293 211.938 519.005 211.904 519.661C211.87 520.317 214.213 533.472 214.213 533.472L200.275 562.216Z" fill="#E0E0E0"/>
<path d="M209.681 557.779C209.681 557.779 200.207 561.457 198.445 560.404C196.684 559.35 189.159 549.303 189.946 546.023C190.733 542.743 201.729 525.962 203.9 526.704C206.072 527.447 216.607 535.336 216.607 535.336L209.681 557.779Z" fill="#F3A080"/>
<path d="M252.434 533.575C252.263 536.769 230.732 533.075 230.732 533.075L227.671 538.34L236.478 540.671L246.175 549.942C246.175 549.942 245.337 552.41 244.14 555.397C244.051 555.678 243.936 555.949 243.798 556.208C243.798 556.208 243.798 556.208 243.798 556.208C243.751 556.285 243.711 556.366 243.678 556.45C243.541 556.778 243.387 557.158 243.233 557.486C242.649 558.906 241.981 560.29 241.232 561.629C241.145 561.778 241.07 561.934 241.01 562.095C240.607 562.773 240.161 563.425 239.676 564.046C239.325 564.55 238.847 564.949 238.291 565.203L229.398 559.782C229.398 559.782 215.888 564.754 213.751 564.392C212.896 564.253 210.04 561.716 206.91 558.764L203.644 555.535C203.622 555.501 203.593 555.471 203.558 555.449L202.413 554.309L204.277 550.356L204.756 549.372L204.944 548.906L205.132 548.457L211.391 535.319L212.263 534.749C213.34 534.093 214.623 533.351 216.042 532.574C216.949 532.091 217.889 531.573 218.881 531.072C222.299 529.211 225.953 527.829 229.74 526.963C230.982 526.69 232.262 526.643 233.52 526.825C241.01 528.206 252.554 530.399 252.434 533.575Z" fill="#F3A080"/>
<path d="M244.14 555.466L243.678 556.606L243.456 556.433C242.241 555.466 240.583 554.171 238.753 552.825C237.191 551.642 235.532 550.597 233.793 549.7L232.836 549.251L232.083 548.958L231.416 548.699H232.152H233.024L234.17 548.802C236.339 549.133 238.398 549.986 240.172 551.288C241.73 552.432 243.074 553.847 244.14 555.466V555.466Z" fill="#B54B57"/>
<path d="M241.232 561.767L240.976 562.216L239.676 561.146C238.462 560.179 236.786 558.884 234.973 557.538C233.403 556.379 231.739 555.356 229.997 554.482L229.039 554.033L228.287 553.74L227.62 553.481H228.355H229.227L230.373 553.602C232.544 553.918 234.604 554.765 236.376 556.07C238.003 557.269 239.39 558.769 240.463 560.49C240.822 560.973 241.061 561.388 241.232 561.767Z" fill="#B54B57"/>
<path d="M306.097 560.663L324.002 555.656C324.002 555.656 331.168 541.534 330.108 539.031C329.047 536.528 314.067 515.966 310.168 514.861C306.268 513.756 294.383 517.434 294.417 518.09C294.451 518.746 292.109 531.901 292.109 531.901L306.097 560.663Z" fill="#E0E0E0"/>
<path d="M296.777 556.208C296.777 556.208 306.251 559.886 307.996 558.833C309.74 557.779 317.128 547.801 316.426 544.469C315.725 541.137 304.627 524.391 302.455 525.151C300.283 525.91 289.749 533.679 289.749 533.679L296.777 556.208Z" fill="#F3A080"/>
<path d="M253.956 532.039C254.144 535.233 275.674 531.538 275.674 531.538L278.718 536.804L269.877 539.221L260.198 548.492C260.198 548.492 261.036 550.96 262.233 553.93C262.32 554.208 262.429 554.48 262.558 554.741L262.677 555C262.797 555.328 262.951 555.691 263.105 556.019C263.696 557.441 264.364 558.83 265.106 560.179C265.106 560.317 265.277 560.49 265.345 560.628C265.743 561.315 266.189 561.973 266.679 562.596C267.025 563.104 267.505 563.505 268.064 563.753L276.957 558.332C276.957 558.332 290.45 563.304 292.587 562.924C293.442 562.786 296.315 560.266 299.428 557.296C300.522 556.243 301.634 555.121 302.711 554.068V553.982C303.07 553.602 303.464 553.222 303.857 552.859L301.993 548.889L301.514 547.905L301.309 547.439L301.121 546.99L295.067 533.765L294.178 533.213C293.118 532.557 291.835 531.815 290.398 531.021C289.509 530.554 288.552 530.019 287.577 529.536C284.162 527.664 280.508 526.276 276.717 525.41C275.469 525.145 274.185 525.098 272.921 525.272C265.362 526.635 253.819 528.828 253.956 532.039Z" fill="#F3A080"/>
<path d="M262.233 553.912C262.37 554.275 262.541 554.655 262.694 555.035L262.917 554.879C264.131 553.895 265.79 552.6 267.603 551.254C269.17 550.071 270.835 549.025 272.579 548.129L273.52 547.68L274.289 547.387L274.956 547.128H274.221H273.349L272.203 547.231C270.035 547.557 267.976 548.404 266.2 549.7C264.636 550.85 263.291 552.277 262.233 553.912V553.912Z" fill="#B54B57"/>
<path d="M265.14 560.196C265.14 560.352 265.311 560.507 265.379 560.662L266.696 559.592C267.91 558.608 269.569 557.331 271.399 555.967C272.965 554.79 274.624 553.745 276.358 552.842L277.316 552.393L278.086 552.117L278.753 551.841H278H277.128L275.982 551.944C273.82 552.272 271.768 553.119 269.997 554.413C268.334 555.655 266.923 557.208 265.841 558.988C265.533 559.419 265.311 559.851 265.14 560.196Z" fill="#B54B57"/>
<path d="M187.62 422.896C187.62 422.896 203.644 443.129 203.644 445.719C203.644 448.309 193.982 467.333 193.811 476.898C193.64 486.462 203.644 506.143 203.644 506.143C203.644 506.143 195.812 479.038 196.564 477.088C197.317 475.137 207.492 448.447 207.971 445.615C208.449 442.784 187.62 422.896 187.62 422.896Z" fill="#E0E0E0"/>
<path d="M316.478 423.432C316.478 423.432 300.454 443.665 300.454 446.324C300.454 448.982 310.116 467.938 310.287 477.502C310.458 487.067 300.454 506.73 300.454 506.73C300.454 506.73 308.286 479.626 307.534 477.675C306.782 475.724 296.589 448.982 296.076 446.151C295.563 443.32 316.478 423.432 316.478 423.432Z" fill="#E0E0E0"/>
<path d="M297.53 461.809H263.361V481.041H297.53V461.809Z" fill="#6BAAA7"/>
<path d="M278.428 465.487H266.662V477.364H278.428V465.487Z" fill="#8BCCCA"/>
<path d="M294.229 465.487H281.694V468.301H294.229V465.487Z" fill="#8BCCCA"/>
<path d="M294.229 470.01H281.694V472.824H294.229V470.01Z" fill="#8BCCCA"/>
<path d="M294.229 474.533H281.694V477.347H294.229V474.533Z" fill="#8BCCCA"/>
<path d="M282.327 455.87H278.547V463.38H282.327V455.87Z" fill="#434356"/>
<path d="M222.763 468.318H217V462.5H211.493V468.318H205.747V473.877H211.493V479.695H217V473.877H222.763V468.318Z" fill="#6BAAA7"/>
<path d="M282.635 427.178C284.685 433.706 287.253 440.056 290.313 446.168V446.168C289.116 446.013 266.748 442.888 261.344 432.547C255.769 421.912 258.778 392.08 259.907 388.662C261.036 385.244 272.374 372.071 272.374 372.071L270.664 365.286L272.254 361.834L273.81 358.381C273.81 358.381 286.072 366.305 292.382 378.183C298.693 390.06 280.394 419.046 282.635 427.178Z" fill="#38102B"/>
<path d="M282.635 427.177C284.685 433.705 287.253 440.056 290.313 446.168V446.168C289.304 445.719 273.913 438.813 271.245 435.516C268.577 432.219 269.535 401.333 269.535 395.809C269.535 390.284 279.796 377.664 277.436 372.105C275.91 368.563 274.198 365.105 272.305 361.747L272.87 360.504L273.862 358.312C273.862 358.312 286.123 366.236 292.434 378.113C298.744 389.991 280.394 419.046 282.635 427.177Z" fill="#4A0E2F"/>
<path d="M282.635 427.178C284.685 433.705 287.253 440.056 290.313 446.168C290.313 446.168 279.437 436.051 278.205 433.41C276.974 430.768 275.931 414.817 276.632 409.845C277.333 404.873 288.911 383.275 288.603 380.133C288.329 377.595 277.231 365.252 272.904 360.521L273.896 358.329C273.896 358.329 286.157 366.253 292.468 378.131C298.778 390.008 280.394 419.046 282.635 427.178Z" fill="#5F1234"/>
<path d="M334.571 304.241L298.846 329.222L338.744 325.096L334.571 304.241Z" fill="#FFB600"/>
<path d="M286.157 295.229L289.236 324.25L299.548 299.424L286.157 295.229Z" fill="#FFB600"/>
<path d="M326.243 346.9L294.537 343.051L318.462 360.418L326.243 346.9Z" fill="#FFB600"/>
<path d="M306.823 609.362C309.569 614.574 315.168 617.522 320.411 620.146C330.039 624.854 339.454 630.929 348.94 635.494L365.095 659.433L386.493 637.255L392.805 630.713L377.328 607.565C379.464 591.819 378.482 575.803 374.439 560.442C372.234 554.56 370.353 548.56 368.804 542.47C367.413 534.526 368.804 526.331 368.305 518.243C368.432 516.309 367.834 514.398 366.629 512.888C365.724 512.117 364.596 511.662 363.413 511.591C362.231 511.52 361.057 511.836 360.067 512.492C358.096 513.832 356.519 515.682 355.502 517.848L355.146 518.567C350.071 528.269 348.281 539.376 350.046 550.198C350.447 551.546 350.447 552.983 350.046 554.332C349.418 555.417 348.453 556.263 347.3 556.74C340.311 559.931 332.458 560.653 325.011 558.789C321.909 557.722 318.572 557.56 315.382 558.321C311.103 559.975 309.32 565.007 308.25 569.536C306.171 578.404 304.976 587.459 304.684 596.566C304.302 600.946 305.039 605.351 306.823 609.362V609.362Z" fill="#B77158"/>
<path d="M338.741 592.325C337.769 600.738 338.796 609.264 341.737 617.198C336.863 610.516 334.025 602.547 333.57 594.266C333.384 590.111 334.21 585.973 335.975 582.214C337.741 578.455 340.392 575.188 343.698 572.699C344.915 571.717 346.325 571.006 347.835 570.614C347.55 573.634 343.555 577.372 342.2 580.247C340.444 584.072 339.277 588.145 338.741 592.325V592.325Z" fill="#8E503D"/>
<path d="M361.351 653.682C361.351 653.682 399.367 704.004 430.678 732.759C443.552 744.585 455.285 752.745 462.774 752.241C488.38 750.444 505.569 668.706 505.569 668.706L448.652 662.776L444.694 669.389L377.328 607.565L366.629 638.297L361.351 653.682Z" fill="#B77158"/>
<path d="M365.987 530.644H319.733V589.953H365.987V530.644Z" fill="#BD4761"/>
<path d="M319.733 573.202H365.987V546.244H319.733V573.202Z" fill="white"/>
<path d="M321.088 525.576H364.632V513.031H321.088V525.576Z" fill="#444444"/>
<path d="M314.526 530.644H371.158V522.269H314.526V530.644Z" fill="#444444"/>
<path d="M306.003 612.238C318.2 617.234 333.927 613.64 333.927 613.64C335.208 610.74 336.05 607.662 336.423 604.51C336.671 603.06 336.826 601.595 336.887 600.125C337.101 596.641 337.101 593.148 336.887 589.665C336.887 588.119 336.887 586.538 336.601 584.992C336.209 580.822 335.674 576.725 335.032 572.915C334.783 571.261 334.497 569.68 334.212 568.17C333.463 564.072 332.678 560.514 332.037 557.854C331.395 555.194 330.788 552.93 330.788 552.93C318.806 551.851 301.51 560.118 301.51 560.118C299.971 564.492 299.082 569.07 298.871 573.705C298.924 586.878 301.341 599.932 306.003 612.238V612.238Z" fill="#B77158"/>
<path d="M315.347 572.375C315.347 572.375 317.023 572.627 319.519 572.879C322.623 573.2 325.744 573.32 328.863 573.238C331.002 573.238 333.071 572.951 334.89 572.735C334.64 571.081 334.355 569.5 334.069 567.99C332.288 567.614 330.469 567.445 328.649 567.487C325.27 567.647 321.963 568.529 318.949 570.075C317.668 570.707 316.46 571.479 315.347 572.375V572.375Z" fill="#8E503D"/>
<path d="M318.307 588.407C318.307 588.407 319.876 588.802 322.23 589.198C325.117 589.684 328.039 589.937 330.967 589.953C332.852 589.898 334.733 589.742 336.601 589.485C336.601 587.94 336.601 586.358 336.316 584.813C334.564 584.389 332.769 584.172 330.967 584.166C327.772 584.259 324.63 585.005 321.73 586.358C320.519 586.914 319.371 587.601 318.307 588.407V588.407Z" fill="#8E503D"/>
<path d="M316.488 603.36C317.85 603.722 319.231 604.01 320.625 604.222C323.758 604.757 326.934 604.998 330.111 604.941C332.18 604.898 334.243 604.694 336.28 604.33C336.529 602.88 336.684 601.415 336.744 599.945C334.53 599.382 332.25 599.128 329.968 599.19C326.623 599.326 323.332 600.094 320.268 601.455C318.959 601.986 317.695 602.623 316.488 603.36V603.36Z" fill="#8E503D"/>
<path d="M298.871 573.706C301.137 570.36 304.004 567.471 307.323 565.187C310.49 563.279 313.913 561.838 317.486 560.909C321.531 559.458 325.696 558.375 329.933 557.674C330.573 557.62 331.217 557.62 331.858 557.674C331.145 554.619 330.61 552.75 330.61 552.75C318.628 551.672 301.331 559.939 301.331 559.939C299.836 564.379 299.007 569.019 298.871 573.706V573.706Z" fill="#CC836D"/>
<path d="M532.423 458.863C532.423 458.863 497.83 472.45 496.119 482.407C494.407 492.363 452.575 646.744 452.575 646.744L510.312 658.966L539.662 506.921L532.423 458.863Z" fill="white"/>
<path d="M511.846 649.44L447.618 632.798L442.126 662.165L511.846 669.354V649.44Z" fill="#E0E0E0"/>
<path d="M846.215 336.58L755.561 336.508L828.847 295.855L846.215 336.58Z" fill="#FFB600"/>
<path d="M773.713 409.871L744.898 356.493L791.758 386.686L773.713 409.871Z" fill="#FFB600"/>
<path d="M781.773 273.462L731.917 317.961L752.566 259.587L781.773 273.462Z" fill="#FFB600"/>
<path d="M518.8 995.837H699.643V844.259H518.8V995.837Z" fill="#E0E0E0"/>
<path d="M784.162 1395.07L780.596 1396.44C743.537 1409.83 703.463 1412.32 665.05 1403.63L657.133 1125.02L619.011 907.845L616.835 894.186L616.265 907.917L606.172 1115.46L624.681 1409.84C621.052 1411.38 617.337 1412.7 613.554 1413.8C562.272 1428.93 496.225 1409.84 496.225 1409.84C496.225 1409.84 503.679 1151.4 502.324 1131.99C501.432 1119.49 509.741 987.821 515.697 897.062C518.907 848.141 521.439 800.587 521.439 800.587L745.076 811.118L744.399 886.17L750.069 1115.46C750.069 1115.46 788.656 1393.31 784.162 1395.07Z" fill="#434356"/>
<path d="M518.8 849.83C585.096 866.688 736.839 847.17 744.756 846.236L745.112 811.226L521.439 800.694C521.439 800.694 520.405 826.215 518.8 849.83Z" fill="#343345"/>
<path d="M624.681 1409.66C621.046 1411.19 617.332 1412.51 613.554 1413.62L592.157 1115.28L612.698 865.215L616.693 894.186L616.265 907.917L606.172 1115.46L624.681 1409.66Z" fill="#343345"/>
<path d="M784.162 1395.07L780.596 1396.44L734.913 1115.46L731.917 811.298H745.077L744.399 886.35L750.069 1115.46C750.069 1115.46 788.656 1393.31 784.162 1395.07Z" fill="#343345"/>
<path d="M677.425 432.516L705.955 440.891L715.655 828.515C715.655 828.515 645.258 839.694 613.126 839.694C580.995 839.694 527.537 828.515 527.537 828.515L558.884 450.488L597.364 441.143L677.425 432.516Z" fill="#8BCCCA"/>
<path d="M614.303 428.921C614.767 425.147 615.123 422.415 615.159 421.732C615.587 416.808 613.162 395.098 613.162 395.098L667.155 375.472C667.155 375.472 667.155 386.255 666.869 398.333C666.655 412.71 666.263 428.921 665.55 429.532L634.631 458.288L613.233 437.764L614.303 428.921Z" fill="#B77158"/>
<path d="M666.869 398.225C651.57 407.606 617.834 428.059 614.589 428.706H614.303C614.767 424.932 615.123 422.2 615.159 421.517C615.587 416.592 613.162 394.882 613.162 394.882L667.155 375.256C667.155 375.256 667.083 386.219 666.869 398.225Z" fill="#8E503D"/>
<path d="M677.96 373.891C676.299 377.388 673.858 380.451 670.828 382.841V382.841C669.484 384.028 668.079 385.144 666.62 386.184C660.45 390.569 602.963 414.939 594.154 413.717C585.345 412.495 577.036 381.834 576.68 378.599C573.969 358.866 566.551 297.796 566.551 297.796C588.769 231.479 666.406 266.417 675.072 272.995C683.738 279.572 677.96 373.891 677.96 373.891Z" fill="#B77158"/>
<path d="M670.757 382.841C669.413 384.028 668.008 385.144 666.548 386.184C660.379 390.569 602.891 414.939 594.083 413.717C585.274 412.495 577.036 381.834 576.68 378.599C582.1 392.079 588.199 410.698 594.511 410.159C603.89 409.332 663.767 386.507 670.757 382.841Z" fill="#CC836D"/>
<path d="M573.791 320.657C573.791 320.657 577.357 303.224 585.06 305.812C592.763 308.4 590.623 310.089 590.623 310.089L573.791 320.657Z" fill="#FFDDA0"/>
<path d="M657.561 307.573C657.561 307.573 634.702 288.45 628.14 297.688C624.289 303.08 628.14 305.704 628.14 305.704L657.561 307.573Z" fill="#FFDDA0"/>
<path d="M585.06 334.711C585.06 339.312 587.342 343.086 590.195 343.122C593.048 343.158 595.402 339.528 595.438 334.747C595.473 329.966 593.155 326.372 590.302 326.336C587.449 326.3 585.096 330.074 585.06 334.711Z" fill="#1D1E1E"/>
<path d="M580.602 330.613C581.884 332.183 583.524 333.417 585.381 334.208C587.288 334.944 589.344 335.203 591.372 334.963C590.091 333.393 588.451 332.16 586.594 331.368C584.692 330.612 582.631 330.352 580.602 330.613V330.613Z" fill="white"/>
<path d="M652.355 327.846C652.355 333.74 649.323 338.629 645.686 338.629C642.048 338.629 639.124 333.812 639.16 327.846C639.195 321.879 642.191 317.062 645.828 317.062C649.466 317.062 652.39 321.951 652.355 327.846Z" fill="#1D1E1E"/>
<path d="M658.025 322.706C656.403 324.743 654.308 326.348 651.927 327.379C649.49 328.287 646.871 328.583 644.295 328.241C645.937 326.209 648.041 324.606 650.429 323.569C652.855 322.666 655.461 322.37 658.025 322.706Z" fill="white"/>
<path d="M631.706 382.769C629.079 384.066 626.204 384.773 623.279 384.841C620.355 384.909 617.45 384.337 614.767 383.164C615.569 384.492 616.702 385.586 618.053 386.336C619.405 387.087 620.927 387.468 622.47 387.442C626.013 387.079 629.3 385.416 631.706 382.769V382.769Z" fill="#8E503D"/>
<path d="M585.31 360.375C584.382 362.819 579.176 363.071 573.648 360.95C568.12 358.83 564.412 355.127 565.339 352.719C566.266 350.311 571.473 350.023 577 352.144C582.528 354.265 586.237 357.967 585.31 360.375Z" fill="#CC836D"/>
<path d="M654.922 349.484C655.85 353.079 649.823 357.859 641.478 359.98C633.133 362.101 625.608 360.843 624.681 357.176C623.754 353.51 629.781 348.801 638.161 346.681C646.542 344.56 654.031 345.818 654.922 349.484Z" fill="#CC836D"/>
<path d="M644.045 366.378C644.045 366.378 643.653 366.845 643.047 367.708C642.13 369.014 641.078 370.219 639.909 371.302C636.135 374.819 631.543 377.321 626.557 378.578C621.571 379.834 616.351 379.804 611.379 378.491C609.883 378.101 608.427 377.571 607.028 376.91L605.53 376.191L607.171 376.478C608.628 376.792 610.106 376.997 611.593 377.089C616.38 377.43 621.191 377.03 625.858 375.903C630.542 374.741 635.018 372.849 639.124 370.296C640.365 369.509 641.556 368.644 642.69 367.708L644.045 366.378Z" fill="#8E503D"/>
<path d="M613.483 349.269C613.394 350.751 613.575 352.237 614.018 353.654C614.224 354.37 614.257 355.125 614.114 355.857C613.972 356.589 613.657 357.275 613.198 357.859C612.327 358.57 611.25 358.973 610.131 359.009C608.522 359.327 606.882 359.447 605.245 359.369C601.073 359.009 600.11 357.32 603.89 355.523C607.395 353.962 610.633 351.851 613.483 349.269V349.269Z" fill="#CC836D"/>
<path d="M602 322.167C603.887 334.799 602.574 347.708 598.184 359.692C600.909 360.536 603.787 360.754 606.607 360.331C609.427 359.908 612.118 358.855 614.481 357.248C610.956 358.235 607.211 358.071 603.783 356.781C606.82 345.342 606.196 333.227 602 322.167V322.167Z" fill="#8E503D"/>
<path d="M669.508 376.191C674.378 375.738 679.105 374.287 683.398 371.925C687.69 369.564 691.459 366.343 694.472 362.46C695.401 361.326 696.248 360.124 697.004 358.866C700.57 352.755 701.497 331.368 692.867 326.516C686.805 322.921 682.168 328.026 680.207 331.368C679.689 332.175 679.224 333.016 678.816 333.885L669.508 376.191Z" fill="#C7806D"/>
<path d="M669.508 376.191C674.378 375.738 679.105 374.286 683.398 371.925C687.69 369.564 691.459 366.343 694.472 362.46C694.9 361.849 695.221 361.274 695.542 360.735C698.93 354.588 700.035 333.237 691.405 328.385C689.535 327.312 687.326 327.008 685.24 327.537C683.153 328.066 681.35 329.387 680.207 331.224V331.224C679.689 332.031 679.224 332.872 678.816 333.74L669.508 376.191Z" fill="#B77158"/>
<path d="M695.613 343.194C695.941 344.929 695.781 346.722 695.149 348.37C692.76 355.559 685.592 360.951 678.78 365.983C680.796 362.616 681.66 358.677 681.241 354.768C681.028 353.447 680.885 352.115 680.813 350.778C680.778 345.423 693.081 333.094 695.613 343.194Z" fill="#CC836D"/>
<path d="M675.321 368.031L675.713 367.78C676.094 367.585 676.463 367.369 676.819 367.133C678.149 366.309 679.351 365.292 680.385 364.114C681.743 362.468 682.696 360.522 683.167 358.434C683.727 355.899 683.452 353.249 682.382 350.886C682.237 350.563 682.07 350.251 681.883 349.951V349.7V349.484L682.133 349.089C682.133 348.801 682.454 348.55 682.596 348.298C683.228 347.275 683.918 346.291 684.665 345.351C685.347 344.464 686.085 343.624 686.876 342.834C687.555 342.115 688.282 341.442 689.051 340.822C689.695 340.316 690.456 339.982 691.262 339.851C691.898 339.79 692.538 339.901 693.117 340.175C693.47 340.339 693.758 340.617 693.937 340.965C693.937 341.181 693.937 341.325 693.937 341.325C693.969 341.195 693.969 341.059 693.937 340.929C693.895 340.73 693.813 340.541 693.697 340.374C693.58 340.207 693.431 340.066 693.259 339.959C692.634 339.507 691.888 339.257 691.119 339.24C690.093 339.273 689.089 339.557 688.195 340.067C687.251 340.624 686.357 341.261 685.52 341.972C684.589 342.728 683.708 343.544 682.881 344.416C682.007 345.366 681.196 346.375 680.456 347.435C680.246 347.696 680.055 347.973 679.886 348.262L679.636 348.693L679.28 349.304L679.03 349.736L679.28 350.131L679.601 350.742C679.771 351.002 679.914 351.279 680.028 351.569C680.992 353.655 681.362 355.969 681.098 358.255C680.848 360.171 680.218 362.017 679.244 363.682C678.532 364.88 677.669 365.979 676.676 366.953C676.32 367.349 675.963 367.564 675.749 367.78L675.321 368.031Z" fill="#8E503D"/>
<path d="M695.328 311.419C694.186 319.543 692.974 326.228 692.974 326.228C692.974 326.228 674.929 344.74 670.114 356.997C672.19 340.111 671.781 323.009 668.902 306.243C662.977 304.216 657.782 300.464 653.973 295.46C650.164 290.457 647.913 284.427 647.505 278.135C644.636 282.495 640.589 285.937 635.843 288.055C637.078 286.182 637.882 284.055 638.197 281.829C638.511 279.602 638.329 277.333 637.662 275.187C634.73 281.097 630.47 286.236 625.219 290.192C619.969 294.149 613.874 296.814 607.42 297.976C610.344 293.183 613.245 288.499 616.122 283.922C603.819 294.621 588.977 301.927 573.042 305.129C566.159 306.459 558.135 306.782 553 301.93C551.39 300.287 550.155 298.31 549.379 296.138C548.603 293.966 548.305 291.649 548.506 289.349C548.706 285.543 549.588 281.804 551.109 278.314C554.107 271.296 558.502 264.972 564.023 259.735C569.544 254.498 576.073 250.46 583.205 247.869C580.923 243.233 577.036 238.057 574.682 233.42C581.129 237.249 588.785 238.445 596.08 236.763C603.212 235.576 610.344 233.168 617.477 231.838C627.777 230.401 638.27 231.828 647.823 235.965C657.377 240.102 665.627 246.791 671.684 255.31C675.751 255.389 679.74 256.453 683.315 258.411C686.89 260.369 689.946 263.164 692.225 266.56C695.891 273.585 697.674 281.453 697.396 289.385C697.19 296.768 696.499 304.129 695.328 311.419V311.419Z" fill="#EFCA8F"/>
<path d="M696.933 298.695C696.54 302.828 695.934 307.321 695.328 311.419C690.766 315.583 687.121 320.664 684.629 326.336C685.125 319.363 684.19 312.363 681.883 305.771C679.576 299.178 675.946 293.136 671.22 288.019C670.828 292.44 670.436 296.862 670.079 301.283C658.791 288.377 651.621 272.345 649.502 255.274L639.089 268.753C640.343 263.348 640.083 257.699 638.34 252.434C633.968 261.265 627.284 268.722 619.011 274.001C619.189 268.861 619.403 263.757 619.617 258.617C610.301 272.16 596.774 282.189 581.173 287.121C570.565 290.388 559.359 291.187 548.399 289.457C548.6 285.651 549.482 281.912 551.003 278.422C551.784 276.542 552.689 274.717 553.713 272.959C560.264 261.345 570.727 252.482 583.206 247.977C580.923 243.233 577.036 238.057 574.682 233.42C581.129 237.249 588.786 238.445 596.08 236.763C603.212 235.576 610.345 233.168 617.477 231.838C627.777 230.401 638.27 231.828 647.824 235.965C657.377 240.102 665.628 246.791 671.684 255.31C675.752 255.389 679.741 256.453 683.316 258.411C686.89 260.369 689.946 263.164 692.225 266.56C695.891 273.585 697.674 281.453 697.396 289.385C697.408 292.495 697.254 295.602 696.933 298.695V298.695Z" fill="#FFDDA0"/>
<path d="M696.933 298.695L695.72 300.6C688.262 287.132 677.397 275.895 664.23 268.034C663.66 272.491 663.089 276.877 662.518 281.298C658.952 266.596 655.386 251.284 645.436 239.746C644.83 243.017 644.224 246.324 643.653 249.595C636.798 244.042 628.149 241.239 619.367 241.723C618.832 245.605 618.262 249.199 617.762 253.009C613.844 250.219 609.403 248.263 604.71 247.258C602.971 253.36 599.792 258.948 595.445 263.542C591.098 268.136 585.711 271.602 579.746 273.642C571.287 276.332 562.173 276.053 553.891 272.851C560.442 261.237 570.905 252.374 583.384 247.869C580.923 243.233 577.036 238.057 574.682 233.42C581.129 237.249 588.785 238.445 596.08 236.763C603.212 235.576 610.345 233.168 617.477 231.838C627.777 230.401 638.27 231.828 647.824 235.965C657.377 240.102 665.628 246.791 671.684 255.31C675.751 255.389 679.741 256.453 683.315 258.411C686.89 260.369 689.946 263.164 692.225 266.56C695.891 273.585 697.674 281.453 697.396 289.385C697.408 292.495 697.253 295.602 696.933 298.695V298.695Z" fill="#FEEAAF"/>
<path d="M665.55 429.425C665.55 429.425 636.271 457.497 634.631 458.18C632.99 458.863 613.233 437.656 613.233 437.656L597.471 441.251L595.188 476.081L624.717 487.619L635.415 471.048L649.431 489.308L674.608 468.245L682.204 434.205L665.55 429.425Z" fill="#6BAAA7"/>
<path d="M481.889 1016.79H538.556C552.215 989.223 567.728 832.469 579.461 688.044C588.484 576.904 595.295 472.989 597.292 440.999C592.906 442.041 587.842 443.227 582.564 444.593L565.981 448.655C560.845 449.985 555.817 451.279 551.252 452.537C544.776 454.147 538.452 456.323 532.351 459.043C532.351 459.043 512.844 552.965 507.816 583.015C502.787 613.064 481.889 1016.79 481.889 1016.79Z" fill="white"/>
<path d="M538.45 601.455C538.45 612.238 564.02 660.224 579.461 688.224C588.484 577.084 595.295 473.169 597.292 441.178C592.906 442.221 587.842 443.407 582.564 444.773L565.981 448.835C560.097 479.244 548.899 536.755 548.506 541.068C548.007 546.963 569.904 564.396 569.904 564.396C569.904 564.396 538.45 585.998 538.45 601.455Z" fill="#E0E0E0"/>
<path d="M505.426 624.207H576.68V584.165H505.426V624.207Z" fill="#6BAAA7"/>
<path d="M545.261 616.551H569.797V591.821H545.261V616.551Z" fill="#8BCCCA"/>
<path d="M512.309 597.716H538.45V591.857H512.309V597.716Z" fill="#8BCCCA"/>
<path d="M512.309 607.134H538.45V601.275H512.309V607.134Z" fill="#8BCCCA"/>
<path d="M512.309 616.587H538.45V610.728H512.309V616.587Z" fill="#8BCCCA"/>
<path d="M537.094 587.472H544.976V571.836H537.094V587.472Z" fill="#434356"/>
<path d="M672.789 657.564C672.789 670.288 672.789 683.228 673.075 696.168C674.394 852.023 678.353 1016.79 678.353 1016.79H764.477C764.477 1016.79 754.135 601.275 751.532 579.097C748.928 556.919 731.917 447.505 731.917 447.505L722.324 444.845L708.523 441.25L703.601 439.705L695.114 437.404L677.283 432.552C673.075 461.056 672.183 553.972 672.789 657.564Z" fill="white"/>
<path d="M672.789 657.564C683.024 628.808 703.602 571.01 703.352 567.487C703.138 562.778 687.304 538.264 687.304 538.264C687.304 538.264 711.697 520.58 709.807 511.594C708.345 504.405 704.921 457.677 703.602 439.705L695.114 437.404L677.283 432.552C673.075 461.056 672.183 553.972 672.789 657.564Z" fill="#E0E0E0"/>
<path d="M704.743 586.071H716.761V573.957H728.244V586.071H740.262V597.645H728.244V609.758H716.761V597.645H704.743V586.071Z" fill="#6BAAA7"/>
<path d="M731.917 447.505C731.917 447.505 774.141 462.134 791.758 489.056C809.376 515.979 863.511 662.021 863.511 662.021L768.328 688.045L742.224 624.243L731.917 447.505Z" fill="white"/>
<path d="M792.721 839.874C792.721 839.874 855.843 738.834 858.019 728.877C858.946 724.672 842.292 657.6 842.292 657.6L784.519 679.705L797.714 717.806L766.724 806.338L792.721 839.874Z" fill="#B77158"/>
<path d="M863.511 631.792C863.511 631.792 875.066 663.89 875.066 668.85C875.066 673.811 771.93 701.488 768.328 698.72C764.727 695.952 754.456 680.748 758.2 676.614C761.945 672.481 863.511 631.792 863.511 631.792Z" fill="#E0E0E0"/>
<path d="M761.98 484.06C761.98 484.06 744.149 530.536 744.898 543.8C745.647 557.063 753.421 640.095 753.421 640.095L750.996 541.607L761.98 484.06Z" fill="#E0E0E0"/>
<path d="M657.49 763.564L825.709 855.941L755.276 966.83L580.531 893.791L657.49 763.564Z" fill="#B88B61"/>
<path d="M632.241 794.009L644.723 801.198L612.912 858.349L598.647 851.771L610.273 832.865C610.273 832.865 602.428 824.382 606.707 817.229C610.987 810.076 624.003 808.279 624.003 808.279L632.241 794.009Z" fill="#9B704C"/>
<path d="M727.923 790.953C725.481 790.581 722.993 790.654 720.577 791.169C706.062 794.763 683.916 800.515 684.593 806.661C685.271 812.808 726.639 803.067 726.639 803.067L733.237 812.88L716.368 818.667L698.751 837.861C698.751 837.861 700.677 842.534 703.387 848.141C703.601 848.673 703.851 849.19 704.136 849.687V849.687L704.386 850.154C704.671 850.801 705.028 851.484 705.349 852.095C706.672 854.772 708.136 857.376 709.735 859.895C709.947 860.16 710.126 860.45 710.27 860.757C711.136 862.012 712.077 863.212 713.087 864.352C713.845 865.258 714.812 865.962 715.905 866.401L732.488 854.755C732.488 854.755 759.306 862.698 763.407 861.692C765.047 861.297 793.934 838.544 793.934 838.544L776.459 801.449L766.723 806.338C766.046 806.014 734.449 791.708 727.923 790.953Z" fill="#B77158"/>
<path d="M703.387 848.033L704.422 850.154L704.814 849.794C707.061 847.746 710.128 845.05 713.48 842.21C716.355 839.708 719.446 837.471 722.716 835.524L724.535 834.518L725.962 833.871L727.21 833.296H725.783H724.071L721.86 833.655C717.704 834.555 713.826 836.454 710.555 839.191C707.651 841.673 705.221 844.67 703.387 848.033V848.033Z" fill="#8E503D"/>
<path d="M709.807 859.859L710.341 860.686L712.766 858.457C714.978 856.408 718.045 853.712 721.432 850.837C724.326 848.359 727.415 846.123 730.669 844.151L732.488 843.181L733.914 842.534L735.162 841.923H732.024L729.813 842.282C725.655 843.196 721.777 845.107 718.508 847.853C715.429 850.459 712.885 853.646 711.019 857.235C710.567 858.086 710.162 858.962 709.807 859.859V859.859Z" fill="#8E503D"/>
</g>
<defs>
<filter id="filter0_d" x="0.053009" y="0.27417" width="908.301" height="907.854" filterUnits="userSpaceOnUse" color-interpolation-filters="sRGB">
<feFlood flood-opacity="0" result="BackgroundImageFix"/>
<feColorMatrix in="SourceAlpha" type="matrix" values="0 0 0 0 0 0 0 0 0 0 0 0 0 0 0 0 0 0 127 0"/>
<feMorphology radius="1" operator="dilate" in="SourceAlpha" result="effect1_dropShadow"/>
<feOffset dx="4" dy="4"/>
<feGaussianBlur stdDeviation="3"/>
<feColorMatrix type="matrix" values="0 0 0 0 0 0 0 0 0 0 0 0 0 0 0 0 0 0 0.15 0"/>
<feBlend mode="normal" in2="BackgroundImageFix" result="effect1_dropShadow"/>
<feBlend mode="normal" in="SourceGraphic" in2="effect1_dropShadow" result="shape"/>
</filter>
<linearGradient id="paint0_linear" x1="450.203" y1="3.27417" x2="450.203" y2="897.128" gradientUnits="userSpaceOnUse">
<stop stop-color="#38C6AE"/>
<stop offset="0.71875" stop-color="#25B099"/>
<stop offset="1" stop-color="#017663"/>
</linearGradient>
</defs>
</svg>
