<svg width="38" height="38" viewBox="0 0 38 38" fill="none" xmlns="http://www.w3.org/2000/svg">
<rect x="11.8304" y="11.6445" width="15.1438" height="15.144" fill="white"/>
<circle cx="19.4024" cy="19.2165" r="18.413" fill="#38C6AE"/>
<path d="M13.69 9.44751C14.078 9.51012 14.4441 9.66893 14.755 9.90944C14.8031 9.95114 14.8544 9.98963 14.8993 10.0345C15.7676 10.9007 16.6358 11.7684 17.5041 12.6377C18.2178 13.3579 18.2948 14.3908 17.6965 15.1414C17.507 15.3827 17.2528 15.5652 16.9636 15.6675C16.702 15.7483 16.4607 15.8839 16.2558 16.0653C16.0508 16.2468 15.8869 16.4699 15.7751 16.7197C15.6197 17.0638 15.5907 17.4517 15.6933 17.8151C15.9483 18.7775 16.4744 19.5987 17.1191 20.3461C17.8913 21.2801 18.8458 22.0469 19.9244 22.5996C20.3173 22.7937 20.7263 22.9733 21.1738 22.9525C22.0079 22.9172 22.6366 22.5306 22.9045 21.7271C23.0111 21.434 23.1909 21.1731 23.4268 20.9691C23.6628 20.7652 23.9469 20.6249 24.2523 20.5618C24.5577 20.4986 24.8742 20.5146 25.1717 20.6082C25.4692 20.7019 25.7377 20.87 25.9519 21.0967C26.8308 21.981 27.7119 22.8621 28.5951 23.74C28.9529 24.1036 29.1534 24.5932 29.1534 25.1033C29.1534 25.6134 28.9529 26.103 28.5951 26.4666C28.0145 27.0729 27.4098 27.6551 26.8164 28.2502C26.3128 28.7554 25.6808 28.9527 24.9895 28.9816C24.0272 29.0217 23.1162 28.7747 22.226 28.4346C20.7973 27.868 19.453 27.1081 18.2306 26.1763C15.9062 24.4665 13.8734 22.3921 12.2112 20.0333C11.3171 18.8055 10.6051 17.455 10.0972 16.0236C9.90233 15.4509 9.76689 14.8597 9.69301 14.2593C9.69301 14.2143 9.71707 14.1534 9.65131 14.1261V13.9497C9.68342 13.8507 9.68342 13.744 9.65131 13.645V13.4573C9.67348 13.123 9.74314 12.7936 9.85821 12.4789C9.9714 12.2095 10.1347 11.9641 10.3394 11.7555C10.8847 11.2118 11.4333 10.6793 11.9658 10.126C12.3282 9.74905 12.7212 9.45553 13.2697 9.44751H13.69Z" fill="white"/>
</svg>
