<svg xmlns="http://www.w3.org/2000/svg" viewBox="0 0 121.66 121.79"><g id="Layer_2" data-name="Layer 2"><g id="Layer_1-2" data-name="Layer 1"><path d="M25.22,0a14.67,14.67,0,0,1,6.64,2.88c.3.26.62.5.9.78Q40.88,11.76,49,19.89c4.45,4.49,4.93,10.93,1.2,15.61a10.09,10.09,0,0,1-4.57,3.28,12,12,0,0,0-7.41,6.56,10,10,0,0,0-.51,6.83c1.59,6,4.87,11.12,8.89,15.78A55.58,55.58,0,0,0,64.09,82c2.45,1.21,5,2.33,7.79,2.2,5.2-.22,9.12-2.63,10.79-7.64a11.4,11.4,0,0,1,19-3.93q8.22,8.27,16.48,16.48a12.12,12.12,0,0,1,0,17c-3.62,3.78-7.39,7.41-11.09,11.12-3.14,3.15-7.08,4.38-11.39,4.56-6,.25-11.68-1.29-17.23-3.41a104.87,104.87,0,0,1-24.91-14.08A166.89,166.89,0,0,1,16,66a98.33,98.33,0,0,1-13.18-25,55,55,0,0,1-2.52-11c0-.28.15-.66-.26-.83V28.07a3.08,3.08,0,0,0,0-1.9V25A22,22,0,0,1,1.33,18.9a14.4,14.4,0,0,1,3-4.51C7.73,11,11.15,7.68,14.47,4.23,16.73,1.88,19.18.05,22.6,0Z"/></g></g></svg>