<svg width="38" height="38" viewBox="0 0 38 38" fill="none" xmlns="http://www.w3.org/2000/svg">
<rect x="11.8304" y="11.4968" width="15.1438" height="15.144" fill="white"/>
<circle cx="19.4024" cy="19.0688" r="18.413" fill="#38C6AE"/>
<path d="M9.57062 19.3322C9.60655 19.1703 9.63961 19.0084 9.67986 18.8494C9.87012 18.0418 10.3258 17.3223 10.9733 16.8074C11.6207 16.2926 12.422 16.0124 13.2474 16.0123C14.0725 16.0022 14.8975 16.0123 15.7226 16.0123H15.9741C16.0064 16.9436 16.3934 17.8269 17.055 18.4794C14.7035 19.3885 13.7677 21.146 13.956 23.616C12.4644 23.5213 10.9907 23.2363 9.57062 22.7677L9.57062 19.3322Z" fill="white"/>
<path d="M24.4574 23.9675C24.4574 24.4951 24.4574 25.0226 24.4574 25.5487C24.4635 25.5983 24.4526 25.6486 24.4265 25.6912C24.4004 25.7338 24.3606 25.7661 24.3137 25.7828C23.5684 26.1236 22.7785 26.3553 21.9679 26.4708C19.5977 26.8509 17.2821 26.5676 15.001 25.8782C14.6315 25.7655 14.6301 25.7669 14.6301 25.3868C14.6301 24.4546 14.6186 23.5224 14.6301 22.5901C14.6524 21.6679 15.0201 20.7882 15.6597 20.1268C16.2993 19.4655 17.1636 19.0713 18.0798 19.0231C19.086 18.9783 20.0921 18.9856 21.1083 19.0231C22.5457 19.0838 23.9385 20.2647 24.2935 21.6839C24.3747 22.0596 24.4228 22.4416 24.4373 22.8257C24.4775 23.2073 24.4574 23.5888 24.4574 23.9675Z" fill="white"/>
<path d="M22.0757 18.5142C22.323 18.1197 22.609 17.7569 22.7944 17.3464C22.9798 16.936 23.0474 16.4792 23.1753 16.0095H23.3104C24.0291 16.0095 24.7478 16.0095 25.4665 16.0095C27.6225 16.0095 29.2295 17.6384 29.2324 19.8092C29.2324 20.7227 29.2324 21.6361 29.2324 22.5553C29.2388 22.6078 29.227 22.6609 29.199 22.7057C29.171 22.7504 29.1284 22.7841 29.0786 22.801C28.2076 23.1906 27.2812 23.4403 26.3332 23.541C25.948 23.5887 25.5614 23.6147 25.1373 23.6537C25.1373 23.2534 25.1632 22.8805 25.1373 22.5119C24.9821 20.5608 23.9774 19.2456 22.162 18.5489L22.0757 18.5142Z" fill="white"/>
<path d="M16.664 15.8983C16.6657 15.3266 16.8359 14.7683 17.1531 14.294C17.4704 13.8196 17.9204 13.4505 18.4462 13.2332C18.9721 13.016 19.5502 12.9604 20.1074 13.0735C20.6647 13.1866 21.1761 13.4633 21.577 13.8686C21.9779 14.2739 22.2503 14.7897 22.3597 15.3507C22.4691 15.9116 22.4106 16.4926 22.1917 17.0201C21.9728 17.5477 21.6032 17.9981 21.1297 18.3145C20.6562 18.6309 20.1 18.799 19.5315 18.7976C19.1539 18.7966 18.7801 18.7209 18.4316 18.5746C18.0831 18.4284 17.7666 18.2145 17.5004 17.9453C17.2341 17.6761 17.0231 17.3567 16.8796 17.0055C16.7361 16.6542 16.6628 16.278 16.664 15.8983V15.8983Z" fill="white"/>
<path d="M14.4849 10.0174C15.2436 10.0174 15.9716 10.319 16.5101 10.8564C17.0486 11.3938 17.354 12.1235 17.3597 12.8864C17.364 12.9429 17.3545 12.9996 17.332 13.0515C17.3094 13.1034 17.2745 13.1489 17.2303 13.1841C16.6178 13.7005 16.1981 14.411 16.0402 15.1988C16.0132 15.2991 15.9482 15.3848 15.8591 15.4373C14.8529 15.9721 13.8467 15.9504 12.901 15.3246C11.9552 14.6988 11.5268 13.7853 11.6073 12.6566C11.6675 11.9328 11.9975 11.2587 12.5311 10.7692C13.0648 10.2798 13.7627 10.0113 14.4849 10.0174V10.0174Z" fill="white"/>
<path d="M24.3208 10.0174C24.7424 10.0214 25.1579 10.1187 25.5379 10.3022C25.9179 10.4858 26.2532 10.7511 26.5198 11.0794C26.7865 11.4078 26.9781 11.7911 27.081 12.2022C27.1839 12.6132 27.1956 13.042 27.1154 13.4582C27.0351 13.8744 26.8648 14.2677 26.6165 14.6103C26.3682 14.9528 26.048 15.2363 25.6786 15.4406C25.3093 15.6449 24.8997 15.765 24.479 15.7924C24.0583 15.8198 23.6367 15.7538 23.2442 15.5991C23.1964 15.5862 23.1538 15.5587 23.1221 15.5204C23.0905 15.4821 23.0714 15.4349 23.0674 15.3852C22.9982 14.8936 22.8262 14.4224 22.5629 14.0024C22.2996 13.5824 21.9508 13.2232 21.5395 12.9484C21.4977 12.9212 21.4655 12.8814 21.4474 12.8347C21.4293 12.788 21.4264 12.7368 21.4389 12.6883C21.4942 11.9591 21.8222 11.2781 22.357 10.7825C22.8918 10.2868 23.5935 10.0134 24.3208 10.0174V10.0174Z" fill="white"/>
</svg>
