<svg xmlns="http://www.w3.org/2000/svg" viewBox="0 0 111.82 134.13"><g id="Layer_2" data-name="Layer 2"><g id="Layer_1-2" data-name="Layer 1"><path d="M20.68,134.13c-1.53-.31-3.07-.54-4.57-1-9.56-2.7-15.6-10.07-16-20.1-.44-10.37.7-20.59,4.64-30.29,2.54-6.27,6.24-11.69,12.43-15a24.47,24.47,0,0,1,12.2-2.93,9.38,9.38,0,0,1,4,1.38c2,1.08,3.84,2.43,5.76,3.62q16.83,10.4,33.66,0c1.56-1,3.14-1.89,4.61-3,2.68-2,5.63-2.26,8.82-1.79,8.7,1.28,14.84,6,19,13.64,3.7,6.79,5.36,14.16,6.1,21.76a107.37,107.37,0,0,1,.51,11.76c-.14,11.7-8.17,20.41-19.81,21.69a5.41,5.41,0,0,0-.85.24Z"/><path d="M87.41,32.25A32.33,32.33,0,1,1,54.94,0,32.42,32.42,0,0,1,87.41,32.25Z"/></g></g></svg>