<svg width="38" height="38" viewBox="0 0 38 38" fill="none" xmlns="http://www.w3.org/2000/svg">
<rect x="11.8304" y="11.3318" width="15.1438" height="15.144" fill="white"/>
<circle cx="19.4024" cy="18.9037" r="18.413" fill="#38C6AE"/>
<path d="M20.0589 9.77808C20.4573 10.0793 20.8506 10.3684 21.2558 10.6576C24.0599 12.6717 26.8646 14.6837 29.6699 16.6938C29.7109 16.7239 29.7485 16.757 29.8049 16.8037L20.0282 23.8429V19.4754C19.4998 19.5387 19.0023 19.5733 18.5013 19.6637C14.9483 20.3203 12.2912 22.0372 10.6105 24.8715C10.0856 25.7571 9.69742 26.7044 9.24261 27.6231C9.17855 27.7642 9.10074 27.9003 9.01008 28.0297C9.01008 27.9875 8.99982 27.9453 8.99982 27.9032C8.99982 26.6983 8.99982 25.5041 8.99982 24.3038C9.01434 21.919 9.97332 19.6134 11.7113 17.7848C13.4493 15.9562 15.8574 14.7192 18.5201 14.2871C18.9458 14.2194 19.375 14.1892 19.8093 14.1365L20.0179 14.1154V9.77808H20.0589Z" fill="white"/>
</svg>
