<svg width="147" height="147" viewBox="0 0 147 147" fill="none" xmlns="http://www.w3.org/2000/svg">
<g clip-path="url(#clip0)">
<path d="M77.7935 146.999H69.167C68.8039 146.895 68.434 146.817 68.0599 146.766C57.7547 146.068 47.9924 143.354 38.9668 138.372C18.2739 126.943 5.61085 109.569 1.1574 86.3028C0.62183 83.5059 0.377412 80.6516 0 77.8224V69.1945C0.107337 68.7879 0.188972 68.3748 0.244419 67.9579C0.963298 57.7016 3.60877 47.9486 8.63733 39.0008C22.1702 14.9292 42.8272 1.86523 70.4106 0.139672C82.1772 -0.66211 93.945 1.68558 104.503 6.94127C130.696 19.9657 144.933 41.2225 146.849 70.4168C147.726 83.772 144.732 96.516 138.222 108.232C126.778 128.867 109.385 141.474 86.1433 145.863C83.39 146.381 80.5828 146.629 77.7935 146.999ZM73.5485 137.218C108.659 137.146 137.302 108.433 137.191 73.4186C137.079 38.3357 108.529 9.82439 73.4982 9.81361C38.4672 9.80282 9.75519 38.4867 9.78394 73.5408C9.8127 108.595 38.5139 137.29 73.5485 137.218Z" fill="#25B099"/>
<path d="M72.7722 41.3416C76.3048 41.2681 79.8037 42.041 82.9767 43.5956C90.4638 47.3056 92.6061 55.8866 87.7033 63.0621C86.3195 65.0896 84.4899 66.8224 82.8006 68.6342C82.0544 69.3759 81.253 70.0597 80.4031 70.6798C77.7361 72.7648 76.2911 75.479 76.478 78.869C76.7404 83.5424 74.1165 84.078 70.2597 83.7617C68.4086 83.6107 67.413 82.5718 67.1901 80.706C66.4712 74.5551 68.0312 69.2562 73.0741 65.2874C74.3501 64.2808 75.716 63.3497 76.8087 62.167C77.9347 61.0153 78.8528 59.6775 79.5225 58.2126C80.6475 55.484 79.3751 52.777 76.7117 51.5476C72.3984 49.5668 67.5963 50.7998 64.9113 54.6644C63.0745 57.303 61.6116 57.623 58.941 56.487C56.6873 55.5272 55.8678 53.0107 56.7376 50.3756C57.8159 47.1402 60.102 44.9832 63.0278 43.4554C66.0339 41.907 69.3948 41.1779 72.7722 41.3416V41.3416Z" fill="#25B099"/>
<path d="M71.6794 102.294C69.995 102.301 68.3765 101.639 67.18 100.453C65.9835 99.2674 65.307 97.6548 65.2994 95.97C65.2918 94.2853 65.9536 92.6666 67.1393 91.4699C68.325 90.2732 69.9374 89.5967 71.6219 89.5891C73.2867 89.6123 74.8785 90.2765 76.0661 91.4435C77.2537 92.6106 77.9458 94.1906 77.9984 95.855C78.0846 99.2882 75.166 102.265 71.6794 102.294Z" fill="#25B099"/>
</g>
<defs>
<clipPath id="clip0">
<rect width="147" height="147" fill="white"/>
</clipPath>
</defs>
</svg>
