<svg width="38" height="38" viewBox="0 0 38 38" fill="none" xmlns="http://www.w3.org/2000/svg">
<rect x="11.8304" y="11.6619" width="15.1438" height="15.144" fill="white"/>
<circle cx="19.4024" cy="19.2338" r="18.413" fill="#38C6AE"/>
<path d="M24.0437 26.9983H21.2533C20.985 26.8978 20.8896 26.7007 20.8909 26.4196C20.8985 25.2636 20.8909 24.1075 20.8909 22.9514C20.8909 22.435 20.578 22.1247 20.0591 22.1222H18.7746C18.2137 22.1222 17.911 22.4236 17.911 22.9806C17.911 24.1253 17.911 25.2699 17.911 26.4146C17.911 26.6944 17.8194 26.894 17.5498 26.9945H14.762C14.7492 26.9869 14.7365 26.9742 14.7225 26.9729C14.3125 26.9064 13.9411 26.692 13.6784 26.3703C13.4157 26.0485 13.28 25.6417 13.2968 25.2267C13.3172 23.7666 13.2968 22.3015 13.2968 20.8452V20.6799C13.2814 20.6729 13.2651 20.6678 13.2485 20.6646C13.1734 20.6646 13.0971 20.6646 13.0208 20.6646C12.7642 20.6602 12.5136 20.5853 12.2967 20.448C12.0798 20.3107 11.9048 20.1164 11.791 19.8863C11.7289 19.7436 11.6775 19.5965 11.6371 19.4462V19.0214C11.7287 18.5674 12.0186 18.2507 12.3366 17.9366C14.3291 15.95 16.3208 13.9621 18.3116 11.973C18.9831 11.3015 19.8213 11.3015 20.4928 11.973L26.6688 18.1413C26.7222 18.1948 26.7756 18.2494 26.8252 18.3067C26.9876 18.4963 27.0974 18.7254 27.1434 18.9708C27.1894 19.2163 27.1701 19.4695 27.0874 19.7051C27.0047 19.9407 26.8615 20.1505 26.6722 20.3133C26.4828 20.4761 26.254 20.5863 26.0087 20.6328C25.84 20.6562 25.6702 20.6706 25.5 20.6761V20.8618C25.5 22.3676 25.5 23.8747 25.5 25.3806C25.4913 25.732 25.3709 26.0715 25.1561 26.3499C24.9414 26.6282 24.6435 26.8309 24.3057 26.9284C24.218 26.9538 24.1315 26.9805 24.0437 26.9983Z" fill="white"/>
</svg>
