<svg width="41" height="42" viewBox="0 0 41 42" fill="none" xmlns="http://www.w3.org/2000/svg">
<path d="M21.6975 41.9995H19.2915C19.1902 41.9705 19.087 41.9487 18.9827 41.9343C16.1085 41.7398 13.3856 40.9828 10.8683 39.5931C5.0968 36.4056 1.56493 31.5597 0.322811 25.0705C0.173436 24.2904 0.105264 23.4943 0 22.7052V20.2988C0.0299376 20.1853 0.0527064 20.0701 0.0681713 19.9539C0.268675 17.0932 1.00653 14.373 2.40905 11.8774C6.18353 5.16353 11.945 1.51984 19.6383 1.03856C22.9202 0.814939 26.2023 1.46974 29.1472 2.93561C36.4526 6.56827 40.4235 12.497 40.9579 20.6397C41.2025 24.3646 40.3674 27.919 38.5518 31.1867C35.3598 36.942 30.5086 40.4584 24.0264 41.6826C23.2584 41.827 22.4755 41.8962 21.6975 41.9995ZM20.5135 39.2712C30.3061 39.2512 38.2952 31.2429 38.2641 21.4769C38.233 11.6919 30.27 3.73975 20.4995 3.73674C10.729 3.73373 2.72084 11.734 2.72886 21.511C2.73688 31.288 10.742 39.2913 20.5135 39.2712Z" fill="#5B5B5B"/>
<path d="M20.2969 12.5306C21.2822 12.5101 22.2581 12.7256 23.1431 13.1593C25.2313 14.194 25.8288 16.5874 24.4614 18.5887C24.0754 19.1542 23.5651 19.6375 23.0939 20.1428C22.8858 20.3497 22.6623 20.5404 22.4253 20.7133C21.6814 21.2949 21.2784 22.0519 21.3305 22.9974C21.4037 24.3009 20.6719 24.4503 19.5962 24.362C19.0799 24.3199 18.8022 24.0302 18.74 23.5098C18.5395 21.7942 18.9746 20.3163 20.3811 19.2093C20.737 18.9286 21.118 18.6689 21.4227 18.339C21.7368 18.0178 21.9929 17.6447 22.1796 17.2361C22.4934 16.4751 22.1385 15.7201 21.3957 15.3772C20.1926 14.8247 18.8533 15.1686 18.1044 16.2465C17.5921 16.9824 17.1841 17.0717 16.4392 16.7548C15.8106 16.4871 15.5821 15.7852 15.8247 15.0503C16.1254 14.1479 16.763 13.5463 17.5791 13.1202C18.4175 12.6883 19.3549 12.4849 20.2969 12.5306V12.5306Z" fill="#5B5B5B"/>
<path d="M19.9923 29.5308C19.5224 29.533 19.071 29.3484 18.7373 29.0176C18.4036 28.6868 18.2149 28.237 18.2128 27.7672C18.2107 27.2973 18.3953 26.8458 18.726 26.512C19.0567 26.1783 19.5064 25.9896 19.9762 25.9874C20.4405 25.9939 20.8845 26.1792 21.2158 26.5047C21.547 26.8302 21.74 27.2709 21.7547 27.7351C21.7787 28.6926 20.9647 29.5228 19.9923 29.5308Z" fill="#5B5B5B"/>
</svg>
