<svg width="361" height="460" viewBox="0 0 361 460" fill="none" xmlns="http://www.w3.org/2000/svg">
<path d="M360.584 447.539C327.023 455.428 292.669 459.443 258.193 459.506C223.717 459.443 189.363 455.428 155.802 447.539C189.362 439.642 223.717 435.623 258.193 435.559C292.669 435.623 327.024 439.642 360.584 447.539V447.539Z" fill="#CCCCCC"/>
<path d="M144.116 134.772C145.102 136.628 147.111 137.678 148.992 138.612C152.448 140.289 155.827 142.452 159.232 144.077L165.029 152.601L172.709 144.704L174.974 142.375L169.419 134.132C170.186 128.526 169.834 122.823 168.383 117.353C167.592 115.259 166.917 113.122 166.361 110.954C165.861 108.125 166.361 105.207 166.181 102.327C166.227 101.639 166.012 100.958 165.58 100.42C165.255 100.146 164.85 99.9838 164.426 99.9585C164.001 99.9331 163.58 100.046 163.225 100.279C162.517 100.756 161.951 101.415 161.587 102.186L161.459 102.442C159.637 105.897 158.995 109.852 159.628 113.705C159.772 114.185 159.772 114.697 159.628 115.177C159.403 115.564 159.057 115.865 158.643 116.035C156.134 117.171 153.316 117.428 150.643 116.764C149.53 116.385 148.332 116.327 147.188 116.598C145.652 117.187 145.012 118.979 144.628 120.591C143.882 123.749 143.453 126.973 143.348 130.216C143.211 131.775 143.476 133.344 144.116 134.772V134.772Z" fill="#B77158"/>
<path d="M155.571 128.706C155.222 131.701 155.591 134.737 156.646 137.562C154.897 135.183 153.879 132.346 153.715 129.397C153.649 127.917 153.945 126.444 154.578 125.105C155.212 123.767 156.164 122.604 157.35 121.717C157.787 121.368 158.293 121.115 158.835 120.975C158.732 122.05 157.299 123.381 156.813 124.405C156.182 125.767 155.763 127.217 155.571 128.706V128.706Z" fill="#8E503D"/>
<path d="M163.686 150.553C163.686 150.553 177.33 168.472 188.567 178.711C193.188 182.922 197.398 185.827 200.086 185.648C209.276 185.008 215.445 155.903 215.445 155.903L195.018 153.792L193.597 156.147L169.42 134.132L165.58 145.076L163.686 150.553Z" fill="#B77158"/>
<path d="M165.35 106.743H148.75V127.861H165.35V106.743Z" fill="#BD4761"/>
<path d="M148.749 121.897H165.35V112.297H148.749V121.897Z" fill="white"/>
<path d="M149.236 104.938H164.863V100.471H149.236V104.938Z" fill="#444444"/>
<path d="M146.881 106.743H167.206V103.761H146.881V106.743Z" fill="#444444"/>
<path d="M143.822 135.796C148.199 137.575 153.844 136.295 153.844 136.295C154.303 135.263 154.605 134.167 154.739 133.045C154.829 132.528 154.884 132.007 154.906 131.483C154.983 130.243 154.983 128.999 154.906 127.759C154.906 127.208 154.906 126.645 154.803 126.095C154.663 124.61 154.471 123.151 154.24 121.794C154.151 121.206 154.048 120.642 153.946 120.105C153.677 118.646 153.396 117.379 153.165 116.432C152.935 115.484 152.717 114.678 152.717 114.678C148.417 114.294 142.209 117.238 142.209 117.238C141.657 118.795 141.338 120.425 141.262 122.076C141.281 126.766 142.149 131.414 143.822 135.796V135.796Z" fill="#B77158"/>
<path d="M147.175 121.602C147.175 121.602 147.777 121.692 148.673 121.781C149.787 121.896 150.907 121.939 152.026 121.909C152.794 121.909 153.536 121.807 154.189 121.73C154.1 121.142 153.997 120.578 153.895 120.041C153.255 119.907 152.602 119.847 151.949 119.862C150.737 119.919 149.55 120.233 148.468 120.783C148.008 121.008 147.575 121.283 147.175 121.602V121.602Z" fill="#8E503D"/>
<path d="M148.238 127.311C148.238 127.311 148.801 127.451 149.646 127.592C150.682 127.765 151.731 127.855 152.781 127.861C153.458 127.842 154.133 127.786 154.804 127.695C154.804 127.144 154.804 126.581 154.701 126.031C154.072 125.88 153.428 125.803 152.781 125.8C151.635 125.834 150.507 126.099 149.466 126.581C149.032 126.779 148.62 127.024 148.238 127.311V127.311Z" fill="#8E503D"/>
<path d="M147.585 132.635C148.074 132.764 148.57 132.867 149.07 132.942C150.194 133.133 151.334 133.218 152.474 133.198C153.217 133.183 153.957 133.11 154.688 132.981C154.777 132.464 154.833 131.943 154.855 131.419C154.06 131.219 153.242 131.128 152.423 131.15C151.222 131.199 150.041 131.472 148.942 131.957C148.472 132.146 148.018 132.373 147.585 132.635V132.635Z" fill="#8E503D"/>
<path d="M141.262 122.076C142.076 120.885 143.104 119.856 144.296 119.043C145.432 118.363 146.661 117.85 147.943 117.519C149.395 117.003 150.89 116.617 152.41 116.368C152.64 116.348 152.871 116.348 153.101 116.368C152.845 115.28 152.653 114.614 152.653 114.614C148.353 114.23 142.145 117.174 142.145 117.174C141.609 118.755 141.311 120.407 141.262 122.076V122.076Z" fill="#CC836D"/>
<path d="M225.083 81.1834C225.083 81.1834 212.668 86.0214 212.053 89.5667C211.439 93.112 196.426 148.083 196.426 148.083L217.147 152.435L227.681 98.2955L225.083 81.1834Z" fill="#F5F5F5"/>
<path d="M217.697 149.043L194.646 143.117L192.675 153.574L217.697 156.134V149.043Z" fill="#E0E0E0"/>
<path d="M337.7 37.6414L305.165 37.6159L331.467 23.1403L337.7 37.6414Z" fill="#FFB600"/>
<path d="M311.679 63.7384L301.338 44.7321L318.156 55.4831L311.679 63.7384Z" fill="#FFB600"/>
<path d="M314.573 15.1666L296.68 31.0116L304.09 10.2262L314.573 15.1666Z" fill="#FFB600"/>
<path d="M220.193 272.386H285.096V218.413H220.193V272.386Z" fill="#E0E0E0"/>
<path d="M193.943 436.788C193.992 436.194 194.199 435.625 194.54 435.137C194.882 434.649 195.347 434.26 195.888 434.011C199.728 432.36 213.589 427.24 217.352 424.309C220.283 422.031 222.868 417.078 223.88 414.979L249.72 416.259C251.205 422.85 252.139 435.534 252.28 438.196L193.943 436.788Z" fill="#845652"/>
<path d="M193.763 442.548L252.152 444.058L252.331 438.298L193.942 436.788L193.763 442.548Z" fill="#683534"/>
<path d="M222.228 426.101C222.27 426.165 222.304 426.234 222.331 426.306C222.612 426.818 222.766 427.586 222.087 427.88C221.72 427.989 221.329 427.989 220.961 427.88C219.701 427.555 218.5 427.032 217.403 426.331C216.158 425.735 215.067 424.859 214.216 423.772C213.423 422.492 214.587 421.442 215.97 421.762C218.527 422.369 220.762 423.919 222.228 426.101V426.101Z" fill="#683534"/>
<path d="M217.748 429.07C217.79 429.135 217.824 429.203 217.851 429.275C218.132 429.787 218.286 430.555 217.608 430.849C217.24 430.958 216.849 430.958 216.481 430.849C215.228 430.539 214.032 430.034 212.936 429.352C211.669 428.727 210.564 427.816 209.711 426.69C208.917 425.41 210.082 424.348 211.464 424.668C214.042 425.285 216.288 426.859 217.748 429.07V429.07Z" fill="#683534"/>
<path d="M212.283 430.965C212.325 431.029 212.359 431.098 212.386 431.169C212.654 431.681 212.821 432.449 212.13 432.744C211.767 432.853 211.379 432.853 211.016 432.744C209.758 432.431 208.557 431.921 207.458 431.233C206.188 430.601 205.081 429.686 204.22 428.558C203.439 427.279 204.604 426.229 205.986 426.549C208.571 427.166 210.822 428.745 212.283 430.965V430.965Z" fill="#683534"/>
<path d="M315.468 439.399C315.468 439.399 302.797 448.358 299.342 448.614C295.886 448.87 277.75 444.288 277.75 441.984C277.75 441.178 278.134 438.324 278.697 434.868C279.721 428.469 281.321 420.073 282.063 418.946C283.215 417.219 282.063 406.851 282.063 406.851C282.063 406.851 300.788 402.525 303.373 403.396C305.383 404.061 311.501 425.154 314.188 434.727C314.982 437.569 315.468 439.399 315.468 439.399Z" fill="#845652"/>
<path d="M315.468 439.399C315.468 439.399 302.797 448.358 299.342 448.614C295.886 448.87 277.75 444.288 277.75 441.985C277.75 441.178 278.134 438.324 278.697 434.868C284.597 437.185 297.243 441.767 301.402 440.269C304.231 439.258 309.619 436.839 314.201 434.728C314.982 437.569 315.468 439.399 315.468 439.399Z" fill="#683534"/>
<path d="M315.43 414.544L314.15 415.03C300.849 419.799 286.467 420.687 272.681 417.59L269.84 318.385L256.158 241.054L255.377 236.191L255.172 241.08L251.55 314.981L258.193 419.804C256.891 420.351 255.557 420.821 254.2 421.212C235.795 426.6 212.091 419.804 212.091 419.804C212.091 419.804 214.766 327.78 214.28 320.868C213.96 316.414 216.942 269.532 219.08 237.215C220.231 219.795 221.14 202.862 221.14 202.862L301.402 206.613L301.159 233.337L303.194 314.981C303.194 314.981 317.042 413.916 315.43 414.544Z" fill="#385077"/>
<path d="M220.193 220.397C243.986 226.4 298.445 219.45 301.287 219.117L301.415 206.651L221.14 202.901C221.14 202.901 220.769 211.988 220.193 220.397Z" fill="#343345"/>
<path d="M299.303 421.89L299.521 421.993C300.046 422.236 300.634 422.76 300.263 423.4C300.039 423.711 299.727 423.948 299.367 424.079C298.177 424.594 296.91 424.91 295.617 425.013C294.232 425.288 292.801 425.226 291.445 424.834C290.075 424.322 290.331 422.748 291.624 422.172C294.054 421.103 296.801 421.002 299.303 421.89V421.89Z" fill="#683534"/>
<path d="M299.303 426.882L299.521 426.984C300.046 427.227 300.634 427.752 300.263 428.392C300.039 428.703 299.727 428.939 299.367 429.07C298.177 429.586 296.91 429.902 295.617 430.005C294.232 430.279 292.801 430.218 291.445 429.826C290.075 429.314 290.331 427.739 291.624 427.163C294.054 426.094 296.801 425.994 299.303 426.882V426.882Z" fill="#683534"/>
<path d="M299.79 431.451L300.007 431.553C300.532 431.797 301.121 432.321 300.749 432.961C300.529 433.276 300.216 433.513 299.854 433.64C298.666 434.152 297.404 434.472 296.116 434.587C294.725 434.851 293.292 434.785 291.931 434.395C290.561 433.883 290.817 432.309 292.11 431.733C294.541 430.664 297.287 430.563 299.79 431.451V431.451Z" fill="#683534"/>
<path d="M258.193 419.74C256.889 420.282 255.556 420.752 254.2 421.148L246.521 314.917L253.893 225.875L255.326 236.191L255.173 241.08L251.55 314.981L258.193 419.74Z" fill="#343345"/>
<path d="M315.43 414.544L314.15 415.03L297.755 314.981L296.68 206.677H301.402L301.159 233.401L303.194 314.981C303.194 314.981 317.043 413.917 315.43 414.544Z" fill="#343345"/>
<path d="M277.123 71.8018L287.362 74.7839L290.843 212.807C290.843 212.807 265.578 216.788 254.046 216.788C242.515 216.788 223.329 212.807 223.329 212.807L234.579 78.2012L248.389 74.8735L277.123 71.8018Z" fill="#38C6AE"/>
<path d="M254.468 70.5219C254.635 69.178 254.763 68.2053 254.775 67.9621C254.929 66.2086 254.059 58.4781 254.059 58.4781L273.436 51.4899C273.436 51.4899 273.436 55.3296 273.334 59.63C273.257 64.7496 273.116 70.5219 272.86 70.7394L261.764 80.9786L254.084 73.6704L254.468 70.5219Z" fill="#B77158"/>
<path d="M273.334 59.5916C267.843 62.9321 255.735 70.2147 254.571 70.4451H254.468C254.635 69.1012 254.763 68.1285 254.775 67.8853C254.929 66.1319 254.059 58.4013 254.059 58.4013L273.436 51.4131C273.436 51.4131 273.411 55.3168 273.334 59.5916Z" fill="#8E503D"/>
<path d="M277.314 50.9267C276.718 52.1721 275.842 53.2628 274.755 54.1137V54.1137C274.272 54.5366 273.768 54.9339 273.244 55.304C271.03 56.8654 250.398 65.5431 247.237 65.1079C244.076 64.6728 241.093 53.7553 240.965 52.6034C239.993 45.5768 237.331 23.8315 237.331 23.8315C245.304 0.217476 273.168 12.658 276.278 15.0002C279.388 17.3424 277.314 50.9267 277.314 50.9267Z" fill="#B77158"/>
<path d="M274.729 54.1137C274.247 54.5365 273.742 54.9339 273.219 55.304C271.004 56.8654 250.373 65.5431 247.211 65.1079C244.05 64.6728 241.093 53.7553 240.965 52.6034C242.911 57.403 245.099 64.0328 247.365 63.8408C250.731 63.5465 272.22 55.4192 274.729 54.1137Z" fill="#CC836D"/>
<path d="M239.929 31.9715C239.929 31.9715 241.209 25.764 243.973 26.6856C246.738 27.6071 245.97 28.2086 245.97 28.2086L239.929 31.9715Z" fill="#FFDDA0"/>
<path d="M269.994 27.3127C269.994 27.3127 261.79 20.5037 259.435 23.793C258.052 25.7129 259.435 26.6472 259.435 26.6472L269.994 27.3127Z" fill="#FFDDA0"/>
<path d="M243.973 36.9759C243.973 38.6142 244.792 39.958 245.816 39.9708C246.84 39.9836 247.685 38.6909 247.698 36.9887C247.71 35.2864 246.878 34.0065 245.855 33.9937C244.831 33.9809 243.986 35.3248 243.973 36.9759Z" fill="#1D1E1E"/>
<path d="M242.374 35.5169C242.833 36.0758 243.422 36.5149 244.089 36.7967C244.773 37.0589 245.511 37.1512 246.239 37.0655C245.779 36.5066 245.19 36.0674 244.524 35.7856C243.841 35.5162 243.101 35.4237 242.374 35.5169V35.5169Z" fill="white"/>
<path d="M268.125 34.5314C268.125 36.6304 267.037 38.371 265.731 38.371C264.426 38.371 263.376 36.656 263.389 34.5314C263.402 32.4067 264.477 30.6917 265.783 30.6917C267.088 30.6917 268.138 32.4323 268.125 34.5314Z" fill="#1D1E1E"/>
<path d="M270.16 32.7011C269.577 33.4264 268.826 33.9978 267.971 34.3649C267.096 34.6885 266.156 34.7939 265.232 34.6721C265.821 33.9484 266.576 33.3776 267.433 33.0082C268.304 32.6867 269.239 32.5813 270.16 32.7011Z" fill="white"/>
<path d="M260.714 54.088C259.771 54.5499 258.74 54.8016 257.69 54.8259C256.64 54.8503 255.598 54.6465 254.635 54.2288C254.923 54.7018 255.329 55.0912 255.814 55.3584C256.299 55.6255 256.846 55.7612 257.399 55.7519C258.671 55.6228 259.851 55.0306 260.714 54.088V54.088Z" fill="#8E503D"/>
<path d="M244.063 46.1143C243.73 46.9847 241.862 47.0743 239.878 46.3191C237.894 45.564 236.563 44.2457 236.896 43.3882C237.228 42.5307 239.097 42.4283 241.081 43.1834C243.065 43.9385 244.396 45.2568 244.063 46.1143Z" fill="#CC836D"/>
<path d="M269.046 42.2363C269.379 43.5162 267.216 45.2184 264.221 45.9736C261.226 46.7287 258.526 46.2808 258.193 44.9753C257.86 43.6698 260.023 41.9931 263.031 41.238C266.039 40.4828 268.726 40.9308 269.046 42.2363Z" fill="#CC836D"/>
<path d="M265.143 48.2517C265.143 48.2517 265.002 48.4181 264.785 48.7253C264.456 49.1905 264.078 49.6196 263.658 50.0052C262.304 51.2575 260.656 52.1484 258.867 52.5958C257.077 53.0432 255.204 53.0326 253.419 52.565C252.883 52.426 252.36 52.2375 251.858 52.0018L251.32 51.7458L251.909 51.8482C252.432 51.96 252.962 52.0328 253.496 52.0658C255.214 52.187 256.941 52.0446 258.616 51.6435C260.297 51.2297 261.903 50.556 263.377 49.6468C263.822 49.3665 264.25 49.0588 264.657 48.7253L265.143 48.2517Z" fill="#8E503D"/>
<path d="M254.174 42.1595C254.142 42.6873 254.207 43.2165 254.366 43.7209C254.44 43.9759 254.452 44.2449 254.401 44.5054C254.35 44.7659 254.237 45.0104 254.072 45.2184C253.76 45.4713 253.373 45.6151 252.971 45.628C252.394 45.7409 251.805 45.7839 251.218 45.7559C249.72 45.628 249.375 45.0264 250.731 44.3865C251.989 43.8305 253.151 43.0789 254.174 42.1595V42.1595Z" fill="#CC836D"/>
<path d="M250.053 32.5091C250.73 37.0073 250.259 41.6038 248.684 45.8712C249.662 46.1715 250.695 46.2492 251.707 46.0986C252.719 45.948 253.684 45.5729 254.533 45.0008C253.267 45.3521 251.923 45.2938 250.693 44.8344C251.783 40.7611 251.559 36.4476 250.053 32.5091V32.5091Z" fill="#8E503D"/>
<path d="M274.281 51.7458C276.029 51.5846 277.725 51.0677 279.266 50.2269C280.807 49.3861 282.159 48.2392 283.24 46.8566C283.574 46.4527 283.878 46.0249 284.149 45.5768C285.429 43.4009 285.762 35.7856 282.665 34.0577C280.489 32.7779 278.825 34.5953 278.121 35.7856C277.935 36.073 277.768 36.3722 277.622 36.6815L274.281 51.7458Z" fill="#C7806D"/>
<path d="M274.281 51.7459C276.029 51.5846 277.725 51.0677 279.266 50.2269C280.807 49.3862 282.159 48.2393 283.24 46.8567C283.394 46.6391 283.509 46.4343 283.624 46.2423C284.84 44.0537 285.237 36.4512 282.14 34.7233C281.469 34.3413 280.676 34.2332 279.927 34.4216C279.178 34.61 278.531 35.0803 278.121 35.7344V35.7344C277.935 36.0218 277.768 36.3211 277.622 36.6304L274.281 51.7459Z" fill="#B77158"/>
<path d="M283.649 39.9965C283.767 40.6143 283.71 41.2528 283.483 41.8395C282.626 44.3993 280.053 46.3191 277.608 48.111C278.332 46.9123 278.642 45.5096 278.492 44.1177C278.415 43.6472 278.364 43.173 278.338 42.697C278.325 40.79 282.741 36.4 283.649 39.9965Z" fill="#CC836D"/>
<path d="M276.368 48.8405L276.508 48.7509C276.645 48.6817 276.777 48.6047 276.905 48.5205C277.383 48.2272 277.814 47.8649 278.185 47.4454C278.673 46.8594 279.015 46.1665 279.183 45.4232C279.385 44.5205 279.286 43.5768 278.902 42.7354C278.85 42.6205 278.79 42.5094 278.723 42.4027V42.3131V42.2363L278.812 42.0955C278.812 41.9931 278.927 41.9035 278.979 41.8139C279.205 41.4498 279.453 41.0994 279.721 40.7644C279.966 40.4488 280.231 40.1496 280.515 39.8685C280.758 39.6122 281.019 39.3727 281.295 39.1517C281.526 38.9716 281.799 38.8527 282.089 38.8062C282.317 38.7843 282.547 38.8241 282.754 38.9214C282.881 38.9799 282.985 39.0789 283.049 39.2029C283.049 39.2797 283.049 39.3309 283.049 39.3309C283.06 39.2847 283.06 39.2364 283.049 39.1901C283.034 39.1191 283.004 39.0519 282.962 38.9925C282.921 38.9331 282.867 38.8828 282.806 38.8446C282.581 38.6838 282.314 38.5946 282.038 38.5886C281.669 38.6003 281.309 38.7014 280.988 38.883C280.649 39.0813 280.328 39.3082 280.028 39.5613C279.694 39.8306 279.378 40.1213 279.081 40.4316C278.767 40.77 278.476 41.1292 278.211 41.5067C278.135 41.5996 278.067 41.698 278.006 41.8011L277.916 41.9547L277.788 42.1723L277.699 42.3259L277.788 42.4667L277.904 42.6842C277.965 42.7769 278.016 42.8755 278.057 42.9786C278.403 43.7214 278.536 44.5454 278.441 45.3592C278.351 46.0416 278.125 46.6989 277.776 47.2918C277.52 47.7183 277.21 48.1098 276.854 48.4565C276.726 48.5973 276.598 48.6741 276.521 48.7509L276.368 48.8405Z" fill="#8E503D"/>
<path d="M283.547 28.6822C283.138 31.5748 282.703 33.9554 282.703 33.9554C282.703 33.9554 276.226 40.5468 274.499 44.9113C275.243 38.8986 275.097 32.809 274.063 26.8392C271.937 26.1174 270.072 24.7813 268.706 22.9997C267.339 21.2181 266.531 19.0712 266.384 16.8305C265.355 18.3831 263.902 19.6088 262.199 20.363C262.642 19.6961 262.931 18.9385 263.044 18.1458C263.157 17.3531 263.091 16.5451 262.852 15.781C261.8 17.8854 260.27 19.715 258.386 21.1239C256.502 22.5327 254.314 23.4818 251.998 23.8955C253.048 22.1889 254.089 20.5208 255.121 18.8911C250.706 22.7007 245.379 25.3023 239.66 26.4424C237.19 26.916 234.31 27.0312 232.467 25.3033C231.889 24.7182 231.446 24.0145 231.168 23.241C230.889 22.4675 230.782 21.6427 230.854 20.8237C230.926 19.4683 231.243 18.1371 231.789 16.8945C232.864 14.3953 234.442 12.1436 236.423 10.2789C238.405 8.41419 240.748 6.97613 243.308 6.05378C242.489 4.40273 241.093 2.55968 240.249 0.908625C242.562 2.27212 245.31 2.69804 247.928 2.09892C250.488 1.67656 253.048 0.819032 255.607 0.345473C259.304 -0.166214 263.07 0.341881 266.499 1.81487C269.927 3.28785 272.888 5.66972 275.062 8.70316C276.522 8.73143 277.953 9.1101 279.236 9.80727C280.519 10.5044 281.616 11.4997 282.434 12.7092C283.75 15.2105 284.389 18.012 284.29 20.8365C284.216 23.4653 283.968 26.0863 283.547 28.6822V28.6822Z" fill="#EFCA8F"/>
<path d="M284.124 24.1514C283.983 25.6233 283.765 27.2232 283.548 28.6822C281.911 30.1648 280.603 31.9743 279.708 33.9938C279.886 31.5111 279.55 29.0183 278.722 26.671C277.895 24.3236 276.592 22.172 274.896 20.3502C274.755 21.9244 274.614 23.4987 274.486 25.073C270.435 20.4777 267.862 14.769 267.101 8.69036L263.364 13.4899C263.814 11.5655 263.721 9.55391 263.095 7.67925C261.526 10.8235 259.127 13.479 256.158 15.3586C256.222 13.5283 256.299 11.7109 256.376 9.88066C253.032 14.703 248.178 18.2741 242.579 20.0302C238.771 21.1937 234.75 21.4781 230.816 20.8621C230.888 19.5067 231.205 18.1755 231.751 16.9329C232.031 16.2634 232.356 15.6134 232.723 14.9874C235.074 10.852 238.83 7.69608 243.308 6.09218C242.489 4.40273 241.094 2.55968 240.249 0.908625C242.563 2.27212 245.311 2.69804 247.929 2.09892C250.488 1.67656 253.048 0.819032 255.608 0.345473C259.304 -0.166214 263.07 0.341881 266.499 1.81487C269.928 3.28785 272.889 5.66972 275.062 8.70316C276.522 8.73143 277.954 9.1101 279.237 9.80727C280.52 10.5044 281.616 11.4997 282.434 12.7092C283.75 15.2105 284.39 18.012 284.29 20.8365C284.295 21.9437 284.239 23.0503 284.124 24.1514V24.1514Z" fill="#FFDDA0"/>
<path d="M284.123 24.1514L283.688 24.8298C281.011 20.0341 277.112 16.0331 272.386 13.234C272.182 14.821 271.977 16.3825 271.772 17.9568C270.492 12.722 269.212 7.26968 265.641 3.16123C265.424 4.32593 265.206 5.50343 265.001 6.66813C262.541 4.69106 259.437 3.69281 256.285 3.86517C256.093 5.24745 255.889 6.52734 255.709 7.88403C254.303 6.89054 252.709 6.19378 251.025 5.8362C250.401 8.00903 249.26 9.99844 247.7 11.6344C246.14 13.2704 244.207 14.5043 242.066 15.2306C239.03 16.1885 235.759 16.0893 232.787 14.949C235.138 10.8136 238.893 7.65768 243.371 6.05378C242.488 4.40273 241.093 2.55968 240.248 0.908625C242.562 2.27212 245.31 2.69804 247.928 2.09892C250.487 1.67656 253.047 0.819032 255.607 0.345473C259.304 -0.166214 263.07 0.341881 266.498 1.81487C269.927 3.28785 272.888 5.66972 275.061 8.70316C276.521 8.73143 277.953 9.1101 279.236 9.80727C280.519 10.5044 281.616 11.4997 282.434 12.7092C283.749 15.2105 284.389 18.012 284.289 20.8365C284.294 21.9437 284.238 23.0503 284.123 24.1514V24.1514Z" fill="#FEEAAF"/>
<path d="M272.86 70.701C272.86 70.701 262.352 80.697 261.764 80.9402C261.175 81.1834 254.084 73.632 254.084 73.632L248.427 74.9119L247.608 87.314L258.205 91.4225L262.045 85.5222L267.075 92.024L276.111 84.5239L278.837 72.4033L272.86 70.701Z" fill="#6BAAA7"/>
<path d="M206.946 279.848H227.283C232.185 270.031 237.753 214.215 241.964 162.789C245.202 123.215 247.646 86.2133 248.363 74.8223C246.789 75.1934 244.971 75.6158 243.077 76.1022L237.126 77.5484C235.283 78.022 233.478 78.4828 231.84 78.9307C229.515 79.5039 227.246 80.2791 225.056 81.2473C225.056 81.2473 218.055 114.691 216.251 125.391C214.446 136.091 206.946 279.848 206.946 279.848Z" fill="#F5F5F5"/>
<path d="M227.246 131.957C227.246 135.796 236.422 152.883 241.964 162.853C245.202 123.279 247.647 86.2773 248.364 74.8863C246.79 75.2574 244.972 75.6798 243.078 76.1662L237.126 77.6124C235.015 88.4403 230.996 108.919 230.855 110.454C230.676 112.553 238.534 118.761 238.534 118.761C238.534 118.761 227.246 126.453 227.246 131.957Z" fill="#E0E0E0"/>
<path d="M215.393 140.058H240.965V125.8H215.393V140.058Z" fill="#6BAAA7"/>
<path d="M229.69 137.332H238.496V128.527H229.69V137.332Z" fill="#8BCCCA"/>
<path d="M217.864 130.626H227.246V128.539H217.864V130.626Z" fill="#8BCCCA"/>
<path d="M217.864 133.979H227.246V131.893H217.864V133.979Z" fill="#8BCCCA"/>
<path d="M217.864 137.345H227.246V135.259H217.864V137.345Z" fill="#8BCCCA"/>
<path d="M226.758 126.978H229.587V121.41H226.758V126.978Z" fill="#434356"/>
<path d="M275.458 151.936C275.458 156.467 275.458 161.074 275.561 165.682C276.034 221.178 277.455 279.848 277.455 279.848H308.364C308.364 279.848 304.653 131.893 303.718 123.996C302.784 116.099 296.679 77.1389 296.679 77.1389L293.236 76.1918L288.283 74.9119L286.517 74.3616L283.471 73.5424L277.071 71.8146C275.561 81.9641 275.241 115.049 275.458 151.936Z" fill="#F5F5F5"/>
<path d="M275.458 151.936C279.132 141.697 286.517 121.116 286.427 119.862C286.35 118.185 280.668 109.456 280.668 109.456C280.668 109.456 289.422 103.159 288.744 99.9594C288.219 97.3996 286.99 80.761 286.517 74.3616L283.471 73.5424L277.071 71.8146C275.561 81.9641 275.241 115.049 275.458 151.936Z" fill="#E0E0E0"/>
<path d="M286.927 126.479H291.24V122.165H295.361V126.479H299.674V130.6H295.361V134.913H291.24V130.6H286.927V126.479Z" fill="#6BAAA7"/>
<path d="M296.68 77.1389C296.68 77.1389 311.834 82.348 318.156 91.9344C324.479 101.521 343.908 153.523 343.908 153.523L309.747 162.789L300.379 140.071L296.68 77.1389Z" fill="#F5F5F5"/>
<path d="M318.501 216.852C318.501 216.852 341.155 180.874 341.936 177.329C342.269 175.831 336.292 151.948 336.292 151.948L315.558 159.82L320.293 173.387L309.171 204.91L318.501 216.852Z" fill="#B77158"/>
<path d="M343.907 142.759C343.907 142.759 348.054 154.188 348.054 155.955C348.054 157.721 311.04 167.576 309.747 166.59C308.454 165.605 304.768 160.191 306.112 158.719C307.456 157.247 343.907 142.759 343.907 142.759Z" fill="#E0E0E0"/>
<path d="M307.469 90.1553C307.469 90.1553 301.069 106.704 301.338 111.427C301.607 116.15 304.397 145.715 304.397 145.715L303.526 110.646L307.469 90.1553Z" fill="#E0E0E0"/>
<path d="M269.968 189.68L330.34 222.573L305.062 262.057L242.348 236.05L269.968 189.68Z" fill="#B88B61"/>
<path d="M260.906 200.52L265.386 203.08L253.969 223.43L248.85 221.088L253.022 214.356C253.022 214.356 250.206 211.335 251.742 208.788C253.278 206.241 257.95 205.602 257.95 205.602L260.906 200.52Z" fill="#9B704C"/>
<path d="M295.246 199.432C294.369 199.3 293.476 199.326 292.609 199.509C287.4 200.789 279.452 202.837 279.695 205.025C279.938 207.214 294.785 203.746 294.785 203.746L297.153 207.24L291.099 209.3L284.776 216.135C284.776 216.135 285.467 217.799 286.44 219.795C286.517 219.985 286.606 220.169 286.709 220.346V220.346L286.798 220.512C286.901 220.743 287.029 220.986 287.144 221.203C287.619 222.157 288.144 223.084 288.718 223.981C288.794 224.075 288.858 224.178 288.91 224.288C289.221 224.735 289.559 225.162 289.921 225.568C290.193 225.891 290.54 226.141 290.932 226.297L296.884 222.15C296.884 222.15 306.509 224.979 307.98 224.621C308.569 224.48 318.936 216.378 318.936 216.378L312.665 203.17L309.171 204.91C308.928 204.795 297.588 199.701 295.246 199.432Z" fill="#B77158"/>
<path d="M286.44 219.757L286.812 220.512L286.952 220.384C287.759 219.655 288.859 218.695 290.063 217.684C291.094 216.793 292.204 215.996 293.377 215.303L294.03 214.945L294.542 214.714L294.99 214.51H294.478H293.864L293.07 214.638C291.579 214.958 290.187 215.634 289.013 216.609C287.971 217.492 287.099 218.559 286.44 219.757V219.757Z" fill="#8E503D"/>
<path d="M288.744 223.968L288.936 224.262L289.806 223.469C290.6 222.739 291.701 221.779 292.917 220.755C293.955 219.873 295.064 219.077 296.231 218.375L296.884 218.029L297.396 217.799L297.844 217.581H296.718L295.924 217.709C294.432 218.035 293.04 218.715 291.867 219.693C290.762 220.621 289.849 221.756 289.179 223.034C289.017 223.337 288.872 223.649 288.744 223.968V223.968Z" fill="#8E503D"/>
<path d="M160.908 431.617C134.687 437.787 107.845 440.928 80.9077 440.977C53.9708 440.928 27.1285 437.787 0.907715 431.617C27.1295 425.454 53.9714 422.317 80.9077 422.267C107.844 422.317 134.686 425.454 160.908 431.617V431.617Z" fill="#CCCCCC"/>
<path d="M105.908 318.138C105.908 318.138 116.228 338.018 116.838 346.028C117.148 350.198 120.178 405.388 120.178 405.388H107.238C107.238 405.388 94.2377 337.668 90.9877 330.698C89.5277 327.548 86.5077 313.648 83.6377 299.328C91.1877 298.578 98.6377 297.448 106.038 296.078C105.968 308.138 105.908 318.138 105.908 318.138Z" fill="#385077"/>
<path d="M72.7678 300.137C72.5478 311.007 72.3078 320.387 72.1078 321.497C72.1078 321.497 76.6978 335.027 78.1078 342.137C79.1078 347.337 73.9478 411.777 73.9478 411.777H60.7478C60.7478 411.777 56.2278 332.097 54.4878 327.077C53.6878 324.767 51.7378 313.077 50.0278 299.797C57.5919 300.416 65.1887 300.53 72.7678 300.137V300.137Z" fill="#385077"/>
<path d="M105.908 318.137C105.908 318.137 116.228 338.018 116.838 346.028C117.148 350.198 120.178 405.387 120.178 405.387H118.068C117.258 391.387 114.178 346.018 113.248 345.088C112.138 343.978 100.608 316.087 100.608 316.087C100.608 316.087 101.008 307.767 101.378 296.967C102.948 296.697 104.508 296.418 106.068 296.128C105.968 308.138 105.908 318.137 105.908 318.137Z" fill="#2C2C2C"/>
<path d="M72.1078 321.488C72.1078 321.488 76.6978 335.017 78.1078 342.127C79.1078 347.327 73.9478 411.768 73.9478 411.768H70.9778L74.9078 345.838L68.2778 320.018L68.4278 300.298C69.8778 300.298 71.3278 300.198 72.7778 300.128C72.5478 310.998 72.3078 320.378 72.1078 321.488Z" fill="#2C2C2C"/>
<path d="M35.3979 426.677C35.4274 426.23 35.5694 425.798 35.8106 425.42C36.0519 425.043 36.3846 424.732 36.7779 424.517C39.5079 423.167 49.5379 418.977 52.2379 416.637C54.3379 414.817 56.1579 410.907 56.8679 409.247L75.6179 409.957C76.7579 415.107 77.6179 425.037 77.7279 427.107L35.3979 426.677Z" fill="#845652"/>
<path d="M35.3276 431.187L77.6576 431.617L77.7276 427.107L35.3976 426.677L35.3276 431.187Z" fill="#683534"/>
<path d="M55.7877 417.937C55.7877 417.987 55.7877 418.047 55.8677 418.097C56.0677 418.497 56.1977 419.098 55.6977 419.338C55.4352 419.427 55.1503 419.427 54.8877 419.338C53.9657 419.108 53.0897 418.722 52.2977 418.197C51.3474 417.713 50.5276 417.006 49.9077 416.137C49.7795 415.95 49.714 415.727 49.7207 415.501C49.7274 415.274 49.806 415.055 49.945 414.876C50.0841 414.697 50.2765 414.567 50.4945 414.504C50.7125 414.441 50.9447 414.45 51.1577 414.528C53.0919 415.006 54.7571 416.232 55.7877 417.937V417.937Z" fill="#683534"/>
<path d="M52.5676 420.317L52.6476 420.477C52.8576 420.877 52.9776 421.477 52.4876 421.717C52.2217 421.807 51.9336 421.807 51.6676 421.717C50.7441 421.492 49.8674 421.107 49.0776 420.577C48.1392 420.11 47.3264 419.424 46.7076 418.577C46.1276 417.577 46.9576 416.747 47.9576 416.977C49.8717 417.446 51.5264 418.645 52.5676 420.317V420.317Z" fill="#683534"/>
<path d="M48.6277 421.877C48.6582 421.925 48.685 421.975 48.7077 422.027C48.9077 422.427 49.0377 423.027 48.5377 423.267C48.2752 423.357 47.9902 423.357 47.7277 423.267C46.8061 423.042 45.9301 422.659 45.1377 422.137C44.2017 421.666 43.3899 420.981 42.7677 420.137C42.1877 419.137 43.0177 418.307 44.0177 418.537C45.9327 419.004 47.5881 420.203 48.6277 421.877V421.877Z" fill="#683534"/>
<path d="M101.298 428.228C101.018 431.078 113.358 437.458 115.608 436.618C117.858 435.778 126.818 429.878 127.608 426.098C127.878 424.908 127.418 422.348 126.608 419.418C124.968 413.048 121.938 404.868 121.938 404.868L104.648 404.688C104.648 404.688 102.728 417.248 101.758 424.038C101.578 426.038 101.358 427.588 101.298 428.228Z" fill="#845652"/>
<path d="M101.298 428.227C101.018 431.077 113.358 437.457 115.608 436.617C117.858 435.777 126.818 429.877 127.608 426.097C127.878 424.907 127.418 422.347 126.608 419.417C123.358 423.057 118.088 428.257 114.418 428.227C111.358 428.227 106.018 426.027 101.758 424.037C101.578 426.037 101.358 427.587 101.298 428.227Z" fill="#683534"/>
<path d="M116.568 411.207C115.828 411.806 114.993 412.276 114.098 412.597C113.144 413.054 112.095 413.277 111.038 413.247C110.798 413.254 110.563 413.18 110.371 413.036C110.179 412.892 110.041 412.687 109.981 412.455C109.92 412.222 109.941 411.976 110.038 411.757C110.136 411.538 110.305 411.358 110.518 411.247C112.05 410.002 114.012 409.409 115.978 409.597H116.158C116.598 409.677 117.158 409.947 117.048 410.477C116.976 410.769 116.807 411.026 116.568 411.207V411.207Z" fill="#683534"/>
<path d="M111.008 417.257C110.772 417.258 110.542 417.18 110.355 417.036C110.168 416.892 110.033 416.69 109.973 416.462C109.912 416.233 109.929 415.991 110.02 415.774C110.112 415.556 110.273 415.374 110.478 415.257C112.011 414.037 113.957 413.456 115.908 413.637H116.078C116.518 413.717 117.078 413.987 116.968 414.517C116.889 414.784 116.723 415.016 116.498 415.177C115.759 415.776 114.924 416.246 114.028 416.567C113.087 417.025 112.054 417.261 111.008 417.257V417.257Z" fill="#683534"/>
<path d="M111.488 419.597C113.022 418.355 114.982 417.762 116.948 417.947H117.128C117.558 418.027 118.128 418.297 118.008 418.827C117.93 419.094 117.764 419.327 117.538 419.487C116.798 420.086 115.963 420.556 115.068 420.877C114.113 421.333 113.065 421.556 112.008 421.527C111.789 421.511 111.581 421.427 111.412 421.287C111.244 421.147 111.122 420.958 111.065 420.746C111.008 420.535 111.018 420.31 111.094 420.105C111.17 419.899 111.307 419.722 111.488 419.597V419.597Z" fill="#683534"/>
<path d="M131.908 334.078C121.128 338.688 86.3376 331.608 86.3376 331.608L81.1176 316.218L77.6976 330.378C74.2776 334.688 42.5376 335.798 42.5376 335.798L56.3876 202.138C56.3876 202.138 48.8276 194.658 47.2876 188.478C45.7476 182.298 54.1676 157.098 54.1676 157.098V151.218L62.7876 147.868L72.9076 143.948L88.6276 143.328L104.628 146.548C104.628 146.548 104.628 146.738 104.698 147.088C105.358 152.018 110.298 188.808 110.168 191.398C109.908 194.138 131.908 334.078 131.908 334.078Z" fill="#F5F5F5"/>
<path d="M104.628 147.138C104.604 148.92 104.266 150.683 103.628 152.348C102.148 154.958 95.3776 159.968 95.3776 159.968C95.3776 159.968 97.1876 161.558 96.3076 164.968C95.4276 168.378 83.1976 177.138 83.1976 177.138C83.1976 177.138 70.3776 170.938 70.4976 169.858C70.6176 168.778 72.3776 163.538 72.3776 163.538C72.3776 163.538 67.4476 163.088 65.5676 161.428C64.3176 160.338 63.3176 152.858 62.7876 147.878L72.9076 143.948L88.6276 143.328L104.628 146.548C104.628 146.548 104.588 146.738 104.628 147.138Z" fill="#E0E0E0"/>
<path d="M97.9179 252.357L95.2979 257.667L114.008 267.417L116.138 262.847L97.9179 252.357Z" fill="#E0E0E0"/>
<path d="M68.3779 256.057L70.5479 260.427L55.1279 268.458L53.3779 264.697L68.3779 256.057Z" fill="#E0E0E0"/>
<path d="M72.9078 143.948L67.2378 146.138C67.2378 146.138 81.2378 176.868 83.2378 177.138C85.2378 177.408 96.9078 144.998 96.9078 144.998L88.6078 143.328L72.9078 143.948Z" fill="#38C6AE"/>
<path d="M80.8277 310.987C80.8277 310.987 76.8277 276.307 76.3577 270.357C75.8877 264.407 80.8277 232.737 80.8277 232.737L79.4077 271.867L80.8277 310.987Z" fill="#E0E0E0"/>
<path d="M54.1675 151.217C54.1675 151.217 44.0175 155.217 42.5775 157.377C41.1375 159.537 28.8175 221.377 29.7375 224.487C30.6575 227.597 39.9575 236.487 41.9275 237.717C43.8975 238.947 78.1975 246.037 78.1975 246.037L80.8275 231.237L58.9075 221.597L61.5075 170.777L54.1675 151.217Z" fill="#F5F5F5"/>
<path d="M104.558 146.537C104.558 146.537 121.878 152.447 123.328 154.607C124.778 156.767 136.808 221.407 135.888 224.487C134.968 227.567 125.668 236.487 123.698 237.717C121.728 238.947 87.4179 246.037 87.4179 246.037L84.7979 231.237L106.678 221.597L104.078 170.777L104.558 146.537Z" fill="#F5F5F5"/>
<path d="M83.7279 139.538C80.7658 140.015 77.7287 139.524 75.0679 138.138C75.2279 134.678 75.2179 130.508 75.2179 130.508L86.9079 130.678C86.796 133.071 86.8261 135.468 86.9979 137.858C86.0936 138.722 84.9576 139.306 83.7279 139.538V139.538Z" fill="#EA7C6F"/>
<path d="M85.9077 146.737C87.0076 145.762 87.9371 144.609 88.6577 143.327V143.327C87.7277 142.567 87.2877 140.327 87.0777 137.897C86.1789 138.759 85.0503 139.342 83.8277 139.577C80.8288 140.065 77.7528 139.559 75.0677 138.137C75.0492 139.545 74.8986 140.948 74.6177 142.327C74.1876 142.998 73.6007 143.554 72.9077 143.947C74.9677 146.027 77.1977 147.877 79.9077 148.537C81.9077 149.077 83.9677 148.077 85.9077 146.737Z" fill="#F3A080"/>
<path d="M68.1975 124.677C67.1392 124.597 66.113 124.277 65.1965 123.742C64.28 123.207 63.4973 122.47 62.9075 121.587C62.7003 121.299 62.51 120.998 62.3375 120.687C61.5375 119.187 60.9175 113.837 62.5475 112.457C63.6975 111.457 64.6775 112.677 65.1675 113.457C65.2893 113.653 65.3963 113.856 65.4875 114.067L68.1975 124.677Z" fill="#F8BF92"/>
<path d="M68.1976 124.678C67.1393 124.597 66.1131 124.277 65.1966 123.742C64.2801 123.207 63.4974 122.47 62.9076 121.588L62.6876 121.138C61.8876 119.648 61.2676 114.298 62.8976 112.908C63.8276 112.118 64.6476 112.758 65.1876 113.458C65.3094 113.653 65.4163 113.856 65.5076 114.068L68.1976 124.678Z" fill="#F3A080"/>
<path d="M62.3677 116.757C62.3311 117.199 62.3925 117.643 62.5477 118.057C63.1677 119.817 64.6977 121.057 66.1477 122.247C65.6818 121.395 65.4409 120.439 65.4477 119.468C65.4673 119.134 65.4673 118.801 65.4477 118.468C65.3577 117.138 62.6777 114.137 62.3677 116.757Z" fill="#EA7C6F"/>
<path d="M66.9076 122.707H66.8176L66.5876 122.557C66.3141 122.354 66.0687 122.115 65.8576 121.847C65.5516 121.43 65.3277 120.958 65.1976 120.457C65.0327 119.831 65.0327 119.173 65.1976 118.547C65.2197 118.466 65.2464 118.386 65.2776 118.307V118.247V118.147L65.1676 117.947C65.0176 117.697 64.8576 117.457 64.6976 117.237C64.5447 117.029 64.3811 116.829 64.2076 116.637C64.0663 116.466 63.9089 116.309 63.7376 116.167C63.6112 116.055 63.4548 115.982 63.2876 115.957C63.1549 115.947 63.0231 115.986 62.9176 116.067C62.8433 116.112 62.7894 116.184 62.7676 116.267C62.7633 116.297 62.7633 116.328 62.7676 116.357C62.7611 116.328 62.7611 116.297 62.7676 116.267C62.7741 116.169 62.8169 116.076 62.8876 116.007C62.995 115.893 63.141 115.822 63.2976 115.807C63.5095 115.796 63.7196 115.852 63.8976 115.967C64.1011 116.096 64.292 116.243 64.4676 116.407C64.6699 116.588 64.8603 116.782 65.0376 116.987C65.2334 117.215 65.4138 117.456 65.5776 117.707L65.7076 117.907L65.7676 118.017L65.8476 118.157L65.9076 118.267C65.9076 118.267 65.9076 118.337 65.9076 118.377L65.8476 118.527C65.8183 118.599 65.7949 118.672 65.7776 118.747C65.6225 119.297 65.5952 119.875 65.6976 120.437C65.7741 120.904 65.9296 121.354 66.1576 121.767C66.3172 122.054 66.512 122.319 66.7376 122.557C66.7986 122.626 66.8655 122.69 66.9376 122.747L66.9076 122.707Z" fill="#B54B57"/>
<path d="M95.4277 122.507C96.4558 122.257 97.4137 121.777 98.2295 121.103C99.0453 120.43 99.6977 119.58 100.138 118.617C100.308 118.267 100.448 117.937 100.558 117.617C101.108 116.017 100.868 110.617 99.0377 109.527C97.7577 108.747 96.9777 110.087 96.6177 110.957C96.5298 111.172 96.4563 111.393 96.3977 111.617L95.4277 122.507Z" fill="#F8BF92"/>
<path d="M95.4277 122.507C96.4558 122.257 97.4137 121.777 98.2295 121.103C99.0453 120.43 99.6977 119.58 100.138 118.617L100.308 118.137C100.858 116.537 100.618 111.137 98.7877 110.047C97.7877 109.417 97.0377 110.177 96.6177 110.947C96.5298 111.162 96.4563 111.383 96.3977 111.607L95.4277 122.507Z" fill="#F3A080"/>
<path d="M99.9076 113.767C100.008 114.198 100.008 114.647 99.9076 115.077C99.5776 116.907 98.2676 118.397 97.0176 119.787C97.3494 118.872 97.4356 117.886 97.2676 116.927C97.2076 116.597 97.1276 116.267 97.0976 115.927C97.0176 114.577 99.2076 111.267 99.9076 113.767Z" fill="#EA7C6F"/>
<path d="M96.4175 120.347L96.4875 120.287L96.6975 120.107C96.9374 119.866 97.1397 119.589 97.2975 119.287C97.5732 118.774 97.7273 118.204 97.7482 117.621C97.769 117.039 97.6558 116.459 97.4175 115.927C97.3835 115.851 97.3434 115.777 97.2975 115.707V115.647V115.587V115.487L97.3775 115.277C97.4875 114.997 97.6075 114.737 97.7275 114.497C97.8475 114.257 97.9875 114.037 98.1175 113.827C98.2353 113.639 98.3656 113.459 98.5075 113.287C98.6148 113.157 98.757 113.06 98.9175 113.007C99.0494 112.981 99.1866 112.998 99.3075 113.057C99.3839 113.098 99.4465 113.161 99.4875 113.237C99.4892 113.267 99.4892 113.297 99.4875 113.327C99.49 113.294 99.49 113.261 99.4875 113.227C99.4582 113.137 99.4025 113.057 99.3275 112.997C99.2003 112.896 99.0397 112.846 98.8775 112.857C98.6681 112.883 98.4721 112.974 98.3175 113.117C98.1344 113.271 97.9699 113.446 97.8275 113.637C97.6582 113.848 97.5013 114.069 97.3575 114.297C97.1976 114.553 97.0572 114.821 96.9375 115.097C96.8982 115.168 96.8647 115.242 96.8375 115.317V115.427L96.7775 115.587V115.697L96.8375 115.797L96.9175 115.947C96.9568 116.011 96.9902 116.078 97.0175 116.147C97.2563 116.664 97.3759 117.228 97.3675 117.797C97.3659 118.275 97.2813 118.749 97.1175 119.197C97.0062 119.504 96.8585 119.796 96.6775 120.067L96.5175 120.287L96.4175 120.347Z" fill="#B54B57"/>
<path d="M96.4275 110.647C96.4275 110.647 96.8375 121.117 94.4275 125.217C92.3675 128.637 89.4875 134.067 84.4275 136.217C83.4215 136.639 82.307 136.726 81.2475 136.467C75.8475 135.127 72.1475 130.227 69.5775 127.167C66.4975 123.517 65.2375 113.167 65.2375 113.167C65.1575 112.477 65.1075 111.807 65.0575 111.167C63.6975 91.3375 79.1375 91.1975 79.1375 91.1975C79.1375 91.1975 94.2675 90.1375 96.3375 109.627L96.4275 110.647Z" fill="#F8BF92"/>
<path d="M96.3379 109.627C96.3379 111.307 96.4979 120.217 94.2779 123.917C92.2179 127.347 89.3379 132.767 84.2179 134.917C83.2166 135.344 82.1036 135.431 81.0479 135.167C75.6479 133.827 71.9479 128.927 69.3679 125.867C66.2979 122.217 65.0379 111.867 65.0379 111.867C65.0379 111.627 65.0379 111.387 64.9579 111.157C63.6979 91.3375 79.1379 91.1975 79.1379 91.1975C79.1379 91.1975 94.2679 90.1375 96.3379 109.627Z" fill="#F3A080"/>
<path d="M69.5078 110.777C69.9316 111.418 70.5586 111.897 71.2878 112.137C71.3995 111.967 71.5466 111.822 71.7192 111.713C71.8917 111.605 72.0857 111.535 72.2878 111.507C73.2878 111.437 74.2178 112.697 74.2878 114.317C74.3578 115.937 73.6778 117.317 72.6678 117.397C71.6578 117.477 70.7378 116.217 70.6678 114.587C70.6373 114.1 70.6846 113.61 70.8078 113.137C70.1838 112.472 69.7368 111.661 69.5078 110.777Z" fill="#1D1E1E"/>
<path d="M72.6377 114.707C71.9207 115.025 71.1226 115.113 70.3539 114.957C69.5852 114.801 68.8841 114.41 68.3477 113.837C69.0643 113.518 69.8628 113.43 70.6319 113.586C71.4009 113.742 72.102 114.134 72.6377 114.707V114.707Z" fill="white"/>
<path d="M91.2176 109.047C90.8917 109.73 90.3458 110.283 89.6676 110.617C89.5307 110.459 89.3597 110.334 89.1675 110.25C88.9753 110.167 88.7668 110.129 88.5576 110.137C87.5576 110.217 86.8376 111.607 86.9876 113.237C87.1376 114.867 88.0576 116.107 89.0676 116.017C90.0776 115.927 90.7876 114.537 90.6476 112.917C90.6141 112.445 90.4991 111.981 90.3076 111.547C90.8109 110.801 91.1234 109.943 91.2176 109.047Z" fill="#1D1E1E"/>
<path d="M88.7476 113.417C89.5061 113.623 90.3101 113.585 91.0457 113.308C91.7814 113.032 92.4117 112.531 92.8476 111.877C92.0842 111.708 91.2891 111.749 90.5476 111.997C89.8285 112.297 89.2058 112.788 88.7476 113.417V113.417Z" fill="white"/>
<path d="M80.8375 120.378C81.2388 120.358 81.6376 120.45 81.9904 120.642C82.3431 120.834 82.6362 121.12 82.8375 121.468C82.894 121.549 82.9189 121.649 82.9075 121.748C82.9075 121.888 82.7275 121.968 82.5875 122.018C81.6083 122.387 80.5625 122.547 79.5175 122.488C77.6175 122.368 79.9075 120.418 80.8375 120.378Z" fill="#EA7C6F"/>
<path d="M79.9679 121.968V121.658C79.9679 121.558 79.9679 121.438 79.9679 121.298C79.9679 121.158 79.9679 120.998 79.9679 120.828C79.9679 120.658 79.9679 120.468 79.9679 120.268C79.9679 120.068 79.9679 119.848 79.9679 119.628C79.9679 119.188 79.8879 118.698 79.8479 118.188C79.8079 117.678 79.7379 117.188 79.6879 116.758C79.6879 116.538 79.6279 116.328 79.5979 116.128C79.5679 115.928 79.5379 115.738 79.5079 115.568C79.4779 115.398 79.4479 115.248 79.4279 115.108C79.4079 114.968 79.4279 114.848 79.3579 114.748V114.448L79.5479 114.688C79.624 114.783 79.6941 114.883 79.7579 114.988C79.8379 115.108 79.9279 115.248 80.0179 115.408C80.1079 115.568 80.1979 115.748 80.2779 115.938C80.3579 116.128 80.4479 116.348 80.5279 116.568C80.6521 117.082 80.7224 117.608 80.7379 118.138C80.7936 118.656 80.7936 119.179 80.7379 119.698C80.7379 119.938 80.6679 120.158 80.6179 120.368C80.5745 120.56 80.5211 120.75 80.4579 120.938C80.4123 121.095 80.3554 121.248 80.2879 121.398C80.2456 121.511 80.1954 121.621 80.1379 121.728C80.0877 121.812 80.0309 121.892 79.9679 121.968V121.968Z" fill="#DD5B67"/>
<path d="M88.0975 124.008C88.0975 124.008 82.9975 124.208 75.6675 127.928C75.6675 127.928 78.8675 131.688 83.3075 130.038C84.5806 129.566 85.7002 128.755 86.5447 127.692C87.3891 126.628 87.9262 125.354 88.0975 124.008V124.008Z" fill="white"/>
<path d="M95.5278 119.918C95.5278 119.918 95.5278 119.678 95.5978 119.258V118.908C95.5978 118.778 95.5978 118.648 95.5978 118.498C95.5978 118.348 95.6678 117.858 95.6878 117.498C95.6878 117.308 95.6878 117.118 95.6878 116.918C95.6878 116.718 95.6878 116.498 95.6878 116.288C95.6878 115.848 95.7378 115.388 95.7678 114.908C95.7678 113.908 95.8478 112.908 95.8678 111.758C95.8878 110.608 95.8678 109.588 95.8678 108.608C95.8678 108.128 95.8678 107.658 95.8678 107.228V106.588C95.8678 106.388 95.8678 106.188 95.8678 106.008C95.8678 105.628 95.8678 105.288 95.7978 105.008C95.7978 104.858 95.7978 104.718 95.7978 104.588V104.238C95.7978 103.808 95.7978 103.568 95.7978 103.568C95.7978 103.568 95.8978 103.778 96.0578 104.168L96.1978 104.488C96.1978 104.618 96.2878 104.748 96.3478 104.888C96.4078 105.028 96.5678 105.498 96.6778 105.888C96.7278 106.068 96.7878 106.268 96.8378 106.468C96.8878 106.668 96.9478 106.888 96.9978 107.108C97.1078 107.548 97.1978 108.028 97.2878 108.538C97.4539 109.643 97.5341 110.76 97.5278 111.878C97.4959 112.973 97.3721 114.063 97.1578 115.138C97.0578 115.638 96.9578 116.138 96.8378 116.538L96.6578 117.158L96.4778 117.718C96.3578 118.078 96.2278 118.388 96.1178 118.658L95.9578 119.038L95.8178 119.348C95.6378 119.718 95.5278 119.918 95.5278 119.918Z" fill="#38102B"/>
<path d="M68.2277 125.268C68.2277 125.268 68.1077 125.068 67.9177 124.698C67.7277 124.328 67.4477 123.798 67.1377 123.118C66.8277 122.438 66.4977 121.598 66.1377 120.658C65.7885 119.626 65.4914 118.578 65.2477 117.518C65.0164 116.451 64.8428 115.373 64.7277 114.288C64.6177 113.288 64.5777 112.368 64.5577 111.598C64.5377 110.828 64.5577 110.218 64.5577 109.788C64.5577 109.358 64.5577 109.128 64.5577 109.128C64.5577 109.128 64.6277 109.348 64.7377 109.758C64.8477 110.168 65.0177 110.758 65.2077 111.488C65.3977 112.218 65.6177 113.068 65.8577 114.028C66.0977 114.988 66.3377 116.028 66.5877 117.128C66.8377 118.228 67.0477 119.288 67.2277 120.248C67.4077 121.208 67.5877 122.098 67.7177 122.838C67.8477 123.578 67.9577 124.188 68.0277 124.608C68.0977 125.028 68.2277 125.268 68.2277 125.268Z" fill="#38102B"/>
<path d="M72.7078 120.767C72.5078 121.467 70.6178 121.547 68.4978 120.947C66.3778 120.347 64.8178 119.267 65.0178 118.567C65.2178 117.867 67.1078 117.777 69.2278 118.387C71.3478 118.997 72.9078 120.057 72.7078 120.767Z" fill="#EA7C6F"/>
<path d="M97.4175 115.848C97.7475 116.498 96.4175 117.848 94.4175 118.848C92.4175 119.848 90.5875 120.138 90.2475 119.488C89.9075 118.838 91.2475 117.488 93.2475 116.488C95.2475 115.488 97.0775 115.198 97.4175 115.848Z" fill="#EA7C6F"/>
<path d="M80.7678 99.9375L82.9778 103.297C76.7978 101.887 73.4478 100.907 70.0578 95.5475C70.1372 99.5123 69.361 103.448 67.782 107.085C66.203 110.723 63.8583 113.978 60.9078 116.627C60.4178 114.977 59.9078 113.277 59.6078 111.577C58.6878 107.267 58.4878 102.887 60.3478 98.9375C61.6792 96.1231 63.9245 93.8426 66.7178 92.4675C67.6475 89.2549 69.8024 86.5362 72.7178 84.8975C75.5493 83.446 78.7459 82.8617 81.9078 83.2175C84.1176 83.429 86.2681 84.0531 88.2478 85.0575C92.2715 87.3303 95.3236 90.9979 96.8278 95.3675C97.2032 96.4481 97.5006 97.5543 97.7178 98.6775C98.8078 103.817 99.4978 111.197 99.4978 111.197C99.4978 111.197 85.9978 103.717 80.7678 99.9375Z" fill="#38102B"/>
<path d="M65.4678 106.807C65.4678 106.807 73.3678 103.547 75.3478 105.807C76.5078 107.127 75.2378 107.557 75.2378 107.557L65.4678 106.807Z" fill="#4A0E2F"/>
<path d="M94.5476 104.327C94.5476 104.327 86.2376 102.327 84.6376 104.917C83.6976 106.407 85.0176 106.627 85.0176 106.627L94.5476 104.327Z" fill="#4A0E2F"/>
<path d="M88.6578 97.7975C83.9604 96.6044 79.4242 94.8484 75.1478 92.5675C75.2169 93.6939 75.4182 94.8082 75.7478 95.8875C73.1213 94.9965 70.6051 93.8088 68.2478 92.3475C68.1725 96.4062 66.9937 100.368 64.8378 103.807C64.8737 102.547 64.5249 101.305 63.8378 100.247C64.0178 100.527 63.5678 101.957 63.5078 102.307C63.3678 103.027 63.2178 103.737 63.0478 104.447C62.5131 106.917 61.441 109.239 59.9078 111.247C59.8178 111.347 59.7378 111.457 59.6478 111.577C58.9811 108.806 58.8118 105.938 59.1478 103.107C59.3503 101.663 59.7683 100.258 60.3878 98.9375C61.7179 96.1474 63.9376 93.8785 66.6978 92.4875H66.7578C67.2057 90.7726 68.0442 89.1845 69.2078 87.8475C70.2042 86.6548 71.4108 85.6549 72.7678 84.8975C75.5847 83.4558 78.7624 82.8717 81.9078 83.2175C84.1176 83.429 86.2681 84.0531 88.2478 85.0575C91.1532 86.643 93.5544 89.0131 95.1778 91.8975C95.8357 92.9997 96.3882 94.1615 96.8278 95.3675C97.2032 96.4481 97.5007 97.5543 97.7178 98.6775C94.6717 98.8032 91.6228 98.507 88.6578 97.7975V97.7975Z" fill="#4A0E2F"/>
<path d="M66.6779 92.4875C66.6828 92.5541 66.6828 92.6209 66.6779 92.6875C66.4132 94.7427 65.4865 96.6557 64.0379 98.1375C64.0379 97.5475 63.9479 96.9675 63.9079 96.3875C62.6983 98.8861 61.0831 101.167 59.1279 103.137C59.3304 101.693 59.7484 100.288 60.3679 98.9675C61.6926 96.1662 63.9128 93.8861 66.6779 92.4875V92.4875Z" fill="#5F1234"/>
<path d="M73.9675 86.6575C74.0875 87.4442 74.2175 88.2342 74.3575 89.0275C72.5926 88.8869 70.8576 88.4894 69.2075 87.8475C70.2039 86.6548 71.4105 85.6549 72.7675 84.8975C75.5844 83.4558 78.7621 82.8717 81.9075 83.2175C84.1173 83.429 86.2678 84.0531 88.2475 85.0575C91.1528 86.643 93.5541 89.0131 95.1775 91.8975C87.9075 92.8075 80.3375 90.4575 73.9675 86.6575Z" fill="#5F1234"/>
<path d="M74.9078 140.838L67.2378 146.138L73.3978 159.318L81.9078 151.218L91.5378 159.318L96.9078 144.998L87.2878 140.068C87.2878 140.068 87.1778 146.068 81.5678 146.538C75.9578 147.008 74.9078 140.838 74.9078 140.838Z" fill="#6BAAA7"/>
<path d="M100.068 212.068C99.8679 207.188 97.9179 203.298 95.7179 203.388C93.5179 203.478 91.8879 207.508 92.0879 212.388C92.0831 212.481 92.0831 212.574 92.0879 212.668C92.3479 217.418 94.2679 221.148 96.4279 221.058C98.5879 220.968 100.128 217.238 100.068 212.608C100.078 212.438 100.078 212.258 100.068 212.068Z" fill="#526995"/>
<path d="M100.078 212.617C98.8115 212.068 97.4562 211.753 96.0776 211.688C94.6977 211.795 93.3456 212.133 92.0776 212.688C92.3376 217.438 94.2576 221.167 96.4176 221.077C98.5776 220.987 100.138 217.247 100.078 212.617Z" fill="white"/>
<g style="mix-blend-mode:multiply">
<path d="M96.7277 203.627C96.4201 203.464 96.076 203.382 95.7277 203.387C93.5177 203.477 91.8977 207.507 92.0977 212.387C92.0929 212.481 92.0929 212.574 92.0977 212.667C92.3577 217.417 94.2777 221.147 96.4377 221.057C96.7927 221.045 97.1379 220.938 97.4377 220.747C95.7177 219.857 94.3177 216.577 94.1077 212.587C94.1077 212.487 94.1077 212.397 94.1077 212.307C93.9077 208.197 95.0377 204.677 96.7277 203.627Z" fill="#E0E0E0"/>
</g>
<path d="M105.468 215.908C102.038 219.388 97.9776 220.908 96.4076 219.398C94.8376 217.888 96.3476 213.778 99.7776 210.298L99.9876 210.098C103.368 206.758 107.298 205.288 108.838 206.808C110.378 208.328 109.008 212.128 105.838 215.518L105.468 215.908Z" fill="white"/>
<path d="M105.848 215.517C104.535 215.072 103.312 214.394 102.238 213.517C101.31 212.512 100.55 211.364 99.9878 210.117C103.368 206.777 107.298 205.307 108.838 206.827C110.378 208.347 109.008 212.137 105.848 215.517Z" fill="#BD4761"/>
<g style="mix-blend-mode:multiply">
<path d="M97.3176 219.908C96.9753 219.819 96.6619 219.643 96.4076 219.398C94.8376 217.848 96.3476 213.778 99.7776 210.298L99.9876 210.098C103.368 206.758 107.298 205.288 108.838 206.808C109.088 207.058 109.27 207.367 109.368 207.708C107.488 207.208 104.258 208.708 101.368 211.508L101.168 211.698C98.3076 214.638 96.7776 217.998 97.3176 219.908Z" fill="#E0E0E0"/>
</g>
<path d="M68.5475 215.467C67.1575 210.777 67.7475 206.467 69.8675 205.857C71.9875 205.247 74.8675 208.517 76.2075 213.207C76.2075 213.297 76.2075 213.387 76.2775 213.477C77.5675 218.057 76.9575 222.207 74.8775 222.827C72.7975 223.447 70.1475 220.397 68.7075 215.997C68.6475 215.817 68.5975 215.647 68.5475 215.467Z" fill="#F3803D"/>
<path d="M68.7075 215.997C69.734 215.062 70.9238 214.323 72.2175 213.817C73.5422 213.477 74.9147 213.362 76.2775 213.477C77.5675 218.057 76.9575 222.207 74.8775 222.827C72.7975 223.447 70.1475 220.397 68.7075 215.997Z" fill="white"/>
<g style="mix-blend-mode:multiply">
<path d="M68.9878 206.408C69.2237 206.145 69.5287 205.955 69.8678 205.858C71.9878 205.228 74.8678 208.518 76.2078 213.208C76.2078 213.298 76.2078 213.388 76.2778 213.478C77.5678 218.058 76.9578 222.208 74.8778 222.828C74.5491 222.906 74.2065 222.906 73.8778 222.828C75.2278 221.428 75.4878 217.828 74.3978 214.018C74.3792 213.926 74.3558 213.836 74.3278 213.748C73.1178 209.818 70.9078 206.858 68.9878 206.408Z" fill="#E0E0E0"/>
</g>
<path d="M68.4479 210.857C72.5079 213.587 74.7979 217.277 73.5679 219.107C72.3379 220.937 68.0479 220.217 63.9979 217.487C63.9174 217.44 63.8405 217.386 63.7679 217.327C59.8479 214.627 57.6679 211.037 58.8779 209.237C60.0879 207.437 64.0679 208.087 67.9879 210.557L68.4479 210.857Z" fill="white"/>
<path d="M67.9879 210.558C67.7886 211.932 67.3449 213.259 66.6779 214.477C65.8669 215.577 64.8844 216.54 63.7679 217.328C59.8479 214.628 57.6679 211.038 58.8779 209.238C60.0879 207.438 64.0679 208.138 67.9879 210.558Z" fill="#BD4761"/>
<g style="mix-blend-mode:multiply">
<path d="M73.9079 218.137C73.8922 218.493 73.7817 218.839 73.5879 219.137C72.3579 220.967 68.0679 220.247 64.0179 217.517C63.9374 217.47 63.8605 217.416 63.7879 217.357C59.8679 214.657 57.6879 211.067 58.8979 209.267C59.0965 208.975 59.3691 208.74 59.6879 208.587C59.5379 210.527 61.6079 213.427 64.8979 215.697C64.9705 215.756 65.0474 215.81 65.1279 215.857C68.5279 218.137 72.1179 219.007 73.9079 218.137Z" fill="#E0E0E0"/>
</g>
<path d="M86.6776 215.647C82.4976 213.117 80.0376 209.547 81.1776 207.647C82.3176 205.747 86.6276 206.277 90.8176 208.797L91.0476 208.947C95.0476 211.467 97.4376 214.947 96.3176 216.797C95.1976 218.647 91.1876 218.197 87.1576 215.917L86.6776 215.647Z" fill="#8D964D"/>
<path d="M87.1577 215.927C87.2807 214.536 87.6604 213.18 88.2777 211.927C89.0373 210.788 89.9721 209.775 91.0477 208.927C95.0477 211.447 97.4377 214.927 96.3177 216.777C95.1977 218.627 91.1877 218.207 87.1577 215.927Z" fill="white"/>
<g style="mix-blend-mode:multiply">
<path d="M80.9077 208.657C80.9114 208.305 81.008 207.96 81.1877 207.657C82.3277 205.767 86.6377 206.287 90.8277 208.807L91.0577 208.957C95.0577 211.477 97.4477 214.957 96.3277 216.807C96.1401 217.105 95.8826 217.352 95.5777 217.527C95.5777 215.587 93.4277 212.787 90.0277 210.677C89.9524 210.62 89.872 210.57 89.7877 210.527C86.2477 208.387 82.6277 207.687 80.9077 208.657Z" fill="#E0E0E0"/>
</g>
<path d="M78.3875 216.868C82.5675 214.348 85.0375 210.768 83.8975 208.868C82.7575 206.968 78.4375 207.498 74.2575 210.028C74.1732 210.07 74.0928 210.12 74.0175 210.178C70.0175 212.688 67.6275 216.178 68.7475 218.018C69.8675 219.858 73.9075 219.438 77.9075 217.138L78.3875 216.868Z" fill="#6BAAA7"/>
<path d="M77.9077 217.138C77.7798 215.747 77.4003 214.392 76.7877 213.138C76.031 211.992 75.092 210.979 74.0077 210.138C70.0077 212.648 67.6177 216.138 68.7377 217.978C69.8577 219.818 73.9077 219.438 77.9077 217.138Z" fill="white"/>
<g style="mix-blend-mode:multiply">
<path d="M84.1775 209.878C84.1738 209.525 84.0772 209.18 83.8975 208.878C82.7575 206.988 78.4375 207.508 74.2575 210.038C74.1732 210.08 74.0928 210.13 74.0175 210.188C70.0175 212.698 67.6275 216.188 68.7475 218.028C68.9363 218.328 69.1977 218.575 69.5075 218.748C69.5075 216.808 71.6575 214.007 75.0575 211.897C75.1303 211.842 75.2072 211.792 75.2875 211.748C78.8175 209.618 82.4475 208.908 84.1775 209.878Z" fill="#E0E0E0"/>
</g>
<path d="M59.2979 214.617L62.6779 246.037H106.108L109.278 213.107L59.2979 214.617Z" fill="#B88B61"/>
<path d="M52.4077 240.617L41.9077 237.717C41.9077 237.717 37.7277 229.537 38.3377 228.087C38.9477 226.637 47.7177 214.737 50.0077 214.087C52.2977 213.437 59.2277 215.587 59.2077 215.967C59.1877 216.347 60.5577 223.967 60.5577 223.967L52.4077 240.617Z" fill="#E0E0E0"/>
<path d="M57.9076 238.047C57.9076 238.047 52.3676 240.177 51.3376 239.567C50.3076 238.957 45.9076 233.137 46.3676 231.237C46.8276 229.337 53.2576 219.617 54.5276 220.047C55.7976 220.477 61.9576 225.047 61.9576 225.047L57.9076 238.047Z" fill="#F3A080"/>
<path d="M82.9077 224.027C82.8077 225.877 70.2177 223.737 70.2177 223.737L68.4277 226.787L73.5777 228.137L79.2477 233.507C79.2477 233.507 78.7577 234.937 78.0577 236.667C78.0057 236.83 77.9388 236.987 77.8577 237.137C77.8577 237.137 77.8577 237.137 77.8577 237.137C77.8304 237.182 77.807 237.229 77.7877 237.277C77.7077 237.467 77.6177 237.687 77.5277 237.877C77.186 238.7 76.7953 239.502 76.3577 240.277C76.3063 240.363 76.2628 240.454 76.2277 240.547C75.9917 240.94 75.7312 241.318 75.4477 241.677C75.2423 241.969 74.9626 242.2 74.6377 242.347L69.4377 239.207C69.4377 239.207 61.5377 242.087 60.2877 241.877C59.7877 241.797 58.1177 240.327 56.2877 238.617L54.3777 236.747C54.3647 236.728 54.3477 236.71 54.3277 236.697L53.6577 236.037L54.7477 233.747L55.0277 233.177L55.1377 232.907L55.2477 232.647L58.9077 225.037L59.4177 224.707C60.0477 224.327 60.7977 223.897 61.6277 223.447C62.1577 223.167 62.7077 222.867 63.2877 222.577C65.2865 221.499 67.4228 220.699 69.6377 220.197C70.3637 220.039 71.1122 220.012 71.8477 220.117C76.2277 220.917 82.9777 222.187 82.9077 224.027Z" fill="#F3A080"/>
<path d="M78.0577 236.707L77.7877 237.367L77.6577 237.267C76.9477 236.707 75.9777 235.957 74.9077 235.177C73.9944 234.492 73.0242 233.887 72.0077 233.367L71.4477 233.107L71.0077 232.937L70.6177 232.787H71.0477H71.5577L72.2277 232.847C73.4962 233.039 74.7001 233.533 75.7377 234.287C76.6486 234.95 77.4342 235.769 78.0577 236.707V236.707Z" fill="#B54B57"/>
<path d="M76.3579 240.357L76.208 240.617L75.448 239.997C74.738 239.437 73.758 238.688 72.698 237.908C71.7799 237.236 70.8064 236.644 69.7879 236.137L69.228 235.878L68.7879 235.708L68.3979 235.557H68.8279H69.338L70.0079 235.628C71.2771 235.811 72.4821 236.302 73.518 237.057C74.4696 237.752 75.2806 238.62 75.908 239.617C76.118 239.897 76.2579 240.137 76.3579 240.357Z" fill="#B54B57"/>
<path d="M114.288 239.717L124.758 236.817C124.758 236.817 128.948 228.637 128.328 227.187C127.708 225.737 118.948 213.827 116.668 213.187C114.388 212.547 107.438 214.677 107.458 215.057C107.478 215.437 106.108 223.057 106.108 223.057L114.288 239.717Z" fill="#E0E0E0"/>
<path d="M108.838 237.137C108.838 237.137 114.378 239.267 115.398 238.657C116.418 238.047 120.738 232.267 120.328 230.337C119.918 228.407 113.428 218.707 112.158 219.147C110.888 219.587 104.728 224.087 104.728 224.087L108.838 237.137Z" fill="#F3A080"/>
<path d="M83.7976 223.137C83.9076 224.987 96.4976 222.847 96.4976 222.847L98.2776 225.897L93.1076 227.297L87.4476 232.667C87.4476 232.667 87.9376 234.097 88.6376 235.817C88.6887 235.979 88.7523 236.136 88.8276 236.287L88.8976 236.437C88.9676 236.627 89.0576 236.837 89.1476 237.027C89.4935 237.852 89.884 238.656 90.3176 239.437C90.3176 239.517 90.4176 239.617 90.4576 239.697C90.6903 240.095 90.9509 240.476 91.2376 240.837C91.44 241.132 91.7205 241.364 92.0476 241.507L97.2476 238.367C97.2476 238.367 105.138 241.247 106.388 241.027C106.888 240.947 108.568 239.487 110.388 237.767C111.028 237.157 111.678 236.507 112.308 235.897V235.847C112.518 235.627 112.748 235.407 112.978 235.197L111.888 232.897L111.608 232.327L111.488 232.057L111.378 231.797L107.838 224.137L107.318 223.817C106.698 223.437 105.948 223.007 105.108 222.547C104.588 222.277 104.028 221.967 103.458 221.687C101.461 220.603 99.3238 219.799 97.1076 219.297C96.3776 219.144 95.6267 219.117 94.8876 219.217C90.4676 220.007 83.7176 221.277 83.7976 223.137Z" fill="#F3A080"/>
<path d="M88.6377 235.807C88.7177 236.017 88.8177 236.238 88.9077 236.458L89.0377 236.367C89.7477 235.797 90.7177 235.048 91.7777 234.268C92.6943 233.582 93.6678 232.977 94.6877 232.458L95.2377 232.197L95.6877 232.027L96.0777 231.878H95.6477H95.1377L94.4677 231.938C93.2 232.126 91.9963 232.617 90.9577 233.367C90.0428 234.033 89.2567 234.86 88.6377 235.807V235.807Z" fill="#B54B57"/>
<path d="M90.3379 239.447C90.3379 239.537 90.4379 239.627 90.4779 239.717L91.2479 239.097C91.9579 238.527 92.9279 237.787 93.9979 236.997C94.9136 236.316 95.8835 235.711 96.8979 235.187L97.4579 234.927L97.9079 234.767L98.2979 234.607H97.8579H97.3479L96.6779 234.667C95.4137 234.858 94.2135 235.348 93.1779 236.097C92.2056 236.817 91.3806 237.717 90.7479 238.747C90.5679 238.997 90.4379 239.247 90.3379 239.447Z" fill="#B54B57"/>
<path d="M45.0078 159.917C45.0078 159.917 54.3778 171.637 54.3778 173.137C54.3778 174.637 48.7278 185.657 48.6278 191.197C48.5278 196.737 54.3778 208.137 54.3778 208.137C54.3778 208.137 49.7978 192.437 50.2378 191.307C50.6778 190.177 56.6278 174.717 56.9078 173.077C57.1878 171.437 45.0078 159.917 45.0078 159.917Z" fill="#E0E0E0"/>
<path d="M120.358 160.227C120.358 160.227 110.988 171.947 110.988 173.487C110.988 175.027 116.638 186.007 116.738 191.547C116.838 197.087 110.988 208.477 110.988 208.477C110.988 208.477 115.568 192.777 115.128 191.647C114.688 190.517 108.728 175.027 108.428 173.387C108.128 171.747 120.358 160.227 120.358 160.227Z" fill="#E0E0E0"/>
<path d="M109.278 182.458H89.2979V193.598H109.278V182.458Z" fill="#6BAAA7"/>
<path d="M98.1075 184.587H91.2275V191.467H98.1075V184.587Z" fill="#8BCCCA"/>
<path d="M107.348 184.587H100.018V186.217H107.348V184.587Z" fill="#8BCCCA"/>
<path d="M107.348 187.208H100.018V188.838H107.348V187.208Z" fill="#8BCCCA"/>
<path d="M107.348 189.828H100.018V191.458H107.348V189.828Z" fill="#8BCCCA"/>
<path d="M100.388 179.017H98.1777V183.367H100.388V179.017Z" fill="#434356"/>
<path d="M65.5579 186.227H62.1879V182.857H58.9679V186.227H55.6079V189.447H58.9679V192.817H62.1879V189.447H65.5579V186.227Z" fill="#6BAAA7"/>
<path d="M100.568 162.397C101.767 166.179 103.268 169.857 105.058 173.397V173.397C104.358 173.307 91.2776 171.497 88.1176 165.507C84.8576 159.347 86.6176 142.067 87.2776 140.087C87.9376 138.107 94.5676 130.477 94.5676 130.477L93.5676 126.547L94.4976 124.547L95.4076 122.547C95.4076 122.547 102.578 127.137 106.268 134.017C109.958 140.897 99.2576 157.687 100.568 162.397Z" fill="#38102B"/>
<path d="M100.568 162.398C101.767 166.179 103.269 169.857 105.058 173.398V173.398C104.468 173.138 95.4679 169.138 93.9079 167.228C92.3479 165.318 92.9079 147.428 92.9079 144.228C92.9079 141.028 98.9079 133.718 97.5279 130.498C96.6358 128.445 95.6344 126.442 94.5279 124.498L94.8579 123.778L95.4379 122.508C95.4379 122.508 102.608 127.098 106.298 133.978C109.988 140.858 99.2579 157.688 100.568 162.398Z" fill="#4A0E2F"/>
<path d="M100.568 162.397C101.767 166.179 103.269 169.857 105.058 173.397C105.058 173.397 98.6979 167.537 97.9779 166.007C97.2579 164.477 96.6479 155.237 97.0579 152.357C97.4679 149.477 104.238 136.967 104.058 135.147C103.898 133.677 97.4079 126.527 94.8779 123.787L95.4579 122.517C95.4579 122.517 102.628 127.107 106.318 133.987C110.008 140.867 99.2579 157.687 100.568 162.397Z" fill="#5F1234"/>
<path d="M130.938 91.1875L110.048 105.658L133.378 103.267L130.938 91.1875Z" fill="#FFB600"/>
<path d="M102.628 85.9675L104.428 102.777L110.458 88.3975L102.628 85.9675Z" fill="#FFB600"/>
<path d="M126.068 115.897L107.528 113.667L121.518 123.727L126.068 115.897Z" fill="#FFB600"/>
</svg>
