<svg width="771" height="829" viewBox="0 0 771 829" fill="none" xmlns="http://www.w3.org/2000/svg">
<rect y="0.36499" width="770.624" height="828.635" fill="white" fill-opacity="0.5"/>
<mask id="mask0" mask-type="alpha" maskUnits="userSpaceOnUse" x="1" y="0" width="721" height="830">
<rect x="1.77545" y="0.36525" width="720" height="828.635" fill="#E1E1E1"/>
</mask>
<g mask="url(#mask0)">
</g>
<mask id="mask1" mask-type="alpha" maskUnits="userSpaceOnUse" x="1" y="0" width="721" height="830">
<rect x="1.77545" y="0.36525" width="720" height="828.635" fill="#E1E1E1"/>
</mask>
<g mask="url(#mask1)">
<path d="M273.013 768.26C238.494 776.46 203.156 780.633 167.694 780.699C132.232 780.633 96.8941 776.46 62.3747 768.26C96.8954 760.068 132.232 755.899 167.694 755.833C203.155 755.899 238.493 760.068 273.013 768.26Z" fill="#CCCCCC"/>
<path d="M200.606 617.443C200.606 617.443 214.192 643.864 214.996 654.509C215.404 660.051 219.393 733.4 219.393 733.4H202.357C202.357 733.4 185.243 643.398 180.964 634.135C179.042 629.949 175.066 611.475 171.288 592.444C181.228 591.447 191.035 589.945 200.777 588.124C200.685 604.152 200.606 617.443 200.606 617.443Z" fill="#474747"/>
<path d="M156.978 593.52C156.688 607.967 156.372 620.433 156.109 621.908C156.109 621.908 162.152 639.89 164.008 649.339C165.324 656.25 158.531 741.892 158.531 741.892H141.154C141.154 741.892 135.203 635.996 132.912 629.324C131.859 626.254 129.292 610.718 127.041 593.068C136.999 593.891 147 594.041 156.978 593.52Z" fill="#474747"/>
<path d="M200.606 617.443C200.606 617.443 214.192 643.863 214.996 654.509C215.404 660.051 219.393 733.399 219.393 733.399H216.615C215.548 714.793 211.494 654.496 210.269 653.26C208.808 651.784 193.629 614.718 193.629 614.718C193.629 614.718 194.155 603.661 194.643 589.307C196.709 588.948 198.763 588.576 200.817 588.191C200.685 604.152 200.606 617.443 200.606 617.443Z" fill="#2C2C2C"/>
<path d="M156.109 621.895C156.109 621.895 162.151 639.877 164.008 649.326C165.324 656.237 158.531 741.879 158.531 741.879H154.621L159.795 654.257L151.067 619.941L151.264 593.733C153.173 593.733 155.082 593.6 156.991 593.507C156.688 607.954 156.372 620.42 156.109 621.895Z" fill="#2C2C2C"/>
<path d="M107.78 761.694C107.819 761.1 108.006 760.525 108.324 760.023C108.641 759.522 109.079 759.109 109.597 758.824C113.191 757.029 126.396 751.461 129.95 748.351C132.715 745.932 135.111 740.736 136.045 738.53L160.73 739.473C162.23 746.318 163.363 759.515 163.507 762.266L107.78 761.694Z" fill="#845652"/>
<path d="M107.688 767.688L163.415 768.26L163.507 762.266L107.78 761.694L107.688 767.688Z" fill="#683534"/>
<path d="M134.624 750.079C134.624 750.145 134.624 750.225 134.729 750.291C134.992 750.823 135.164 751.62 134.505 751.939C134.16 752.059 133.785 752.059 133.439 751.939C132.225 751.634 131.072 751.122 130.029 750.424C128.778 749.78 127.699 748.841 126.883 747.687C126.714 747.438 126.628 747.142 126.637 746.84C126.645 746.539 126.749 746.248 126.932 746.01C127.115 745.772 127.368 745.599 127.655 745.516C127.942 745.432 128.248 745.443 128.528 745.547C131.075 746.183 133.267 747.813 134.624 750.079Z" fill="#683534"/>
<path d="M130.385 753.242L130.49 753.454C130.766 753.986 130.924 754.783 130.279 755.102C129.929 755.222 129.55 755.222 129.2 755.102C127.984 754.803 126.83 754.29 125.79 753.587C124.555 752.966 123.485 752.054 122.67 750.929C121.906 749.6 122.999 748.497 124.316 748.803C126.835 749.425 129.014 751.018 130.385 753.242Z" fill="#683534"/>
<path d="M125.198 755.315C125.238 755.379 125.273 755.445 125.303 755.514C125.566 756.046 125.737 756.843 125.079 757.162C124.734 757.282 124.358 757.282 124.013 757.162C122.8 756.862 121.646 756.354 120.603 755.661C119.371 755.034 118.302 754.123 117.483 753.003C116.719 751.673 117.812 750.57 119.129 750.876C121.65 751.496 123.829 753.09 125.198 755.315Z" fill="#683534"/>
<path d="M194.537 763.754C194.169 767.542 210.414 776.021 213.376 774.905C216.338 773.788 228.134 765.947 229.174 760.924C229.53 759.342 228.924 755.94 227.858 752.046C225.699 743.58 221.71 732.708 221.71 732.708L198.948 732.469C198.948 732.469 196.42 749.162 195.143 758.186C194.906 760.844 194.616 762.904 194.537 763.754Z" fill="#845652"/>
<path d="M194.537 763.754C194.169 767.542 210.414 776.021 213.376 774.905C216.338 773.788 228.134 765.947 229.174 760.924C229.53 759.342 228.924 755.94 227.858 752.046C223.579 756.883 216.641 763.794 211.81 763.754C207.781 763.754 200.751 760.831 195.143 758.186C194.906 760.844 194.616 762.904 194.537 763.754Z" fill="#683534"/>
<path d="M214.64 741.134C213.667 741.93 212.567 742.555 211.388 742.982C210.132 743.589 208.752 743.885 207.36 743.846C207.044 743.855 206.734 743.756 206.482 743.564C206.229 743.373 206.048 743.101 205.968 742.792C205.889 742.483 205.916 742.157 206.044 741.865C206.172 741.574 206.395 741.335 206.675 741.188C208.693 739.532 211.275 738.744 213.863 738.995H214.1C214.68 739.101 215.417 739.46 215.272 740.164C215.177 740.551 214.954 740.894 214.64 741.134Z" fill="#683534"/>
<path d="M207.32 749.175C207.009 749.175 206.707 749.072 206.461 748.88C206.214 748.689 206.037 748.421 205.958 748.117C205.878 747.814 205.9 747.492 206.02 747.203C206.141 746.913 206.352 746.672 206.623 746.517C208.641 744.895 211.202 744.123 213.771 744.364H213.995C214.574 744.47 215.311 744.829 215.167 745.534C215.063 745.887 214.845 746.196 214.548 746.411C213.575 747.207 212.475 747.831 211.296 748.258C210.057 748.866 208.698 749.179 207.32 749.175Z" fill="#683534"/>
<path d="M207.952 752.285C209.972 750.633 212.552 749.846 215.14 750.092H215.377C215.943 750.198 216.694 750.557 216.536 751.262C216.434 751.616 216.215 751.925 215.917 752.139C214.944 752.935 213.844 753.559 212.665 753.986C211.409 754.591 210.028 754.887 208.637 754.85C208.349 754.828 208.075 754.716 207.853 754.53C207.631 754.344 207.471 754.093 207.396 753.812C207.321 753.531 207.334 753.233 207.434 752.959C207.533 752.686 207.715 752.45 207.952 752.285Z" fill="#683534"/>
<path d="M234.835 638.627C220.643 644.754 174.842 635.345 174.842 635.345L167.97 614.891L163.468 633.71C158.966 639.438 117.18 640.913 117.18 640.913L135.414 463.276C135.414 463.276 125.461 453.335 123.434 445.122C121.406 436.909 132.491 403.417 132.491 403.417V395.603L143.839 391.151L157.162 385.941L177.857 385.117L198.921 389.396C198.921 389.396 198.921 389.649 199.013 390.114C199.882 396.666 206.386 445.561 206.214 449.003C205.872 452.644 234.835 638.627 234.835 638.627Z" fill="white"/>
<path d="M198.921 390.18C198.89 392.549 198.445 394.893 197.605 397.105C195.656 400.573 186.744 407.232 186.744 407.232C186.744 407.232 189.126 409.345 187.968 413.877C186.809 418.409 170.709 430.051 170.709 430.051C170.709 430.051 153.831 421.811 153.989 420.376C154.147 418.94 156.464 411.976 156.464 411.976C156.464 411.976 149.974 411.378 147.499 409.172C145.853 407.724 144.537 397.782 143.839 391.164L157.162 385.941L177.857 385.117L198.921 389.396C198.921 389.396 198.868 389.649 198.921 390.18Z" fill="#E0E0E0"/>
<path d="M190.087 530.02L186.638 537.077L211.27 550.035L214.074 543.961L190.087 530.02Z" fill="#E0E0E0"/>
<path d="M151.198 534.937L154.055 540.745L133.755 551.417L131.451 546.42L151.198 534.937Z" fill="#E0E0E0"/>
<path d="M157.162 385.941L149.698 388.851C149.698 388.851 168.128 429.692 170.761 430.051C173.394 430.41 188.758 387.336 188.758 387.336L177.831 385.117L157.162 385.941Z" fill="#8BCCCA"/>
<path d="M167.589 607.94C167.589 607.94 162.323 561.85 161.704 553.942C161.085 546.034 167.589 503.944 167.589 503.944L165.719 555.949L167.589 607.94Z" fill="#E0E0E0"/>
<path d="M132.491 395.603C132.491 395.603 119.129 400.919 117.233 403.79C115.337 406.66 99.1179 488.847 100.329 492.98C101.54 497.113 113.784 508.928 116.377 510.563C118.971 512.198 164.126 521.62 164.126 521.62L167.589 501.951L138.731 489.139L142.154 421.598L132.491 395.603Z" fill="white"/>
<path d="M198.829 389.383C198.829 389.383 221.631 397.238 223.54 400.108C225.448 402.979 241.286 488.887 240.075 492.98C238.863 497.073 226.62 508.928 224.027 510.563C221.433 512.198 176.264 521.62 176.264 521.62L172.815 501.951L201.62 489.139L198.197 421.598L198.829 389.383Z" fill="white"/>
<path d="M171.406 380.08C167.507 380.714 163.509 380.062 160.006 378.219C160.216 373.621 160.203 368.079 160.203 368.079L175.593 368.305C175.446 371.485 175.485 374.671 175.711 377.847C174.521 378.997 173.025 379.772 171.406 380.08Z" fill="#EA7C6F"/>
<path d="M174.276 389.649C175.724 388.352 176.948 386.82 177.897 385.117C176.672 384.107 176.093 381.13 175.817 377.9C174.633 379.045 173.148 379.821 171.538 380.133C167.59 380.781 163.541 380.109 160.006 378.219C159.981 380.09 159.783 381.954 159.413 383.788C158.847 384.679 158.074 385.418 157.162 385.941C159.874 388.705 162.81 391.164 166.377 392.041C169.01 392.759 171.722 391.43 174.276 389.649Z" fill="#F3A080"/>
<path d="M150.961 360.331C149.568 360.224 148.217 359.799 147.011 359.087C145.804 358.376 144.774 357.397 143.997 356.224C143.724 355.84 143.474 355.441 143.247 355.028C142.194 353.034 141.377 345.924 143.523 344.09C145.037 342.761 146.327 344.382 146.972 345.419C147.133 345.678 147.274 345.949 147.394 346.23L150.961 360.331Z" fill="#F8BF92"/>
<path d="M150.961 360.331C149.568 360.224 148.217 359.799 147.011 359.087C145.804 358.376 144.774 357.397 143.997 356.224L143.707 355.626C142.654 353.646 141.838 346.535 143.984 344.688C145.208 343.638 146.288 344.489 146.999 345.419C147.159 345.678 147.3 345.949 147.42 346.23L150.961 360.331Z" fill="#F3A080"/>
<path d="M143.286 349.805C143.238 350.391 143.319 350.981 143.523 351.533C144.339 353.872 146.354 355.52 148.263 357.101C147.649 355.969 147.332 354.697 147.341 353.406C147.367 352.964 147.367 352.52 147.341 352.077C147.223 350.31 143.694 346.323 143.286 349.805Z" fill="#EA7C6F"/>
<path d="M149.263 357.713H149.145L148.842 357.513C148.482 357.243 148.159 356.925 147.881 356.57C147.478 356.015 147.183 355.388 147.012 354.722C146.795 353.89 146.795 353.016 147.012 352.184C147.041 352.076 147.076 351.969 147.117 351.865V351.785V351.652L146.973 351.386C146.775 351.054 146.564 350.735 146.354 350.443C146.153 350.166 145.937 349.9 145.709 349.645C145.523 349.418 145.316 349.208 145.09 349.021C144.924 348.872 144.718 348.775 144.498 348.742C144.323 348.728 144.149 348.78 144.01 348.888C143.913 348.947 143.842 349.042 143.813 349.154C143.807 349.193 143.807 349.234 143.813 349.273C143.804 349.234 143.804 349.193 143.813 349.154C143.822 349.023 143.878 348.9 143.971 348.808C144.112 348.656 144.305 348.561 144.511 348.542C144.79 348.527 145.066 348.601 145.301 348.755C145.569 348.925 145.82 349.121 146.051 349.34C146.317 349.58 146.568 349.838 146.801 350.111C147.059 350.413 147.297 350.733 147.512 351.067L147.683 351.333L147.762 351.479L147.868 351.665L147.947 351.812C147.947 351.812 147.947 351.905 147.947 351.958L147.868 352.157C147.829 352.252 147.798 352.35 147.776 352.45C147.571 353.18 147.535 353.949 147.67 354.696C147.771 355.315 147.976 355.913 148.276 356.463C148.486 356.844 148.742 357.197 149.039 357.513C149.12 357.605 149.208 357.689 149.303 357.766L149.263 357.713Z" fill="#B54B57"/>
<path d="M186.809 357.447C188.163 357.114 189.424 356.476 190.498 355.58C191.572 354.685 192.431 353.555 193.01 352.277C193.234 351.812 193.418 351.373 193.563 350.948C194.287 348.821 193.971 341.645 191.562 340.196C189.877 339.159 188.85 340.94 188.376 342.096C188.26 342.382 188.163 342.675 188.086 342.974L186.809 357.447Z" fill="#F8BF92"/>
<path d="M186.809 357.447C188.163 357.114 189.424 356.476 190.498 355.581C191.572 354.685 192.431 353.556 193.01 352.277L193.234 351.639C193.958 349.512 193.642 342.336 191.233 340.887C189.916 340.05 188.929 341.06 188.376 342.083C188.26 342.369 188.163 342.662 188.086 342.96L186.809 357.447Z" fill="#F3A080"/>
<path d="M192.707 345.831C192.839 346.404 192.839 346.999 192.707 347.572C192.273 350.004 190.548 351.984 188.903 353.832C189.339 352.616 189.453 351.305 189.232 350.031C189.153 349.592 189.047 349.154 189.008 348.702C188.903 346.908 191.786 342.509 192.707 345.831Z" fill="#EA7C6F"/>
<path d="M188.113 354.576L188.205 354.496L188.481 354.257C188.797 353.936 189.064 353.568 189.271 353.167C189.634 352.485 189.837 351.727 189.865 350.953C189.892 350.179 189.743 349.409 189.429 348.702C189.385 348.6 189.332 348.502 189.271 348.409V348.33V348.25V348.117L189.377 347.838C189.521 347.466 189.679 347.12 189.837 346.801C189.995 346.482 190.18 346.19 190.351 345.911C190.506 345.66 190.678 345.421 190.864 345.193C191.006 345.02 191.193 344.891 191.404 344.821C191.578 344.785 191.758 344.809 191.917 344.887C192.018 344.942 192.101 345.025 192.154 345.127C192.157 345.166 192.157 345.206 192.154 345.246C192.158 345.202 192.158 345.158 192.154 345.113C192.116 344.993 192.043 344.886 191.944 344.808C191.776 344.673 191.565 344.607 191.351 344.622C191.076 344.655 190.818 344.776 190.614 344.967C190.373 345.171 190.157 345.403 189.969 345.658C189.746 345.938 189.54 346.231 189.35 346.535C189.14 346.875 188.955 347.231 188.797 347.599C188.746 347.692 188.702 347.79 188.666 347.891V348.037L188.587 348.25V348.396L188.666 348.529L188.771 348.728C188.823 348.813 188.867 348.902 188.903 348.994C189.217 349.681 189.375 350.43 189.363 351.187C189.361 351.822 189.25 352.451 189.034 353.048C188.888 353.455 188.693 353.843 188.455 354.204L188.244 354.496L188.113 354.576Z" fill="#B54B57"/>
<path d="M188.126 341.685C188.126 341.685 188.666 355.599 185.493 361.048C182.781 365.594 178.989 372.81 172.328 375.668C171.004 376.227 169.536 376.344 168.142 376C161.032 374.219 156.161 367.707 152.778 363.64C148.723 358.789 147.065 345.034 147.065 345.034C146.959 344.117 146.893 343.226 146.828 342.376C145.037 316.021 165.364 315.835 165.364 315.835C165.364 315.835 185.282 314.426 188.007 340.329L188.126 341.685Z" fill="#F8BF92"/>
<path d="M188.007 340.329C188.007 342.562 188.218 354.403 185.296 359.321C182.584 363.879 178.792 371.082 172.052 373.94C170.733 374.506 169.268 374.623 167.878 374.272C160.769 372.491 155.898 365.979 152.502 361.912C148.46 357.061 146.801 343.306 146.801 343.306C146.801 342.987 146.801 342.668 146.696 342.362C145.037 316.021 165.364 315.835 165.364 315.835C165.364 315.835 185.282 314.426 188.007 340.329Z" fill="#F3A080"/>
<path d="M152.686 341.857C153.244 342.708 154.069 343.345 155.029 343.665C155.176 343.438 155.37 343.246 155.597 343.101C155.824 342.957 156.08 342.863 156.346 342.827C157.662 342.734 158.887 344.409 158.979 346.562C159.071 348.715 158.176 350.549 156.846 350.655C155.516 350.762 154.305 349.087 154.213 346.921C154.173 346.273 154.235 345.622 154.397 344.994C153.576 344.109 152.987 343.031 152.686 341.857Z" fill="#1D1E1E"/>
<path d="M156.807 347.08C155.863 347.503 154.812 347.619 153.8 347.411C152.788 347.204 151.865 346.684 151.159 345.924C152.102 345.499 153.154 345.383 154.166 345.59C155.178 345.797 156.102 346.318 156.807 347.08Z" fill="white"/>
<path d="M181.267 339.558C180.838 340.465 180.119 341.2 179.226 341.645C179.046 341.434 178.821 341.267 178.568 341.157C178.315 341.046 178.041 340.995 177.765 341.007C176.449 341.113 175.501 342.96 175.698 345.127C175.896 347.293 177.107 348.941 178.437 348.821C179.766 348.702 180.701 346.854 180.517 344.701C180.473 344.073 180.321 343.457 180.069 342.881C180.732 341.889 181.143 340.748 181.267 339.558Z" fill="#1D1E1E"/>
<path d="M178.015 345.366C179.014 345.639 180.072 345.588 181.041 345.221C182.009 344.854 182.839 344.188 183.413 343.319C182.408 343.094 181.361 343.149 180.385 343.479C179.438 343.876 178.618 344.529 178.015 345.366Z" fill="white"/>
<path d="M167.602 354.616C168.13 354.59 168.655 354.712 169.12 354.967C169.584 355.223 169.97 355.602 170.235 356.064C170.309 356.173 170.342 356.305 170.327 356.437C170.327 356.623 170.09 356.729 169.906 356.795C168.616 357.286 167.24 357.499 165.864 357.42C163.363 357.261 166.377 354.669 167.602 354.616Z" fill="#EA7C6F"/>
<path d="M166.456 356.729V356.317C166.456 356.184 166.456 356.025 166.456 355.839C166.456 355.653 166.456 355.44 166.456 355.214C166.456 354.988 166.456 354.736 166.456 354.47C166.456 354.204 166.456 353.912 166.456 353.619C166.456 353.034 166.351 352.383 166.298 351.705C166.246 351.028 166.154 350.376 166.088 349.805C166.088 349.513 166.009 349.233 165.969 348.968C165.93 348.702 165.89 348.449 165.851 348.223C165.811 347.997 165.772 347.798 165.746 347.612C165.719 347.426 165.746 347.267 165.653 347.134V346.735L165.903 347.054C166.004 347.181 166.096 347.314 166.18 347.453C166.285 347.612 166.404 347.798 166.522 348.011C166.641 348.223 166.759 348.463 166.865 348.715C166.97 348.968 167.088 349.26 167.194 349.552C167.357 350.236 167.45 350.936 167.47 351.639C167.543 352.328 167.543 353.023 167.47 353.712C167.47 354.031 167.378 354.324 167.312 354.603C167.255 354.859 167.185 355.112 167.101 355.36C167.041 355.569 166.967 355.773 166.878 355.972C166.822 356.122 166.756 356.269 166.68 356.41C166.614 356.522 166.539 356.629 166.456 356.729Z" fill="#DD5B67"/>
<path d="M177.16 359.44C177.16 359.44 170.445 359.706 160.796 364.65C160.796 364.65 165.008 369.647 170.854 367.454C172.53 366.828 174.004 365.749 175.115 364.336C176.227 362.924 176.934 361.23 177.16 359.44Z" fill="white"/>
<path d="M186.941 354.004C186.941 354.004 186.941 353.685 187.033 353.127V352.662C187.033 352.489 187.033 352.317 187.033 352.117C187.033 351.918 187.125 351.267 187.152 350.788C187.152 350.536 187.152 350.283 187.152 350.017C187.152 349.752 187.152 349.459 187.152 349.18C187.152 348.595 187.218 347.984 187.257 347.346C187.257 346.017 187.362 344.688 187.389 343.16C187.415 341.631 187.389 340.276 187.389 338.973C187.389 338.335 187.389 337.711 187.389 337.139V336.289C187.389 336.023 187.389 335.757 187.389 335.518C187.389 335.013 187.389 334.561 187.297 334.189C187.297 333.989 187.297 333.803 187.297 333.631V333.165C187.297 332.594 187.297 332.275 187.297 332.275C187.297 332.275 187.428 332.554 187.639 333.072L187.823 333.498C187.823 333.67 187.942 333.843 188.021 334.029C188.1 334.215 188.31 334.84 188.455 335.358C188.521 335.598 188.6 335.863 188.666 336.129C188.732 336.395 188.811 336.687 188.876 336.98C189.021 337.564 189.14 338.202 189.258 338.88C189.477 340.349 189.582 341.833 189.574 343.319C189.532 344.775 189.369 346.224 189.087 347.652C188.955 348.316 188.824 348.981 188.666 349.512L188.429 350.336L188.192 351.081C188.034 351.559 187.863 351.971 187.718 352.33L187.507 352.835L187.323 353.247C187.086 353.739 186.941 354.004 186.941 354.004Z" fill="#38102B"/>
<path d="M151.001 361.115C151.001 361.115 150.843 360.849 150.593 360.357C150.343 359.866 149.974 359.161 149.566 358.258C149.158 357.354 148.723 356.237 148.249 354.988C147.79 353.618 147.399 352.225 147.078 350.815C146.773 349.398 146.545 347.965 146.393 346.522C146.248 345.193 146.196 343.971 146.169 342.947C146.143 341.924 146.169 341.113 146.169 340.542C146.169 339.97 146.169 339.665 146.169 339.665C146.169 339.665 146.262 339.957 146.406 340.502C146.551 341.047 146.775 341.831 147.025 342.801C147.275 343.771 147.565 344.901 147.881 346.177C148.197 347.453 148.513 348.835 148.842 350.297C149.171 351.759 149.447 353.167 149.684 354.443C149.921 355.719 150.158 356.902 150.329 357.885C150.501 358.869 150.645 359.68 150.738 360.238C150.83 360.796 151.001 361.115 151.001 361.115Z" fill="#38102B"/>
<path d="M156.899 355.134C156.635 356.064 154.147 356.171 151.356 355.373C148.565 354.576 146.512 353.141 146.775 352.21C147.038 351.28 149.526 351.16 152.317 351.971C155.108 352.782 157.162 354.191 156.899 355.134Z" fill="#EA7C6F"/>
<path d="M189.429 348.595C189.864 349.459 188.113 351.253 185.48 352.582C182.847 353.911 180.438 354.297 179.99 353.433C179.542 352.569 181.306 350.775 183.939 349.446C186.572 348.117 188.982 347.732 189.429 348.595Z" fill="#EA7C6F"/>
<path d="M167.51 327.451L170.419 331.916C162.283 330.042 157.873 328.74 153.41 321.616C153.515 326.886 152.493 332.116 150.414 336.95C148.335 341.785 145.248 346.111 141.364 349.632C140.719 347.439 140.048 345.18 139.653 342.92C138.442 337.192 138.178 331.371 140.627 326.122C142.38 322.381 145.336 319.35 149.013 317.523C150.237 313.253 153.074 309.64 156.912 307.462C160.64 305.533 164.848 304.757 169.01 305.229C171.92 305.511 174.751 306.34 177.357 307.675C182.654 310.695 186.672 315.57 188.652 321.377C189.147 322.813 189.538 324.283 189.824 325.776C191.259 332.607 192.168 342.415 192.168 342.415C192.168 342.415 174.395 332.474 167.51 327.451Z" fill="#38102B"/>
<path d="M147.367 336.581C147.367 336.581 157.768 332.249 160.374 335.252C161.902 337.006 160.23 337.578 160.23 337.578L147.367 336.581Z" fill="#4A0E2F"/>
<path d="M185.651 333.285C185.651 333.285 174.711 330.627 172.605 334.069C171.367 336.049 173.105 336.342 173.105 336.342L185.651 333.285Z" fill="#4A0E2F"/>
<path d="M177.897 324.607C171.713 323.021 165.741 320.687 160.111 317.656C160.202 319.153 160.467 320.634 160.901 322.068C157.443 320.884 154.131 319.306 151.027 317.363C150.928 322.758 149.376 328.023 146.538 332.594C146.585 330.918 146.126 329.268 145.221 327.863C145.458 328.235 144.866 330.135 144.787 330.6C144.603 331.557 144.405 332.501 144.181 333.445C143.477 336.727 142.066 339.812 140.048 342.482C139.929 342.615 139.824 342.761 139.705 342.92C138.828 339.237 138.605 335.426 139.047 331.664C139.314 329.744 139.864 327.876 140.68 326.122C142.431 322.414 145.353 319.398 148.987 317.549H149.066C149.655 315.27 150.759 313.16 152.291 311.383C153.603 309.798 155.191 308.469 156.978 307.462C160.686 305.546 164.87 304.77 169.01 305.229C171.92 305.511 174.751 306.34 177.357 307.675C181.182 309.782 184.343 312.932 186.48 316.765C187.346 318.23 188.074 319.774 188.653 321.377C189.147 322.813 189.538 324.283 189.824 325.776C185.814 325.943 181.8 325.55 177.897 324.607Z" fill="#4A0E2F"/>
<path d="M148.96 317.55C148.967 317.638 148.967 317.727 148.96 317.815C148.612 320.547 147.392 323.089 145.485 325.059C145.485 324.274 145.366 323.504 145.314 322.733C143.721 326.053 141.595 329.085 139.021 331.704C139.287 329.784 139.838 327.916 140.653 326.162C142.397 322.439 145.32 319.408 148.96 317.55Z" fill="#5F1234"/>
<path d="M158.558 309.801C158.716 310.847 158.887 311.897 159.071 312.951C156.747 312.764 154.463 312.236 152.291 311.383C153.603 309.798 155.191 308.469 156.978 307.462C160.686 305.546 164.87 304.77 169.011 305.229C171.92 305.511 174.751 306.34 177.357 307.675C181.182 309.782 184.343 312.932 186.48 316.765C176.909 317.975 166.944 314.852 158.558 309.801Z" fill="#5F1234"/>
<path d="M159.795 381.808L149.698 388.851L157.807 406.368L169.01 395.603L181.688 406.368L188.758 387.336L176.093 380.784C176.093 380.784 175.948 388.758 168.563 389.383C161.177 390.008 159.795 381.808 159.795 381.808Z" fill="#6BAAA7"/>
<path d="M192.918 476.474C192.655 469.988 190.088 464.818 187.191 464.938C184.295 465.057 182.149 470.413 182.412 476.899C182.406 477.023 182.406 477.147 182.412 477.271C182.755 483.584 185.282 488.541 188.126 488.421C190.97 488.302 192.997 483.345 192.918 477.191C192.931 476.965 192.931 476.726 192.918 476.474Z" fill="#526995"/>
<path d="M192.931 477.205C191.264 476.474 189.48 476.056 187.665 475.969C185.848 476.111 184.068 476.56 182.399 477.298C182.741 483.61 185.269 488.568 188.113 488.448C190.956 488.328 193.01 483.358 192.931 477.205Z" fill="white"/>
<g style="mix-blend-mode:multiply">
<path d="M188.521 465.257C188.116 465.04 187.663 464.93 187.204 464.938C184.295 465.057 182.162 470.413 182.425 476.899C182.419 477.023 182.419 477.147 182.425 477.271C182.768 483.584 185.295 488.541 188.139 488.421C188.606 488.404 189.061 488.262 189.456 488.009C187.191 486.827 185.348 482.467 185.072 477.165C185.072 477.032 185.072 476.912 185.072 476.792C184.808 471.33 186.296 466.652 188.521 465.257Z" fill="#E0E0E0"/>
</g>
<path d="M200.027 481.577C195.511 486.202 190.166 488.222 188.1 486.215C186.033 484.208 188.021 478.746 192.536 474.121L192.813 473.855C197.262 469.417 202.436 467.463 204.464 469.483C206.491 471.503 204.687 476.553 200.514 481.059L200.027 481.577Z" fill="white"/>
<path d="M200.527 481.059C198.799 480.466 197.189 479.566 195.775 478.401C194.553 477.065 193.553 475.539 192.813 473.882C197.262 469.443 202.436 467.489 204.464 469.51C206.491 471.53 204.687 476.567 200.527 481.059Z" fill="#BD4761"/>
<g style="mix-blend-mode:multiply">
<path d="M189.298 486.893C188.847 486.775 188.434 486.542 188.1 486.215C186.033 484.155 188.021 478.746 192.536 474.121L192.813 473.855C197.262 469.417 202.436 467.463 204.464 469.483C204.793 469.816 205.033 470.227 205.161 470.679C202.686 470.015 198.434 472.008 194.629 475.729L194.366 475.982C190.601 479.889 188.587 484.355 189.298 486.893Z" fill="#E0E0E0"/>
</g>
<path d="M151.422 480.992C149.592 474.759 150.369 469.031 153.16 468.221C155.951 467.41 159.742 471.756 161.507 477.989C161.507 478.108 161.507 478.228 161.599 478.348C163.297 484.435 162.494 489.95 159.756 490.774C157.017 491.598 153.529 487.544 151.633 481.697C151.554 481.458 151.488 481.232 151.422 480.992Z" fill="#F3803D"/>
<path d="M151.633 481.697C152.984 480.453 154.551 479.471 156.254 478.799C157.998 478.347 159.805 478.194 161.599 478.348C163.297 484.434 162.494 489.95 159.756 490.774C157.017 491.598 153.529 487.544 151.633 481.697Z" fill="white"/>
<g style="mix-blend-mode:multiply">
<path d="M152.001 468.951C152.312 468.603 152.714 468.35 153.16 468.22C155.951 467.383 159.742 471.756 161.507 477.989C161.507 478.108 161.507 478.228 161.599 478.348C163.297 484.435 162.494 489.95 159.756 490.774C159.323 490.878 158.872 490.878 158.439 490.774C160.216 488.913 160.559 484.129 159.124 479.065C159.099 478.944 159.068 478.824 159.032 478.706C157.439 473.483 154.529 469.549 152.001 468.951Z" fill="#E0E0E0"/>
</g>
<path d="M151.29 474.866C156.635 478.494 159.65 483.398 158.031 485.83C156.412 488.262 150.764 487.305 145.432 483.677C145.326 483.614 145.225 483.543 145.129 483.464C139.969 479.876 137.099 475.105 138.692 472.713C140.285 470.32 145.524 471.184 150.685 474.467L151.29 474.866Z" fill="white"/>
<path d="M150.685 474.467C150.422 476.293 149.838 478.058 148.96 479.676C147.893 481.138 146.599 482.417 145.129 483.464C139.969 479.876 137.099 475.105 138.692 472.712C140.285 470.32 145.524 471.25 150.685 474.467Z" fill="#BD4761"/>
<g style="mix-blend-mode:multiply">
<path d="M158.479 484.541C158.458 485.014 158.312 485.473 158.057 485.87C156.438 488.302 150.79 487.345 145.459 483.717C145.352 483.654 145.251 483.583 145.156 483.504C139.995 479.916 137.125 475.145 138.718 472.752C138.98 472.364 139.338 472.052 139.758 471.849C139.561 474.427 142.286 478.281 146.617 481.298C146.713 481.376 146.814 481.447 146.92 481.511C151.396 484.541 156.122 485.697 158.479 484.541Z" fill="#E0E0E0"/>
</g>
<path d="M175.29 481.232C169.787 477.869 166.549 473.125 168.049 470.599C169.55 468.074 175.224 468.779 180.74 472.128L181.043 472.327C186.309 475.676 189.456 480.301 187.981 482.76C186.507 485.219 181.227 484.621 175.922 481.59L175.29 481.232Z" fill="#8D964D"/>
<path d="M175.922 481.604C176.084 479.755 176.584 477.952 177.397 476.287C178.396 474.773 179.627 473.427 181.043 472.3C186.309 475.65 189.456 480.275 187.981 482.733C186.507 485.192 181.228 484.634 175.922 481.604Z" fill="white"/>
<g style="mix-blend-mode:multiply">
<path d="M167.694 471.941C167.699 471.473 167.826 471.015 168.063 470.612C169.563 468.101 175.237 468.792 180.754 472.141L181.056 472.34C186.322 475.689 189.469 480.314 187.994 482.773C187.747 483.168 187.408 483.497 187.007 483.73C187.007 481.152 184.176 477.43 179.7 474.626C179.601 474.55 179.495 474.484 179.384 474.427C174.724 471.583 169.958 470.652 167.694 471.941Z" fill="#E0E0E0"/>
</g>
<path d="M164.376 482.853C169.879 479.504 173.131 474.746 171.63 472.221C170.13 469.696 164.442 470.4 158.939 473.762C158.828 473.819 158.723 473.886 158.623 473.962C153.357 477.298 150.211 481.936 151.685 484.381C153.16 486.827 158.479 486.269 163.745 483.212L164.376 482.853Z" fill="#6BAAA7"/>
<path d="M163.745 483.212C163.576 481.364 163.077 479.563 162.27 477.896C161.274 476.374 160.038 475.027 158.61 473.909C153.344 477.245 150.198 481.883 151.672 484.328C153.147 486.774 158.479 486.269 163.745 483.212Z" fill="white"/>
<g style="mix-blend-mode:multiply">
<path d="M171.999 473.563C171.994 473.095 171.867 472.637 171.63 472.234C170.13 469.722 164.442 470.413 158.939 473.776C158.828 473.833 158.723 473.899 158.623 473.975C153.357 477.311 150.211 481.949 151.685 484.395C151.934 484.793 152.278 485.122 152.686 485.352C152.686 482.773 155.516 479.052 159.993 476.248C160.088 476.174 160.19 476.107 160.295 476.048C164.943 473.218 169.721 472.274 171.999 473.563Z" fill="#E0E0E0"/>
</g>
<path d="M139.245 479.863L143.694 521.62H200.87L205.043 477.856L139.245 479.863Z" fill="#B88B61"/>
<path d="M130.174 514.417L116.351 510.563C116.351 510.563 110.848 499.692 111.651 497.765C112.454 495.837 124 480.022 127.014 479.158C130.029 478.294 139.152 481.152 139.126 481.657C139.1 482.162 140.903 492.289 140.903 492.289L130.174 514.417Z" fill="#E0E0E0"/>
<path d="M137.415 511.001C137.415 511.001 130.121 513.832 128.765 513.022C127.409 512.211 121.617 504.476 122.222 501.951C122.828 499.426 131.293 486.508 132.965 487.079C134.637 487.651 142.746 493.724 142.746 493.724L137.415 511.001Z" fill="#F3A080"/>
<path d="M170.327 492.369C170.195 494.827 153.621 491.983 153.621 491.983L151.264 496.037L158.044 497.831L165.509 504.968C165.509 504.968 164.864 506.868 163.942 509.167C163.874 509.383 163.785 509.593 163.679 509.792C163.643 509.851 163.612 509.914 163.587 509.978C163.481 510.231 163.363 510.523 163.244 510.776C162.794 511.869 162.28 512.934 161.704 513.965C161.636 514.079 161.579 514.2 161.533 514.324C161.222 514.846 160.879 515.348 160.506 515.826C160.236 516.213 159.867 516.521 159.44 516.716L152.594 512.543C152.594 512.543 142.194 516.371 140.548 516.092C139.89 515.985 137.691 514.032 135.282 511.759L132.768 509.274C132.75 509.247 132.728 509.225 132.702 509.207L131.82 508.33L133.255 505.287L133.623 504.529L133.768 504.17L133.913 503.825L138.731 493.711L139.403 493.272C140.232 492.767 141.219 492.196 142.312 491.598C143.01 491.226 143.734 490.827 144.497 490.442C147.129 489.009 149.941 487.945 152.857 487.279C153.813 487.068 154.798 487.032 155.767 487.172C161.533 488.235 170.419 489.923 170.327 492.369Z" fill="#F3A080"/>
<path d="M163.942 509.221L163.587 510.098L163.415 509.965C162.481 509.221 161.204 508.224 159.795 507.187C158.593 506.277 157.315 505.472 155.977 504.782L155.24 504.436L154.661 504.21L154.147 504.011H154.713H155.385L156.267 504.091C157.937 504.345 159.522 505.002 160.888 506.004C162.087 506.885 163.121 507.974 163.942 509.221Z" fill="#B54B57"/>
<path d="M161.704 514.071L161.506 514.417L160.506 513.593C159.571 512.849 158.281 511.852 156.886 510.815C155.677 509.923 154.395 509.136 153.055 508.463L152.317 508.117L151.738 507.891L151.225 507.692H151.791H152.462L153.344 507.785C155.015 508.029 156.601 508.681 157.965 509.686C159.218 510.608 160.286 511.763 161.112 513.088C161.388 513.46 161.572 513.779 161.704 514.071Z" fill="#B54B57"/>
<path d="M211.638 513.221L225.422 509.367C225.422 509.367 230.938 498.496 230.122 496.568C229.306 494.641 217.773 478.813 214.772 477.962C211.77 477.112 202.621 479.942 202.647 480.447C202.673 480.952 200.87 491.08 200.87 491.08L211.638 513.221Z" fill="#E0E0E0"/>
<path d="M204.464 509.792C204.464 509.792 211.757 512.623 213.1 511.812C214.443 511.002 220.13 503.32 219.59 500.755C219.05 498.19 210.506 485.298 208.834 485.883C207.162 486.468 199.053 492.448 199.053 492.448L204.464 509.792Z" fill="#F3A080"/>
<path d="M171.499 491.186C171.643 493.645 188.218 490.801 188.218 490.801L190.561 494.854L183.755 496.715L176.304 503.852C176.304 503.852 176.949 505.752 177.87 508.038C177.938 508.252 178.021 508.461 178.121 508.663L178.213 508.862C178.305 509.114 178.423 509.394 178.542 509.646C178.997 510.741 179.511 511.81 180.082 512.849C180.082 512.955 180.214 513.088 180.266 513.195C180.573 513.723 180.916 514.23 181.293 514.71C181.56 515.101 181.929 515.409 182.36 515.6L189.205 511.427C189.205 511.427 199.593 515.254 201.238 514.962C201.896 514.856 204.108 512.915 206.504 510.63C207.347 509.819 208.202 508.955 209.032 508.144V508.078C209.308 507.785 209.611 507.493 209.914 507.214L208.479 504.157L208.11 503.4L207.952 503.041L207.807 502.695L203.147 492.515L202.462 492.09C201.646 491.585 200.659 491.013 199.553 490.402C198.868 490.043 198.131 489.631 197.381 489.259C194.752 487.818 191.939 486.749 189.021 486.083C188.06 485.879 187.072 485.843 186.099 485.976C180.28 487.026 171.393 488.714 171.499 491.186Z" fill="#F3A080"/>
<path d="M177.87 508.025C177.976 508.304 178.107 508.596 178.226 508.888L178.397 508.769C179.332 508.011 180.609 507.015 182.004 505.978C183.211 505.067 184.493 504.262 185.835 503.572L186.559 503.227L187.152 503.001L187.665 502.802H187.099H186.428L185.546 502.881C183.877 503.132 182.292 503.784 180.925 504.782C179.72 505.667 178.685 506.766 177.87 508.025Z" fill="#B54B57"/>
<path d="M180.108 512.862C180.108 512.982 180.24 513.101 180.293 513.221L181.307 512.397C182.241 511.639 183.518 510.656 184.927 509.606C186.132 508.7 187.409 507.896 188.745 507.201L189.482 506.855L190.074 506.642L190.588 506.43H190.009H189.337L188.455 506.509C186.791 506.762 185.211 507.414 183.847 508.41C182.567 509.366 181.481 510.562 180.648 511.932C180.411 512.264 180.24 512.596 180.108 512.862Z" fill="#B54B57"/>
<path d="M120.432 407.165C120.432 407.165 132.768 422.741 132.768 424.735C132.768 426.728 125.329 441.374 125.198 448.737C125.066 456.1 132.768 471.25 132.768 471.25C132.768 471.25 126.738 450.385 127.317 448.883C127.896 447.381 135.73 426.835 136.098 424.655C136.467 422.475 120.432 407.165 120.432 407.165Z" fill="#E0E0E0"/>
<path d="M219.63 407.577C219.63 407.577 207.294 423.154 207.294 425.2C207.294 427.247 214.732 441.84 214.864 449.202C214.996 456.565 207.294 471.703 207.294 471.703C207.294 471.703 213.324 450.837 212.744 449.335C212.165 447.833 204.319 427.247 203.924 425.067C203.529 422.888 219.63 407.577 219.63 407.577Z" fill="#E0E0E0"/>
<path d="M205.043 437.122H178.739V451.927H205.043V437.122Z" fill="#6BAAA7"/>
<path d="M190.338 439.952H181.28V449.096H190.338V439.952Z" fill="#8BCCCA"/>
<path d="M202.502 439.952H192.852V442.119H202.502V439.952Z" fill="#8BCCCA"/>
<path d="M202.502 443.434H192.852V445.6H202.502V443.434Z" fill="#8BCCCA"/>
<path d="M202.502 446.916H192.852V449.083H202.502V446.916Z" fill="#8BCCCA"/>
<path d="M193.339 432.55H190.43V438.331H193.339V432.55Z" fill="#434356"/>
<path d="M147.486 442.132H143.049V437.653H138.81V442.132H134.387V446.411H138.81V450.89H143.049V446.411H147.486V442.132Z" fill="#6BAAA7"/>
<path d="M193.576 410.461C195.155 415.487 197.132 420.375 199.487 425.081C198.566 424.961 181.346 422.555 177.186 414.595C172.894 406.408 175.211 383.442 176.08 380.811C176.949 378.179 185.677 368.039 185.677 368.039L184.361 362.816L185.585 360.158L186.783 357.5C186.783 357.5 196.222 363.6 201.08 372.744C205.938 381.887 191.852 404.202 193.576 410.461Z" fill="#38102B"/>
<path d="M193.576 410.461C195.155 415.486 197.132 420.375 199.487 425.08C198.71 424.735 186.862 419.419 184.808 416.88C182.755 414.342 183.492 390.566 183.492 386.313C183.492 382.06 191.391 372.345 189.574 368.065C188.4 365.338 187.081 362.676 185.625 360.091L186.059 359.134L186.823 357.447C186.823 357.447 196.262 363.547 201.12 372.69C205.977 381.834 191.852 404.201 193.576 410.461Z" fill="#4A0E2F"/>
<path d="M193.576 410.461C195.155 415.486 197.132 420.375 199.487 425.08C199.487 425.08 191.114 417.292 190.166 415.259C189.219 413.226 188.416 400.945 188.955 397.118C189.495 393.29 198.408 376.664 198.171 374.245C197.96 372.292 189.416 362.789 186.085 359.148L186.849 357.46C186.849 357.46 196.288 363.56 201.146 372.704C206.004 381.847 191.852 404.202 193.576 410.461Z" fill="#5F1234"/>
<path d="M233.558 315.822L206.057 335.053L236.77 331.876L233.558 315.822Z" fill="#FFB600"/>
<path d="M196.288 308.884L198.658 331.225L206.596 312.114L196.288 308.884Z" fill="#FFB600"/>
<path d="M227.147 348.662L202.739 345.698L221.157 359.068L227.147 348.662Z" fill="#FFB600"/>
<path d="M212.197 550.711C214.311 554.724 218.621 556.993 222.657 559.013C230.07 562.637 237.317 567.314 244.62 570.828L257.056 589.257L273.529 572.184L278.388 567.148L266.473 549.328C268.118 537.206 267.362 524.876 264.249 513.051C262.552 508.523 261.104 503.905 259.912 499.216C258.841 493.101 259.912 486.792 259.527 480.566C259.625 479.077 259.165 477.605 258.237 476.443C257.54 475.85 256.672 475.5 255.761 475.445C254.851 475.39 253.947 475.633 253.186 476.138C251.668 477.17 250.454 478.594 249.671 480.261L249.397 480.815C245.491 488.284 244.112 496.834 245.471 505.165C245.78 506.203 245.78 507.309 245.471 508.347C244.988 509.183 244.245 509.834 243.357 510.201C237.977 512.658 231.931 513.214 226.199 511.778C223.811 510.957 221.241 510.833 218.786 511.419C215.492 512.692 214.119 516.566 213.295 520.052C211.695 526.879 210.775 533.849 210.55 540.86C210.257 544.232 210.824 547.623 212.197 550.711Z" fill="#B77158"/>
<path d="M236.768 537.595C236.02 544.072 236.81 550.635 239.074 556.743C235.322 551.599 233.138 545.465 232.788 539.089C232.644 535.891 233.28 532.706 234.639 529.812C235.998 526.918 238.039 524.403 240.584 522.487C241.521 521.731 242.607 521.184 243.769 520.882C243.549 523.206 240.475 526.084 239.431 528.298C238.079 531.242 237.181 534.377 236.768 537.595Z" fill="#8E503D"/>
<path d="M254.174 584.829C254.174 584.829 283.439 623.568 307.544 645.705C317.454 654.809 326.487 661.09 332.252 660.703C351.964 659.319 365.196 596.396 365.196 596.396L321.38 591.83L318.333 596.921L266.473 549.328L258.237 572.986L254.174 584.829Z" fill="#B77158"/>
<path d="M257.743 490.112H222.135V535.769H257.743V490.112Z" fill="#BD4761"/>
<path d="M222.136 522.874H257.743V502.121H222.136V522.874Z" fill="white"/>
<path d="M223.179 486.211H256.7V476.553H223.179V486.211Z" fill="#444444"/>
<path d="M218.127 490.112H261.724V483.665H218.127V490.112Z" fill="#444444"/>
<path d="M211.566 552.925C220.955 556.771 233.062 554.004 233.062 554.004C234.049 551.772 234.696 549.402 234.984 546.976C235.175 545.859 235.294 544.732 235.341 543.6C235.505 540.918 235.505 538.229 235.341 535.548C235.341 534.358 235.341 533.14 235.121 531.95C234.819 528.741 234.407 525.586 233.913 522.653C233.721 521.38 233.501 520.163 233.282 519C232.705 515.846 232.101 513.107 231.607 511.059C231.113 509.011 230.646 507.268 230.646 507.268C221.422 506.438 208.107 512.802 208.107 512.802C206.922 516.169 206.238 519.693 206.075 523.262C206.117 533.402 207.977 543.452 211.566 552.925Z" fill="#B77158"/>
<path d="M218.759 522.238C218.759 522.238 220.049 522.432 221.971 522.625C224.36 522.872 226.763 522.965 229.164 522.902C230.811 522.902 232.403 522.681 233.803 522.515C233.611 521.242 233.391 520.024 233.172 518.862C231.8 518.572 230.4 518.442 228.999 518.475C226.398 518.598 223.852 519.277 221.532 520.467C220.546 520.953 219.616 521.547 218.759 522.238Z" fill="#8E503D"/>
<path d="M221.037 534.579C221.037 534.579 222.245 534.884 224.057 535.188C226.28 535.563 228.53 535.757 230.783 535.769C232.235 535.727 233.683 535.607 235.121 535.409C235.121 534.219 235.121 533.002 234.901 531.812C233.553 531.486 232.171 531.319 230.783 531.314C228.324 531.386 225.905 531.96 223.673 533.002C222.74 533.43 221.857 533.959 221.037 534.579Z" fill="#8E503D"/>
<path d="M219.637 546.09C220.686 546.369 221.749 546.591 222.822 546.754C225.234 547.166 227.679 547.351 230.124 547.308C231.717 547.274 233.305 547.117 234.874 546.837C235.065 545.721 235.184 544.593 235.231 543.461C233.527 543.028 231.772 542.833 230.015 542.88C227.439 542.985 224.906 543.576 222.547 544.624C221.54 545.033 220.567 545.523 219.637 546.09Z" fill="#8E503D"/>
<path d="M206.075 523.262C207.82 520.687 210.027 518.462 212.582 516.704C215.02 515.235 217.655 514.126 220.406 513.411C223.519 512.293 226.726 511.46 229.987 510.921C230.481 510.879 230.976 510.879 231.47 510.921C230.921 508.569 230.509 507.13 230.509 507.13C221.284 506.3 207.969 512.664 207.969 512.664C206.818 516.082 206.18 519.654 206.075 523.262V523.262Z" fill="#CC836D"/>
<path d="M385.869 434.853C385.869 434.853 359.239 445.313 357.921 452.978C356.603 460.643 324.4 579.489 324.4 579.489L368.848 588.897L391.442 471.849L385.869 434.853Z" fill="white"/>
<path d="M370.028 581.564L320.584 568.753L316.356 591.36L370.028 596.894V581.564Z" fill="#E0E0E0"/>
<path d="M627.433 340.717L557.646 340.662L614.063 309.366L627.433 340.717Z" fill="#FFB600"/>
<path d="M571.62 397.138L549.437 356.047L585.511 379.29L571.62 397.138Z" fill="#FFB600"/>
<path d="M577.824 292.127L539.444 326.384L555.34 281.446L577.824 292.127Z" fill="#FFB600"/>
<path d="M375.382 848.228H514.599V731.54H375.382V848.228Z" fill="#E0E0E0"/>
<path d="M579.664 1155.57L576.918 1156.62C548.389 1166.93 517.539 1168.85 487.969 1162.15L481.874 947.677L452.526 780.49L450.851 769.975L450.412 780.545L442.643 940.316L456.891 1166.94C454.098 1168.12 451.238 1169.14 448.326 1169.98C408.847 1181.63 358.003 1166.94 358.003 1166.94C358.003 1166.94 363.741 967.987 362.698 953.045C362.012 943.415 368.408 842.057 372.993 772.188C375.464 734.528 377.413 697.92 377.413 697.92L549.575 706.027L549.053 763.804L553.418 940.316C553.418 940.316 583.123 1154.21 579.664 1155.57Z" fill="#434356"/>
<path d="M375.382 735.829C426.418 748.806 543.233 733.781 549.328 733.062L549.602 706.11L377.413 698.003C377.413 698.003 376.617 717.649 375.382 735.829Z" fill="#343345"/>
<path d="M456.891 1166.8C454.093 1167.97 451.234 1168.99 448.326 1169.85L431.854 940.178L447.667 747.672L450.742 769.975L450.412 780.545L442.643 940.316L456.891 1166.8Z" fill="#343345"/>
<path d="M579.664 1155.57L576.918 1156.62L541.75 940.316L539.444 706.166H549.575L549.053 763.942L553.418 940.316C553.418 940.316 583.123 1154.21 579.664 1155.57Z" fill="#343345"/>
<path d="M497.495 414.571L519.458 421.018L526.925 719.42C526.925 719.42 472.732 728.026 447.996 728.026C423.261 728.026 382.108 719.42 382.108 719.42L406.239 428.406L435.862 421.212L497.495 414.571Z" fill="#8BCCCA"/>
<path d="M448.902 411.804C449.259 408.898 449.534 406.795 449.561 406.269C449.891 402.479 448.024 385.765 448.024 385.765L489.589 370.657C489.589 370.657 489.589 378.958 489.369 388.256C489.204 399.324 488.902 411.804 488.353 412.274L464.551 434.411L448.079 418.611L448.902 411.804Z" fill="#B77158"/>
<path d="M489.369 388.173C477.591 395.395 451.62 411.14 449.122 411.638H448.902C449.259 408.732 449.534 406.629 449.561 406.103C449.891 402.313 448.024 385.599 448.024 385.599L489.589 370.491C489.589 370.491 489.534 378.931 489.369 388.173Z" fill="#8E503D"/>
<path d="M497.907 369.44C496.628 372.132 494.749 374.49 492.416 376.33C491.382 377.244 490.3 378.103 489.177 378.903C484.427 382.279 440.172 401.04 433.391 400.099C426.61 399.158 420.213 375.555 419.939 373.064C417.852 357.873 412.142 310.86 412.142 310.86C429.245 259.808 489.012 286.704 495.683 291.768C502.354 296.831 497.907 369.44 497.907 369.44Z" fill="#B77158"/>
<path d="M492.361 376.33C491.327 377.244 490.246 378.103 489.122 378.903C484.372 382.279 440.117 401.04 433.336 400.099C426.555 399.158 420.213 375.555 419.939 373.065C424.112 383.441 428.806 397.775 433.666 397.36C440.886 396.723 486.98 379.152 492.361 376.33Z" fill="#CC836D"/>
<path d="M417.715 328.459C417.715 328.459 420.46 315.039 426.39 317.031C432.32 319.023 430.673 320.324 430.673 320.324L417.715 328.459Z" fill="#FFDDA0"/>
<path d="M482.203 318.387C482.203 318.387 464.606 303.666 459.554 310.777C456.589 314.928 459.554 316.948 459.554 316.948L482.203 318.387Z" fill="#FFDDA0"/>
<path d="M426.39 339.278C426.39 342.82 428.147 345.726 430.344 345.753C432.54 345.781 434.352 342.986 434.379 339.306C434.407 335.626 432.622 332.859 430.426 332.831C428.23 332.803 426.418 335.709 426.39 339.278Z" fill="#1D1E1E"/>
<path d="M422.959 336.124C423.945 337.332 425.207 338.282 426.637 338.891C428.106 339.458 429.688 339.657 431.25 339.472C430.263 338.264 429.001 337.314 427.571 336.705C426.107 336.122 424.52 335.922 422.959 336.124Z" fill="white"/>
<path d="M478.195 333.993C478.195 338.531 475.862 342.294 473.061 342.294C470.261 342.294 468.01 338.586 468.037 333.993C468.065 329.4 470.371 325.692 473.171 325.692C475.971 325.692 478.223 329.455 478.195 333.993Z" fill="#1D1E1E"/>
<path d="M482.56 330.036C481.311 331.605 479.699 332.84 477.866 333.634C475.99 334.333 473.974 334.561 471.991 334.298C473.255 332.733 474.874 331.499 476.713 330.701C478.58 330.006 480.587 329.778 482.56 330.036Z" fill="white"/>
<path d="M462.3 376.274C460.277 377.273 458.064 377.817 455.812 377.87C453.561 377.922 451.325 377.482 449.259 376.579C449.877 377.601 450.749 378.443 451.789 379.021C452.829 379.598 454.002 379.892 455.189 379.872C457.917 379.592 460.448 378.312 462.3 376.274Z" fill="#8E503D"/>
<path d="M426.582 359.035C425.869 360.917 421.86 361.11 417.605 359.478C413.35 357.845 410.495 354.995 411.208 353.141C411.922 351.287 415.93 351.066 420.186 352.698C424.441 354.331 427.296 357.181 426.582 359.035Z" fill="#CC836D"/>
<path d="M480.172 350.651C480.886 353.418 476.246 357.098 469.822 358.731C463.398 360.363 457.605 359.395 456.891 356.573C456.177 353.75 460.817 350.125 467.269 348.493C473.72 346.86 479.486 347.829 480.172 350.651Z" fill="#CC836D"/>
<path d="M471.798 363.656C471.798 363.656 471.497 364.016 471.03 364.68C470.324 365.686 469.514 366.613 468.614 367.447C465.709 370.154 462.174 372.081 458.335 373.048C454.497 374.015 450.478 373.992 446.651 372.981C445.5 372.681 444.378 372.273 443.302 371.764L442.149 371.21L443.411 371.432C444.533 371.673 445.671 371.83 446.816 371.902C450.501 372.164 454.204 371.856 457.797 370.989C461.404 370.094 464.849 368.638 468.01 366.672C468.965 366.066 469.882 365.401 470.755 364.68L471.798 363.656Z" fill="#8E503D"/>
<path d="M448.271 350.485C448.202 351.626 448.342 352.77 448.683 353.861C448.841 354.412 448.867 354.993 448.757 355.557C448.647 356.12 448.405 356.648 448.051 357.098C447.381 357.645 446.552 357.956 445.69 357.984C444.452 358.228 443.189 358.321 441.929 358.26C438.717 357.984 437.976 356.683 440.886 355.3C443.584 354.098 446.077 352.473 448.271 350.485Z" fill="#CC836D"/>
<path d="M439.431 329.621C440.883 339.346 439.873 349.284 436.493 358.51C438.591 359.159 440.807 359.327 442.978 359.001C445.149 358.676 447.22 357.865 449.039 356.628C446.325 357.387 443.442 357.261 440.803 356.268C443.142 347.462 442.661 338.136 439.431 329.621Z" fill="#8E503D"/>
<path d="M491.4 371.21C495.149 370.862 498.788 369.744 502.093 367.926C505.397 366.109 508.299 363.629 510.618 360.64C511.334 359.767 511.985 358.842 512.567 357.873C515.312 353.169 516.026 336.705 509.383 332.969C504.715 330.202 501.146 334.131 499.636 336.705C499.238 337.326 498.88 337.973 498.566 338.642L491.4 371.21Z" fill="#C7806D"/>
<path d="M491.4 371.21C495.149 370.862 498.788 369.744 502.093 367.926C505.397 366.109 508.299 363.629 510.618 360.64C510.947 360.17 511.194 359.727 511.441 359.312C514.05 354.58 514.901 338.144 508.257 334.408C506.818 333.582 505.117 333.348 503.511 333.756C501.905 334.163 500.517 335.18 499.636 336.594C499.238 337.215 498.88 337.862 498.566 338.531L491.4 371.21Z" fill="#B77158"/>
<path d="M511.496 345.809C511.749 347.144 511.626 348.525 511.14 349.793C509.3 355.327 503.782 359.478 498.538 363.352C500.09 360.761 500.755 357.728 500.433 354.719C500.269 353.702 500.159 352.676 500.103 351.647C500.076 347.524 509.547 338.033 511.496 345.809Z" fill="#CC836D"/>
<path d="M495.875 364.929L496.177 364.736C496.47 364.586 496.754 364.42 497.028 364.237C498.052 363.603 498.977 362.82 499.774 361.913C500.819 360.646 501.553 359.148 501.915 357.541C502.346 355.59 502.134 353.549 501.311 351.73C501.199 351.482 501.071 351.241 500.927 351.011V350.817V350.651L501.119 350.347C501.119 350.125 501.366 349.932 501.476 349.738C501.962 348.951 502.494 348.193 503.068 347.469C503.593 346.787 504.162 346.14 504.77 345.532C505.293 344.978 505.852 344.46 506.445 343.982C506.941 343.593 507.526 343.336 508.147 343.235C508.636 343.188 509.129 343.274 509.575 343.484C509.846 343.611 510.069 343.825 510.206 344.093C510.206 344.259 510.206 344.37 510.206 344.37C510.23 344.27 510.23 344.165 510.206 344.065C510.174 343.912 510.111 343.766 510.021 343.638C509.931 343.51 509.817 343.401 509.684 343.318C509.203 342.971 508.629 342.778 508.037 342.765C507.247 342.79 506.474 343.009 505.786 343.401C505.059 343.83 504.371 344.321 503.727 344.868C503.01 345.45 502.331 346.079 501.695 346.75C501.022 347.481 500.398 348.258 499.829 349.074C499.667 349.275 499.52 349.487 499.389 349.71L499.197 350.042L498.923 350.513L498.73 350.845L498.923 351.149L499.17 351.62C499.301 351.82 499.411 352.033 499.499 352.256C500.241 353.862 500.526 355.643 500.323 357.403C500.13 358.878 499.645 360.299 498.895 361.581C498.347 362.503 497.683 363.349 496.918 364.099C496.644 364.404 496.369 364.57 496.205 364.736L495.875 364.929Z" fill="#8E503D"/>
<path d="M511.277 321.348C510.398 327.601 509.465 332.748 509.465 332.748C509.465 332.748 495.573 346.999 491.867 356.434C493.465 343.435 493.15 330.27 490.934 317.363C486.372 315.803 482.373 312.914 479.441 309.062C476.509 305.211 474.776 300.569 474.461 295.725C472.253 299.081 469.138 301.731 465.484 303.362C466.435 301.92 467.054 300.282 467.296 298.568C467.538 296.854 467.398 295.108 466.884 293.455C464.628 298.005 461.348 301.961 457.306 305.007C453.264 308.053 448.572 310.104 443.604 310.999C445.855 307.309 448.088 303.703 450.302 300.18C440.831 308.416 429.406 314.04 417.138 316.505C411.84 317.529 405.663 317.778 401.709 314.043C400.471 312.778 399.52 311.256 398.922 309.584C398.325 307.912 398.096 306.128 398.25 304.358C398.404 301.427 399.083 298.549 400.254 295.863C402.562 290.46 405.946 285.592 410.196 281.56C414.446 277.529 419.472 274.42 424.963 272.426C423.206 268.856 420.213 264.872 418.401 261.302C423.364 264.25 429.258 265.171 434.873 263.875C440.364 262.962 445.855 261.108 451.345 260.084C459.274 258.978 467.352 260.077 474.707 263.261C482.061 266.446 488.413 271.595 493.075 278.154C496.206 278.215 499.277 279.033 502.029 280.541C504.781 282.048 507.134 284.2 508.888 286.814C511.71 292.222 513.083 298.279 512.869 304.385C512.711 310.069 512.179 315.735 511.277 321.348Z" fill="#EFCA8F"/>
<path d="M512.512 311.552C512.21 314.734 511.744 318.193 511.277 321.348C507.765 324.553 504.959 328.465 503.041 332.831C503.422 327.463 502.702 322.074 500.926 316.999C499.15 311.924 496.356 307.273 492.718 303.334C492.416 306.737 492.114 310.141 491.84 313.544C483.15 303.61 477.63 291.268 475.999 278.126L467.983 288.502C468.948 284.342 468.748 279.993 467.406 275.94C464.04 282.738 458.895 288.479 452.526 292.542C452.663 288.585 452.828 284.656 452.993 280.699C445.821 291.125 435.408 298.846 423.398 302.642C415.231 305.158 406.605 305.773 398.168 304.441C398.322 301.51 399.001 298.632 400.172 295.946C400.774 294.498 401.471 293.093 402.259 291.74C407.301 282.799 415.357 275.976 424.963 272.509C423.206 268.856 420.213 264.872 418.401 261.302C423.364 264.25 429.258 265.171 434.874 263.875C440.364 262.962 445.855 261.108 451.346 260.084C459.275 258.978 467.353 260.077 474.707 263.261C482.062 266.446 488.413 271.595 493.075 278.154C496.207 278.215 499.278 279.033 502.03 280.541C504.782 282.048 507.134 284.2 508.888 286.814C511.711 292.222 513.083 298.279 512.869 304.385C512.878 306.779 512.759 309.172 512.512 311.552Z" fill="#FFDDA0"/>
<path d="M512.512 311.552L511.579 313.019C505.837 302.651 497.473 294.001 487.337 287.949C486.898 291.38 486.459 294.756 486.02 298.16C483.274 286.842 480.529 275.054 472.869 266.172C472.403 268.69 471.936 271.236 471.497 273.754C466.219 269.479 459.561 267.321 452.801 267.694C452.389 270.682 451.95 273.449 451.565 276.383C448.549 274.235 445.13 272.728 441.517 271.955C440.179 276.653 437.732 280.954 434.385 284.491C431.038 288.028 426.892 290.695 422.3 292.266C415.788 294.337 408.771 294.122 402.396 291.657C407.439 282.716 415.494 275.893 425.1 272.426C423.206 268.856 420.213 264.872 418.401 261.302C423.364 264.25 429.258 265.171 434.874 263.875C440.364 262.962 445.855 261.108 451.346 260.084C459.275 258.978 467.353 260.077 474.707 263.261C482.062 266.446 488.413 271.595 493.075 278.154C496.207 278.215 499.278 279.033 502.03 280.541C504.782 282.048 507.134 284.2 508.888 286.814C511.711 292.222 513.083 298.279 512.869 304.385C512.878 306.779 512.759 309.172 512.512 311.552Z" fill="#FEEAAF"/>
<path d="M488.353 412.191C488.353 412.191 465.814 433.802 464.551 434.328C463.288 434.854 448.079 418.528 448.079 418.528L435.944 421.295L434.187 448.108L456.919 456.99L465.155 444.234L475.944 458.291L495.326 442.076L501.174 415.871L488.353 412.191Z" fill="#6BAAA7"/>
<path d="M346.967 864.36H390.591C401.105 843.137 413.048 722.464 422.08 611.283C429.026 525.724 434.269 445.728 435.807 421.101C432.43 421.904 428.532 422.817 424.468 423.868L411.703 426.995C407.749 428.019 403.878 429.015 400.364 429.983C395.379 431.223 390.51 432.899 385.814 434.992C385.814 434.992 370.797 507.296 366.926 530.429C363.055 553.561 346.967 864.36 346.967 864.36Z" fill="white"/>
<path d="M390.509 544.624C390.509 552.925 410.193 589.866 422.08 611.421C429.026 525.863 434.27 445.867 435.807 421.24C432.43 422.042 428.532 422.955 424.469 424.007L411.703 427.133C407.173 450.543 398.552 494.816 398.25 498.137C397.866 502.675 414.723 516.095 414.723 516.095C414.723 516.095 390.509 532.725 390.509 544.624Z" fill="#E0E0E0"/>
<path d="M365.086 562.139H419.939V531.314H365.086V562.139Z" fill="#6BAAA7"/>
<path d="M395.752 556.245H414.64V537.208H395.752V556.245Z" fill="#8BCCCA"/>
<path d="M370.385 541.746H390.509V537.235H370.385V541.746Z" fill="#8BCCCA"/>
<path d="M370.385 548.996H390.509V544.485H370.385V548.996Z" fill="#8BCCCA"/>
<path d="M370.385 556.273H390.509V551.763H370.385V556.273Z" fill="#8BCCCA"/>
<path d="M389.465 533.86H395.532V521.823H389.465V533.86Z" fill="#434356"/>
<path d="M493.926 587.818C493.926 597.613 493.926 607.575 494.146 617.536C495.162 737.517 498.209 864.36 498.209 864.36H564.509C564.509 864.36 556.548 544.485 554.544 527.412C552.54 510.339 539.444 426.109 539.444 426.109L532.059 424.062L521.435 421.295L517.646 420.105L511.112 418.334L497.385 414.598C494.146 436.541 493.459 508.07 493.926 587.818Z" fill="white"/>
<path d="M493.926 587.818C501.805 565.681 517.646 521.186 517.454 518.475C517.289 514.85 505.1 495.978 505.1 495.978C505.1 495.978 523.878 482.364 522.423 475.446C521.297 469.912 518.662 433.94 517.646 420.105L511.112 418.334L497.385 414.598C494.146 436.541 493.459 508.07 493.926 587.818Z" fill="#E0E0E0"/>
<path d="M518.525 532.781H527.776V523.456H536.616V532.781H545.868V541.691H536.616V551.016H527.776V541.691H518.525V532.781Z" fill="#6BAAA7"/>
<path d="M539.444 426.109C539.444 426.109 571.949 437.371 585.511 458.097C599.073 478.822 640.748 591.249 640.748 591.249L567.474 611.283L547.378 562.167L539.444 426.109Z" fill="white"/>
<path d="M586.253 728.164C586.253 728.164 634.845 650.381 636.52 642.717C637.234 639.479 624.413 587.845 624.413 587.845L579.938 604.863L590.096 634.194L566.239 702.347L586.253 728.164Z" fill="#B77158"/>
<path d="M640.748 567.978C640.748 567.978 649.643 592.688 649.643 596.506C649.643 600.325 570.247 621.632 567.474 619.501C564.702 617.37 556.795 605.665 559.678 602.483C562.56 599.301 640.748 567.978 640.748 567.978Z" fill="#E0E0E0"/>
<path d="M562.587 454.251C562.587 454.251 548.861 490.029 549.437 500.24C550.014 510.45 555.999 574.37 555.999 574.37L554.132 498.552L562.587 454.251Z" fill="#E0E0E0"/>
<path d="M482.148 669.419L611.647 740.533L557.426 825.897L422.904 769.67L482.148 669.419Z" fill="#B88B61"/>
<path d="M462.712 692.856L472.32 698.39L447.832 742.387L436.85 737.323L445.8 722.768C445.8 722.768 439.76 716.238 443.055 710.731C446.349 705.225 456.37 703.841 456.37 703.841L462.712 692.856Z" fill="#9B704C"/>
<path d="M536.369 690.504C534.489 690.218 532.574 690.274 530.714 690.67C519.54 693.437 502.492 697.865 503.013 702.596C503.535 707.328 535.381 699.829 535.381 699.829L540.46 707.383L527.474 711.838L513.912 726.615C513.912 726.615 515.395 730.212 517.481 734.528C517.646 734.938 517.838 735.336 518.058 735.718L518.25 736.078C518.469 736.576 518.744 737.102 518.991 737.572C520.01 739.633 521.137 741.637 522.368 743.577C522.531 743.781 522.669 744.004 522.78 744.241C523.446 745.207 524.171 746.131 524.949 747.008C525.531 747.706 526.277 748.248 527.117 748.585L539.883 739.62C539.883 739.62 560.528 745.735 563.686 744.96C564.948 744.656 587.186 727.14 587.186 727.14L573.734 698.584L566.239 702.347C565.717 702.098 541.393 691.085 536.369 690.504Z" fill="#B77158"/>
<path d="M517.481 734.445L518.277 736.078L518.579 735.801C520.309 734.224 522.67 732.149 525.251 729.963C527.464 728.037 529.843 726.314 532.361 724.816L533.761 724.041L534.859 723.543L535.82 723.1H534.722H533.404L531.702 723.377C528.503 724.069 525.517 725.531 522.999 727.638C520.763 729.549 518.893 731.856 517.481 734.445Z" fill="#8E503D"/>
<path d="M522.423 743.549L522.835 744.185L524.701 742.47C526.404 740.892 528.765 738.817 531.373 736.603C533.6 734.696 535.978 732.974 538.483 731.457L539.883 730.71L540.981 730.212L541.942 729.741H539.526L537.824 730.018C534.623 730.721 531.638 732.193 529.121 734.307C526.751 736.313 524.793 738.766 523.356 741.529C523.008 742.184 522.696 742.858 522.423 743.549Z" fill="#8E503D"/>
<path d="M94.746 786.313H93.8645C93.8015 786.376 93.707 786.344 93.6126 786.344C93.0144 786.407 92.4477 786.502 91.8811 786.691C89.9606 787.446 88.8587 788.894 88.3235 790.815C88.0717 791.696 88.0716 792.578 88.0716 793.459C88.0716 793.648 88.1661 793.9 88.0402 793.994C87.9142 794.12 87.6624 794.026 87.4735 794.026C85.0808 794.026 82.7196 794.057 80.3584 794.057C80.201 794.057 80.138 794.12 80.1695 794.278C80.1695 794.718 80.1695 795.128 80.1695 795.6C79.0046 794.781 77.7768 794.246 76.3916 794.12C75.0063 793.963 73.6841 794.183 72.3933 794.75C71.1025 795.317 70.095 796.198 69.245 797.3C67.1986 799.976 67.2301 803.817 69.3709 806.587C70.4413 807.972 71.8266 808.98 73.5581 809.389C75.9193 809.955 78.1546 809.546 80.1695 808.098V809.294C80.1695 809.609 80.1695 809.609 80.4843 809.609C81.3343 809.609 82.1844 809.609 83.0344 809.609C83.2548 809.609 83.2863 809.546 83.2863 809.357C83.2863 805.391 83.2863 801.392 83.2863 797.426C83.2863 797.237 83.3178 797.174 83.5381 797.174C84.9549 797.174 86.4031 797.174 87.8198 797.174C88.1031 797.174 88.1031 797.174 88.1031 797.489C88.1031 801.455 88.1031 805.422 88.1031 809.357C88.1031 809.578 88.1661 809.609 88.355 809.609C89.205 809.609 90.0865 809.609 90.9366 809.609C91.157 809.609 91.1884 809.546 91.1884 809.357C91.1884 805.391 91.1884 801.392 91.1884 797.426C91.1884 797.237 91.2514 797.174 91.4403 797.174C92.4477 797.174 93.4867 797.174 94.4941 797.174C94.6515 797.174 94.683 797.142 94.683 796.985C94.683 796.072 94.683 795.159 94.683 794.278C94.683 794.12 94.6515 794.057 94.4626 794.057C93.5496 794.057 92.6052 794.057 91.6922 794.057C91.2199 794.057 91.2199 794.057 91.2199 793.585C91.2199 792.924 91.1884 792.263 91.3773 791.602C91.5977 790.815 91.944 790.154 92.6996 789.776C93.2978 789.492 93.9274 789.398 94.5571 789.429C94.7145 789.429 94.7775 789.398 94.7775 789.209C94.746 788.233 94.746 787.289 94.746 786.313ZM75.4786 806.524C73.1488 806.492 70.7562 804.352 70.8506 801.77C70.9136 799.409 73.0229 797.174 75.5415 797.205C77.9657 797.237 80.2954 799.378 80.1695 801.896C80.2639 804.352 77.9342 806.587 75.4786 806.524ZM43.1143 805.926C43.0829 804.005 43.1143 802.117 43.0829 800.196C43.0514 798.276 43.0829 796.324 43.0514 794.404C43.0199 792.105 43.0199 789.807 43.0199 787.509C43.0199 787.226 43.0199 786.942 43.0199 786.659C43.0199 786.533 42.9884 786.47 42.8625 786.47C41.8236 786.47 40.7846 786.47 39.7457 786.47C39.1475 786.47 38.6753 786.691 38.3605 787.194C38.266 787.32 38.203 787.446 38.1086 787.572C37.7308 788.328 37.353 789.052 36.9752 789.776C35.0548 793.585 33.1028 797.394 31.1824 801.204C29.8916 803.722 28.6323 806.241 27.3415 808.759C27.2156 809.042 27.0897 809.326 26.9008 809.578V809.672C28.0341 809.672 29.136 809.672 30.2694 809.672C30.3953 809.672 30.4898 809.641 30.5528 809.515C31.7491 807.154 32.9769 804.792 34.1733 802.431C35.9048 799.031 37.6364 795.631 39.3679 792.263C39.5253 791.979 39.6513 791.696 39.8087 791.413C39.8716 792.42 39.8716 793.396 39.8716 794.404C39.9031 798.779 39.8716 803.187 39.8716 807.563C39.8716 808.192 39.8716 808.854 39.8716 809.483C39.8716 809.641 39.9031 809.672 40.0605 809.672C41.0365 809.672 42.0125 809.672 42.9884 809.672C43.1458 809.672 43.2088 809.609 43.1773 809.452C43.1458 808.287 43.1458 807.091 43.1143 805.926ZM153.398 804.572V804.257C153.367 804.383 153.367 804.478 153.398 804.572ZM153.398 806.083C153.367 806.083 153.367 806.083 153.398 806.083C153.398 806.115 153.398 806.115 153.398 806.083L153.43 805.8C153.367 805.894 153.398 805.989 153.398 806.083Z" fill="white"/>
<path d="M93.896 786.313H93.6441V786.344C93.7071 786.344 93.8015 786.376 93.896 786.313ZM66.443 804.667C66.443 803.25 66.443 801.833 66.443 800.385C66.443 798.496 65.7819 796.891 64.3652 795.663C62.7596 794.246 60.9021 793.837 58.8242 794.278C57.5964 794.529 56.5575 795.191 55.7074 796.104C55.613 796.198 55.55 796.198 55.4556 796.104C55.1093 795.757 54.763 795.442 54.3537 795.159C53.0314 794.246 51.5517 793.963 49.9776 794.183C49.159 794.278 48.372 794.561 47.6794 795.002C46.9238 795.474 46.3256 796.135 45.8219 796.891C45.0348 798.087 44.72 799.441 44.6255 800.857C44.594 801.455 44.657 802.054 44.657 802.652C44.657 804.918 44.657 807.185 44.657 809.42C44.657 809.609 44.6885 809.672 44.9089 809.672C45.7904 809.672 46.6719 809.672 47.5534 809.672C47.7423 809.672 47.8053 809.641 47.8053 809.42C47.8053 806.398 47.8053 803.407 47.8053 800.385C47.8053 799.661 48.0257 799 48.4979 798.402C49.6942 796.859 51.6777 797.017 52.6851 797.804C53.5351 798.465 54.0074 799.283 54.0074 800.417C53.9759 803.407 54.0074 806.43 54.0074 809.42C54.0074 809.609 54.0389 809.672 54.2592 809.672C55.1408 809.672 55.9908 809.672 56.8723 809.672C57.0927 809.672 57.1242 809.609 57.1242 809.42C57.1242 806.524 57.1242 803.628 57.1242 800.763C57.1242 799.976 57.2501 799.252 57.7223 798.559C59.1076 796.576 62.004 796.922 63.0429 799.031C63.2633 799.504 63.3263 800.007 63.3263 800.511C63.3263 803.502 63.3263 806.461 63.3263 809.452C63.3263 809.641 63.3577 809.672 63.5466 809.672C64.4281 809.672 65.3411 809.672 66.2227 809.672C66.3801 809.672 66.443 809.641 66.443 809.452C66.443 807.815 66.443 806.241 66.443 804.667ZM105.293 794.057C104.411 794.089 103.561 794.152 102.711 794.341C101.42 794.624 100.192 795.096 99.1536 795.915C97.1702 797.457 96.2572 799.535 96.1627 802.022C96.1312 803.187 96.1627 804.352 96.1627 805.517C96.1627 806.807 96.1627 808.067 96.1627 809.357C96.1627 809.546 96.2257 809.578 96.3831 809.578C97.2646 809.578 98.1461 809.578 99.0276 809.578C99.2165 809.578 99.248 809.546 99.248 809.357C99.248 806.902 99.248 804.446 99.248 801.991C99.248 801.865 99.248 801.739 99.248 801.581C99.5314 799.755 100.476 798.433 102.176 797.709C103.152 797.3 104.191 797.174 105.261 797.142C105.387 797.142 105.45 797.111 105.45 796.954C105.45 796.041 105.45 795.128 105.45 794.215C105.482 794.089 105.45 794.057 105.293 794.057ZM153.272 803.502C152.832 801.676 151.887 800.165 150.376 799C148.644 797.646 146.692 797.174 144.552 797.457C143.324 797.615 142.19 798.118 141.183 798.811C141.151 798.842 141.089 798.905 141.026 798.874C140.963 798.842 140.994 798.748 140.994 798.717C140.994 797.237 140.963 795.757 140.963 794.309C140.963 794.12 140.9 794.057 140.711 794.057C136.366 794.057 131.99 794.057 127.645 794.057C127.142 794.057 126.638 794.089 126.166 794.183C125.032 794.372 124.088 794.876 123.427 795.852C122.419 797.3 122.199 798.842 122.766 800.511C123.395 802.305 125.284 803.376 126.984 803.407C128.527 803.407 130.038 803.407 131.581 803.407C132.021 803.407 132.462 803.47 132.84 803.754C133.47 804.257 133.47 805.044 133.218 805.705C132.966 806.335 132.399 806.524 131.77 806.524C128.779 806.524 125.756 806.524 122.766 806.524C122.577 806.524 122.545 806.555 122.545 806.744C122.545 807.626 122.545 808.507 122.545 809.389C122.545 809.578 122.608 809.641 122.797 809.641C125.788 809.641 128.81 809.641 131.833 809.641C132.305 809.641 132.777 809.578 133.249 809.452C134.54 809.042 135.579 808.287 136.146 806.996C136.555 806.052 136.618 805.076 136.429 804.068C136.146 802.494 135.296 801.361 133.785 800.763C133.029 800.448 132.21 800.354 131.392 800.322C130.007 800.322 128.621 800.322 127.236 800.322C126.953 800.322 126.701 800.291 126.449 800.196C125.693 799.913 125.41 799.094 125.693 798.276C125.882 797.709 126.229 797.331 126.858 797.268C127.11 797.237 127.331 797.237 127.582 797.237C130.92 797.237 134.288 797.237 137.625 797.237C137.94 797.237 137.909 797.205 137.909 797.52C137.909 805.705 137.909 813.891 137.909 822.076C137.909 822.17 137.909 822.265 137.909 822.359H141.026C141.026 822.296 141.026 822.202 141.026 822.139C141.026 818.676 141.026 815.244 141.026 811.781C141.026 811.75 141.026 811.687 141.026 811.655C141.026 811.53 141.057 811.53 141.151 811.592C141.498 811.844 141.876 812.065 142.285 812.254C143.324 812.757 144.394 813.009 145.528 813.041C147.574 813.104 149.337 812.411 150.817 811.089C152.17 809.892 153.052 808.413 153.335 806.587C153.367 806.461 153.367 806.304 153.367 806.178V806.146C153.367 806.052 153.335 805.957 153.398 805.863V804.604C153.367 804.509 153.367 804.415 153.398 804.32V804.289C153.304 804.005 153.304 803.754 153.272 803.502ZM150.313 805.328C150.218 807.878 147.92 809.955 145.654 809.83C143.166 809.924 140.9 807.657 140.963 805.139C141.026 802.809 143.009 800.511 145.622 800.511C148.204 800.511 150.407 802.746 150.313 805.328ZM118.264 795.82C116.406 794.309 114.265 793.805 111.904 794.246C110.078 794.592 108.598 795.474 107.402 796.891C105.954 798.622 105.387 800.605 105.639 802.809C105.859 804.667 106.678 806.272 108.063 807.531C110.015 809.326 112.282 809.924 114.863 809.483C116.343 809.231 117.602 808.507 118.736 807.468C118.862 807.342 118.83 807.28 118.704 807.185C118.075 806.555 117.445 805.926 116.815 805.296C116.689 805.17 116.658 805.17 116.501 805.265C115.462 806.178 114.265 806.65 112.849 806.461C111.054 806.241 109.763 805.265 109.039 803.628C108.945 803.407 108.945 803.407 109.197 803.407H120.751C120.845 803.407 120.908 803.407 120.94 803.281C121.097 802.368 121.128 801.455 120.971 800.511C120.656 798.622 119.775 797.017 118.264 795.82ZM117.508 800.291H113.384C111.999 800.291 110.613 800.291 109.228 800.291C109.039 800.291 109.039 800.259 109.102 800.07C109.669 798.559 111.432 797.079 113.447 797.142C115.43 797.205 116.973 798.307 117.697 800.039C117.76 800.291 117.728 800.291 117.508 800.291Z" fill="white"/>
</g>
</svg>
