<svg width="721" height="597" viewBox="0 0 721 597" fill="none" xmlns="http://www.w3.org/2000/svg">
<mask id="mask0" mask-type="alpha" maskUnits="userSpaceOnUse" x="0" y="0" width="721" height="598">
<rect x="0.775452" y="0.912659" width="720" height="596.088" fill="#E1E1E1"/>
</mask>
<g mask="url(#mask0)">
<path d="M272.013 536.26C237.494 544.46 202.156 548.633 166.694 548.699C131.232 548.633 95.8941 544.46 61.3747 536.26C95.8954 528.068 131.233 523.899 166.694 523.833C202.155 523.899 237.493 528.068 272.013 536.26V536.26Z" fill="#CCCCCC"/>
<path d="M199.606 385.443C199.606 385.443 213.192 411.864 213.996 422.509C214.404 428.051 218.393 501.4 218.393 501.4H201.357C201.357 501.4 184.243 411.398 179.964 402.135C178.042 397.949 174.066 379.475 170.288 360.444C180.228 359.447 190.035 357.945 199.777 356.124C199.685 372.152 199.606 385.443 199.606 385.443Z" fill="#474747"/>
<path d="M155.978 361.52C155.688 375.967 155.372 388.433 155.109 389.908C155.109 389.908 161.152 407.89 163.008 417.339C164.324 424.25 157.531 509.892 157.531 509.892H140.154C140.154 509.892 134.203 403.996 131.912 397.324C130.859 394.254 128.292 378.718 126.041 361.068C135.999 361.891 146 362.041 155.978 361.52V361.52Z" fill="#474747"/>
<path d="M199.606 385.443C199.606 385.443 213.192 411.863 213.996 422.509C214.404 428.051 218.393 501.399 218.393 501.399H215.615C214.548 482.793 210.494 422.496 209.269 421.26C207.808 419.784 192.629 382.718 192.629 382.718C192.629 382.718 193.155 371.661 193.643 357.307C195.709 356.948 197.763 356.576 199.817 356.191C199.685 372.152 199.606 385.443 199.606 385.443Z" fill="#2C2C2C"/>
<path d="M155.109 389.895C155.109 389.895 161.151 407.877 163.008 417.326C164.324 424.237 157.531 509.879 157.531 509.879H153.621L158.795 422.257L150.067 387.941L150.264 361.733C152.173 361.733 154.082 361.6 155.991 361.507C155.688 375.954 155.372 388.42 155.109 389.895Z" fill="#2C2C2C"/>
<path d="M106.78 529.694C106.819 529.1 107.006 528.525 107.324 528.023C107.641 527.522 108.079 527.109 108.597 526.824C112.191 525.029 125.396 519.461 128.95 516.351C131.715 513.932 134.111 508.736 135.045 506.53L159.73 507.473C161.23 514.318 162.363 527.515 162.507 530.266L106.78 529.694Z" fill="#845652"/>
<path d="M106.688 535.688L162.415 536.26L162.507 530.266L106.78 529.694L106.688 535.688Z" fill="#683534"/>
<path d="M133.624 518.079C133.624 518.145 133.624 518.225 133.729 518.291C133.992 518.823 134.164 519.62 133.505 519.939C133.16 520.059 132.785 520.059 132.439 519.939C131.225 519.634 130.072 519.122 129.029 518.424C127.778 517.78 126.699 516.841 125.883 515.687C125.714 515.438 125.628 515.142 125.637 514.84C125.645 514.539 125.749 514.248 125.932 514.01C126.115 513.772 126.368 513.599 126.655 513.516C126.942 513.432 127.248 513.443 127.528 513.547C130.075 514.183 132.267 515.813 133.624 518.079V518.079Z" fill="#683534"/>
<path d="M129.385 521.242L129.49 521.454C129.766 521.986 129.924 522.783 129.279 523.102C128.929 523.222 128.55 523.222 128.2 523.102C126.984 522.803 125.83 522.29 124.79 521.587C123.555 520.966 122.485 520.054 121.67 518.929C120.906 517.6 121.999 516.497 123.316 516.803C125.835 517.425 128.014 519.018 129.385 521.242V521.242Z" fill="#683534"/>
<path d="M124.198 523.315C124.238 523.379 124.273 523.445 124.303 523.514C124.566 524.046 124.737 524.843 124.079 525.162C123.734 525.282 123.358 525.282 123.013 525.162C121.8 524.862 120.646 524.354 119.603 523.661C118.371 523.034 117.302 522.123 116.483 521.003C115.719 519.673 116.812 518.57 118.129 518.876C120.65 519.496 122.829 521.09 124.198 523.315V523.315Z" fill="#683534"/>
<path d="M193.537 531.754C193.169 535.542 209.414 544.021 212.376 542.905C215.338 541.788 227.134 533.947 228.174 528.924C228.53 527.342 227.924 523.94 226.858 520.046C224.699 511.58 220.71 500.708 220.71 500.708L197.948 500.469C197.948 500.469 195.42 517.162 194.143 526.186C193.906 528.844 193.616 530.904 193.537 531.754Z" fill="#845652"/>
<path d="M193.537 531.754C193.169 535.542 209.414 544.021 212.376 542.905C215.338 541.788 227.134 533.947 228.174 528.924C228.53 527.342 227.924 523.94 226.858 520.046C222.579 524.883 215.641 531.794 210.81 531.754C206.781 531.754 199.751 528.831 194.143 526.186C193.906 528.844 193.616 530.904 193.537 531.754Z" fill="#683534"/>
<path d="M213.64 509.134C212.667 509.93 211.567 510.555 210.388 510.982C209.132 511.589 207.752 511.885 206.36 511.846C206.044 511.855 205.734 511.756 205.482 511.564C205.229 511.373 205.048 511.101 204.968 510.792C204.889 510.483 204.916 510.157 205.044 509.865C205.172 509.574 205.395 509.335 205.675 509.188C207.693 507.532 210.275 506.744 212.863 506.995H213.1C213.68 507.101 214.417 507.46 214.272 508.164C214.177 508.551 213.954 508.894 213.64 509.134V509.134Z" fill="#683534"/>
<path d="M206.32 517.175C206.009 517.175 205.707 517.072 205.461 516.88C205.214 516.689 205.037 516.421 204.958 516.117C204.878 515.814 204.9 515.492 205.02 515.203C205.141 514.913 205.352 514.672 205.623 514.517C207.641 512.895 210.202 512.123 212.771 512.364H212.995C213.574 512.47 214.311 512.829 214.167 513.534C214.063 513.887 213.845 514.196 213.548 514.411C212.575 515.207 211.475 515.831 210.296 516.258C209.057 516.866 207.698 517.179 206.32 517.175V517.175Z" fill="#683534"/>
<path d="M206.952 520.285C208.972 518.633 211.552 517.846 214.14 518.092H214.377C214.943 518.198 215.694 518.557 215.536 519.262C215.434 519.616 215.215 519.925 214.917 520.139C213.944 520.935 212.844 521.559 211.665 521.986C210.409 522.591 209.028 522.887 207.637 522.85C207.349 522.828 207.075 522.716 206.853 522.53C206.631 522.344 206.471 522.093 206.396 521.812C206.321 521.531 206.334 521.233 206.434 520.959C206.533 520.686 206.715 520.45 206.952 520.285V520.285Z" fill="#683534"/>
<path d="M233.835 406.627C219.643 412.754 173.842 403.345 173.842 403.345L166.97 382.891L162.468 401.71C157.966 407.438 116.18 408.913 116.18 408.913L134.414 231.276C134.414 231.276 124.461 221.335 122.434 213.122C120.406 204.909 131.491 171.417 131.491 171.417V163.603L142.839 159.151L156.162 153.941L176.857 153.117L197.921 157.396C197.921 157.396 197.921 157.649 198.013 158.114C198.882 164.666 205.386 213.561 205.214 217.003C204.872 220.644 233.835 406.627 233.835 406.627Z" fill="white"/>
<path d="M197.921 158.18C197.89 160.549 197.445 162.893 196.605 165.105C194.656 168.573 185.744 175.232 185.744 175.232C185.744 175.232 188.126 177.345 186.968 181.877C185.809 186.409 169.709 198.051 169.709 198.051C169.709 198.051 152.831 189.811 152.989 188.376C153.147 186.94 155.464 179.976 155.464 179.976C155.464 179.976 148.974 179.378 146.499 177.172C144.853 175.723 143.537 165.782 142.839 159.164L156.162 153.941L176.857 153.117L197.921 157.396C197.921 157.396 197.868 157.649 197.921 158.18Z" fill="#E0E0E0"/>
<path d="M189.087 298.02L185.638 305.077L210.27 318.035L213.074 311.961L189.087 298.02Z" fill="#E0E0E0"/>
<path d="M150.198 302.937L153.055 308.745L132.755 319.417L130.451 314.42L150.198 302.937Z" fill="#E0E0E0"/>
<path d="M156.162 153.941L148.698 156.851C148.698 156.851 167.128 197.692 169.761 198.051C172.394 198.41 187.758 155.336 187.758 155.336L176.831 153.117L156.162 153.941Z" fill="#8BCCCA"/>
<path d="M166.589 375.94C166.589 375.94 161.323 329.85 160.704 321.942C160.085 314.034 166.589 271.944 166.589 271.944L164.719 323.949L166.589 375.94Z" fill="#E0E0E0"/>
<path d="M131.491 163.603C131.491 163.603 118.129 168.919 116.233 171.79C114.337 174.66 98.1179 256.847 99.3291 260.98C100.54 265.113 112.784 276.928 115.377 278.563C117.971 280.198 163.126 289.62 163.126 289.62L166.589 269.951L137.731 257.139L141.154 189.598L131.491 163.603Z" fill="white"/>
<path d="M197.829 157.383C197.829 157.383 220.631 165.238 222.54 168.108C224.448 170.979 240.286 256.887 239.075 260.98C237.863 265.073 225.62 276.928 223.027 278.563C220.433 280.198 175.264 289.62 175.264 289.62L171.815 269.951L200.62 257.139L197.197 189.598L197.829 157.383Z" fill="white"/>
<path d="M170.406 148.08C166.507 148.714 162.509 148.062 159.006 146.219C159.216 141.621 159.203 136.079 159.203 136.079L174.593 136.305C174.446 139.485 174.485 142.671 174.711 145.847C173.521 146.996 172.025 147.772 170.406 148.08V148.08Z" fill="#EA7C6F"/>
<path d="M173.276 157.649C174.724 156.352 175.948 154.82 176.897 153.117V153.117C175.672 152.107 175.093 149.13 174.817 145.9C173.633 147.045 172.148 147.821 170.538 148.133C166.59 148.781 162.541 148.109 159.006 146.219C158.981 148.09 158.783 149.954 158.413 151.788C157.847 152.679 157.074 153.418 156.162 153.941C158.874 156.705 161.81 159.164 165.377 160.041C168.01 160.759 170.722 159.43 173.276 157.649Z" fill="#F3A080"/>
<path d="M149.961 128.331C148.568 128.224 147.217 127.799 146.011 127.087C144.804 126.376 143.774 125.397 142.997 124.224C142.724 123.84 142.474 123.441 142.247 123.028C141.194 121.034 140.377 113.924 142.523 112.09C144.037 110.761 145.327 112.382 145.972 113.419C146.133 113.678 146.274 113.949 146.394 114.23L149.961 128.331Z" fill="#F8BF92"/>
<path d="M149.961 128.331C148.568 128.224 147.217 127.799 146.011 127.087C144.804 126.376 143.774 125.397 142.997 124.224L142.707 123.626C141.654 121.646 140.838 114.535 142.984 112.688C144.208 111.638 145.288 112.489 145.999 113.419C146.159 113.678 146.3 113.949 146.42 114.23L149.961 128.331Z" fill="#F3A080"/>
<path d="M142.286 117.805C142.238 118.391 142.319 118.981 142.523 119.533C143.339 121.872 145.354 123.52 147.263 125.101C146.649 123.969 146.332 122.697 146.341 121.406C146.367 120.964 146.367 120.52 146.341 120.077C146.223 118.31 142.694 114.323 142.286 117.805Z" fill="#EA7C6F"/>
<path d="M148.263 125.713H148.145L147.842 125.513C147.482 125.243 147.159 124.925 146.881 124.57C146.478 124.015 146.183 123.388 146.012 122.722C145.795 121.89 145.795 121.016 146.012 120.184C146.041 120.076 146.076 119.969 146.117 119.865V119.785V119.652L145.973 119.386C145.775 119.054 145.564 118.735 145.354 118.443C145.153 118.166 144.937 117.9 144.709 117.645C144.523 117.418 144.316 117.208 144.09 117.021C143.924 116.872 143.718 116.775 143.498 116.742C143.323 116.728 143.149 116.78 143.01 116.888C142.913 116.947 142.842 117.042 142.813 117.154C142.807 117.193 142.807 117.234 142.813 117.273C142.804 117.234 142.804 117.193 142.813 117.154C142.822 117.023 142.878 116.9 142.971 116.808C143.112 116.656 143.305 116.561 143.511 116.542C143.79 116.527 144.066 116.601 144.301 116.755C144.569 116.925 144.82 117.121 145.051 117.34C145.317 117.58 145.568 117.838 145.801 118.111C146.059 118.413 146.297 118.733 146.512 119.067L146.683 119.333L146.762 119.479L146.868 119.665L146.947 119.812C146.947 119.812 146.947 119.905 146.947 119.958L146.868 120.157C146.829 120.252 146.798 120.35 146.776 120.45C146.571 121.18 146.535 121.949 146.67 122.696C146.771 123.315 146.976 123.913 147.276 124.463C147.486 124.844 147.742 125.197 148.039 125.513C148.12 125.605 148.208 125.689 148.303 125.766L148.263 125.713Z" fill="#B54B57"/>
<path d="M185.809 125.447C187.163 125.114 188.424 124.476 189.498 123.58C190.572 122.685 191.431 121.555 192.01 120.277C192.234 119.812 192.418 119.373 192.563 118.948C193.287 116.821 192.971 109.645 190.562 108.196C188.877 107.159 187.85 108.94 187.376 110.096C187.26 110.382 187.163 110.675 187.086 110.974L185.809 125.447Z" fill="#F8BF92"/>
<path d="M185.809 125.447C187.163 125.114 188.424 124.476 189.498 123.581C190.572 122.685 191.431 121.556 192.01 120.277L192.234 119.639C192.958 117.512 192.642 110.336 190.233 108.887C188.916 108.05 187.929 109.06 187.376 110.083C187.26 110.369 187.163 110.662 187.086 110.96L185.809 125.447Z" fill="#F3A080"/>
<path d="M191.707 113.831C191.839 114.404 191.839 114.999 191.707 115.572C191.273 118.004 189.548 119.984 187.903 121.832C188.339 120.616 188.453 119.305 188.232 118.031C188.153 117.592 188.047 117.154 188.008 116.702C187.903 114.908 190.786 110.509 191.707 113.831Z" fill="#EA7C6F"/>
<path d="M187.113 122.576L187.205 122.496L187.481 122.257C187.797 121.936 188.064 121.568 188.271 121.167C188.634 120.485 188.837 119.727 188.865 118.953C188.892 118.179 188.743 117.409 188.429 116.702C188.385 116.6 188.332 116.502 188.271 116.409V116.33V116.25V116.117L188.377 115.838C188.521 115.466 188.679 115.12 188.837 114.801C188.995 114.482 189.18 114.19 189.351 113.911C189.506 113.66 189.678 113.421 189.864 113.193C190.006 113.02 190.193 112.891 190.404 112.821C190.578 112.785 190.758 112.809 190.917 112.887C191.018 112.942 191.101 113.025 191.154 113.127C191.157 113.166 191.157 113.206 191.154 113.246C191.158 113.202 191.158 113.158 191.154 113.113C191.116 112.993 191.043 112.886 190.944 112.808C190.776 112.673 190.565 112.607 190.351 112.622C190.076 112.655 189.818 112.776 189.614 112.967C189.373 113.171 189.157 113.403 188.969 113.658C188.746 113.938 188.54 114.231 188.35 114.535C188.14 114.875 187.955 115.231 187.797 115.599C187.746 115.692 187.702 115.79 187.666 115.891V116.037L187.587 116.25V116.396L187.666 116.529L187.771 116.728C187.823 116.813 187.867 116.902 187.903 116.994C188.217 117.681 188.375 118.43 188.363 119.187C188.361 119.822 188.25 120.451 188.034 121.048C187.888 121.455 187.693 121.843 187.455 122.204L187.244 122.496L187.113 122.576Z" fill="#B54B57"/>
<path d="M187.126 109.685C187.126 109.685 187.666 123.599 184.493 129.048C181.781 133.594 177.989 140.81 171.328 143.668C170.004 144.227 168.536 144.344 167.142 144C160.032 142.219 155.161 135.707 151.778 131.64C147.723 126.789 146.065 113.034 146.065 113.034C145.959 112.117 145.893 111.226 145.828 110.376C144.037 84.0212 164.364 83.8351 164.364 83.8351C164.364 83.8351 184.282 82.4263 187.007 108.329L187.126 109.685Z" fill="#F8BF92"/>
<path d="M187.007 108.329C187.007 110.562 187.218 122.403 184.296 127.321C181.584 131.879 177.792 139.082 171.052 141.94C169.733 142.506 168.268 142.623 166.878 142.272C159.769 140.491 154.898 133.979 151.502 129.912C147.46 125.061 145.801 111.306 145.801 111.306C145.801 110.987 145.801 110.668 145.696 110.362C144.037 84.0212 164.364 83.8351 164.364 83.8351C164.364 83.8351 184.282 82.4263 187.007 108.329Z" fill="#F3A080"/>
<path d="M151.686 109.857C152.244 110.708 153.069 111.345 154.029 111.665C154.176 111.438 154.37 111.246 154.597 111.101C154.824 110.957 155.08 110.863 155.346 110.827C156.662 110.734 157.887 112.409 157.979 114.562C158.071 116.715 157.176 118.549 155.846 118.655C154.516 118.762 153.305 117.087 153.213 114.921C153.173 114.273 153.235 113.622 153.397 112.994C152.576 112.109 151.987 111.031 151.686 109.857Z" fill="#1D1E1E"/>
<path d="M155.807 115.08C154.863 115.503 153.812 115.619 152.8 115.411C151.788 115.204 150.865 114.684 150.159 113.924C151.102 113.499 152.154 113.383 153.166 113.59C154.178 113.797 155.102 114.318 155.807 115.08V115.08Z" fill="white"/>
<path d="M180.267 107.558C179.838 108.465 179.119 109.2 178.226 109.645C178.046 109.434 177.821 109.267 177.568 109.157C177.315 109.046 177.041 108.995 176.765 109.007C175.449 109.113 174.501 110.96 174.698 113.127C174.896 115.293 176.107 116.941 177.437 116.821C178.766 116.702 179.701 114.854 179.517 112.701C179.473 112.073 179.321 111.457 179.069 110.881C179.732 109.889 180.143 108.748 180.267 107.558Z" fill="#1D1E1E"/>
<path d="M177.015 113.366C178.014 113.639 179.072 113.588 180.041 113.221C181.009 112.854 181.839 112.188 182.413 111.319C181.408 111.094 180.361 111.149 179.385 111.479C178.438 111.876 177.618 112.529 177.015 113.366V113.366Z" fill="white"/>
<path d="M166.602 122.616C167.13 122.59 167.655 122.712 168.12 122.967C168.584 123.223 168.97 123.602 169.235 124.064C169.309 124.173 169.342 124.305 169.327 124.437C169.327 124.623 169.09 124.729 168.906 124.795C167.616 125.286 166.24 125.499 164.864 125.42C162.363 125.261 165.377 122.669 166.602 122.616Z" fill="#EA7C6F"/>
<path d="M165.456 124.729V124.317C165.456 124.184 165.456 124.025 165.456 123.839C165.456 123.653 165.456 123.44 165.456 123.214C165.456 122.988 165.456 122.736 165.456 122.47C165.456 122.204 165.456 121.912 165.456 121.619C165.456 121.034 165.351 120.383 165.298 119.705C165.246 119.028 165.154 118.376 165.088 117.805C165.088 117.513 165.009 117.233 164.969 116.968C164.93 116.702 164.89 116.449 164.851 116.223C164.811 115.997 164.772 115.798 164.746 115.612C164.719 115.426 164.746 115.267 164.653 115.134V114.735L164.903 115.054C165.004 115.181 165.096 115.314 165.18 115.453C165.285 115.612 165.404 115.798 165.522 116.011C165.641 116.223 165.759 116.463 165.865 116.715C165.97 116.968 166.088 117.26 166.194 117.552C166.357 118.236 166.45 118.936 166.47 119.639C166.543 120.328 166.543 121.023 166.47 121.712C166.47 122.031 166.378 122.324 166.312 122.603C166.255 122.859 166.185 123.112 166.101 123.36C166.041 123.569 165.967 123.773 165.878 123.972C165.822 124.122 165.756 124.269 165.68 124.41C165.614 124.522 165.539 124.629 165.456 124.729V124.729Z" fill="#DD5B67"/>
<path d="M176.16 127.44C176.16 127.44 169.445 127.706 159.796 132.65C159.796 132.65 164.008 137.647 169.854 135.454C171.53 134.828 173.004 133.749 174.115 132.336C175.227 130.924 175.934 129.23 176.16 127.44V127.44Z" fill="white"/>
<path d="M185.941 122.004C185.941 122.004 185.941 121.685 186.033 121.127V120.662C186.033 120.489 186.033 120.317 186.033 120.117C186.033 119.918 186.125 119.267 186.152 118.788C186.152 118.536 186.152 118.283 186.152 118.017C186.152 117.752 186.152 117.459 186.152 117.18C186.152 116.595 186.218 115.984 186.257 115.346C186.257 114.017 186.362 112.688 186.389 111.16C186.415 109.631 186.389 108.276 186.389 106.973C186.389 106.335 186.389 105.711 186.389 105.139V104.289C186.389 104.023 186.389 103.757 186.389 103.518C186.389 103.013 186.389 102.561 186.297 102.189C186.297 101.989 186.297 101.803 186.297 101.631V101.165C186.297 100.594 186.297 100.275 186.297 100.275C186.297 100.275 186.428 100.554 186.639 101.072L186.823 101.498C186.823 101.67 186.942 101.843 187.021 102.029C187.1 102.215 187.31 102.84 187.455 103.358C187.521 103.598 187.6 103.863 187.666 104.129C187.732 104.395 187.811 104.687 187.876 104.98C188.021 105.564 188.14 106.202 188.258 106.88C188.477 108.349 188.582 109.833 188.574 111.319C188.532 112.775 188.369 114.224 188.087 115.652C187.955 116.316 187.824 116.981 187.666 117.512L187.429 118.336L187.192 119.081C187.034 119.559 186.863 119.971 186.718 120.33L186.507 120.835L186.323 121.247C186.086 121.739 185.941 122.004 185.941 122.004Z" fill="#38102B"/>
<path d="M150.001 129.115C150.001 129.115 149.843 128.849 149.593 128.357C149.343 127.866 148.974 127.161 148.566 126.257C148.158 125.354 147.723 124.237 147.249 122.988C146.79 121.618 146.399 120.225 146.078 118.815C145.773 117.398 145.545 115.965 145.393 114.522C145.248 113.193 145.196 111.971 145.169 110.947C145.143 109.924 145.169 109.113 145.169 108.542C145.169 107.97 145.169 107.665 145.169 107.665C145.169 107.665 145.262 107.957 145.406 108.502C145.551 109.047 145.775 109.831 146.025 110.801C146.275 111.771 146.565 112.901 146.881 114.177C147.197 115.453 147.513 116.835 147.842 118.297C148.171 119.759 148.447 121.167 148.684 122.443C148.921 123.719 149.158 124.902 149.329 125.885C149.501 126.869 149.645 127.68 149.738 128.238C149.83 128.796 150.001 129.115 150.001 129.115Z" fill="#38102B"/>
<path d="M155.899 123.134C155.635 124.064 153.147 124.171 150.356 123.373C147.565 122.576 145.512 121.141 145.775 120.21C146.038 119.28 148.526 119.16 151.317 119.971C154.108 120.782 156.162 122.191 155.899 123.134Z" fill="#EA7C6F"/>
<path d="M188.429 116.595C188.864 117.459 187.113 119.253 184.48 120.582C181.847 121.911 179.438 122.297 178.99 121.433C178.542 120.569 180.306 118.775 182.939 117.446C185.572 116.117 187.982 115.732 188.429 116.595Z" fill="#EA7C6F"/>
<path d="M166.51 95.4506L169.419 99.9162C161.283 98.0422 156.873 96.7398 152.41 89.6163C152.515 94.8856 151.493 100.116 149.414 104.95C147.335 109.785 144.248 114.111 140.364 117.632C139.719 115.439 139.048 113.18 138.653 110.92C137.442 105.192 137.178 99.3713 139.627 94.1216C141.38 90.3813 144.336 87.3505 148.013 85.5229C149.237 81.2533 152.074 77.6401 155.912 75.4622C159.64 73.5332 163.848 72.7566 168.01 73.2295C170.92 73.5105 173.751 74.34 176.357 75.6748C181.654 78.6955 185.672 83.5697 187.652 89.377C188.147 90.8132 188.538 92.2833 188.824 93.7761C190.259 100.607 191.168 110.415 191.168 110.415C191.168 110.415 173.395 100.474 166.51 95.4506Z" fill="#38102B"/>
<path d="M146.367 104.581C146.367 104.581 156.768 100.249 159.374 103.252C160.902 105.006 159.23 105.578 159.23 105.578L146.367 104.581Z" fill="#4A0E2F"/>
<path d="M184.651 101.285C184.651 101.285 173.711 98.627 171.605 102.069C170.367 104.049 172.105 104.342 172.105 104.342L184.651 101.285Z" fill="#4A0E2F"/>
<path d="M176.897 92.6065C170.713 91.021 164.741 88.6871 159.111 85.6558C159.202 87.1527 159.467 88.6337 159.901 90.0681C156.443 88.884 153.131 87.3055 150.027 85.3634C149.928 90.7575 148.376 96.0226 145.538 100.594C145.585 98.9185 145.126 97.2682 144.221 95.8626C144.458 96.2348 143.866 98.1353 143.787 98.6004C143.603 99.5573 143.405 100.501 143.181 101.445C142.477 104.727 141.066 107.812 139.048 110.482C138.929 110.615 138.824 110.761 138.705 110.92C137.828 107.237 137.605 103.426 138.047 99.6636C138.314 97.7443 138.864 95.8761 139.68 94.1216C141.431 90.4135 144.353 87.3981 147.987 85.5495H148.066C148.655 83.2703 149.759 81.1597 151.291 79.3828C152.603 77.7977 154.191 76.4688 155.978 75.4622C159.686 73.5461 163.87 72.7699 168.01 73.2294C170.92 73.5105 173.751 74.34 176.357 75.6748C180.182 77.7821 183.343 80.932 185.48 84.7653C186.346 86.2302 187.074 87.7743 187.653 89.377C188.147 90.8132 188.538 92.2833 188.824 93.7761C184.814 93.9431 180.8 93.5495 176.897 92.6065V92.6065Z" fill="#4A0E2F"/>
<path d="M147.96 85.5496C147.967 85.6381 147.967 85.7269 147.96 85.8154C147.612 88.5468 146.392 91.0893 144.485 93.0586C144.485 92.2744 144.366 91.5036 144.314 90.7328C142.721 94.0534 140.595 97.0848 138.021 99.7037C138.287 97.7843 138.838 95.9162 139.653 94.1616C141.397 90.4387 144.32 87.4084 147.96 85.5496V85.5496Z" fill="#5F1234"/>
<path d="M157.558 77.8013C157.716 78.8468 157.887 79.8967 158.071 80.951C155.747 80.7642 153.463 80.2359 151.291 79.3828C152.603 77.7977 154.191 76.4688 155.978 75.4622C159.686 73.5461 163.87 72.7699 168.011 73.2294C170.92 73.5105 173.751 74.34 176.357 75.6748C180.182 77.7821 183.343 80.932 185.48 84.7653C175.909 85.9747 165.944 82.8515 157.558 77.8013Z" fill="#5F1234"/>
<path d="M158.795 149.808L148.698 156.851L156.807 174.368L168.01 163.603L180.688 174.368L187.758 155.336L175.093 148.784C175.093 148.784 174.948 156.758 167.563 157.383C160.177 158.008 158.795 149.808 158.795 149.808Z" fill="#6BAAA7"/>
<path d="M191.918 244.474C191.655 237.988 189.088 232.818 186.191 232.938C183.295 233.057 181.149 238.413 181.412 244.899C181.406 245.023 181.406 245.147 181.412 245.271C181.755 251.584 184.282 256.541 187.126 256.421C189.97 256.302 191.997 251.345 191.918 245.191C191.931 244.965 191.931 244.726 191.918 244.474Z" fill="#526995"/>
<path d="M191.931 245.205C190.264 244.474 188.48 244.056 186.665 243.969C184.848 244.111 183.068 244.56 181.399 245.298C181.741 251.61 184.269 256.568 187.113 256.448C189.956 256.328 192.01 251.358 191.931 245.205Z" fill="white"/>
<g style="mix-blend-mode:multiply">
<path d="M187.521 233.257C187.116 233.04 186.663 232.93 186.204 232.938C183.295 233.057 181.162 238.413 181.425 244.899C181.419 245.023 181.419 245.147 181.425 245.271C181.768 251.584 184.295 256.541 187.139 256.421C187.606 256.404 188.061 256.262 188.456 256.009C186.191 254.827 184.348 250.467 184.072 245.165C184.072 245.032 184.072 244.912 184.072 244.792C183.808 239.33 185.296 234.652 187.521 233.257Z" fill="#E0E0E0"/>
</g>
<path d="M199.027 249.577C194.511 254.202 189.166 256.222 187.1 254.215C185.033 252.208 187.021 246.746 191.536 242.121L191.813 241.855C196.262 237.417 201.436 235.463 203.464 237.483C205.491 239.503 203.687 244.553 199.514 249.059L199.027 249.577Z" fill="white"/>
<path d="M199.527 249.059C197.799 248.466 196.189 247.566 194.775 246.401C193.553 245.065 192.553 243.539 191.813 241.882C196.262 237.443 201.436 235.489 203.464 237.51C205.491 239.53 203.687 244.567 199.527 249.059Z" fill="#BD4761"/>
<g style="mix-blend-mode:multiply">
<path d="M188.298 254.893C187.847 254.775 187.434 254.542 187.1 254.215C185.033 252.155 187.021 246.746 191.536 242.121L191.813 241.855C196.262 237.417 201.436 235.463 203.464 237.483C203.793 237.816 204.033 238.227 204.161 238.679C201.686 238.015 197.434 240.008 193.629 243.729L193.366 243.982C189.601 247.889 187.587 252.355 188.298 254.893Z" fill="#E0E0E0"/>
</g>
<path d="M150.422 248.992C148.592 242.759 149.369 237.031 152.16 236.22C154.951 235.41 158.742 239.756 160.507 245.989C160.507 246.108 160.507 246.228 160.599 246.348C162.297 252.435 161.494 257.95 158.756 258.774C156.017 259.598 152.529 255.544 150.633 249.697C150.554 249.458 150.488 249.232 150.422 248.992Z" fill="#F3803D"/>
<path d="M150.633 249.697C151.984 248.453 153.551 247.471 155.254 246.799C156.998 246.347 158.805 246.194 160.599 246.348C162.297 252.434 161.494 257.95 158.756 258.774C156.017 259.598 152.529 255.544 150.633 249.697Z" fill="white"/>
<g style="mix-blend-mode:multiply">
<path d="M151.001 236.951C151.312 236.603 151.714 236.35 152.16 236.22C154.951 235.383 158.742 239.756 160.507 245.989C160.507 246.108 160.507 246.228 160.599 246.348C162.297 252.434 161.494 257.95 158.756 258.774C158.323 258.878 157.872 258.878 157.439 258.774C159.216 256.913 159.559 252.129 158.124 247.065C158.099 246.944 158.068 246.824 158.032 246.706C156.439 241.483 153.529 237.549 151.001 236.951Z" fill="#E0E0E0"/>
</g>
<path d="M150.29 242.866C155.635 246.494 158.65 251.398 157.031 253.83C155.412 256.262 149.764 255.305 144.432 251.677C144.326 251.614 144.225 251.543 144.129 251.464C138.969 247.876 136.099 243.105 137.692 240.713C139.285 238.32 144.524 239.184 149.685 242.467L150.29 242.866Z" fill="white"/>
<path d="M149.685 242.467C149.422 244.293 148.838 246.058 147.96 247.676C146.893 249.138 145.599 250.417 144.129 251.464C138.969 247.876 136.099 243.105 137.692 240.712C139.285 238.32 144.524 239.25 149.685 242.467Z" fill="#BD4761"/>
<g style="mix-blend-mode:multiply">
<path d="M157.479 252.541C157.458 253.014 157.312 253.473 157.057 253.87C155.438 256.302 149.79 255.345 144.459 251.717C144.352 251.654 144.251 251.583 144.156 251.504C138.995 247.916 136.125 243.145 137.718 240.752C137.98 240.364 138.338 240.052 138.758 239.849C138.561 242.427 141.286 246.281 145.617 249.298C145.713 249.376 145.814 249.447 145.92 249.511C150.396 252.541 155.122 253.697 157.479 252.541Z" fill="#E0E0E0"/>
</g>
<path d="M174.29 249.232C168.787 245.869 165.549 241.125 167.049 238.599C168.55 236.074 174.224 236.779 179.74 240.128L180.043 240.327C185.309 243.676 188.456 248.301 186.981 250.76C185.507 253.219 180.227 252.621 174.922 249.59L174.29 249.232Z" fill="#8D964D"/>
<path d="M174.922 249.604C175.084 247.755 175.584 245.952 176.397 244.287C177.396 242.773 178.627 241.427 180.043 240.3C185.309 243.65 188.456 248.275 186.981 250.733C185.507 253.192 180.228 252.634 174.922 249.604Z" fill="white"/>
<g style="mix-blend-mode:multiply">
<path d="M166.694 239.941C166.699 239.473 166.826 239.015 167.063 238.612C168.563 236.101 174.237 236.792 179.754 240.141L180.056 240.34C185.322 243.689 188.469 248.314 186.994 250.773C186.747 251.168 186.408 251.497 186.007 251.73C186.007 249.152 183.176 245.43 178.7 242.626C178.601 242.55 178.495 242.484 178.384 242.427C173.724 239.583 168.958 238.652 166.694 239.941Z" fill="#E0E0E0"/>
</g>
<path d="M163.376 250.853C168.879 247.504 172.131 242.746 170.63 240.221C169.13 237.696 163.442 238.4 157.939 241.762C157.828 241.819 157.723 241.886 157.623 241.962C152.357 245.298 149.211 249.936 150.685 252.381C152.16 254.827 157.479 254.268 162.745 251.212L163.376 250.853Z" fill="#6BAAA7"/>
<path d="M162.745 251.212C162.576 249.364 162.077 247.563 161.27 245.896C160.274 244.374 159.038 243.027 157.61 241.909C152.344 245.245 149.198 249.883 150.672 252.328C152.147 254.774 157.479 254.269 162.745 251.212Z" fill="white"/>
<g style="mix-blend-mode:multiply">
<path d="M170.999 241.563C170.994 241.095 170.867 240.637 170.63 240.234C169.13 237.722 163.442 238.413 157.939 241.776C157.828 241.833 157.723 241.899 157.623 241.975C152.357 245.311 149.211 249.949 150.685 252.395C150.934 252.793 151.278 253.122 151.686 253.352C151.686 250.773 154.516 247.052 158.993 244.248C159.088 244.174 159.19 244.107 159.295 244.048C163.943 241.218 168.721 240.274 170.999 241.563Z" fill="#E0E0E0"/>
</g>
<path d="M138.245 247.863L142.694 289.62H199.87L204.043 245.856L138.245 247.863Z" fill="#B88B61"/>
<path d="M129.174 282.417L115.351 278.563C115.351 278.563 109.848 267.692 110.651 265.764C111.454 263.837 123 248.022 126.014 247.158C129.029 246.294 138.152 249.152 138.126 249.657C138.1 250.162 139.903 260.289 139.903 260.289L129.174 282.417Z" fill="#E0E0E0"/>
<path d="M136.415 279.001C136.415 279.001 129.121 281.832 127.765 281.022C126.409 280.211 120.617 272.476 121.222 269.951C121.828 267.426 130.293 254.508 131.965 255.079C133.637 255.651 141.746 261.724 141.746 261.724L136.415 279.001Z" fill="#F3A080"/>
<path d="M169.327 260.369C169.195 262.827 152.621 259.983 152.621 259.983L150.264 264.037L157.044 265.831L164.509 272.968C164.509 272.968 163.864 274.868 162.942 277.167C162.874 277.383 162.785 277.593 162.679 277.792C162.679 277.792 162.679 277.792 162.679 277.792C162.643 277.851 162.612 277.914 162.587 277.978C162.481 278.231 162.363 278.523 162.244 278.776C161.794 279.869 161.28 280.934 160.704 281.965C160.636 282.079 160.579 282.2 160.533 282.324C160.222 282.846 159.879 283.348 159.506 283.826C159.236 284.213 158.867 284.521 158.44 284.716L151.594 280.543C151.594 280.543 141.194 284.371 139.548 284.092C138.89 283.985 136.691 282.032 134.282 279.759L131.768 277.274C131.75 277.247 131.728 277.225 131.702 277.207L130.82 276.33L132.255 273.287L132.623 272.529L132.768 272.17L132.913 271.825L137.731 261.711L138.403 261.272C139.232 260.767 140.219 260.196 141.312 259.598C142.01 259.226 142.734 258.827 143.497 258.442C146.129 257.009 148.941 255.945 151.857 255.279C152.813 255.068 153.798 255.032 154.767 255.172C160.533 256.235 169.419 257.923 169.327 260.369Z" fill="#F3A080"/>
<path d="M162.942 277.221L162.587 278.098L162.415 277.965C161.481 277.221 160.204 276.224 158.795 275.187C157.593 274.277 156.315 273.472 154.977 272.782L154.24 272.436L153.661 272.21L153.147 272.011H153.713H154.385L155.267 272.091C156.937 272.345 158.522 273.002 159.888 274.004C161.087 274.885 162.121 275.974 162.942 277.221V277.221Z" fill="#B54B57"/>
<path d="M160.704 282.071L160.506 282.417L159.506 281.593C158.571 280.849 157.281 279.852 155.886 278.815C154.677 277.923 153.395 277.136 152.055 276.463L151.317 276.117L150.738 275.891L150.225 275.692H150.791H151.462L152.344 275.785C154.015 276.029 155.601 276.681 156.965 277.686C158.218 278.608 159.286 279.763 160.112 281.088C160.388 281.46 160.572 281.779 160.704 282.071Z" fill="#B54B57"/>
<path d="M210.638 281.221L224.422 277.367C224.422 277.367 229.938 266.495 229.122 264.568C228.306 262.641 216.773 246.813 213.772 245.962C210.77 245.112 201.621 247.942 201.647 248.447C201.673 248.952 199.87 259.08 199.87 259.08L210.638 281.221Z" fill="#E0E0E0"/>
<path d="M203.464 277.792C203.464 277.792 210.757 280.623 212.1 279.812C213.443 279.002 219.13 271.32 218.59 268.755C218.05 266.19 209.506 253.298 207.834 253.883C206.162 254.468 198.053 260.448 198.053 260.448L203.464 277.792Z" fill="#F3A080"/>
<path d="M170.499 259.186C170.643 261.645 187.218 258.801 187.218 258.801L189.561 262.854L182.755 264.715L175.304 271.851C175.304 271.851 175.949 273.752 176.87 276.038C176.938 276.252 177.021 276.461 177.121 276.663L177.213 276.862C177.305 277.114 177.423 277.394 177.542 277.646C177.997 278.741 178.511 279.81 179.082 280.849C179.082 280.955 179.214 281.088 179.266 281.194C179.573 281.723 179.916 282.23 180.293 282.71C180.56 283.101 180.929 283.409 181.36 283.6L188.205 279.427C188.205 279.427 198.593 283.254 200.238 282.962C200.896 282.856 203.108 280.915 205.504 278.629C206.347 277.819 207.202 276.955 208.032 276.144V276.078C208.308 275.785 208.611 275.493 208.914 275.214L207.479 272.157L207.11 271.4L206.952 271.041L206.807 270.695L202.147 260.515L201.462 260.09C200.646 259.585 199.659 259.013 198.553 258.402C197.868 258.043 197.131 257.631 196.381 257.259C193.752 255.818 190.939 254.749 188.021 254.083C187.06 253.879 186.072 253.843 185.099 253.976C179.28 255.026 170.393 256.714 170.499 259.186Z" fill="#F3A080"/>
<path d="M176.87 276.025C176.976 276.304 177.107 276.596 177.226 276.888L177.397 276.769C178.332 276.011 179.609 275.015 181.004 273.978C182.211 273.067 183.493 272.262 184.835 271.572L185.559 271.227L186.152 271.001L186.665 270.802H186.099H185.428L184.546 270.881C182.877 271.132 181.292 271.784 179.925 272.782C178.72 273.667 177.685 274.766 176.87 276.025V276.025Z" fill="#B54B57"/>
<path d="M179.108 280.862C179.108 280.982 179.24 281.101 179.293 281.221L180.307 280.397C181.241 279.639 182.518 278.656 183.927 277.606C185.132 276.7 186.409 275.896 187.745 275.2L188.482 274.855L189.074 274.642L189.588 274.43H189.009H188.337L187.455 274.509C185.791 274.762 184.211 275.414 182.847 276.41C181.567 277.366 180.481 278.562 179.648 279.932C179.411 280.264 179.24 280.596 179.108 280.862Z" fill="#B54B57"/>
<path d="M119.432 175.165C119.432 175.165 131.768 190.741 131.768 192.735C131.768 194.728 124.329 209.374 124.198 216.737C124.066 224.1 131.768 239.25 131.768 239.25C131.768 239.25 125.738 218.385 126.317 216.883C126.896 215.381 134.73 194.835 135.098 192.655C135.467 190.475 119.432 175.165 119.432 175.165Z" fill="#E0E0E0"/>
<path d="M218.63 175.577C218.63 175.577 206.294 191.153 206.294 193.2C206.294 195.247 213.732 209.84 213.864 217.202C213.996 224.565 206.294 239.703 206.294 239.703C206.294 239.703 212.324 218.837 211.744 217.335C211.165 215.833 203.319 195.247 202.924 193.067C202.529 190.888 218.63 175.577 218.63 175.577Z" fill="#E0E0E0"/>
<path d="M204.043 205.121H177.739V219.927H204.043V205.121Z" fill="#6BAAA7"/>
<path d="M189.338 207.952H180.28V217.096H189.338V207.952Z" fill="#8BCCCA"/>
<path d="M201.502 207.952H191.852V210.119H201.502V207.952Z" fill="#8BCCCA"/>
<path d="M201.502 211.434H191.852V213.6H201.502V211.434Z" fill="#8BCCCA"/>
<path d="M201.502 214.916H191.852V217.083H201.502V214.916Z" fill="#8BCCCA"/>
<path d="M192.339 200.55H189.43V206.331H192.339V200.55Z" fill="#434356"/>
<path d="M146.486 210.132H142.049V205.653H137.81V210.132H133.387V214.411H137.81V218.89H142.049V214.411H146.486V210.132Z" fill="#6BAAA7"/>
<path d="M192.576 178.461C194.155 183.487 196.132 188.375 198.487 193.081V193.081C197.566 192.961 180.346 190.555 176.186 182.595C171.894 174.408 174.211 151.442 175.08 148.811C175.949 146.179 184.677 136.039 184.677 136.039L183.361 130.816L184.585 128.158L185.783 125.5C185.783 125.5 195.222 131.6 200.08 140.744C204.938 149.887 190.852 172.202 192.576 178.461Z" fill="#38102B"/>
<path d="M192.576 178.461C194.155 183.486 196.132 188.375 198.487 193.08V193.08C197.71 192.735 185.862 187.419 183.808 184.88C181.755 182.342 182.492 158.566 182.492 154.313C182.492 150.06 190.391 140.345 188.574 136.065C187.4 133.338 186.081 130.676 184.625 128.091L185.059 127.134L185.823 125.447C185.823 125.447 195.262 131.547 200.12 140.69C204.977 149.834 190.852 172.201 192.576 178.461Z" fill="#4A0E2F"/>
<path d="M192.576 178.461C194.155 183.486 196.132 188.375 198.487 193.08C198.487 193.08 190.114 185.292 189.166 183.259C188.219 181.226 187.416 168.945 187.955 165.118C188.495 161.29 197.408 144.664 197.171 142.245C196.96 140.292 188.416 130.789 185.085 127.148L185.849 125.46C185.849 125.46 195.288 131.56 200.146 140.704C205.004 149.847 190.852 172.201 192.576 178.461Z" fill="#5F1234"/>
<path d="M232.558 83.8219L205.057 103.053L235.77 99.8764L232.558 83.8219Z" fill="#FFB600"/>
<path d="M195.288 76.8844L197.658 99.2252L205.596 80.1139L195.288 76.8844Z" fill="#FFB600"/>
<path d="M226.147 116.662L201.739 113.698L220.157 127.068L226.147 116.662Z" fill="#FFB600"/>
<path d="M211.197 318.711C213.311 322.724 217.621 324.993 221.657 327.013C229.07 330.637 236.317 335.314 243.62 338.828L256.056 357.257L272.529 340.184L277.388 335.148L265.473 317.328C267.118 305.206 266.362 292.876 263.249 281.051C261.552 276.523 260.104 271.905 258.912 267.216C257.841 261.101 258.912 254.792 258.527 248.566C258.625 247.077 258.165 245.605 257.237 244.443C256.54 243.85 255.672 243.5 254.761 243.445C253.851 243.39 252.947 243.633 252.186 244.138C250.668 245.17 249.454 246.594 248.671 248.261L248.397 248.815C244.491 256.283 243.112 264.834 244.471 273.165C244.78 274.203 244.78 275.309 244.471 276.347C243.988 277.183 243.245 277.834 242.357 278.201C236.977 280.658 230.931 281.214 225.199 279.778C222.811 278.957 220.241 278.833 217.786 279.419C214.492 280.692 213.119 284.565 212.295 288.052C210.695 294.879 209.775 301.849 209.55 308.86C209.257 312.232 209.824 315.623 211.197 318.711V318.711Z" fill="#B77158"/>
<path d="M235.768 305.595C235.02 312.072 235.81 318.635 238.074 324.743C234.322 319.599 232.138 313.465 231.788 307.089C231.644 303.891 232.28 300.706 233.639 297.812C234.998 294.918 237.039 292.403 239.584 290.487C240.521 289.731 241.607 289.184 242.769 288.882C242.549 291.206 239.475 294.084 238.431 296.298C237.079 299.242 236.181 302.377 235.768 305.595V305.595Z" fill="#8E503D"/>
<path d="M253.174 352.829C253.174 352.829 282.439 391.568 306.544 413.705C316.454 422.809 325.487 429.09 331.252 428.703C350.964 427.319 364.196 364.396 364.196 364.396L320.38 359.83L317.333 364.921L265.473 317.328L257.237 340.986L253.174 352.829Z" fill="#B77158"/>
<path d="M256.743 258.112H221.135V303.769H256.743V258.112Z" fill="#BD4761"/>
<path d="M221.136 290.874H256.743V270.121H221.136V290.874Z" fill="white"/>
<path d="M222.179 254.211H255.7V244.553H222.179V254.211Z" fill="#444444"/>
<path d="M217.127 258.112H260.724V251.664H217.127V258.112Z" fill="#444444"/>
<path d="M210.566 320.925C219.955 324.771 232.062 322.004 232.062 322.004C233.049 319.772 233.696 317.402 233.984 314.976C234.175 313.859 234.294 312.732 234.341 311.6C234.505 308.918 234.505 306.229 234.341 303.548C234.341 302.358 234.341 301.14 234.121 299.95C233.819 296.741 233.407 293.586 232.913 290.653C232.721 289.38 232.501 288.163 232.282 287C231.705 283.846 231.101 281.107 230.607 279.059C230.113 277.011 229.646 275.268 229.646 275.268C220.422 274.438 207.107 280.802 207.107 280.802C205.922 284.169 205.238 287.693 205.075 291.262C205.117 301.402 206.977 311.452 210.566 320.925V320.925Z" fill="#B77158"/>
<path d="M217.759 290.238C217.759 290.238 219.049 290.432 220.971 290.625C223.36 290.872 225.763 290.965 228.164 290.902C229.811 290.902 231.403 290.681 232.803 290.515C232.611 289.242 232.391 288.024 232.172 286.862C230.8 286.572 229.4 286.442 227.999 286.475C225.398 286.598 222.852 287.277 220.532 288.467C219.546 288.953 218.616 289.547 217.759 290.238V290.238Z" fill="#8E503D"/>
<path d="M220.037 302.579C220.037 302.579 221.245 302.883 223.057 303.188C225.28 303.563 227.53 303.757 229.783 303.769C231.235 303.727 232.683 303.607 234.121 303.409C234.121 302.219 234.121 301.002 233.901 299.812C232.553 299.486 231.171 299.319 229.783 299.314C227.324 299.386 224.905 299.96 222.673 301.002C221.74 301.43 220.857 301.959 220.037 302.579V302.579Z" fill="#8E503D"/>
<path d="M218.637 314.09C219.686 314.369 220.749 314.591 221.822 314.754C224.234 315.166 226.679 315.351 229.124 315.308C230.717 315.274 232.305 315.117 233.874 314.837C234.065 313.721 234.184 312.593 234.231 311.461C232.527 311.028 230.772 310.833 229.015 310.88C226.439 310.985 223.906 311.576 221.547 312.624C220.54 313.033 219.567 313.523 218.637 314.09V314.09Z" fill="#8E503D"/>
<path d="M205.075 291.262C206.82 288.687 209.027 286.462 211.582 284.704C214.02 283.235 216.655 282.126 219.406 281.411C222.519 280.293 225.726 279.46 228.987 278.921C229.481 278.879 229.976 278.879 230.47 278.921C229.921 276.569 229.509 275.13 229.509 275.13C220.284 274.3 206.969 280.664 206.969 280.664C205.818 284.082 205.18 287.654 205.075 291.262V291.262Z" fill="#CC836D"/>
<path d="M384.869 202.853C384.869 202.853 358.239 213.313 356.921 220.978C355.603 228.643 323.4 347.489 323.4 347.489L367.848 356.897L390.442 239.849L384.869 202.853Z" fill="white"/>
<path d="M369.028 349.564L319.584 336.753L315.356 359.36L369.028 364.894V349.564Z" fill="#E0E0E0"/>
<path d="M626.433 108.717L556.646 108.662L613.063 77.3662L626.433 108.717Z" fill="#FFB600"/>
<path d="M570.62 165.138L548.437 124.047L584.511 147.29L570.62 165.138Z" fill="#FFB600"/>
<path d="M576.824 60.1273L538.444 94.3838L554.34 49.4464L576.824 60.1273Z" fill="#FFB600"/>
<path d="M374.382 616.228H513.599V499.54H374.382V616.228Z" fill="#E0E0E0"/>
<path d="M578.664 923.568L575.918 924.619C547.389 934.929 516.539 936.849 486.969 930.153L480.874 715.677L451.526 548.49L449.851 537.975L449.412 548.545L441.643 708.316L455.891 934.94C453.098 936.123 450.238 937.14 447.326 937.984C407.847 949.634 357.003 934.94 357.003 934.94C357.003 934.94 362.741 735.987 361.698 721.045C361.012 711.415 367.408 610.057 371.993 540.188C374.464 502.528 376.413 465.92 376.413 465.92L548.575 474.027L548.053 531.804L552.418 708.316C552.418 708.316 582.123 922.212 578.664 923.568Z" fill="#434356"/>
<path d="M374.382 503.829C425.418 516.806 542.233 501.781 548.328 501.062L548.602 474.11L376.413 466.003C376.413 466.003 375.617 485.649 374.382 503.829Z" fill="#343345"/>
<path d="M455.891 934.802C453.093 935.973 450.234 936.989 447.326 937.846L430.854 708.178L446.667 515.672L449.742 537.975L449.412 548.545L441.643 708.316L455.891 934.802Z" fill="#343345"/>
<path d="M578.664 923.568L575.918 924.619L540.75 708.316L538.444 474.166H548.575L548.053 531.942L552.418 708.316C552.418 708.316 582.123 922.212 578.664 923.568Z" fill="#343345"/>
<path d="M496.495 182.571L518.458 189.018L525.925 487.42C525.925 487.42 471.732 496.026 446.996 496.026C422.261 496.026 381.108 487.42 381.108 487.42L405.239 196.406L434.862 189.212L496.495 182.571Z" fill="#8BCCCA"/>
<path d="M447.902 179.804C448.259 176.898 448.534 174.795 448.561 174.269C448.891 170.479 447.024 153.765 447.024 153.765L488.589 138.657C488.589 138.657 488.589 146.958 488.369 156.256C488.204 167.324 487.902 179.804 487.353 180.274L463.551 202.411L447.079 186.611L447.902 179.804Z" fill="#B77158"/>
<path d="M488.369 156.173C476.591 163.395 450.62 179.139 448.122 179.638H447.902C448.259 176.732 448.534 174.629 448.561 174.103C448.891 170.312 447.024 153.599 447.024 153.599L488.589 138.491C488.589 138.491 488.534 146.931 488.369 156.173Z" fill="#8E503D"/>
<path d="M496.907 137.44C495.628 140.132 493.749 142.49 491.416 144.33V144.33C490.382 145.244 489.3 146.103 488.177 146.903C483.427 150.279 439.172 169.04 432.391 168.099C425.61 167.158 419.213 143.555 418.939 141.064C416.852 125.873 411.142 78.8604 411.142 78.8604C428.245 27.8077 488.012 54.7038 494.683 59.7675C501.354 64.8313 496.907 137.44 496.907 137.44Z" fill="#B77158"/>
<path d="M491.361 144.33C490.327 145.244 489.246 146.103 488.122 146.903C483.372 150.279 439.117 169.04 432.336 168.099C425.555 167.158 419.213 143.555 418.939 141.065C423.112 151.441 427.806 165.775 432.666 165.359C439.886 164.723 485.98 147.152 491.361 144.33Z" fill="#CC836D"/>
<path d="M416.715 96.459C416.715 96.459 419.46 83.0387 425.39 85.031C431.32 87.0233 429.673 88.3238 429.673 88.3238L416.715 96.459Z" fill="#FFDDA0"/>
<path d="M481.203 86.3867C481.203 86.3867 463.606 71.6659 458.554 78.7773C455.589 82.9279 458.554 84.9479 458.554 84.9479L481.203 86.3867Z" fill="#FFDDA0"/>
<path d="M425.39 107.278C425.39 110.82 427.147 113.726 429.344 113.753C431.54 113.781 433.352 110.986 433.379 107.306C433.407 103.626 431.622 100.859 429.426 100.831C427.23 100.803 425.418 103.709 425.39 107.278Z" fill="#1D1E1E"/>
<path d="M421.959 104.124C422.945 105.332 424.207 106.282 425.637 106.891C427.106 107.458 428.688 107.657 430.25 107.472C429.263 106.264 428.001 105.314 426.571 104.705C425.107 104.122 423.52 103.922 421.959 104.124V104.124Z" fill="white"/>
<path d="M477.195 101.993C477.195 106.531 474.862 110.294 472.061 110.294C469.261 110.294 467.01 106.586 467.037 101.993C467.065 97.3996 469.371 93.6917 472.171 93.6917C474.971 93.6917 477.223 97.4549 477.195 101.993Z" fill="#1D1E1E"/>
<path d="M481.56 98.0364C480.311 99.6047 478.699 100.84 476.866 101.634C474.99 102.333 472.974 102.561 470.991 102.298C472.255 100.733 473.874 99.4991 475.713 98.7005C477.58 98.0055 479.587 97.7776 481.56 98.0364Z" fill="white"/>
<path d="M461.3 144.274C459.277 145.273 457.064 145.817 454.812 145.87C452.561 145.922 450.325 145.482 448.259 144.579C448.877 145.601 449.749 146.443 450.789 147.021C451.829 147.598 453.002 147.892 454.189 147.872C456.917 147.592 459.448 146.312 461.3 144.274V144.274Z" fill="#8E503D"/>
<path d="M425.582 127.035C424.869 128.917 420.86 129.11 416.605 127.478C412.35 125.845 409.495 122.995 410.208 121.141C410.922 119.287 414.93 119.066 419.186 120.698C423.441 122.331 426.296 125.181 425.582 127.035Z" fill="#CC836D"/>
<path d="M479.172 118.651C479.886 121.418 475.246 125.098 468.822 126.731C462.398 128.363 456.605 127.395 455.891 124.573C455.177 121.75 459.817 118.125 466.269 116.493C472.72 114.86 478.486 115.829 479.172 118.651Z" fill="#CC836D"/>
<path d="M470.798 131.656C470.798 131.656 470.497 132.016 470.03 132.68C469.324 133.686 468.514 134.613 467.614 135.447C464.709 138.154 461.174 140.081 457.335 141.048C453.497 142.015 449.478 141.992 445.651 140.981C444.5 140.681 443.378 140.273 442.302 139.764L441.149 139.21L442.411 139.432C443.533 139.673 444.671 139.83 445.816 139.902C449.501 140.164 453.204 139.856 456.797 138.989C460.404 138.094 463.849 136.638 467.01 134.672C467.965 134.066 468.882 133.401 469.755 132.68L470.798 131.656Z" fill="#8E503D"/>
<path d="M447.271 118.485C447.202 119.626 447.342 120.77 447.683 121.861C447.841 122.412 447.867 122.993 447.757 123.557C447.647 124.12 447.405 124.648 447.051 125.098C446.381 125.645 445.552 125.956 444.69 125.984C443.452 126.228 442.189 126.321 440.929 126.26C437.717 125.984 436.976 124.683 439.886 123.3C442.584 122.098 445.077 120.473 447.271 118.485V118.485Z" fill="#CC836D"/>
<path d="M438.431 97.6213C439.883 107.346 438.873 117.284 435.493 126.51C437.591 127.159 439.807 127.327 441.978 127.001C444.149 126.676 446.22 125.865 448.039 124.628C445.325 125.387 442.442 125.261 439.803 124.268C442.142 115.462 441.661 106.136 438.431 97.6213V97.6213Z" fill="#8E503D"/>
<path d="M490.4 139.21C494.149 138.862 497.788 137.744 501.093 135.926C504.397 134.109 507.299 131.629 509.618 128.64C510.334 127.767 510.985 126.842 511.567 125.873C514.312 121.169 515.026 104.705 508.383 100.969C503.715 98.2021 500.146 102.131 498.636 104.705C498.238 105.326 497.88 105.973 497.566 106.642L490.4 139.21Z" fill="#C7806D"/>
<path d="M490.4 139.21C494.149 138.862 497.788 137.744 501.093 135.926C504.397 134.109 507.299 131.629 509.618 128.64C509.947 128.17 510.194 127.727 510.441 127.312C513.05 122.58 513.901 106.144 507.257 102.408C505.818 101.582 504.117 101.348 502.511 101.756C500.905 102.163 499.517 103.18 498.636 104.594V104.594C498.238 105.215 497.88 105.862 497.566 106.531L490.4 139.21Z" fill="#B77158"/>
<path d="M510.496 113.809C510.749 115.144 510.626 116.525 510.14 117.793C508.3 123.327 502.782 127.478 497.538 131.352C499.09 128.761 499.755 125.728 499.433 122.719C499.269 121.702 499.159 120.676 499.103 119.647C499.076 115.524 508.547 106.033 510.496 113.809Z" fill="#CC836D"/>
<path d="M494.875 132.929L495.177 132.736C495.47 132.586 495.754 132.419 496.028 132.237C497.052 131.603 497.977 130.82 498.774 129.913C499.819 128.646 500.553 127.148 500.915 125.541C501.346 123.59 501.134 121.549 500.311 119.73C500.199 119.482 500.071 119.241 499.927 119.011V118.817V118.651L500.119 118.347C500.119 118.125 500.366 117.932 500.476 117.738C500.962 116.951 501.494 116.193 502.068 115.469C502.593 114.787 503.162 114.14 503.77 113.532C504.293 112.978 504.852 112.46 505.445 111.982C505.941 111.593 506.526 111.336 507.147 111.235C507.636 111.188 508.129 111.274 508.575 111.484C508.846 111.611 509.069 111.825 509.206 112.093C509.206 112.259 509.206 112.37 509.206 112.37C509.23 112.27 509.23 112.165 509.206 112.065C509.174 111.912 509.111 111.766 509.021 111.638C508.931 111.51 508.817 111.401 508.684 111.318C508.203 110.971 507.629 110.778 507.037 110.765C506.247 110.79 505.474 111.009 504.786 111.401C504.059 111.83 503.371 112.321 502.727 112.868C502.01 113.45 501.331 114.079 500.695 114.749C500.022 115.481 499.398 116.258 498.829 117.074C498.667 117.275 498.52 117.487 498.389 117.71L498.197 118.042L497.923 118.513L497.73 118.845L497.923 119.149L498.17 119.62C498.301 119.82 498.411 120.033 498.499 120.256C499.241 121.862 499.526 123.643 499.323 125.403C499.13 126.878 498.645 128.299 497.895 129.581C497.347 130.503 496.683 131.349 495.918 132.099C495.644 132.403 495.369 132.57 495.205 132.736L494.875 132.929Z" fill="#8E503D"/>
<path d="M510.277 89.3477C509.398 95.6013 508.465 100.748 508.465 100.748C508.465 100.748 494.573 114.999 490.867 124.434C492.465 111.435 492.15 98.2696 489.934 85.3631C485.372 83.8026 481.373 80.9139 478.441 77.0622C475.509 73.2105 473.776 68.5689 473.461 63.7245C471.253 67.0812 468.138 69.7311 464.484 71.3616C465.435 69.9198 466.054 68.2821 466.296 66.5682C466.538 64.8543 466.398 63.1075 465.884 61.4555C463.628 66.0053 460.348 69.9609 456.306 73.0067C452.264 76.0525 447.572 78.1044 442.604 78.9988C444.855 75.3093 447.088 71.7029 449.302 68.1795C439.831 76.4158 428.406 82.0402 416.138 84.5053C410.84 85.5291 404.663 85.7781 400.709 82.0426C399.471 80.7776 398.52 79.2562 397.922 77.5839C397.325 75.9116 397.096 74.1283 397.25 72.3578C397.404 69.4275 398.083 66.5495 399.254 63.8628C401.562 58.4598 404.946 53.5917 409.196 49.5602C413.446 45.5288 418.472 42.4197 423.963 40.4256C422.206 36.8561 419.213 32.8715 417.401 29.302C422.364 32.2498 428.258 33.1706 433.873 31.8754C439.364 30.9622 444.855 29.1083 450.345 28.0845C458.274 26.9782 466.352 28.0767 473.707 31.2612C481.061 34.4458 487.413 39.5953 492.075 46.1535C495.206 46.2146 498.277 47.0333 501.029 48.5406C503.781 50.0478 506.134 52.1995 507.888 54.8145C510.71 60.2222 512.083 66.279 511.869 72.3855C511.711 78.0688 511.179 83.7353 510.277 89.3477V89.3477Z" fill="#EFCA8F"/>
<path d="M511.512 79.5522C511.21 82.7343 510.744 86.1932 510.277 89.3477C506.765 92.5529 503.959 96.4649 502.041 100.831C502.422 95.4634 501.702 90.0742 499.926 84.9993C498.15 79.9244 495.356 75.2726 491.718 71.334C491.416 74.7375 491.114 78.141 490.84 81.5445C482.15 71.6096 476.63 59.2676 474.999 46.1258L466.983 56.5024C467.948 52.3418 467.748 47.9928 466.406 43.9398C463.04 50.7376 457.895 56.4787 451.526 60.5423C451.663 56.5854 451.828 52.6561 451.993 48.6992C444.821 59.1249 434.408 66.8457 422.398 70.6422C414.231 73.1576 405.605 73.7726 397.168 72.4408C397.322 69.5105 398.001 66.6325 399.172 63.9458C399.774 62.4984 400.471 61.0933 401.259 59.7399C406.301 50.7992 414.357 43.9762 423.963 40.5087C422.206 36.8561 419.213 32.8715 417.401 29.302C422.364 32.2498 428.258 33.1706 433.874 31.8754C439.364 30.9622 444.855 29.1083 450.346 28.0845C458.275 26.9782 466.353 28.0767 473.707 31.2612C481.062 34.4458 487.413 39.5953 492.075 46.1535C495.207 46.2146 498.278 47.0333 501.03 48.5406C503.782 50.0478 506.134 52.1995 507.888 54.8145C510.711 60.2222 512.083 66.279 511.869 72.3854C511.878 74.7791 511.759 77.1715 511.512 79.5522V79.5522Z" fill="#FFDDA0"/>
<path d="M511.512 79.5522L510.579 81.0187C504.837 70.6506 496.473 62.0007 486.337 55.949C485.898 59.3802 485.459 62.756 485.02 66.1595C482.274 54.8421 479.529 43.0544 471.869 34.172C471.403 36.6901 470.936 39.2358 470.497 41.7538C465.219 37.4795 458.561 35.3213 451.801 35.6939C451.389 38.6824 450.95 41.4495 450.565 44.3826C447.549 42.2347 444.13 40.7283 440.517 39.9552C439.179 44.6528 436.732 48.9539 433.385 52.4908C430.038 56.0277 425.892 58.6953 421.3 60.2656C414.788 62.3367 407.771 62.1221 401.396 59.6569C406.439 50.7162 414.494 43.8932 424.1 40.4256C422.206 36.8561 419.213 32.8715 417.401 29.302C422.364 32.2498 428.258 33.1706 433.874 31.8754C439.364 30.9622 444.855 29.1083 450.346 28.0845C458.275 26.9782 466.353 28.0767 473.707 31.2612C481.062 34.4458 487.413 39.5953 492.075 46.1535C495.207 46.2146 498.278 47.0333 501.03 48.5406C503.782 50.0478 506.134 52.1995 507.888 54.8145C510.711 60.2222 512.083 66.279 511.869 72.3855C511.878 74.7791 511.759 77.1715 511.512 79.5522V79.5522Z" fill="#FEEAAF"/>
<path d="M487.353 180.191C487.353 180.191 464.814 201.802 463.551 202.328C462.288 202.854 447.079 186.528 447.079 186.528L434.944 189.295L433.187 216.108L455.919 224.99L464.155 212.234L474.944 226.291L494.326 210.076L500.174 183.871L487.353 180.191Z" fill="#6BAAA7"/>
<path d="M345.967 632.36H389.591C400.105 611.137 412.048 490.464 421.08 379.283C428.026 293.724 433.269 213.728 434.807 189.101C431.43 189.904 427.532 190.817 423.468 191.868L410.703 194.995C406.749 196.019 402.878 197.015 399.364 197.983C394.379 199.223 389.51 200.899 384.814 202.992C384.814 202.992 369.797 275.296 365.926 298.429C362.055 321.561 345.967 632.36 345.967 632.36Z" fill="white"/>
<path d="M389.509 312.624C389.509 320.925 409.193 357.866 421.08 379.421C428.026 293.863 433.27 213.867 434.807 189.24C431.43 190.042 427.532 190.955 423.469 192.007L410.703 195.133C406.173 218.543 397.552 262.816 397.25 266.137C396.866 270.675 413.723 284.095 413.723 284.095C413.723 284.095 389.509 300.725 389.509 312.624Z" fill="#E0E0E0"/>
<path d="M364.086 330.139H418.939V299.314H364.086V330.139Z" fill="#6BAAA7"/>
<path d="M394.752 324.245H413.64V305.208H394.752V324.245Z" fill="#8BCCCA"/>
<path d="M369.385 309.746H389.509V305.235H369.385V309.746Z" fill="#8BCCCA"/>
<path d="M369.385 316.995H389.509V312.485H369.385V316.995Z" fill="#8BCCCA"/>
<path d="M369.385 324.273H389.509V319.762H369.385V324.273Z" fill="#8BCCCA"/>
<path d="M388.465 301.86H394.532V289.823H388.465V301.86Z" fill="#434356"/>
<path d="M492.926 355.818C492.926 365.613 492.926 375.575 493.146 385.536C494.162 505.517 497.209 632.36 497.209 632.36H563.509C563.509 632.36 555.548 312.485 553.544 295.412C551.54 278.339 538.444 194.109 538.444 194.109L531.059 192.062L520.435 189.295L516.646 188.105L510.112 186.334L496.385 182.598C493.146 204.541 492.459 276.07 492.926 355.818Z" fill="white"/>
<path d="M492.926 355.818C500.805 333.681 516.646 289.186 516.454 286.475C516.289 282.85 504.1 263.978 504.1 263.978C504.1 263.978 522.878 250.364 521.423 243.446C520.297 237.912 517.662 201.94 516.646 188.105L510.112 186.334L496.385 182.598C493.146 204.541 492.459 276.07 492.926 355.818Z" fill="#E0E0E0"/>
<path d="M517.525 300.781H526.776V291.455H535.616V300.781H544.868V309.691H535.616V319.016H526.776V309.691H517.525V300.781Z" fill="#6BAAA7"/>
<path d="M538.444 194.109C538.444 194.109 570.949 205.371 584.511 226.097C598.073 246.822 639.748 359.249 639.748 359.249L566.474 379.283L546.378 330.167L538.444 194.109Z" fill="white"/>
<path d="M585.253 496.164C585.253 496.164 633.845 418.381 635.52 410.717C636.234 407.479 623.413 355.845 623.413 355.845L578.938 372.863L589.096 402.194L565.239 470.347L585.253 496.164Z" fill="#B77158"/>
<path d="M639.748 335.978C639.748 335.978 648.643 360.688 648.643 364.506C648.643 368.325 569.247 389.632 566.474 387.501C563.702 385.37 555.795 373.665 558.678 370.483C561.56 367.301 639.748 335.978 639.748 335.978Z" fill="#E0E0E0"/>
<path d="M561.587 222.251C561.587 222.251 547.861 258.029 548.437 268.24C549.014 278.45 554.999 342.37 554.999 342.37L553.132 266.552L561.587 222.251Z" fill="#E0E0E0"/>
<path d="M481.148 437.419L610.647 508.533L556.426 593.897L421.904 537.67L481.148 437.419Z" fill="#B88B61"/>
<path d="M461.712 460.856L471.32 466.39L446.832 510.387L435.85 505.323L444.8 490.768C444.8 490.768 438.76 484.238 442.055 478.731C445.349 473.225 455.37 471.841 455.37 471.841L461.712 460.856Z" fill="#9B704C"/>
<path d="M535.369 458.504C533.489 458.218 531.574 458.274 529.714 458.67C518.54 461.437 501.492 465.865 502.013 470.596C502.535 475.328 534.381 467.829 534.381 467.829L539.46 475.383L526.474 479.838L512.912 494.615C512.912 494.615 514.395 498.212 516.481 502.528C516.646 502.938 516.838 503.336 517.058 503.718V503.718L517.25 504.078C517.469 504.576 517.744 505.102 517.991 505.572C519.01 507.633 520.137 509.637 521.368 511.577C521.531 511.781 521.669 512.004 521.78 512.241C522.446 513.207 523.171 514.131 523.949 515.008C524.531 515.706 525.277 516.248 526.117 516.585L538.883 507.62C538.883 507.62 559.528 513.735 562.686 512.96C563.948 512.656 586.186 495.14 586.186 495.14L572.734 466.584L565.239 470.347C564.717 470.098 540.393 459.085 535.369 458.504Z" fill="#B77158"/>
<path d="M516.481 502.445L517.277 504.078L517.579 503.801C519.309 502.224 521.67 500.149 524.251 497.963C526.464 496.037 528.843 494.314 531.361 492.816L532.761 492.041L533.859 491.543L534.82 491.1H533.722H532.404L530.702 491.377C527.503 492.069 524.517 493.531 522 495.638C519.763 497.549 517.893 499.856 516.481 502.445V502.445Z" fill="#8E503D"/>
<path d="M521.423 511.549L521.835 512.185L523.701 510.47C525.404 508.892 527.765 506.817 530.373 504.603C532.6 502.696 534.978 500.974 537.483 499.457L538.883 498.71L539.981 498.212L540.942 497.741H538.526L536.824 498.018C533.623 498.721 530.638 500.193 528.122 502.307C525.751 504.313 523.793 506.766 522.356 509.529C522.008 510.184 521.696 510.858 521.423 511.549V511.549Z" fill="#8E503D"/>
<path d="M93.746 554.313H92.8645C92.8015 554.376 92.707 554.344 92.6126 554.344C92.0144 554.407 91.4477 554.502 90.8811 554.691C88.9606 555.446 87.8587 556.894 87.3235 558.815C87.0716 559.696 87.0716 560.578 87.0716 561.459C87.0716 561.648 87.1661 561.9 87.0402 561.994C86.9142 562.12 86.6624 562.026 86.4735 562.026C84.0808 562.026 81.7196 562.057 79.3584 562.057C79.201 562.057 79.138 562.12 79.1695 562.278C79.1695 562.718 79.1695 563.128 79.1695 563.6C78.0046 562.781 76.7768 562.246 75.3916 562.12C74.0063 561.963 72.6841 562.183 71.3933 562.75C70.1025 563.317 69.095 564.198 68.245 565.3C66.1986 567.976 66.2301 571.817 68.3709 574.587C69.4413 575.972 70.8266 576.98 72.5581 577.389C74.9193 577.955 77.1546 577.546 79.1695 576.098V577.294C79.1695 577.609 79.1695 577.609 79.4843 577.609C80.3343 577.609 81.1844 577.609 82.0344 577.609C82.2548 577.609 82.2863 577.546 82.2863 577.357C82.2863 573.391 82.2863 569.392 82.2863 565.426C82.2863 565.237 82.3178 565.174 82.5381 565.174C83.9549 565.174 85.4031 565.174 86.8198 565.174C87.1031 565.174 87.1031 565.174 87.1031 565.489C87.1031 569.455 87.1031 573.422 87.1031 577.357C87.1031 577.578 87.1661 577.609 87.355 577.609C88.205 577.609 89.0865 577.609 89.9366 577.609C90.157 577.609 90.1884 577.546 90.1884 577.357C90.1884 573.391 90.1884 569.392 90.1884 565.426C90.1884 565.237 90.2514 565.174 90.4403 565.174C91.4477 565.174 92.4867 565.174 93.4941 565.174C93.6515 565.174 93.683 565.142 93.683 564.985C93.683 564.072 93.683 563.159 93.683 562.278C93.683 562.12 93.6515 562.057 93.4626 562.057C92.5496 562.057 91.6052 562.057 90.6922 562.057C90.2199 562.057 90.2199 562.057 90.2199 561.585C90.2199 560.924 90.1884 560.263 90.3773 559.602C90.5977 558.815 90.944 558.154 91.6996 557.776C92.2978 557.492 92.9274 557.398 93.5571 557.429C93.7145 557.429 93.7775 557.398 93.7775 557.209C93.746 556.233 93.746 555.289 93.746 554.313ZM74.4786 574.524C72.1488 574.492 69.7562 572.352 69.8506 569.77C69.9136 567.409 72.0229 565.174 74.5415 565.205C76.9657 565.237 79.2954 567.378 79.1695 569.896C79.2639 572.352 76.9342 574.587 74.4786 574.524ZM42.1143 573.926C42.0829 572.005 42.1143 570.117 42.0829 568.196C42.0514 566.276 42.0829 564.324 42.0514 562.404C42.0199 560.105 42.0199 557.807 42.0199 555.509C42.0199 555.226 42.0199 554.942 42.0199 554.659C42.0199 554.533 41.9884 554.47 41.8625 554.47C40.8236 554.47 39.7846 554.47 38.7457 554.47C38.1475 554.47 37.6753 554.691 37.3605 555.194C37.266 555.32 37.203 555.446 37.1086 555.572C36.7308 556.328 36.353 557.052 35.9752 557.776C34.0548 561.585 32.1028 565.394 30.1824 569.204C28.8916 571.722 27.6323 574.241 26.3415 576.759C26.2156 577.042 26.0897 577.326 25.9008 577.578V577.672C27.0341 577.672 28.136 577.672 29.2694 577.672C29.3953 577.672 29.4898 577.641 29.5528 577.515C30.7491 575.154 31.9769 572.792 33.1733 570.431C34.9048 567.031 36.6364 563.631 38.3679 560.263C38.5253 559.979 38.6513 559.696 38.8087 559.413C38.8716 560.42 38.8716 561.396 38.8716 562.404C38.9031 566.779 38.8716 571.187 38.8716 575.563C38.8716 576.192 38.8716 576.854 38.8716 577.483C38.8716 577.641 38.9031 577.672 39.0605 577.672C40.0365 577.672 41.0125 577.672 41.9884 577.672C42.1458 577.672 42.2088 577.609 42.1773 577.452C42.1458 576.287 42.1458 575.091 42.1143 573.926ZM152.398 572.572V572.257C152.367 572.383 152.367 572.478 152.398 572.572ZM152.398 574.083C152.367 574.083 152.367 574.083 152.398 574.083C152.398 574.115 152.398 574.115 152.398 574.083L152.43 573.8C152.367 573.894 152.398 573.989 152.398 574.083Z" fill="white"/>
<path d="M92.8959 554.313H92.6441V554.344C92.7071 554.344 92.8015 554.376 92.8959 554.313ZM65.443 572.667C65.443 571.25 65.443 569.833 65.443 568.385C65.443 566.496 64.7819 564.891 63.3652 563.663C61.7596 562.246 59.9021 561.837 57.8242 562.278C56.5964 562.529 55.5575 563.191 54.7074 564.104C54.613 564.198 54.55 564.198 54.4556 564.104C54.1093 563.757 53.763 563.442 53.3537 563.159C52.0314 562.246 50.5517 561.963 48.9776 562.183C48.159 562.278 47.372 562.561 46.6794 563.002C45.9238 563.474 45.3256 564.135 44.8219 564.891C44.0348 566.087 43.72 567.441 43.6255 568.857C43.594 569.455 43.657 570.054 43.657 570.652C43.657 572.918 43.657 575.185 43.657 577.42C43.657 577.609 43.6885 577.672 43.9089 577.672C44.7904 577.672 45.6719 577.672 46.5534 577.672C46.7423 577.672 46.8053 577.641 46.8053 577.42C46.8053 574.398 46.8053 571.407 46.8053 568.385C46.8053 567.661 47.0257 567 47.4979 566.402C48.6942 564.859 50.6777 565.017 51.6851 565.804C52.5351 566.465 53.0074 567.283 53.0074 568.417C52.9759 571.407 53.0074 574.43 53.0074 577.42C53.0074 577.609 53.0389 577.672 53.2592 577.672C54.1408 577.672 54.9908 577.672 55.8723 577.672C56.0927 577.672 56.1242 577.609 56.1242 577.42C56.1242 574.524 56.1242 571.628 56.1242 568.763C56.1242 567.976 56.2501 567.252 56.7223 566.559C58.1076 564.576 61.004 564.922 62.0429 567.031C62.2633 567.504 62.3263 568.007 62.3263 568.511C62.3263 571.502 62.3263 574.461 62.3263 577.452C62.3263 577.641 62.3577 577.672 62.5466 577.672C63.4281 577.672 64.3411 577.672 65.2227 577.672C65.3801 577.672 65.443 577.641 65.443 577.452C65.443 575.815 65.443 574.241 65.443 572.667ZM104.293 562.057C103.411 562.089 102.561 562.152 101.711 562.341C100.42 562.624 99.1925 563.096 98.1536 563.915C96.1701 565.457 95.2572 567.535 95.1627 570.022C95.1312 571.187 95.1627 572.352 95.1627 573.517C95.1627 574.807 95.1627 576.067 95.1627 577.357C95.1627 577.546 95.2257 577.578 95.3831 577.578C96.2646 577.578 97.1461 577.578 98.0276 577.578C98.2165 577.578 98.248 577.546 98.248 577.357C98.248 574.902 98.248 572.446 98.248 569.991C98.248 569.865 98.248 569.739 98.248 569.581C98.5314 567.755 99.4758 566.433 101.176 565.709C102.152 565.3 103.191 565.174 104.261 565.142C104.387 565.142 104.45 565.111 104.45 564.954C104.45 564.041 104.45 563.128 104.45 562.215C104.482 562.089 104.45 562.057 104.293 562.057ZM152.272 571.502C151.832 569.676 150.887 568.165 149.376 567C147.644 565.646 145.692 565.174 143.552 565.457C142.324 565.615 141.19 566.118 140.183 566.811C140.151 566.842 140.089 566.905 140.026 566.874C139.963 566.842 139.994 566.748 139.994 566.717C139.994 565.237 139.963 563.757 139.963 562.309C139.963 562.12 139.9 562.057 139.711 562.057C135.366 562.057 130.99 562.057 126.645 562.057C126.142 562.057 125.638 562.089 125.166 562.183C124.032 562.372 123.088 562.876 122.427 563.852C121.419 565.3 121.199 566.842 121.766 568.511C122.395 570.305 124.284 571.376 125.984 571.407C127.527 571.407 129.038 571.407 130.581 571.407C131.021 571.407 131.462 571.47 131.84 571.754C132.47 572.257 132.47 573.044 132.218 573.705C131.966 574.335 131.399 574.524 130.77 574.524C127.779 574.524 124.756 574.524 121.766 574.524C121.577 574.524 121.545 574.555 121.545 574.744C121.545 575.626 121.545 576.507 121.545 577.389C121.545 577.578 121.608 577.641 121.797 577.641C124.788 577.641 127.81 577.641 130.833 577.641C131.305 577.641 131.777 577.578 132.249 577.452C133.54 577.042 134.579 576.287 135.146 574.996C135.555 574.052 135.618 573.076 135.429 572.068C135.146 570.494 134.296 569.361 132.785 568.763C132.029 568.448 131.21 568.354 130.392 568.322C129.007 568.322 127.621 568.322 126.236 568.322C125.953 568.322 125.701 568.291 125.449 568.196C124.693 567.913 124.41 567.094 124.693 566.276C124.882 565.709 125.229 565.331 125.858 565.268C126.11 565.237 126.331 565.237 126.582 565.237C129.92 565.237 133.288 565.237 136.625 565.237C136.94 565.237 136.909 565.205 136.909 565.52C136.909 573.705 136.909 581.891 136.909 590.076C136.909 590.17 136.909 590.265 136.909 590.359H140.026C140.026 590.296 140.026 590.202 140.026 590.139C140.026 586.676 140.026 583.244 140.026 579.781C140.026 579.75 140.026 579.687 140.026 579.655C140.026 579.53 140.057 579.53 140.151 579.592C140.498 579.844 140.876 580.065 141.285 580.254C142.324 580.757 143.394 581.009 144.528 581.041C146.574 581.104 148.337 580.411 149.817 579.089C151.17 577.892 152.052 576.413 152.335 574.587C152.367 574.461 152.367 574.304 152.367 574.178V574.146C152.367 574.052 152.335 573.957 152.398 573.863V572.604C152.367 572.509 152.367 572.415 152.398 572.32V572.289C152.304 572.005 152.304 571.754 152.272 571.502ZM149.313 573.328C149.218 575.878 146.92 577.955 144.654 577.83C142.166 577.924 139.9 575.657 139.963 573.139C140.026 570.809 142.009 568.511 144.622 568.511C147.204 568.511 149.407 570.746 149.313 573.328ZM117.264 563.82C115.406 562.309 113.265 561.805 110.904 562.246C109.078 562.592 107.598 563.474 106.402 564.891C104.954 566.622 104.387 568.605 104.639 570.809C104.859 572.667 105.678 574.272 107.063 575.531C109.015 577.326 111.282 577.924 113.863 577.483C115.343 577.231 116.602 576.507 117.736 575.468C117.862 575.342 117.83 575.28 117.704 575.185C117.075 574.555 116.445 573.926 115.815 573.296C115.689 573.17 115.658 573.17 115.501 573.265C114.462 574.178 113.265 574.65 111.849 574.461C110.054 574.241 108.763 573.265 108.039 571.628C107.945 571.407 107.945 571.407 108.197 571.407H119.751C119.845 571.407 119.908 571.407 119.94 571.281C120.097 570.368 120.128 569.455 119.971 568.511C119.656 566.622 118.775 565.017 117.264 563.82ZM116.508 568.291H112.384C110.999 568.291 109.613 568.291 108.228 568.291C108.039 568.291 108.039 568.259 108.102 568.07C108.669 566.559 110.432 565.079 112.447 565.142C114.43 565.205 115.973 566.307 116.697 568.039C116.76 568.291 116.728 568.291 116.508 568.291Z" fill="white"/>
</g>
</svg>
