<?xml version="1.0" encoding="utf-8"?>
<!-- Generator: Adobe Illustrator 24.1.2, SVG Export Plug-In . SVG Version: 6.00 Build 0)  -->
<svg version="1.1" xmlns="http://www.w3.org/2000/svg" xmlns:xlink="http://www.w3.org/1999/xlink" x="0px" y="0px"
	 viewBox="0 0 444.8 197.9" style="enable-background:new 0 0 444.8 197.9;" xml:space="preserve">
<style type="text/css">
	.st0{display:none;}
	.st1{display:inline;}
	.st2{fill:#2862AD;}
	.st3{font-family:'OmnesCond-Bold';}
	.st4{font-size:72px;}
	.st5{letter-spacing:7;}
	.st6{fill:#2DB198;}
	.st7{fill:#166897;}
	.st8{fill:#2369B2;}
</style>
<g id="Layer_1" class="st0">
	<text transform="matrix(1 0 0 1 277.8984 151.6454)" class="st1"><tspan x="0" y="0" class="st2 st3 st4 st5">R</tspan><tspan x="45.9" y="0" class="st2 st3 st4">H</tspan></text>
	
		<image style="display:inline;overflow:visible;" width="867" height="380" xlink:href="9062C951.jpg"  transform="matrix(0.5139 0 0 0.5139 4.6562 -1.0099)">
	</image>
</g>
<g id="Layer_2">
	<g>
		<path class="st6" d="M133.8,39.4c-6.1,0-11.2,2.3-15.4,6.9c-4.3-4.6-9.3-6.9-15.2-6.9c-3.5,0-6.9,0.9-10,2.6h-0.1
			c-7.7,5.3-11,13.4-10,24.4L83,90h10.1V59.4c0-1.1,0.3-2.4,0.9-4.1c2.3-3.9,5.4-5.9,9.1-5.9c1.4,0,2.8,0.3,4.5,0.9
			c3.9,2.3,5.8,5.3,5.8,9V90h10.1V60.9c0-2,0.3-3.7,0.8-5.1c2.2-4.2,5.3-6.3,9.4-6.3c0.8,0,1.8,0.1,3.1,0.4c4.7,2,7,5.3,7,10V90
			h10.1V59.9c0-5.3-1.8-10-5.3-14C144.3,41.6,139.4,39.4,133.8,39.4"/>
		<path class="st6" d="M237.3,15.1c-2,0.8-3.9,1.8-5.8,3.2c-4.7,4.5-7.1,9.9-7.1,16.4v4.6h-13.2l0,0.1h-2.5h-5.5h-4.6v5h-0.1
			c-4.6-3.3-9.6-5-15-5c-5.2,0-10,1.5-14.5,4.5c-7.2,5.5-10.9,12.4-10.9,20.8c0,5.4,1.7,10.5,5.1,15.3c5.5,6.6,12.1,9.9,19.7,9.9
			h1.3c4.9,0,9.7-1.7,14.4-5v5h10.1V49.4h10.2v0h5.5v40.5h10.1V49.4h11.2V39.3h-11.2v-4.6c0-1.6,0.4-3.3,1.1-5.2
			c1.4-3.6,4.7-5.4,9.9-5.4h0.6V14h-0.6C242.5,14,239.7,14.3,237.3,15.1 M198.7,65.2c0,2.7-0.9,5.5-2.8,8.3c-3.4,4.3-7.4,6.4-12,6.4
			h-0.6c-2.4,0-4.7-0.6-7-1.8c-5.4-3.3-8.1-7.8-8.1-13.5c0-3,1-5.9,2.9-8.8c3.3-4.3,7.4-6.4,12.3-6.4c2.6,0,5.2,0.7,7.7,2.1
			c5,3.3,7.5,7.7,7.5,12.9V65.2z"/>
		<path class="st6" d="M260.8,45.1c-6.1,4.8-9.5,11.3-10.1,19.5v25.3h10.1V65.1c0-1.7,0.4-3.5,1.2-5.5c2.9-6.8,9.3-10.2,19-10.2
			V39.3c-8,0-14.7,1.9-20.1,5.8H260.8z"/>
		<path class="st6" d="M306.9,39.3c-6.2,0-11.7,2-16.5,6c-6,5.4-9,11.9-9,19.4c0,5.9,2,11.3,6,16.3c5.3,6,11.8,9,19.3,9h0.2
			c6.7,0,12.6-2.4,17.7-7.3v-0.1l-7-7c-3.2,2.9-6.8,4.4-10.8,4.4c-2.4,0-4.6-0.5-6.8-1.6c-3.7-2-6.2-4.8-7.4-8.6h39.1
			c0.3-1.5,0.5-3.2,0.5-5.1c0-5.9-2-11.3-6-16.3C320.8,42.3,314.4,39.3,306.9,39.3 M292.5,59.6l1-2.5c3.4-5.2,7.8-7.7,13.2-7.7
			c2.4,0,5,0.6,7.5,1.9c3.4,2.2,5.7,4.9,6.8,8.3H292.5z"/>
		<path class="st6" d="M432,59.9c-5.4-6.5-12.1-9.7-20-9.7c-5.3,0-10.3,1.7-15,5h-0.2v-8.8h0v-7h-43.6c-5.8,0-10,1.6-12.6,4.7
			c-2.7,3.3-4,6.8-4,10.6c0,4.2,1.4,7.8,4.1,10.6c3.3,2.9,6.8,4.4,10.6,4.4h14.6c4.1,0,6.2,1.7,6.2,5.1l-0.3,2.1c-0.8,2-2.4,3-4.8,3
			h-30.2v10.1h30.8c2,0,4.1-0.5,6.3-1.6c5.5-2.8,8.3-7.3,8.3-13.5c0-1.9-0.3-3.9-1-5.9c-2.5-6.3-7.9-9.4-16-9.4h-13.5l-1.9-0.3
			c-2.1-0.8-3.1-2.3-3.1-4.5c0-1.3,0.5-2.6,1.4-4c0.7-0.9,2.4-1.3,5.1-1.3h33.6v81.8h10.1V95.9h0.2c4.6,3.3,9.3,4.9,14.1,4.9h2
			c5.5,0,10.7-2.1,15.8-6.3c5.6-5.4,8.4-11.5,8.4-18.2v-1.6C437.3,69.6,435.6,64.7,432,59.9 M427.3,75.7c0,3.1-1,6.1-3,9
			c-3.5,4-7.3,6-11.5,6h-1.3c-2,0-4.2-0.6-6.7-1.8c-5.3-3.3-8-7.8-8-13.5c0-3,1-5.9,2.9-8.8c3.4-4.3,7.5-6.4,12.4-6.4
			c2.9,0,5.8,0.9,8.6,2.8c4.4,3.3,6.5,7.4,6.5,12.3V75.7z"/>
		<path class="st6" d="M67,14.6c-3.8,0-4.7,2.1-6.4,5.4L25,90.1h11.5l30.6-59.9l0.1,59.9H78l-0.5-75.5H67z"/>
		<path class="st7" d="M325.3,186.6c-19.5,0-38-7.4-52.1-21c-14.5-13.9-22.7-32.7-23.1-52.7c0-1,0-2.1,0-4.5H24.6c-1.7,0-3-1.3-3-3
			s1.3-3,3-3h231.7l0,3c0,4.9-0.1,6.1,0,7.3c0.4,18.5,7.9,35.7,21.2,48.5c13.3,12.8,30.9,19.7,49.3,19.3c25.6-0.5,48.8-15,60.4-37.9
			c0.8-1.5,2.6-2.1,4-1.3c1.5,0.8,2.1,2.6,1.3,4c-12.6,24.8-37.8,40.6-65.6,41.2C326.3,186.6,325.8,186.6,325.3,186.6"/>
		<path class="st8" d="M305.8,132.2c0,0,9.5-1.7,8-15.9c-1.1-7.6-3.5-9.7-8.2-11.4c-4.1-1.5-15.1-1.3-20.2-1.1
			c-5.5,0.2-5.5,6.6-5.5,6.6v35.4c0,0,0.3,5.7,6.3,5.7c6.4,0,6.4-5.4,6.4-5.4v-11.9h1.2l7.9,14.7c0,0,2.3,2.9,6.9,2.2
			c5.9-0.8,6.4-4,6.4-4L305.8,132.2z M300.7,124.1c-0.6,2.5-3.7,2.7-3.7,2.7h-4.5v-13.1c0,0,2.6,0,4.3,0s2.5,0.7,3.5,2.1
			C301.4,117.6,301.2,121.6,300.7,124.1z"/>
		<path class="st8" d="M339.8,121.7V109c0,0,0.2-5.6-6.4-5.6c-6.8,0-6.5,6.5-6.5,6.5v35.9c0,0,0,6.1,6.5,5.8c6.4-0.2,6.5-5,6.5-5
			v-13.4h9.6v12.8c0,0,0.1,5.7,6,5.6c3.6,0,4.8-1,5.8-2.4c0.8-1.1,1.1-2.6,1.1-3.9v-35.9c0,0,0-6-6.2-6c-7.1,0-6.7,5.8-6.7,5.8v12.5
			L339.8,121.7z"/>
	</g>
</g>
</svg>
