<svg width="191" height="55" viewBox="0 0 191 55" fill="none" xmlns="http://www.w3.org/2000/svg">
<g clip-path="url(#clip0)">
<path d="M102.503 0.5H101.179C101.085 0.594571 100.943 0.547285 100.801 0.547285C99.9024 0.641856 99.0512 0.783713 98.2 1.06743C95.3155 2.20228 93.6605 4.37741 92.8566 7.26182C92.4783 8.58581 92.4783 9.90981 92.4783 11.2338C92.4783 11.5175 92.6201 11.8958 92.431 12.0377C92.2419 12.2268 91.8636 12.0849 91.5798 12.0849C87.986 12.0849 84.4395 12.1322 80.8929 12.1322C80.6565 12.1322 80.5619 12.2268 80.6092 12.4632C80.6092 13.1252 80.6092 13.7399 80.6092 14.4492C78.8596 13.2198 77.0154 12.4159 74.9347 12.2268C72.8541 11.9904 70.868 12.3214 68.9293 13.1725C66.9905 14.0236 65.4773 15.3476 64.2005 17.0026C61.1269 21.0219 61.1742 26.7907 64.3897 30.9518C65.9974 33.0324 68.0781 34.5455 70.6789 35.1602C74.2254 36.0114 77.5828 35.3967 80.6092 33.2215V35.0184C80.6092 35.4912 80.6092 35.4912 81.0821 35.4912C82.3588 35.4912 83.6356 35.4912 84.9123 35.4912C85.2433 35.4912 85.2906 35.3967 85.2906 35.113C85.2906 29.155 85.2906 23.1497 85.2906 17.1918C85.2906 16.9081 85.3379 16.8135 85.6689 16.8135C87.7969 16.8135 89.9721 16.8135 92.1 16.8135C92.5256 16.8135 92.5256 16.8135 92.5256 17.2863C92.5256 23.2443 92.5256 29.2023 92.5256 35.113C92.5256 35.444 92.6201 35.4912 92.9039 35.4912C94.1806 35.4912 95.5047 35.4912 96.7814 35.4912C97.1124 35.4912 97.1597 35.3967 97.1597 35.113C97.1597 29.155 97.1597 23.1497 97.1597 17.1918C97.1597 16.9081 97.2543 16.8135 97.538 16.8135C99.0512 16.8135 100.612 16.8135 102.125 16.8135C102.361 16.8135 102.409 16.7662 102.409 16.5298C102.409 15.1585 102.409 13.7872 102.409 12.4632C102.409 12.2268 102.361 12.1322 102.078 12.1322C100.706 12.1322 99.2876 12.1322 97.9163 12.1322C97.207 12.1322 97.207 12.1322 97.207 11.4229C97.207 10.4299 97.1597 9.43695 97.4434 8.44396C97.7745 7.26182 98.2946 6.26883 99.4295 5.7014C100.328 5.27583 101.274 5.13398 102.219 5.18126C102.456 5.18126 102.55 5.13398 102.55 4.85026C102.503 3.38441 102.503 1.96585 102.503 0.5ZM73.5634 30.8573C70.0642 30.81 66.4703 27.5946 66.6122 23.7172C66.7068 20.1708 69.875 16.8135 73.658 16.8608C77.2991 16.9081 80.7983 20.1235 80.6092 23.9063C80.7511 27.5946 77.2518 30.9518 73.5634 30.8573ZM24.9522 29.9588C24.9049 27.0744 24.9522 24.2373 24.9049 21.3529C24.8576 18.4685 24.9049 15.5368 24.8576 12.6524C24.8103 9.20053 24.8103 5.74869 24.8103 2.29685C24.8103 1.87128 24.8103 1.44571 24.8103 1.02014C24.8103 0.830998 24.763 0.736427 24.5739 0.736427C23.0134 0.736427 21.4529 0.736427 19.8924 0.736427C18.994 0.736427 18.2847 1.06743 17.8118 1.82399C17.6699 2.01313 17.5754 2.20228 17.4335 2.39142C16.866 3.52627 16.2986 4.61384 15.7311 5.7014C12.8466 11.4229 9.91482 17.1445 7.0303 22.866C5.09153 26.6489 3.20004 30.4317 1.26126 34.2145C1.07212 34.6401 0.882966 35.0657 0.599243 35.444V35.5858C2.30158 35.5858 3.95663 35.5858 5.65897 35.5858C5.84812 35.5858 5.98999 35.5385 6.08456 35.3494C7.88147 31.803 9.72567 28.2566 11.5226 24.7102C14.1234 19.6033 16.7242 14.4965 19.325 9.43695C19.5614 9.01138 19.7506 8.58582 19.987 8.16025C20.0816 9.67338 20.0816 11.1392 20.0816 12.6524C20.1289 19.225 20.0816 25.845 20.0816 32.4177C20.0816 33.3634 20.0816 34.3564 20.0816 35.3021C20.0816 35.5385 20.1289 35.5858 20.3653 35.5858C21.8312 35.5858 23.2971 35.5858 24.763 35.5858C24.9994 35.5858 25.094 35.4912 25.0467 35.2548C24.9994 33.5053 24.9994 31.7084 24.9522 29.9588ZM190.599 27.9256V27.4527C190.552 27.6419 190.552 27.7837 190.599 27.9256ZM190.599 30.1953C190.552 30.1953 190.552 30.1953 190.599 30.1953C190.599 30.2426 190.599 30.2426 190.599 30.1953L190.647 29.7697C190.552 29.9116 190.599 30.0534 190.599 30.1953Z" fill="#25B099"/>
<path d="M101.226 0.5H100.848V0.547285C100.943 0.547285 101.085 0.594571 101.226 0.5ZM59.992 28.0674C59.992 25.9396 59.992 23.8117 59.992 21.6366C59.992 18.7995 58.999 16.3879 56.871 14.5438C54.4594 12.4159 51.6694 11.8012 48.5485 12.4632C46.7043 12.8415 45.1438 13.8345 43.8671 15.2058C43.7252 15.3476 43.6306 15.3476 43.4888 15.2058C42.9686 14.6856 42.4484 14.2128 41.8337 13.7872C39.8476 12.4159 37.6251 11.9904 35.2608 12.3214C34.0313 12.4632 32.8491 12.8888 31.8088 13.5508C30.6739 14.2601 29.7755 15.2531 29.0189 16.3879C27.8367 18.1848 27.3638 20.218 27.222 22.3459C27.1747 23.2443 27.2692 24.1427 27.2692 25.0412C27.2692 28.4457 27.2692 31.8503 27.2692 35.2075C27.2692 35.4912 27.3165 35.5858 27.6475 35.5858C28.9716 35.5858 30.2956 35.5858 31.6197 35.5858C31.9034 35.5858 31.998 35.5385 31.998 35.2075C31.998 30.6681 31.998 26.176 31.998 21.6366C31.998 20.549 32.329 19.556 33.0383 18.6576C34.8352 16.3406 37.8143 16.5771 39.3275 17.7592C40.6042 18.7522 41.3135 19.9816 41.3135 21.6839C41.2663 26.176 41.3135 30.7154 41.3135 35.2075C41.3135 35.4912 41.3608 35.5858 41.6918 35.5858C43.0159 35.5858 44.2926 35.5858 45.6167 35.5858C45.9477 35.5858 45.995 35.4912 45.995 35.2075C45.995 30.8573 45.995 26.507 45.995 22.204C45.995 21.0219 46.1841 19.9343 46.8934 18.894C48.9741 15.9151 53.3245 16.4352 54.885 19.6033C55.216 20.3126 55.3106 21.0692 55.3106 21.8257C55.3106 26.3179 55.3106 30.7627 55.3106 35.2548C55.3106 35.5385 55.3578 35.5858 55.6416 35.5858C56.9656 35.5858 58.3369 35.5858 59.661 35.5858C59.8974 35.5858 59.992 35.5385 59.992 35.2548C59.992 32.796 59.992 30.4317 59.992 28.0674ZM118.344 12.1322C117.02 12.1795 115.744 12.2741 114.467 12.5578C112.528 12.9834 110.684 13.6926 109.123 14.9221C106.144 17.2391 104.773 20.3599 104.631 24.0954C104.584 25.845 104.631 27.5946 104.631 29.3441C104.631 31.2828 104.631 33.1743 104.631 35.113C104.631 35.3967 104.726 35.444 104.962 35.444C106.286 35.444 107.61 35.444 108.934 35.444C109.218 35.444 109.265 35.3967 109.265 35.113C109.265 31.4247 109.265 27.7364 109.265 24.0482C109.265 23.859 109.265 23.6699 109.265 23.4335C109.691 20.6909 111.109 18.7049 113.663 17.6173C115.129 17.0026 116.689 16.8135 118.297 16.7662C118.486 16.7662 118.581 16.7189 118.581 16.4825C118.581 15.1112 118.581 13.7399 118.581 12.3687C118.628 12.1795 118.581 12.1322 118.344 12.1322ZM190.41 26.3179C189.748 23.5753 188.329 21.3056 186.06 19.556C183.459 17.5228 180.527 16.8135 177.312 17.2391C175.467 17.4755 173.765 18.232 172.252 19.2723C172.205 19.3196 172.11 19.4142 172.015 19.3669C171.921 19.3196 171.968 19.1778 171.968 19.1305C171.968 16.9081 171.921 14.6856 171.921 12.5105C171.921 12.2268 171.826 12.1322 171.543 12.1322C165.017 12.1322 158.444 12.1322 151.918 12.1322C151.162 12.1322 150.405 12.1795 149.696 12.3214C147.993 12.6051 146.575 13.3616 145.582 14.8275C144.069 17.0026 143.738 19.3196 144.589 21.8257C145.535 24.521 148.372 26.1287 150.925 26.176C153.242 26.176 155.512 26.176 157.829 26.176C158.491 26.176 159.153 26.2706 159.721 26.6961C160.666 27.4527 160.666 28.6349 160.288 29.6278C159.91 30.5736 159.059 30.8573 158.113 30.8573C153.621 30.8573 149.081 30.8573 144.589 30.8573C144.305 30.8573 144.258 30.9046 144.258 31.1883C144.258 32.5123 144.258 33.8363 144.258 35.1602C144.258 35.444 144.352 35.5385 144.636 35.5385C149.128 35.5385 153.668 35.5385 158.208 35.5385C158.917 35.5385 159.626 35.444 160.335 35.2548C162.274 34.6401 163.835 33.5053 164.686 31.5665C165.301 30.148 165.395 28.6821 165.111 27.169C164.686 24.8047 163.409 23.1025 161.139 22.204C160.004 21.7312 158.775 21.5893 157.545 21.542C155.465 21.542 153.384 21.542 151.304 21.542C150.878 21.542 150.5 21.4947 150.121 21.3529C148.987 20.9273 148.561 19.6979 148.987 18.4685C149.27 17.6173 149.79 17.0499 150.736 16.9553C151.114 16.9081 151.445 16.9081 151.824 16.9081C156.836 16.9081 161.896 16.9081 166.908 16.9081C167.381 16.9081 167.334 16.8608 167.334 17.3336C167.334 29.6278 167.334 41.9221 167.334 54.2163C167.334 54.3581 167.334 54.5 167.334 54.6419H172.015C172.015 54.5473 172.015 54.4054 172.015 54.3109C172.015 49.1095 172.015 43.9553 172.015 38.7539C172.015 38.7067 172.015 38.6121 172.015 38.5648C172.015 38.3757 172.063 38.3757 172.205 38.4702C172.725 38.8485 173.292 39.1795 173.907 39.4632C175.467 40.2198 177.075 40.5981 178.777 40.6454C181.851 40.7399 184.499 39.6996 186.722 37.7137C188.755 35.9168 190.079 33.6944 190.505 30.9518C190.552 30.7627 190.552 30.5263 190.552 30.3371V30.2898C190.552 30.148 190.505 30.0061 190.599 29.8643V27.9729C190.552 27.831 190.552 27.6891 190.599 27.5473V27.5C190.457 27.0744 190.457 26.6961 190.41 26.3179ZM185.965 29.0604C185.823 32.8905 182.371 36.0114 178.967 35.8222C175.231 35.9641 171.826 32.5595 171.921 28.7767C172.015 25.2776 174.994 21.8257 178.919 21.8257C182.797 21.8257 186.107 25.183 185.965 29.0604ZM137.827 14.7802C135.037 12.5105 131.821 11.7539 128.275 12.4159C125.532 12.9361 123.31 14.2601 121.513 16.3879C119.337 18.9886 118.486 21.9676 118.865 25.2776C119.196 28.0674 120.425 30.479 122.506 32.3704C125.437 35.0657 128.842 35.9641 132.72 35.3021C134.942 34.9238 136.834 33.8363 138.536 32.2758C138.725 32.0867 138.678 31.9921 138.489 31.8503C137.543 30.9046 136.597 29.9588 135.652 29.0131C135.462 28.824 135.415 28.824 135.179 28.9658C133.618 30.3371 131.821 31.0464 129.693 30.7627C126.998 30.4317 125.059 28.9658 123.972 26.507C123.83 26.176 123.83 26.176 124.208 26.176H141.562C141.704 26.176 141.799 26.176 141.846 25.9869C142.083 24.6156 142.13 23.2443 141.893 21.8257C141.421 18.9886 140.097 16.5771 137.827 14.7802ZM136.692 21.4947H130.497C128.417 21.4947 126.336 21.4947 124.255 21.4947C123.972 21.4947 123.972 21.4475 124.066 21.1637C124.917 18.894 127.565 16.6716 130.592 16.7662C133.571 16.8608 135.888 18.5158 136.976 21.1165C137.07 21.4947 137.023 21.4947 136.692 21.4947Z" fill="#25B099"/>
</g>
<defs>
<clipPath id="clip0">
<rect width="190" height="54" fill="white" transform="translate(0.599243 0.5)"/>
</clipPath>
</defs>
</svg>
