<svg width="137" height="47" viewBox="0 0 137 47" fill="none" xmlns="http://www.w3.org/2000/svg">
<g clip-path="url(#clip0)">
<path d="M120.936 32.1192C120.913 32.4278 120.887 32.6038 120.887 32.7797C120.887 37.0431 120.887 41.3055 120.887 45.567C120.887 46.1006 120.887 46.1006 120.359 46.1006C119.396 46.1006 118.434 46.0862 117.459 46.1006C117.1 46.1006 117.016 45.9939 117.016 45.6477C117.016 35.2922 117.016 24.9366 117.016 14.5811C117.016 13.9061 117.152 13.8859 116.323 13.8859H103.75C103.414 13.8873 103.079 13.9104 102.746 13.9551C101.769 14.0907 101.25 14.5609 101.073 15.5762C100.896 16.5916 101.073 17.4079 102.213 17.855C102.617 17.9964 103.043 18.0648 103.471 18.057C105.211 18.0772 106.951 18.057 108.691 18.057C110.01 18.0109 111.315 18.3326 112.46 18.9858C114.009 19.9262 114.821 21.3367 115.041 23.1107C115.194 24.1635 115.083 25.2375 114.719 26.2376C114.058 27.9539 112.75 28.9981 111.034 29.5404C110.449 29.7256 109.84 29.8228 109.227 29.8288C105.391 29.8548 101.555 29.8288 97.7184 29.8288H97.2834V26.0212H97.7184C101.498 26.0212 105.276 26.0212 109.053 26.0212C109.743 26.0212 110.387 25.8568 110.793 25.2626C111.035 24.9295 111.181 24.5372 111.217 24.1277C111.252 23.7182 111.175 23.3068 110.993 22.9376C110.639 22.1646 109.909 21.9136 109.126 21.8963C107.157 21.8559 105.185 21.8184 103.216 21.8588C101.637 21.9094 100.101 21.3478 98.9304 20.2925C97.9707 19.4356 97.36 18.2585 97.2138 16.9839C97.0755 16.0754 97.1371 15.1478 97.3944 14.2652C97.6517 13.3827 98.0986 12.5663 98.7043 11.8725C99.5394 10.8686 100.67 10.3927 101.926 10.1994C102.589 10.101 103.259 10.0528 103.929 10.0552C109.412 10.0552 114.895 10.0552 120.379 10.0552C120.869 10.0552 120.869 10.0552 120.872 10.5485C120.872 12.2792 120.872 14.0186 120.872 15.7666C120.872 15.9282 120.904 16.0926 120.919 16.2599C126.121 13.2224 130.864 13.5628 134.837 18.1896C137.67 21.4867 137.542 26.4251 135.376 29.5836C133.758 31.9461 131.592 33.5009 128.753 33.9912C127.391 34.2444 125.991 34.2086 124.644 33.8859C123.296 33.5633 122.033 32.9613 120.936 32.1192ZM133.094 24.2386C133.132 20.9675 130.319 18.207 127.005 18.181C123.749 18.1435 120.892 21.0021 120.89 24.2386C120.924 25.8264 121.583 27.3376 122.724 28.4483C123.865 29.5591 125.398 30.1811 126.995 30.1811C128.591 30.1811 130.124 29.5591 131.266 28.4483C132.407 27.3376 133.065 25.8264 133.1 24.2386H133.094Z" fill="#2081BB"/>
<path d="M45.4637 29.7827H41.3201V6.36584L41.1983 6.33411C41.1374 6.43506 41.0678 6.53025 41.0156 6.62256C38.8273 10.8744 36.64 15.1282 34.4537 19.3838C32.7139 22.7472 30.9857 26.1125 29.2691 29.4798C29.2229 29.5927 29.1418 29.6882 29.0376 29.7524C28.9334 29.8167 28.8114 29.8465 28.6892 29.8375C27.3814 29.8375 26.0795 29.8375 24.7021 29.8375C24.763 29.699 24.7978 29.5952 24.8471 29.5C27.857 23.5962 30.8678 17.6916 33.8796 11.7859C35.457 8.6629 37.0469 5.53701 38.6495 2.40823C38.8525 2.02362 39.0728 1.63901 39.3106 1.2544C39.4907 0.93491 39.7561 0.671217 40.0775 0.492518C40.3989 0.313819 40.7637 0.227087 41.1316 0.241925C42.3842 0.241925 43.6369 0.241925 44.9011 0.241925C45.1911 0.241925 45.2752 0.34 45.2723 0.619802C45.2723 2.12842 45.2723 3.63705 45.2897 5.14855C45.3129 8.81963 45.3371 12.4936 45.3622 16.1704C45.3815 18.8627 45.4028 21.5549 45.426 24.2472C45.4395 25.9606 45.4559 27.676 45.4753 29.3932C45.4666 29.523 45.4637 29.6269 45.4637 29.7827Z" fill="#2081BB"/>
<path d="M79.5781 21.9021C80.3755 24.0107 81.8196 25.3087 83.9276 25.8366C86.0357 26.3645 87.9233 25.727 89.5645 24.3164C89.6602 24.3972 89.7414 24.4607 89.811 24.5328C90.5591 25.2712 91.2985 26.0212 92.0553 26.7481C92.2902 26.9731 92.2467 27.0943 92.0234 27.2904C90.609 28.5899 88.8373 29.4406 86.9346 29.7336C83.9827 30.149 81.2918 29.5173 78.9692 27.5904C77.0981 26.0931 75.857 23.9542 75.4896 21.5934C75.2223 20.1416 75.2963 18.6479 75.7058 17.2292C76.1153 15.8106 76.8491 14.5053 77.85 13.4157C79.4177 11.5867 81.6254 10.4185 84.0262 10.1475C87.2158 9.75521 90.014 10.6667 92.3076 12.9282C93.336 13.9087 94.1339 15.1031 94.6441 16.4261C95.1544 17.749 95.3645 19.1678 95.2595 20.5809C95.2415 20.9254 95.196 21.2678 95.1232 21.605C95.1029 21.6973 94.9608 21.7925 94.8535 21.8328C94.7404 21.8532 94.6245 21.8532 94.5113 21.8328H80.2538C80.0508 21.8473 79.8507 21.879 79.5781 21.9021ZM79.6274 18.0166C79.7374 18.0401 79.8488 18.0565 79.9609 18.0656H90.6635C90.9535 18.0656 91.0521 17.982 90.9332 17.6964C90.4739 16.5409 89.6661 15.5553 88.6209 14.8751C87.5757 14.1948 86.3444 13.8533 85.0962 13.8974C83.6763 13.917 82.3176 14.4752 81.2976 15.458C80.5466 16.1589 79.8913 16.9233 79.6274 18.0166Z" fill="#2081BB"/>
<path d="M3.97543 0.311157V0.815954C3.97543 3.74474 3.97543 6.67064 3.97543 9.59366C3.97543 10.2023 3.93773 10.1244 4.52346 10.1244H13.8893V13.9638H13.4718C10.4446 13.9638 7.42022 13.9638 4.39298 13.9638C4.05662 13.9638 3.96963 14.0618 3.96963 14.3907C3.98123 17.9618 3.98123 21.5328 3.96963 25.1039C3.96963 25.4328 4.05372 25.5424 4.39588 25.5366C5.866 25.5106 7.33903 25.5135 8.80915 25.5049C9.33109 25.5049 9.32819 25.5049 9.33399 26.001C9.34849 27.1289 9.36589 28.2567 9.38038 29.3846C9.38038 29.5086 9.38038 29.6327 9.38038 29.7769C9.2615 29.7769 9.17161 29.7942 9.09042 29.7942C7.09546 29.7942 5.10339 29.7942 3.10843 29.7942C2.20084 29.7942 1.36864 29.5779 0.719114 28.874C0.113087 28.2106 0 27.3942 0 26.5491C0 24.6482 0.0318962 22.7472 0.0318962 20.8463C0.0318962 14.1541 0.0318962 7.46101 0.0318962 0.766917C0.0347959 0.314042 0.0347959 0.314042 0.484242 0.311157H3.96383H3.97543Z" fill="#0A4971"/>
<path d="M61.203 3.88514C60.742 3.92841 60.3128 3.93994 59.8953 4.01494C58.0221 4.34955 57.0391 5.31876 56.7521 7.24276C56.6691 8.1055 56.6391 8.97248 56.6622 9.83886C56.6622 10.1129 56.8593 10.0754 57.0275 10.0754C58.2193 10.0754 59.4139 10.0754 60.6086 10.0754C60.9479 10.0754 61.0783 10.1504 61.0696 10.5138C61.0464 11.5032 61.0522 12.4955 61.0696 13.4849C61.0696 13.8224 60.9537 13.9176 60.626 13.9147C59.4922 13.8974 58.3556 13.9147 57.2189 13.9147C56.6593 13.9147 56.6593 13.9147 56.6593 14.4541V29.3846C56.6593 29.8663 56.6593 29.8692 56.1576 29.8692C55.163 29.8692 54.1656 29.8692 53.1681 29.8692C52.8462 29.8692 52.7534 29.7769 52.7563 29.4567C52.7563 24.4568 52.7563 19.4569 52.7563 14.457C52.7563 13.9061 52.7563 13.9061 52.1996 13.9061C50.7643 13.9061 49.326 13.9061 47.8907 13.9061C47.5601 13.9061 47.4413 13.8167 47.4558 13.4763C47.4964 12.4638 47.5138 11.4571 47.5225 10.436C47.5225 10.1475 47.6268 10.0667 47.9081 10.0667C49.3811 10.0667 50.8542 10.0667 52.3243 10.0667C52.6548 10.0667 52.7679 9.97732 52.7621 9.63982C52.7418 8.39658 52.6983 7.14757 53.0521 5.93317C53.748 3.4438 55.1572 1.54288 57.6596 0.596744C58.71 0.232755 59.8188 0.0645621 60.9305 0.1006C61.1189 0.1006 61.203 0.178483 61.203 0.368864C61.2001 1.54288 61.203 2.6967 61.203 3.88514Z" fill="#2081BB"/>
<path d="M63.1921 24.6481C63.1921 23.1857 63.1631 21.7232 63.1921 20.2607C63.2646 17.1743 64.407 14.5522 66.8283 12.5792C68.323 11.3917 70.1084 10.6211 72.0012 10.3465C72.8711 10.2023 73.77 10.1561 74.6544 10.0581C74.9444 10.0263 75.043 10.1331 75.0401 10.4244C75.0401 11.4513 75.0401 12.4753 75.0401 13.5022C75.0401 13.7907 74.9531 13.883 74.6689 13.8974C73.5793 13.9225 72.4987 14.1002 71.459 14.4253C69.1161 15.2272 67.6692 16.8281 67.1414 19.2338C67.0702 19.5822 67.0361 19.937 67.0399 20.2925C67.0399 23.3251 67.0399 26.3558 67.0399 29.3846C67.0399 29.8346 67.0399 29.8346 66.576 29.8375C65.5669 29.8375 64.5462 29.8375 63.5516 29.8375C63.2617 29.8375 63.1921 29.7509 63.1921 29.4798C63.195 27.876 63.1921 26.2635 63.1921 24.6481Z" fill="#2081BB"/>
<path d="M16.7224 10.0927C17.9838 10.0927 19.2103 10.0927 20.4369 10.0927C20.5036 10.0927 20.5877 10.2167 20.6253 10.3033C20.6415 10.3823 20.6415 10.4637 20.6253 10.5427V29.7683H16.7224V10.0927Z" fill="#0A4971"/>
<path d="M90.9157 36.446C90.6284 36.3297 90.3163 36.2873 90.0082 36.3225C89.7001 36.3578 89.4059 36.4697 89.1527 36.6479C88.8395 36.8845 88.5728 37.1152 88.248 36.6479C88.1842 36.5556 88.0218 36.5152 87.8972 36.4749C87.0418 36.2037 86.2618 36.3047 85.5774 37.0143C85.4441 36.3422 85.444 36.3479 84.8583 36.4172C84.635 36.4431 84.5278 36.4806 84.5829 36.7633C84.7891 38.021 84.8291 39.3001 84.7017 40.568C84.6582 41.2546 84.6495 41.243 85.331 41.2517C85.5716 41.2517 85.6209 41.1882 85.6209 40.9632C85.6035 39.9536 85.6209 38.944 85.5948 37.9373C85.5831 37.8008 85.6145 37.664 85.6847 37.5461C85.7548 37.4282 85.8603 37.335 85.9863 37.2796C87.0418 36.7027 87.8972 37.1729 87.9001 38.3585C87.9001 39.1027 87.8682 39.8469 87.8305 40.5911C87.7986 41.2661 87.787 41.2546 88.4597 41.2603C88.6772 41.2603 88.7497 41.2171 88.7497 40.9863C88.7294 40.0373 88.7497 39.0883 88.7207 38.1392C88.7017 37.9643 88.7367 37.7878 88.8212 37.6332C88.9056 37.4785 89.0354 37.3532 89.1933 37.2739C89.401 37.1507 89.6363 37.0812 89.8779 37.0717C90.1194 37.0621 90.3596 37.1128 90.5764 37.2191C90.9998 37.3921 91.023 37.796 91.023 38.1623C91.023 38.9902 90.9998 39.8209 90.9824 40.6488C90.9824 41.2921 90.9679 41.2863 91.6203 41.2603C91.7914 41.2603 91.8436 41.2142 91.8436 41.0382C91.8436 40.0055 91.8436 38.9729 91.8436 37.9402C91.8291 37.2508 91.6116 36.6652 90.9157 36.446Z" fill="#216690"/>
<path d="M20.1498 37.9114C20.1266 36.896 19.5437 36.3624 18.5231 36.3277C18.1986 36.3172 17.8757 36.3756 17.5757 36.4989C17.2757 36.6223 17.0055 36.8078 16.7833 37.0431C16.7427 36.8326 16.7079 36.6912 16.6905 36.5499C16.6731 36.4085 16.6441 36.397 16.5339 36.4143C16.3193 36.4489 16.1047 36.4806 15.8902 36.5095C15.7597 36.5268 15.7452 36.5931 15.7684 36.7085C15.9871 37.988 16.0339 39.2907 15.9076 40.5825C15.867 41.243 15.8728 41.2286 16.5339 41.243C16.8007 41.243 16.8442 41.1623 16.8413 40.92C16.8239 39.9854 16.8674 39.045 16.8094 38.1133C16.7891 37.9265 16.8305 37.7383 16.9272 37.5769C17.024 37.4156 17.1709 37.29 17.3458 37.2191C18.3404 36.671 19.2915 37.2191 19.3002 38.3325C19.3002 39.0767 19.3002 39.821 19.2364 40.5652C19.1871 41.2603 19.1958 41.2546 19.9033 41.2402C20.0744 41.2402 20.1585 41.2142 20.1556 41.0094C20.1498 39.9767 20.173 38.944 20.1498 37.9114Z" fill="#216690"/>
<path d="M70.4617 37.8681C70.4298 36.8498 69.8817 36.3652 68.8495 36.3277C68.1767 36.3047 67.6432 36.6162 67.1097 37.0114C66.9589 36.3335 66.9589 36.3364 66.3181 36.5008C66.1934 36.5325 66.1325 36.5614 66.1644 36.7114C66.4398 38.0181 66.379 39.3392 66.3007 40.6575C66.2659 41.2344 66.2746 41.2344 66.8632 41.2344C67.1329 41.2344 67.1677 41.145 67.1532 40.9084C67.1358 39.9854 67.1532 39.0594 67.1532 38.1335C67.1532 37.496 67.2112 37.4095 67.8259 37.1787C67.9271 37.1419 68.0308 37.112 68.1361 37.0893C69.0611 36.87 69.6904 37.3518 69.6991 38.2921C69.6991 39.0623 69.6991 39.8296 69.6324 40.5998C69.586 41.2776 69.5976 41.2748 70.2732 41.2344C70.4211 41.2344 70.4849 41.1969 70.482 41.0325C70.4617 39.9825 70.4849 38.9238 70.4617 37.8681Z" fill="#216690"/>
<path d="M99.1072 39.7373C98.8404 39.368 98.8549 38.2575 99.1449 37.8248C99.7538 36.9162 100.595 36.9306 101.534 37.2479C101.538 37.0857 101.558 36.9242 101.595 36.7662C101.691 36.495 101.595 36.4143 101.328 36.3681C100.727 36.2344 100.097 36.3067 99.5421 36.5731C98.9869 36.8396 98.5384 37.2847 98.2692 37.8363C97.9782 38.4279 97.9324 39.1095 98.1416 39.7344C98.2551 40.0678 98.4453 40.3702 98.697 40.6176C98.9487 40.8649 99.255 41.0505 99.5914 41.1594C99.8437 41.2545 99.9858 41.3469 99.864 41.6468C99.7683 41.8805 99.8031 42.0651 100.116 42.1459C100.248 42.1774 100.365 42.2537 100.446 42.3618C100.527 42.4698 100.567 42.6026 100.56 42.7372C100.575 42.8666 100.542 42.9971 100.467 43.1036C100.391 43.2102 100.279 43.2851 100.151 43.3141C99.893 43.3833 100.079 43.5449 100.058 43.6603C100.038 43.7756 100.105 43.8391 100.247 43.842C100.49 43.8517 100.728 43.7761 100.921 43.6284C101.113 43.4808 101.247 43.2704 101.299 43.0343C101.45 42.3651 101.236 42.0161 100.543 41.817C100.398 41.7766 100.319 41.7276 100.337 41.5488C100.354 41.3699 100.464 41.3872 100.586 41.3872C100.755 41.3959 100.924 41.3959 101.093 41.3872C101.784 41.3295 101.905 41.1767 101.842 40.4815C100.409 40.8132 99.7654 40.6401 99.1072 39.7373Z" fill="#216690"/>
<path d="M74.5762 34.1643C73.8484 34.0057 73.0307 34.049 72.6392 34.9086C72.4878 35.2622 72.3967 35.6385 72.3695 36.022C72.3116 36.6451 72.3145 36.6566 71.6823 36.5989C71.4272 36.5729 71.3199 36.5989 71.3257 36.8874C71.3402 37.3633 71.3257 37.3633 71.7867 37.3489C71.8833 37.3547 71.9801 37.3547 72.0767 37.3489C72.3 37.3143 72.3666 37.3922 72.3666 37.62C72.3348 38.6037 72.3261 39.5902 72.3029 40.5738C72.2855 41.269 72.2826 41.2603 72.9959 41.2488C73.1902 41.2488 73.2365 41.1911 73.2307 41.0036C73.2307 40.4267 73.2307 39.8758 73.2307 39.3104H73.167C73.167 38.7335 73.167 38.1796 73.167 37.6172C73.167 37.3835 73.2365 37.3287 73.4569 37.346C73.7469 37.3691 74.0369 37.3633 74.3268 37.372C74.4254 37.372 74.5037 37.372 74.5414 37.2422C74.6777 36.7258 74.5414 36.5643 74.0311 36.6018H73.9963C73.1032 36.6624 73.0858 36.6451 73.222 35.7364C73.3583 34.8278 73.512 34.7441 74.3558 34.8711C74.5124 34.8941 74.5791 34.8711 74.6052 34.7153C74.6313 34.5595 74.6603 34.4586 74.6893 34.3288C74.6806 34.2451 74.6806 34.1874 74.5762 34.1643Z" fill="#216690"/>
<path d="M5.79927 35.0037C5.84856 34.845 5.79927 34.7441 5.59339 34.7441C4.07107 34.7441 2.54875 34.7441 1.02643 34.7441C0.603084 34.7441 0.875651 35.0816 0.808959 35.2546C0.742267 35.4277 0.875651 35.4623 1.02933 35.4537C1.54837 35.4277 2.07031 35.4248 2.58645 35.3873C2.84452 35.37 2.91121 35.4566 2.91121 35.7046C2.91121 37.3488 2.9489 38.993 2.87641 40.6372C2.84742 41.2401 2.84742 41.2141 3.45634 41.2372C3.71151 41.2372 3.74631 41.1536 3.74631 40.9315C3.73181 40.0661 3.74631 39.2007 3.74631 38.3354H3.72021C3.72021 37.47 3.73471 36.5815 3.72021 35.7046C3.72021 35.4162 3.813 35.37 4.06817 35.3845C4.57271 35.4162 5.08015 35.4248 5.58759 35.4364C5.94425 35.4566 5.74417 35.1595 5.79927 35.0037Z" fill="#216690"/>
<path d="M14.1852 40.6084C13.0776 40.8391 11.7234 40.1295 11.9496 38.5892C11.9931 38.3007 11.9496 37.9748 12.1845 37.7036C12.3896 37.4343 12.6723 37.2334 12.995 37.1278C13.3177 37.0222 13.6651 37.0168 13.9909 37.1123C14.1649 37.1498 14.3853 37.3315 14.5071 37.1902C14.6289 37.0488 14.6028 36.8065 14.6463 36.6133C14.6724 36.4921 14.6173 36.4488 14.5042 36.4142C13.8672 36.2403 13.1888 36.2982 12.5908 36.5773C11.9929 36.8565 11.5146 37.3387 11.2421 37.9373C10.9873 38.4906 10.9531 39.1194 11.1464 39.6969C11.3704 40.2935 11.8037 40.7895 12.3665 41.0933C12.9293 41.397 13.5835 41.4881 14.2084 41.3497C14.8666 41.2314 14.9159 41.1651 14.8608 40.467C14.6289 40.5103 14.4085 40.5622 14.1852 40.6084Z" fill="#216690"/>
<path d="M83.8986 36.446C83.3854 36.3104 82.8693 36.2267 82.4111 36.5815C82.2187 36.7647 82.0431 36.9645 81.8863 37.1786C81.8486 36.9133 81.8138 36.7027 81.7906 36.4892C81.7906 36.3998 81.7703 36.3248 81.6456 36.345L81.0019 36.4431C80.8743 36.4604 80.8627 36.5267 80.8888 36.645C81.1788 37.9632 81.0976 39.293 81.0454 40.6257C81.0193 41.243 81.0251 41.2286 81.6253 41.2459C81.8863 41.2459 81.9385 41.1766 81.9327 40.9286C81.9095 40.1122 81.9559 39.293 81.9037 38.4796C81.837 37.5219 82.6489 37.0604 83.4318 37.2277C83.8957 37.3286 83.8986 37.32 83.9798 36.8412C83.9798 36.7719 84.0001 36.6998 84.0146 36.6306C84.0207 36.6108 84.0224 36.59 84.0197 36.5696C84.017 36.5491 84.0099 36.5295 83.9989 36.512C83.9879 36.4945 83.9733 36.4795 83.956 36.4681C83.9387 36.4568 83.9191 36.4492 83.8986 36.446Z" fill="#216690"/>
<path d="M64.5956 35.4306C64.6246 34.7383 64.613 34.747 63.9287 34.7412C63.6996 34.7412 63.6387 34.7874 63.6387 35.0297C63.6561 36.0104 63.6387 36.994 63.6387 37.9777C63.6387 38.843 63.6387 39.7084 63.6387 40.5738C63.6387 41.243 63.6242 41.2315 64.2882 41.2459C64.5376 41.2459 64.6101 41.1968 64.6014 40.9344C64.5463 39.0998 64.5202 37.2652 64.5956 35.4306Z" fill="#216690"/>
<path d="M28.0773 37.7671C28.0599 36.7777 28.1034 35.8201 28.1381 34.8595C28.1671 34.0893 28.1613 34.0951 27.3813 34.2076C27.2219 34.2307 27.1842 34.2826 27.1987 34.4326C27.2306 34.721 27.2509 35.0095 27.2682 35.298C27.3596 37.0708 27.3596 38.8471 27.2682 40.62C27.2422 41.2517 27.2508 41.2373 27.8888 41.2488C28.1439 41.2488 28.1787 41.1651 28.1613 40.9603C28.1265 39.8729 28.057 38.8056 28.0773 37.7671Z" fill="#216690"/>
<path d="M41.7986 38.7911C41.7986 38.0585 41.7986 37.3258 41.7986 36.596C41.7986 36.5008 41.8885 36.3075 41.6739 36.3537C41.3839 36.4402 41.0099 36.2902 40.7866 36.6104C40.7866 36.6104 40.7866 36.6335 40.7866 36.645C40.9537 37.9535 40.9965 39.2747 40.9142 40.5911C40.8939 41.2574 40.8968 41.2488 41.5753 41.2401C41.7783 41.2401 41.8276 41.1969 41.8218 40.9834C41.787 40.2536 41.7986 39.5209 41.7986 38.7911Z" fill="#216690"/>
<path d="M106.203 34.3489C106.064 34.5244 105.872 34.6506 105.655 34.7088C105.438 34.767 105.208 34.7541 104.999 34.672C104.748 34.5846 104.485 34.5369 104.219 34.5307C103.942 34.5559 103.679 34.6638 103.464 34.8403C103.249 35.0169 103.093 35.2538 103.016 35.5201C102.978 35.6672 103.091 35.673 103.155 35.7278C103.219 35.7826 103.257 35.8287 103.344 35.7278C103.735 35.2749 104.231 35.2576 104.762 35.4393C105.611 35.7278 106.069 35.4566 106.574 34.6403C106.67 34.4845 106.641 34.4066 106.51 34.2855C106.38 34.1643 106.287 34.2537 106.203 34.3489Z" fill="#216690"/>
<path d="M41.4651 34.3864C41.3774 34.3834 41.2902 34.3987 41.2089 34.4314C41.1277 34.4642 41.0543 34.5136 40.9935 34.5765C40.9328 34.6394 40.886 34.7143 40.8564 34.7964C40.8267 34.8784 40.8148 34.9658 40.8213 35.0528C40.8174 35.1288 40.8298 35.2048 40.8577 35.2756C40.8857 35.3465 40.9286 35.4106 40.9836 35.4636C41.0385 35.5166 41.1042 35.5573 41.1762 35.583C41.2483 35.6086 41.325 35.6187 41.4013 35.6124C41.784 35.6124 41.9812 35.373 41.9812 34.946C41.9551 34.5653 41.7927 34.3836 41.4651 34.3864Z" fill="#216690"/>
<path d="M39.8789 35.7623C39.2612 35.6729 38.9307 35.8517 38.719 36.446C38.6784 36.5585 38.6726 36.6796 38.487 36.5758C37.9441 36.3006 37.3175 36.2368 36.7298 36.3969C36.4306 36.449 36.1503 36.5781 35.9168 36.7715C35.6833 36.9648 35.5047 37.2155 35.3989 37.4988C35.2463 37.8549 35.2238 38.2529 35.3351 38.6238C35.4665 38.9831 35.7158 39.288 36.0426 39.4892C35.3931 40.1267 35.367 40.493 35.9237 41.0122C35.6093 41.1126 35.345 41.3281 35.1843 41.6151C35.083 41.8072 35.0265 42.0196 35.0191 42.2365C35.0118 42.4534 35.0537 42.6691 35.1417 42.8676C35.2298 43.0661 35.3618 43.2423 35.5278 43.383C35.6938 43.5238 35.8896 43.6254 36.1006 43.6804C36.7835 43.8988 37.5148 43.9188 38.2087 43.7381C38.8294 43.6018 39.3723 43.2304 39.7223 42.7026C40.3486 41.7218 39.9311 40.7959 38.7857 40.5882C38.1507 40.4699 37.507 40.568 36.8719 40.4641C36.6925 40.4502 36.5206 40.3862 36.3761 40.2795C36.3106 40.2336 36.2633 40.1665 36.2421 40.0897C36.2209 40.0128 36.2273 39.9311 36.2601 39.8584C36.2935 39.7825 36.3544 39.7218 36.4307 39.6887C36.5071 39.6555 36.5932 39.6523 36.6719 39.6795C37.1532 39.7835 37.6538 39.7576 38.1217 39.6045C38.3473 39.5209 38.5539 39.3932 38.7293 39.229C38.9046 39.0648 39.0452 38.8674 39.1427 38.6484C39.2402 38.4293 39.2927 38.1931 39.2972 37.9536C39.3016 37.7141 39.2578 37.4761 39.1685 37.2536C38.9365 36.7604 38.9655 36.7027 39.5164 36.6017C39.6221 36.5787 39.73 36.5671 39.8383 36.5671C40.192 36.5671 40.0587 36.296 40.0934 36.1287C40.1282 35.9614 40.1282 35.7998 39.8789 35.7623ZM36.2456 41.2574C36.3026 41.2139 36.3711 41.1879 36.4428 41.1824C37.101 41.292 37.7708 41.1824 38.429 41.3036C38.777 41.3757 39.0902 41.4939 39.1598 41.8805C39.191 42.0595 39.1666 42.2437 39.0899 42.4086C39.0133 42.5735 38.8879 42.7112 38.7306 42.8035C38.3195 43.0738 37.8303 43.2015 37.3388 43.167C36.9689 43.1896 36.6004 43.1055 36.2775 42.9247C36.1267 42.8447 36.0002 42.7261 35.9109 42.5812C35.8215 42.4363 35.7728 42.2703 35.7695 42.1004C35.7662 41.9304 35.8087 41.7627 35.8924 41.6145C35.9761 41.4663 36.098 41.343 36.2456 41.2574ZM38.4087 38.4046C38.3943 38.4867 38.3659 38.5657 38.3247 38.6382C38.1043 38.9873 37.4345 39.1603 36.8748 39.0161C36.6618 38.9688 36.4701 38.8536 36.3288 38.688C36.1875 38.5225 36.1043 38.3156 36.0919 38.0988C36.0426 37.4469 36.5269 36.9825 37.2518 36.9825C38.1681 36.9854 38.6088 37.5248 38.4203 38.4046H38.4087Z" fill="#216690"/>
<path d="M54.6846 34.6749C54.7078 34.1585 54.7165 34.1787 54.18 34.1758C53.8611 34.1758 53.7712 34.2681 53.8002 34.5855C53.865 35.2864 53.8844 35.9907 53.8582 36.6941C53.7683 36.6364 53.7132 36.5931 53.6552 36.5585C52.736 36.0364 51.2514 36.3941 50.7555 37.3114C50.2597 38.2286 50.0654 39.218 50.57 40.2565C50.7177 40.5994 50.9663 40.8897 51.283 41.0895C51.5997 41.2892 51.9698 41.389 52.3446 41.3757C52.6368 41.3891 52.9288 41.3425 53.2021 41.2388C53.4755 41.135 53.7245 40.9764 53.9336 40.7728C53.9626 40.842 53.98 40.8622 53.9771 40.8824C53.9365 41.3872 54.3047 41.2315 54.557 41.2257C54.8934 41.2257 54.7107 40.9545 54.7049 40.8247C54.5918 38.7796 54.5947 36.7344 54.6846 34.6749ZM53.6871 40.4094C53.1072 40.6978 52.5272 40.7988 51.9473 40.4671C51.6885 40.3254 51.4735 40.1163 51.3253 39.8622C51.1772 39.6081 51.1015 39.3185 51.1064 39.0248C51.1064 37.9748 51.5269 37.294 52.3707 37.0431C52.6038 36.9784 52.8485 36.9666 53.0869 37.0085C53.719 37.1037 53.8379 37.2421 53.8814 37.8738C53.9017 38.1854 53.9162 38.4969 53.9394 38.8834C53.9394 39.1921 53.922 39.5757 53.9394 39.9594C53.9514 40.0514 53.9333 40.1448 53.8879 40.2258C53.8425 40.3068 53.7721 40.3712 53.6871 40.4094Z" fill="#216690"/>
<path d="M8.02036 36.3306C7.04608 36.3306 6.48065 36.9075 6.0573 37.6806C5.1874 39.2671 6.21098 41.1045 7.76229 41.3209C8.2517 41.3915 8.74881 41.3915 9.23822 41.3209C9.93993 41.217 9.94573 41.2113 9.93993 40.4555C9.43348 40.597 8.90875 40.6631 8.38282 40.6517C7.58251 40.617 6.77931 40.0747 6.64303 39.2613C6.60823 39.0565 6.64303 38.993 6.8634 38.993C7.7333 38.993 8.62639 38.9613 9.50789 38.944C10.0878 38.944 10.0878 38.944 10.0878 38.3382C10.0675 37.1094 9.25272 36.3248 8.02036 36.3306ZM8.96565 38.2979C8.60609 38.2979 8.24364 38.2979 7.88118 38.2979V38.3527H6.8286C6.72712 38.3527 6.64013 38.3527 6.66912 38.2084C6.77641 37.5536 7.07218 37.0546 7.95077 36.994C8.1011 36.9756 8.25363 36.9881 8.39893 37.0307C8.54423 37.0732 8.6792 37.145 8.79552 37.2415C8.91183 37.338 9.00702 37.4573 9.07518 37.5918C9.14334 37.7264 9.18304 37.8734 9.19182 38.0238C9.22082 38.2171 9.19182 38.3065 8.96565 38.2979Z" fill="#216690"/>
<path d="M106.536 38.0527C106.568 37.0777 106.171 36.5816 105.211 36.3883C104.675 36.2882 104.124 36.2951 103.59 36.4085C102.819 36.5527 102.897 36.4287 102.868 37.2739C103.457 37.1041 104.071 37.0368 104.683 37.0748C105.374 37.1296 105.722 37.5017 105.695 38.1335C105.695 38.2921 105.658 38.3671 105.475 38.37C105.184 38.3761 104.894 38.3982 104.605 38.4363C103.999 38.5142 103.422 38.6382 102.987 39.1315C102.846 39.2719 102.738 39.4426 102.673 39.6305C102.608 39.8184 102.586 40.0186 102.61 40.216C102.634 40.4133 102.703 40.6027 102.812 40.7696C102.92 40.9366 103.065 41.0768 103.237 41.1795C103.631 41.4478 104.06 41.3959 104.492 41.3613C104.924 41.3266 105.333 41.0584 105.756 40.7844C105.681 41.2257 105.898 41.2805 106.212 41.2315C106.295 41.2242 106.38 41.2242 106.464 41.2315C106.591 41.2315 106.623 41.1795 106.6 41.0526C106.475 40.0575 106.454 39.0522 106.536 38.0527ZM104.924 40.6026C104.572 40.6903 104.202 40.6823 103.854 40.5796C103.755 40.5609 103.663 40.5169 103.586 40.4519C103.509 40.3868 103.451 40.303 103.416 40.2086C103.382 40.1142 103.373 40.0126 103.39 39.9138C103.408 39.8149 103.451 39.7223 103.515 39.645C103.636 39.4798 103.792 39.3428 103.972 39.2432C104.152 39.1436 104.351 39.0839 104.556 39.068C104.686 39.045 104.82 39.0392 104.95 39.0219C105.675 38.9325 105.675 38.9325 105.687 39.6392C105.698 40.3459 105.597 40.4469 104.924 40.6026Z" fill="#216690"/>
<path d="M46.8787 37.9892C46.899 37.0546 46.4872 36.5671 45.5622 36.3883C45.0379 36.3046 44.5034 36.3046 43.979 36.3883C43.2338 36.4777 43.2338 36.472 43.2048 37.2537C43.3469 37.2248 43.4629 37.2075 43.5789 37.1787C44.0602 37.0602 44.5582 37.0232 45.0519 37.0691C45.7246 37.1239 46.0813 37.5306 46.0407 38.1479C46.0407 38.3037 45.9827 38.3527 45.8261 38.3556C45.5361 38.3556 45.223 38.3873 44.9272 38.4277C44.3241 38.5113 43.7326 38.6181 43.3237 39.1373C42.9671 39.5873 42.8134 40.0748 43.0743 40.6084C43.182 40.8455 43.358 41.0455 43.5799 41.1831C43.8018 41.3207 44.0598 41.3897 44.3212 41.3815C44.985 41.3974 45.631 41.1671 46.1335 40.7353C45.9798 41.3122 46.2988 41.243 46.5829 41.2257H46.8004C46.9193 41.2257 46.9744 41.1911 46.9483 41.0526C46.7714 40.0286 46.8584 39.0104 46.8787 37.9892ZM45.3854 40.5853C45.0027 40.7022 44.5936 40.7022 44.211 40.5853C44.1099 40.5655 44.0158 40.5198 43.9378 40.4528C43.8599 40.3858 43.8007 40.2998 43.7662 40.2033C43.7317 40.1067 43.723 40.0029 43.741 39.902C43.759 39.8011 43.8031 39.7065 43.8688 39.6277C44.0439 39.3817 44.3059 39.2106 44.6025 39.1488C44.9658 39.0681 45.3354 39.0189 45.7072 39.0017C45.9624 38.9815 46.0581 39.0652 46.0291 39.3132C46.0218 39.4324 46.0218 39.5518 46.0291 39.6709C46.0465 40.3171 46.0088 40.3776 45.3854 40.5709V40.5853Z" fill="#216690"/>
<path d="M22.9073 36.495C21.4923 37.072 21.0051 38.3614 21.3589 39.7459C21.4587 40.1258 21.6603 40.4716 21.9422 40.7464C22.2241 41.0213 22.5757 41.2148 22.9595 41.3065C24.4412 41.7392 26.21 40.4036 26.0505 38.7738C26.0822 38.3867 26.0133 37.998 25.8506 37.645C25.6879 37.2919 25.4367 36.9864 25.1212 36.7577C24.8057 36.5289 24.4364 36.3846 24.0487 36.3386C23.6611 36.2927 23.268 36.3465 22.9073 36.495ZM24.3571 40.5334C23.9019 40.8767 22.8029 40.7209 22.5332 40.1007C22.3563 39.6911 22.1186 39.3219 22.1766 38.8633C22.1418 38.329 22.3094 37.8011 22.6463 37.3835C22.9363 36.9595 23.8758 36.8354 24.3049 37.1469C25.3546 37.8883 25.5431 39.6536 24.3571 40.5392V40.5334Z" fill="#216690"/>
<path d="M96.8194 38.0152C96.8455 36.9883 96.3091 36.4114 95.2652 36.3422C94.7356 36.3234 94.2055 36.3553 93.682 36.4374C93.2702 36.4835 93.1021 36.6681 93.1485 37.0604C93.1525 37.1209 93.1525 37.1816 93.1485 37.2422C93.5138 37.1845 93.8531 37.1181 94.1981 37.0806C94.5569 37.0306 94.9216 37.0414 95.2768 37.1124C95.3951 37.1225 95.5101 37.1566 95.6146 37.2126C95.7192 37.2686 95.8111 37.3454 95.8847 37.4381C95.9583 37.5307 96.0121 37.6375 96.0427 37.7516C96.0733 37.8657 96.0801 37.9849 96.0626 38.1018C96.0626 38.2777 96.022 38.3585 95.8219 38.3585C95.5085 38.36 95.1956 38.3831 94.8854 38.4277C94.3421 38.4652 93.8232 38.6664 93.3978 39.0046C93.1796 39.187 93.0236 39.4324 92.9514 39.7067C92.8792 39.981 92.8944 40.2709 92.9948 40.5363C93.0976 40.7888 93.276 41.0037 93.5058 41.1518C93.7356 41.2999 94.0057 41.3741 94.2793 41.3642C94.9266 41.4033 95.5648 41.1972 96.0655 40.7873C96.1873 40.9402 96.0365 41.1709 96.2569 41.2055C96.4371 41.2257 96.6189 41.2257 96.7991 41.2055C96.9267 41.2055 96.9093 41.119 96.8948 41.0267C96.7179 40.0315 96.7962 39.0219 96.8194 38.0152ZM95.2739 40.5911C94.9246 40.6858 94.5562 40.6858 94.2068 40.5911C94.1079 40.5716 94.0159 40.5267 93.9397 40.461C93.8636 40.3952 93.806 40.3109 93.7726 40.2162C93.7392 40.1216 93.7312 40.0199 93.7494 39.9213C93.7676 39.8226 93.8113 39.7304 93.8763 39.6537C93.9873 39.4952 94.1307 39.3619 94.2971 39.2625C94.4635 39.1631 94.6491 39.0998 94.8419 39.0767C94.9954 39.05 95.1503 39.0317 95.3058 39.0219C96.0278 38.9498 96.0278 38.9498 96.0423 39.6479C96.0568 40.3459 95.9553 40.444 95.2739 40.5911Z" fill="#216690"/>
<path d="M76.2985 36.7489C75.9191 36.9661 75.6122 37.2894 75.4158 37.6786C75.2194 38.0678 75.1422 38.5058 75.1938 38.9383C74.9879 40.7555 76.9336 41.9295 78.5023 41.1363C79.4186 40.6719 80.0101 39.795 79.9289 38.494C79.9013 38.0875 79.7661 37.6955 79.5368 37.3578C79.3076 37.0201 78.9925 36.7488 78.6237 36.5715C78.2549 36.3943 77.8455 36.3173 77.4371 36.3484C77.0287 36.3796 76.6359 36.5177 76.2985 36.7489ZM77.847 40.7007C77.6648 40.7422 77.4758 40.7443 77.2927 40.707C77.1097 40.6697 76.9368 40.5938 76.7857 40.4844C75.7244 39.6594 75.8085 37.9114 76.7857 37.2191C76.9467 37.1075 77.1303 37.0325 77.3237 36.9991C77.517 36.9658 77.7153 36.975 77.9047 37.0262C78.094 37.0773 78.2698 37.1692 78.4197 37.2952C78.5695 37.4212 78.6897 37.5784 78.7719 37.7556C78.9458 38.1267 79.034 38.5318 79.03 38.9412C79.0184 39.795 78.5806 40.5853 77.847 40.7007Z" fill="#216690"/>
<path d="M59.7734 37.9604C59.7734 36.9969 59.4081 36.4979 58.428 36.3652C57.8885 36.2944 57.3409 36.3119 56.8071 36.4171C56.0474 36.5642 56.1721 36.4171 56.1025 37.1815C56.1025 37.2017 56.1228 37.2219 56.1373 37.2508C56.8448 37.1036 57.5552 36.9623 58.2801 37.1238C58.4906 37.1569 58.6815 37.2656 58.8167 37.4293C58.9519 37.5931 59.022 37.8005 59.0137 38.0123C59.0311 38.2719 58.9644 38.3613 58.6832 38.3642C58.0181 38.3404 57.3565 38.4686 56.7491 38.7392C56.0503 39.0767 55.7748 39.7228 55.9575 40.519C56.0735 41.018 56.6592 41.3843 57.358 41.3843C57.9599 41.3853 58.544 41.1817 59.0137 40.8074C59.1529 40.9343 58.9702 41.1968 59.2283 41.2228C59.3966 41.2309 59.5653 41.2261 59.7329 41.2084C59.843 41.2084 59.872 41.1536 59.8517 41.0439C59.6749 40.0228 59.7879 38.9901 59.7734 37.9604ZM59.005 39.3305C58.9976 39.4034 58.9976 39.4769 59.005 39.5497C59.0224 40.3026 58.918 40.4353 58.2627 40.5795C57.9241 40.6661 57.569 40.6661 57.2304 40.5795C57.119 40.5642 57.014 40.5183 56.9273 40.4471C56.8406 40.3758 56.7755 40.2819 56.7394 40.1759C56.7033 40.0699 56.6976 39.956 56.7228 39.8469C56.7481 39.7379 56.8034 39.638 56.8825 39.5584C57.1207 39.284 57.4541 39.1089 57.8162 39.068C58.0858 39.0132 58.3671 39.0219 58.6426 38.9873C58.9181 38.9526 59.0485 39.0421 59.005 39.3305Z" fill="#216690"/>
<path d="M32.9808 36.5931C32.1978 36.1345 31.3569 36.2527 30.5798 36.7316C29.5418 37.3719 29.3881 38.3613 29.4751 39.4575C29.5911 40.9488 31.1685 41.5228 32.1747 41.3497C33.0938 41.1882 34.2508 40.0632 34.2044 38.8748C34.216 37.7296 33.8391 37.0979 32.9808 36.5931ZM33.0793 39.9075C32.989 40.1207 32.8446 40.3071 32.6604 40.4484C32.4762 40.5897 32.2584 40.6813 32.0281 40.7141C31.7978 40.7469 31.5629 40.7199 31.3462 40.6356C31.1295 40.5514 30.9384 40.4129 30.7915 40.2334C30.4059 39.7661 30.2957 39.4604 30.2928 38.7334C30.2831 38.2645 30.4555 37.81 30.7741 37.4642C30.929 37.27 31.1371 37.1246 31.3734 37.0458C31.6096 36.9669 31.8638 36.958 32.1051 37.02C32.3544 37.0712 32.5839 37.192 32.7667 37.3682C32.9496 37.5445 33.0781 37.7689 33.1373 38.0152C33.3506 38.6319 33.33 39.3048 33.0793 39.9075Z" fill="#216690"/>
<path d="M110.781 36.4027C109.21 36.0392 107.835 37.1757 107.728 38.8661C107.656 39.9997 108.485 41.1074 109.433 41.3151C109.8 41.4014 110.182 41.403 110.55 41.3198C110.918 41.2365 111.262 41.0707 111.556 40.8349C111.849 40.5991 112.085 40.2996 112.244 39.9594C112.403 39.6191 112.482 39.2471 112.475 38.8719C112.536 37.5998 111.88 36.6565 110.781 36.4027ZM110.433 40.6862C110.24 40.7391 110.038 40.7458 109.842 40.7057C109.646 40.6656 109.462 40.5798 109.305 40.4555C108.317 39.694 108.357 38.0036 109.233 37.2825C109.978 36.6738 111.089 37.02 111.469 37.9863C111.589 38.2871 111.647 38.6088 111.64 38.9324C111.637 39.7949 111.147 40.5074 110.433 40.6862Z" fill="#216690"/>
</g>
<defs>
<clipPath id="clip0">
<rect width="137" height="46" fill="white" transform="translate(0 0.100586)"/>
</clipPath>
</defs>
</svg>
