<svg xmlns="http://www.w3.org/2000/svg" viewBox="0 0 472.47 159.47"><defs><style>.cls-1{fill:#2081bb;}.cls-2{fill:#0a4971;}.cls-3{fill:#216690;}</style></defs><g id="Layer_2" data-name="Layer 2"><g id="Layer_1-2" data-name="Layer 1"><path class="cls-1" d="M417.07,111c-.08,1.07-.17,1.68-.17,2.29q0,22.17,0,44.33c0,1.85,0,1.85-1.82,1.85-3.32,0-6.64-.05-10,0-1.24,0-1.53-.37-1.53-1.57q0-53.85,0-107.7c0-2.34.47-2.41-2.39-2.41H357.8a26.7,26.7,0,0,0-3.46.24c-3.37.47-5.16,2.1-5.77,5.62s0,6.35,3.93,7.9a12.39,12.39,0,0,0,4.34.7c6,.07,12,0,18,0a24.41,24.41,0,0,1,13,3.22c5.34,3.26,8.14,8.15,8.9,14.3a22.41,22.41,0,0,1-1.11,10.84c-2.28,5.95-6.79,9.57-12.71,11.45a21.21,21.21,0,0,1-6.23,1c-13.23.09-26.46,0-39.69,0h-1.5V89.86H337q19.55,0,39.09,0c2.38,0,4.6-.57,6-2.63a7.86,7.86,0,0,0,.69-8.06c-1.22-2.68-3.74-3.55-6.44-3.61-6.79-.14-13.59-.27-20.38-.13A21,21,0,0,1,341.18,70a18.18,18.18,0,0,1-5.92-11.47,22,22,0,0,1,5.14-17.72c2.88-3.48,6.78-5.13,11.11-5.8a45.71,45.71,0,0,1,6.91-.5q28.36,0,56.73,0c1.69,0,1.69,0,1.7,1.71q0,9,0,18.09c0,.56.11,1.13.16,1.71,17.94-10.53,34.3-9.35,48,6.69,9.77,11.43,9.33,28.55,1.86,39.5-5.58,8.19-13.05,13.58-22.84,15.28A33.93,33.93,0,0,1,417.07,111ZM459,83.68c.13-11.34-9.57-20.91-21-21-11.23-.13-21.08,9.78-21.09,21a21.06,21.06,0,0,0,42.11,0Z"/><path class="cls-1" d="M156.79,102.9H142.5V21.72l-.42-.11c-.21.35-.45.68-.63,1q-11.32,22.11-22.63,44.24-9,17.49-17.88,35a2,2,0,0,1-2,1.24c-4.51,0-9,0-13.75,0,.21-.48.33-.84.5-1.17q15.57-30.7,31.15-61.41Q125,24.27,133.29,8,134.34,6,135.57,4A6.88,6.88,0,0,1,141.85.49c4.32,0,8.64,0,13,0,1,0,1.29.34,1.28,1.31,0,5.23,0,10.46.06,15.7q.12,19.09.25,38.21.1,14,.22,28,.07,8.91.17,17.84C156.8,102,156.79,102.36,156.79,102.9Z"/><path class="cls-1" d="M274.44,75.58c2.75,7.31,7.73,11.81,15,13.64s13.78-.38,19.44-5.27c.33.28.61.5.85.75,2.58,2.56,5.13,5.16,7.74,7.68.81.78.66,1.2-.11,1.88a33.4,33.4,0,0,1-17.55,8.47c-10.18,1.44-19.46-.75-27.47-7.43a33.2,33.2,0,0,1-12-20.79,33.17,33.17,0,0,1,8.14-28.35,32.86,32.86,0,0,1,21.3-11.33c11-1.36,20.65,1.8,28.56,9.64A33.34,33.34,0,0,1,328.52,71a22.42,22.42,0,0,1-.47,3.55c-.07.32-.56.65-.93.79a3.31,3.31,0,0,1-1.18,0H276.77C276.07,75.39,275.38,75.5,274.44,75.58Zm.17-13.47a8.9,8.9,0,0,0,1.15.17h36.91c1,0,1.34-.29.93-1.28a20.85,20.85,0,0,0-20.13-13.17,19.21,19.21,0,0,0-13.1,5.41C277.78,55.67,275.52,58.32,274.61,62.11Z"/><path class="cls-2" d="M13.71.73V2.48q0,15.23,0,30.43c0,2.11-.13,1.84,1.89,1.84H47.9V48.06H46.46c-10.44,0-20.87,0-31.31,0-1.16,0-1.46.34-1.46,1.48q.06,18.57,0,37.14c0,1.14.29,1.52,1.47,1.5,5.07-.09,10.15-.08,15.22-.11,1.8,0,1.79,0,1.81,1.72.05,3.91.11,7.82.16,11.73,0,.43,0,.86,0,1.36-.41,0-.72.06-1,.06-6.88,0-13.75,0-20.63,0-3.13,0-6-.75-8.24-3.19C.39,97.45,0,94.62,0,91.69,0,85.1.11,78.51.11,71.92q0-34.8,0-69.61C.12.74.12.74,1.67.73h12Z"/><path class="cls-1" d="M211.07,13.12c-1.59.15-3.07.19-4.51.45-6.46,1.16-9.85,4.52-10.84,11.19a73.94,73.94,0,0,0-.31,9c0,.95.68.82,1.26.82,4.11,0,8.23,0,12.35,0,1.17,0,1.62.26,1.59,1.52-.08,3.43-.06,6.87,0,10.3,0,1.17-.4,1.5-1.53,1.49-3.91-.06-7.83,0-11.75,0-1.93,0-1.93,0-1.93,1.87v51.76c0,1.67,0,1.68-1.73,1.68-3.43,0-6.87,0-10.31,0-1.11,0-1.43-.32-1.42-1.43q0-26,0-52c0-1.91,0-1.91-1.92-1.91-4.95,0-9.91,0-14.86,0-1.14,0-1.55-.31-1.5-1.49.14-3.51.2-7,.23-10.54,0-1,.36-1.28,1.33-1.28,5.08,0,10.16,0,15.23,0,1.14,0,1.53-.31,1.51-1.48-.07-4.31-.22-8.64,1-12.85,2.4-8.63,7.26-15.22,15.89-18.5A31.2,31.2,0,0,1,210.13,0c.65,0,.94.27.94.93C211.06,5,211.07,9,211.07,13.12Z"/><path class="cls-1" d="M217.93,85.1c0-5.07-.1-10.14,0-15.21.25-10.7,4.19-19.79,12.54-26.63a37.19,37.19,0,0,1,17.84-7.74c3-.5,6.1-.66,9.15-1,1-.11,1.34.26,1.33,1.27,0,3.56,0,7.11,0,10.67,0,1-.3,1.32-1.28,1.37a40,40,0,0,0-11.07,1.83c-8.08,2.78-13.07,8.33-14.89,16.67A17.47,17.47,0,0,0,231.2,70q0,15.77,0,31.52c0,1.56,0,1.56-1.6,1.57-3.48,0-7,0-10.43,0-1,0-1.24-.3-1.24-1.24C217.94,96.29,217.93,90.7,217.93,85.1Z"/><path class="cls-2" d="M57.67,34.64c4.35,0,8.58,0,12.81,0,.23,0,.52.43.65.73a2.08,2.08,0,0,1,0,.83v66.65H57.67Z"/><path class="cls-3" d="M313.54,126a6.37,6.37,0,0,0-6.08.7c-1.08.82-2,1.62-3.12,0-.22-.32-.78-.46-1.21-.6-2.95-.94-5.64-.59-8,1.87-.46-2.33-.46-2.31-2.48-2.07-.77.09-1.14.22-.95,1.2a50.65,50.65,0,0,1,.41,13.19c-.15,2.38-.18,2.34,2.17,2.37.83,0,1-.22,1-1-.06-3.5,0-7-.09-10.49a2.28,2.28,0,0,1,1.35-2.28c3.64-2,6.59-.37,6.6,3.74,0,2.58-.11,5.16-.24,7.74-.11,2.34-.15,2.3,2.17,2.32.75,0,1-.15,1-.95-.07-3.29,0-6.58-.1-9.87a3,3,0,0,1,1.63-3,5,5,0,0,1,4.77-.19c1.46.6,1.54,2,1.54,3.27,0,2.87-.08,5.75-.14,8.62,0,2.23-.05,2.21,2.2,2.12.59,0,.77-.16.77-.77,0-3.58,0-7.16,0-10.74C316.69,128.79,315.94,126.76,313.54,126Z"/><path class="cls-3" d="M69.49,131.08c-.08-3.52-2.09-5.37-5.61-5.49a7.88,7.88,0,0,0-6,2.48c-.14-.73-.26-1.22-.32-1.71s-.16-.53-.54-.47q-1.11.18-2.22.33c-.45.06-.5.29-.42.69a50.78,50.78,0,0,1,.48,13.43c-.14,2.29-.12,2.24,2.16,2.29.92,0,1.07-.28,1.06-1.12-.06-3.24.09-6.5-.11-9.73a3,3,0,0,1,1.85-3.1c3.43-1.9,6.71,0,6.74,3.86,0,2.58,0,5.16-.22,7.74-.17,2.41-.14,2.39,2.3,2.34.59,0,.88-.09.87-.8C69.49,138.24,69.57,134.66,69.49,131.08Z"/><path class="cls-3" d="M243,130.93c-.11-3.53-2-5.21-5.56-5.34-2.32-.08-4.16,1-6,2.37-.52-2.35-.52-2.34-2.73-1.77-.43.11-.64.21-.53.73.95,4.53.74,9.11.47,13.68-.12,2-.09,2,1.94,2,.93,0,1.05-.31,1-1.13-.06-3.2,0-6.41,0-9.62,0-2.21.2-2.51,2.32-3.31a8.15,8.15,0,0,1,1.07-.31c3.19-.76,5.36.91,5.39,4.17,0,2.67,0,5.33-.23,8-.16,2.35-.12,2.34,2.21,2.2.51,0,.73-.13.72-.7C243,138.26,243.08,134.59,243,130.93Z"/><path class="cls-3" d="M341.79,137.41c-.92-1.28-.87-5.13.13-6.63,2.1-3.15,5-3.1,8.24-2a8.18,8.18,0,0,1,.21-1.67c.33-.94,0-1.22-.92-1.38a9.44,9.44,0,0,0-10.55,5.09,8.71,8.71,0,0,0-.44,6.58,7.84,7.84,0,0,0,5,4.94c.87.33,1.36.65.94,1.69-.33.81-.21,1.45.87,1.73a2,2,0,0,1,1.53,2.05,1.83,1.83,0,0,1-1.41,2c-.89.24-.25.8-.32,1.2s.16.62.65.63a3.57,3.57,0,0,0,3.63-2.8c.52-2.32-.22-3.53-2.61-4.22-.5-.14-.77-.31-.71-.93s.44-.56.86-.56a17,17,0,0,0,1.75,0c2.38-.2,2.8-.73,2.58-3.14C346.28,141.14,344.06,140.54,341.79,137.41Z"/><path class="cls-3" d="M257.19,118.09c-2.51-.55-5.33-.4-6.68,2.58a12,12,0,0,0-.93,3.86c-.2,2.16-.19,2.2-2.37,2-.88-.09-1.25,0-1.23,1,.05,1.65,0,1.65,1.59,1.6a8.23,8.23,0,0,0,1,0c.77-.12,1,.15,1,.94-.11,3.41-.14,6.83-.22,10.24-.06,2.41-.07,2.38,2.39,2.34.67,0,.83-.2.81-.85,0-2,0-3.91,0-5.87h-.22c0-2,0-3.92,0-5.87,0-.81.24-1,1-.94,1,.08,2,.06,3,.09.34,0,.61,0,.74-.45.47-1.79,0-2.35-1.76-2.22h-.12c-3.08.21-3.14.15-2.67-3s1-3.44,3.91-3c.54.08.77,0,.86-.54s.19-.89.29-1.34C257.55,118.37,257.55,118.17,257.19,118.09Z"/><path class="cls-3" d="M20,121c.17-.55,0-.9-.71-.9-5.25,0-10.5,0-15.75,0-1.46,0-.52,1.17-.75,1.77s.23.72.76.69c1.79-.09,3.59-.1,5.37-.23.89-.06,1.12.24,1.12,1.1,0,5.7.13,11.4-.12,17.1-.1,2.09-.1,2,2,2.08.88,0,1-.29,1-1.06-.05-3,0-6,0-9h-.09c0-3,.05-6.08,0-9.12,0-1,.32-1.16,1.2-1.11,1.74.11,3.49.14,5.24.18C20.5,122.57,19.81,121.54,20,121Z"/><path class="cls-3" d="M48.92,140.43c-3.82.8-8.49-1.66-7.71-7,.15-1,0-2.13.81-3.07a5.77,5.77,0,0,1,6.23-2.05c.6.13,1.36.76,1.78.27s.33-1.33.48-2c.09-.42-.1-.57-.49-.69a9.57,9.57,0,0,0-11.25,5.28,8.33,8.33,0,0,0-.33,6.1A9.15,9.15,0,0,0,49,143c2.27-.41,2.44-.64,2.25-3.06C50.45,140.09,49.69,140.27,48.92,140.43Z"/><path class="cls-3" d="M289.34,126c-1.77-.47-3.55-.76-5.13.47a15.47,15.47,0,0,0-1.81,2.07c-.13-.92-.25-1.65-.33-2.39,0-.31-.07-.57-.5-.5l-2.22.34c-.44.06-.48.29-.39.7,1,4.57.72,9.18.54,13.8-.09,2.14-.07,2.09,2,2.15.9,0,1.08-.24,1.06-1.1-.08-2.83.08-5.67-.1-8.49-.23-3.32,2.57-4.92,5.27-4.34,1.6.35,1.61.32,1.89-1.34,0-.24.07-.49.12-.73A.5.5,0,0,0,289.34,126Z"/><path class="cls-3" d="M222.77,122.48c.1-2.4.06-2.37-2.3-2.39-.79,0-1,.16-1,1,.06,3.4,0,6.81,0,10.22h0c0,3,0,6,0,9,0,2.32-.05,2.28,2.24,2.33.86,0,1.11-.17,1.08-1.08C222.6,135.2,222.51,128.84,222.77,122.48Z"/><path class="cls-3" d="M96.83,130.58c-.06-3.43.09-6.75.21-10.08.1-2.67.08-2.65-2.61-2.26-.55.08-.68.26-.63.78.11,1,.18,2,.24,3a180.23,180.23,0,0,1,0,18.45c-.09,2.19-.06,2.14,2.14,2.18.88,0,1-.29.94-1C97,137.88,96.76,134.18,96.83,130.58Z"/><path class="cls-3" d="M144.15,134.13h0c0-2.54,0-5.08,0-7.61,0-.33.31-1-.43-.84-1,.3-2.29-.22-3.06.89,0,0,0,.08,0,.12a72.73,72.73,0,0,1,.44,13.68c-.07,2.31-.06,2.28,2.28,2.25.7,0,.87-.15.85-.89C144.11,139.2,144.15,136.66,144.15,134.13Z"/><path class="cls-3" d="M366.26,118.73a3.6,3.6,0,0,1-4.15,1.12,8.76,8.76,0,0,0-2.69-.49,4.77,4.77,0,0,0-4.15,3.43c-.13.51.26.53.48.72s.35.35.65,0c1.35-1.57,3.06-1.63,4.89-1,2.93,1,4.51.06,6.25-2.77.33-.54.23-.81-.22-1.23S366.55,118.4,366.26,118.73Z"/><path class="cls-3" d="M143,118.86a2.15,2.15,0,0,0-2.22,2.31,1.85,1.85,0,0,0,2,1.94c1.32,0,2-.83,2-2.31C144.69,119.48,144.13,118.85,143,118.86Z"/><path class="cls-3" d="M137.53,123.63c-2.13-.31-3.27.31-4,2.37-.14.39-.16.81-.8.45a8.44,8.44,0,0,0-6.06-.62,6,6,0,0,0-4.59,3.82,5.75,5.75,0,0,0-.22,3.9,5.9,5.9,0,0,0,2.44,3c-2.24,2.21-2.33,3.48-.41,5.28a4.49,4.49,0,0,0-2.55,2.09,5,5,0,0,0,3.16,7.16,13,13,0,0,0,7.27.2,8.43,8.43,0,0,0,5.22-3.59c2.16-3.4.72-6.61-3.23-7.33-2.19-.41-4.41-.07-6.6-.43a3.3,3.3,0,0,1-1.71-.64,1.19,1.19,0,0,1-.4-1.46,1.14,1.14,0,0,1,1.42-.62,9.53,9.53,0,0,0,5-.26,6.23,6.23,0,0,0,3.61-8.15c-.8-1.71-.7-1.91,1.2-2.26a5.17,5.17,0,0,1,1.11-.12c1.22,0,.76-.94.88-1.52S138.39,123.76,137.53,123.63ZM125,142.68a1.28,1.28,0,0,1,.68-.26c2.27.38,4.58,0,6.85.42,1.2.25,2.28.66,2.52,2a3.1,3.1,0,0,1-1.48,3.2,7.72,7.72,0,0,1-4.8,1.26,6.63,6.63,0,0,1-3.66-.84A3.31,3.31,0,0,1,125,142.68Zm7.46-9.89a2.53,2.53,0,0,1-.29.81c-.76,1.21-3.07,1.81-5,1.31a3.46,3.46,0,0,1-2.7-3.18c-.17-2.26,1.5-3.87,4-3.87C131.63,127.87,133.15,129.74,132.5,132.79Z"/><path class="cls-3" d="M188.59,119.86c.08-1.79.11-1.72-1.74-1.73-1.1,0-1.41.32-1.31,1.42a56.82,56.82,0,0,1,.2,7.31c-.31-.2-.5-.35-.7-.47-3.17-1.81-8.29-.57-10,2.61s-2.38,6.61-.64,10.21a6.41,6.41,0,0,0,6.12,3.88A7.35,7.35,0,0,0,186,141c.1.24.16.31.15.38-.14,1.75,1.13,1.21,2,1.19,1.16,0,.53-.94.51-1.39C188.27,134.09,188.28,127,188.59,119.86Zm-3.44,19.88c-2,1-4,1.35-6,.2a5.6,5.6,0,0,1-2.9-5c0-3.64,1.45-6,4.36-6.87a5.58,5.58,0,0,1,2.47-.12c2.18.33,2.59.81,2.74,3,.07,1.08.12,2.16.2,3.5,0,1.07-.06,2.4,0,3.73A1.5,1.5,0,0,1,185.15,139.74Z"/><path class="cls-3" d="M27.66,125.6c-3.36,0-5.31,2-6.77,4.68-3,5.5.53,11.87,5.88,12.62a17.72,17.72,0,0,0,5.09,0c2.42-.36,2.44-.38,2.42-3a18.37,18.37,0,0,1-5.37.68c-2.76-.12-5.53-2-6-4.82-.12-.71,0-.93.76-.93,3,0,6.08-.11,9.12-.17,2,0,2,0,2-2.1C34.72,128.3,31.91,125.58,27.66,125.6Zm3.26,6.82c-1.24,0-2.49,0-3.74,0v.19H23.55c-.35,0-.65,0-.55-.5.37-2.27,1.39-4,4.42-4.21a3.82,3.82,0,0,1,4.28,3.57C31.8,132.14,31.7,132.45,30.92,132.42Z"/><path class="cls-3" d="M367.41,131.57c.11-3.38-1.26-5.1-4.57-5.77a14.21,14.21,0,0,0-5.59.07c-2.66.5-2.39.07-2.49,3a18.38,18.38,0,0,1,6.26-.69c2.38.19,3.58,1.48,3.49,3.67,0,.55-.13.81-.76.82a27.17,27.17,0,0,0-3,.23c-2.09.27-4.08.7-5.58,2.41a4.54,4.54,0,0,0,.86,7.1c1.36.93,2.84.75,4.33.63s2.9-1.05,4.36-2c-.26,1.53.49,1.72,1.57,1.55a5,5,0,0,1,.87,0c.44,0,.55-.18.47-.62A50.43,50.43,0,0,1,367.41,131.57Zm-5.56,8.84a7,7,0,0,1-3.69-.08,2,2,0,0,1-1.17-3.24,4.92,4.92,0,0,1,3.59-2c.45-.08.91-.1,1.36-.16,2.5-.31,2.5-.31,2.54,2.14S364.17,139.87,361.85,140.41Z"/><path class="cls-3" d="M161.67,131.35c.07-3.24-1.35-4.93-4.54-5.55a17.24,17.24,0,0,0-5.46,0c-2.57.31-2.57.29-2.67,3,.49-.1.89-.16,1.29-.26a15.25,15.25,0,0,1,5.08-.38c2.32.19,3.55,1.6,3.41,3.74,0,.54-.2.71-.74.72-1,0-2.08.11-3.1.25-2.08.29-4.12.66-5.53,2.46-1.23,1.56-1.76,3.25-.86,5.1a4.56,4.56,0,0,0,4.3,2.68,9.22,9.22,0,0,0,6.25-2.24c-.53,2,.57,1.76,1.55,1.7l.75,0c.41,0,.6-.12.51-.6C161.3,138.42,161.6,134.89,161.67,131.35Zm-5.15,9a6.9,6.9,0,0,1-4.05,0,2.05,2.05,0,0,1-1.18-3.32,4.14,4.14,0,0,1,2.53-1.66,22.22,22.22,0,0,1,3.81-.51c.88-.07,1.21.22,1.11,1.08a10.26,10.26,0,0,0,0,1.24C158.8,139.42,158.67,139.63,156.52,140.3Z"/><path class="cls-3" d="M79,126.17c-4.88,2-6.56,6.47-5.34,11.27a7.52,7.52,0,0,0,5.52,5.41c5.11,1.5,11.21-3.13,10.66-8.78A7.86,7.86,0,0,0,79,126.17Zm5,14c-1.57,1.19-5.36.65-6.29-1.5-.61-1.42-1.43-2.7-1.23-4.29a7.43,7.43,0,0,1,1.62-5.13c1-1.47,4.24-1.9,5.72-.82C87.44,131,88.09,137.12,84,140.19Z"/><path class="cls-3" d="M333.9,131.44c.09-3.56-1.76-5.56-5.36-5.8a28.56,28.56,0,0,0-5.46.33c-1.42.16-2,.8-1.84,2.16a4.79,4.79,0,0,1,0,.63c1.26-.2,2.43-.43,3.62-.56a11.08,11.08,0,0,1,3.72.11,3,3,0,0,1,2.71,3.43c0,.61-.14.89-.83.89a23.4,23.4,0,0,0-3.23.24,9.24,9.24,0,0,0-5.13,2,4.75,4.75,0,0,0-1.39,5.31,4.6,4.6,0,0,0,4.43,2.87,8.85,8.85,0,0,0,6.16-2c.42.53-.1,1.33.66,1.45a8.37,8.37,0,0,0,1.87,0c.44,0,.38-.3.33-.62C333.55,138.43,333.82,134.93,333.9,131.44Zm-5.33,8.93a7,7,0,0,1-3.68,0,2,2,0,0,1-1.14-3.25,4.75,4.75,0,0,1,3.33-2,14.54,14.54,0,0,1,1.6-.19c2.49-.25,2.49-.25,2.54,2.17S330.92,139.86,328.57,140.37Z"/><path class="cls-3" d="M263.13,127.05a7.71,7.71,0,0,0-3.81,7.59c-.71,6.3,6,10.37,11.41,7.62,3.16-1.61,5.2-4.65,4.92-9.16A8,8,0,0,0,263.13,127.05Zm5.34,13.7a4.51,4.51,0,0,1-3.66-.75c-3.66-2.86-3.37-8.92,0-11.32a4.63,4.63,0,0,1,6.85,1.86,9.51,9.51,0,0,1,.89,4.11C272.51,137.61,271,140.35,268.47,140.75Z"/><path class="cls-3" d="M206.14,131.25c0-3.34-1.26-5.07-4.64-5.53a17.19,17.19,0,0,0-5.59.18c-2.62.51-2.19,0-2.43,2.65,0,.07.07.14.12.24,2.44-.51,4.89-1,7.39-.44a3,3,0,0,1,2.53,3.08c.06.9-.17,1.21-1.14,1.22a15,15,0,0,0-6.67,1.3c-2.41,1.17-3.36,3.41-2.73,6.17.4,1.73,2.42,3,4.83,3a9.11,9.11,0,0,0,5.71-2c.48.44-.15,1.35.74,1.44a11.28,11.28,0,0,0,1.74-.05c.38,0,.48-.19.41-.57C205.8,138.4,206.19,134.82,206.14,131.25ZM203.49,136a3.76,3.76,0,0,0,0,.76c.06,2.61-.3,3.07-2.56,3.57a7.15,7.15,0,0,1-3.56,0,2.09,2.09,0,0,1-1.2-3.54,5,5,0,0,1,3.22-1.7c.93-.19,1.9-.16,2.85-.28S203.64,135,203.49,136Z"/><path class="cls-3" d="M113.74,126.51c-2.7-1.59-5.6-1.18-8.28.48-3.58,2.22-4.11,5.65-3.81,9.45.4,5.17,5.84,7.16,9.31,6.56,3.17-.56,7.16-4.46,7-8.58C118,130.45,116.7,128.26,113.74,126.51Zm.34,11.49a4.65,4.65,0,0,1-7.89,1.13c-1.33-1.62-1.71-2.68-1.72-5.2a6.32,6.32,0,0,1,1.66-4.4,4.44,4.44,0,0,1,4.59-1.54,4.62,4.62,0,0,1,3.56,3.45A9.27,9.27,0,0,1,114.08,138Z"/><path class="cls-3" d="M382.05,125.85c-5.42-1.26-10.16,2.68-10.53,8.54-.25,3.93,2.61,7.77,5.88,8.49a8.53,8.53,0,0,0,10.49-8.47C388.1,130,385.84,126.73,382.05,125.85Zm-1.2,14.85a4.37,4.37,0,0,1-3.89-.8c-3.41-2.64-3.27-8.5-.25-11,2.57-2.11,6.4-.91,7.71,2.44a8.36,8.36,0,0,1,.59,3.28C385,137.61,383.31,140.08,380.85,140.7Z"/></g></g></svg>