<svg width="417" height="173" viewBox="0 0 417 173" fill="none" xmlns="http://www.w3.org/2000/svg">
<path d="M112.8 25.4C106.7 25.4 101.6 27.7 97.4 32.3C93.1 27.7 88.1 25.4 82.2 25.4C78.7 25.4 75.3 26.3 72.2 28H72.1C64.4 33.3 61.1 41.4 62.1 52.4L62 76H72.1V45.4C72.1 44.3 72.4 43 73 41.3C75.3 37.4 78.4 35.4 82.1 35.4C83.5 35.4 84.9 35.7 86.6 36.3C90.5 38.6 92.4 41.6 92.4 45.3V76H102.5V46.9C102.5 44.9 102.8 43.2 103.3 41.8C105.5 37.6 108.6 35.5 112.7 35.5C113.5 35.5 114.5 35.6 115.8 35.9C120.5 37.9 122.8 41.2 122.8 45.9V76H132.9V45.9C132.9 40.6 131.1 35.9 127.6 31.9C123.3 27.6 118.4 25.4 112.8 25.4Z" fill="white"/>
<path d="M216.3 1.1C214.3 1.9 212.4 2.9 210.5 4.3C205.8 8.8 203.4 14.2 203.4 20.7V25.3H190.2V25.4H187.7H182.2H177.6V30.4H177.5C172.9 27.1 167.9 25.4 162.5 25.4C157.3 25.4 152.5 26.9 148 29.9C140.8 35.4 137.1 42.3 137.1 50.7C137.1 56.1 138.8 61.2 142.2 66C147.7 72.6 154.3 75.9 161.9 75.9H163.2C168.1 75.9 172.9 74.2 177.6 70.9V75.9H187.7V35.4H197.9H203.4V75.9H213.5V35.4H224.7V25.3H213.5V20.7C213.5 19.1 213.9 17.4 214.6 15.5C216 11.9 219.3 10.1 224.5 10.1H225.1V0H224.5C221.5 0 218.7 0.3 216.3 1.1ZM177.7 51.2C177.7 53.9 176.8 56.7 174.9 59.5C171.5 63.8 167.5 65.9 162.9 65.9H162.3C159.9 65.9 157.6 65.3 155.3 64.1C149.9 60.8 147.2 56.3 147.2 50.6C147.2 47.6 148.2 44.7 150.1 41.8C153.4 37.5 157.5 35.4 162.4 35.4C165 35.4 167.6 36.1 170.1 37.5C175.1 40.8 177.6 45.2 177.6 50.4V51.2H177.7Z" fill="white"/>
<path d="M239.8 31.1C233.7 35.9 230.3 42.4 229.7 50.6V75.9H239.8V51.1C239.8 49.4 240.2 47.6 241 45.6C243.9 38.8 250.3 35.4 260 35.4V25.3C252 25.3 245.3 27.2 239.9 31.1H239.8V31.1Z" fill="white"/>
<path d="M285.9 25.3C279.7 25.3 274.2 27.3 269.4 31.3C263.4 36.7 260.4 43.2 260.4 50.7C260.4 56.6 262.4 62 266.4 67C271.7 73 278.2 76 285.7 76H285.9C292.6 76 298.5 73.6 303.6 68.7V68.6L296.6 61.6C293.4 64.5 289.8 66 285.8 66C283.4 66 281.2 65.5 279 64.4C275.3 62.4 272.8 59.6 271.6 55.8H310.7C311 54.3 311.2 52.6 311.2 50.7C311.2 44.8 309.2 39.4 305.2 34.4C299.8 28.3 293.4 25.3 285.9 25.3ZM271.5 45.6L272.5 43.1C275.9 37.9 280.3 35.4 285.7 35.4C288.1 35.4 290.7 36 293.2 37.3C296.6 39.5 298.9 42.2 300 45.6H271.5V45.6Z" fill="white"/>
<path d="M411 45.9C405.6 39.4 398.9 36.2 391 36.2C385.7 36.2 380.7 37.9 376 41.2H375.8V32.4V25.4H332.2C326.4 25.4 322.2 27 319.6 30.1C316.9 33.4 315.6 36.9 315.6 40.7C315.6 44.9 317 48.5 319.7 51.3C323 54.2 326.5 55.7 330.3 55.7H344.9C349 55.7 351.1 57.4 351.1 60.8L350.8 62.9C350 64.9 348.4 65.9 346 65.9H315.8V76H346.6C348.6 76 350.7 75.5 352.9 74.4C358.4 71.6 361.2 67.1 361.2 60.9C361.2 59 360.9 57 360.2 55C357.7 48.7 352.3 45.6 344.2 45.6H330.7L328.8 45.3C326.7 44.5 325.7 43 325.7 40.8C325.7 39.5 326.2 38.2 327.1 36.8C327.8 35.9 329.5 35.5 332.2 35.5H365.8V117.3H375.9V81.9H376.1C380.7 85.2 385.4 86.8 390.2 86.8H392.2C397.7 86.8 402.9 84.7 408 80.5C413.6 75.1 416.4 69 416.4 62.3V60.7C416.3 55.6 414.6 50.7 411 45.9ZM406.3 61.7C406.3 64.8 405.3 67.8 403.3 70.7C399.8 74.7 396 76.7 391.8 76.7H390.5C388.5 76.7 386.3 76.1 383.8 74.9C378.5 71.6 375.8 67.1 375.8 61.4C375.8 58.4 376.8 55.5 378.7 52.6C382.1 48.3 386.2 46.2 391.1 46.2C394 46.2 396.9 47.1 399.7 49C404.1 52.3 406.2 56.4 406.2 61.3V61.7H406.3Z" fill="white"/>
<path d="M46 0.599998C42.2 0.599998 41.3 2.7 39.6 6L4 76.1H15.5L46.1 16.2L46.2 76.1H57L56.5 0.599998H46V0.599998Z" fill="white"/>
<path d="M304.3 172.6C284.8 172.6 266.3 165.2 252.2 151.6C237.7 137.7 229.5 118.9 229.1 98.9C229.1 97.9 229.1 96.8 229.1 94.4H3.60001C1.90001 94.4 0.600006 93.1 0.600006 91.4C0.600006 89.7 1.90001 88.4 3.60001 88.4H235.3V91.4C235.3 96.3 235.2 97.5 235.3 98.7C235.7 117.2 243.2 134.4 256.5 147.2C269.8 160 287.4 166.9 305.8 166.5C331.4 166 354.6 151.5 366.2 128.6C367 127.1 368.8 126.5 370.2 127.3C371.7 128.1 372.3 129.9 371.5 131.3C358.9 156.1 333.7 171.9 305.9 172.5C305.3 172.6 304.8 172.6 304.3 172.6Z" fill="white"/>
<path d="M284.8 118.2C284.8 118.2 294.3 116.5 292.8 102.3C291.7 94.7 289.3 92.6 284.6 90.9C280.5 89.4 269.5 89.6 264.4 89.8C258.9 90 258.9 96.4 258.9 96.4V131.8C258.9 131.8 259.2 137.5 265.2 137.5C271.6 137.5 271.6 132.1 271.6 132.1V120.2H272.8L280.7 134.9C280.7 134.9 283 137.8 287.6 137.1C293.5 136.3 294 133.1 294 133.1L284.8 118.2ZM279.7 110.1C279.1 112.6 276 112.8 276 112.8H271.5V99.7C271.5 99.7 274.1 99.7 275.8 99.7C277.5 99.7 278.3 100.4 279.3 101.8C280.4 103.6 280.2 107.6 279.7 110.1Z" fill="white"/>
<path d="M318.8 107.7V95C318.8 95 319 89.4 312.4 89.4C305.6 89.4 305.9 95.9 305.9 95.9V131.8C305.9 131.8 305.9 137.9 312.4 137.6C318.8 137.4 318.9 132.6 318.9 132.6V119.2H328.5V132C328.5 132 328.6 137.7 334.5 137.6C338.1 137.6 339.3 136.6 340.3 135.2C341.1 134.1 341.4 132.6 341.4 131.3V95.4C341.4 95.4 341.4 89.4 335.2 89.4C328.1 89.4 328.5 95.2 328.5 95.2V107.7H318.8Z" fill="white"/>
</svg>
