<svg width="236" height="235" viewBox="0 0 236 235" fill="none" xmlns="http://www.w3.org/2000/svg">
<g filter="url(#filter0_d)">
<circle cx="118.146" cy="113.525" r="66.2292" stroke="white" stroke-width="27"/>
<path d="M100.646 10.2921C100.646 4.76923 105.123 0.292068 110.646 0.292068H125.646C131.169 0.292068 135.646 4.76922 135.646 10.2921V42.2762H100.646V10.2921Z" fill="white"/>
<path d="M135.646 216.757C135.646 222.28 131.169 226.757 125.646 226.757H110.646C105.123 226.757 100.646 222.28 100.646 216.757V184.773H135.646V216.757Z" fill="white"/>
<path d="M221.379 96.0248C226.902 96.0248 231.379 100.502 231.379 106.025L231.379 121.025C231.379 126.548 226.902 131.025 221.379 131.025L189.395 131.025L189.395 96.0248L221.379 96.0248Z" fill="white"/>
<path d="M14.9136 131.025C9.39073 131.025 4.91357 126.548 4.91357 121.025L4.91358 106.025C4.91358 100.502 9.39073 96.0247 14.9136 96.0248L46.8977 96.0248L46.8977 131.025L14.9136 131.025Z" fill="white"/>
<path d="M203.517 174.147C207.422 178.052 207.422 184.384 203.517 188.289L192.911 198.896C189.005 202.801 182.674 202.801 178.768 198.896L156.152 176.279L180.901 151.531L203.517 174.147Z" fill="white"/>
<path d="M32.7754 52.9026C28.8702 48.9974 28.8702 42.6657 32.7754 38.7605L43.382 28.1539C47.2873 24.2486 53.6189 24.2486 57.5242 28.1539L80.1404 50.7701L55.3916 75.5188L32.7754 52.9026Z" fill="white"/>
<path d="M57.5241 198.896C53.6188 202.801 47.2872 202.801 43.3819 198.896L32.7753 188.289C28.8701 184.384 28.8701 178.052 32.7753 174.147L55.3915 151.531L80.1403 176.279L57.5241 198.896Z" fill="white"/>
<path d="M178.768 28.1539C182.674 24.2486 189.005 24.2486 192.911 28.1538L203.517 38.7604C207.422 42.6657 207.422 48.9973 203.517 52.9026L180.901 75.5188L156.152 50.7701L178.768 28.1539Z" fill="white"/>
</g>
<defs>
<filter id="filter0_d" x="0.913574" y="0.292068" width="234.465" height="234.465" filterUnits="userSpaceOnUse" color-interpolation-filters="sRGB">
<feFlood flood-opacity="0" result="BackgroundImageFix"/>
<feColorMatrix in="SourceAlpha" type="matrix" values="0 0 0 0 0 0 0 0 0 0 0 0 0 0 0 0 0 0 127 0"/>
<feOffset dy="4"/>
<feGaussianBlur stdDeviation="2"/>
<feColorMatrix type="matrix" values="0 0 0 0 0 0 0 0 0 0 0 0 0 0 0 0 0 0 0.25 0"/>
<feBlend mode="normal" in2="BackgroundImageFix" result="effect1_dropShadow"/>
<feBlend mode="normal" in="SourceGraphic" in2="effect1_dropShadow" result="shape"/>
</filter>
</defs>
</svg>
