<svg width="91" height="91" viewBox="0 0 91 91" fill="none" xmlns="http://www.w3.org/2000/svg">
<path d="M14.1505 25.389C14.9881 25.389 15.6672 24.71 15.6672 23.8724C15.6672 23.0347 14.9881 22.3557 14.1505 22.3557C13.3129 22.3557 12.6339 23.0347 12.6339 23.8724C12.6339 24.71 13.3129 25.389 14.1505 25.389Z" fill="#737373"/>
<path d="M24.2667 25.389C25.1043 25.389 25.7833 24.71 25.7833 23.8724C25.7833 23.0347 25.1043 22.3557 24.2667 22.3557C23.429 22.3557 22.75 23.0347 22.75 23.8724C22.75 24.71 23.429 25.389 24.2667 25.389Z" fill="#737373"/>
<path d="M19.2161 25.389C20.0538 25.389 20.7328 24.71 20.7328 23.8724C20.7328 23.0347 20.0538 22.3557 19.2161 22.3557C18.3785 22.3557 17.6995 23.0347 17.6995 23.8724C17.6995 24.71 18.3785 25.389 19.2161 25.389Z" fill="#737373"/>
<path d="M30.3334 45.8792L34.8834 41.3292C35.169 41.0436 35.3294 40.6563 35.3294 40.2524C35.3294 39.8485 35.169 39.4611 34.8834 39.1755C34.5978 38.8899 34.2104 38.7295 33.8065 38.7295C33.4026 38.7295 33.0153 38.8899 32.7297 39.1755L27.0877 44.8327C26.8052 45.1169 26.6467 45.5013 26.6467 45.9019C26.6467 46.3026 26.8052 46.687 27.0877 46.9712L32.7297 52.6284C32.8707 52.7705 33.0384 52.8834 33.2233 52.9604C33.4081 53.0374 33.6063 53.077 33.8065 53.077C34.0068 53.077 34.205 53.0374 34.3898 52.9604C34.5746 52.8834 34.7424 52.7705 34.8834 52.6284C35.1658 52.3442 35.3244 51.9598 35.3244 51.5591C35.3244 51.1584 35.1658 50.774 34.8834 50.4899L30.3334 45.8792Z" fill="#737373"/>
<path d="M52.052 52.598C52.3361 52.8804 52.7205 53.039 53.1212 53.039C53.5219 53.039 53.9063 52.8804 54.1905 52.598L59.8476 47.0166C60.1301 46.7325 60.2887 46.3481 60.2887 45.9474C60.2887 45.5467 60.1301 45.1623 59.8476 44.8781L54.1905 39.221C53.9049 38.9374 53.5183 38.7789 53.1159 38.7803C52.7134 38.7817 52.328 38.9429 52.0444 39.2285C51.7608 39.5141 51.6023 39.9007 51.6037 40.3032C51.6051 40.7056 51.7664 41.091 52.052 41.3746L56.602 45.9246L52.052 50.4746C51.7741 50.7581 51.6184 51.1393 51.6184 51.5363C51.6184 51.9333 51.7741 52.3145 52.052 52.598V52.598Z" fill="#737373"/>
<path d="M47.0167 39.6609C46.8436 39.5606 46.6524 39.4955 46.454 39.4695C46.2557 39.4434 46.0541 39.4568 45.861 39.509C45.6679 39.5612 45.487 39.651 45.3287 39.7734C45.1705 39.8958 45.038 40.0482 44.9389 40.222L39.3424 50.05C39.2326 50.2226 39.159 50.4157 39.1258 50.6175C39.0926 50.8194 39.1005 51.0258 39.1492 51.2245C39.1979 51.4232 39.2862 51.61 39.4089 51.7736C39.5317 51.9373 39.6862 52.0744 39.8633 52.1768C40.0404 52.2791 40.2364 52.3446 40.4394 52.3693C40.6425 52.3939 40.8484 52.3773 41.0449 52.3203C41.2413 52.2633 41.4242 52.1672 41.5826 52.0376C41.7409 51.9081 41.8714 51.7479 41.9662 51.5667L47.6234 41.7842C47.7292 41.6065 47.7976 41.409 47.8243 41.2039C47.851 40.9988 47.8354 40.7904 47.7786 40.5915C47.7218 40.3926 47.6249 40.2075 47.4938 40.0474C47.3628 39.8874 47.2005 39.7558 47.0167 39.6609V39.6609Z" fill="#737373"/>
<path d="M84.721 60.6667C84.6315 60.666 84.5444 60.638 84.4712 60.5865C84.3981 60.5351 84.3423 60.4625 84.3115 60.3785C83.708 58.7909 82.8527 57.3109 81.7786 55.9953C81.7278 55.9218 81.7005 55.8345 81.7005 55.7451C81.7005 55.6557 81.7278 55.5684 81.7786 55.4948C82.2406 54.6942 82.3659 53.743 82.127 52.8501C81.8881 51.9571 81.3046 51.1955 80.5046 50.7325L79.3671 50.05V22.3557C79.3671 21.1489 78.8878 19.9916 78.0345 19.1383C77.1812 18.285 76.0239 17.8057 74.8171 17.8057H12.1333C10.9266 17.8057 9.76927 18.285 8.91598 19.1383C8.06269 19.9916 7.58331 21.1489 7.58331 22.3557V60.788C7.5873 61.724 7.9609 62.6205 8.62276 63.2824C9.28462 63.9442 10.1811 64.3178 11.1171 64.3218H31.85L30.3333 69.9335H28.3161C26.8389 69.9345 25.4052 70.4335 24.2465 71.35C23.0879 72.2664 22.2721 73.5467 21.931 74.984H18.2C17.7977 74.984 17.412 75.1438 17.1275 75.4282C16.8431 75.7126 16.6833 76.0984 16.6833 76.5007C16.6833 76.9029 16.8431 77.2887 17.1275 77.5731C17.412 77.8575 17.7977 78.0173 18.2 78.0173H56.8295C56.8038 78.3797 56.8397 78.7438 56.9356 79.0942C57.0494 79.5391 57.2517 79.9564 57.5306 80.3213C57.8094 80.6861 58.159 80.991 58.5585 81.2175L61.7586 83.0678C62.156 83.2959 62.5944 83.4435 63.0487 83.5022C63.5031 83.5608 63.9646 83.5294 64.4068 83.4097C64.8491 83.29 65.2634 83.0843 65.6262 82.8045C65.9889 82.5246 66.293 82.176 66.521 81.7787C66.5701 81.7013 66.6408 81.64 66.7243 81.6022C66.8079 81.5645 66.9006 81.552 66.9911 81.5663C68.6572 81.8545 70.3604 81.8545 72.0265 81.5663C72.1187 81.5514 72.2133 81.5652 72.2975 81.6059C72.3816 81.6466 72.4511 81.7122 72.4966 81.7938C72.8058 82.3231 73.2489 82.7616 73.7814 83.0651C74.3139 83.3687 74.917 83.5265 75.53 83.5228C76.1415 83.5287 76.7435 83.3717 77.2741 83.0678L80.4743 81.2175C80.8716 80.9883 81.2196 80.6826 81.4981 80.3182C81.7767 79.9537 81.9803 79.5377 82.0971 79.0942C82.2179 78.6533 82.2493 78.1926 82.1894 77.7394C82.1295 77.2862 81.9795 76.8495 81.7483 76.4552C81.6961 76.3793 81.6682 76.2894 81.6682 76.1973C81.6682 76.1053 81.6961 76.0154 81.7483 75.9395C82.8191 74.6272 83.6741 73.1527 84.2811 71.5715C84.3101 71.4863 84.3653 71.4124 84.4389 71.3606C84.5125 71.3088 84.6007 71.2818 84.6906 71.2833C85.6146 71.2793 86.4995 70.9105 87.1529 70.2572C87.8062 69.6039 88.175 68.7189 88.179 67.795V64.0943C88.1632 63.1849 87.7929 62.3177 87.1469 61.6774C86.5009 61.0371 85.6305 60.6744 84.721 60.6667V60.6667ZM10.6166 22.3557C10.6166 21.9534 10.7764 21.5676 11.0609 21.2832C11.3453 20.9988 11.7311 20.839 12.1333 20.839H74.8171C75.2194 20.839 75.6052 20.9988 75.8896 21.2832C76.174 21.5676 76.3338 21.9534 76.3338 22.3557V26.9057H10.6166V22.3557ZM11.1171 61.2885C11.0514 61.2885 10.9863 61.2755 10.9256 61.2504C10.8649 61.2252 10.8097 61.1884 10.7632 61.1419C10.7168 61.0954 10.6799 61.0403 10.6547 60.9795C10.6296 60.9188 10.6166 60.8537 10.6166 60.788V29.939H76.3338V48.5333C75.6161 48.3427 74.8562 48.3872 74.1656 48.6601C73.475 48.9331 72.8901 49.4202 72.4966 50.05V50.05C72.4494 50.1248 72.3808 50.1836 72.2996 50.2188C72.2184 50.254 72.1285 50.2639 72.0416 50.2472C70.3743 49.9741 68.6736 49.9741 67.0063 50.2472C66.9194 50.2661 66.8287 50.2573 66.747 50.2219C66.6654 50.1865 66.5969 50.1264 66.5513 50.05V50.05C66.3235 49.6524 66.0192 49.3038 65.6561 49.0243C65.2929 48.7448 64.8781 48.54 64.4354 48.4216C63.9927 48.3031 63.531 48.2735 63.0768 48.3343C62.6226 48.3951 62.1849 48.5453 61.789 48.776L58.5888 50.6263C58.1904 50.8505 57.8413 51.1527 57.5625 51.5149C57.2836 51.8772 57.0807 52.292 56.966 52.7345C56.7234 53.6286 56.8433 54.5824 57.2996 55.3887C57.355 55.4603 57.385 55.5484 57.385 55.6389C57.385 55.7295 57.355 55.8175 57.2996 55.8892C56.2255 57.2048 55.3703 58.6848 54.7668 60.2723C54.736 60.3563 54.6802 60.4289 54.6071 60.4804C54.5339 60.5319 54.4468 60.5598 54.3573 60.5605C53.6145 60.5616 52.8915 60.8008 52.2946 61.243L11.1171 61.2885ZM51.5666 69.9335H33.3666L34.8833 64.3218H50.8083V67.795C50.818 68.572 51.0847 69.324 51.5666 69.9335V69.9335ZM28.3313 72.9668H55.328C55.6746 73.6661 56.0699 74.3401 56.511 74.984H25.1311C25.4175 74.3814 25.8685 73.8722 26.4322 73.5152C26.9958 73.1582 27.649 72.9681 28.3161 72.9668H28.3313ZM85.176 67.795C85.176 67.9157 85.128 68.0314 85.0427 68.1167C84.9574 68.2021 84.8417 68.25 84.721 68.25C84.0145 68.2518 83.3251 68.467 82.7431 68.8676C82.1612 69.2682 81.714 69.8354 81.4601 70.4947C80.9753 71.7734 80.2892 72.9664 79.4278 74.0285C78.9836 74.5772 78.7155 75.2472 78.6587 75.9509C78.6019 76.6546 78.7589 77.359 79.1093 77.9718C79.1337 78.0241 79.1463 78.081 79.1463 78.1387C79.1463 78.1963 79.1337 78.2533 79.1093 78.3055C79.0961 78.3657 79.0704 78.4225 79.0338 78.4722C78.9972 78.5218 78.9506 78.5632 78.897 78.5937L75.7423 80.3833C75.6896 80.4126 75.6316 80.4312 75.5717 80.4379C75.5118 80.4446 75.4512 80.4393 75.3933 80.4224C75.3355 80.4054 75.2816 80.3772 75.2347 80.3392C75.1879 80.3013 75.149 80.2544 75.1205 80.2013C74.7619 79.5901 74.2264 79.102 73.5846 78.8014C72.9429 78.5009 72.2251 78.402 71.526 78.5178C70.1908 78.7453 68.8268 78.7453 67.4916 78.5178C66.7909 78.4034 66.072 78.5046 65.4301 78.8079C64.7882 79.1113 64.2536 79.6025 63.8971 80.2165C63.8342 80.3182 63.7348 80.392 63.6193 80.423C63.5037 80.454 63.3807 80.4398 63.2753 80.3833L60.0751 78.533C60.0215 78.5025 59.9749 78.4611 59.9383 78.4115C59.9018 78.3618 59.876 78.3051 59.8628 78.2448C59.8384 78.1926 59.8258 78.1356 59.8258 78.078C59.8258 78.0203 59.8384 77.9634 59.8628 77.9112C60.2091 77.2971 60.3638 76.5935 60.3071 75.8907C60.2503 75.188 59.9847 74.5184 59.5443 73.9678C58.6751 72.9084 57.9836 71.715 57.4968 70.434C57.2424 69.792 56.8017 69.241 56.2313 68.8517C55.661 68.4625 54.9871 68.2529 54.2966 68.25C54.176 68.25 54.0602 68.2021 53.9749 68.1167C53.8896 68.0314 53.8416 67.9157 53.8416 67.795V64.0943C53.8395 64.034 53.8498 63.9739 53.872 63.9177C53.8941 63.8616 53.9275 63.8106 53.9702 63.7679C54.0129 63.7252 54.0639 63.6918 54.1201 63.6696C54.1762 63.6475 54.2363 63.6372 54.2966 63.6393C55.001 63.6366 55.6881 63.4207 56.2674 63.0201C56.8467 62.6194 57.2912 62.0528 57.5423 61.3947C58.0257 60.1121 58.7175 58.9181 59.5898 57.8608C60.0302 57.3103 60.2958 56.6406 60.3526 55.9379C60.4094 55.2352 60.2546 54.5316 59.9083 53.9175C59.8836 53.8627 59.8708 53.8032 59.8708 53.7431C59.8708 53.6829 59.8836 53.6235 59.9083 53.5687C59.9206 53.51 59.9462 53.4549 59.983 53.4076C60.0197 53.3603 60.0668 53.322 60.1206 53.2957L63.3208 51.4453C63.3952 51.4246 63.4739 51.4246 63.5483 51.4453C63.6242 51.4463 63.6987 51.4662 63.7649 51.5033C63.8311 51.5404 63.887 51.5935 63.9275 51.6577V51.6577C64.2855 52.2702 64.8204 52.7602 65.4618 53.0633C66.1033 53.3664 66.8214 53.4686 67.522 53.3563C68.8571 53.1289 70.2212 53.1289 71.5563 53.3563C72.2615 53.4516 72.9791 53.3317 73.615 53.0123C74.2509 52.693 74.7757 52.1891 75.1205 51.5667V51.5667C75.1501 51.5166 75.1894 51.473 75.236 51.4382C75.2827 51.4035 75.3357 51.3783 75.3922 51.3642C75.4486 51.3501 75.5072 51.3474 75.5647 51.3561C75.6222 51.3648 75.6774 51.3848 75.7271 51.415L78.9273 53.2653C78.9811 53.2917 79.0282 53.33 79.065 53.3773C79.1018 53.4246 79.1273 53.4797 79.1396 53.5383C79.1643 53.5932 79.1771 53.6526 79.1771 53.7127C79.1771 53.7729 79.1643 53.8323 79.1396 53.8872C78.7906 54.4977 78.6342 55.1995 78.691 55.9005C78.7478 56.6015 79.0153 57.269 79.4581 57.8153C80.3199 58.8828 81.006 60.0808 81.4905 61.3643C81.7296 62.0347 82.1663 62.6168 82.7431 63.0338C83.3198 63.4508 84.0095 63.6831 84.721 63.7C84.7813 63.6979 84.8414 63.7082 84.8976 63.7303C84.9537 63.7524 85.0047 63.7859 85.0474 63.8285C85.0901 63.8712 85.1235 63.9222 85.1457 63.9784C85.1678 64.0346 85.1781 64.0947 85.176 64.155V67.795Z" fill="#737373"/>
<path d="M69.5088 59.0588C68.1469 59.0588 66.8157 59.4627 65.6833 60.2193C64.551 60.9759 63.6684 62.0513 63.1472 63.3095C62.6261 64.5677 62.4897 65.9521 62.7554 67.2878C63.0211 68.6235 63.6769 69.8504 64.6399 70.8134C65.6029 71.7764 66.8298 72.4322 68.1655 72.6979C69.5011 72.9636 70.8856 72.8272 72.1438 72.306C73.402 71.7849 74.4774 70.9023 75.234 69.77C75.9906 68.6376 76.3944 67.3064 76.3944 65.9445C76.3944 64.1183 75.669 62.3669 74.3777 61.0756C73.0864 59.7843 71.335 59.0588 69.5088 59.0588ZM69.5088 69.7968C68.7469 69.7968 68.002 69.5709 67.3685 69.1476C66.735 68.7243 66.2413 68.1227 65.9497 67.4187C65.6581 66.7148 65.5818 65.9402 65.7305 65.193C65.8791 64.4457 66.246 63.7593 66.7848 63.2205C67.3235 62.6817 68.0099 62.3148 68.7572 62.1662C69.5045 62.0175 70.2791 62.0938 70.983 62.3854C71.6869 62.677 72.2886 63.1708 72.7119 63.8043C73.1352 64.4378 73.3611 65.1826 73.3611 65.9445C73.3531 66.9609 72.9437 67.933 72.2221 68.6489C71.5005 69.3648 70.5252 69.7665 69.5088 69.7665V69.7968Z" fill="#737373"/>
</svg>
