<svg xmlns="http://www.w3.org/2000/svg" viewBox="0 0 159.98 362.71"><defs><style>.cls-1{fill:#ccc;}.cls-2{fill:#fff;}.cls-3{fill:#f3a080;}.cls-4{fill:#ea7c6f;}.cls-5{fill:#845652;}.cls-6{fill:#683534;}.cls-7{fill:#a897a5;}.cls-8{fill:#bcacb8;}.cls-9{fill:#d1c5cf;}.cls-10{fill:#8bccca;}.cls-11{fill:#edc88d;}.cls-12{fill:#f8bf92;}.cls-13{fill:#b54b57;}.cls-14{fill:#1d1e1e;}.cls-15{fill:#dd5b67;}.cls-16{fill:#ffdda0;}.cls-17{fill:#feeaaf;}.cls-18{fill:#6baaa7;}.cls-19{fill:#e0e0e0;}.cls-20{fill:#895652;}.cls-21{fill:#434356;}.cls-22{fill:#ffb600;}</style></defs><g id="Layer_2" data-name="Layer 2"><g id="Object"><path class="cls-1" d="M160,353.36a352.45,352.45,0,0,1-80,9.35,352.45,352.45,0,0,1-80-9.35A352.09,352.09,0,0,1,80,344,352.09,352.09,0,0,1,160,353.36Z"/><path class="cls-2" d="M59.42,67.23s-7,1.66-9.84,6.2c-1.83,2.94-14.13,41.93-14.13,41.93l20.49,2.39,6.55-35.63Z"/><polygon class="cls-3" points="115.67 319.67 112.86 321.43 103.31 327.4 97.67 319.37 95.4 316.14 89.89 308.32 98.93 304.03 104.77 301.25 108.35 307.29 110.58 311.07 115.67 319.67"/><path class="cls-4" d="M115.67,319.67l-2.81,1.76c-3-3.87-9.2-11.57-13.93-17.4l5.84-2.78,3.58,6,2.23,3.78Z"/><path class="cls-5" d="M82.86,352a2.81,2.81,0,0,1,.49-2.72c2.24-2.54,10.77-11.13,12.54-14.62,1.38-2.71,1.57-7.32,1.59-9.25l19.63-7.78c3.39,4.47,8.52,13.72,9.59,15.66Z"/><rect class="cls-6" x="81.89" y="342.43" width="47.66" height="4.78" transform="translate(338.3 620.48) rotate(156.89)"/><path class="cls-6" d="M100.11,334.3l.15.12c.38.29.77.82.36,1.27a1.5,1.5,0,0,1-.82.39,9.92,9.92,0,0,1-3.17.07,7.5,7.5,0,0,1-3.32-.91c-1-.67-.54-1.89.59-2.12A8.53,8.53,0,0,1,100.11,334.3Z"/><path class="cls-6" d="M97.82,338.06l.16.12c.38.29.77.82.36,1.27a1.49,1.49,0,0,1-.83.39,9.63,9.63,0,0,1-3.17.07A7.53,7.53,0,0,1,91,339c-1-.66-.54-1.89.6-2.12A8.51,8.51,0,0,1,97.82,338.06Z"/><path class="cls-6" d="M94.43,341.35l.15.11c.38.3.77.83.36,1.28a1.53,1.53,0,0,1-.83.39,9.85,9.85,0,0,1-3.16.07,7.45,7.45,0,0,1-3.33-.92c-1-.66-.53-1.88.6-2.11A8.53,8.53,0,0,1,94.43,341.35Z"/><path class="cls-7" d="M51.68,169.7l34.23-3L76.6,252.24,107,299.18,86.53,313.26c-14.44-17-42.44-49.84-46.45-54.26C37.24,255.87,47.93,195,51.68,169.7Z"/><polygon class="cls-8" points="80.98 309.22 104.87 292.39 109.86 301.25 86.27 316.4 80.98 309.22"/><polygon class="cls-3" points="77.82 307.71 74.38 334.29 70.18 334.05 59.83 333.45 59.91 302.63 76.24 307.26 77.82 307.71"/><polygon class="cls-4" points="77.82 307.71 74.38 334.29 70.18 334.05 70.92 308.19 76.24 307.26 77.82 307.71"/><path class="cls-5" d="M31.23,349.66a2.8,2.8,0,0,1,1.58-2.27c3.09-1.37,14.42-5.62,17.49-8.06,2.39-1.88,4.48-6,5.3-7.75l21.09,1.12c1.22,5.48,2,16,2.18,18.24Z"/><rect class="cls-6" x="31.15" y="350.29" width="47.66" height="4.78" transform="translate(100.47 706.72) rotate(-178.46)"/><path class="cls-6" d="M54.28,340.78l.09.17c.22.43.36,1.07-.2,1.31a1.52,1.52,0,0,1-.92,0,9.61,9.61,0,0,1-2.9-1.26,7.49,7.49,0,0,1-2.65-2.22c-.64-1,.3-1.93,1.43-1.67A8.54,8.54,0,0,1,54.28,340.78Z"/><path class="cls-6" d="M50.63,343.25l.09.17c.22.42.36,1.07-.2,1.31a1.52,1.52,0,0,1-.92,0,9.69,9.69,0,0,1-2.9-1.25,7.47,7.47,0,0,1-2.64-2.22c-.65-1,.3-1.94,1.42-1.67A8.48,8.48,0,0,1,50.63,343.25Z"/><path class="cls-6" d="M46.18,344.82l.09.17c.22.42.35,1.07-.21,1.31a1.49,1.49,0,0,1-.91,0,9.75,9.75,0,0,1-2.91-1.25,7.47,7.47,0,0,1-2.64-2.22c-.64-1,.3-1.94,1.43-1.67A8.5,8.5,0,0,1,46.18,344.82Z"/><path class="cls-8" d="M56.72,232.48c.58-3.25,5.93-44.55,8.69-66.41l42.15-5.15c1,5.93,1.93,12.11,2.3,17.14-4.16,13.94-22,61.22-22,61.22l-7.72,69.94-23.76-2.43C56,281.67,55.5,239.49,56.72,232.48Z"/><path class="cls-7" d="M79.76,240.2s16.75-50.54,17.67-53.8c.67-2.39.44-16.74.28-24.28l9.85-1.2c1,5.93,1.93,12.11,2.3,17.14-4.16,13.94-22,61.22-22,61.22l-7.72,69.94-6.41-.66Z"/><polygon class="cls-9" points="52.45 301.25 52.45 309.22 82.71 313.26 82.9 303.88 52.45 301.25"/><path class="cls-10" d="M49.14,106.78c1.1,7.66,6.8,15,6.8,15L51.68,169.7s46-.2,56.82-3L98.36,104.52,102.56,68,91.34,65.34l-4.08-2.76L72.72,63.93,64.5,66.51S48,99.12,49.14,106.78Z"/><path class="cls-11" d="M48,58.81h55.31a93.93,93.93,0,0,0,.81-30.34,20.17,20.17,0,0,0-2.43-8.06c-1.51-2.4-4.16-4.26-7-4.05-1.82-5.76-7.8-10.16-13.8-11S68.72,6.74,64,10.46a38.89,38.89,0,0,0-10.8,14.38A65.1,65.1,0,0,0,48,58.81Z"/><path class="cls-3" d="M87.26,62.58s-8.72,6-10.42,5.35-4.12-4-4.12-4c.35-.44,2.82-2.14,2.69-3.47a57.63,57.63,0,0,0-1.4-7.3l10.24-3.53s.42,2.93,1,6S86.61,62.1,87.26,62.58Z"/><path class="cls-4" d="M85.26,55.66c-2.82,2.1-6.27,4.58-7.4,5a3.33,3.33,0,0,1-2.44-.17A58.83,58.83,0,0,0,74,53.16l10.23-3.52S84.67,52.57,85.26,55.66Z"/><path class="cls-12" d="M89.89,20.93c-5.62-6.43-15-8.36-22.42-4.09a9.07,9.07,0,0,0-3.67,3.32c-2.44,4.91-5.92,23-2.18,31.63s9.63,7.49,11.73,6.88,12-4.72,14.23-7.93,7.16-19.81,6.07-24.13C93.29,25.17,91.76,23.08,89.89,20.93Z"/><path class="cls-3" d="M90.56,19.63c-5.62-6.43-15-8.36-22.42-4.09a9.07,9.07,0,0,0-3.67,3.32c-2.44,4.91-5.92,23-2.18,31.63S71.92,58,74,57.37s12-4.72,14.23-7.93,7.16-19.81,6.07-24.13C94,23.87,92.43,21.77,90.56,19.63Z"/><path class="cls-3" d="M88.53,41.76c.53-.25,3.19-3.72,5-1.6s2.34,5.62.57,7.58c-1.61,1.78-3.85,3.7-6.57,3Z"/><path class="cls-4" d="M93.51,42.83a2.62,2.62,0,0,1-.12,1.41c-.64,1.95-2.49,3.41-4.27,4.77a5.22,5.22,0,0,0,.66-3c0-.36-.1-.72-.1-1.09C89.69,43.41,92.88,40.07,93.51,42.83Z"/><path class="cls-13" d="M88.23,49.56l.1-.06.29-.18a4.19,4.19,0,0,0,.88-.82A3.87,3.87,0,0,0,90.23,47,3.47,3.47,0,0,0,90,44.9c0-.08-.08-.17-.13-.25l0-.07h0l0-.06L90,44.4l.12-.21a8,8,0,0,1,.54-.8,6.65,6.65,0,0,1,.58-.68,4.8,4.8,0,0,1,.56-.55,1.27,1.27,0,0,1,.57-.26.8.8,0,0,1,.48.1.42.42,0,0,1,.21.21.25.25,0,0,1,0,.1.31.31,0,0,0,0-.11.47.47,0,0,0-.18-.27,1,1,0,0,0-.55-.19,1.45,1.45,0,0,0-.76.22,5.32,5.32,0,0,0-.69.51c-.22.2-.46.42-.68.66a6.58,6.58,0,0,0-.63.82l-.15.23-.07.11-.09.17-.06.11a.67.67,0,0,0,.06.12l.08.16a2.4,2.4,0,0,1,.11.23,3.57,3.57,0,0,1,.26,1.82,4.1,4.1,0,0,1-.48,1.47,4.32,4.32,0,0,1-.68.89c-.09.1-.18.17-.23.22Z"/><path class="cls-14" d="M68.49,36.39A3.78,3.78,0,0,0,65.91,34a3.83,3.83,0,0,0-3.42.81A7.75,7.75,0,0,1,68.49,36.39Z"/><path class="cls-4" d="M71.67,42.26A3.16,3.16,0,0,1,73,42.17,4.31,4.31,0,0,1,70.25,44,.57.57,0,0,1,70,44a.63.63,0,0,1-.27-.16,5.44,5.44,0,0,1-1.22-1.6,1.17,1.17,0,0,1-.12-.39c0-.46.26-.3.5-.15a4.74,4.74,0,0,0,.88.42A4.14,4.14,0,0,0,71.67,42.26Z"/><path class="cls-15" d="M70.21,43.71c-.22-.29-.48-.55-.7-.83a7,7,0,0,1-.74-1.12c1.6-.69,1.87-2.17,2.13-3.85a5,5,0,0,0-.19-2.26,5.17,5.17,0,0,0-.51-1.09,3.75,3.75,0,0,0-.36-.5,1.69,1.69,0,0,0-.43-.37c.07.12.1.24.16.36.15.31.32.6.44.92a6.6,6.6,0,0,1,.28,1,6.2,6.2,0,0,1,0,2.06,4.91,4.91,0,0,1-.69,1.88,3.91,3.91,0,0,1-1.77,1.55s.75,1.31.82,1.41a5.15,5.15,0,0,0,.68.79,1.82,1.82,0,0,0,.87.56.61.61,0,0,0,.33,0,1.15,1.15,0,0,1-.14-.17.22.22,0,0,1,0-.08Z"/><path class="cls-15" d="M79.06,46.36a14,14,0,0,1-11.55.83,9.5,9.5,0,0,0,6,2C75.78,49,77.41,47.85,79.06,46.36Z"/><path class="cls-15" d="M75.62,50.21a5.39,5.39,0,0,1-4.91.31,3,3,0,0,0,2.38,1.22A3.67,3.67,0,0,0,75.62,50.21Z"/><path class="cls-16" d="M62.21,29.12s2.61-2,4.23-1.83,2.11,1.65,1.47,1.94S62.21,29.12,62.21,29.12Z"/><path class="cls-16" d="M85.15,31.72s-3.73-3.3-6.25-3.79-3.46,1-2.52,1.57S85.15,31.72,85.15,31.72Z"/><path class="cls-4" d="M78.52,43.21c.1.77,1.83,1.18,3.87.92S86,43,85.9,42.25s-1.83-1.18-3.87-.92S78.42,42.43,78.52,43.21Z"/><path class="cls-4" d="M58.65,39.19c-.25.53.85,1.58,2.45,2.35s3.11,1,3.37.41-.85-1.58-2.45-2.34S58.91,38.66,58.65,39.19Z"/><path class="cls-14" d="M83.55,34a3.49,3.49,0,0,1-2,1.13,1.42,1.42,0,0,0-1-.75c-1-.19-2.09,1-2.39,2.61s.28,3.11,1.3,3.3,2.08-1,2.38-2.62a4.34,4.34,0,0,0,0-1.43A5.59,5.59,0,0,0,83.55,34Z"/><path class="cls-14" d="M65.49,41.65A5.49,5.49,0,1,1,71,36.16,5.49,5.49,0,0,1,65.49,41.65Zm0-9.69a4.2,4.2,0,1,0,4.2,4.2A4.21,4.21,0,0,0,65.49,32Z"/><path class="cls-14" d="M80.13,42.64a6,6,0,1,1,6-6A6,6,0,0,1,80.13,42.64Zm0-10.68a4.7,4.7,0,1,0,4.69,4.7A4.71,4.71,0,0,0,80.13,32Z"/><path class="cls-14" d="M91,40.59a16.42,16.42,0,0,0-5.9-1.51l.07-1.29a17.68,17.68,0,0,1,6.47,1.67Z"/><path class="cls-14" d="M74.37,37.15a3.19,3.19,0,0,0-3.69-.44L70,35.61a4.48,4.48,0,0,1,5.21.55Z"/><path class="cls-2" d="M80.09,37.5a2.88,2.88,0,0,0,3.73-.7,3.34,3.34,0,0,0-2-.35A3.4,3.4,0,0,0,80.09,37.5Z"/><path class="cls-11" d="M91,29.35a22.23,22.23,0,0,0-10.66-4.62c0-1.67-.79-3-1.39-4.6-.48,1.39-1.29,3.06-1.77,4.45-2.94.13-5.91-.23-8.85-.1-.33-1.06-.9-2.52-1.23-3.58-.34,1.38-.9,3.26-1.25,4.64a23,23,0,0,0-5.82,1.06c-.25-7.86,6.4-15.21,14.13-16.6s16,2.82,20,9.59A23.58,23.58,0,0,1,94.72,42s-2.07-4.58-5.6-.24Z"/><path class="cls-16" d="M48,58.81h5.26c-.16-12.51.49-25.37,6.56-36.19a26.62,26.62,0,0,1,4.55-.93A52,52,0,0,1,68,14.76,51.64,51.64,0,0,0,71.3,20.4a20.42,20.42,0,0,0,5.06,0c1.26-1.73,2.51-3.45,3.78-5.16a41.56,41.56,0,0,1,4.1,7.07,24.63,24.63,0,0,1,6.93,3c2.06,1.36,3.32,3.63,4.34,5.87a51.48,51.48,0,0,1,4.12,27.7h3.65a94,94,0,0,0,1.6-14.09,92.92,92.92,0,0,0-.79-16.25,20.17,20.17,0,0,0-2.43-8.06c-1.51-2.4-4.16-4.26-7-4.05-1.82-5.76-7.8-10.16-13.8-11S68.72,6.74,64,10.46a38.89,38.89,0,0,0-10.8,14.38A65.1,65.1,0,0,0,48,58.81Z"/><path class="cls-17" d="M48,58.81H48a98.65,98.65,0,0,1,1.75-18.64A53.92,53.92,0,0,1,60.28,17c1.22,0,2.5.35,3.72.35a59.07,59.07,0,0,1,6.15-7.25c.45,1.73,1.19,3.44,1.63,5.18,1.36-.09,2.93,0,4.3-.11,0,0-.07.18,0,.21s.27-.09.35-.21l4-5.56c1.53,2.68,3.13,5.69,4.83,8.26,7.89.52,14.34,7.06,17.16,14.44a41.94,41.94,0,0,1,2.49,12.43,92.92,92.92,0,0,0-.79-16.25,20.17,20.17,0,0,0-2.43-8.06c-1.51-2.4-4.16-4.26-7-4.05-1.82-5.76-7.8-10.16-13.8-11S68.72,6.74,64,10.46a38.89,38.89,0,0,0-10.8,14.38A65.1,65.1,0,0,0,48,58.81Z"/><path class="cls-18" d="M91.34,65.34l-4.91-4.55S79,66.51,77.56,66.14,74,62.76,74,62.76L69.41,65S71,72.11,73,73.12l4.53-3.77,4.65,4.32A49,49,0,0,0,91.34,65.34Z"/><path class="cls-2" d="M120.73,223.33C109,233.61,82.9,230.71,82.9,230.71c-5.12-12.61-2.47-58,1.15-98.08,3.25-35.79,7.29-67.29,7.29-67.29a13,13,0,0,1,4.77,0,91.94,91.94,0,0,1,13.75,3.54Z"/><path class="cls-2" d="M57.19,114.31c.36,1.13.59,1.83.59,1.83L52.4,169.69l-9.7,57.8s-7.23-4.16-9.39-8.31S51.78,121,51.78,121s-5.69-12.42-4.92-16.6c.38-2.07,3.47-11.22,6.5-19.93,1.11-3.2,2.21-6.36,3.17-9.06,1.68-4.76,2.89-8.15,2.89-8.15l3.08-.59h0l4.1-.78s-11.89,28-12.82,31.88C53.06,100.74,55.91,110.27,57.19,114.31Z"/><path class="cls-19" d="M57.19,114.31s-7.41-16.58-7.31-18.73S54.71,88,54.71,88a20.67,20.67,0,0,1-1.35-3.59,10.17,10.17,0,0,1-.37-2.1c-.06-1,1.52-3.81,3.54-7s4.33-6.44,6-8.74h0l4.1-.78s-11.89,28-12.82,31.88C53.06,100.74,55.91,110.27,57.19,114.31Z"/><path class="cls-20" d="M53,123.28c0,3.88-.07,8.37-.15,12.53s-.21,8.1-.29,10.61a3,3,0,0,1-3,2.93H33.62a3,3,0,0,1-3-2.93c-.08-2.51-.19-6.39-.29-10.61s-.16-8.66-.15-12.53c0-5.22.14-9.31.53-9.94,1.21-1.88,5.37-3.77,5.37-3.77l1-5.45h9.09l1,5.45s4.16,1.89,5.37,3.77C52.85,114,53,118.06,53,123.28Z"/><path class="cls-6" d="M40.73,104.12l-.84,7.09s-4.15,1.57-5.36,3.14c-.94,1.23-.42,26.48-.14,35h-.77a3,3,0,0,1-3-2.93c-.27-8.32-.9-31.53.09-33.08,1.21-1.88,5.37-3.77,5.37-3.77l1-5.45Z"/><path class="cls-19" d="M48.44,96.46v7.23a.87.87,0,0,1-.87.87h-12a.87.87,0,0,1-.87-.87V96.46a.88.88,0,0,1,.87-.88h12A.88.88,0,0,1,48.44,96.46Z"/><rect class="cls-2" x="34.7" y="97.37" width="13.74" height="0.82"/><rect class="cls-2" x="34.7" y="101.68" width="13.74" height="0.82"/><path class="cls-2" d="M53,123.28c0,3.88-.07,8.37-.15,12.53H30.3c-.09-4.16-.16-8.66-.15-12.53Z"/><path class="cls-19" d="M34.08,135.81H30.3v-.53c0-.53,0-1.05,0-1.58,0-.79,0-1.59,0-2.39l0-1.51c0-2.25-.05-4.47,0-6.52H34C34,127,34,131.51,34.08,135.81Z"/><path class="cls-3" d="M39.53,133.36c.09,1.54-6.34,5.92-4.39,4.57s11-3,11.66-1.41-10.23,9.26-10.23,9.26,9.76-4,10.35-.63c.19,1.1-1,2.57-2.71,4.06,2.51.23,4.5.87,3.81,2.43-1.65,3.68-12.89,3.74-12.89,3.74-13-1.3-5.72-20.71-5.72-20.71S39.43,131.82,39.53,133.36Z"/><polygon class="cls-19" points="88.88 180.9 86.33 186.07 111.58 199.22 113.29 195.55 88.88 180.9"/><path class="cls-19" d="M93.06,97.38s4.1,9.69,4,13c-.06,2.24-8,14.68-13,22.27,3.25-35.79,7.29-67.29,7.29-67.29a13,13,0,0,1,4.77,0c.41,7.13,1.41,25.65,1.17,27.14C97,94.35,93.06,97.38,93.06,97.38Z"/><rect class="cls-18" x="87.32" y="112.61" width="19.98" height="11.14"/><rect class="cls-10" x="89.25" y="114.74" width="6.88" height="6.88"/><rect class="cls-10" x="98.04" y="114.74" width="7.33" height="1.63"/><rect class="cls-10" x="98.04" y="117.36" width="7.33" height="1.63"/><rect class="cls-10" x="98.04" y="119.98" width="7.33" height="1.63"/><rect class="cls-21" x="96.21" y="109.17" width="2.21" height="4.35"/><polygon class="cls-21" points="96.92 122.97 115.68 173.3 80.54 183.65 56.87 136.17 96.92 122.97"/><polygon class="cls-2" points="63.56 138.37 93.11 128.44 109.86 168.69 81.64 177.4 63.56 138.37"/><rect class="cls-19" x="67.91" y="137.76" width="24.28" height="1.73" transform="translate(-43.07 36.33) rotate(-20.27)"/><rect class="cls-19" x="70.69" y="142.58" width="22.64" height="1.73" transform="translate(-42.88 35.26) rotate(-19.34)"/><rect class="cls-19" x="73.22" y="147.82" width="20.89" height="1.73" transform="translate(-41.9 33.19) rotate(-18.03)"/><path class="cls-19" d="M84.07,125.06l1.34,3.81L68.25,135l-1.83-4,5.91-1.84s-.11-3.22,2.13-3.91,5.3,1.3,5.3,1.3Z"/><path class="cls-3" d="M110.13,118.56l4.67,20.25L88.34,154,94.2,164.7s35-12.13,37.12-13.88S129,115.93,129,115.93Z"/><path class="cls-3" d="M62.33,163.55c.93,1.71,12-6,12-6l3.08,2.12-4.31,3.65-3,7.67s1.11,1.15,2.56,2.48l.56.51a31.64,31.64,0,0,0,2.71,2.21l.25.18a8.66,8.66,0,0,0,2.32,1l3.57-5.33s8.81-.82,9.92-1.58c.44-.31,4.56-10.74,5-11.92l-3.88-4.32s-12-.91-12.65-.93a26.86,26.86,0,0,0-7.12.59,6.32,6.32,0,0,0-2.16.93C67.29,157.59,61.41,161.84,62.33,163.55Z"/><path class="cls-13" d="M75.92,176.2l.25.18.46-.93c.42-.86,1-2,1.68-3.24a20.83,20.83,0,0,1,2-3l.42-.51.35-.35.3-.32-.42.16-.5.22-.61.36a8.38,8.38,0,0,0-2.7,2.94A10.09,10.09,0,0,0,76,175.31,7.78,7.78,0,0,0,75.92,176.2Z"/><path class="cls-13" d="M72.65,173.48l.56.51.07-.15c.43-.86,1-2,1.68-3.24a22.45,22.45,0,0,1,2-3l.41-.49.35-.36.31-.32-.43.16-.49.22c-.18.1-.39.22-.61.36a8.44,8.44,0,0,0-2.71,3A9.94,9.94,0,0,0,72.65,173.48Z"/><path class="cls-2" d="M109.86,68.89s14.11,6.37,15.65,8.53,10.16,64.18,10.16,64.18l-28.36-5.08Z"/><polygon class="cls-19" points="107.55 130.04 106.27 138.06 135.67 145.45 137.52 137.75 107.55 130.04"/><path class="cls-19" d="M114.43,77.21s-4.8,9.24-5.33,11.7,2,43.72,2,43.72l4.42,1.74s-4.83-43.92-4.31-44.95S114.43,77.21,114.43,77.21Z"/><polygon class="cls-22" points="119.56 16.99 137.48 0.68 143.2 12.9 119.56 16.99"/><polygon class="cls-22" points="111.91 15.13 110.19 0 118.5 1.11 111.91 15.13"/><polygon class="cls-22" points="120.29 27.59 136.45 27.69 135.69 35.35 120.29 27.59"/></g></g></svg>