<svg xmlns="http://www.w3.org/2000/svg" width="500" height="500" style="width:100%;height:100%"><defs><clipPath id="a"><path d="M0 0h500v500H0z"/></clipPath></defs><g clip-path="url(#a)"><path stroke-linecap="round" stroke-linejoin="round" stroke="#24AF99" stroke-width="12.74" d="M139.158 255.138c-3.77-11.666-5.978-24.07-5.978-37.006 0-67.063 56.525-120.928 124.572-116.546 57.69 3.714 104.59 50.274 108.745 107.933 1.085 15.05-.823 29.509-4.84 43.001C342.902 315.475 250.01 408.2 250.01 408.2s-87.437-80.619-110.852-153.062z" fill="none" display="block"/><path stroke-linecap="round" stroke-linejoin="round" stroke="#848484" stroke-width="12.74" d="M304.963 218.14c0 30.355-24.608 54.96-54.964 54.96-30.355 0-54.964-24.605-54.964-54.96 0-30.356 24.609-54.964 54.964-54.964 30.356 0 54.964 24.608 54.964 54.963z" fill="none" display="block"/></g></svg>