<svg xmlns="http://www.w3.org/2000/svg" width="500" height="500" style="width:100%;height:100%;content-visibility:visible"><defs><clipPath id="a"><path d="M0 0h500v500H0z"/></clipPath></defs><g clip-path="url(#a)"><g display="block"><path stroke-linecap="round" stroke-linejoin="round" stroke="#08A88A" stroke-width="16.856" d="M392.462 133.95c-3.971-6.793-12.677-10.941-20.408-8.434-4.238 1.374-7.8 5.126-8.271 9.558-1.787 16.828 29.458 8.154 29.039 25.343-.072 2.952-1.666 5.75-3.941 7.631-2.275 1.881-5.174 2.904-8.103 3.276-7.344.933-14.825-2.268-19.4-8.038M377.102 182.855v-11.406M377.102 124.787v-11.382" fill="none"/><g><path stroke-linecap="round" stroke-linejoin="round" stroke="#FFF" stroke-width="16.856" d="M436.321 148.131c0 32.706-26.513 59.219-59.219 59.219s-59.219-26.513-59.219-59.219 26.513-59.219 59.219-59.219 59.219 26.513 59.219 59.219z" fill="none"/></g></g><g display="block"><path stroke-linecap="round" stroke-linejoin="round" stroke="#08A88A" stroke-width="16.856" d="M392.462 336.95c-3.971-6.793-12.677-10.941-20.408-8.434-4.238 1.374-7.8 5.126-8.271 9.558-1.787 16.828 29.458 8.154 29.039 25.343-.072 2.952-1.666 5.75-3.941 7.631-2.275 1.881-5.174 2.904-8.103 3.276-7.344.933-14.825-2.268-19.4-8.038M377.102 385.855v-11.406M377.102 327.787v-11.382" fill="none"/><g><path stroke-linecap="round" stroke-linejoin="round" stroke="#FFF" stroke-width="16.856" d="M436.321 351.131c0 32.706-26.513 59.219-59.219 59.219s-59.219-26.513-59.219-59.219 26.513-59.219 59.219-59.219 59.219 26.513 59.219 59.219z" fill="none"/></g></g><g display="block"><path stroke-linecap="round" stroke-linejoin="round" stroke="#FFF" stroke-width="16.856" d="M236.656 250c0 47.51-38.515 86.025-86.025 86.025-47.51 0-86.025-38.515-86.025-86.025 0-47.51 38.515-86.025 86.025-86.025 47.51 0 86.025 38.515 86.025 86.025z" fill="none"/><path stroke="#FFF" stroke-width="16.856" d="M183.25 218.21l-63.94 63.95m43.82-7.27c0-6.9 5.59-12.5 12.49-12.5s12.5 5.6 12.5 12.5-5.6 12.49-12.5 12.49-12.49-5.59-12.49-12.49zm-49.99-49.78c0-6.9 5.6-12.49 12.5-12.49s12.5 5.59 12.5 12.49-5.6 12.5-12.5 12.5-12.5-5.6-12.5-12.5z" fill="none"/><path stroke-linecap="round" stroke-linejoin="round" stroke="#08A88A" stroke-width="16.856" d="M183.25 218.214l-63.942 63.942m43.819-7.269c0-6.901 5.595-12.496 12.496-12.496 6.901 0 12.496 5.595 12.496 12.496 0 6.901-5.595 12.496-12.496 12.496-6.901 0-12.496-5.595-12.496-12.496zm-49.983-49.774c0-6.901 5.595-12.496 12.496-12.496 6.901 0 12.496 5.595 12.496 12.496 0 6.901-5.595 12.496-12.496 12.496-6.901 0-12.496-5.595-12.496-12.496z" fill="none"/></g><path stroke-linecap="round" stroke-linejoin="round" stroke="#FFF" stroke-width="16.856" d="M295.356 184.706l-40.742 19.242m40.635 112.919l-40.712-17.929" fill="none" display="block"/></g></svg>