<svg xmlns="http://www.w3.org/2000/svg" viewBox="0 0 500 372.61"><defs><style>.cls-1{fill:#ebebeb;}.cls-2,.cls-8{fill:#e0e0e0;}.cls-3{fill:#f5f5f5;}.cls-4{fill:#e6e6e6;}.cls-5{fill:#f0f0f0;}.cls-10,.cls-11,.cls-20,.cls-6{fill:#fff;}.cls-7{fill:#fafafa;}.cls-8{opacity:0.6;}.cls-9{fill:#407bff;}.cls-10{opacity:0.8;}.cls-11,.cls-12{opacity:0.3;}.cls-13{fill:#263238;}.cls-14{fill:#803e3c;}.cls-15{fill:#7f3e3b;}.cls-16{fill:#630f0f;}.cls-17{opacity:0.2;}.cls-18,.cls-20{opacity:0.4;}.cls-19{opacity:0.5;}</style></defs><g id="Layer_2" data-name="Layer 2"><g id="Character"><rect class="cls-1" y="327.45" width="500" height="0.25"/><rect class="cls-1" x="428.22" y="343.54" width="21.68" height="0.25"/><rect class="cls-1" x="310.56" y="338.35" width="34.11" height="0.25"/><rect class="cls-1" x="396.59" y="334.26" width="44.53" height="0.25"/><rect class="cls-1" x="161.88" y="339.3" width="11.14" height="0.25"/><rect class="cls-1" x="114.58" y="339.3" width="38.39" height="0.25"/><rect class="cls-1" x="66.31" y="335.08" width="27.7" height="0.25"/><path class="cls-1" d="M237,282.85H43.91a5.71,5.71,0,0,1-5.7-5.71V5.71A5.71,5.71,0,0,1,43.91,0H237a5.71,5.71,0,0,1,5.71,5.71V277.14A5.71,5.71,0,0,1,237,282.85ZM43.91.25a5.46,5.46,0,0,0-5.45,5.46V277.14a5.46,5.46,0,0,0,5.45,5.46H237a5.47,5.47,0,0,0,5.46-5.46V5.71A5.47,5.47,0,0,0,237,.25Z"/><path class="cls-1" d="M453.31,282.85H260.21a5.72,5.72,0,0,1-5.71-5.71V5.71A5.72,5.72,0,0,1,260.21,0h193.1A5.71,5.71,0,0,1,459,5.71V277.14A5.71,5.71,0,0,1,453.31,282.85ZM260.21.25a5.47,5.47,0,0,0-5.46,5.46V277.14a5.47,5.47,0,0,0,5.46,5.46h193.1a5.47,5.47,0,0,0,5.46-5.46V5.71A5.47,5.47,0,0,0,453.31.25Z"/><path class="cls-2" d="M115,119.67a20.91,20.91,0,0,0,0-41.82h-2.57v41.82Z"/><circle class="cls-3" cx="112.41" cy="98.76" r="20.91"/><path class="cls-2" d="M111.45,101.39a28,28,0,0,1-28-28V56.68a2.63,2.63,0,1,1,5.26,0V73.4a22.76,22.76,0,0,0,22.73,22.74,2.63,2.63,0,1,1,0,5.25Z"/><path class="cls-3" d="M62.83,71.4h46.52a4.86,4.86,0,0,0,4.7-6.1l-4-15.24a4.85,4.85,0,0,0-4.69-3.61H66.87a4.86,4.86,0,0,0-4.7,3.61l-4,15.24A4.85,4.85,0,0,0,62.83,71.4Z"/><path class="cls-2" d="M410.28,119.67a20.91,20.91,0,1,0,0-41.82h-2.57v41.82Z"/><circle class="cls-3" cx="407.71" cy="98.76" r="20.91"/><path class="cls-2" d="M406.75,101.39a28,28,0,0,1-28-28V56.68a2.63,2.63,0,0,1,5.26,0V73.4a22.76,22.76,0,0,0,22.73,22.74,2.63,2.63,0,1,1,0,5.25Z"/><path class="cls-3" d="M358.13,71.4h46.52a4.86,4.86,0,0,0,4.7-6.1l-4-15.24a4.85,4.85,0,0,0-4.69-3.61H362.17a4.86,4.86,0,0,0-4.7,3.61l-4,15.24A4.85,4.85,0,0,0,358.13,71.4Z"/><rect class="cls-4" x="133.98" y="201.97" width="15.21" height="58.93" transform="translate(283.17 462.87) rotate(180)"/><polygon class="cls-5" points="92.75 260.9 143.22 260.9 150.84 191.93 100.37 191.93 92.75 260.9"/><polygon class="cls-3" points="87.28 260.9 139.42 260.9 147.04 191.93 94.91 191.93 87.28 260.9"/><polygon class="cls-6" points="135.65 255.47 142.07 197.36 98.67 197.36 92.25 255.47 135.65 255.47"/><path class="cls-3" d="M126.69,241.38,127,239c1.61-14.57-7.49-27.56-19.31-27.56h0l-.27,2.36c-1.61,14.58,7.49,27.57,19.32,27.57Z"/><rect class="cls-4" x="59.08" y="260.9" width="44.84" height="66.55" transform="translate(163.01 588.35) rotate(180)"/><polygon class="cls-5" points="63.59 327.45 59.08 327.45 59.08 314.62 68.32 314.62 63.59 327.45"/><rect class="cls-4" x="184.75" y="260.9" width="44.84" height="66.55" transform="translate(414.35 588.35) rotate(180)"/><rect class="cls-5" x="59.08" y="260.9" width="129.61" height="58.67" transform="translate(247.77 580.47) rotate(180)"/><polygon class="cls-5" points="184.18 327.45 188.69 327.45 188.69 314.62 179.45 314.62 184.18 327.45"/><rect class="cls-4" x="62.58" y="264.57" width="122.61" height="23.68" transform="translate(247.77 552.82) rotate(180)"/><path class="cls-5" d="M115.71,280h16.35a25.88,25.88,0,0,0,18.78-8.08H96.93A25.91,25.91,0,0,0,115.71,280Z"/><rect class="cls-4" x="62.58" y="292.07" width="122.61" height="23.68" transform="translate(247.77 607.82) rotate(180)"/><path class="cls-5" d="M115.71,307.51h16.35a25.84,25.84,0,0,0,18.78-8.08H96.93A25.87,25.87,0,0,0,115.71,307.51Z"/><path class="cls-4" d="M180.48,258.19h1.16c0-2.39,0-8.44.12-22.32.21-25.14.61-26.67.61-26.67l-2.76,11.61C177.86,233.66,180.12,246.58,180.48,258.19Z"/><path class="cls-4" d="M178.19,219.08c-4-4.74-12.45-6.11-21.13-7.29-3.41-.46,8.95,7.33,15,12.86,4.7,4.3,7.7,5.49,9,9.77C181.72,229.08,181.61,223.15,178.19,219.08Z"/><path class="cls-4" d="M183.46,227.53c4-4.73,12.45-6.11,21.13-7.28,3.41-.47-9,7.32-15,12.86-4.7,4.3-7.7,5.48-9,9.77C179.93,237.54,180,231.61,183.46,227.53Z"/><path class="cls-4" d="M181.76,208.09c3-5.66,10.46-11,18.87-13,3.3-.8-7.65,10.44-11.81,17.68-3.23,5.63-7.51,12.24-8.18,17C179.64,220.35,178.78,213.74,181.76,208.09Z"/><path class="cls-5" d="M181.4,260.9h0c-3.54,0-6.47-1.78-6.68-4l-.59-3.89h14.55l-.6,3.89C187.88,259.12,185,260.9,181.4,260.9Z"/><polygon class="cls-5" points="189.62 254.46 173.19 254.46 172.72 250.13 190.09 250.13 189.62 254.46"/><rect class="cls-4" x="169.54" y="25.64" width="160.21" height="146.13" transform="translate(499.29 197.41) rotate(180)"/><rect class="cls-3" x="165.93" y="25.64" width="162.24" height="146.13" transform="translate(494.11 197.41) rotate(180)"/><rect class="cls-7" x="180.54" y="24.05" width="133.04" height="149.3" transform="translate(345.76 -148.35) rotate(90)"/><polygon class="cls-6" points="303.39 165.22 244.63 32.19 224.67 32.19 283.43 165.22 303.39 165.22"/><polygon class="cls-6" points="277.77 165.22 219.01 32.19 205.27 32.19 264.03 165.22 277.77 165.22"/><rect class="cls-4" x="157.46" y="94.84" width="133.04" height="7.72" transform="translate(322.69 -125.28) rotate(90)"/><rect class="cls-4" x="208.78" y="94.84" width="133.04" height="7.72" transform="translate(374.01 -176.6) rotate(90)"/><rect class="cls-3" x="150.54" y="93.47" width="142.06" height="9.76" transform="translate(319.92 -123.22) rotate(90)"/><rect class="cls-3" x="201.86" y="93.47" width="142.06" height="9.76" transform="translate(371.24 -174.54) rotate(90)"/><rect class="cls-4" x="106.23" y="98.36" width="133.04" height="0.69" transform="translate(271.45 -74.05) rotate(90)"/><path class="cls-4" d="M163.22,17.22H336.78a.84.84,0,0,1,.84.83h0a.85.85,0,0,1-.84.84H163.22a.85.85,0,0,1-.84-.84h0A.84.84,0,0,1,163.22,17.22Z"/><path class="cls-4" d="M329.75,22.73h0a1.13,1.13,0,0,0,1.12-1.13V19.18a1.13,1.13,0,0,0-1.12-1.13h0a1.14,1.14,0,0,0-1.13,1.13V21.6A1.14,1.14,0,0,0,329.75,22.73Z"/><path class="cls-4" d="M175.8,22.73h0a1.14,1.14,0,0,0,1.13-1.13V19.18a1.14,1.14,0,0,0-1.13-1.13h0a1.13,1.13,0,0,0-1.12,1.13V21.6A1.13,1.13,0,0,0,175.8,22.73Z"/><rect class="cls-8" x="163.48" y="18.05" width="162.13" height="114.44" transform="translate(489.09 150.55) rotate(180)"/><rect class="cls-7" x="306.95" y="205.02" width="38.72" height="23.7" rx="5.38"/><rect class="cls-4" x="306.95" y="200.64" width="38.72" height="5.08" rx="1.81"/><path class="cls-5" d="M307.52,255s.51,16.67,19.93,16.67S347.38,255,347.38,255Z"/><path class="cls-5" d="M351.8,255s.51,16.67,19.93,16.67S391.66,255,391.66,255Z"/><rect class="cls-5" x="336.24" y="194.28" width="53.2" height="34.44" rx="7.4"/><rect class="cls-3" x="336.24" y="188.27" width="53.2" height="6.98" rx="2.48"/><rect class="cls-4" x="292.9" y="244.8" width="5.04" height="82.64" transform="translate(590.83 572.25) rotate(180)"/><rect class="cls-4" x="411.13" y="228.72" width="27.29" height="16.08"/><rect class="cls-3" x="275.45" y="228.72" width="135.68" height="16.08" transform="translate(686.57 473.52) rotate(180)"/><rect class="cls-4" x="411.13" y="271.67" width="27.29" height="16.08"/><rect class="cls-3" x="275.45" y="271.67" width="135.68" height="16.08" transform="translate(686.57 559.41) rotate(180)"/><rect class="cls-4" x="428.58" y="244.8" width="5.04" height="82.64" transform="translate(862.19 572.25) rotate(180)"/><rect class="cls-3" x="406.09" y="244.8" width="5.04" height="82.64" transform="translate(817.22 572.25) rotate(180)"/><rect class="cls-3" x="275.45" y="244.8" width="5.04" height="82.64" transform="translate(555.93 572.25) rotate(180)"/><ellipse id="_Path_" data-name="&lt;Path&gt;" class="cls-3" cx="250" cy="361.29" rx="193.89" ry="11.32"/><path class="cls-9" d="M260.41,310.54H132.84a8.12,8.12,0,0,1-8-7.63L113.4,81.36a7.17,7.17,0,0,1,7.24-7.63H248.21a8.12,8.12,0,0,1,8,7.63l11.42,221.55A7.17,7.17,0,0,1,260.41,310.54Z"/><path class="cls-10" d="M260.41,310.54H132.84a8.12,8.12,0,0,1-8-7.63L113.4,81.36a7.17,7.17,0,0,1,7.24-7.63H248.21a8.12,8.12,0,0,1,8,7.63l11.42,221.55A7.17,7.17,0,0,1,260.41,310.54Z"/><rect class="cls-9" x="221.51" y="66.5" width="14.11" height="1"/><rect class="cls-9" x="211.45" y="66.5" width="5.17" height="1"/><path class="cls-9" d="M265.9,296.49h-122a7.78,7.78,0,0,1-7.68-7.3L125.29,77.3a6.86,6.86,0,0,1,6.93-7.3h122a7.77,7.77,0,0,1,7.67,7.3l10.92,211.89A6.86,6.86,0,0,1,265.9,296.49Z"/><path class="cls-6" d="M265.9,291.62h-122a2.92,2.92,0,0,1-2.81-2.68L130.16,77.05a2,2,0,0,1,2.06-2.17h122a2.91,2.91,0,0,1,2.8,2.67L268,289.44a2,2,0,0,1-2.05,2.18ZM132.22,75.13a1.79,1.79,0,0,0-1.34.54,1.81,1.81,0,0,0-.47,1.37l10.92,211.89a2.67,2.67,0,0,0,2.56,2.44h122a1.74,1.74,0,0,0,1.8-1.91L256.78,77.57a2.66,2.66,0,0,0-2.55-2.44Z"/><ellipse class="cls-11" cx="196.09" cy="125.66" rx="36" ry="37.9" transform="translate(-30.76 178.39) rotate(-45.74)"/><path class="cls-6" d="M226,125.66a28.73,28.73,0,0,1-2.87,14.24,28.07,28.07,0,0,1-25.47,15.64,31.74,31.74,0,0,1-27.08-15.64,30.81,30.81,0,0,1-4.34-14.24,28.09,28.09,0,0,1,28.34-29.88A31.81,31.81,0,0,1,226,125.66Z"/><path class="cls-9" d="M223.1,139.9a28.07,28.07,0,0,1-25.47,15.64,31.74,31.74,0,0,1-27.08-15.64,45.16,45.16,0,0,1,25.86-8A49.14,49.14,0,0,1,223.1,139.9Z"/><ellipse class="cls-9" cx="195.56" cy="115.44" rx="12.97" ry="13.66" transform="translate(-23.6 174.92) rotate(-45.74)"/><path class="cls-6" d="M248.41,214.07H152.88a3.29,3.29,0,0,1-3.25-3.09l-.72-14a2.91,2.91,0,0,1,2.93-3.09h95.53a3.29,3.29,0,0,1,3.25,3.09l.72,14A2.9,2.9,0,0,1,248.41,214.07Z"/><path class="cls-12" d="M219.16,186.14h-39.9a3.29,3.29,0,0,1-3.25-3.09l-.15-3a2.9,2.9,0,0,1,2.93-3.08h39.89a3.29,3.29,0,0,1,3.25,3.08l.16,3A2.91,2.91,0,0,1,219.16,186.14Z"/><path class="cls-12" d="M234,281.35H174.23a5.6,5.6,0,0,1-5.53-5.26l-.35-6.89a5,5,0,0,1,5-5.26H233.1a5.61,5.61,0,0,1,5.53,5.26l.35,6.89A4.94,4.94,0,0,1,234,281.35Z"/><path class="cls-6" d="M250.16,247.9H154.62a3.29,3.29,0,0,1-3.25-3.08l-.72-14a2.91,2.91,0,0,1,2.93-3.09h95.53a3.29,3.29,0,0,1,3.25,3.09l.73,14A2.91,2.91,0,0,1,250.16,247.9Z"/><path class="cls-13" d="M165,204a3.22,3.22,0,0,1-3.25,3.42,3.64,3.64,0,0,1-3.59-3.42,3.21,3.21,0,0,1,3.24-3.42A3.65,3.65,0,0,1,165,204Z"/><path class="cls-13" d="M175.53,204a3.21,3.21,0,0,1-3.24,3.42A3.63,3.63,0,0,1,168.7,204a3.21,3.21,0,0,1,3.24-3.42A3.63,3.63,0,0,1,175.53,204Z"/><path class="cls-13" d="M186,204a3.21,3.21,0,0,1-3.24,3.42,3.65,3.65,0,0,1-3.6-3.42,3.22,3.22,0,0,1,3.25-3.42A3.64,3.64,0,0,1,186,204Z"/><path class="cls-13" d="M196.55,204a3.22,3.22,0,0,1-3.24,3.42,3.65,3.65,0,0,1-3.6-3.42,3.22,3.22,0,0,1,3.24-3.42A3.65,3.65,0,0,1,196.55,204Z"/><path class="cls-13" d="M166.77,237.8a3.22,3.22,0,0,1-3.24,3.42,3.65,3.65,0,0,1-3.6-3.42,3.22,3.22,0,0,1,3.25-3.42A3.64,3.64,0,0,1,166.77,237.8Z"/><path class="cls-13" d="M177.28,237.8a3.22,3.22,0,0,1-3.24,3.42,3.65,3.65,0,0,1-3.6-3.42,3.21,3.21,0,0,1,3.24-3.42A3.65,3.65,0,0,1,177.28,237.8Z"/><path class="cls-13" d="M187.79,237.8a3.23,3.23,0,0,1-3.25,3.42A3.64,3.64,0,0,1,181,237.8a3.21,3.21,0,0,1,3.24-3.42A3.65,3.65,0,0,1,187.79,237.8Z"/><path class="cls-13" d="M198.29,237.8a3.22,3.22,0,0,1-3.24,3.42,3.65,3.65,0,0,1-3.6-3.42,3.22,3.22,0,0,1,3.25-3.42A3.63,3.63,0,0,1,198.29,237.8Z"/><path class="cls-13" d="M208.8,237.8a3.22,3.22,0,0,1-3.24,3.42,3.65,3.65,0,0,1-3.6-3.42,3.22,3.22,0,0,1,3.24-3.42A3.65,3.65,0,0,1,208.8,237.8Z"/><path class="cls-13" d="M219.31,237.8a3.23,3.23,0,0,1-3.25,3.42,3.65,3.65,0,0,1-3.59-3.42,3.21,3.21,0,0,1,3.24-3.42A3.65,3.65,0,0,1,219.31,237.8Z"/><path class="cls-14" d="M333,121.67c.25.37.38.58.54.84l.45.75c.29.5.55,1,.8,1.49.5,1,1,2,1.4,3a55.36,55.36,0,0,1,2.16,6.1,63.63,63.63,0,0,1,2.38,12.54l.07.79a4.61,4.61,0,0,1,0,.47l0,.54a12.86,12.86,0,0,1-.12,2.08,16.9,16.9,0,0,1-1,3.72,25.6,25.6,0,0,1-3.46,6,42.7,42.7,0,0,1-9.31,8.82l-2.76-3.23a57.8,57.8,0,0,0,6.64-9.19,21.14,21.14,0,0,0,2-4.72,9.71,9.71,0,0,0,.33-2.14,4.66,4.66,0,0,0,0-.93l0-.22a1.31,1.31,0,0,0,0-.27l-.12-.7a79.39,79.39,0,0,0-2.72-11c-.58-1.78-1.29-3.51-2-5.2-.35-.85-.75-1.68-1.15-2.49l-.62-1.17-.31-.56-.26-.43Z"/><path class="cls-15" d="M323.7,168.82l3.62,7.65,2.87-6.47s-2.55-5.6-6-5.09Z"/><polygon class="cls-15" points="329.91 176.85 332.79 172.13 330.19 170 327.32 176.47 329.91 176.85"/><path class="cls-9" d="M313.63,353.26a10.27,10.27,0,0,0,2.22-.3.21.21,0,0,0,.15-.15.2.2,0,0,0-.09-.2c-.29-.19-2.83-1.83-3.81-1.39a.68.68,0,0,0-.39.55,1.15,1.15,0,0,0,.33,1.06A2.42,2.42,0,0,0,313.63,353.26Zm1.65-.58c-1.45.29-2.55.24-3-.14a.77.77,0,0,1-.21-.71c0-.17.1-.22.17-.25C312.78,351.34,314.25,352.05,315.28,352.68Z"/><path class="cls-9" d="M315.8,353a.21.21,0,0,0,.2-.2c0-.1,0-2.51-.92-3.32a1.05,1.05,0,0,0-.84-.26.69.69,0,0,0-.67.55c-.19.94,1.33,2.75,2.13,3.2A.19.19,0,0,0,315.8,353Zm-1.43-3.4a.62.62,0,0,1,.44.18,4.51,4.51,0,0,1,.78,2.64c-.8-.64-1.75-2-1.63-2.57,0-.1.07-.21.32-.24Z"/><path class="cls-9" d="M304.19,349.18a.19.19,0,0,0,0-.19.19.19,0,0,0-.18-.14c-.41,0-4-.17-4.82.71l0,.06a.62.62,0,0,0-.09.62,1.08,1.08,0,0,0,.73.72c1.16.37,3.21-.94,4.33-1.75Zm-4.66.64c.45-.48,2.43-.62,3.91-.59-1.55,1-2.84,1.56-3.49,1.36a.74.74,0,0,1-.48-.49.28.28,0,0,1,0-.25Z"/><path class="cls-9" d="M304.19,349.18l0,0a.23.23,0,0,0,0-.2c-.05-.08-1.17-2.05-2.49-2.41a1.46,1.46,0,0,0-1.14.15c-.48.28-.51.6-.45.82.26.93,2.81,1.75,3.91,1.74A.21.21,0,0,0,304.19,349.18Zm-3.59-2a1.25,1.25,0,0,1,.19-.15,1.06,1.06,0,0,1,.84-.1,4.58,4.58,0,0,1,2.05,1.9c-1.19-.14-3-.87-3.15-1.42A.22.22,0,0,1,300.6,347.18Z"/><path class="cls-15" d="M315.2,92.38c-1,5-3.16,15.81.31,19.13,0,0-1.36,5-10.59,5-10.16,0-4.85-5-4.85-5,5.54-1.33,5.4-5.44,4.43-9.3Z"/><path class="cls-13" d="M298.28,80.66a.37.37,0,0,0,.17,0,.39.39,0,0,0,.18-.53,3.94,3.94,0,0,0-2.88-2.2.4.4,0,1,0-.09.79h0a3.14,3.14,0,0,1,2.26,1.77A.4.4,0,0,0,298.28,80.66Z"/><path class="cls-16" d="M295.25,85a18,18,0,0,1-2.92,4,2.89,2.89,0,0,0,2.33.75Z"/><path class="cls-13" d="M296,83.92c-.08.67-.51,1.17-.94,1.12s-.73-.64-.65-1.32.51-1.17,1-1.11S296.07,83.25,296,83.92Z"/><path class="cls-13" d="M295.54,82.67,294,82S294.65,83.37,295.54,82.67Z"/><polygon class="cls-15" points="313.02 347.28 304.86 349.19 299.9 330.43 308.06 328.52 313.02 347.28"/><polygon class="cls-15" points="325.54 352.77 317.17 352.77 317.82 333.37 326.2 333.37 325.54 352.77"/><path class="cls-13" d="M316.5,351.8h9.41a.67.67,0,0,1,.67.57l1.07,7.45a1.35,1.35,0,0,1-1.34,1.49c-3.28-.06-4.86-.25-9-.25-2.55,0-6.27.26-9.78.26s-3.71-3.47-2.24-3.79c6.56-1.41,7.6-3.36,9.81-5.21A2.17,2.17,0,0,1,316.5,351.8Z"/><path class="cls-13" d="M304.14,347.94l8.55-3.93a.64.64,0,0,1,.84.24l4.09,6.31a1.36,1.36,0,0,1-.6,1.92c-3,1.32-4.52,1.8-8.28,3.53-2.31,1.07-7,3.51-10.18,5s-4.82-1.61-3.62-2.51c5.37-4,6.91-6.88,8.14-9.49A2.16,2.16,0,0,1,304.14,347.94Z"/><polygon class="cls-17" points="299.9 330.43 302.56 340.48 310.62 338.2 308.07 328.53 299.9 330.43"/><polygon class="cls-17" points="326.2 333.38 317.82 333.38 317.49 343.38 325.87 343.38 326.2 333.38"/><path class="cls-13" d="M330,113.41c3.48.76,7.2,13.28,7.2,13.28l-9.84,10.46s-8.17-11.75-6.5-16.08C322.55,116.57,325.85,112.51,330,113.41Z"/><path class="cls-18" d="M324.44,121.38c-1.76-1.61-2.95-1.13-3.76.15-.8,3.72,3.94,11.51,5.85,14.46C327.41,132.47,328.42,125,324.44,121.38Z"/><path class="cls-13" d="M285.91,113.65s-4,1.41,4,50.56h34c-.57-13.85-.59-22.39,6-50.8a100.28,100.28,0,0,0-14.45-1.9,107.4,107.4,0,0,0-15.44,0C293.43,112.11,285.91,113.65,285.91,113.65Z"/><path class="cls-18" d="M285.6,132.52c.22,2.39.51,5.08.89,8.12,2.79-2.51,5.07-9.65,4.23-13.81A24.59,24.59,0,0,0,285.6,132.52Z"/><path class="cls-14" d="M289.24,125.07c-1.86,4.67-3.89,9.11-6.19,13.55a83.26,83.26,0,0,1-8,13l-.64.78-.32.4c-.11.13-.2.25-.37.43a12.36,12.36,0,0,1-2,1.75,16,16,0,0,1-4.18,2.09,30.53,30.53,0,0,1-8,1.42,59.36,59.36,0,0,1-15.16-1.35l.55-4.2c2.3,0,4.71,0,7-.19a54.52,54.52,0,0,0,6.86-.77,26.46,26.46,0,0,0,6.14-1.71,9.18,9.18,0,0,0,2.21-1.35,4.14,4.14,0,0,0,.69-.71s.12-.17.2-.27l.23-.33.47-.66a99.89,99.89,0,0,0,6.69-12.11c2-4.26,4-8.67,5.83-13Z"/><path class="cls-13" d="M285.91,113.65c-4.17,1-9.29,12.45-9.29,12.45l8.64,12.69s11.51-14.48,10.14-18.91C294,115.28,291,112.42,285.91,113.65Z"/><path class="cls-15" d="M247.33,153.56l-7.21-3.33-.72,7.17s6,1.77,9-.05Z"/><polygon class="cls-15" points="235.81 149.51 235.12 154.96 239.4 157.4 240.12 150.23 235.81 149.51"/><path class="cls-15" d="M318.82,84.41c-1.53,8.17-2,11.66-6.68,15.37-7,5.59-16.75,1.93-17.69-6.53-.86-7.62,1.78-19.71,10.25-22A11.34,11.34,0,0,1,318.82,84.41Z"/><path class="cls-13" d="M300.87,86.13c-.47,4.17-.65,15,8.51,15.33,11.21.42,14.57-9.16,13.57-13,5.84-4.75,6.68-12.91.12-19.16s-21-2.76-25,3.33C293,80.18,300.87,86.13,300.87,86.13Z"/><path class="cls-9" d="M312.1,71.73c-.54-4.4-.12-7.43,4-7.43s9.74,1.49,11.8,5.7,2.23,10.8-3.52,10.13S312.75,77,312.1,71.73Z"/><path class="cls-13" d="M318.48,70.67c-1-5.24,3.69-20,15.08-21,5.28-.44,7.72,5.24,5,6.18,5-.06,8.2,6.54,3.54,7.54,3.68,2.36,2.77,7.2-2.48,9.58C335.71,74.76,319.83,77.92,318.48,70.67Z"/><path class="cls-13" d="M330.65,76.3c-3.67,0-7.5-.54-9.88-2.13a4.93,4.93,0,0,1-2.35-3.81.25.25,0,0,1,.23-.26.24.24,0,0,1,.27.23,4.43,4.43,0,0,0,2.13,3.42c4.53,3,15,2,18.26,1,2.82-.92,4.73-2.7,5.11-4.77a4.13,4.13,0,0,0-1.67-4,.25.25,0,0,1,.31-.39,4.66,4.66,0,0,1,1.85,4.53c-.41,2.25-2.44,4.17-5.44,5.15A32.69,32.69,0,0,1,330.65,76.3Z"/><path class="cls-15" d="M298.32,85a6.15,6.15,0,0,0-1.07,4.51c.33,2.1,2.37,2.24,3.85.89s2.77-3.76,1.68-5.5A2.63,2.63,0,0,0,298.32,85Z"/><path class="cls-9" d="M298.89,164.21s4.86,57.49,9.91,89.89c4.07,26.17,7.29,87.34,7.29,87.34h11.42s4.06-59.34,2-85.23c-5.23-65.49,6.44-70.83-5.57-92Z"/><path class="cls-18" d="M313.27,185.94a55.8,55.8,0,0,0-10.79,16.28c1.33,12.92,2.91,27.26,4.59,39.82A110.38,110.38,0,0,0,313.27,185.94Z"/><path class="cls-9" d="M290.9,163.85s-10.55,62.78-12.21,91.09c4.14,26.17,21.08,81.48,21.08,81.48l10.39-3.76s-5.75-60.32-12-76.83c14.07-47.38,24.41-59.35,21.4-91.62C312.35,164.21,290.9,163.85,290.9,163.85Z"/><polygon class="cls-13" points="298.38 339.19 312.42 335.37 311.62 329.78 296.59 333.84 298.38 339.19"/><polygon class="cls-13" points="314.52 341.67 329.07 341.67 329.83 336.56 314.44 336.04 314.52 341.67"/><path class="cls-9" d="M324.44,162.21l1.53,3c.12.23-.16.47-.55.47H289.74c-.3,0-.56-.15-.58-.34l-.31-3c0-.22.25-.39.58-.39h34.45A.63.63,0,0,1,324.44,162.21Z"/><path class="cls-19" d="M324.44,162.21l1.53,3c.12.23-.16.47-.55.47H289.74c-.3,0-.56-.15-.58-.34l-.31-3c0-.22.25-.39.58-.39h34.45A.63.63,0,0,1,324.44,162.21Z"/><path class="cls-9" d="M319.81,166.06h.92c.19,0,.33-.09.32-.21l-.44-3.95c0-.12-.17-.21-.35-.21h-.93c-.18,0-.32.09-.31.21l.43,3.95C319.47,166,319.63,166.06,319.81,166.06Z"/><path class="cls-9" d="M307.43,136.92a.5.5,0,0,1-.49-.37c-3.26-12.05-10-22-13.27-23.49a1.1,1.1,0,0,0-.85-.14.51.51,0,0,1-.66-.25.5.5,0,0,1,.25-.66,1.93,1.93,0,0,1,1.68.14c3.46,1.63,10.3,11.43,13.72,23.77,2.45,0,6.23-.34,7.15-.41,1.14-1.36,9.52-11.84,6.39-23.31a.5.5,0,1,1,1-.26c3.49,12.76-6.63,24.27-6.74,24.38a.51.51,0,0,1-.32.17C315.2,136.49,310.21,136.92,307.43,136.92Z"/><path class="cls-9" d="M324,144c-5.45-10.22-7.68-10.93-8.65-14.22a17,17,0,0,1,3.1-5c-.66-.18-2.08-.47-3-.64.1-.44.21-.89.31-1.31a9.26,9.26,0,0,0-3,.14l0-1a12.66,12.66,0,0,0-3.87-.25q.17.71.33,1.44c-1,.19-2.52.5-3.25.7a14.41,14.41,0,0,1,3.05,5.58c-2.94,5-14.36,37.51,4.22,39.95S329.44,154.21,324,144Z"/><path class="cls-20" d="M324,144c-5.45-10.22-7.68-10.93-8.65-14.22a17,17,0,0,1,3.1-5c-.66-.18-2.08-.47-3-.64.1-.44.21-.89.31-1.31a9.26,9.26,0,0,0-3,.14l0-1a12.66,12.66,0,0,0-3.87-.25q.17.71.33,1.44c-1,.19-2.52.5-3.25.7a14.41,14.41,0,0,1,3.05,5.58c-2.94,5-14.36,37.51,4.22,39.95S329.44,154.21,324,144Z"/><path class="cls-9" d="M308.26,128.46a6.26,6.26,0,0,0-.15,1.56c0,.38,1,.63,2.11.73s5.77.3,5.62-.23.23-1.22.25-1.66-1.85-.46-3.42-.4S308.57,127.9,308.26,128.46Z"/><path class="cls-9" d="M297.45,166.06h.92c.18,0,.32-.09.31-.21l-.43-3.95c0-.12-.17-.21-.36-.21H297c-.18,0-.32.09-.31.21l.43,3.95C297.1,166,297.26,166.06,297.45,166.06Z"/></g></g></svg>