<svg width="394" height="356" viewBox="0 0 394 356" fill="none" xmlns="http://www.w3.org/2000/svg">
<path d="M393.79 326.32H372.11V326.57H393.79V326.32Z" fill="#EBEBEB"/>
<path d="M288.56 321.13H254.45V321.38H288.56V321.13Z" fill="#EBEBEB"/>
<path d="M385 317.04H340.47V317.29H385V317.04Z" fill="#EBEBEB"/>
<path d="M116.91 322.08H105.77V322.33H116.91V322.08Z" fill="#EBEBEB"/>
<path d="M96.86 322.08H58.47V322.33H96.86V322.08Z" fill="#EBEBEB"/>
<path d="M37.9 317.86H10.2V318.11H37.9V317.86Z" fill="#EBEBEB"/>
<path d="M58.87 102.45C64.4157 102.45 69.7343 100.247 73.6557 96.3256C77.577 92.4042 79.78 87.0857 79.78 81.54C79.78 75.9943 77.577 70.6758 73.6557 66.7544C69.7343 62.833 64.4157 60.63 58.87 60.63H56.3V102.45H58.87Z" fill="#E0E0E0"/>
<path d="M56.3 102.45C67.8483 102.45 77.21 93.0883 77.21 81.54C77.21 69.9917 67.8483 60.63 56.3 60.63C44.7517 60.63 35.39 69.9917 35.39 81.54C35.39 93.0883 44.7517 102.45 56.3 102.45Z" fill="#F5F5F5"/>
<path d="M55.34 84.17C47.9139 84.17 40.792 81.22 35.541 75.9689C30.29 70.7179 27.34 63.596 27.34 56.17V39.46C27.34 39.1146 27.408 38.7726 27.5402 38.4535C27.6723 38.1344 27.8661 37.8445 28.1103 37.6003C28.3545 37.356 28.6444 37.1623 28.9635 37.0302C29.2826 36.898 29.6246 36.83 29.97 36.83C30.3153 36.83 30.6573 36.898 30.9764 37.0302C31.2955 37.1623 31.5854 37.356 31.8297 37.6003C32.0739 37.8445 32.2676 38.1344 32.3998 38.4535C32.5319 38.7726 32.6 39.1146 32.6 39.46V56.18C32.6053 62.2094 35.0028 67.9903 39.2662 72.2537C43.5296 76.5171 49.3106 78.9147 55.34 78.92C55.6983 78.8978 56.0574 78.9493 56.3951 79.0712C56.7328 79.1931 57.042 79.3829 57.3035 79.6288C57.5651 79.8747 57.7736 80.1716 57.9161 80.5012C58.0585 80.8307 58.1321 81.1859 58.1321 81.545C58.1321 81.904 58.0585 82.2592 57.9161 82.5888C57.7736 82.9183 57.5651 83.2152 57.3035 83.4611C57.042 83.707 56.7328 83.8968 56.3951 84.0187C56.0574 84.1406 55.6983 84.1921 55.34 84.17Z" fill="#E0E0E0"/>
<path d="M6.72006 54.18H53.2401C53.984 54.1801 54.7181 54.0094 55.3857 53.6811C56.0533 53.3528 56.6366 52.8756 57.0907 52.2862C57.5448 51.6969 57.8575 51.0112 58.0048 50.2819C58.152 49.5527 58.1299 48.7993 57.9401 48.08L53.9401 32.84C53.6664 31.805 53.0579 30.8897 52.2095 30.2367C51.3612 29.5837 50.3206 29.2297 49.2501 29.23H10.7601C9.68822 29.2292 8.64618 29.5828 7.79614 30.2357C6.9461 30.8886 6.33574 31.8042 6.06006 32.84L2.00006 48.08C1.80769 48.8011 1.78434 49.5569 1.93182 50.2885C2.07931 51.0201 2.39365 51.7079 2.85039 52.2981C3.30712 52.8884 3.89392 53.3653 4.5651 53.6917C5.23628 54.0181 5.97374 54.1852 6.72006 54.18V54.18Z" fill="#F5F5F5"/>
<path d="M354.17 102.45C359.716 102.45 365.034 100.247 368.956 96.3256C372.877 92.4042 375.08 87.0857 375.08 81.54C375.08 75.9943 372.877 70.6758 368.956 66.7544C365.034 62.833 359.716 60.63 354.17 60.63H351.6V102.45H354.17Z" fill="#E0E0E0"/>
<path d="M351.6 102.45C363.148 102.45 372.51 93.0883 372.51 81.54C372.51 69.9917 363.148 60.63 351.6 60.63C340.052 60.63 330.69 69.9917 330.69 81.54C330.69 93.0883 340.052 102.45 351.6 102.45Z" fill="#F5F5F5"/>
<path d="M350.64 84.17C343.214 84.17 336.092 81.22 330.841 75.9689C325.59 70.7179 322.64 63.596 322.64 56.17V39.46C322.64 38.7624 322.917 38.0935 323.41 37.6003C323.904 37.107 324.572 36.83 325.27 36.83C325.968 36.83 326.636 37.107 327.13 37.6003C327.623 38.0935 327.9 38.7624 327.9 39.46V56.18C327.905 62.2076 330.301 67.987 334.563 72.2502C338.824 76.5133 344.602 78.912 350.63 78.92C350.988 78.8978 351.347 78.9493 351.685 79.0712C352.023 79.1931 352.332 79.3829 352.594 79.6288C352.855 79.8747 353.064 80.1716 353.206 80.5012C353.349 80.8307 353.422 81.1859 353.422 81.545C353.422 81.904 353.349 82.2592 353.206 82.5888C353.064 82.9183 352.855 83.2152 352.594 83.4611C352.332 83.707 352.023 83.8968 351.685 84.0187C351.347 84.1406 350.988 84.1921 350.63 84.17H350.64Z" fill="#E0E0E0"/>
<path d="M302 54.18H348.52C349.264 54.1801 349.998 54.0094 350.666 53.6811C351.333 53.3528 351.917 52.8756 352.371 52.2862C352.825 51.6969 353.137 51.0112 353.285 50.2819C353.432 49.5527 353.41 48.7993 353.22 48.08L349.22 32.84C348.946 31.805 348.338 30.8897 347.489 30.2367C346.641 29.5837 345.6 29.2297 344.53 29.23H306.06C304.988 29.2275 303.945 29.5805 303.094 30.2336C302.244 30.8868 301.634 31.8034 301.36 32.84L297.36 48.08C297.171 48.7945 297.148 49.5425 297.292 50.2673C297.436 50.9921 297.743 51.6745 298.191 52.2627C298.638 52.8508 299.214 53.3292 299.874 53.6614C300.534 53.9937 301.261 54.171 302 54.18V54.18Z" fill="#F5F5F5"/>
<path d="M77.87 243.68H93.08L93.08 184.75H77.87V243.68Z" fill="#E6E6E6"/>
<path d="M36.64 243.68H87.11L94.73 174.71H44.26L36.64 243.68Z" fill="#F0F0F0"/>
<path d="M31.17 243.68H83.31L90.93 174.71H38.8L31.17 243.68Z" fill="#F5F5F5"/>
<path d="M79.54 238.25L85.96 180.14H42.56L36.14 238.25H79.54Z" fill="white"/>
<path d="M70.58 224.16L70.84 221.79C72.45 207.22 63.35 194.23 51.52 194.23L51.26 196.59C49.65 211.17 58.75 224.16 70.58 224.16V224.16Z" fill="#F5F5F5"/>
<path d="M2.97006 310.23H47.8101L47.8101 243.68H2.97006L2.97006 310.23Z" fill="#E6E6E6"/>
<path d="M7.47997 310.23H2.96997V297.4H12.21L7.47997 310.23Z" fill="#F0F0F0"/>
<path d="M128.64 310.23H173.48V243.68H128.64V310.23Z" fill="#E6E6E6"/>
<path d="M2.96996 302.35H132.58V243.68H2.96996V302.35Z" fill="#F0F0F0"/>
<path d="M128.07 310.23H132.58V297.4H123.34L128.07 310.23Z" fill="#F0F0F0"/>
<path d="M6.46996 271.03H129.08V247.35H6.46996V271.03Z" fill="#E6E6E6"/>
<path d="M59.5999 262.78H75.9999C79.5143 262.781 82.9919 262.066 86.2208 260.678C89.4496 259.291 92.3619 257.26 94.7799 254.71H40.8199C43.2387 257.259 46.1511 259.289 49.3798 260.677C52.6085 262.064 56.0858 262.78 59.5999 262.78Z" fill="#F0F0F0"/>
<path d="M6.46996 298.53H129.08V274.85H6.46996V298.53Z" fill="#E6E6E6"/>
<path d="M59.5999 290.29H75.9999C79.5153 290.291 82.9939 289.576 86.223 288.186C89.4522 286.797 92.3638 284.763 94.7799 282.21H40.8199C43.2368 284.762 46.1486 286.795 49.3776 288.185C52.6065 289.574 56.0848 290.29 59.5999 290.29Z" fill="#F0F0F0"/>
<path d="M124.37 241H125.53C125.53 238.61 125.53 232.56 125.65 218.68C125.86 193.54 126.26 192.01 126.26 192.01L123.5 203.62C121.75 216.44 124 229.36 124.37 241Z" fill="#E6E6E6"/>
<path d="M122.08 201.86C118.08 197.12 109.63 195.75 100.94 194.57C97.53 194.11 109.94 201.9 115.94 207.43C120.63 211.73 123.64 212.92 124.94 217.2C125.61 211.86 125.5 205.93 122.08 201.86Z" fill="#E6E6E6"/>
<path d="M127.34 210.31C131.34 205.58 139.8 204.2 148.48 203.03C151.89 202.56 139.48 210.35 133.48 215.89C128.78 220.19 125.78 221.37 124.48 225.66C123.82 220.32 123.92 214.39 127.34 210.31Z" fill="#E6E6E6"/>
<path d="M125.65 190.87C128.65 185.21 136.11 179.87 144.52 177.87C147.81 177.07 136.87 188.31 132.71 195.55C129.48 201.18 125.2 207.79 124.53 212.55C123.53 203.13 122.67 196.52 125.65 190.87Z" fill="#E6E6E6"/>
<path d="M125.29 243.68C121.75 243.68 118.82 241.9 118.61 239.63L118.02 235.74H132.56L131.97 239.63C131.77 241.9 128.84 243.68 125.29 243.68Z" fill="#F0F0F0"/>
<path d="M133.51 237.24H117.08L116.61 232.91H133.98L133.51 237.24Z" fill="#F0F0F0"/>
<path d="M113.42 154.55L273.63 154.55V8.42004L113.42 8.42004L113.42 154.55Z" fill="#E6E6E6"/>
<path d="M109.83 154.55L272.07 154.55V8.42004L109.83 8.42004L109.83 154.55Z" fill="#F5F5F5"/>
<path d="M265.6 148.01V14.97L116.3 14.97V148.01H265.6Z" fill="#FAFAFA"/>
<path d="M247.28 148L188.51 14.96H168.56L227.32 148H247.28Z" fill="white"/>
<path d="M221.66 148L162.9 14.96H149.16L207.92 148H221.66Z" fill="white"/>
<path d="M171.74 148V14.96H164.02V148H171.74Z" fill="#E6E6E6"/>
<path d="M223.06 148V14.96H215.34V148H223.06Z" fill="#E6E6E6"/>
<path d="M170.34 152.16V10.1H160.58V152.16H170.34Z" fill="#F5F5F5"/>
<path d="M221.66 152.16V10.1H211.9V152.16H221.66Z" fill="#F5F5F5"/>
<path d="M116.98 148.01L116.98 14.97H116.29L116.29 148.01H116.98Z" fill="#E6E6E6"/>
<path d="M107.11 2.11209e-09H280.67C280.891 -1.56631e-05 281.103 0.0871101 281.26 0.242484C281.418 0.397859 281.507 0.608956 281.51 0.83V0.83C281.507 1.05198 281.418 1.26413 281.261 1.4211C281.104 1.57807 280.892 1.6674 280.67 1.67H107.11C106.888 1.6674 106.676 1.57807 106.519 1.4211C106.362 1.26413 106.273 1.05198 106.27 0.83V0.83C106.273 0.608956 106.362 0.397859 106.52 0.242484C106.677 0.0871101 106.889 -1.56631e-05 107.11 2.11209e-09V2.11209e-09Z" fill="#E6E6E6"/>
<path d="M273.64 5.50996C273.938 5.50732 274.223 5.3871 274.433 5.17547C274.642 4.96384 274.76 4.67793 274.76 4.37996V1.99996C274.765 1.84907 274.74 1.69864 274.687 1.55755C274.633 1.41647 274.551 1.28758 274.447 1.17852C274.343 1.06945 274.217 0.982417 274.079 0.922549C273.94 0.862682 273.791 0.831197 273.64 0.829956V0.829956C273.489 0.831232 273.339 0.862662 273.2 0.922411C273.061 0.982161 272.935 1.06903 272.83 1.17795C272.724 1.28687 272.642 1.41566 272.587 1.5568C272.532 1.69793 272.506 1.84858 272.51 1.99996V4.37996C272.513 4.67884 272.633 4.96475 272.844 5.1761C273.055 5.38745 273.341 5.50735 273.64 5.50996V5.50996Z" fill="#E6E6E6"/>
<path d="M119.69 5.50996C119.989 5.50735 120.275 5.38745 120.486 5.1761C120.698 4.96475 120.817 4.67884 120.82 4.37996V1.99996C120.824 1.84858 120.798 1.69793 120.743 1.5568C120.688 1.41566 120.606 1.28687 120.5 1.17795C120.395 1.06903 120.269 0.982161 120.13 0.922411C119.991 0.862662 119.841 0.831232 119.69 0.829956V0.829956C119.539 0.831197 119.39 0.862682 119.251 0.922549C119.113 0.982417 118.987 1.06945 118.883 1.17852C118.779 1.28758 118.697 1.41647 118.643 1.55755C118.59 1.69864 118.565 1.84907 118.57 1.99996V4.37996C118.57 4.67793 118.688 4.96384 118.897 5.17547C119.107 5.3871 119.392 5.50732 119.69 5.50996V5.50996Z" fill="#E6E6E6"/>
<path opacity="0.6" d="M107.37 115.28L269.5 115.28V0.840034L107.37 0.840034V115.28Z" fill="#E0E0E0"/>
<path d="M284.18 187.8H256.22C253.249 187.8 250.84 190.209 250.84 193.18V206.12C250.84 209.091 253.249 211.5 256.22 211.5H284.18C287.151 211.5 289.56 209.091 289.56 206.12V193.18C289.56 190.209 287.151 187.8 284.18 187.8Z" fill="#FAFAFA"/>
<path d="M287.75 183.42H252.65C251.65 183.42 250.84 184.23 250.84 185.23V186.69C250.84 187.69 251.65 188.5 252.65 188.5H287.75C288.75 188.5 289.56 187.69 289.56 186.69V185.23C289.56 184.23 288.75 183.42 287.75 183.42Z" fill="#E6E6E6"/>
<path d="M251.41 237.78C251.41 237.78 251.92 254.45 271.34 254.45C290.76 254.45 291.27 237.78 291.27 237.78H251.41Z" fill="#F0F0F0"/>
<path d="M295.69 237.78C295.69 237.78 296.2 254.45 315.62 254.45C335.04 254.45 335.55 237.78 335.55 237.78H295.69Z" fill="#F0F0F0"/>
<path d="M325.93 177.06H287.53C283.443 177.06 280.13 180.373 280.13 184.46V204.1C280.13 208.187 283.443 211.5 287.53 211.5H325.93C330.017 211.5 333.33 208.187 333.33 204.1V184.46C333.33 180.373 330.017 177.06 325.93 177.06Z" fill="#F0F0F0"/>
<path d="M330.85 171.05H282.61C281.24 171.05 280.13 172.16 280.13 173.53V175.55C280.13 176.92 281.24 178.03 282.61 178.03H330.85C332.22 178.03 333.33 176.92 333.33 175.55V173.53C333.33 172.16 332.22 171.05 330.85 171.05Z" fill="#F5F5F5"/>
<path d="M236.78 310.23H241.82V227.59H236.78V310.23Z" fill="#E6E6E6"/>
<path d="M382.31 211.5H355.02V227.58H382.31V211.5Z" fill="#E6E6E6"/>
<path d="M219.33 227.58L355.01 227.58V211.5L219.33 211.5V227.58Z" fill="#F5F5F5"/>
<path d="M382.31 254.45H355.02V270.53H382.31V254.45Z" fill="#E6E6E6"/>
<path d="M219.33 270.52H355.01V254.44L219.33 254.44V270.52Z" fill="#F5F5F5"/>
<path d="M372.46 310.23H377.5V227.59H372.46V310.23Z" fill="#E6E6E6"/>
<path d="M349.97 310.23H355.01V227.59H349.97V310.23Z" fill="#F5F5F5"/>
<path d="M219.33 310.23H224.37V227.59H219.33V310.23Z" fill="#F5F5F5"/>
<path d="M193.89 355.39C300.972 355.39 387.78 350.322 387.78 344.07C387.78 337.818 300.972 332.75 193.89 332.75C86.8075 332.75 0 337.818 0 344.07C0 350.322 86.8075 355.39 193.89 355.39Z" fill="#F5F5F5"/>
<path d="M204.3 293.32H76.7299C74.6794 293.293 72.7149 292.492 71.231 291.077C69.747 289.661 68.8535 287.737 68.7299 285.69L57.2899 64.14C57.2266 63.1554 57.3671 62.1683 57.7028 61.2405C58.0384 60.3127 58.562 59.4641 59.2406 58.7479C59.9193 58.0318 60.7384 57.4633 61.6468 57.0783C62.5552 56.6932 63.5333 56.4997 64.5199 56.51H192.1C194.15 56.5366 196.115 57.338 197.599 58.7534C199.083 60.1687 199.976 62.0931 200.1 64.14L211.52 285.69C211.583 286.674 211.443 287.66 211.108 288.587C210.773 289.514 210.25 290.362 209.573 291.078C208.895 291.794 208.077 292.363 207.17 292.749C206.263 293.134 205.286 293.329 204.3 293.32V293.32Z" fill="#407BFF"/>
<path opacity="0.8" d="M204.3 293.32H76.7299C74.6794 293.293 72.7149 292.492 71.231 291.077C69.747 289.661 68.8535 287.737 68.7299 285.69L57.2899 64.14C57.2266 63.1554 57.3671 62.1683 57.7028 61.2405C58.0384 60.3127 58.562 59.4641 59.2406 58.7479C59.9193 58.0318 60.7384 57.4633 61.6468 57.0783C62.5552 56.6932 63.5333 56.4997 64.5199 56.51H192.1C194.15 56.5366 196.115 57.338 197.599 58.7534C199.083 60.1687 199.976 62.0931 200.1 64.14L211.52 285.69C211.583 286.674 211.443 287.66 211.108 288.587C210.773 289.514 210.25 290.362 209.573 291.078C208.895 291.794 208.077 292.363 207.17 292.749C206.263 293.134 205.286 293.329 204.3 293.32V293.32Z" fill="#017663"/>
<path d="M179.51 49.28H165.4V50.28H179.51V49.28Z" fill="#407BFF"/>
<path d="M160.51 49.28H155.34V50.28H160.51V49.28Z" fill="#407BFF"/>
<path d="M209.79 279.27H87.79C85.8276 279.251 83.9447 278.492 82.5186 277.144C81.0925 275.796 80.2286 273.958 80.1 272L69.18 60.0799C69.1194 59.1377 69.254 58.1931 69.5753 57.3052C69.8966 56.4173 70.3977 55.6054 71.0473 54.9201C71.6969 54.2348 72.4809 53.6911 73.3504 53.3228C74.2198 52.9545 75.1559 52.7697 76.1 52.7799H198.1C200.065 52.8016 201.948 53.5667 203.371 54.9212C204.794 56.2756 205.651 58.1189 205.77 60.0799L216.71 272C216.766 272.94 216.629 273.881 216.305 274.765C215.982 275.65 215.48 276.458 214.831 277.14C214.182 277.822 213.4 278.363 212.532 278.729C211.665 279.096 210.732 279.28 209.79 279.27Z" fill="#25B099"/>
<path d="M209.79 274.4H87.79C87.078 274.371 86.4014 274.082 85.8875 273.588C85.3736 273.095 85.058 272.43 85 271.72L74.05 59.8299C74.0276 59.5467 74.064 59.262 74.1569 58.9935C74.2498 58.725 74.3973 58.4787 74.59 58.2699C74.7848 58.068 75.02 57.9094 75.2801 57.8043C75.5403 57.6992 75.8196 57.65 76.1 57.6599H198.1C198.813 57.6845 199.492 57.97 200.008 58.4622C200.524 58.9544 200.842 59.6191 200.9 60.3299L211.82 272.22C211.846 272.502 211.811 272.785 211.719 273.053C211.627 273.32 211.479 273.565 211.285 273.771C211.091 273.977 210.856 274.139 210.595 274.248C210.334 274.356 210.053 274.408 209.77 274.4H209.79ZM76.1 57.9099C75.8515 57.9002 75.6037 57.9438 75.3735 58.0378C75.1432 58.1319 74.9358 58.2742 74.7653 58.4552C74.5947 58.6362 74.4649 58.8517 74.3846 59.0871C74.3044 59.3225 74.2755 59.5724 74.3 59.8199L85.22 271.71C85.2757 272.359 85.5666 272.965 86.0381 273.415C86.5096 273.864 87.1291 274.125 87.78 274.15H209.78C210.027 274.157 210.273 274.113 210.502 274.02C210.731 273.927 210.938 273.787 211.11 273.61C211.279 273.427 211.408 273.21 211.489 272.974C211.57 272.738 211.601 272.488 211.58 272.24L200.67 60.3499C200.617 59.7018 200.328 59.0957 199.858 58.6461C199.388 58.1965 198.77 57.9346 198.12 57.9099H76.1Z" fill="white"/>
<path opacity="0.3" d="M167.12 134.882C180.996 120.643 180.093 97.2571 165.102 82.6486C150.111 68.0401 126.71 67.7408 112.834 81.9801C98.9574 96.2194 99.8611 119.605 114.852 134.214C129.843 148.822 153.244 149.121 167.12 134.882Z" fill="white"/>
<path d="M169.86 108.44C170.147 113.354 169.162 118.258 167 122.68C164.666 127.425 161.036 131.412 156.531 134.18C152.025 136.948 146.828 138.383 141.54 138.32C136.06 138.273 130.686 136.807 125.94 134.067C121.195 131.326 117.24 127.403 114.46 122.68C111.871 118.359 110.381 113.47 110.12 108.44C109.872 104.582 110.423 100.714 111.739 97.079C113.055 93.4439 115.108 90.1197 117.768 87.3146C120.429 84.5096 123.64 82.2841 127.201 80.7777C130.761 79.2713 134.594 78.5163 138.46 78.56C146.502 78.6489 154.211 81.7803 160.037 87.3242C165.863 92.868 169.373 100.413 169.86 108.44V108.44Z" fill="white"/>
<path d="M166.863 122.68C164.529 127.425 160.899 131.412 156.394 134.18C151.888 136.948 146.691 138.383 141.403 138.32C135.923 138.273 130.549 136.807 125.803 134.066C121.058 131.326 117.103 127.403 114.323 122.68C121.921 117.43 130.948 114.638 140.183 114.68C149.662 114.714 158.929 117.493 166.863 122.68V122.68Z" fill="#38C6AE"/>
<path d="M149.231 107.751C154.23 102.621 153.903 94.1943 148.499 88.9291C143.096 83.6639 134.664 83.5543 129.665 88.6844C124.665 93.8145 124.993 102.242 130.396 107.507C135.799 112.772 144.231 112.882 149.231 107.751Z" fill="#38C6AE"/>
<path d="M192.3 196.85H96.77C95.9379 196.841 95.14 196.518 94.537 195.945C93.9339 195.371 93.5705 194.591 93.52 193.76L92.8 179.76C92.7753 179.361 92.8329 178.962 92.9693 178.586C93.1057 178.211 93.3179 177.868 93.5928 177.578C93.8677 177.288 94.1993 177.058 94.567 176.901C94.9347 176.745 95.3306 176.667 95.73 176.67H191.26C192.092 176.679 192.89 177.002 193.493 177.576C194.096 178.149 194.459 178.929 194.51 179.76L195.23 193.76C195.256 194.159 195.2 194.559 195.064 194.935C194.928 195.311 194.716 195.655 194.441 195.946C194.165 196.236 193.833 196.466 193.465 196.622C193.096 196.777 192.7 196.855 192.3 196.85V196.85Z" fill="white"/>
<path opacity="0.3" d="M163.05 168.92H123.15C122.318 168.912 121.52 168.588 120.917 168.015C120.314 167.441 119.951 166.661 119.9 165.83L119.74 162.83C119.717 162.432 119.775 162.034 119.912 161.66C120.049 161.285 120.262 160.943 120.537 160.654C120.811 160.366 121.142 160.136 121.509 159.981C121.876 159.825 122.271 159.747 122.67 159.75H162.57C163.4 159.759 164.197 160.081 164.8 160.652C165.403 161.223 165.767 162.001 165.82 162.83L165.98 165.83C166.005 166.229 165.947 166.628 165.811 167.004C165.674 167.379 165.462 167.723 165.187 168.012C164.912 168.302 164.581 168.533 164.213 168.689C163.845 168.845 163.449 168.924 163.05 168.92V168.92Z" fill="#38C6AE"/>
<path opacity="0.3" d="M177.88 264.13H118.12C116.704 264.115 115.346 263.564 114.32 262.588C113.294 261.612 112.676 260.283 112.59 258.87L112.24 251.98C112.196 251.3 112.293 250.618 112.525 249.977C112.757 249.336 113.119 248.75 113.589 248.256C114.059 247.762 114.626 247.37 115.254 247.106C115.882 246.842 116.558 246.71 117.24 246.72H177C178.415 246.737 179.772 247.289 180.797 248.265C181.823 249.24 182.442 250.567 182.53 251.98L182.88 258.87C182.924 259.55 182.827 260.232 182.595 260.873C182.363 261.514 182.001 262.1 181.531 262.594C181.061 263.088 180.494 263.48 179.866 263.744C179.238 264.008 178.562 264.14 177.88 264.13Z" fill="#38C6AE"/>
<path d="M194.05 230.68H98.5099C97.6779 230.671 96.88 230.348 96.2769 229.774C95.6739 229.201 95.3105 228.421 95.2599 227.59L94.5399 213.59C94.5137 213.191 94.5703 212.791 94.7061 212.415C94.842 212.039 95.0542 211.695 95.3293 211.404C95.6045 211.114 95.9367 210.884 96.3051 210.728C96.6735 210.573 97.0701 210.495 97.4699 210.5H193C193.832 210.509 194.63 210.832 195.233 211.405C195.836 211.979 196.199 212.759 196.25 213.59L196.98 227.59C197.005 227.989 196.947 228.388 196.811 228.764C196.674 229.139 196.462 229.483 196.187 229.772C195.912 230.062 195.581 230.292 195.213 230.449C194.845 230.605 194.449 230.683 194.05 230.68V230.68Z" fill="white"/>
<path d="M108.92 186.74C108.948 187.182 108.884 187.625 108.732 188.041C108.581 188.457 108.345 188.837 108.04 189.158C107.735 189.479 107.367 189.734 106.96 189.906C106.552 190.079 106.113 190.165 105.67 190.16C104.75 190.149 103.869 189.79 103.203 189.156C102.537 188.521 102.136 187.658 102.08 186.74C102.051 186.299 102.114 185.856 102.264 185.44C102.414 185.024 102.649 184.643 102.953 184.322C103.257 184.001 103.624 183.746 104.032 183.574C104.439 183.401 104.878 183.315 105.32 183.32C106.241 183.331 107.124 183.689 107.791 184.324C108.459 184.958 108.862 185.821 108.92 186.74V186.74Z" fill="#263238"/>
<path d="M119.42 186.74C119.449 187.181 119.386 187.624 119.236 188.04C119.086 188.456 118.851 188.837 118.547 189.158C118.243 189.479 117.876 189.734 117.468 189.906C117.061 190.079 116.622 190.165 116.18 190.16C115.26 190.151 114.377 189.793 113.71 189.158C113.044 188.524 112.643 187.659 112.59 186.74C112.561 186.299 112.624 185.856 112.774 185.44C112.924 185.024 113.159 184.643 113.463 184.322C113.767 184.001 114.134 183.746 114.542 183.574C114.949 183.401 115.388 183.315 115.83 183.32C116.751 183.329 117.633 183.687 118.3 184.322C118.966 184.957 119.367 185.821 119.42 186.74V186.74Z" fill="#263238"/>
<path d="M129.93 186.74C129.959 187.181 129.896 187.624 129.746 188.04C129.596 188.456 129.361 188.837 129.057 189.158C128.753 189.479 128.386 189.734 127.978 189.906C127.571 190.079 127.132 190.165 126.69 190.16C125.769 190.149 124.886 189.791 124.219 189.157C123.551 188.522 123.148 187.659 123.09 186.74C123.062 186.298 123.126 185.855 123.278 185.439C123.429 185.023 123.665 184.643 123.97 184.322C124.275 184.001 124.643 183.746 125.05 183.574C125.458 183.401 125.897 183.315 126.34 183.32C127.26 183.331 128.141 183.69 128.807 184.324C129.473 184.959 129.874 185.822 129.93 186.74V186.74Z" fill="#263238"/>
<path d="M140.44 186.74C140.467 187.181 140.404 187.623 140.253 188.039C140.102 188.454 139.868 188.834 139.564 189.155C139.26 189.475 138.893 189.73 138.487 189.903C138.08 190.076 137.642 190.164 137.2 190.16C136.279 190.149 135.396 189.791 134.729 189.157C134.061 188.522 133.658 187.659 133.6 186.74C133.571 186.299 133.634 185.856 133.784 185.44C133.934 185.024 134.169 184.643 134.473 184.322C134.777 184.001 135.144 183.746 135.552 183.574C135.959 183.401 136.398 183.315 136.84 183.32C137.761 183.331 138.644 183.689 139.311 184.324C139.979 184.958 140.382 185.821 140.44 186.74V186.74Z" fill="#263238"/>
<path d="M110.66 220.58C110.687 221.021 110.624 221.463 110.473 221.878C110.322 222.294 110.088 222.674 109.784 222.995C109.48 223.315 109.113 223.57 108.706 223.743C108.3 223.916 107.862 224.004 107.42 224C106.499 223.989 105.616 223.631 104.949 222.997C104.281 222.362 103.878 221.499 103.82 220.58C103.792 220.139 103.856 219.697 104.007 219.282C104.158 218.866 104.392 218.486 104.696 218.165C105 217.845 105.367 217.59 105.773 217.417C106.18 217.244 106.618 217.156 107.06 217.16C107.981 217.171 108.863 217.529 109.531 218.164C110.199 218.798 110.602 219.661 110.66 220.58Z" fill="#263238"/>
<path d="M121.17 220.58C121.196 221.021 121.131 221.464 120.979 221.879C120.827 222.295 120.592 222.674 120.287 222.995C119.982 223.316 119.615 223.57 119.208 223.743C118.801 223.916 118.362 224.003 117.92 224C117.001 223.987 116.121 223.627 115.455 222.993C114.79 222.359 114.388 221.497 114.33 220.58C114.301 220.138 114.364 219.696 114.514 219.28C114.664 218.864 114.899 218.483 115.203 218.162C115.507 217.841 115.874 217.586 116.282 217.414C116.689 217.241 117.128 217.155 117.57 217.16C118.491 217.171 119.374 217.529 120.041 218.163C120.709 218.798 121.112 219.661 121.17 220.58Z" fill="#263238"/>
<path d="M131.67 220.58C131.697 221.021 131.634 221.463 131.483 221.878C131.332 222.294 131.098 222.674 130.794 222.995C130.49 223.315 130.123 223.57 129.717 223.743C129.31 223.916 128.872 224.003 128.43 224C127.51 223.989 126.629 223.63 125.963 222.996C125.297 222.361 124.896 221.498 124.84 220.58C124.811 220.138 124.874 219.696 125.024 219.28C125.174 218.864 125.409 218.483 125.713 218.162C126.017 217.841 126.384 217.586 126.792 217.414C127.199 217.241 127.638 217.155 128.08 217.16C129.001 217.168 129.883 217.526 130.55 218.161C131.216 218.796 131.617 219.661 131.67 220.58V220.58Z" fill="#263238"/>
<path d="M142.18 220.58C142.207 221.021 142.144 221.463 141.993 221.879C141.842 222.294 141.608 222.674 141.304 222.995C141 223.316 140.633 223.57 140.226 223.743C139.82 223.916 139.382 224.004 138.94 224C138.019 223.989 137.136 223.631 136.469 222.997C135.801 222.362 135.398 221.499 135.34 220.58C135.312 220.138 135.376 219.695 135.528 219.279C135.679 218.863 135.915 218.483 136.22 218.162C136.525 217.841 136.893 217.586 137.3 217.414C137.708 217.242 138.147 217.155 138.59 217.16C139.51 217.171 140.391 217.53 141.057 218.164C141.723 218.799 142.124 219.662 142.18 220.58V220.58Z" fill="#263238"/>
<path d="M152.69 220.58C152.717 221.021 152.654 221.463 152.503 221.878C152.352 222.294 152.118 222.674 151.814 222.995C151.51 223.315 151.143 223.57 150.736 223.743C150.33 223.916 149.892 224.004 149.45 224C148.529 223.989 147.646 223.631 146.979 222.997C146.311 222.362 145.908 221.499 145.85 220.58C145.823 220.139 145.886 219.697 146.037 219.282C146.188 218.866 146.422 218.486 146.726 218.165C147.03 217.845 147.397 217.59 147.803 217.417C148.21 217.244 148.648 217.156 149.09 217.16C150.011 217.171 150.894 217.529 151.561 218.164C152.229 218.798 152.632 219.661 152.69 220.58Z" fill="#263238"/>
<path d="M163.2 220.58C163.226 221.017 163.162 221.455 163.013 221.867C162.865 222.279 162.633 222.657 162.334 222.977C162.035 223.297 161.673 223.552 161.272 223.728C160.871 223.904 160.438 223.997 160 224C159.08 223.989 158.199 223.63 157.533 222.996C156.867 222.361 156.465 221.498 156.41 220.58C156.381 220.138 156.444 219.696 156.594 219.28C156.744 218.864 156.979 218.483 157.283 218.162C157.587 217.841 157.954 217.586 158.362 217.414C158.769 217.241 159.208 217.155 159.65 217.16C160.562 217.183 161.432 217.547 162.09 218.18C162.747 218.813 163.143 219.669 163.2 220.58V220.58Z" fill="#263238"/>
<path d="M276.92 104.45C277.17 104.82 277.3 105.03 277.46 105.29L277.91 106.04C278.2 106.54 278.45 107.04 278.71 107.53C279.21 108.53 279.71 109.53 280.11 110.53C280.948 112.519 281.67 114.556 282.27 116.63C283.482 120.72 284.279 124.921 284.65 129.17L284.72 129.96C284.732 130.116 284.732 130.274 284.72 130.43V130.97C284.731 131.665 284.691 132.361 284.6 133.05C284.414 134.325 284.079 135.574 283.6 136.77C282.732 138.921 281.567 140.941 280.14 142.77C277.504 146.164 274.369 149.138 270.84 151.59L268.08 148.36C270.589 145.522 272.813 142.443 274.72 139.17C275.576 137.684 276.247 136.099 276.72 134.45C276.909 133.751 277.02 133.033 277.05 132.31C277.081 132.001 277.081 131.689 277.05 131.38V131.16C277.059 131.07 277.059 130.98 277.05 130.89L276.93 130.19C276.286 126.463 275.377 122.787 274.21 119.19C273.63 117.41 272.92 115.68 272.21 113.99C271.85 113.13 271.46 112.31 271.06 111.5L270.44 110.33L270.13 109.77L269.87 109.34L276.92 104.45Z" fill="#803E3C"/>
<path d="M267.59 151.6L271.21 159.25L274.08 152.78C274.08 152.78 271.53 147.18 268.08 147.69L267.59 151.6Z" fill="#7F3E3B"/>
<path d="M273.8 159.63L276.68 154.91L274.08 152.78L271.21 159.25L273.8 159.63Z" fill="#7F3E3B"/>
<path d="M257.52 336C258.265 335.982 259.007 335.881 259.73 335.7C259.768 335.694 259.802 335.676 259.829 335.649C259.856 335.622 259.874 335.588 259.88 335.55C259.888 335.512 259.885 335.473 259.871 335.438C259.857 335.402 259.832 335.371 259.8 335.35C259.51 335.16 256.97 333.51 255.99 333.96C255.883 334.01 255.79 334.087 255.722 334.183C255.654 334.28 255.612 334.392 255.6 334.51C255.561 334.7 255.571 334.897 255.629 335.082C255.686 335.268 255.79 335.436 255.93 335.57C256.393 335.896 256.956 336.048 257.52 336V336ZM259.17 335.42C257.72 335.71 256.62 335.66 256.17 335.28C256.08 335.188 256.014 335.075 255.979 334.951C255.945 334.826 255.941 334.696 255.97 334.57C255.97 334.516 255.986 334.464 256.017 334.419C256.047 334.374 256.09 334.34 256.14 334.32C256.67 334.12 258.14 334.83 259.17 335.46V335.42Z" fill="#407BFF"/>
<path d="M259.69 335.75C259.742 335.748 259.792 335.726 259.829 335.689C259.866 335.652 259.888 335.602 259.89 335.55C259.89 335.45 259.89 333.04 258.97 332.23C258.857 332.129 258.724 332.053 258.579 332.008C258.434 331.963 258.281 331.95 258.13 331.97C257.972 331.969 257.818 332.024 257.696 332.124C257.574 332.225 257.49 332.365 257.46 332.52C257.27 333.46 258.79 335.27 259.59 335.72C259.62 335.739 259.655 335.75 259.69 335.75V335.75ZM258.26 332.35C258.342 332.35 258.422 332.365 258.498 332.396C258.573 332.427 258.642 332.473 258.7 332.53C259.229 333.307 259.502 334.23 259.48 335.17C258.68 334.53 257.73 333.17 257.85 332.6C257.85 332.5 257.92 332.39 258.17 332.36L258.26 332.35Z" fill="#407BFF"/>
<path d="M248.08 332C248.097 331.971 248.106 331.938 248.106 331.905C248.106 331.872 248.097 331.839 248.08 331.81C248.069 331.77 248.046 331.735 248.013 331.71C247.981 331.685 247.941 331.671 247.9 331.67C247.49 331.67 243.9 331.5 243.08 332.38L243.03 332.44C242.966 332.528 242.925 332.631 242.911 332.74C242.897 332.848 242.91 332.958 242.95 333.06C243.003 333.231 243.097 333.386 243.224 333.512C243.352 333.638 243.508 333.73 243.68 333.78C244.84 334.15 246.89 332.84 248.01 332.03L248.08 332ZM243.42 332.64C243.87 332.16 245.85 332.02 247.33 332.05C245.77 333.1 244.49 333.61 243.84 333.41C243.726 333.373 243.623 333.309 243.54 333.224C243.456 333.139 243.395 333.034 243.36 332.92C243.34 332.881 243.329 332.838 243.329 332.795C243.329 332.751 243.34 332.709 243.36 332.67L243.42 332.64Z" fill="#407BFF"/>
<path d="M248.08 332C248.098 331.97 248.107 331.935 248.107 331.9C248.107 331.865 248.098 331.83 248.08 331.8C248.03 331.72 246.91 329.75 245.59 329.39C245.4 329.334 245.2 329.319 245.004 329.344C244.808 329.37 244.619 329.437 244.45 329.54C243.97 329.82 243.94 330.14 244 330.36C244.26 331.29 246.81 332.11 247.9 332.1C247.936 332.1 247.972 332.091 248.003 332.074C248.035 332.056 248.061 332.031 248.08 332ZM244.49 330C244.548 329.944 244.612 329.894 244.68 329.85C244.806 329.777 244.945 329.73 245.09 329.713C245.234 329.695 245.381 329.708 245.52 329.75C246.367 330.161 247.066 330.825 247.52 331.65C246.34 331.51 244.52 330.78 244.38 330.23C244.369 330.185 244.374 330.137 244.394 330.095C244.414 330.053 244.448 330.02 244.49 330Z" fill="#407BFF"/>
<path d="M259.09 75.16C258.09 80.16 255.93 90.97 259.4 94.29C259.4 94.29 258.04 99.29 248.81 99.29C238.65 99.29 243.95 94.29 243.95 94.29C249.5 92.96 249.35 88.85 248.39 84.99L259.09 75.16Z" fill="#7F3E3B"/>
<path d="M242.16 63.44C242.219 63.4533 242.281 63.4533 242.34 63.44C242.387 63.4176 242.429 63.386 242.464 63.347C242.499 63.308 242.525 63.2625 242.542 63.213C242.559 63.1636 242.566 63.1113 242.562 63.0593C242.558 63.0072 242.544 62.9564 242.52 62.91C242.251 62.3395 241.849 61.842 241.348 61.4592C240.847 61.0763 240.261 60.8194 239.64 60.71C239.542 60.7097 239.446 60.7457 239.373 60.8112C239.299 60.8766 239.253 60.9669 239.241 61.0647C239.23 61.1625 239.256 61.261 239.313 61.3413C239.369 61.4216 239.454 61.4781 239.55 61.5C240.04 61.5956 240.5 61.8059 240.893 62.1135C241.285 62.4212 241.6 62.8175 241.81 63.27C241.85 63.3251 241.902 63.3695 241.964 63.3991C242.025 63.4288 242.092 63.4428 242.16 63.44V63.44Z" fill="#263238"/>
<path d="M239.14 67.78C238.356 69.2415 237.373 70.5876 236.22 71.78C236.53 72.0679 236.899 72.2843 237.302 72.4139C237.704 72.5435 238.13 72.5831 238.55 72.53L239.14 67.78Z" fill="#630F0F"/>
<path d="M239.88 66.7C239.8 67.37 239.37 67.87 238.93 67.82C238.49 67.77 238.21 67.18 238.29 66.5C238.37 65.82 238.8 65.33 239.23 65.39C239.66 65.45 240 66 239.88 66.7Z" fill="#263238"/>
<path d="M239.42 65.45L237.87 64.79C237.87 64.79 238.54 66.15 239.42 65.45Z" fill="#263238"/>
<path d="M256.9 330.06L248.75 331.97L243.79 313.21L251.95 311.3L256.9 330.06Z" fill="#7F3E3B"/>
<path d="M269.43 335.55H261.05L261.71 316.15H270.09L269.43 335.55Z" fill="#7F3E3B"/>
<path d="M260.39 334.58H269.8C269.962 334.578 270.118 334.635 270.242 334.74C270.365 334.845 270.446 334.99 270.47 335.15L271.54 342.6C271.56 342.788 271.539 342.978 271.481 343.157C271.423 343.337 271.327 343.502 271.201 343.643C271.075 343.783 270.92 343.896 270.748 343.973C270.575 344.05 270.389 344.09 270.2 344.09C266.92 344.03 265.34 343.84 261.2 343.84C258.65 343.84 254.93 344.1 251.42 344.1C247.91 344.1 247.71 340.63 249.18 340.31C255.74 338.9 256.78 336.95 258.99 335.1C259.38 334.767 259.876 334.582 260.39 334.58V334.58Z" fill="#263238"/>
<path d="M248 330.72L256.55 326.79C256.696 326.716 256.864 326.699 257.022 326.743C257.18 326.788 257.315 326.89 257.4 327.03L261.49 333.34C261.586 333.503 261.646 333.685 261.668 333.873C261.689 334.061 261.671 334.252 261.614 334.433C261.558 334.613 261.464 334.78 261.34 334.923C261.215 335.065 261.062 335.18 260.89 335.26C257.89 336.58 256.37 337.06 252.61 338.79C250.3 339.86 245.61 342.3 242.43 343.79C239.25 345.28 237.61 342.18 238.81 341.28C244.18 337.28 245.72 334.4 246.95 331.79C247.163 331.321 247.535 330.942 248 330.72V330.72Z" fill="#263238"/>
<path opacity="0.2" d="M243.79 313.21L246.45 323.26L254.51 320.98L251.95 311.31L243.79 313.21Z" fill="black"/>
<path opacity="0.2" d="M270.09 316.16H261.71L261.37 326.16H269.75L270.09 316.16Z" fill="black"/>
<path d="M273.85 96.19C277.33 96.95 281.05 109.47 281.05 109.47L271.21 119.93C271.21 119.93 263.04 108.18 264.71 103.85C266.44 99.35 269.74 95.29 273.85 96.19Z" fill="#DEDEDE"/>
<path opacity="0.4" d="M268.33 104.16C266.57 102.55 265.38 103.03 264.57 104.31C263.77 108.03 268.51 115.82 270.42 118.77C271.3 115.25 272.31 107.82 268.33 104.16Z" fill="black"/>
<path d="M229.8 96.43C229.8 96.43 225.8 97.84 233.8 146.99H267.8C267.23 133.14 267.21 124.6 273.8 96.19C269.036 95.207 264.206 94.572 259.35 94.29C254.207 93.9196 249.043 93.9196 243.9 94.29C237.32 94.89 229.8 96.43 229.8 96.43Z" fill="#DEDEDE"/>
<path opacity="0.4" d="M229.49 115.3C229.71 117.69 230 120.38 230.38 123.42C233.17 120.91 235.45 113.77 234.61 109.61C232.617 111.228 230.889 113.148 229.49 115.3V115.3Z" fill="black"/>
<path d="M233.12 107.85C231.27 112.52 229.23 116.96 226.94 121.4C224.677 125.969 221.999 130.321 218.94 134.4L218.3 135.18L217.98 135.58C217.861 135.73 217.734 135.873 217.6 136.01C217.001 136.666 216.33 137.253 215.6 137.76C214.316 138.657 212.908 139.362 211.42 139.85C208.828 140.677 206.138 141.154 203.42 141.27C198.33 141.472 193.234 141.019 188.26 139.92L188.81 135.72C191.11 135.72 193.52 135.72 195.81 135.53C198.111 135.418 200.402 135.161 202.67 134.76C204.778 134.439 206.84 133.865 208.81 133.05C209.607 132.707 210.351 132.252 211.02 131.7C211.278 131.492 211.509 131.253 211.71 130.99C211.71 130.99 211.83 130.82 211.91 130.72L212.14 130.39L212.61 129.73C215.113 125.851 217.349 121.804 219.3 117.62C221.3 113.36 223.3 108.95 225.13 104.62L233.12 107.85Z" fill="#803E3C"/>
<path d="M229.8 96.43C225.63 97.43 220.51 108.88 220.51 108.88L229.15 121.57C229.15 121.57 240.66 107.09 239.29 102.66C237.86 98.06 234.85 95.2 229.8 96.43Z" fill="#DEDEDE"/>
<path d="M191.22 136.34L184 133L183.28 140.17C183.28 140.17 189.28 141.94 192.28 140.12L191.22 136.34Z" fill="#7F3E3B"/>
<path d="M179.69 132.29L179.01 137.74L183.29 140.18L184.01 133.01L179.69 132.29Z" fill="#7F3E3B"/>
<path d="M262.71 67.19C261.18 75.36 260.71 78.85 256.03 82.56C249.03 88.15 239.28 84.49 238.34 76.03C237.48 68.41 240.12 56.32 248.58 54.03C250.446 53.519 252.411 53.4935 254.29 53.9557C256.168 54.418 257.898 55.3528 259.313 56.6713C260.729 57.9898 261.784 59.6482 262.379 61.4892C262.973 63.3302 263.087 65.2926 262.71 67.19V67.19Z" fill="#7F3E3B"/>
<path d="M244.76 68.91C244.29 73.08 244.11 83.91 253.26 84.24C264.48 84.66 267.84 75.08 266.84 71.24C272.67 66.49 273.52 58.33 266.96 52.08C260.4 45.83 245.96 49.32 241.96 55.41C236.92 63 244.76 68.91 244.76 68.91Z" fill="#BCB6A6"/>
<path d="M256 54.51C255.46 50.11 255.88 47.08 260 47.08C264.12 47.08 269.74 48.57 271.8 52.78C273.86 56.99 274.03 63.58 268.28 62.91C262.53 62.24 256.64 59.77 256 54.51Z" fill="#407BFF"/>
<path d="M262.37 53.45C261.37 48.21 266.06 33.45 277.45 32.45C282.73 32.01 285.17 37.69 282.45 38.63C287.45 38.57 290.65 45.17 285.99 46.17C289.67 48.53 288.76 53.37 283.51 55.75C279.6 57.54 263.72 60.7 262.37 53.45Z" fill="#BCB6A6"/>
<path d="M274.54 59.08C270.87 59.08 267.04 58.54 264.66 56.95C263.995 56.5454 263.436 55.9892 263.028 55.3271C262.619 54.6649 262.373 53.9154 262.31 53.14C262.307 53.0753 262.33 53.012 262.373 52.9635C262.415 52.915 262.476 52.8851 262.54 52.88C262.573 52.8758 262.607 52.8785 262.639 52.8881C262.671 52.8976 262.7 52.9137 262.726 52.9354C262.751 52.957 262.772 52.9837 262.786 53.0138C262.801 53.0438 262.809 53.0766 262.81 53.11C262.868 53.8082 263.091 54.4827 263.462 55.0774C263.832 55.6722 264.339 56.1701 264.94 56.53C269.47 59.53 279.94 58.53 283.2 57.53C286.02 56.61 287.93 54.83 288.31 52.76C288.43 52.004 288.337 51.2296 288.042 50.5233C287.747 49.8169 287.262 49.2065 286.64 48.76C286.611 48.7408 286.587 48.7159 286.568 48.6867C286.549 48.6576 286.537 48.6249 286.531 48.5907C286.526 48.5565 286.528 48.5215 286.537 48.4881C286.546 48.4546 286.561 48.4233 286.583 48.3962C286.604 48.3691 286.631 48.3468 286.662 48.3306C286.692 48.3145 286.726 48.3049 286.761 48.3024C286.795 48.2999 286.83 48.3047 286.862 48.3163C286.895 48.3279 286.925 48.3462 286.95 48.37C287.646 48.8808 288.188 49.5744 288.514 50.3739C288.841 51.1734 288.94 52.0477 288.8 52.9C288.39 55.15 286.35 57.07 283.36 58.05C280.481 58.7929 277.513 59.1394 274.54 59.08V59.08Z" fill="#263238"/>
<path d="M242.21 67.81C241.281 69.1175 240.894 70.7336 241.13 72.32C241.47 74.42 243.51 74.56 244.99 73.21C246.32 72 247.76 69.45 246.67 67.71C246.425 67.337 246.09 67.0324 245.695 66.8249C245.3 66.6174 244.858 66.5137 244.412 66.5237C243.966 66.5337 243.53 66.657 243.145 66.8821C242.76 67.1071 242.438 67.4264 242.21 67.81V67.81Z" fill="#7F3E3B"/>
<path d="M242.78 147C242.78 147 247.64 204.49 252.69 236.89C256.76 263.06 259.97 324.23 259.97 324.23H271.4C271.4 324.23 275.46 264.89 273.4 239C268.17 173.51 279.84 168.17 267.83 147H242.78Z" fill="#25B099"/>
<path opacity="0.4" d="M257.16 168.72C252.634 173.47 248.982 178.981 246.37 185C247.7 197.92 249.28 212.26 250.96 224.82C257.854 206.973 259.99 187.641 257.16 168.72V168.72Z" fill="black"/>
<path d="M234.79 146.63C234.79 146.63 224.24 209.41 222.58 237.72C226.72 263.89 243.66 319.2 243.66 319.2L254.05 315.44C254.05 315.44 248.3 255.12 242.05 238.61C256.12 191.23 266.46 179.26 263.45 146.99C256.24 147 234.79 146.63 234.79 146.63Z" fill="#25B099"/>
<path d="M242.26 321.97L256.31 318.15L255.51 312.56L240.48 316.62L242.26 321.97Z" fill="#263238"/>
<path d="M258.41 324.45H272.96L273.72 319.34L258.33 318.82L258.41 324.45Z" fill="#263238"/>
<path d="M268.33 145L269.86 148C269.98 148.23 269.7 148.47 269.31 148.47H233.63C233.32 148.47 233.07 148.32 233.05 148.13L232.74 145.13C232.74 144.91 232.99 144.74 233.32 144.74H267.77C267.878 144.732 267.986 144.751 268.084 144.797C268.182 144.842 268.267 144.912 268.33 145V145Z" fill="#AAAAAA"/>
<path d="M263.7 148.84H264.62C264.81 148.84 264.95 148.75 264.93 148.63L264.5 144.68C264.5 144.56 264.33 144.47 264.14 144.47H263.22C263.04 144.47 262.9 144.56 262.91 144.68L263.34 148.63C263.36 148.75 263.52 148.84 263.7 148.84Z" fill="#25B099"/>
<path d="M241.34 148.84H242.26C242.44 148.84 242.58 148.75 242.57 148.63L242.14 144.68C242.14 144.56 241.96 144.47 241.78 144.47H240.86C240.67 144.47 240.53 144.56 240.55 144.68L240.98 148.63C241 148.75 241.15 148.84 241.34 148.84Z" fill="#25B099"/>
</svg>
