<svg width="21" height="20" viewBox="0 0 21 20" fill="none" xmlns="http://www.w3.org/2000/svg">
<path d="M11.0589 0.778076C11.4573 1.07928 11.8506 1.36844 12.2558 1.6576C15.0599 3.67167 17.8646 5.68373 20.6699 7.69378C20.7109 7.7239 20.7485 7.75703 20.8049 7.80372L11.0282 14.8429V10.4754C10.4998 10.5387 10.0023 10.5733 9.5013 10.6637C5.94829 11.3203 3.29122 13.0372 1.61047 15.8715C1.08555 16.7571 0.697424 17.7044 0.242612 18.6231C0.178546 18.7642 0.100745 18.9003 0.0100758 19.0297C0.0100758 18.9875 -0.000183105 18.9453 -0.000183105 18.9032C-0.000183105 17.6983 -0.000183105 16.5041 -0.000183105 15.3038C0.0143428 12.919 0.973319 10.6134 2.71132 8.78481C4.44933 6.95619 6.85738 5.71918 9.5201 5.28714C9.94585 5.21937 10.375 5.18925 10.8093 5.13653L11.0179 5.11545V0.778076H11.0589Z" fill="white"/>
</svg>
