<svg width="399" height="347" viewBox="0 0 399 347" fill="none" xmlns="http://www.w3.org/2000/svg">
<path d="M398.158 317.638H365.038V317.888H398.158V317.638Z" fill="#EBEBEB"/>
<path d="M279.478 320.358H270.788V320.608H279.478V320.358Z" fill="#EBEBEB"/>
<path d="M364.038 308.358H344.848V308.608H364.038V308.358Z" fill="#EBEBEB"/>
<path d="M43.9078 310.038H0.717773V310.288H43.9078V310.038Z" fill="#EBEBEB"/>
<path d="M59.1479 310.038H52.8179V310.288H59.1479V310.038Z" fill="#EBEBEB"/>
<path d="M173.408 314.258H79.728V314.508H173.408V314.258Z" fill="#EBEBEB"/>
<path d="M298.328 295.738H393.508V169.088H298.328V295.738Z" fill="#F5F5F5"/>
<path d="M280.168 295.738H298.328V169.088H280.168V295.738Z" fill="#E6E6E6"/>
<path d="M304.508 209.248H386.838V178.488H304.508V209.248Z" fill="#FAFAFA"/>
<path d="M356.408 178.488L356.048 182.588C355.993 183.242 355.694 183.85 355.21 184.293C354.726 184.736 354.094 184.981 353.438 184.978H337.908C337.252 184.981 336.62 184.736 336.136 184.293C335.652 183.85 335.353 183.242 335.298 182.588L334.938 178.488H356.408Z" fill="#EBEBEB"/>
<path d="M304.508 243.358H386.838V212.598H304.508V243.358Z" fill="#FAFAFA"/>
<path d="M356.408 212.608L356.048 216.708C355.99 217.361 355.691 217.968 355.207 218.411C354.724 218.853 354.093 219.098 353.438 219.098H337.908C337.253 219.098 336.622 218.853 336.138 218.411C335.655 217.968 335.356 217.361 335.298 216.708L334.938 212.608H356.408Z" fill="#EBEBEB"/>
<path d="M304.508 277.478H386.838V246.718H304.508V277.478Z" fill="#FAFAFA"/>
<path d="M356.408 246.718L356.048 250.818C355.993 251.472 355.694 252.08 355.21 252.523C354.726 252.966 354.094 253.211 353.438 253.208H337.908C337.252 253.211 336.62 252.966 336.136 252.523C335.652 252.08 335.353 251.472 335.298 250.818L334.938 246.718H356.408Z" fill="#EBEBEB"/>
<path d="M304.508 302.058H385.838L386.838 295.728H304.508V302.058Z" fill="#E6E6E6"/>
<path d="M287.508 302.058H304.508V295.728H286.508L287.508 302.058Z" fill="#E0E0E0"/>
<path d="M342.738 169.228H375.238L371.638 128.008H339.138L342.738 169.228Z" fill="#FAFAFA"/>
<path d="M342.738 169.228H341.188L337.578 128.008H339.138L342.738 169.228Z" fill="#EBEBEB"/>
<path d="M345.688 165.028H371.558L368.688 132.218H342.818L345.688 165.028Z" fill="#F0F0F0"/>
<path d="M347.578 162.328H369.188L366.798 134.918H345.178L347.578 162.328Z" fill="#E6E6E6"/>
<path d="M333.608 169.228L335.838 143.718H303.488L301.258 169.228H333.608Z" fill="#F0F0F0"/>
<path d="M333.608 169.228L335.838 143.718H337.578L335.348 169.228H333.608Z" fill="#E0E0E0"/>
<path d="M330.538 166.628L332.318 146.318H306.558L304.778 166.628H330.538Z" fill="#EBEBEB"/>
<path d="M328.568 164.958L330.048 147.988H308.528L307.048 164.958H328.568Z" fill="#F5F5F5"/>
<path d="M258.898 284.918C258.898 291.678 257.838 296.048 256.058 298.858C255.373 299.887 254.441 300.729 253.348 301.305C252.254 301.882 251.034 302.175 249.798 302.158H240.008C238.772 302.175 237.551 301.882 236.458 301.305C235.364 300.729 234.433 299.887 233.748 298.858C231.968 296.048 230.898 291.678 230.898 284.918C230.898 275.108 235.178 267.258 236.578 260.998C237.078 258.738 235.398 251.818 235.398 251.818H254.398C254.398 251.818 252.728 258.738 253.228 260.998C254.628 267.258 258.898 275.148 258.898 284.918Z" fill="#EBEBEB"/>
<path d="M291.258 245.238C291.258 236.718 277.908 240.238 274.548 227.048C273.268 222.048 284.128 210.718 284.128 210.718H250.258C250.258 210.718 261.118 222.048 259.838 227.048C256.478 240.258 243.128 236.718 243.128 245.238C243.128 254.608 261.958 274.138 262.868 296.118C262.948 298.118 259.328 302.118 259.328 302.118H275.048C275.048 302.118 271.418 298.038 271.508 296.118C272.428 274.148 291.258 254.608 291.258 245.238Z" fill="#F5F5F5"/>
<path d="M281.028 267.358C283.028 263.218 278.928 249.158 278.928 249.158H293.598C293.598 249.158 289.528 263.218 291.498 267.358C292.888 270.278 296.038 272.148 296.038 275.598V296.368C296.038 301.748 291.638 302.158 286.258 302.158C280.878 302.158 276.478 301.748 276.478 296.368V275.598C276.478 272.148 279.638 270.278 281.028 267.358Z" fill="#F0F0F0"/>
<path d="M113.408 144.678C104.988 141.028 100.178 133.328 102.698 127.508C105.218 121.688 114.118 119.928 122.548 123.578C130.978 127.228 135.778 134.928 133.258 140.748C130.738 146.568 121.838 148.328 113.408 144.678ZM120.118 129.148C116.118 127.438 111.998 128.258 110.818 130.988C109.638 133.718 111.888 137.318 115.818 138.988C119.748 140.658 123.938 139.878 125.118 137.148C126.298 134.418 124.068 130.898 120.118 129.148Z" fill="#E6E6E6"/>
<path d="M123.328 129.508L119.328 127.778L143.528 71.8383C143.641 71.5747 143.805 71.3361 144.011 71.1364C144.217 70.9366 144.46 70.7797 144.727 70.6746C144.994 70.5695 145.279 70.5184 145.566 70.5242C145.852 70.53 146.135 70.5925 146.398 70.7083V70.7083C146.66 70.8214 146.897 70.9852 147.096 71.1903C147.295 71.3955 147.452 71.6378 147.557 71.9036C147.662 72.1693 147.713 72.4532 147.708 72.7388C147.703 73.0245 147.642 73.3064 147.528 73.5683L123.328 129.508Z" fill="#E6E6E6"/>
<path d="M149.378 78.9783L141.688 75.6183L143.428 71.6183L151.108 74.9683L149.378 78.9783Z" fill="#E6E6E6"/>
<path d="M145.588 83.4583L140.088 81.0683L141.818 77.0583L147.318 79.4483L145.588 83.4583Z" fill="#E6E6E6"/>
<path d="M139.577 84.7001L137.844 88.7012L144.011 91.3711L145.743 87.37L139.577 84.7001Z" fill="#E6E6E6"/>
<path d="M124.878 123.538L122.678 122.588C122.152 122.358 121.739 121.929 121.529 121.395C121.319 120.86 121.33 120.265 121.558 119.738V119.738C121.786 119.211 122.215 118.796 122.749 118.584C123.283 118.372 123.88 118.381 124.408 118.608L126.608 119.558C127.133 119.789 127.546 120.218 127.756 120.752C127.966 121.286 127.956 121.882 127.728 122.408V122.408C127.499 122.936 127.071 123.351 126.536 123.563C126.002 123.775 125.406 123.766 124.878 123.538Z" fill="#E6E6E6"/>
<path d="M296.728 104.308C299.236 105.892 301.216 108.188 302.413 110.902C303.61 113.616 303.971 116.626 303.45 119.546C302.929 122.467 301.548 125.166 299.486 127.298C297.423 129.43 294.771 130.899 291.87 131.517C288.968 132.135 285.948 131.874 283.196 130.767C280.443 129.66 278.083 127.758 276.417 125.303C274.751 122.849 273.855 119.953 273.842 116.986C273.83 114.02 274.702 111.117 276.348 108.648C278.478 105.374 281.82 103.078 285.64 102.264C289.461 101.45 293.449 102.186 296.728 104.308ZM284.578 122.538C285.716 123.34 287.068 123.783 288.46 123.813C289.852 123.842 291.221 123.455 292.393 122.702C293.564 121.949 294.484 120.864 295.035 119.585C295.586 118.307 295.744 116.893 295.487 115.524C295.23 114.156 294.572 112.895 293.595 111.903C292.618 110.91 291.367 110.232 290.003 109.955C288.638 109.677 287.222 109.813 285.935 110.344C284.648 110.876 283.549 111.779 282.778 112.938C281.744 114.45 281.354 116.311 281.691 118.111C282.029 119.911 283.067 121.503 284.578 122.538V122.538Z" fill="#E6E6E6"/>
<path d="M282.968 120.758L287.108 123.518L257.488 168.838C257.122 169.387 256.552 169.768 255.906 169.897C255.259 170.026 254.587 169.894 254.038 169.528V169.528C253.767 169.348 253.534 169.116 253.352 168.845C253.171 168.574 253.044 168.271 252.98 167.951C252.916 167.632 252.915 167.303 252.979 166.983C253.042 166.664 253.167 166.359 253.348 166.088L282.968 120.758Z" fill="#E6E6E6"/>
<path d="M253.538 156.198L262.258 162.048L257.908 168.578L249.178 162.718C248.578 162.314 248.162 161.688 248.021 160.978C247.881 160.268 248.027 159.531 248.428 158.928L249.738 156.928C250.148 156.331 250.776 155.919 251.488 155.782C252.199 155.645 252.936 155.795 253.538 156.198Z" fill="#E6E6E6"/>
<path d="M175.798 17.7083L171.198 29.6083C171.1 29.8637 170.952 30.0972 170.763 30.2955C170.574 30.4938 170.348 30.653 170.098 30.7639C169.848 30.8749 169.578 30.9355 169.304 30.9422C169.031 30.949 168.758 30.9018 168.503 30.8033C168.248 30.7048 168.014 30.5569 167.816 30.3682C167.617 30.1795 167.458 29.9535 167.347 29.7033C167.236 29.453 167.176 29.1833 167.169 28.9097C167.162 28.636 167.21 28.3637 167.308 28.1083L171.908 16.2083C172.619 14.3581 172.568 12.3015 171.766 10.4889C170.964 8.67639 169.476 7.25574 167.628 6.53827L163.368 4.88827C161.52 4.17587 159.466 4.2241 157.654 5.02241C155.842 5.82073 154.419 7.30415 153.698 9.14827L151.818 14.0083L147.938 12.5083L149.818 7.64827C150.368 6.2221 151.194 4.91826 152.248 3.81122C153.302 2.70417 154.564 1.81559 155.962 1.19622C157.359 0.576847 158.865 0.238816 160.393 0.201421C161.921 0.164026 163.442 0.428002 164.868 0.978276L169.128 2.61828C170.557 3.17047 171.864 3.99896 172.973 5.05638C174.082 6.1138 174.971 7.3794 175.591 8.78084C176.21 10.1823 176.547 11.6921 176.583 13.2239C176.618 14.7557 176.352 16.2796 175.798 17.7083V17.7083Z" fill="#F0F0F0"/>
<path d="M175.068 19.5783C174.75 19.1707 174.329 18.8563 173.848 18.6683L150.648 9.66827C149.943 9.40298 149.162 9.42518 148.474 9.73009C147.786 10.035 147.245 10.5982 146.968 11.2983L137.968 34.5083C137.697 35.2111 137.717 35.9926 138.023 36.6808C138.328 37.369 138.895 37.9076 139.598 38.1783L162.798 47.1783C163.146 47.3137 163.518 47.3789 163.892 47.3703C164.266 47.3616 164.634 47.2792 164.976 47.1277C165.318 46.9763 165.627 46.7588 165.885 46.4877C166.142 46.2167 166.344 45.8974 166.478 45.5483L175.478 22.3483C175.656 21.8907 175.711 21.3947 175.639 20.909C175.567 20.4234 175.37 19.9648 175.068 19.5783V19.5783ZM157.448 37.5083L150.098 34.6683L153.988 27.8783C153.686 27.2703 153.541 26.5968 153.565 25.9186C153.59 25.2404 153.783 24.579 154.128 23.9944C154.472 23.4097 154.957 22.9201 155.538 22.5701C156.12 22.22 156.779 22.0205 157.457 21.9896C158.135 21.9587 158.81 22.0974 159.421 22.3931C160.032 22.6889 160.559 23.1322 160.955 23.6832C161.351 24.2341 161.604 24.8752 161.69 25.5483C161.776 26.2215 161.693 26.9054 161.448 27.5383C161.247 28.067 160.936 28.5472 160.537 28.9471C160.137 29.347 159.656 29.6576 159.128 29.8583L157.448 37.5083Z" fill="#E6E6E6"/>
<path d="M17.4076 288.608H202.538V188.978L17.4076 188.978V288.608Z" fill="#E6E6E6"/>
<path d="M187.698 301.528H199.338V292.738H187.698V301.528Z" fill="#E6E6E6"/>
<path d="M3.27797 301.528H14.918L14.918 181.558H3.27797L3.27797 301.528Z" fill="#E6E6E6"/>
<path d="M14.7778 181.558V301.558H20.9878V294.838H199.338V301.558H205.548V181.558H14.7778ZM20.9878 192.418H107.058V234.088H20.9878V192.418ZM199.338 283.948H113.258V192.418H199.328L199.338 283.948ZM20.9878 283.948V240.298H107.058V283.948H20.9878Z" fill="#F0F0F0"/>
<path d="M113.258 283.948H193.518V196.898H113.258L113.258 283.948Z" fill="#F5F5F5"/>
<path d="M116.898 237.818C116.898 238.556 117.117 239.277 117.527 239.891C117.936 240.504 118.519 240.982 119.201 241.264C119.882 241.547 120.632 241.621 121.356 241.477C122.079 241.333 122.744 240.977 123.265 240.456C123.787 239.934 124.142 239.27 124.286 238.546C124.43 237.822 124.356 237.072 124.074 236.391C123.792 235.709 123.314 235.127 122.7 234.717C122.087 234.307 121.366 234.088 120.628 234.088C120.138 234.088 119.653 234.185 119.201 234.372C118.748 234.56 118.337 234.834 117.99 235.181C117.644 235.527 117.369 235.938 117.182 236.391C116.994 236.843 116.898 237.328 116.898 237.818V237.818Z" fill="#FAFAFA"/>
<path d="M120.628 241.548C121.341 241.546 122.038 241.339 122.637 240.953C123.236 240.567 123.712 240.017 124.008 239.368C124.236 239.853 124.356 240.382 124.358 240.918C124.358 241.908 123.965 242.856 123.265 243.556C122.566 244.255 121.617 244.648 120.628 244.648C119.639 244.648 118.69 244.255 117.99 243.556C117.291 242.856 116.898 241.908 116.898 240.918C116.9 240.382 117.019 239.853 117.248 239.368C117.544 240.017 118.02 240.567 118.619 240.953C119.218 241.339 119.915 241.546 120.628 241.548Z" fill="#E0E0E0"/>
<path d="M162.398 283.948H143.248L134.098 196.898H153.248L162.398 283.948Z" fill="#FAFAFA"/>
<path d="M138.348 283.948H134.538L125.388 196.898H129.198L138.348 283.948Z" fill="#FAFAFA"/>
<path d="M87.668 234.038H95.248V196.808H87.668V234.038Z" fill="#FAFAFA"/>
<path d="M56.2178 234.038H63.7979L63.7979 196.808H56.2178L56.2178 234.038Z" fill="#F5F5F5"/>
<path d="M80.0777 234.048H87.6577V199.428H80.0777V234.048Z" fill="#F5F5F5"/>
<path d="M63.7979 234.048H71.3779V199.428H63.7979L63.7979 234.048Z" fill="#FAFAFA"/>
<path d="M71.3876 234.038H76.2876V196.808H71.3876V234.038Z" fill="#EBEBEB"/>
<path d="M76.2779 234.048H80.0679V199.428H76.2779V234.048Z" fill="#FAFAFA"/>
<path d="M48.6378 234.038H56.2178L56.2178 196.808H48.6378L48.6378 234.038Z" fill="#EBEBEB"/>
<path d="M41.0479 234.048H48.6279L48.6279 199.428H41.0479L41.0479 234.048Z" fill="#E6E6E6"/>
<path d="M24.7677 234.048H32.3477L32.3477 199.428H24.7677L24.7677 234.048Z" fill="#E6E6E6"/>
<path d="M32.3578 234.038H37.2578L37.2578 196.808H32.3578L32.3578 234.038Z" fill="#FAFAFA"/>
<path d="M37.2579 234.048H41.0479L41.0479 199.428H37.2579L37.2579 234.048Z" fill="#EBEBEB"/>
<path d="M20.9776 234.048H24.7676L24.7676 197.698H20.9776L20.9776 234.048Z" fill="#EBEBEB"/>
<path d="M28.558 246.718H20.978V283.948H28.558V246.718Z" fill="#EBEBEB"/>
<path d="M59.998 246.718H52.418V283.948H59.998V246.718Z" fill="#FAFAFA"/>
<path d="M36.1376 249.328H28.5576V283.948H36.1376V249.328Z" fill="#FAFAFA"/>
<path d="M52.4179 249.328H44.8379V283.948H52.4179V249.328Z" fill="#EBEBEB"/>
<path d="M44.838 246.718H39.938V283.948H44.838V246.718Z" fill="#FAFAFA"/>
<path d="M39.938 249.328H36.1479V283.948H39.938V249.328Z" fill="#F5F5F5"/>
<path d="M67.5878 246.718H60.0078V283.948H67.5878V246.718Z" fill="#EBEBEB"/>
<path d="M75.1679 249.328H67.5879V283.948H75.1679V249.328Z" fill="#F5F5F5"/>
<path d="M91.4477 249.328H83.8677V283.948H91.4477V249.328Z" fill="#E6E6E6"/>
<path d="M83.8678 246.718H78.9678V283.948H83.8678V246.718Z" fill="#FAFAFA"/>
<path d="M100.148 246.718H95.248V283.948H100.148V246.718Z" fill="#FAFAFA"/>
<path d="M78.9677 249.328H75.1777V283.948H78.9677V249.328Z" fill="#EBEBEB"/>
<path d="M95.2377 247.598H91.4478V283.948H95.2377V247.598Z" fill="#EBEBEB"/>
<path d="M29.438 117.438C28.6522 117.825 28.0033 118.443 27.578 119.208C26.998 120.388 28.808 122.578 28.808 122.578C29.2444 122.87 29.7431 123.055 30.264 123.12C30.785 123.184 31.3138 123.125 31.808 122.948L33.308 122.268C33.308 122.268 30.738 117.798 29.488 117.748L29.438 117.438Z" fill="#E6E6E6"/>
<path d="M35.8878 117.398C36.0678 119.518 34.7578 122.198 32.8878 122.398C31.0178 122.598 29.2578 120.148 29.0378 117.998C28.8178 115.848 30.3778 115.668 32.2678 115.508C34.1578 115.348 35.6978 115.278 35.8878 117.398Z" fill="#E6E6E6"/>
<path d="M30.3379 116.778C30.3379 116.778 31.7879 117.928 34.7679 117.258C34.7679 117.258 30.0679 120.388 30.3379 116.778Z" fill="#E6E6E6"/>
<path d="M31.6177 116.358C31.6177 116.358 33.2877 116.068 33.3077 116.758C33.3077 116.758 34.7277 116.678 34.5277 116.088C34.3277 115.498 31.6177 116.358 31.6177 116.358Z" fill="#E6E6E6"/>
<path opacity="0.2" d="M30.3379 116.778C30.3379 116.778 31.7879 117.928 34.7679 117.258C34.7679 117.258 30.0679 120.388 30.3379 116.778Z" fill="#FAFAFA"/>
<path opacity="0.2" d="M31.6177 116.358C31.6177 116.358 33.2877 116.068 33.3077 116.758C33.3077 116.758 34.7277 116.678 34.5277 116.088C34.3277 115.498 31.6177 116.358 31.6177 116.358Z" fill="#FAFAFA"/>
<path d="M29.688 123.028C30.0106 123.512 30.4635 123.895 30.9944 124.132C31.5253 124.369 32.1124 124.451 32.688 124.368C33.2568 124.283 33.8014 124.079 34.287 123.771C34.7726 123.463 35.1885 123.057 35.508 122.578C36.1318 121.614 36.4778 120.496 36.508 119.348C36.508 119.058 36.508 118.348 36.158 118.198C35.808 118.048 35.578 118.598 35.418 118.828C34.9511 119.5 34.4185 120.123 33.828 120.688C33.244 121.249 32.5963 121.739 31.898 122.148C31.698 122.208 29.798 123.198 29.688 123.028Z" fill="#E6E6E6"/>
<path d="M37.8079 118.798C37.9806 119.232 38.041 119.702 37.9833 120.166C37.9256 120.629 37.7517 121.07 37.4779 121.448C37.0836 121.916 36.6054 122.306 36.0679 122.598C35.6979 122.818 35.2279 123.028 34.8679 122.798C34.5079 122.568 34.5179 121.978 34.6079 121.528C34.7479 120.838 34.8979 120.148 35.0779 119.458C35.1631 118.767 35.3519 118.093 35.6378 117.458C35.9478 117.018 36.3778 117.278 36.8478 117.608C37.2743 117.906 37.6073 118.319 37.8079 118.798V118.798Z" fill="#E6E6E6"/>
<path opacity="0.2" d="M30.1679 121.858C29.8041 121.829 29.4553 121.701 29.1591 121.488C28.863 121.274 28.6309 120.984 28.4879 120.648C28.2879 120.138 28.2879 118.868 28.9479 118.698C29.1471 119.82 29.5613 120.893 30.1679 121.858V121.858Z" fill="#FAFAFA"/>
<path opacity="0.2" d="M35.0977 121.798C35.4433 121.698 35.7591 121.514 36.0171 121.263C36.2751 121.012 36.4676 120.701 36.5777 120.358C36.6877 119.978 36.5777 118.038 35.9677 118.848C35.7777 119.118 35.8177 119.968 35.7177 120.318C35.5699 120.834 35.3618 121.331 35.0977 121.798V121.798Z" fill="#FAFAFA"/>
<path opacity="0.2" d="M32.4578 122.998C32.7367 123.231 33.086 123.363 33.4491 123.372C33.8122 123.381 34.1677 123.267 34.4578 123.048C34.3778 123.428 33.1978 123.738 32.8378 123.848C31.8378 124.128 31.3778 123.708 30.4578 123.318C30.4078 123.318 31.8678 123.538 32.4578 122.998Z" fill="#FAFAFA"/>
<path d="M30.8076 161.948L30.8976 133.098L32.3776 124.318L32.9376 124.418L31.4676 133.148L31.3576 162.498L30.8076 161.948Z" fill="#E0E0E0"/>
<path d="M31.4076 132.948L30.9576 133.298C30.4491 132.587 30.0009 131.834 29.6176 131.048C28.8677 129.495 27.9235 128.043 26.8076 126.728L27.2276 126.338C28.3767 127.691 29.3511 129.182 30.1276 130.778C30.4942 131.535 30.9223 132.261 31.4076 132.948V132.948Z" fill="#E0E0E0"/>
<path d="M31.7578 129.078C32.5316 128.869 33.2052 128.39 33.6579 127.728C34.1063 126.943 34.392 126.076 34.4978 125.178C33.4978 125.478 32.4278 124.998 31.3978 125.118C30.9865 125.169 30.5923 125.314 30.2456 125.541C29.8988 125.768 29.6088 126.072 29.3978 126.428C28.8578 127.358 28.6379 128.428 29.1179 128.838C29.9333 129.258 30.8801 129.344 31.7578 129.078V129.078Z" fill="#E6E6E6"/>
<path d="M27.9176 127.088C27.4537 127.377 26.9327 127.561 26.3905 127.629C25.8483 127.696 25.298 127.645 24.7776 127.478C23.7776 127.148 23.4476 125.588 23.0376 124.578C24.3248 124.458 25.6204 124.458 26.9076 124.578C27.1795 124.595 27.4444 124.672 27.6831 124.803C27.9217 124.935 28.1282 125.117 28.2876 125.338C28.4375 125.565 28.4989 125.839 28.4602 126.108C28.4215 126.377 28.2853 126.623 28.0776 126.798C28.0776 126.798 27.9176 127.088 27.9176 127.088Z" fill="#E6E6E6"/>
<path d="M23.188 128.778C23.6007 128.367 24.0983 128.052 24.6458 127.853C25.1934 127.654 25.7777 127.578 26.3579 127.628C26.8225 127.714 27.2602 127.908 27.6355 128.195C28.0109 128.481 28.3132 128.853 28.518 129.278C28.3622 129.575 28.1297 129.824 27.8447 130C27.5598 130.176 27.2328 130.272 26.8979 130.278C26.2161 130.289 25.5381 130.173 24.8979 129.938C24.2592 129.697 23.5807 129.578 22.8979 129.588L23.188 128.778Z" fill="#E6E6E6"/>
<path d="M42.4378 123.818C43.0714 124.417 43.5075 125.195 43.6878 126.048C43.8978 127.358 41.5278 128.908 41.5278 128.908C41.0216 129.064 40.4855 129.097 39.9639 129.005C39.4422 128.913 38.95 128.698 38.5278 128.378L37.2578 127.278C37.2578 127.278 41.0378 123.768 42.2578 124.098L42.4378 123.818Z" fill="#E6E6E6"/>
<path d="M36.2578 121.888C35.4678 123.888 35.9378 126.798 37.6978 127.508C39.4578 128.218 41.8378 126.438 42.6378 124.508C43.4378 122.578 42.0578 121.848 40.2578 121.148C38.4578 120.448 37.0778 119.918 36.2578 121.888Z" fill="#E6E6E6"/>
<path d="M41.7677 122.918C41.7677 122.918 40.0377 123.598 37.3877 122.078C37.3877 122.078 40.9577 126.448 41.7677 122.918Z" fill="#E6E6E6"/>
<path d="M40.6676 122.148C40.6676 122.148 39.1576 121.378 38.9276 122.038C38.9276 122.038 37.5976 121.548 37.9276 121.038C38.2576 120.528 40.6676 122.148 40.6676 122.148Z" fill="#E6E6E6"/>
<path opacity="0.2" d="M41.7677 122.918C41.7677 122.918 40.0377 123.598 37.3877 122.078C37.3877 122.078 40.9577 126.448 41.7677 122.918Z" fill="#FAFAFA"/>
<path opacity="0.2" d="M40.6676 122.148C40.6676 122.148 39.1576 121.378 38.9276 122.038C38.9276 122.038 37.5976 121.548 37.9276 121.038C38.2576 120.528 40.6676 122.148 40.6676 122.148Z" fill="#FAFAFA"/>
<path d="M40.5476 129.088C40.0991 129.447 39.5602 129.676 38.9903 129.748C38.4204 129.82 37.8415 129.734 37.3176 129.498C36.7996 129.248 36.3393 128.894 35.9657 128.456C35.5922 128.019 35.3136 127.509 35.1476 126.958C34.8375 125.846 34.8375 124.67 35.1476 123.558C35.2076 123.268 35.4076 122.558 35.8176 122.558C36.2276 122.558 36.2476 123.108 36.3376 123.378C36.5878 124.163 36.9231 124.917 37.3376 125.628C37.7381 126.322 38.218 126.966 38.7676 127.548C38.8676 127.718 40.3976 129.218 40.5476 129.088Z" fill="#E6E6E6"/>
<path d="M34.0376 122.658C33.7413 123.018 33.5432 123.449 33.4626 123.908C33.3819 124.367 33.4216 124.839 33.5776 125.278C33.8049 125.847 34.1451 126.364 34.5776 126.798C34.8576 127.118 35.2476 127.458 35.6576 127.338C36.0676 127.218 36.2276 126.658 36.2776 126.208C36.3476 125.498 36.4076 124.798 36.4376 124.088C36.5423 123.409 36.5423 122.718 36.4376 122.038C36.2776 121.518 35.7776 121.638 35.2376 121.818C34.7661 121.979 34.35 122.27 34.0376 122.658V122.658Z" fill="#E6E6E6"/>
<path opacity="0.2" d="M40.438 127.818C40.7995 127.914 41.1809 127.902 41.5359 127.785C41.891 127.668 42.2044 127.45 42.438 127.158C42.768 126.738 43.138 125.518 42.568 125.158C42.0339 126.172 41.3109 127.075 40.438 127.818V127.818Z" fill="#FAFAFA"/>
<path opacity="0.2" d="M35.7378 126.318C35.4337 126.124 35.1829 125.856 35.0083 125.54C34.8337 125.224 34.7407 124.869 34.7378 124.508C34.7378 124.108 35.4478 122.298 35.7378 123.248C35.8378 123.558 35.5478 124.358 35.5478 124.718C35.5504 125.257 35.6141 125.794 35.7378 126.318V126.318Z" fill="#FAFAFA"/>
<path opacity="0.2" d="M37.9076 128.238C37.5822 128.37 37.2223 128.391 36.884 128.297C36.5458 128.203 36.2481 127.999 36.0376 127.718C36.0376 128.098 37.0376 128.718 37.3476 128.958C38.1776 129.508 38.7776 129.248 39.7776 129.148C39.7776 129.148 38.3176 128.938 37.9076 128.238Z" fill="#FAFAFA"/>
<path d="M29.9878 157.638L30.3478 156.458L30.8278 154.868L31.3878 153.008L35.8778 138.238L36.4378 133.998L36.9378 130.238L37.0378 129.458L37.3178 129.488V129.498L37.6078 129.528L37.5978 129.598L37.4978 130.338L36.9678 134.358L36.5378 137.628L36.4378 138.348L36.3978 138.468L31.3878 154.968L30.8178 156.818L30.5678 157.678L30.2078 158.848L29.9878 157.638Z" fill="#E0E0E0"/>
<path d="M35.9878 138.068L36.3178 138.528C37.0108 137.995 37.6595 137.406 38.2578 136.768C39.443 135.5 40.7876 134.391 42.2578 133.468L41.9678 132.978C40.4692 133.926 39.1009 135.066 37.8978 136.368C37.303 136.98 36.6647 137.548 35.9878 138.068V138.068Z" fill="#E0E0E0"/>
<path d="M36.798 134.268C36.1165 133.844 35.612 133.186 35.378 132.418C35.1762 131.535 35.1592 130.619 35.328 129.728C36.188 130.308 37.328 130.158 38.328 130.578C38.7064 130.748 39.041 131.002 39.3062 131.321C39.5714 131.64 39.7601 132.015 39.858 132.418C40.098 133.418 39.998 134.538 39.418 134.808C38.5076 134.981 37.5658 134.787 36.798 134.268Z" fill="#E6E6E6"/>
<path d="M41.0476 133.488C41.4046 133.901 41.8471 134.231 42.3445 134.456C42.8418 134.68 43.382 134.794 43.9276 134.788C45.0176 134.788 45.7676 133.368 46.4476 132.518C45.2565 132.022 44.0209 131.641 42.7576 131.378C42.4933 131.314 42.2179 131.309 41.9515 131.364C41.6851 131.42 41.4344 131.534 41.2176 131.698C41.0051 131.87 40.8632 132.113 40.8189 132.382C40.7746 132.652 40.8311 132.928 40.9776 133.158C40.9776 133.158 41.0476 133.488 41.0476 133.488Z" fill="#E6E6E6"/>
<path d="M45.0776 136.488C44.8034 135.976 44.419 135.531 43.9522 135.185C43.4853 134.839 42.9475 134.601 42.3776 134.488C41.9086 134.433 41.4332 134.49 40.9901 134.653C40.547 134.816 40.1487 135.082 39.8276 135.428C39.887 135.76 40.0344 136.069 40.2542 136.324C40.4741 136.579 40.7585 136.771 41.0776 136.878C41.7235 137.083 42.4013 137.167 43.0776 137.128C43.7541 137.084 44.4328 137.169 45.0776 137.378V136.488Z" fill="#E6E6E6"/>
<path d="M22.178 122.658C21.4794 123.184 20.9565 123.909 20.678 124.738C20.318 126.008 22.488 127.828 22.488 127.828C22.9664 128.037 23.4872 128.13 24.0083 128.101C24.5294 128.071 25.0363 127.92 25.488 127.658L26.848 126.708C26.848 126.708 23.518 122.778 22.278 122.958L22.178 122.658Z" fill="#E6E6E6"/>
<path d="M28.5176 121.468C29.0776 123.518 28.2676 126.388 26.4376 126.888C24.6076 127.388 22.4376 125.338 21.8876 123.288C21.3376 121.238 22.7876 120.758 24.6176 120.288C26.4476 119.818 27.9576 119.418 28.5176 121.468Z" fill="#E6E6E6"/>
<path d="M22.9478 121.848C22.9478 121.848 24.5777 122.728 27.3877 121.528C27.3877 121.528 23.3378 125.458 22.9478 121.848Z" fill="#E6E6E6"/>
<path d="M24.1279 121.208C24.1279 121.208 25.7179 120.618 25.8679 121.298C25.8679 121.298 27.2479 120.968 26.9479 120.418C26.6479 119.868 24.1279 121.208 24.1279 121.208Z" fill="#E6E6E6"/>
<path opacity="0.2" d="M22.9478 121.848C22.9478 121.848 24.5777 122.728 27.3877 121.528C27.3877 121.528 23.3378 125.458 22.9478 121.848Z" fill="#FAFAFA"/>
<path opacity="0.2" d="M24.1279 121.208C24.1279 121.208 25.7179 120.618 25.8679 121.298C25.8679 121.298 27.2479 120.968 26.9479 120.418C26.6479 119.868 24.1279 121.208 24.1279 121.208Z" fill="#FAFAFA"/>
<path d="M23.4277 128.148C23.8306 128.558 24.3388 128.849 24.8965 128.988C25.4541 129.128 26.0394 129.11 26.5877 128.938C27.1323 128.75 27.6321 128.452 28.0555 128.061C28.4789 127.67 28.8167 127.196 29.0477 126.668C29.5029 125.607 29.6552 124.441 29.4877 123.298C29.4877 123.008 29.3477 122.298 28.9377 122.228C28.5277 122.158 28.4377 122.728 28.3177 122.988C27.9822 123.732 27.57 124.44 27.0877 125.098C26.609 125.742 26.0551 126.326 25.4377 126.838C25.2577 126.948 23.5677 128.268 23.4277 128.148Z" fill="#E6E6E6"/>
<path d="M30.6581 122.498C30.9073 122.892 31.0519 123.343 31.0781 123.809C31.1044 124.274 31.0114 124.739 30.8081 125.158C30.5107 125.695 30.1096 126.168 29.6281 126.548C29.3081 126.828 28.8881 127.118 28.4881 126.958C28.0881 126.798 27.998 126.218 28.008 125.758C28.008 125.048 28.0081 124.348 28.0881 123.638C28.0563 122.965 28.1237 122.292 28.288 121.638C28.508 121.138 28.988 121.318 29.508 121.558C29.9709 121.759 30.369 122.085 30.6581 122.498Z" fill="#E6E6E6"/>
<path opacity="0.2" d="M23.6977 126.878C23.3321 126.925 22.9607 126.866 22.6276 126.708C22.2944 126.551 22.0134 126.301 21.8177 125.988C21.5377 125.528 21.3077 124.268 21.9177 123.988C22.3239 125.055 22.9278 126.036 23.6977 126.878V126.878Z" fill="#FAFAFA"/>
<path opacity="0.2" d="M28.5376 125.938C28.8592 125.776 29.1359 125.536 29.3434 125.242C29.5509 124.947 29.6829 124.606 29.7276 124.248C29.7276 123.858 29.2776 121.978 28.8576 122.878C28.8079 123.37 28.8079 123.866 28.8576 124.358C28.8115 124.895 28.7042 125.426 28.5376 125.938V125.938Z" fill="#FAFAFA"/>
<path opacity="0.2" d="M26.158 127.588C26.4666 127.756 26.8218 127.817 27.1687 127.763C27.5157 127.709 27.8352 127.542 28.078 127.288C28.078 127.668 26.968 128.188 26.628 128.368C25.738 128.808 25.168 128.488 24.188 128.278C24.188 128.278 25.668 128.228 26.158 127.588Z" fill="#FAFAFA"/>
<path d="M31.5276 166.198L26.4276 137.808L26.3076 128.908L26.8776 128.898L26.9976 137.758L32.1676 166.638L31.5276 166.198Z" fill="#E0E0E0"/>
<path d="M26.9078 137.568L26.5178 137.988C25.8929 137.371 25.3209 136.702 24.8078 135.988C23.7872 134.603 22.5943 133.353 21.2578 132.268L21.6078 131.818C22.9823 132.942 24.2088 134.236 25.2578 135.668C25.7551 136.346 26.3069 136.981 26.9078 137.568V137.568Z" fill="#E0E0E0"/>
<path d="M26.5479 133.698C27.2754 133.357 27.8545 132.764 28.1779 132.028C28.4828 131.176 28.6087 130.271 28.5479 129.368C27.6179 129.848 26.4779 129.558 25.4879 129.858C25.0914 129.986 24.7289 130.201 24.4276 130.489C24.1262 130.776 23.8939 131.128 23.7479 131.518C23.3879 132.518 23.3579 133.598 23.9079 133.928C24.7836 134.204 25.7329 134.121 26.5479 133.698V133.698Z" fill="#E6E6E6"/>
<path d="M22.418 132.428C22.0174 132.796 21.5413 133.071 21.0231 133.235C20.5049 133.399 19.9571 133.448 19.418 133.378C18.338 133.238 17.758 131.758 17.188 130.838C18.4283 130.479 19.7012 130.245 20.988 130.138C21.2571 130.104 21.5305 130.131 21.7881 130.216C22.0458 130.3 22.2815 130.441 22.478 130.628C22.6665 130.825 22.7765 131.084 22.7876 131.357C22.7986 131.629 22.7099 131.897 22.538 132.108C22.538 132.108 22.418 132.428 22.418 132.428Z" fill="#E6E6E6"/>
<path d="M18.0678 134.938C18.4009 134.462 18.8339 134.064 19.3364 133.772C19.839 133.481 20.3991 133.302 20.9778 133.248C21.4511 133.247 21.9181 133.358 22.3404 133.572C22.7628 133.785 23.1285 134.096 23.4078 134.478C23.3116 134.803 23.1284 135.094 22.8781 135.322C22.6277 135.549 22.3198 135.704 21.9878 135.768C21.327 135.893 20.6486 135.893 19.9878 135.768C19.327 135.643 18.6486 135.643 17.9878 135.768L18.0678 134.938Z" fill="#E6E6E6"/>
<path d="M33.608 148.778H27.608C27.3861 148.769 27.1674 148.833 26.9864 148.962C26.8053 149.091 26.6722 149.276 26.608 149.488C25.5033 153.41 24.9876 157.475 25.078 161.548C25.078 168.548 26.918 177.968 27.498 180.738C27.5427 180.969 27.6674 181.177 27.8504 181.325C28.0333 181.474 28.2626 181.553 28.498 181.548H32.658C32.8933 181.553 33.1227 181.474 33.3056 181.325C33.4885 181.177 33.6133 180.969 33.658 180.738C34.238 177.968 36.078 168.598 36.078 161.548C36.1683 157.475 35.6527 153.41 34.548 149.488C34.4866 149.286 34.3625 149.108 34.1936 148.98C34.0247 148.853 33.8196 148.782 33.608 148.778V148.778Z" fill="#F0F0F0"/>
<path d="M198.258 346.158C305.34 346.158 392.148 341.09 392.148 334.838C392.148 328.586 305.34 323.518 198.258 323.518C91.1752 323.518 4.36768 328.586 4.36768 334.838C4.36768 341.09 91.1752 346.158 198.258 346.158Z" fill="#F5F5F5"/>
<path d="M69.0376 295.918C68.874 295.908 68.7209 295.834 68.6108 295.713C68.5006 295.592 68.4421 295.432 68.4476 295.268C69.1876 265.878 70.6976 217.668 70.7776 217.398C70.8306 217.238 70.9431 217.104 71.0919 217.024C71.2407 216.944 71.4146 216.924 71.5776 216.968C71.7395 217.019 71.8752 217.131 71.9555 217.281C72.0359 217.43 72.0546 217.605 72.0076 217.768C72.0076 217.828 70.4576 266.208 69.7176 295.298C69.7163 295.382 69.6984 295.464 69.6649 295.541C69.6314 295.618 69.583 295.687 69.5225 295.744C69.462 295.802 69.3906 295.847 69.3125 295.877C69.2344 295.907 69.1512 295.921 69.0676 295.918H69.0376Z" fill="#263238"/>
<path d="M65.0876 197.778C65.3376 200.038 68.0876 207.888 70.3076 207.648C72.5276 207.408 73.5376 199.148 73.3076 196.888C73.1896 195.801 72.6444 194.805 71.7921 194.119C70.9397 193.434 69.85 193.115 68.7626 193.233C67.6752 193.351 66.6792 193.896 65.9938 194.749C65.3083 195.601 64.9896 196.691 65.1076 197.778H65.0876Z" fill="#407BFF"/>
<path d="M76.0779 222.538C75.8279 220.268 73.0779 212.418 70.8579 212.668C68.6379 212.918 67.6379 221.158 67.8579 223.428C67.9759 224.516 68.5211 225.512 69.3734 226.197C70.2258 226.883 71.3155 227.201 72.4029 227.083C73.4903 226.965 74.4862 226.42 75.1717 225.568C75.8571 224.715 76.1759 223.626 76.0579 222.538H76.0779Z" fill="#407BFF"/>
<path d="M58.258 215.648C60.518 215.408 68.368 212.698 68.118 210.428C67.868 208.158 59.628 207.208 57.368 207.428C56.8296 207.487 56.308 207.651 55.8329 207.911C55.3578 208.171 54.9386 208.522 54.5992 208.944C54.2598 209.366 54.0069 209.851 53.8548 210.37C53.7028 210.89 53.6546 211.435 53.713 211.973C53.7715 212.512 53.9354 213.033 54.1954 213.508C54.4555 213.983 54.8065 214.403 55.2286 214.742C55.6506 215.081 56.1354 215.334 56.6552 215.486C57.175 215.639 57.7196 215.687 58.258 215.628V215.648Z" fill="#407BFF"/>
<path d="M82.9576 204.668C80.6976 204.908 72.8476 207.668 73.0976 209.888C73.3476 212.108 81.5876 213.108 83.8476 212.888C84.3938 212.84 84.9249 212.684 85.4099 212.428C85.8948 212.172 86.3238 211.822 86.6718 211.399C87.0197 210.975 87.2796 210.486 87.4362 209.961C87.5928 209.435 87.643 208.884 87.5837 208.339C87.5245 207.794 87.3571 207.266 87.0913 206.787C86.8255 206.307 86.4667 205.885 86.0358 205.546C85.605 205.207 85.1108 204.958 84.5822 204.812C84.0537 204.666 83.5013 204.628 82.9576 204.698V204.668Z" fill="#407BFF"/>
<path d="M57.9478 205.288C59.7178 206.718 67.1878 210.348 68.6178 208.578C70.0478 206.808 64.8878 200.288 63.1178 198.858C62.6994 198.488 62.2101 198.206 61.6797 198.03C61.1492 197.854 60.5885 197.788 60.0316 197.835C59.4748 197.882 58.9332 198.042 58.4399 198.304C57.9465 198.567 57.5116 198.927 57.1614 199.362C56.8112 199.798 56.553 200.3 56.4025 200.838C56.2521 201.377 56.2124 201.94 56.2859 202.494C56.3594 203.048 56.5446 203.581 56.8303 204.061C57.116 204.542 57.4961 204.959 57.9478 205.288V205.288Z" fill="#407BFF"/>
<path d="M83.258 215.028C81.488 213.598 74.018 209.968 72.598 211.738C71.178 213.508 76.318 220.028 78.098 221.448C78.5174 221.806 79.0042 222.075 79.5296 222.241C80.055 222.407 80.6084 222.466 81.1569 222.414C81.7054 222.362 82.238 222.201 82.7231 221.94C83.2082 221.679 83.636 221.323 83.9812 220.893C84.3264 220.464 84.5819 219.969 84.7327 219.439C84.8834 218.91 84.9264 218.355 84.8589 217.808C84.7915 217.261 84.6151 216.733 84.3401 216.256C84.0651 215.778 83.6972 215.361 83.258 215.028V215.028Z" fill="#407BFF"/>
<path d="M65.7176 222.788C67.1476 221.018 70.7776 213.548 68.9976 212.128C67.2176 210.708 60.7176 215.848 59.2876 217.628C58.6033 218.481 58.2858 219.571 58.4049 220.657C58.524 221.744 59.0699 222.739 59.9226 223.423C60.7753 224.108 61.8648 224.425 62.9516 224.306C64.0384 224.187 65.0333 223.641 65.7176 222.788V222.788Z" fill="#407BFF"/>
<path d="M75.448 197.518C74.028 199.298 70.388 206.758 72.168 208.188C73.948 209.618 80.448 204.458 81.878 202.688C82.2485 202.27 82.5302 201.781 82.706 201.25C82.8819 200.72 82.9483 200.159 82.9012 199.602C82.854 199.045 82.6944 198.504 82.4318 198.01C82.1693 197.517 81.8093 197.082 81.3738 196.732C80.9382 196.382 80.4362 196.123 79.8979 195.973C79.3597 195.823 78.7965 195.783 78.2425 195.856C77.6885 195.93 77.1552 196.115 76.6748 196.401C76.1945 196.686 75.7771 197.067 75.448 197.518Z" fill="#407BFF"/>
<path opacity="0.6" d="M65.0881 197.778C65.3381 200.038 68.0881 207.888 70.3081 207.648C72.5281 207.408 73.5381 199.148 73.3081 196.888C73.1901 195.801 72.6449 194.805 71.7926 194.119C70.9402 193.434 69.8505 193.115 68.7631 193.233C67.6757 193.351 66.6797 193.896 65.9943 194.749C65.3088 195.601 64.9901 196.691 65.1081 197.778H65.0881Z" fill="white"/>
<path opacity="0.6" d="M76.0779 222.538C75.8279 220.268 73.0779 212.418 70.8579 212.668C68.6379 212.918 67.6379 221.158 67.8579 223.428C67.9759 224.516 68.5211 225.512 69.3734 226.197C70.2258 226.883 71.3155 227.201 72.4029 227.083C73.4903 226.965 74.4862 226.42 75.1717 225.568C75.8571 224.715 76.1759 223.626 76.0579 222.538H76.0779Z" fill="white"/>
<path opacity="0.6" d="M58.258 215.648C60.518 215.408 68.368 212.698 68.118 210.428C67.868 208.158 59.628 207.208 57.368 207.428C56.8296 207.487 56.308 207.651 55.8329 207.911C55.3578 208.171 54.9386 208.522 54.5992 208.944C54.2598 209.366 54.0069 209.851 53.8548 210.37C53.7028 210.89 53.6546 211.435 53.713 211.973C53.7715 212.512 53.9354 213.033 54.1954 213.508C54.4555 213.983 54.8065 214.403 55.2286 214.742C55.6506 215.081 56.1354 215.334 56.6552 215.486C57.175 215.639 57.7196 215.687 58.258 215.628V215.648Z" fill="white"/>
<path opacity="0.6" d="M82.9581 204.668C80.6981 204.908 72.8481 207.668 73.0981 209.888C73.3481 212.108 81.5881 213.108 83.8481 212.888C84.3943 212.84 84.9254 212.684 85.4104 212.428C85.8953 212.172 86.3243 211.822 86.6723 211.399C87.0202 210.975 87.2801 210.486 87.4367 209.961C87.5933 209.435 87.6435 208.884 87.5842 208.339C87.525 207.794 87.3576 207.266 87.0918 206.787C86.826 206.307 86.4672 205.885 86.0363 205.546C85.6055 205.207 85.1113 204.958 84.5827 204.812C84.0541 204.666 83.5018 204.628 82.9581 204.698V204.668Z" fill="white"/>
<path opacity="0.6" d="M57.9478 205.288C59.7178 206.718 67.1878 210.348 68.6178 208.578C70.0478 206.808 64.8878 200.288 63.1178 198.858C62.6994 198.488 62.2101 198.206 61.6797 198.03C61.1492 197.854 60.5885 197.788 60.0316 197.835C59.4748 197.882 58.9332 198.042 58.4399 198.304C57.9465 198.567 57.5116 198.927 57.1614 199.362C56.8112 199.798 56.553 200.3 56.4025 200.838C56.2521 201.377 56.2124 201.94 56.2859 202.494C56.3594 203.048 56.5446 203.581 56.8303 204.061C57.116 204.542 57.4961 204.959 57.9478 205.288V205.288Z" fill="white"/>
<path opacity="0.6" d="M83.258 215.028C81.488 213.598 74.018 209.968 72.598 211.738C71.178 213.508 76.318 220.028 78.098 221.448C78.5174 221.806 79.0042 222.075 79.5296 222.241C80.055 222.407 80.6084 222.466 81.1569 222.414C81.7054 222.362 82.238 222.201 82.7231 221.94C83.2082 221.679 83.636 221.323 83.9812 220.893C84.3264 220.464 84.5819 219.969 84.7327 219.439C84.8834 218.91 84.9264 218.355 84.8589 217.808C84.7915 217.261 84.6151 216.733 84.3401 216.256C84.0651 215.778 83.6972 215.361 83.258 215.028V215.028Z" fill="white"/>
<path opacity="0.6" d="M65.7181 222.788C67.1481 221.018 70.7781 213.548 68.9981 212.128C67.2181 210.708 60.7181 215.848 59.2881 217.628C58.6038 218.481 58.2863 219.571 58.4054 220.657C58.5245 221.744 59.0704 222.739 59.9231 223.423C60.7758 224.108 61.8653 224.425 62.9521 224.306C64.0389 224.187 65.0338 223.641 65.7181 222.788V222.788Z" fill="white"/>
<path opacity="0.6" d="M75.448 197.518C74.028 199.298 70.388 206.758 72.168 208.188C73.948 209.618 80.448 204.458 81.878 202.688C82.2485 202.27 82.5302 201.781 82.706 201.25C82.8819 200.72 82.9483 200.159 82.9012 199.602C82.854 199.045 82.6944 198.504 82.4318 198.01C82.1693 197.517 81.8093 197.082 81.3738 196.732C80.9382 196.382 80.4362 196.123 79.8979 195.973C79.3597 195.823 78.7965 195.783 78.2425 195.856C77.6885 195.93 77.1552 196.115 76.6748 196.401C76.1945 196.686 75.7771 197.067 75.448 197.518Z" fill="white"/>
<path d="M65.728 210.688C65.8343 211.647 66.2222 212.552 66.8428 213.291C67.4633 214.029 68.2888 214.567 69.2148 214.836C70.1408 215.106 71.1259 215.095 72.0457 214.805C72.9654 214.515 73.7787 213.959 74.3827 213.207C74.9867 212.455 75.3544 211.541 75.4393 210.58C75.5242 209.62 75.3226 208.655 74.8599 207.809C74.3971 206.963 73.6941 206.273 72.8394 205.826C71.9848 205.379 71.0169 205.195 70.058 205.298C69.4193 205.367 68.8004 205.561 68.2369 205.869C67.6733 206.177 67.1761 206.593 66.7738 207.094C66.3715 207.595 66.0721 208.17 65.8926 208.787C65.7131 209.404 65.6572 210.05 65.728 210.688V210.688Z" fill="#407BFF"/>
<path d="M66.258 274.388C60.628 274.508 50.988 269.308 47.198 264.228C43.408 259.148 54.138 262.228 53.018 258.228C51.898 254.228 38.608 257.228 36.138 251.408C33.668 245.588 43.268 246.918 42.878 243.948C42.488 240.978 32.548 241.608 29.338 235.448C26.128 229.288 34.888 232.708 33.508 230.158C32.128 227.608 21.138 216.858 25.718 214.598C30.298 212.338 40.598 223.528 44.048 224.778C47.498 226.028 48.278 218.268 52.758 221.958C57.238 225.648 53.948 241.868 59.228 243.958C63.158 245.538 61.468 238.128 65.988 239.958C73.868 243.228 68.498 274.338 66.258 274.388Z" fill="#407BFF"/>
<path opacity="0.2" d="M66.258 274.388C60.628 274.508 50.988 269.308 47.198 264.228C43.408 259.148 54.138 262.228 53.018 258.228C51.898 254.228 38.608 257.228 36.138 251.408C33.668 245.588 43.268 246.918 42.878 243.948C42.488 240.978 32.548 241.608 29.338 235.448C26.128 229.288 34.888 232.708 33.508 230.158C32.128 227.608 21.138 216.858 25.718 214.598C30.298 212.338 40.598 223.528 44.048 224.778C47.498 226.028 48.278 218.268 52.758 221.958C57.238 225.648 53.948 241.868 59.228 243.958C63.158 245.538 61.468 238.128 65.988 239.958C73.868 243.228 68.498 274.338 66.258 274.388Z" fill="white"/>
<path d="M74.308 267.238C74.398 267.398 73.558 268.238 76.308 268.308C83.158 268.588 95.308 268.128 99.818 261.898C106.318 253.008 91.338 253.828 92.818 248.898C94.298 243.968 110.368 247.998 113.508 240.998C116.648 233.998 104.938 235.368 105.508 231.758C106.078 228.148 118.328 232.828 122.378 225.398C126.428 217.968 115.698 221.948 117.378 218.868C119.058 215.788 132.778 203.008 127.258 200.148C121.738 197.288 108.948 210.668 104.728 212.148C100.508 213.628 99.528 200.468 93.988 204.858C88.448 209.248 92.078 229.038 85.608 231.498C80.788 233.328 83.418 226.228 77.468 226.498C69.398 226.828 66.738 254.588 74.308 267.238Z" fill="#407BFF"/>
<path opacity="0.3" d="M74.308 267.238C74.398 267.398 73.558 268.238 76.308 268.308C83.158 268.588 95.308 268.128 99.818 261.898C106.318 253.008 91.338 253.828 92.818 248.898C94.298 243.968 110.368 247.998 113.508 240.998C116.648 233.998 104.938 235.368 105.508 231.758C106.078 228.148 118.328 232.828 122.378 225.398C126.428 217.968 115.698 221.948 117.378 218.868C119.058 215.788 132.778 203.008 127.258 200.148C121.738 197.288 108.948 210.668 104.728 212.148C100.508 213.628 99.528 200.468 93.988 204.858C88.448 209.248 92.078 229.038 85.608 231.498C80.788 233.328 83.418 226.228 77.468 226.498C69.398 226.828 66.738 254.588 74.308 267.238Z" fill="white"/>
<path d="M69.1776 291.478C69.1188 291.472 69.0617 291.454 69.0099 291.426C68.9581 291.397 68.9127 291.358 68.8763 291.311C68.8398 291.265 68.8132 291.211 68.798 291.154C68.7828 291.097 68.7793 291.037 68.7876 290.978C74.4076 244.978 100.918 226.258 101.188 226.078C101.236 226.045 101.29 226.022 101.346 226.01C101.403 225.998 101.462 225.998 101.519 226.008C101.576 226.019 101.631 226.041 101.679 226.073C101.728 226.104 101.77 226.145 101.803 226.193C101.835 226.241 101.859 226.295 101.871 226.352C101.883 226.409 101.883 226.467 101.873 226.525C101.862 226.582 101.84 226.636 101.808 226.685C101.777 226.734 101.736 226.775 101.688 226.808C101.428 226.998 75.2476 245.498 69.6876 291.088C69.6803 291.148 69.6612 291.205 69.6314 291.257C69.6017 291.309 69.5619 291.354 69.5144 291.39C69.467 291.427 69.4127 291.453 69.3549 291.468C69.2971 291.483 69.2368 291.487 69.1776 291.478Z" fill="#263238"/>
<path d="M95.1079 232.468C95.0183 232.466 94.9315 232.436 94.8598 232.382C94.7881 232.329 94.735 232.254 94.7079 232.168C94.6697 232.056 94.6777 231.932 94.7302 231.825C94.7827 231.719 94.8753 231.637 94.9879 231.598C95.1579 231.548 99.1079 230.298 105.568 231.668C105.683 231.695 105.784 231.764 105.849 231.863C105.914 231.962 105.939 232.082 105.918 232.198C105.894 232.315 105.825 232.417 105.725 232.483C105.626 232.548 105.505 232.572 105.388 232.548C99.1679 231.228 95.3079 232.438 95.2679 232.448C95.2164 232.465 95.162 232.472 95.1079 232.468V232.468Z" fill="#263238"/>
<path d="M90.258 238.058C90.143 238.056 90.0336 238.008 89.9533 237.926C89.8729 237.844 89.8279 237.733 89.828 237.618C89.688 223.698 97.748 212.828 97.828 212.718C97.9008 212.628 98.0053 212.568 98.1203 212.551C98.2353 212.535 98.3524 212.562 98.448 212.628C98.4952 212.664 98.5351 212.708 98.5652 212.759C98.5953 212.81 98.6151 212.866 98.6234 212.925C98.6318 212.983 98.6286 213.043 98.6139 213.1C98.5992 213.157 98.5734 213.211 98.538 213.258C98.458 213.358 90.538 224.008 90.718 237.608C90.718 237.726 90.672 237.839 90.5897 237.923C90.5075 238.007 90.3956 238.056 90.278 238.058H90.258Z" fill="#263238"/>
<path d="M82.318 249.838C82.261 249.837 82.2049 249.824 82.1533 249.8C82.1016 249.776 82.0556 249.741 82.018 249.698C81.976 249.657 81.9426 249.608 81.9198 249.554C81.897 249.5 81.8853 249.442 81.8853 249.383C81.8853 249.325 81.897 249.266 81.9198 249.212C81.9426 249.158 81.976 249.109 82.018 249.068C82.078 249.018 88.018 243.498 95.858 246.298C95.9549 246.348 96.0302 246.432 96.0702 246.533C96.1101 246.634 96.112 246.747 96.0753 246.849C96.0387 246.952 95.966 247.038 95.8709 247.091C95.7758 247.144 95.6646 247.161 95.558 247.138C88.258 244.518 82.688 249.668 82.638 249.718C82.5957 249.759 82.5455 249.791 82.4905 249.811C82.4354 249.832 82.3767 249.841 82.318 249.838V249.838Z" fill="#263238"/>
<path d="M78.1878 258.058C78.1044 258.053 78.0241 258.025 77.9554 257.977C77.8866 257.93 77.8322 257.864 77.7978 257.788C75.8211 252.259 75.3281 246.308 76.3678 240.528C76.3763 240.47 76.3964 240.414 76.4268 240.364C76.4572 240.314 76.4973 240.27 76.5448 240.236C76.5924 240.201 76.6463 240.177 76.7035 240.163C76.7607 240.15 76.82 240.148 76.8778 240.158C76.994 240.178 77.0978 240.242 77.167 240.338C77.2362 240.433 77.2652 240.552 77.2478 240.668C76.2587 246.283 76.7305 252.058 78.6178 257.438C78.641 257.491 78.6534 257.549 78.6544 257.607C78.6553 257.665 78.6448 257.722 78.6234 257.776C78.6021 257.83 78.5702 257.879 78.5298 257.921C78.4894 257.962 78.4411 257.995 78.3878 258.018C78.3248 258.046 78.2566 258.059 78.1878 258.058V258.058Z" fill="#263238"/>
<path d="M69.3477 307.918C69.2362 307.913 69.1308 307.866 69.0528 307.786C68.9749 307.706 68.9301 307.6 68.9277 307.488L68.3477 295.298C66.6377 254.768 38.8477 227.208 38.5677 226.938C38.5012 226.853 38.4679 226.746 38.4738 226.638C38.4797 226.529 38.5245 226.427 38.5999 226.349C38.6754 226.271 38.7763 226.223 38.8843 226.214C38.9923 226.205 39.1 226.235 39.1877 226.298C39.4677 226.578 67.5177 254.368 69.2377 295.298L69.8177 307.488C69.8204 307.606 69.777 307.72 69.6966 307.806C69.6162 307.892 69.5053 307.943 69.3877 307.948L69.3477 307.918Z" fill="#263238"/>
<path d="M50.028 242.148H49.958C49.9106 242.145 49.8654 242.127 49.828 242.098L49.678 242.048C46.0625 240.537 42.1762 239.782 38.258 239.828C38.1403 239.831 38.0262 239.788 37.9402 239.707C37.8542 239.627 37.8032 239.516 37.798 239.398C37.7966 239.339 37.807 239.28 37.8284 239.225C37.8498 239.17 37.8818 239.12 37.9227 239.077C37.9635 239.034 38.0124 239 38.0665 238.976C38.1206 238.953 38.1789 238.94 38.238 238.938C42.2884 238.89 46.3064 239.666 50.048 241.218L50.188 241.278H50.268C50.3566 241.321 50.4279 241.393 50.4697 241.483C50.5116 241.572 50.5216 241.673 50.498 241.768C50.483 241.88 50.4259 241.981 50.3385 242.052C50.2511 242.122 50.14 242.157 50.028 242.148Z" fill="#263238"/>
<path d="M53.9576 247.378C53.8993 247.375 53.8423 247.359 53.7901 247.333C53.7379 247.306 53.6917 247.269 53.6543 247.224C53.6168 247.179 53.589 247.127 53.5723 247.071C53.5557 247.015 53.5507 246.956 53.5576 246.898C54.6276 234.898 48.4376 225.088 48.3676 224.998C48.3109 224.898 48.295 224.779 48.3232 224.667C48.3514 224.555 48.4216 224.458 48.5193 224.397C48.6169 224.335 48.7345 224.313 48.8477 224.336C48.961 224.359 49.0612 224.424 49.1276 224.518C49.1876 224.618 55.5476 234.698 54.4376 246.978C54.4326 247.036 54.4162 247.092 54.3893 247.144C54.3624 247.195 54.3256 247.241 54.281 247.278C54.2363 247.315 54.1848 247.343 54.1293 247.361C54.0738 247.378 54.0155 247.384 53.9576 247.378Z" fill="#263238"/>
<path d="M58.0179 254.308C57.9047 254.306 57.7968 254.259 57.7179 254.178C56.2306 252.832 54.432 251.877 52.4839 251.399C50.5358 250.921 48.4994 250.934 46.5579 251.438C46.4425 251.469 46.3197 251.452 46.2166 251.392C46.1135 251.332 46.0384 251.234 46.0079 251.118C45.9929 251.062 45.9893 251.003 45.9973 250.945C46.0054 250.887 46.0248 250.831 46.0546 250.781C46.0844 250.731 46.1239 250.687 46.1708 250.652C46.2177 250.617 46.2711 250.592 46.3279 250.578C48.4183 250.019 50.6167 250.001 52.716 250.526C54.8154 251.05 56.7466 252.101 58.3279 253.578C58.3699 253.619 58.4033 253.668 58.4261 253.722C58.4489 253.776 58.4607 253.835 58.4607 253.893C58.4607 253.952 58.4489 254.01 58.4261 254.064C58.4033 254.118 58.3699 254.167 58.3279 254.208C58.2855 254.245 58.2362 254.272 58.183 254.29C58.1297 254.307 58.0736 254.313 58.0179 254.308V254.308Z" fill="#263238"/>
<path d="M63.1677 265.728C63.1012 265.727 63.036 265.71 62.9777 265.678C62.9253 265.652 62.8788 265.615 62.8408 265.571C62.8028 265.526 62.7741 265.474 62.7564 265.418C62.7387 265.362 62.7323 265.304 62.7377 265.245C62.7431 265.187 62.7601 265.13 62.7877 265.078C64.8259 260.473 65.6488 255.422 65.1777 250.408C65.1693 250.291 65.2077 250.174 65.2844 250.084C65.3611 249.995 65.47 249.939 65.5877 249.928C65.6463 249.923 65.7054 249.929 65.7615 249.947C65.8176 249.965 65.8696 249.994 65.9143 250.032C65.9591 250.07 65.9957 250.117 66.0221 250.17C66.0484 250.222 66.0639 250.28 66.0677 250.338C66.578 255.519 65.7193 260.743 63.5777 265.488C63.5394 265.563 63.4805 265.626 63.4078 265.668C63.3352 265.711 63.2518 265.732 63.1677 265.728V265.728Z" fill="#263238"/>
<path d="M94.4177 309.838C94.4177 324.048 88.0177 335.578 68.6577 335.578C50.1777 335.578 42.9077 324.048 42.9077 309.838C42.904 304.677 44.4546 299.635 47.3577 295.368H89.9677C92.8708 299.635 94.4215 304.677 94.4177 309.838V309.838Z" fill="#407BFF"/>
<path opacity="0.7" d="M94.4177 309.838C94.4177 324.048 88.0177 335.578 68.6577 335.578C50.1777 335.578 42.9077 324.048 42.9077 309.838C42.904 304.677 44.4546 299.635 47.3577 295.368H89.9677C92.8708 299.635 94.4215 304.677 94.4177 309.838V309.838Z" fill="white"/>
<path d="M242.358 323.008L252.318 321.558L249.808 298.248L239.838 299.708L242.358 323.008Z" fill="#E8BFBF"/>
<path d="M259.978 321.908C260.841 321.842 261.657 321.49 262.298 320.908C262.432 320.739 262.523 320.539 262.563 320.327C262.603 320.114 262.591 319.895 262.528 319.688C262.498 319.56 262.437 319.442 262.35 319.344C262.262 319.246 262.152 319.172 262.028 319.128C260.698 318.648 257.028 321.338 256.648 321.638C256.607 321.669 256.577 321.711 256.561 321.759C256.545 321.807 256.544 321.859 256.558 321.908C256.574 321.953 256.605 321.992 256.644 322.018C256.683 322.045 256.73 322.059 256.778 322.058C257.847 322.104 258.918 322.053 259.978 321.908V321.908ZM261.378 319.568C261.526 319.534 261.68 319.534 261.828 319.568C261.88 319.585 261.927 319.615 261.964 319.655C262.001 319.695 262.026 319.745 262.038 319.798C262.079 319.935 262.087 320.081 262.061 320.221C262.035 320.362 261.976 320.495 261.888 320.608C261.378 321.238 259.748 321.608 257.488 321.608C258.671 320.724 259.997 320.047 261.408 319.608L261.378 319.568Z" fill="#407BFF"/>
<path d="M256.838 322.068H256.918C258.028 321.338 260.018 318.798 259.638 317.708C259.56 317.516 259.417 317.358 259.234 317.261C259.051 317.164 258.84 317.135 258.638 317.178C258.398 317.185 258.163 317.241 257.946 317.343C257.73 317.444 257.536 317.589 257.378 317.768C256.308 319.008 256.518 321.768 256.518 321.848C256.518 321.888 256.528 321.928 256.545 321.964C256.562 322 256.587 322.033 256.618 322.058C256.652 322.075 256.689 322.085 256.727 322.087C256.764 322.088 256.802 322.082 256.838 322.068ZM258.508 317.648L258.648 317.578C259.088 317.578 259.138 317.728 259.148 317.778C259.388 318.448 258.058 320.398 256.958 321.298C256.858 320.148 257.128 318.995 257.728 318.008C257.939 317.79 258.224 317.658 258.528 317.638L258.508 317.648Z" fill="#407BFF"/>
<path d="M251.258 317.428L242.428 319.538C242.236 319.577 242.066 319.685 241.949 319.842C241.833 319.999 241.779 320.194 241.798 320.388L242.088 333.178C242.117 333.39 242.188 333.595 242.296 333.779C242.405 333.964 242.549 334.125 242.72 334.255C242.89 334.384 243.085 334.478 243.292 334.532C243.5 334.585 243.715 334.598 243.928 334.568C243.991 334.574 244.054 334.574 244.118 334.568C247.938 333.568 249.748 332.968 254.608 331.838C257.608 331.158 267.038 330.438 270.908 328.718C274.778 326.998 273.268 323.078 271.508 323.448C265.828 324.668 258.508 322.238 254.398 318.538C253.878 318.228 251.908 317.278 251.258 317.428Z" fill="#263238"/>
<path opacity="0.2" d="M249.808 298.248L251.098 310.268L241.138 311.728L239.838 299.718L249.808 298.248Z" fill="black"/>
<path d="M255.128 305.328L236.698 308.768C236.698 308.768 227.748 295.988 226.058 286.918C224.298 277.468 226.178 245.308 226.058 244.918C220.848 227.318 206.678 181.718 199.848 164.918C196.058 155.618 193.398 149.358 193.398 149.358L195.308 148.928L210.358 142.768L221.358 144.828C221.358 144.828 254.668 212.198 258.158 237.538C260.728 256.438 255.128 305.328 255.128 305.328Z" fill="#38C6AE"/>
<path opacity="0.2" d="M221.718 229.638C216.508 212.038 205.988 185.348 199.148 168.568L194.618 152.568L193.748 149.488L195.338 152.398L213.188 191.938C221.068 207.148 221.838 230.068 221.718 229.638Z" fill="black"/>
<path d="M140.828 317.518L149.708 321.258L159.178 300.938L150.308 297.198L140.828 317.518Z" fill="#E8BFBF"/>
<path d="M155.488 325.518C156.191 325.959 157.024 326.146 157.848 326.048C158.048 325.995 158.233 325.894 158.384 325.752C158.536 325.611 158.651 325.434 158.718 325.238C158.769 325.124 158.789 324.998 158.777 324.874C158.765 324.749 158.72 324.63 158.648 324.528C157.888 323.408 153.558 323.418 153.078 323.418C153.03 323.423 152.985 323.44 152.946 323.469C152.907 323.497 152.877 323.535 152.858 323.578C152.845 323.623 152.846 323.671 152.861 323.715C152.875 323.76 152.902 323.799 152.938 323.828C153.734 324.469 154.587 325.035 155.488 325.518V325.518ZM157.888 324.518C158.026 324.576 158.147 324.669 158.238 324.788C158.262 324.833 158.275 324.883 158.275 324.933C158.275 324.984 158.262 325.034 158.238 325.078C158.191 325.206 158.115 325.322 158.016 325.415C157.917 325.509 157.798 325.579 157.668 325.618C156.908 325.818 155.458 325.178 153.668 323.898C155.093 323.866 156.514 324.079 157.868 324.528L157.888 324.518Z" fill="#407BFF"/>
<path d="M152.978 323.868H153.058C154.328 323.938 157.298 323.098 157.628 322.048C157.682 321.853 157.664 321.645 157.578 321.461C157.492 321.278 157.343 321.132 157.158 321.048C156.971 320.917 156.759 320.828 156.535 320.784C156.311 320.741 156.08 320.746 155.858 320.798C154.318 321.138 152.948 323.368 152.858 323.458C152.841 323.493 152.833 323.53 152.833 323.568C152.833 323.606 152.841 323.644 152.858 323.678C152.86 323.718 152.872 323.756 152.893 323.789C152.914 323.822 152.943 323.85 152.978 323.868V323.868ZM156.768 321.398H156.908C157.258 321.628 157.198 321.788 157.178 321.838C156.988 322.478 154.868 323.238 153.508 323.318C154.076 322.373 154.93 321.633 155.948 321.208C156.239 321.159 156.539 321.219 156.788 321.378L156.768 321.398Z" fill="#407BFF"/>
<path d="M151.318 317.148L143.318 313.788C143.144 313.701 142.944 313.684 142.758 313.739C142.572 313.795 142.415 313.92 142.318 314.088L135.318 324.088C135.219 324.269 135.158 324.467 135.136 324.671C135.114 324.876 135.134 325.082 135.192 325.279C135.251 325.476 135.348 325.66 135.477 325.819C135.607 325.979 135.767 326.111 135.948 326.208L136.118 326.288C139.608 327.718 141.368 328.238 145.758 330.118C148.448 331.278 156.148 336.068 160.108 336.918C164.068 337.768 165.108 333.918 163.548 333.188C158.478 330.918 154.218 324.918 153.108 319.728C152.858 319.228 151.878 317.378 151.318 317.148Z" fill="#263238"/>
<path opacity="0.2" d="M159.568 301.168L154.438 311.528L145.648 307.588L150.768 297.228L159.568 301.168Z" fill="black"/>
<path d="M161.418 312.458L143.738 303.038C143.738 303.038 140.348 290.448 143.738 282.418C150.258 266.968 167.238 244.248 167.348 243.818C171.878 226.038 179.818 177.328 182.538 159.418C184.038 149.488 184.928 147.348 184.928 147.348L186.798 147.958L213.798 148.008C213.798 148.008 218.898 189.008 199.338 252.408C194.478 268.188 186.338 281.308 172.908 299.058C169.312 303.72 165.477 308.193 161.418 312.458V312.458Z" fill="#38C6AE"/>
<path d="M237.818 114.538C238.227 111.289 239.603 108.237 241.768 105.778C242.318 105.198 244.428 104.318 245.628 103.538C251.498 99.6883 263.258 94.8783 263.258 94.8783L266.888 98.0383C266.888 98.0383 259.728 104.958 255.468 108.278C254.628 108.938 253.658 109.728 252.638 110.568C250.778 112.108 242.058 117.858 240.398 119.308L237.818 114.538Z" fill="#E8BFBF"/>
<path d="M273.598 93.0883L266.888 98.0883L263.128 95.3183C264.093 94.0966 265.132 92.9344 266.238 91.8383C266.578 91.5081 266.849 91.1134 267.034 90.6772C267.22 90.2411 267.316 89.7722 267.318 89.2983C267.242 87.7518 267.588 86.2137 268.318 84.8483C268.316 84.8217 268.316 84.7949 268.318 84.7683C268.66 84.287 269.132 83.913 269.679 83.6901C270.225 83.4671 270.824 83.4044 271.405 83.5093C271.987 83.6142 272.526 83.8823 272.96 84.2823C273.394 84.6824 273.706 85.1978 273.858 85.7683L274.858 89.3483C275.042 90.0264 275.02 90.7438 274.796 91.4095C274.571 92.0753 274.154 92.6595 273.598 93.0883V93.0883Z" fill="#E8BFBF"/>
<path d="M239.958 115.878L238.188 117.498C237.638 117.058 236.768 116.348 235.668 115.428C227.048 108.278 205.438 90.9183 214.048 85.9683C221.438 81.7183 229.278 94.7083 233.188 98.6183C235.024 100.575 236.615 102.748 237.928 105.088C239.768 108.408 241.128 112.418 239.958 115.878Z" fill="#263238"/>
<path d="M237.918 103.538C234.851 105.782 232.258 108.61 230.288 111.858C231.01 114.221 232.229 116.402 233.864 118.255C235.5 120.107 237.512 121.588 239.768 122.598C242.274 116.915 243.348 110.703 242.898 104.508C241.338 104.148 239.478 103.878 237.918 103.538Z" fill="#263238"/>
<path d="M190.468 84.9583C187.378 85.9583 183.848 85.1483 181.868 87.7183C179.888 90.2883 179.298 93.6583 179.298 96.8983C179.48 101.405 180.171 105.877 181.358 110.228C182.598 115.562 183.841 120.878 185.088 126.178C185.938 129.818 185.038 146.728 185.948 147.008C185.948 147.008 214.218 146.458 221.308 145.458C221.308 145.458 221.918 128.078 222.488 122.158C222.618 120.848 224.608 115.268 224.838 113.868C225.948 107.268 223.778 102.618 221.498 96.3183C221.498 96.3183 216.498 86.2483 214.048 85.9683C209.698 85.4783 199.058 82.1483 190.468 84.9583Z" fill="#263238"/>
<path d="M189.258 93.2883C189.158 92.7083 184.138 82.5683 179.328 89.6583C172.638 99.5183 172.188 111.898 172.188 111.898C172.188 111.898 168.078 123.898 170.938 126.558C173.798 129.218 176.938 130.878 178.938 129.388C180.349 128.156 181.476 126.63 182.238 124.918C182.238 124.918 191.038 103.608 189.258 93.2883Z" fill="#263238"/>
<path d="M188.948 81.1983C188.46 81.6372 188.079 82.182 187.835 82.7908C187.59 83.3997 187.488 84.0564 187.536 84.7108C187.584 85.3653 187.782 85.9999 188.113 86.5663C188.445 87.1327 188.901 87.6156 189.448 87.9783C189.155 89.0065 189.158 90.0966 189.456 91.1233C189.755 92.15 190.337 93.0715 191.136 93.7819C191.936 94.4922 192.919 94.9626 193.974 95.1389C195.028 95.3152 196.111 95.1902 197.098 94.7783C196.258 96.2983 197.208 98.3083 198.678 99.2483C200.229 100.05 201.934 100.507 203.678 100.588C205.429 100.672 207.108 101.305 208.478 102.398L213.818 94.7083C214.602 93.7684 215.111 92.6296 215.288 91.4183C215.338 90.2083 214.418 88.8683 213.208 88.9583C213.815 88.3037 214.152 87.4447 214.154 86.5523C214.156 85.6599 213.822 84.7995 213.218 84.1426C212.614 83.4856 211.784 83.0802 210.895 83.0072C210.005 82.9341 209.121 83.1987 208.418 83.7483C208.504 83.2238 208.434 82.6858 208.217 82.2006C208 81.7154 207.646 81.3044 207.198 81.0183C206.289 80.4702 205.258 80.1574 204.198 80.1083L188.948 81.1983Z" fill="#263238"/>
<path d="M192.158 68.1483C193.548 73.2483 195.238 82.6583 191.868 86.3783C198.043 89.0441 203.603 92.9557 208.198 97.8683C209.412 96.7521 210.244 95.2829 210.578 93.668C210.912 92.0531 210.73 90.3742 210.058 88.8683C209.665 87.912 209.083 87.0446 208.348 86.3179C207.613 85.5911 206.739 85.0199 205.778 84.6383C202.058 83.0583 202.028 79.4083 202.648 75.8983L192.158 68.1483Z" fill="#E8BFBF"/>
<path opacity="0.2" d="M194.258 76.8383L197.768 77.7883C199.273 78.1972 200.846 78.2891 202.388 78.0583V78.0583C202.258 79.1395 202.371 80.236 202.718 81.2683C201.543 81.7219 200.262 81.8245 199.03 81.5635C197.798 81.3025 196.668 80.6893 195.778 79.7983C195.129 78.8916 194.616 77.8942 194.258 76.8383V76.8383Z" fill="black"/>
<path d="M185.348 63.7983C189.058 71.6383 190.468 75.0383 196.188 77.5383C204.808 81.3083 213.608 75.0083 212.308 66.2183C211.128 58.3083 205.248 46.7983 196.098 46.7583C194.084 46.7396 192.098 47.2356 190.329 48.1993C188.56 49.163 187.066 50.5625 185.99 52.2651C184.913 53.9677 184.289 55.9171 184.177 57.9284C184.064 59.9397 184.468 61.9464 185.348 63.7583V63.7983Z" fill="#E8BFBF"/>
<path d="M189.428 48.8183C186.718 47.5583 183.358 48.5883 181.098 50.5683C178.838 52.5483 177.408 55.4083 176.098 58.1583C175.309 59.6213 174.704 61.1765 174.298 62.7883C173.893 64.4192 174.114 66.1424 174.918 67.6183C175.346 68.3078 175.932 68.8859 176.628 69.3048C177.323 69.7238 178.108 69.9717 178.918 70.0283C179.416 70.059 179.896 70.2252 180.307 70.5089C180.717 70.7926 181.043 71.1832 181.248 71.6383C181.453 72.4793 181.453 73.3573 181.248 74.1983C181.057 75.014 181.057 75.8626 181.248 76.6783C181.52 77.3198 181.968 77.8717 182.539 78.2713C183.11 78.6709 183.782 78.902 184.478 78.9383C185.87 78.9769 187.258 78.753 188.568 78.2783C188.967 78.142 189.395 78.1147 189.808 78.1991C190.221 78.2834 190.604 78.4765 190.918 78.7583C191.078 78.9054 191.213 79.0777 191.318 79.2683C191.42 79.4418 191.568 79.5836 191.746 79.6781C191.923 79.7726 192.124 79.816 192.325 79.8036C192.525 79.7912 192.719 79.7234 192.884 79.6077C193.048 79.492 193.178 79.333 193.258 79.1483C194.468 76.2683 192.708 71.6783 190.088 68.1483C188.698 66.2883 188.768 66.7583 188.228 64.4983C187.768 62.6183 188.458 60.6583 189.298 58.9183C190.428 56.5883 191.868 54.3283 191.418 51.5483C191.333 50.9657 191.107 50.4126 190.761 49.9369C190.414 49.4612 189.956 49.0772 189.428 48.8183V48.8183Z" fill="#263238"/>
<path d="M185.578 71.8283C186.813 73.1387 188.518 73.9049 190.318 73.9583C192.708 74.0183 193.318 71.7383 192.158 69.7883C191.158 68.0383 188.618 65.9083 186.458 66.7883C184.298 67.6683 184.078 70.1483 185.578 71.8283Z" fill="#E8BFBF"/>
<path d="M200.258 62.4083C200.538 63.0883 201.088 63.4583 201.518 63.2783C201.948 63.0983 202.058 62.4483 201.818 61.7783C201.578 61.1083 200.998 60.7783 200.558 60.9083C200.118 61.0383 200.028 61.7483 200.258 62.4083Z" fill="#263238"/>
<path d="M207.608 59.2483C207.878 59.9383 208.428 60.2983 208.858 60.1283C209.288 59.9583 209.398 59.2983 209.158 58.6283C208.918 57.9583 208.338 57.6283 207.908 57.7583C207.478 57.8883 207.348 58.5983 207.608 59.2483Z" fill="#263238"/>
<path d="M207.718 57.8783L209.108 56.7883C209.108 56.7883 208.808 58.3383 207.718 57.8783Z" fill="#263238"/>
<path d="M205.708 60.7183C207.408 62.3983 208.708 62.7183 210.528 63.8583C210.51 64.3174 210.346 64.7589 210.06 65.1186C209.774 65.4783 209.381 65.7374 208.938 65.8583L205.708 60.7183Z" fill="#ED847E"/>
<path d="M208.158 69.0683C208.476 68.9515 208.784 68.8076 209.078 68.6383C209.124 68.6129 209.159 68.5703 209.174 68.5197C209.188 68.4692 209.183 68.4147 209.158 68.3683V68.3683C209.129 68.3231 209.085 68.2901 209.033 68.2753C208.981 68.2606 208.926 68.2652 208.878 68.2883C208.113 68.7327 207.253 68.9881 206.369 69.0333C205.486 69.0785 204.604 68.9122 203.798 68.5483C203.749 68.5236 203.692 68.5193 203.64 68.5361C203.587 68.5529 203.543 68.5896 203.518 68.6383C203.504 68.6617 203.495 68.6878 203.491 68.7148C203.488 68.7419 203.49 68.7693 203.497 68.7956C203.505 68.8218 203.518 68.8462 203.535 68.8673C203.552 68.8884 203.574 68.9058 203.598 68.9183C204.309 69.2464 205.08 69.4287 205.863 69.4544C206.646 69.4802 207.426 69.3489 208.158 69.0683V69.0683Z" fill="#263238"/>
<path d="M200.018 56.9583C200.013 57.05 199.979 57.1379 199.922 57.2097C199.864 57.2814 199.786 57.3334 199.698 57.3583C197.778 57.9283 196.928 60.3583 196.928 60.3583C196.91 60.4121 196.882 60.4619 196.845 60.5049C196.808 60.5479 196.763 60.5831 196.712 60.6087C196.661 60.6342 196.606 60.6495 196.55 60.6537C196.493 60.658 196.436 60.651 196.383 60.6333C196.329 60.6156 196.279 60.5874 196.236 60.5504C196.193 60.5134 196.158 60.4683 196.132 60.4177C196.107 60.3671 196.091 60.312 196.087 60.2555C196.083 60.1989 196.09 60.1421 196.108 60.0883C196.178 59.9883 197.108 57.1983 199.448 56.4983C199.559 56.4699 199.677 56.4852 199.777 56.541C199.878 56.5968 199.953 56.6888 199.988 56.7983C200.011 56.8481 200.022 56.9032 200.018 56.9583V56.9583Z" fill="#263238"/>
<path d="M208.868 55.7783C208.793 55.8313 208.704 55.8597 208.613 55.8597C208.521 55.8597 208.432 55.8313 208.358 55.7783C206.798 54.5183 204.308 55.2083 204.298 55.2183C204.243 55.2352 204.186 55.241 204.129 55.2356C204.072 55.2301 204.017 55.2134 203.967 55.1864C203.917 55.1594 203.872 55.1227 203.836 55.0784C203.8 55.0341 203.774 54.983 203.758 54.9283C203.726 54.8182 203.739 54.7003 203.793 54.5995C203.847 54.4987 203.939 54.4229 204.048 54.3883C204.168 54.3883 207.048 53.5683 208.898 55.0883C208.984 55.1622 209.04 55.2663 209.053 55.3795C209.066 55.4927 209.035 55.6066 208.968 55.6983C208.939 55.7307 208.905 55.7578 208.868 55.7783V55.7783Z" fill="#263238"/>
<path d="M200.418 61.0183L201.808 59.9383C201.808 59.9383 201.488 61.4883 200.418 61.0183Z" fill="#263238"/>
<path d="M190.028 47.5083C188.933 47.6047 187.875 47.9482 186.933 48.5129C185.99 49.0776 185.189 49.8487 184.588 50.7683C183.788 52.0083 183.508 53.8883 184.688 54.7683C185.289 55.1355 185.983 55.3261 186.688 55.3183C189.688 55.5883 193.478 53.2383 193.478 53.2383C192.308 48.2383 202.738 44.4183 207.878 52.1183C209.388 54.3783 208.978 56.0183 211.488 57.0683C212.668 57.5583 214.228 57.4183 214.988 58.4583C216.238 60.1683 213.828 63.0683 215.358 64.5383C216.408 65.5383 218.788 65.1583 218.938 66.6083C218.998 67.2883 218.558 68.2683 219.208 68.4683C219.568 68.5783 219.908 68.2483 220.138 67.9483C220.762 67.2771 221.221 66.4688 221.478 65.5883C221.6 65.1481 221.573 64.6799 221.401 64.2566C221.229 63.8334 220.922 63.4789 220.528 63.2483C219.888 62.9583 218.198 63.2483 218.308 63.9683C218.049 62.3823 217.965 60.7726 218.058 59.1683C218.338 57.8283 219.618 56.6583 219.228 55.3383C218.838 54.0183 217.148 53.3383 215.698 53.1583C214.248 52.9783 212.598 52.7683 211.698 51.6083C210.798 50.4483 211.158 48.4483 210.838 46.8383C210.57 45.8321 210.068 44.9034 209.373 44.1283C208.678 43.3531 207.809 42.7535 206.838 42.3783C200.988 39.8683 192.018 40.2283 190.028 47.5083Z" fill="#263238"/>
<path d="M206.498 74.1483L186.498 84.1983C183.318 85.7917 180.85 88.5181 179.58 91.8405C178.31 95.1628 178.331 98.8403 179.638 102.148L189.258 126.748C190.556 130.053 193.04 132.755 196.225 134.325C199.41 135.896 203.066 136.221 206.478 135.238L227.978 129.038C229.884 128.491 231.656 127.552 233.178 126.281C234.701 125.01 235.941 123.435 236.819 121.656C237.698 119.878 238.195 117.936 238.279 115.954C238.363 113.972 238.032 111.995 237.308 110.148L226.158 81.7283C225.439 79.8797 224.343 78.2015 222.938 76.8011C221.534 75.4006 219.853 74.3087 218.002 73.5952C216.152 72.8817 214.173 72.5624 212.192 72.6576C210.211 72.7529 208.271 73.2606 206.498 74.1483V74.1483ZM203.188 116.388C201.591 117.014 199.844 117.153 198.169 116.786C196.494 116.419 194.965 115.564 193.776 114.328C192.587 113.092 191.791 111.531 191.489 109.843C191.187 108.154 191.392 106.415 192.079 104.843C192.766 103.272 193.904 101.939 195.349 101.015C196.793 100.09 198.479 99.6143 200.194 99.6481C201.909 99.6818 203.575 100.223 204.982 101.204C206.389 102.185 207.473 103.561 208.098 105.158C208.518 106.22 208.725 107.355 208.706 108.497C208.686 109.64 208.442 110.767 207.985 111.814C207.529 112.861 206.87 113.808 206.047 114.6C205.224 115.392 204.252 116.013 203.188 116.428V116.388Z" fill="#407BFF"/>
<path d="M206.498 74.1483L186.498 84.1983C183.318 85.7917 180.85 88.5181 179.58 91.8405C178.31 95.1628 178.331 98.8403 179.638 102.148L189.258 126.748C190.556 130.053 193.04 132.755 196.225 134.325C199.41 135.896 203.066 136.221 206.478 135.238L227.978 129.038C229.884 128.491 231.656 127.552 233.178 126.281C234.701 125.01 235.941 123.435 236.819 121.656C237.698 119.878 238.195 117.936 238.279 115.954C238.363 113.972 238.032 111.995 237.308 110.148L226.158 81.7283C225.439 79.8797 224.343 78.2015 222.938 76.8011C221.534 75.4006 219.853 74.3087 218.002 73.5952C216.152 72.8817 214.173 72.5624 212.192 72.6576C210.211 72.7529 208.271 73.2606 206.498 74.1483V74.1483ZM203.188 116.388C201.591 117.014 199.844 117.153 198.169 116.786C196.494 116.419 194.965 115.564 193.776 114.328C192.587 113.092 191.791 111.531 191.489 109.843C191.187 108.154 191.392 106.415 192.079 104.843C192.766 103.272 193.904 101.939 195.349 101.015C196.793 100.09 198.479 99.6143 200.194 99.6481C201.909 99.6818 203.575 100.223 204.982 101.204C206.389 102.185 207.473 103.561 208.098 105.158C208.518 106.22 208.725 107.355 208.706 108.497C208.686 109.64 208.442 110.767 207.985 111.814C207.529 112.861 206.87 113.808 206.047 114.6C205.224 115.392 204.252 116.013 203.188 116.428V116.388Z" fill="#407BFF"/>
<path opacity="0.1" d="M237.308 110.148L226.158 81.7283C225.439 79.8797 224.343 78.2015 222.938 76.8011C221.534 75.4006 219.853 74.3087 218.002 73.5952C216.152 72.8817 214.173 72.5624 212.192 72.6576C210.211 72.7529 208.271 73.2606 206.498 74.1483L200.688 77.1483L196.788 79.1483L186.508 84.3183C183.354 85.908 180.905 88.6134 179.635 91.9087C178.365 95.204 178.366 98.8537 179.638 102.148L189.258 126.748C190.556 130.053 193.04 132.755 196.225 134.325C199.41 135.896 203.066 136.221 206.478 135.238L227.988 129.038C229.69 128.548 231.285 127.74 232.688 126.658C233.742 125.864 234.675 124.921 235.458 123.858C236.91 121.92 237.842 119.643 238.165 117.244C238.489 114.844 238.194 112.402 237.308 110.148V110.148ZM203.188 116.408C201.592 117.032 199.847 117.168 198.174 116.8C196.5 116.433 194.973 115.578 193.785 114.343C192.597 113.108 191.802 111.549 191.5 109.862C191.197 108.176 191.402 106.437 192.086 104.867C192.771 103.296 193.906 101.964 195.348 101.038C196.789 100.112 198.473 99.6336 200.186 99.6637C201.899 99.6938 203.565 100.231 204.973 101.207C206.381 102.183 207.469 103.555 208.098 105.148C208.52 106.211 208.728 107.347 208.709 108.49C208.691 109.633 208.447 110.762 207.99 111.81C207.534 112.858 206.875 113.806 206.05 114.599C205.226 115.391 204.253 116.013 203.188 116.428V116.408Z" fill="white"/>
<path d="M206.698 76.0683L187.948 85.4883C184.973 86.9818 182.664 89.5325 181.472 92.6404C180.281 95.7483 180.294 99.1892 181.508 102.288L190.558 125.348C191.767 128.455 194.094 130.998 197.082 132.478C200.07 133.959 203.503 134.269 206.708 133.348L226.868 127.528C228.652 127.014 230.31 126.132 231.735 124.94C233.16 123.748 234.32 122.272 235.142 120.606C235.963 118.94 236.428 117.121 236.507 115.265C236.585 113.41 236.276 111.558 235.598 109.828L225.148 83.1483C224.47 81.4161 223.439 79.8444 222.12 78.5334C220.8 77.2225 219.222 76.2012 217.486 75.5348C215.749 74.8685 213.893 74.5718 212.035 74.6636C210.178 74.7555 208.36 75.2339 206.698 76.0683V76.0683ZM191.948 111.518C191.323 109.922 191.185 108.176 191.552 106.501C191.919 104.826 192.774 103.298 194.01 102.109C195.245 100.921 196.806 100.125 198.493 99.8229C200.181 99.5209 201.92 99.726 203.492 100.412C205.063 101.099 206.395 102.235 207.32 103.679C208.245 105.122 208.722 106.808 208.689 108.522C208.657 110.236 208.117 111.902 207.137 113.309C206.158 114.717 204.784 115.802 203.188 116.428C202.127 116.846 200.995 117.05 199.856 117.029C198.717 117.008 197.593 116.762 196.549 116.306C195.504 115.85 194.56 115.192 193.771 114.371C192.981 113.549 192.362 112.58 191.948 111.518V111.518Z" fill="#85D5C7"/>
<path d="M299.878 67.1483L299.308 68.1483L298.988 68.7283L298.078 70.3783L298.458 74.6083C298.478 74.7872 298.458 74.9684 298.398 75.1383C298.336 75.3223 298.235 75.4908 298.102 75.6323C297.969 75.7738 297.808 75.885 297.628 75.9583L289.728 79.0483C289.547 79.1202 289.353 79.1504 289.159 79.1365C288.965 79.1227 288.776 79.0652 288.608 78.9683C288.496 78.9124 288.395 78.838 288.308 78.7483L283.838 74.1983L277.478 76.6883L278.398 79.0383L272.048 81.5183L273.558 85.3883L268.888 87.2183C268.701 87.2906 268.501 87.3227 268.301 87.3123C268.102 87.302 267.906 87.2495 267.728 87.1583C267.606 87.1002 267.494 87.0225 267.398 86.9283L264.708 84.3983L258.348 86.8783L259.868 90.7483L253.188 93.3683L254.708 97.2483C254.768 97.3992 254.797 97.5605 254.794 97.7229C254.791 97.8852 254.756 98.0453 254.691 98.1941C254.626 98.3428 254.532 98.4772 254.415 98.5895C254.298 98.7018 254.159 98.7897 254.008 98.8483L235.718 106.008L227.778 85.7583L293.958 59.8483L294.958 60.3783L298.308 62.1083C298.75 62.3276 299.143 62.6342 299.463 63.0096C299.783 63.385 300.024 63.8214 300.171 64.2925C300.317 64.7636 300.367 65.2596 300.317 65.7504C300.266 66.2413 300.117 66.7168 299.878 67.1483V67.1483Z" fill="#407BFF"/>
<path d="M299.618 64.8683L228.858 92.5683L226.798 87.3683L294.258 60.9583L297.618 62.6783C298.898 63.3383 299.628 63.9483 299.618 64.8683Z" fill="#85D5C7"/>
<path d="M298.258 68.7683L297.578 70.3083C297.572 70.3347 297.572 70.3619 297.578 70.3883L297.968 74.5683C297.994 74.7172 297.994 74.8694 297.968 75.0183C297.961 75.0433 297.949 75.0664 297.932 75.0856C297.914 75.1048 297.892 75.1194 297.868 75.1283L289.278 78.5083C289.257 78.5206 289.233 78.527 289.208 78.527C289.183 78.527 289.159 78.5206 289.138 78.5083C289.052 78.4568 288.975 78.3928 288.908 78.3183L283.988 73.3783C283.963 73.3611 283.933 73.3519 283.903 73.3519C283.873 73.3519 283.843 73.3611 283.818 73.3783L276.818 76.1183C276.78 76.1359 276.749 76.1671 276.732 76.2059C276.716 76.2447 276.714 76.2883 276.728 76.3283L277.558 78.4383C277.566 78.458 277.57 78.479 277.57 78.5003C277.57 78.5216 277.565 78.5426 277.557 78.5622C277.549 78.5817 277.537 78.5994 277.521 78.6142C277.506 78.629 277.488 78.6406 277.468 78.6483L271.518 80.9883C271.498 80.996 271.48 81.0076 271.465 81.0224C271.449 81.0372 271.437 81.0548 271.429 81.0744C271.421 81.0939 271.416 81.115 271.416 81.1362C271.416 81.1575 271.42 81.1786 271.428 81.1983L272.858 84.8283C272.868 84.8477 272.873 84.8691 272.874 84.8908C272.874 84.9125 272.87 84.9341 272.862 84.9541C272.853 84.9741 272.84 84.9919 272.824 85.0065C272.808 85.021 272.789 85.0319 272.768 85.0383L268.408 86.7583C268.387 86.7706 268.363 86.777 268.338 86.777C268.313 86.777 268.289 86.7706 268.268 86.7583C268.177 86.7064 268.093 86.6425 268.018 86.5683L264.818 83.6283C264.794 83.6142 264.766 83.6068 264.738 83.6068C264.71 83.6068 264.682 83.6142 264.658 83.6283L257.728 86.3583C257.707 86.3647 257.688 86.3756 257.672 86.3901C257.656 86.4046 257.643 86.4225 257.634 86.4425C257.626 86.4625 257.622 86.484 257.622 86.5058C257.623 86.5275 257.628 86.5488 257.638 86.5683L259.098 90.2883C259.108 90.3077 259.113 90.3291 259.114 90.3508C259.114 90.3725 259.11 90.3941 259.102 90.4141C259.093 90.434 259.08 90.4519 259.064 90.4665C259.048 90.481 259.029 90.4919 259.008 90.4983L232.398 100.968C232.359 100.982 232.317 100.98 232.28 100.963C232.243 100.946 232.214 100.916 232.198 100.878L229.458 94.1483C229.444 94.1084 229.446 94.0647 229.462 94.0259C229.479 93.9871 229.51 93.9558 229.548 93.9383L298.888 66.6483C298.918 66.637 298.951 66.635 298.982 66.6425C299.013 66.6501 299.041 66.6668 299.063 66.6905C299.084 66.7142 299.098 66.7438 299.103 66.7755C299.107 66.8072 299.102 66.8395 299.088 66.8683L298.258 68.7683Z" fill="#85D5C7"/>
<path opacity="0.3" d="M196.328 98.1483C194.328 98.9343 192.605 100.296 191.379 102.06C190.152 103.824 189.476 105.913 189.435 108.062C189.395 110.21 189.993 112.323 191.153 114.132C192.313 115.941 193.983 117.366 195.952 118.226C197.921 119.086 200.101 119.344 202.217 118.965C204.332 118.587 206.288 117.59 207.837 116.101C209.386 114.612 210.459 112.696 210.92 110.597C211.382 108.498 211.21 106.31 210.428 104.308C209.91 102.976 209.133 101.758 208.143 100.727C207.153 99.6949 205.969 98.869 204.659 98.2966C203.348 97.7241 201.938 97.4163 200.508 97.3909C199.078 97.3654 197.658 97.6228 196.328 98.1483V98.1483ZM203.188 116.448C201.591 117.074 199.845 117.213 198.169 116.846C196.494 116.479 194.965 115.624 193.776 114.388C192.587 113.152 191.791 111.591 191.489 109.903C191.187 108.214 191.393 106.475 192.08 104.903C192.767 103.332 193.904 101.999 195.349 101.075C196.793 100.15 198.479 99.6743 200.194 99.708C201.909 99.7418 203.575 100.283 204.982 101.264C206.389 102.245 207.473 103.621 208.098 105.218C208.929 107.356 208.879 109.736 207.958 111.837C207.038 113.939 205.323 115.589 203.188 116.428V116.448Z" fill="white"/>
<path opacity="0.1" d="M235.468 123.848C234.689 124.911 233.759 125.854 232.708 126.648L196.778 79.0583C196.778 79.0583 199.948 77.4683 200.668 76.9883C200.673 77.0413 200.691 77.0925 200.718 77.1383C202.258 80.4683 230.498 117.148 235.468 123.848Z" fill="white"/>
<path opacity="0.1" d="M230.258 128.148C230.038 128.248 219.568 131.438 219.568 131.438L207.898 115.988C209.659 114.228 210.762 111.917 211.023 109.441C211.285 106.965 210.688 104.474 209.333 102.385C207.979 100.296 205.948 98.7359 203.581 97.9647C201.213 97.1934 198.653 97.2583 196.328 98.1483C195.845 98.3289 195.38 98.5532 194.938 98.8183L184.618 85.1483C184.618 85.1483 193.688 80.8283 194.688 80.1483C194.958 82.0783 230.258 127.748 230.258 128.148Z" fill="white"/>
<path d="M187.448 53.0883C186.861 53.7845 186.442 54.606 186.223 55.4896C186.004 56.3732 185.99 57.2954 186.183 58.185C186.377 59.0747 186.771 59.9082 187.337 60.6213C187.903 61.3344 188.625 61.9081 189.448 62.2983C190.308 62.6983 191.248 62.8883 192.088 63.2983C192.526 63.4752 192.914 63.7592 193.214 64.1243C193.514 64.4894 193.719 64.924 193.808 65.3883C193.908 66.3883 193.138 67.3883 193.218 68.3883C193.304 68.8565 193.486 69.3017 193.753 69.6959C194.019 70.0901 194.365 70.4246 194.768 70.6783C195.578 71.1845 196.262 71.8684 196.768 72.6783C196.882 72.884 196.952 73.1109 196.974 73.3449C196.996 73.5788 196.97 73.8149 196.896 74.0382C196.823 74.2615 196.705 74.4674 196.548 74.6429C196.392 74.8184 196.201 74.9598 195.988 75.0583C195.88 75.249 195.823 75.4643 195.823 75.6833C195.823 75.9023 195.88 76.1176 195.988 76.3083C196.116 76.4383 196.284 76.5216 196.466 76.5452C196.647 76.5687 196.831 76.5311 196.988 76.4383C197.699 75.9938 198.289 75.3806 198.706 74.6531C199.123 73.9257 199.354 73.1064 199.378 72.2683C199.368 71.4377 199.125 70.6267 198.676 69.928C198.227 69.2294 197.59 68.6715 196.838 68.3183C196.743 68.019 196.709 67.7037 196.738 67.391C196.767 67.0783 196.859 66.7747 197.008 66.4983C197.458 65.3583 197.918 64.2083 198.378 63.0683C198.452 62.7886 198.464 62.4963 198.414 62.2115C198.364 61.9266 198.253 61.656 198.088 61.4183C197.747 61.075 197.333 60.8119 196.878 60.6483L193.928 59.3883C192.818 58.9083 189.508 54.4883 193.428 53.1983C193.192 52.6979 192.823 52.2725 192.36 51.9689C191.898 51.6654 191.361 51.4956 190.808 51.4783C190.158 51.4468 189.511 51.5775 188.924 51.8586C188.338 52.1396 187.83 52.5622 187.448 53.0883V53.0883Z" fill="#263238"/>
<path d="M192.798 48.3283L192.498 51.8183C193.498 50.2183 195.288 47.1083 195.228 47.2283C194.458 47.6483 193.568 47.9083 192.798 48.3283Z" fill="#263238"/>
<path d="M194.118 50.2383L198.218 46.4483C197.684 46.2634 197.109 46.2329 196.559 46.3603C196.009 46.4877 195.506 46.7677 195.108 47.1683C195.138 47.0783 194.498 49.0183 194.118 50.2383Z" fill="#263238"/>
<path d="M185.788 144.848C180.458 151.468 182.228 156.538 174.868 168.258C184.158 175.138 194.338 176.258 206.988 175.258C208.488 172.608 209.238 169.848 210.738 167.198C212.878 169.858 214.598 172.088 216.738 174.758C223.368 173.758 231.248 171.848 236.488 168.468C231.858 163.158 228.978 156.528 226.018 150.678C224.628 147.928 225.208 146.778 221.518 143.178C209.768 143.718 198.118 143.998 186.378 144.548C186.698 144.598 185.478 144.828 185.788 144.848Z" fill="#263238"/>
<path d="M187.258 143.738L186.528 146.828C186.418 147.078 186.708 147.308 187.098 147.278L219.488 145.848C219.611 145.863 219.736 145.834 219.84 145.767C219.944 145.699 220.021 145.597 220.058 145.478L220.228 142.408C220.228 142.208 219.958 142.028 219.618 142.058L187.808 143.458C187.7 143.454 187.593 143.477 187.496 143.526C187.4 143.575 187.318 143.648 187.258 143.738V143.738Z" fill="#407BFF"/>
<path d="M187.258 143.738L186.528 146.828C186.418 147.078 186.708 147.308 187.098 147.278L219.488 145.848C219.611 145.863 219.736 145.834 219.84 145.767C219.944 145.699 220.021 145.597 220.058 145.478L220.228 142.408C220.228 142.208 219.958 142.028 219.618 142.058L187.808 143.458C187.7 143.454 187.593 143.477 187.496 143.526C187.4 143.575 187.318 143.648 187.258 143.738V143.738Z" fill="#407BFF"/>
<path d="M194.388 147.288H193.448C193.268 147.288 193.118 147.208 193.128 147.098L193.378 143.098C193.378 142.978 193.548 142.878 193.728 142.878L194.678 142.828C194.848 142.828 194.998 142.908 194.988 143.028L194.738 147.028C194.728 147.148 194.568 147.278 194.388 147.288Z" fill="#263238"/>
<path d="M217.768 146.278H216.828C216.648 146.278 216.498 146.198 216.508 146.088L216.758 142.088C216.758 141.968 216.928 141.858 217.108 141.858H218.048C218.228 141.858 218.368 141.938 218.358 142.048L218.108 146.048C218.108 146.148 217.958 146.268 217.768 146.278Z" fill="#263238"/>
<path d="M198.568 127.868C198.628 128.158 201.138 132.158 203.118 131.868C203.399 131.829 203.686 131.865 203.95 131.972C204.213 132.079 204.443 132.254 204.618 132.478C205.408 133.478 205.888 134.098 206.418 134.778C206.838 135.315 207.429 135.693 208.092 135.849C208.755 136.005 209.452 135.931 210.068 135.638C210.438 135.468 210.808 135.278 211.178 135.078C211.775 134.766 212.25 134.262 212.526 133.647C212.802 133.032 212.862 132.342 212.698 131.688C212.331 130.214 211.762 128.797 211.008 127.478C210.785 127.009 210.439 126.608 210.008 126.318C207.929 125.523 205.753 125.012 203.538 124.798C201.838 124.868 200.178 127.148 198.568 127.868Z" fill="#E8BFBF"/>
<path d="M203.638 124.678C203.638 124.678 177.058 116.628 171.318 121.988C167.948 125.138 169.538 128.118 171.428 129.988C172.828 131.418 175.878 131.068 177.878 130.988L198.818 128.928L203.638 124.678Z" fill="#E8BFBF"/>
<path d="M188.358 120.998C188.239 120.283 187.943 119.608 187.498 119.036C187.053 118.463 186.472 118.01 185.808 117.718C184.477 117.154 183.061 116.816 181.618 116.718L171.618 115.448C169.821 117.665 168.811 120.416 168.748 123.268C168.819 126.027 169.828 128.68 171.608 130.788C173.208 127.698 175.318 124.518 178.438 122.978C181.558 121.438 184.938 120.378 188.358 120.998Z" fill="#263238"/>
<path opacity="0.1" d="M181.508 72.4483C181.508 72.3883 181.508 72.3583 181.508 72.3483C181.718 72.2883 181.688 72.3283 181.508 72.4483Z" fill="white"/>
<path d="M247.548 29.4083L254.948 43.1483L285.168 17.4883C285.221 17.4422 285.254 17.3779 285.262 17.3081C285.27 17.2383 285.251 17.1682 285.21 17.1116C285.168 17.055 285.107 17.016 285.038 17.0024C284.969 16.9889 284.898 17.0017 284.838 17.0383L256.508 35.7383L252.148 27.2183L247.548 29.4083Z" fill="#38C6AE"/>
<path d="M295.258 29.4783C295.258 41.7183 282.408 51.6283 266.558 51.6283C260.861 51.6682 255.243 50.2938 250.208 47.6283L233.358 54.9583L243.958 43.1483C242.07 41.3992 240.555 39.2869 239.503 36.9378C238.451 34.5888 237.885 32.0516 237.838 29.4783C237.838 17.2383 250.688 7.31828 266.528 7.31828C282.368 7.31828 295.258 17.2383 295.258 29.4783Z" stroke="#38C6AE" stroke-width="1.3" stroke-miterlimit="10"/>
</svg>
