<svg width="38" height="38" viewBox="0 0 38 38" fill="none" xmlns="http://www.w3.org/2000/svg">
<circle cx="18.7055" cy="19.2128" r="18.413" fill="#38C6AE"/>
<path fill-rule="evenodd" clip-rule="evenodd" d="M24.6778 10.1095C25.3178 10.2772 25.8733 10.724 26.1569 11.2994C26.4295 11.8525 26.4115 11.2935 26.4115 19.2127C26.4115 25.3149 26.404 26.355 26.3588 26.5713C26.1839 27.4073 25.5106 28.1009 24.6636 28.3175C24.3964 28.3859 24.2511 28.3885 20.7287 28.3885H17.0712L16.8881 28.2973C16.6294 28.1683 16.5062 27.9744 16.489 27.6688C16.4726 27.378 16.5729 27.1645 16.802 27.0031L16.9552 26.8952L20.6315 26.8772L24.3077 26.8592L24.4517 26.7817C24.6323 26.6845 24.7385 26.5716 24.8098 26.401C24.8594 26.2823 24.8655 25.4991 24.8655 19.2127C24.8655 12.9262 24.8594 12.1431 24.8098 12.0243C24.7385 11.8537 24.6323 11.7409 24.4517 11.6436L24.3077 11.5662L20.6315 11.5482L16.9552 11.5302L16.802 11.4222C16.5729 11.2609 16.4726 11.0474 16.489 10.7565C16.5062 10.4509 16.6294 10.257 16.8881 10.1281L17.0712 10.0369L20.7434 10.0388C24.2379 10.0407 24.4284 10.0442 24.6778 10.1095ZM13.6153 13.8861C14.1035 14.0419 14.3218 14.6297 14.0401 15.0293C13.9875 15.104 13.2077 15.8932 12.3072 16.7831C11.4067 17.6731 10.6646 18.4138 10.658 18.4292C10.6513 18.4445 12.6841 18.457 15.1753 18.457H19.7046L19.863 18.538C20.1813 18.7006 20.3514 19.0581 20.2653 19.3836C20.2069 19.6042 20.062 19.7857 19.863 19.8874L19.7046 19.9683H15.1753C12.6841 19.9683 10.6513 19.9809 10.658 19.9962C10.6646 20.0115 11.4067 20.7522 12.3072 21.6422C13.2077 22.5322 13.9875 23.3214 14.0401 23.396C14.4786 24.0179 13.7349 24.8318 13.0512 24.4783C12.9069 24.4036 8.1461 19.7006 8.06834 19.5559C7.98972 19.4096 7.98972 19.0158 8.06834 18.8695C8.14804 18.7211 12.9088 14.0207 13.057 13.9441C13.2 13.8702 13.4757 13.8415 13.6153 13.8861Z" fill="white"/>
</svg>
