<svg width="270" height="270" viewBox="0 0 270 270" fill="none" xmlns="http://www.w3.org/2000/svg">
<g filter="url(#filter0_d_113_160)">
<path d="M265.312 217.875C265.312 241.766 245.766 261.312 221.875 261.312H48.125C24.2344 261.312 4.6875 241.766 4.6875 217.875V44.125C4.6875 20.2344 24.2344 0.6875 48.125 0.6875H221.875C245.766 0.6875 265.312 20.2344 265.312 44.125V217.875Z" fill="#FDAB15"/>
<path d="M95.9062 142.294C94.1687 138.819 91.9969 135.778 89.3906 133.172C86.7844 130.566 83.3094 128.394 79.8344 126.656C75.925 124.919 72.45 124.05 68.1063 124.05C59.8531 124.05 51.1656 115.797 51.1656 107.978C51.1656 99.2907 58.55 92.3407 67.2375 92.3407C75.925 92.3407 84.1781 99.2907 84.1781 107.978H98.0781C98.0781 104.069 97.2094 100.159 95.9062 96.6844C94.6031 93.2094 92.4312 90.1688 89.3906 87.1282C86.7844 84.5219 83.3094 82.35 79.8344 80.6125C76.3594 78.875 71.1469 78.4407 67.2375 78.4407C63.3281 78.4407 59.4187 79.3094 55.5094 80.6125C52.0344 81.9157 48.5594 84.0875 45.9531 86.6938C43.3469 89.3 41.175 92.3407 39.4375 96.2501C37.7 99.7251 37.2656 103.634 37.2656 107.544C37.2656 114.928 40.7406 122.313 46.8219 127.959C52.9031 133.606 60.7219 137.081 68.1063 137.081C76.3594 137.081 84.1781 144.466 84.1781 153.153C84.1781 161.841 76.7938 168.791 68.1063 168.791C59.4188 168.791 51.1656 161.406 51.1656 152.719H37.7C37.7 156.628 38.5688 160.538 39.8719 164.013C41.175 167.488 43.3469 170.528 46.3875 173.569C48.9938 176.175 52.4688 178.347 55.9438 179.65C59.4188 181.388 64.6313 182.256 68.5406 182.256C72.45 182.256 76.3594 181.388 80.2687 180.084C83.7437 178.781 87.2188 176.609 89.825 173.569C92.4313 170.963 94.6031 167.922 96.3406 164.013C98.0781 160.538 98.5125 156.628 98.5125 152.719C98.5125 149.678 97.6438 146.203 95.9062 142.294" fill="white"/>
<path d="M165.407 96.6844C163.669 93.2094 161.497 90.1688 158.891 87.1282C156.285 84.0875 152.81 82.35 149.335 80.6125C145.425 78.875 141.516 78.4407 137.607 78.4407C133.697 78.4407 129.354 79.3094 125.879 80.6125C122.404 81.9157 118.929 84.0875 116.322 87.1282C113.716 89.7344 111.544 92.7751 109.807 96.6844C108.069 100.159 107.2 104.069 107.2 107.978V153.153C107.2 157.063 108.069 160.972 109.807 164.447C111.544 167.922 113.716 170.963 116.322 174.003C118.929 176.609 122.404 178.781 125.879 180.519C129.788 182.256 133.697 182.691 137.607 182.691C141.516 182.691 145.86 181.822 149.335 180.519C152.81 179.216 156.285 177.044 158.891 174.003C161.497 171.397 163.669 168.356 165.407 164.447C167.144 160.972 168.013 157.063 168.013 153.153V108.413C168.013 104.503 167.144 100.594 165.407 96.6844ZM137.607 169.659C128.485 169.659 121.1 162.709 121.1 153.588V108.413C121.1 99.725 128.485 92.3407 137.607 92.3407C146.729 92.3407 154.113 99.2907 154.113 108.413V153.588C153.679 162.275 146.294 169.659 137.607 169.659Z" fill="white"/>
<path d="M234.906 142.294C233.169 138.819 230.997 135.778 228.391 133.172C225.784 130.566 222.309 128.394 218.834 126.656C214.925 124.919 211.016 124.05 207.106 124.05C198.853 124.05 190.166 115.797 190.166 107.978C190.166 99.2907 197.55 92.3407 206.238 92.3407C214.925 92.3407 223.178 99.2907 223.178 107.978H237.078C237.078 104.069 236.209 100.159 234.906 96.6844C233.603 93.2094 231.431 90.1688 228.391 87.1282C225.784 84.5219 222.309 82.35 218.834 80.6125C214.925 78.875 210.147 78.4407 206.238 78.4407C202.328 78.4407 198.419 79.3094 194.509 80.6125C191.034 81.9157 187.559 84.0875 184.953 87.1282C182.347 89.7344 180.175 92.7751 178.437 96.6844C176.7 100.159 176.266 104.069 176.266 107.978C176.266 115.363 179.741 122.747 185.822 128.394C191.903 134.041 199.722 137.516 207.106 137.516C215.359 137.516 223.178 144.9 223.178 153.588C223.178 162.275 215.794 169.225 207.106 169.225C198.419 169.225 190.166 161.841 190.166 153.153H176.266C176.266 157.063 177.134 160.972 178.437 164.447C179.741 167.922 181.912 170.963 184.953 174.003C187.559 176.609 191.034 178.781 194.509 180.084C198.419 181.822 203.197 182.691 207.106 182.691C211.016 182.691 214.925 181.822 218.834 180.519C222.309 179.216 225.784 177.044 228.391 174.438C230.997 171.831 233.169 168.791 234.906 164.881C236.644 161.406 237.078 157.497 237.078 153.588C237.512 149.678 236.644 146.203 234.906 142.294Z" fill="white"/>
</g>
<defs>
<filter id="filter0_d_113_160" x="0.6875" y="0.6875" width="268.625" height="268.625" filterUnits="userSpaceOnUse" color-interpolation-filters="sRGB">
<feFlood flood-opacity="0" result="BackgroundImageFix"/>
<feColorMatrix in="SourceAlpha" type="matrix" values="0 0 0 0 0 0 0 0 0 0 0 0 0 0 0 0 0 0 127 0" result="hardAlpha"/>
<feOffset dy="4"/>
<feGaussianBlur stdDeviation="2"/>
<feComposite in2="hardAlpha" operator="out"/>
<feColorMatrix type="matrix" values="0 0 0 0 0 0 0 0 0 0 0 0 0 0 0 0 0 0 0.25 0"/>
<feBlend mode="normal" in2="BackgroundImageFix" result="effect1_dropShadow_113_160"/>
<feBlend mode="normal" in="SourceGraphic" in2="effect1_dropShadow_113_160" result="shape"/>
</filter>
</defs>
</svg>
