<svg xmlns="http://www.w3.org/2000/svg" width="500" height="500" style="width:100%;height:100%"><defs><clipPath id="b"><path d="M0 0h500v500H0z"/></clipPath><filter id="a" filterUnits="objectBoundingBox" x="0%" y="0%" width="100%" height="100%"><feComponentTransfer in="SourceGraphic"><feFuncA type="table" tableValues="1.0 0.0"/></feComponentTransfer></filter><mask id="c"><g filter="url(#a)"><path fill="red" d="M2.704-41.892h-5.408c-7.383 0-13.467-5.794-13.827-13.169l-2.827-57.89c-.457-9.358 7.008-17.196 16.377-17.196h5.962c9.369 0 16.834 7.838 16.377 17.196l-2.827 57.89c-.36 7.375-6.444 13.169-13.827 13.169zM-15.853 0c0-8.755 7.098-15.853 15.853-15.853 8.755 0 15.853 7.098 15.853 15.853 0 8.755-7.098 15.853-15.853 15.853-8.755 0-15.853-7.098-15.853-15.853z" transform="translate(250 335.48)" display="block"/></g></mask></defs><g clip-path="url(#b)"><g mask="url(#c)" display="block"><path stroke-linecap="round" stroke-linejoin="round" stroke="#F10000" stroke-width="12.04" d="M261.287 123.084l139.026 240.799c5.016 8.689-1.254 19.55-11.287 19.55H110.974c-10.033 0-16.303-10.861-11.287-19.55l139.026-240.799c5.016-8.689 17.558-8.689 22.574 0z" fill="none"/></g><path stroke-linecap="round" stroke-linejoin="round" stroke="#F10000" stroke-width="12.04" d="M252.704 293.588h-5.408c-7.383 0-13.467-5.794-13.827-13.169l-2.827-57.89c-.457-9.358 7.008-17.196 16.377-17.196h5.962c9.369 0 16.834 7.838 16.377 17.196l-2.827 57.89c-.36 7.375-6.444 13.169-13.827 13.169zm-18.557 41.892c0-8.755 7.098-15.853 15.853-15.853 8.755 0 15.853 7.098 15.853 15.853 0 8.755-7.098 15.853-15.853 15.853-8.755 0-15.853-7.098-15.853-15.853z" fill="none" display="block"/></g></svg>