<svg width="21" height="20" viewBox="0 0 21 20" fill="none" xmlns="http://www.w3.org/2000/svg">
<path d="M4.68996 0.44751C5.07797 0.510122 5.44411 0.668931 5.75496 0.909437C5.80308 0.951139 5.8544 0.989633 5.89931 1.03454C6.76757 1.90066 7.63582 2.76837 8.50407 3.6377C9.21781 4.35785 9.2948 5.39077 8.69654 6.14141C8.50702 6.38271 8.25281 6.56516 7.96355 6.66749C7.70202 6.74827 7.46073 6.88391 7.25578 7.06535C7.05084 7.24679 6.88695 7.46985 6.77505 7.71966C6.61969 8.0638 6.59072 8.45173 6.69325 8.81513C6.94827 9.77748 7.47436 10.5987 8.11913 11.3461C8.89132 12.2801 9.84584 13.0469 10.9244 13.5996C11.3173 13.7937 11.7263 13.9733 12.1738 13.9525C13.0079 13.9172 13.6366 13.5306 13.9045 12.7271C14.0111 12.434 14.1909 12.1731 14.4268 11.9691C14.6628 11.7652 14.9469 11.6249 15.2523 11.5618C15.5577 11.4986 15.8742 11.5146 16.1717 11.6082C16.4692 11.7019 16.7377 11.87 16.9519 12.0967C17.8308 12.981 18.7119 13.8621 19.5951 14.74C19.9529 15.1036 20.1534 15.5932 20.1534 16.1033C20.1534 16.6134 19.9529 17.103 19.5951 17.4666C19.0145 18.0729 18.4098 18.6551 17.8164 19.2502C17.3128 19.7554 16.6808 19.9527 15.9895 19.9816C15.0272 20.0217 14.1162 19.7747 13.226 19.4346C11.7973 18.868 10.453 18.1081 9.23065 17.1763C6.90615 15.4665 4.87342 13.3921 3.21115 11.0333C2.3171 9.80552 1.60509 8.45497 1.09719 7.02356C0.902329 6.45087 0.766887 5.85966 0.693008 5.25925C0.693008 5.21434 0.717067 5.15339 0.651306 5.12613V4.9497C0.683421 4.85065 0.683421 4.744 0.651306 4.64495V4.4573C0.673477 4.123 0.743145 3.79356 0.858211 3.47891C0.971401 3.20952 1.13468 2.96406 1.33939 2.75554C1.88472 2.21182 2.43326 1.67932 2.96575 1.12597C3.32824 0.749046 3.7212 0.455529 4.26974 0.44751H4.68996Z" fill="white"/>
</svg>
