<svg xmlns="http://www.w3.org/2000/svg" width="500" height="500" style="width:100%;height:100%"><defs><clipPath id="a"><path d="M0 0h500v500H0z"/></clipPath></defs><g display="block" clip-path="url(#a)"><path fill="#F10000" d="M382.419 359.099c6.069 6.069 6.069 15.908 0 21.977-6.069 6.069-15.908 6.069-21.977 0-6.069-6.069-6.069-15.908 0-21.977 6.069-6.069 15.908-6.069 21.977 0z"/><path stroke-linecap="round" stroke-linejoin="round" stroke="#B4B4B4" stroke-width="12.6" d="M129.098 193.816l24.015 12.09 54.136-54.136-12.09-24.015-34.172-34.173c25.538-4.643 52.87 2.85 72.709 22.689 23.427 23.427 29.548 57.408 18.784 86.534l145.63 145.63c14.196 14.196 13.355 37.509-2.524 50.625-13.791 11.391-34.419 9.097-47.067-3.551L204.148 251.137c-29.126 10.764-63.107 4.643-86.534-18.784-19.839-19.839-27.332-47.172-22.689-72.71l34.173 34.173z" style="mix-blend-mode:soft-light" fill="none"/></g></svg>