<svg width="38" height="37" viewBox="0 0 38 37" fill="none" xmlns="http://www.w3.org/2000/svg">
<circle cx="18.7591" cy="18.4677" r="18.413" fill="#38C6AE"/>
<path fill-rule="evenodd" clip-rule="evenodd" d="M18.7591 15.389C20.1193 15.389 21.222 14.2863 21.222 12.9261C21.222 11.5659 20.1193 10.4632 18.7591 10.4632C17.3989 10.4632 16.2962 11.5659 16.2962 12.9261C16.2962 14.2863 17.3989 15.389 18.7591 15.389ZM18.7591 17.852C21.4796 17.852 23.685 15.6466 23.685 12.9261C23.685 10.2056 21.4796 8.00024 18.7591 8.00024C16.0386 8.00024 13.8333 10.2056 13.8333 12.9261C13.8333 15.6466 16.0386 17.852 18.7591 17.852Z" fill="#F5F5F5"/>
<path fill-rule="evenodd" clip-rule="evenodd" d="M18.7592 21.5464C15.3586 21.5464 12.6018 24.3032 12.6018 27.7037C12.6018 28.3839 12.0505 28.9352 11.3704 28.9352C10.6903 28.9352 10.1389 28.3839 10.1389 27.7037C10.1389 22.9429 13.9983 19.0835 18.7592 19.0835C23.52 19.0835 27.3794 22.9429 27.3794 27.7037C27.3794 28.3839 26.8281 28.9352 26.1479 28.9352C25.4678 28.9352 24.9165 28.3839 24.9165 27.7037C24.9165 24.3032 22.1598 21.5464 18.7592 21.5464Z" fill="#F5F5F5"/>
</svg>
