<svg width="25" height="30" viewBox="0 0 25 30" fill="none" xmlns="http://www.w3.org/2000/svg">
<path d="M4.77181 29.9097C4.44013 29.8425 4.10629 29.7926 3.78111 29.6929C1.70867 29.1076 0.399308 27.5099 0.312595 25.3356C0.217211 23.0875 0.464343 20.872 1.31847 18.7692C1.86909 17.41 2.67119 16.2351 4.01307 15.5175C4.82447 15.0795 5.73601 14.8606 6.65781 14.8823C6.96587 14.9147 7.26246 15.017 7.52494 15.1815C7.95851 15.4156 8.35739 15.7083 8.77361 15.9662C11.2059 17.4693 13.6382 17.4693 16.0705 15.9662C16.4087 15.7495 16.7512 15.5565 17.0699 15.3159C17.6509 14.8823 18.2904 14.826 18.9819 14.9279C20.8679 15.2053 22.1989 16.2286 23.1008 17.8848C23.9029 19.3567 24.2627 20.9544 24.4231 22.602C24.5066 23.4491 24.5435 24.3001 24.5337 25.1513C24.5033 27.6877 22.7626 29.5758 20.2392 29.8533C20.1765 29.8656 20.1149 29.883 20.055 29.9054L4.77181 29.9097Z" fill="#38C6AE"/>
<path d="M19.2378 7.824C19.2412 9.20961 18.8338 10.5651 18.0671 11.7193C17.3004 12.8735 16.2088 13.7745 14.9303 14.3085C13.6517 14.8425 12.2435 14.9855 10.8837 14.7195C9.52385 14.4535 8.27338 13.7903 7.29028 12.8139C6.30719 11.8375 5.63558 10.5915 5.36033 9.23355C5.08507 7.87556 5.21852 6.46644 5.74382 5.18427C6.26912 3.9021 7.16268 2.8044 8.3116 2.02988C9.46053 1.25536 10.8133 0.838777 12.1988 0.832772C14.0583 0.829879 15.8432 1.56401 17.1625 2.87438C18.4818 4.18475 19.228 5.96455 19.2378 7.824Z" fill="#38C6AE"/>
</svg>
