<svg xmlns="http://www.w3.org/2000/svg" viewBox="0 0 136.76 115.01"><g id="Layer_2" data-name="Layer 2"><g id="Layer_1-2" data-name="Layer 1"><path d="M0,64.45c.25-1.12.48-2.24.76-3.34A25.51,25.51,0,0,1,25.58,41.48c5.74-.07,11.48,0,17.22,0h1.75a25.14,25.14,0,0,0,7.52,17.07C35.71,64.84,29.2,77,30.51,94.09A122.63,122.63,0,0,1,0,88.22Z"/><path d="M103.57,96.52c0,3.65,0,7.3,0,10.94a1.52,1.52,0,0,1-1,1.62,59.64,59.64,0,0,1-16.32,4.76c-16.49,2.63-32.6.67-48.47-4.1-2.57-.78-2.58-.77-2.58-3.4,0-6.45-.08-12.9,0-19.35a25.33,25.33,0,0,1,24-24.68c7-.31,14-.26,21.07,0,10,.42,19.69,8.59,22.16,18.41a45.33,45.33,0,0,1,1,7.9C103.71,91.26,103.57,93.9,103.57,96.52Z"/><path d="M87,58.79c1.72-2.73,3.71-5.24,5-8.08s1.76-6,2.65-9.25h.94c5,0,10,0,15,0,15,0,26.18,11.27,26.2,26.29,0,6.32,0,12.64,0,19a1.59,1.59,0,0,1-1.07,1.7,63.38,63.38,0,0,1-19.1,5.12c-2.68.33-5.37.51-8.32.78,0-2.77.18-5.35,0-7.9-1.08-13.5-8.07-22.6-20.7-27.42Z"/><path d="M49.35,40.69A20,20,0,1,1,69.3,60.75,20,20,0,0,1,49.35,40.69Z"/><path d="M34.19,0a20,20,0,0,1,20,19.85,2.39,2.39,0,0,1-.9,2.06,24.51,24.51,0,0,0-8.28,13.94,2.74,2.74,0,0,1-1.26,1.65c-7,3.7-14,3.55-20.58-.78s-9.56-10.65-9-18.46A19.92,19.92,0,0,1,34.19,0Z"/><path d="M102.62,0a20,20,0,1,1-7.49,38.62,1.67,1.67,0,0,1-1.23-1.48A24.34,24.34,0,0,0,83.27,20.28a1.65,1.65,0,0,1-.7-1.8A20,20,0,0,1,102.62,0Z"/></g></g></svg>