<svg width="451" height="448" viewBox="0 0 451 448" fill="none" xmlns="http://www.w3.org/2000/svg">
<path d="M34.83 382.56C34.7673 382.516 34.7145 382.46 34.6749 382.394C34.6353 382.329 34.6098 382.256 34.6 382.18C32.6 360.63 14.29 345.04 6.45995 338.38C5.19995 337.31 4.19995 336.46 3.55995 335.83C2.20477 334.617 1.18603 333.075 0.602575 331.353C0.0191191 329.63 -0.10924 327.787 0.229954 326C0.629888 324.456 1.42905 323.044 2.54717 321.907C3.66529 320.77 5.06301 319.946 6.59995 319.52C14.78 316.85 27.6 326.99 35.8 342.58C47.28 364.44 41.89 380.58 41.8 380.72C41.7747 380.805 41.727 380.881 41.6619 380.941C41.5967 381.001 41.5166 381.042 41.43 381.06L35.24 382.65C35.1707 382.665 35.0992 382.665 35.03 382.65C34.9588 382.631 34.8912 382.601 34.83 382.56V382.56ZM34.83 343.07C26.83 327.93 14.61 318.02 6.90995 320.52C5.54652 320.888 4.30466 321.609 3.31055 322.612C2.31644 323.615 1.6055 324.863 1.24995 326.23C0.946807 327.837 1.06367 329.495 1.58925 331.044C2.11482 332.593 3.03129 333.979 4.24995 335.07C4.85995 335.67 5.84995 336.51 7.09995 337.57C15 344.25 33.3 359.8 35.61 381.45L40.91 380.09C41.54 377.93 45.3 363 34.85 343.07H34.83Z" fill="#5FAAB6"/>
<path d="M38.57 381.75H38.65C38.7915 381.75 38.9273 381.694 39.0283 381.595C39.1293 381.496 39.1873 381.361 39.19 381.22C39.65 356.06 22.19 331.81 10.51 326.82C10.4457 326.792 10.3765 326.777 10.3063 326.776C10.2362 326.775 10.1666 326.788 10.1015 326.814C10.0364 326.84 9.97708 326.879 9.92704 326.928C9.877 326.977 9.8372 327.035 9.80995 327.1C9.75302 327.231 9.75053 327.38 9.80303 327.513C9.85553 327.646 9.95873 327.753 10.09 327.81C21.68 332.74 38.56 357.34 38.09 381.2C38.0866 381.335 38.1341 381.467 38.2229 381.568C38.3118 381.67 38.4356 381.735 38.57 381.75V381.75Z" fill="#5FAAB6"/>
<path d="M41.25 381.06C41.3253 381.08 41.4046 381.08 41.48 381.06L45.68 379.79C45.7634 379.764 45.8396 379.719 45.9022 379.658C45.9648 379.598 46.012 379.523 46.04 379.44C46.11 379.2 53.52 355.16 48.04 322.77C45.26 306.27 35.65 290.18 25.18 284.51C20.18 281.78 15.18 281.44 10.47 283.51C7.79996 284.68 6.11996 286.39 5.46996 288.61C3.73996 294.73 10.1 303.85 16.83 313.51C21.54 320.27 26.42 327.25 28.64 333.42C28.6876 333.553 28.7855 333.662 28.9126 333.724C29.0397 333.785 29.186 333.795 29.32 333.75C29.4535 333.7 29.5621 333.6 29.622 333.471C29.682 333.342 29.6884 333.194 29.64 333.06C27.37 326.76 22.46 319.71 17.71 312.9C11.12 303.46 4.89996 294.54 6.49996 288.9C7.03996 286.98 8.49996 285.54 10.87 284.49C15.27 282.57 19.87 282.9 24.64 285.49C34.84 291.02 44.23 306.79 46.96 322.99C52.06 353.29 45.84 376.17 45.05 378.89L41.18 380C41.0783 380.043 40.9927 380.117 40.935 380.211C40.8773 380.305 40.8504 380.415 40.8581 380.525C40.8658 380.635 40.9077 380.74 40.978 380.825C41.0482 380.91 41.1433 380.971 41.25 381V381.06Z" fill="#5FAAB6"/>
<path d="M42.2899 365.75C42.43 365.758 42.5678 365.712 42.6742 365.62C42.7806 365.529 42.8472 365.4 42.8599 365.26C46.0299 326.33 24.3099 295.16 17.8599 289.81C17.8062 289.765 17.7442 289.731 17.6773 289.71C17.6104 289.689 17.5401 289.682 17.4703 289.689C17.4006 289.695 17.3328 289.715 17.271 289.748C17.2091 289.781 17.1544 289.826 17.1099 289.88C17.0204 289.988 16.9766 290.127 16.9878 290.267C16.999 290.407 17.0643 290.537 17.1699 290.63C23.5099 295.91 44.8999 326.63 41.7699 365.17C41.763 365.243 41.7713 365.316 41.7942 365.386C41.817 365.455 41.8541 365.519 41.9029 365.574C41.9518 365.628 42.0114 365.672 42.078 365.702C42.1446 365.733 42.2168 365.749 42.2899 365.75V365.75Z" fill="#5FAAB6"/>
<path d="M5.02991 71.79L6.79991 72.81L50.9699 47.3L49.1999 46.28L5.02991 71.79Z" fill="#F0F0F0"/>
<path d="M49.1999 46.28L6.79993 70.77V34.01L49.1999 9.53003V46.28Z" fill="#FAFAFA"/>
<path d="M52.7399 5.45007L4.99988 33.0001V75.8701L52.7399 48.3201V5.45007ZM50.9999 47.3001L6.79988 72.8101V34.0001L50.9999 8.51007V47.3001Z" fill="#EBEBEB"/>
<path d="M50.97 47.3L49.2 46.28V9.53001L50.97 8.51001V47.3Z" fill="#E0E0E0"/>
<path d="M52.7399 5.45005L50.9699 4.43005L3.2699 31.9701L5.0299 32.9901L52.7399 5.45005Z" fill="#F5F5F5"/>
<path d="M3.2699 31.9701L5.0299 32.9901V75.8701L3.2699 74.8501V31.9701Z" fill="#E0E0E0"/>
<path d="M40.8899 40.1C42.5399 39.1 43.8899 39.92 43.8899 41.83C43.8328 42.8659 43.5311 43.8735 43.0097 44.7704C42.4882 45.6672 41.7618 46.4279 40.8899 46.99C39.2399 47.94 37.8899 47.17 37.8899 45.27C37.9471 44.2328 38.2487 43.2238 38.77 42.3253C39.2914 41.4268 40.0178 40.6643 40.8899 40.1Z" fill="#E0E0E0"/>
<path d="M16.7899 32.34L39.2399 19.34C39.8699 18.98 40.3699 19.27 40.3699 20V20.06C40.356 20.4596 40.246 20.85 40.0493 21.1981C39.8526 21.5462 39.575 21.8418 39.2399 22.06L16.7899 35C16.1599 35.36 15.6599 35.06 15.6599 34.34V34.3C15.6801 33.9073 15.793 33.5249 15.9895 33.1842C16.1859 32.8436 16.4602 32.5543 16.7899 32.34Z" fill="#E0E0E0"/>
<path d="M13.2298 42.5601L42.7898 25.4901C43.4098 25.1301 43.9198 25.3001 43.9198 25.8601C43.8729 26.2067 43.7465 26.5377 43.5504 26.8274C43.3544 27.1171 43.0941 27.3576 42.7898 27.5301L13.2098 44.6101C12.5898 44.9701 12.0898 44.8001 12.0898 44.2401C12.1401 43.8919 12.2688 43.5598 12.4663 43.2687C12.6638 42.9777 12.9249 42.7354 13.2298 42.5601V42.5601Z" fill="#F0F0F0"/>
<path d="M13.2298 46.6301L42.7898 29.5701C43.4098 29.2101 43.9198 29.3701 43.9198 29.9401C43.8729 30.2867 43.7465 30.6177 43.5504 30.9074C43.3544 31.1971 43.0941 31.4376 42.7898 31.6101L13.2098 48.6901C12.5898 49.0501 12.0898 48.8801 12.0898 48.3101C12.1401 47.9619 12.2688 47.6298 12.4663 47.3387C12.6638 47.0477 12.9249 46.8053 13.2298 46.6301V46.6301Z" fill="#F0F0F0"/>
<path d="M13.2298 50.7101L42.7898 33.6401C43.4098 33.2801 43.9198 33.4501 43.9198 34.0101C43.8729 34.358 43.7465 34.6905 43.5506 34.9818C43.3547 35.2731 43.0944 35.5154 42.7898 35.6901L13.2098 52.7601C12.5898 53.1201 12.0898 52.9601 12.0898 52.3901C12.1401 52.042 12.2688 51.7098 12.4663 51.4188C12.6638 51.1277 12.9249 50.8854 13.2298 50.7101Z" fill="#F0F0F0"/>
<path d="M35.5798 48.83C35.3526 48.9533 35.0984 49.0186 34.8398 49.02C34.2098 49.02 34.2698 48.38 34.2898 47.94C34.2898 47.74 34.0198 47.43 33.8698 47.69C33.4898 48.38 33.0098 49.02 32.5898 49.69C32.3398 50.1 31.8598 51.03 31.2498 50.9C30.9998 50.84 30.9198 50.57 30.9198 50.23C31.2284 49.6685 31.364 49.0284 31.3098 48.39C31.3098 48.2 30.9698 47.96 30.8698 48.22C30.6533 48.7633 30.5217 49.3367 30.4798 49.92C30.2029 50.4188 29.8852 50.8937 29.5298 51.34C29.3198 51.61 29.1398 51.92 28.9098 52.17C28.8598 52.23 28.7598 52.39 28.6698 52.41C28.5798 52.43 28.4798 52.32 28.4498 52.18C28.444 51.9722 28.4779 51.7651 28.5498 51.57V51.57C28.5498 51.37 28.2898 51.07 28.1898 51.32C27.7957 52.3837 27.2055 53.364 26.4498 54.21C26.4178 54.2453 26.3808 54.2757 26.3398 54.3C26.3398 54.19 26.3398 54.07 26.2898 53.95C26.2839 53.6778 26.2367 53.4081 26.1498 53.15C26.1498 53.02 25.8798 52.82 25.7598 52.99C25.2089 53.9764 24.5371 54.8901 23.7598 55.71C23.6309 55.8172 23.4939 55.9142 23.3498 56C23.2198 55.92 23.4198 55.21 23.4498 55.1C23.5298 54.78 23.6398 54.46 23.7398 54.1C23.8559 53.849 23.9366 53.5832 23.9798 53.31C23.9798 53.07 23.5998 52.7 23.5198 53.03C23.5198 53.16 23.3798 53.48 23.2498 53.88C22.7727 54.8597 22.2176 55.7994 21.5898 56.69C21.0219 57.6116 20.2309 58.3751 19.2898 58.91C19.0198 59.06 18.5298 59.26 18.2898 59.05C18.0498 58.84 18.0398 58.48 18.0198 58.22C18.0173 57.5434 18.1116 56.8699 18.2998 56.22C19.2299 55.7334 20.0909 55.1246 20.8598 54.41C21.6202 53.8087 22.2758 53.0856 22.7998 52.27C23.0598 51.79 23.2198 51.01 22.5798 50.74C22.3395 50.6969 22.0928 50.7039 21.8553 50.7607C21.6178 50.8175 21.3947 50.9228 21.1998 51.07C20.6775 51.3642 20.2023 51.735 19.7898 52.17C18.9633 53.0831 18.3517 54.1697 17.9998 55.35C17.9498 55.53 17.8698 55.78 17.7998 56.05C16.7988 56.5632 15.664 56.7552 14.5498 56.6C14.4898 56.6 14.4598 56.73 14.5498 56.74C15.6189 56.9676 16.732 56.8629 17.7398 56.44C17.4498 57.67 17.2898 59.31 18.4398 59.62C19.5898 59.93 20.9998 58.5 21.5898 57.67C22.0569 57.0382 22.4716 56.3693 22.8298 55.67C22.8597 55.6178 22.8931 55.5677 22.9298 55.52C22.9298 56.09 23.0398 56.52 23.5998 56.42C24.1598 56.32 24.6898 55.51 25.0098 55.08C25.3298 54.65 25.5698 54.23 25.8398 53.81C25.8998 54.32 25.9898 54.91 26.4798 54.81C26.9698 54.71 27.3798 53.81 27.6098 53.51C27.8154 53.2118 28.0024 52.9012 28.1698 52.58C28.2007 52.6403 28.2375 52.6972 28.2798 52.75C28.6898 53.19 29.1798 52.75 29.4398 52.37C29.6998 51.99 30.2398 51.37 30.5998 50.8C30.6392 50.9205 30.7031 51.0316 30.7874 51.1262C30.8717 51.2209 30.9747 51.2971 31.0898 51.35C31.7198 51.65 32.3098 51.13 32.6798 50.66C33.1244 50.0564 33.519 49.4177 33.8598 48.75C33.8868 48.8754 33.9399 48.9937 34.0157 49.0971C34.0915 49.2005 34.1884 49.2867 34.2998 49.35C34.533 49.4715 34.7949 49.5273 35.0573 49.5115C35.3198 49.4956 35.573 49.4087 35.7898 49.26C35.9998 49.15 35.7898 48.72 35.5798 48.83ZM21.7498 51.3C22.0498 51.15 22.6598 50.9 22.6898 51.39C22.6426 51.7124 22.5038 52.0143 22.2898 52.26C21.7853 52.9313 21.2085 53.5449 20.5698 54.09C19.908 54.7021 19.1879 55.2481 18.4198 55.72C18.6454 54.7956 19.057 53.9269 19.6295 53.167C20.2021 52.407 20.9235 51.7718 21.7498 51.3V51.3Z" fill="#E0E0E0"/>
<path d="M5.02991 130.4L6.79991 131.42L50.9699 105.92L49.1999 104.89L5.02991 130.4Z" fill="#F0F0F0"/>
<path d="M49.1999 104.89L6.79993 129.38V92.62L49.1999 68.14V104.89Z" fill="#FAFAFA"/>
<path d="M52.7399 64.0601L4.99988 91.6001V134.48L52.7099 106.94L52.7399 64.0601ZM50.9999 105.92L6.79988 131.42V92.6201L50.9999 67.1201V105.92Z" fill="#EBEBEB"/>
<path d="M50.97 105.92L49.2 104.89V68.14L50.97 67.12V105.92Z" fill="#E0E0E0"/>
<path d="M52.7399 64.06L50.9699 63.04L3.2699 90.58L5.0299 91.6L52.7399 64.06Z" fill="#F5F5F5"/>
<path d="M3.2699 90.5801L5.0299 91.6001V134.48L3.2699 133.46V90.5801Z" fill="#E0E0E0"/>
<path d="M40.8899 98.72C42.5399 97.72 43.8899 98.54 43.8899 100.44C43.8328 101.476 43.5311 102.483 43.0097 103.38C42.4882 104.277 41.7618 105.038 40.8899 105.6C39.2399 106.6 37.8899 105.78 37.8899 103.88C37.947 102.844 38.2487 101.837 38.7701 100.94C39.2915 100.043 40.018 99.2822 40.8899 98.72Z" fill="#E0E0E0"/>
<path d="M16.7899 91L39.2399 78C39.8699 77.63 40.3699 77.93 40.3699 78.65V78.71C40.356 79.1096 40.246 79.5 40.0493 79.8481C39.8526 80.1962 39.575 80.4919 39.2399 80.71L16.7899 93.71C16.1599 94.07 15.6599 93.78 15.6599 93.06V92.98C15.677 92.5839 15.7885 92.1975 15.985 91.8531C16.1816 91.5087 16.4575 91.2162 16.7899 91V91Z" fill="#E0E0E0"/>
<path d="M13.2298 101.17L42.7898 84.1001C43.4098 83.7401 43.9198 83.9101 43.9198 84.4701C43.8729 84.818 43.7465 85.1504 43.5506 85.4417C43.3547 85.733 43.0944 85.9754 42.7898 86.1501L13.2098 103.22C12.5898 103.58 12.0898 103.41 12.0898 102.85C12.1401 102.502 12.2688 102.17 12.4663 101.879C12.6638 101.588 12.9249 101.345 13.2298 101.17V101.17Z" fill="#F0F0F0"/>
<path d="M13.2298 105.24L42.7898 88.18C43.4098 87.82 43.9198 87.98 43.9198 88.55C43.8729 88.8966 43.7465 89.2277 43.5504 89.5174C43.3544 89.8071 43.0941 90.0475 42.7898 90.22L13.2098 107.3C12.5898 107.66 12.0898 107.49 12.0898 106.92C12.1422 106.573 12.2718 106.241 12.4691 105.951C12.6663 105.66 12.9263 105.417 13.2298 105.24V105.24Z" fill="#F0F0F0"/>
<path d="M13.2298 109.32L42.7898 92.2601C43.4098 91.9001 43.9198 92.0601 43.9198 92.6201C43.8743 92.9685 43.7486 93.3015 43.5525 93.5931C43.3564 93.8846 43.0954 94.1266 42.7898 94.3001L13.2098 111.37C12.5898 111.73 12.0898 111.57 12.0898 111C12.1401 110.652 12.2688 110.32 12.4663 110.029C12.6638 109.738 12.9249 109.495 13.2298 109.32V109.32Z" fill="#F0F0F0"/>
<path d="M35.5798 107.44C35.3516 107.562 35.0985 107.631 34.8398 107.64C34.2098 107.64 34.2698 106.99 34.2898 106.55C34.2898 106.35 34.0198 106.04 33.8698 106.31C33.4898 107 33.0098 107.64 32.5898 108.31C32.3398 108.72 31.8598 109.65 31.2498 109.52C30.9998 109.46 30.9198 109.19 30.9198 108.86C31.2275 108.295 31.3631 107.652 31.3098 107.01C31.3098 106.82 30.9698 106.59 30.8698 106.85C30.6519 107.389 30.5203 107.96 30.4798 108.54C30.2029 109.039 29.8852 109.514 29.5298 109.96C29.3198 110.24 29.1398 110.54 28.9098 110.8C28.8598 110.86 28.7598 111.01 28.6698 111.03C28.5798 111.05 28.4798 110.94 28.4498 110.8C28.4432 110.595 28.4772 110.391 28.5498 110.2V110.2C28.5498 110 28.2898 109.7 28.1898 109.95C27.7972 111.014 27.2068 111.995 26.4498 112.84C26.4182 112.878 26.3811 112.912 26.3398 112.94C26.3398 112.82 26.3398 112.7 26.2898 112.58C26.283 112.308 26.2358 112.038 26.1498 111.78C26.1498 111.65 25.8798 111.45 25.7598 111.62C25.2114 112.608 24.5393 113.522 23.7598 114.34C23.6335 114.45 23.4961 114.548 23.3498 114.63C23.2198 114.55 23.4198 113.84 23.4498 113.73C23.5298 113.41 23.6398 113.09 23.7398 112.73C23.8543 112.482 23.935 112.22 23.9798 111.95C23.9798 111.7 23.5998 111.33 23.5198 111.66C23.5198 111.79 23.3798 112.12 23.2498 112.51C22.7749 113.491 22.2197 114.431 21.5898 115.32C21.0222 116.244 20.2313 117.011 19.2898 117.55C19.0198 117.69 18.5298 117.89 18.2898 117.69C18.0498 117.49 18.0398 117.12 18.0198 116.85C18.0186 116.173 18.1129 115.5 18.2998 114.85C19.2276 114.363 20.0881 113.758 20.8598 113.05C21.6183 112.443 22.2735 111.717 22.7998 110.9C23.0598 110.43 23.2198 109.65 22.5798 109.38C22.1398 109.19 21.5798 109.5 21.1998 109.71C20.6782 110.001 20.203 110.369 19.7898 110.8C18.9607 111.719 18.3489 112.813 17.9998 114C17.9498 114.19 17.8698 114.43 17.7998 114.71C16.7977 115.22 15.6629 115.408 14.5498 115.25C14.4898 115.25 14.4598 115.38 14.5498 115.39C15.6189 115.618 16.732 115.513 17.7398 115.09C17.4498 116.32 17.2898 117.96 18.4398 118.28C19.5898 118.6 20.9798 117.15 21.5998 116.33C22.0686 115.699 22.4834 115.03 22.8398 114.33C22.8697 114.278 22.9031 114.228 22.9398 114.18C22.9398 114.76 23.0498 115.18 23.6098 115.08C24.1698 114.98 24.6998 114.18 25.0198 113.74C25.3398 113.3 25.5798 112.9 25.8498 112.47C25.9098 112.98 25.9998 113.57 26.4898 113.47C26.9798 113.37 27.3898 112.47 27.6198 112.17C27.8254 111.872 28.0125 111.561 28.1798 111.24C28.2107 111.3 28.2475 111.357 28.2898 111.41C28.6998 111.85 29.1898 111.41 29.4498 111.03C29.7098 110.65 30.2498 110.03 30.6098 109.46C30.6492 109.58 30.7131 109.692 30.7974 109.786C30.8817 109.881 30.9847 109.957 31.0998 110.01C31.7298 110.31 32.3198 109.79 32.6898 109.32C33.1365 108.718 33.5313 108.079 33.8698 107.41C33.8955 107.537 33.948 107.657 34.0239 107.763C34.0998 107.868 34.1973 107.956 34.3098 108.02C34.5439 108.14 34.8062 108.194 35.0687 108.177C35.3312 108.159 35.5839 108.07 35.7998 107.92C35.9998 107.76 35.7898 107.34 35.5798 107.44ZM21.7498 109.91C22.0498 109.76 22.6598 109.51 22.6898 110.01C22.6408 110.329 22.5021 110.627 22.2898 110.87C21.7883 111.544 21.2112 112.158 20.5698 112.7C19.9056 113.312 19.1858 113.861 18.4198 114.34C18.6408 113.412 19.0505 112.54 19.6235 111.778C20.1964 111.016 20.9202 110.38 21.7498 109.91V109.91Z" fill="#E0E0E0"/>
<path d="M5.02991 189.01L6.79991 190.03L50.9699 164.53L49.1999 163.51L5.02991 189.01Z" fill="#F0F0F0"/>
<path d="M49.1999 163.51L6.79993 187.99V151.24L49.1999 126.75V163.51Z" fill="#FAFAFA"/>
<path d="M52.7399 122.67L4.99988 150.22V193.09L52.7099 165.55L52.7399 122.67ZM50.9999 164.53L6.79988 190V151.24L50.9999 125.73V164.53Z" fill="#EBEBEB"/>
<path d="M50.97 164.53L49.2 163.51V126.75L50.97 125.73V164.53Z" fill="#E0E0E0"/>
<path d="M52.7399 122.67L50.9699 121.65L3.2699 149.2L5.0299 150.22L52.7399 122.67Z" fill="#F5F5F5"/>
<path d="M3.2699 149.2L5.0299 150.22V193.09L3.2699 192.07V149.2Z" fill="#E0E0E0"/>
<path d="M40.8899 157.33C42.5399 156.33 43.8899 157.15 43.8899 159.05C43.8327 160.087 43.5311 161.096 43.0098 161.995C42.4884 162.893 41.762 163.656 40.8899 164.22C39.2399 165.17 37.8899 164.4 37.8899 162.49C37.947 161.454 38.2487 160.447 38.7701 159.55C39.2915 158.653 40.018 157.892 40.8899 157.33Z" fill="#E0E0E0"/>
<path d="M16.7899 149.56L39.2399 136.56C39.8699 136.2 40.3699 136.49 40.3699 137.21V137.27C40.3577 137.67 40.2484 138.061 40.0516 138.409C39.8547 138.758 39.5762 139.053 39.2399 139.27L16.7899 152.27C16.1599 152.63 15.6599 152.34 15.6599 151.62V151.54C15.677 151.144 15.7885 150.757 15.985 150.413C16.1816 150.069 16.4575 149.776 16.7899 149.56V149.56Z" fill="#E0E0E0"/>
<path d="M13.2298 159.78L42.7898 142.72C43.4098 142.36 43.9198 142.52 43.9198 143.08C43.8743 143.428 43.7486 143.761 43.5525 144.053C43.3564 144.345 43.0954 144.587 42.7898 144.76L13.2098 161.83C12.5898 162.19 12.0898 162.03 12.0898 161.46C12.1401 161.112 12.2688 160.78 12.4663 160.489C12.6638 160.198 12.9249 159.955 13.2298 159.78V159.78Z" fill="#F0F0F0"/>
<path d="M13.2298 163.86L42.7898 146.79C43.4098 146.43 43.9198 146.6 43.9198 147.16C43.8729 147.507 43.7465 147.838 43.5504 148.127C43.3544 148.417 43.0941 148.658 42.7898 148.83L13.2098 165.91C12.5898 166.27 12.0898 166.1 12.0898 165.54C12.1401 165.192 12.2688 164.86 12.4663 164.569C12.6638 164.278 12.9249 164.035 13.2298 163.86V163.86Z" fill="#F0F0F0"/>
<path d="M13.2298 167.93L42.7898 150.87C43.4098 150.51 43.9198 150.67 43.9198 151.24C43.8729 151.587 43.7465 151.918 43.5504 152.207C43.3544 152.497 43.0941 152.737 42.7898 152.91L13.2098 170C12.5898 170.36 12.0898 170.19 12.0898 169.62C12.1394 169.27 12.2677 168.936 12.4652 168.644C12.6627 168.351 12.9242 168.107 13.2298 167.93V167.93Z" fill="#F0F0F0"/>
<path d="M35.5798 166.05C35.3516 166.172 35.0985 166.241 34.8398 166.25C34.2098 166.25 34.2698 165.6 34.2898 165.16C34.2898 164.96 34.0198 164.65 33.8698 164.92C33.4898 165.61 33.0098 166.25 32.5898 166.92C32.3398 167.33 31.8598 168.26 31.2498 168.13C30.9998 168.13 30.9198 167.81 30.9198 167.47C31.2267 166.908 31.3623 166.268 31.3098 165.63C31.3098 165.43 30.9698 165.2 30.8698 165.46C30.6519 165.999 30.5203 166.57 30.4798 167.15C30.203 167.652 29.8852 168.13 29.5298 168.58C29.3198 168.85 29.1398 169.15 28.9098 169.41C28.8598 169.47 28.7598 169.63 28.6698 169.64C28.5798 169.65 28.4798 169.55 28.4498 169.42C28.4432 169.212 28.4772 169.005 28.5498 168.81V168.81V168.76C28.5498 168.56 28.2898 168.27 28.1898 168.51C27.7983 169.578 27.2079 170.562 26.4498 171.41L26.3398 171.5C26.3398 171.38 26.3398 171.26 26.2898 171.15C26.284 170.874 26.2368 170.601 26.1498 170.34C26.1498 170.21 25.8798 170.01 25.7598 170.19C25.2064 171.175 24.5348 172.088 23.7598 172.91C23.6311 173.014 23.494 173.108 23.3498 173.19C23.2198 173.12 23.4198 172.4 23.4498 172.29C23.5298 171.97 23.6398 171.66 23.7398 171.34C23.8543 171.092 23.935 170.83 23.9798 170.56C23.9798 170.32 23.5998 169.94 23.5198 170.27C23.5198 170.4 23.3798 170.73 23.2498 171.13C22.7727 172.106 22.2175 173.043 21.5898 173.93C21.0222 174.854 20.2313 175.621 19.2898 176.16C19.0198 176.3 18.5298 176.51 18.2898 176.3C18.0498 176.09 18.0398 175.73 18.0198 175.46C18.017 174.783 18.1113 174.11 18.2998 173.46C19.2257 172.966 20.0858 172.358 20.8598 171.65C21.6204 171.045 22.2759 170.319 22.7998 169.5C23.0598 169.03 23.2198 168.25 22.5798 167.98C22.1398 167.79 21.5798 168.1 21.1998 168.31C20.6803 168.604 20.2055 168.971 19.7898 169.4C18.9625 170.312 18.3507 171.399 17.9998 172.58C17.9498 172.76 17.8698 173 17.7998 173.28C16.7994 173.795 15.663 173.984 14.5498 173.82C14.4898 173.82 14.4598 173.95 14.5498 173.96C15.6189 174.188 16.732 174.083 17.7398 173.66C17.4498 174.9 17.2898 176.53 18.4398 176.85C19.5898 177.17 20.9798 175.73 21.5998 174.9C22.0686 174.269 22.4834 173.6 22.8398 172.9C22.8698 172.851 22.9032 172.804 22.9398 172.76C22.9398 173.33 23.0498 173.76 23.6098 173.65C24.1698 173.54 24.6998 172.75 25.0198 172.31C25.3398 171.87 25.5798 171.47 25.8498 171.04C25.9098 171.56 25.9998 172.14 26.4898 172.04C26.9798 171.94 27.3898 171.09 27.6198 170.74C27.8254 170.445 28.0124 170.138 28.1798 169.82C28.2107 169.877 28.2476 169.931 28.2898 169.98C28.6998 170.42 29.1898 169.98 29.4498 169.61C29.8298 169.11 30.2498 168.61 30.6098 168.04C30.6503 168.16 30.7145 168.27 30.7987 168.365C30.8829 168.459 30.9853 168.536 31.0998 168.59C31.7298 168.88 32.3198 168.36 32.6898 167.9C33.1322 167.3 33.5236 166.665 33.8598 166C33.8855 166.127 33.938 166.247 34.0139 166.353C34.0898 166.458 34.1873 166.546 34.2998 166.61C34.5339 166.73 34.7962 166.784 35.0587 166.767C35.3212 166.749 35.5739 166.66 35.7898 166.51C35.9998 166.37 35.7898 166 35.5798 166.05ZM21.7498 168.52C22.0498 168.37 22.6598 168.12 22.6898 168.62C22.6424 168.939 22.5035 169.238 22.2898 169.48C21.7906 170.156 21.2133 170.77 20.5698 171.31C19.9105 171.943 19.1903 172.509 18.4198 173C18.6345 172.063 19.0414 171.182 19.6146 170.41C20.1878 169.639 20.9149 168.996 21.7498 168.52V168.52Z" fill="#E0E0E0"/>
<path d="M44.5398 434.64C73.7998 451.53 121.24 451.53 150.54 434.64C179.84 417.75 179.79 390.36 150.54 373.46C121.29 356.56 73.8398 356.57 44.5398 373.46C15.2398 390.35 15.2798 417.75 44.5398 434.64Z" fill="#E0E0E0"/>
<path d="M424 416.61L229.54 304.35C227.15 302.97 227.15 300.73 229.54 299.35L245.25 290.28C246.592 289.599 248.075 289.244 249.58 289.244C251.084 289.244 252.568 289.599 253.91 290.28L448.35 402.54C450.74 403.92 450.74 406.16 448.35 407.54L432.64 416.61C431.301 417.287 429.821 417.641 428.32 417.641C426.819 417.641 425.339 417.287 424 416.61V416.61Z" fill="#E6E6E6"/>
<path d="M422.28 406.9L426 404.76C426.617 404.355 427.13 403.812 427.498 403.173C427.866 402.533 428.079 401.817 428.12 401.08V103C428.086 102.255 427.877 101.529 427.508 100.88C427.14 100.232 426.623 99.68 426 99.27L254.94 0.510011C254.282 0.174608 253.554 -0.000244141 252.815 -0.000244141C252.076 -0.000244141 251.348 0.174608 250.69 0.510011L247 2.66001C246.379 3.06106 245.862 3.60378 245.492 4.24353C245.121 4.88329 244.908 5.60182 244.87 6.34001V304.46C244.909 305.198 245.123 305.916 245.493 306.556C245.863 307.195 246.379 307.738 247 308.14L418 406.9C418.662 407.24 419.396 407.418 420.14 407.418C420.884 407.418 421.618 407.24 422.28 406.9Z" fill="#45FADB"/>
<path opacity="0.3" d="M422.28 406.9L426 404.76C426.617 404.355 427.13 403.812 427.498 403.173C427.866 402.533 428.079 401.817 428.12 401.08V103C428.086 102.255 427.877 101.529 427.508 100.88C427.14 100.232 426.623 99.68 426 99.27L254.94 0.510011C254.282 0.174608 253.554 -0.000244141 252.815 -0.000244141C252.076 -0.000244141 251.348 0.174608 250.69 0.510011L247 2.66001C246.379 3.06106 245.862 3.60378 245.492 4.24353C245.121 4.88329 244.908 5.60182 244.87 6.34001V304.46C244.909 305.198 245.123 305.916 245.493 306.556C245.863 307.195 246.379 307.738 247 308.14L418 406.9C418.662 407.24 419.396 407.418 420.14 407.418C420.884 407.418 421.618 407.24 422.28 406.9Z" fill="black"/>
<path opacity="0.4" d="M244.87 6.00001C245.01 4.90001 245.87 4.50001 246.97 5.12001L418 103.87C418.625 104.262 419.141 104.806 419.5 105.45L427.5 100.85C427.138 100.208 426.622 99.6652 426 99.27L254.94 0.510011C254.282 0.174608 253.554 -0.000244141 252.815 -0.000244141C252.076 -0.000244141 251.348 0.174608 250.69 0.510011L247 2.66001C246.424 3.02915 245.935 3.51903 245.568 4.09574C245.2 4.67245 244.962 5.3222 244.87 6.00001V6.00001Z" fill="#5FAAB6"/>
<path opacity="0.15" d="M418.4 407.07C418.439 407.095 418.484 407.112 418.53 407.12L418.75 407.2H418.84L419.23 407.3C420.077 407.463 420.952 407.39 421.76 407.09C421.922 407.032 422.079 406.962 422.23 406.88L425.96 404.73C426.574 404.323 427.085 403.778 427.453 403.14C427.821 402.501 428.036 401.786 428.08 401.05V103C428.053 102.259 427.839 101.537 427.46 100.9L419.46 105.5C419.851 106.132 420.069 106.857 420.09 107.6V405.68C420.109 406.078 419.996 406.472 419.77 406.8C419.633 406.962 419.454 407.081 419.252 407.145C419.05 407.209 418.835 407.214 418.63 407.16L418.4 407.07Z" fill="black"/>
<path d="M296.67 57.22L368.36 98.62L372.36 96.32V85.26C372.36 83.86 372.15 82.04 366.76 74.62C361.37 67.2 361.23 64.62 358.76 61.28C356.29 57.94 351.86 55.41 348.7 47.5C345.54 39.59 345.25 27.58 336.49 22.5C335.343 21.7591 334.023 21.3316 332.66 21.26C331.955 21.2585 331.264 21.4486 330.66 21.81L327 24C326.881 24.05 326.768 24.1103 326.66 24.18L327.71 25.73C326.51 28.39 325.71 31.61 324.32 33.44C323.859 34.1157 323.256 34.6824 322.552 35.1005C321.849 35.5185 321.063 35.7777 320.25 35.86C318 36.12 315.76 35.25 314.25 35.61C313.881 35.6974 313.527 35.839 313.2 36.03L309.2 38.34L309.47 38.66C308.963 38.9039 308.442 39.1176 307.91 39.3C307.43 39.45 306.91 39.61 306.27 39.75C304.825 40.006 303.433 40.4993 302.15 41.21L298.62 43.21L298.31 43.4L296.67 57.22ZM362.33 82.44C362.33 80.99 363.08 80.26 364.01 80.8C364.55 81.2274 364.984 81.7737 365.279 82.3963C365.574 83.019 365.721 83.7012 365.71 84.39C365.71 85.83 364.95 86.55 364.01 86.02C363.474 85.5916 363.045 85.0461 362.753 84.4254C362.462 83.8048 362.317 83.1255 362.33 82.44V82.44ZM326.13 41.44C326.13 36.81 328.19 34.14 330.98 34.69C331.169 34.1636 331.478 33.6886 331.883 33.3026C332.288 32.9166 332.777 32.6302 333.312 32.4662C333.847 32.3022 334.412 32.265 334.964 32.3577C335.515 32.4503 336.038 32.6703 336.49 33C340.02 35 342.89 41.09 342.89 46.53C342.89 51.14 340.82 53.82 338.04 53.28C336.93 55.56 334.87 56.28 332.52 54.97C329 52.93 326.13 46.88 326.13 41.44V41.44ZM307 50.51C307 49.07 307.75 48.34 308.69 48.88C309.227 49.3069 309.66 49.8519 309.953 50.4727C310.246 51.0936 310.392 51.7736 310.38 52.46C310.38 53.89 309.62 54.62 308.69 54.08C308.152 53.6557 307.719 53.1126 307.426 52.4933C307.133 51.8739 306.987 51.1951 307 50.51V50.51Z" fill="#455A64"/>
<path opacity="0.5" d="M364.38 88L372.09 83.55C372.262 84.1069 372.346 84.6872 372.34 85.27V96.32L368.34 98.62L364.34 96.32L364.38 88Z" fill="#37474F"/>
<path opacity="0.5" d="M356.41 74.19L352.41 64.99L358.75 61.28C360.61 63.85 361.15 65.93 363.64 70.01L356.41 74.19Z" fill="#37474F"/>
<path opacity="0.5" d="M340.47 55.79L340 53.11C341.76 52.37 342.93 49.99 342.93 46.53C342.93 41.91 340.86 36.86 338.07 34.19L343.56 31C345.91 36.36 346.78 42.69 348.7 47.5C349.11 48.5 349.54 49.44 349.98 50.3L340.47 55.79Z" fill="#37474F"/>
<path d="M296.67 46.16V57.22L368.36 98.62V87.56C368.36 86.15 368.15 84.34 362.77 76.91C357.39 69.48 357.24 66.97 354.77 63.57C352.3 60.17 347.88 57.71 344.77 49.79C341.66 41.87 341.32 29.88 332.56 24.79C330.14 23.4 328.36 23.28 327 23.92C326.881 23.97 326.768 24.0302 326.66 24.1C323.36 26.05 322.55 32.68 320.35 35.66L320.25 35.78C317.09 39.87 312.7 37.25 310.25 37.78C309.873 37.8715 309.512 38.0198 309.18 38.22C308.714 38.5049 308.282 38.8403 307.89 39.22C306.311 40.6506 304.365 41.6132 302.27 42C300.999 42.25 299.764 42.653 298.59 43.2L298.28 43.39C297.759 43.6303 297.326 44.0252 297.038 44.5208C296.749 45.0165 296.621 45.5888 296.67 46.16ZM358.36 84.73C358.36 83.29 359.1 82.55 360.04 83.09C360.577 83.5199 361.008 84.0669 361.301 84.6891C361.594 85.3114 361.74 85.9923 361.73 86.68C361.73 88.12 360.97 88.85 360.04 88.31C359.503 87.8831 359.072 87.3379 358.78 86.7168C358.489 86.0958 358.345 85.4158 358.36 84.73V84.73ZM326.13 41.44C326.13 36.81 328.19 34.14 330.98 34.69C331.523 34.8032 332.043 35.0059 332.52 35.29C336.05 37.29 338.91 43.39 338.91 48.82C338.961 50.3533 338.663 51.8783 338.04 53.28C336.93 55.56 334.87 56.28 332.52 54.97C329 52.93 326.13 46.88 326.13 41.44ZM303 52.8C303 51.36 303.76 50.64 304.69 51.17C305.23 51.5948 305.665 52.1391 305.96 52.7603C306.255 53.3814 306.402 54.0625 306.39 54.75C306.39 56.19 305.63 56.91 304.69 56.37C304.153 55.9446 303.721 55.4014 303.428 54.7823C303.135 54.1631 302.988 53.4848 303 52.8V52.8Z" fill="#37474F"/>
<path d="M326.13 41.44C326.13 46.88 328.99 52.93 332.52 54.97C334.87 56.33 336.93 55.56 338.04 53.28C337.493 53.1707 336.968 52.9677 336.49 52.68C332.96 50.68 330.11 44.58 330.11 39.15C330.059 37.6167 330.356 36.0917 330.98 34.69C328.19 34.14 326.13 36.81 326.13 41.44Z" fill="#263238"/>
<path d="M360 88.31C360.93 88.85 361.69 88.12 361.69 86.68C361.702 85.9936 361.556 85.3136 361.263 84.6927C360.97 84.0719 360.537 83.5269 360 83.1C359.07 82.56 358.31 83.29 358.31 84.73C358.298 85.4164 358.444 86.0965 358.737 86.7173C359.03 87.3381 359.462 87.8831 360 88.31" fill="#263238"/>
<path d="M304.73 56.38C305.67 56.92 306.43 56.19 306.43 54.76C306.442 54.0711 306.295 53.3886 306 52.7658C305.706 52.143 305.271 51.5969 304.73 51.17C303.8 50.63 303.05 51.37 303.05 52.8C303.036 53.4857 303.18 54.1655 303.471 54.7864C303.763 55.4073 304.193 55.9526 304.73 56.38" fill="#263238"/>
<path d="M406.93 121.77L258.07 35.82C257.675 35.6229 257.241 35.5203 256.8 35.5203C256.359 35.5203 255.924 35.6229 255.53 35.82L254.09 36.65C253.719 36.8928 253.412 37.2194 253.191 37.6034C252.97 37.9873 252.843 38.4178 252.82 38.86V296.24C252.845 296.682 252.972 297.112 253.193 297.496C253.413 297.879 253.721 298.206 254.09 298.45L403 384.39C403.393 384.592 403.828 384.697 404.27 384.697C404.712 384.697 405.147 384.592 405.54 384.39L406.98 383.56C407.352 383.318 407.662 382.992 407.884 382.608C408.107 382.224 408.235 381.793 408.26 381.35V124C408.236 123.548 408.102 123.109 407.87 122.721C407.638 122.332 407.316 122.006 406.93 121.77V121.77Z" fill="#F5F5F5"/>
<path d="M403.25 384.53C403.401 384.59 403.559 384.633 403.72 384.66H403.97C404.226 384.68 404.483 384.68 404.74 384.66C404.901 384.633 405.058 384.59 405.21 384.53L405.5 384.39L406.93 383.57C407.298 383.325 407.605 382.998 407.826 382.615C408.046 382.231 408.174 381.802 408.2 381.36V124C408.19 123.555 408.063 123.12 407.83 122.74L403.83 125.04C404.054 125.424 404.181 125.856 404.2 126.3V383.66C404.22 384.35 403.81 384.69 403.25 384.53Z" fill="#E0E0E0"/>
<path d="M254.09 36.65L255.53 35.82C255.924 35.6229 256.359 35.5203 256.8 35.5203C257.241 35.5203 257.675 35.6229 258.07 35.82L406.93 121.77C407.302 122.009 407.613 122.333 407.835 122.716C408.058 123.098 408.186 123.528 408.21 123.97V166.41L404.21 168.72L252.82 81.31V38.86C252.843 38.4178 252.97 37.9873 253.191 37.6034C253.412 37.2194 253.719 36.8928 254.09 36.65V36.65Z" fill="#6C8387"/>
<path opacity="0.4" d="M254.09 36.65L255.53 35.82C255.924 35.6229 256.359 35.5203 256.8 35.5203C257.241 35.5203 257.675 35.6229 258.07 35.82L406.93 121.77C407.302 122.009 407.613 122.333 407.835 122.716C408.058 123.098 408.186 123.528 408.21 123.97V166.41L404.21 168.72L252.82 81.31V38.86C252.843 38.4178 252.97 37.9873 253.191 37.6034C253.412 37.2194 253.719 36.8928 254.09 36.65V36.65Z" fill="white"/>
<path d="M252.86 38.47C253.02 37.95 253.51 37.79 254.09 38.12L403 124.06C403.382 124.309 403.692 124.654 403.9 125.06L407.9 122.76C407.7 122.349 407.388 122.002 407 121.76L258.07 35.82C257.677 35.6182 257.242 35.5129 256.8 35.5129C256.358 35.5129 255.923 35.6182 255.53 35.82L254.09 36.65C253.774 36.8561 253.502 37.1232 253.291 37.4358C253.08 37.7483 252.933 38.1 252.86 38.47V38.47Z" fill="#5FAAB6"/>
<path opacity="0.6" d="M252.86 38.47C253.02 37.95 253.51 37.79 254.09 38.12L403 124.06C403.382 124.309 403.692 124.654 403.9 125.06L407.9 122.76C407.7 122.349 407.388 122.002 407 121.76L258.07 35.82C257.677 35.6182 257.242 35.5129 256.8 35.5129C256.358 35.5129 255.923 35.6182 255.53 35.82L254.09 36.65C253.774 36.8561 253.502 37.1232 253.291 37.4358C253.08 37.7483 252.933 38.1 252.86 38.47V38.47Z" fill="white"/>
<path d="M408.2 124V166.44L404.2 168.74V126.27C404.18 125.829 404.053 125.4 403.83 125.02L407.83 122.72C408.069 123.104 408.197 123.547 408.2 124Z" fill="#5FAAB6"/>
<path d="M297.19 158.23L304.79 146.75L299.07 143.45L294.07 151.15L288.23 134.8C288.802 134.632 289.328 134.335 289.767 133.931C290.206 133.527 290.546 133.027 290.76 132.47C291.424 130.889 291.741 129.184 291.69 127.47C291.707 124.187 290.849 120.96 289.204 118.119C287.559 115.279 285.186 112.928 282.33 111.31L275.07 107.12V139L279.79 141.73V131.62L282.94 133.44L290.94 154.17L283.1 166.17L288.96 169.55L294.11 161.55L298.97 175.37L305.05 178.88L297.19 158.23ZM279.8 125.55V115.93L283.18 117.88C284.504 118.582 285.533 119.735 286.08 121.13C286.543 122.327 286.794 123.596 286.82 124.88C286.874 125.863 286.565 126.831 285.95 127.6C285.36 128.26 284.43 128.22 283.15 127.48L279.8 125.55Z" fill="#38C6AE"/>
<path d="M392.88 188.57L327.69 150.93V137.51L392.88 175.14V188.57Z" fill="#E0E0E0"/>
<path d="M392.88 203L327.69 165.36C327.313 165.063 327.011 164.683 326.806 164.249C326.601 163.815 326.5 163.34 326.51 162.86C326.51 161.86 327.04 161.35 327.69 161.73L392.88 199.36C393.256 199.66 393.558 200.042 393.762 200.478C393.967 200.913 394.069 201.389 394.06 201.87C394.06 202.83 393.53 203.34 392.88 203Z" fill="#E0E0E0"/>
<path d="M392.88 215.23L327.69 177.59C327.315 177.292 327.014 176.911 326.809 176.477C326.604 176.044 326.502 175.569 326.51 175.09C326.51 174.09 327.04 173.58 327.69 173.95L392.88 211.59C393.255 211.889 393.556 212.269 393.761 212.703C393.965 213.136 394.068 213.611 394.06 214.09C394.06 215.1 393.53 215.61 392.88 215.23Z" fill="#E0E0E0"/>
<path d="M392.88 227.49L327.69 189.86C327.314 189.56 327.012 189.178 326.808 188.742C326.603 188.307 326.501 187.831 326.51 187.35C326.51 186.35 327.04 185.84 327.69 186.22L392.88 223.86C393.256 224.157 393.559 224.537 393.764 224.971C393.969 225.405 394.07 225.88 394.06 226.36C394.06 227.36 393.53 227.87 392.88 227.49Z" fill="#E0E0E0"/>
<path d="M392.88 252.92L267.51 180.54C267.132 180.244 266.828 179.863 266.621 179.43C266.415 178.996 266.312 178.52 266.32 178.04C266.32 177.04 266.85 176.52 267.51 176.9L392.88 249.28C393.256 249.58 393.557 249.962 393.762 250.398C393.967 250.833 394.068 251.309 394.06 251.79C394.06 252.79 393.53 253.3 392.88 252.92Z" fill="#E0E0E0"/>
<path d="M392.88 268.28L267.51 195.9C267.132 195.603 266.828 195.223 266.621 194.79C266.415 194.356 266.312 193.88 266.32 193.4C266.32 192.4 266.85 191.88 267.51 192.26L392.88 264.64C393.256 264.94 393.557 265.322 393.762 265.758C393.967 266.193 394.068 266.669 394.06 267.15C394.06 268.15 393.53 268.66 392.88 268.28Z" fill="#E0E0E0"/>
<path d="M392.88 283.64L267.51 211.26C267.132 210.963 266.828 210.583 266.621 210.15C266.415 209.716 266.312 209.24 266.32 208.76C266.32 207.76 266.85 207.24 267.51 207.62L392.88 280C393.256 280.3 393.557 280.682 393.762 281.118C393.967 281.553 394.068 282.029 394.06 282.51C394.06 283.51 393.53 284 392.88 283.64Z" fill="#E0E0E0"/>
<path d="M392.88 299L267.51 226.62C267.132 226.324 266.828 225.944 266.621 225.51C266.415 225.076 266.312 224.6 266.32 224.12C266.32 223.12 266.85 222.6 267.51 222.98L392.88 295.36C393.256 295.66 393.557 296.043 393.762 296.478C393.967 296.913 394.068 297.389 394.06 297.87C394.06 298.87 393.53 299.38 392.88 299Z" fill="#E0E0E0"/>
<path d="M392.88 333.79L267.51 261.41C267.38 261.313 267.276 261.186 267.206 261.039C267.137 260.893 267.104 260.732 267.11 260.57C267.11 260.24 267.29 260.07 267.51 260.19L392.88 332.58C393.008 332.676 393.112 332.802 393.181 332.946C393.251 333.091 393.285 333.25 393.28 333.41C393.28 333.75 393.1 333.92 392.88 333.79Z" fill="#BA68C8"/>
<path d="M276.38 299.08C271.85 296.46 268.17 288.67 268.17 281.7C268.17 274.73 271.85 271.19 276.38 273.8C280.91 276.41 284.58 284.21 284.58 291.18C284.58 298.15 280.9 301.69 276.38 299.08ZM276.38 275.01C272.28 272.65 268.95 275.86 268.95 282.16C268.95 288.46 272.28 295.5 276.38 297.86C280.48 300.22 283.8 297.02 283.8 290.72C283.8 284.42 280.47 277.38 276.38 275V275.01Z" fill="#455A64"/>
<path d="M282.07 289.73C282.07 294.57 279.52 297.03 276.37 295.21C273.22 293.39 270.68 287.99 270.68 283.15C270.68 278.31 273.23 275.85 276.37 277.67C279.51 279.49 282.07 284.88 282.07 289.73Z" fill="#455A64"/>
<path d="M332.92 313.55L293.01 290.51V287.25L332.92 310.29V313.55Z" fill="#E0E0E0"/>
<path d="M332.92 320.71L293.01 297.67V294.41L332.92 317.45V320.71Z" fill="#E0E0E0"/>
<path d="M332.92 327.88L293.01 304.83V301.58L332.92 324.62V327.88Z" fill="#E0E0E0"/>
<path d="M389.59 356.31C389.47 356.95 388.91 356.81 388.51 356.36C388.119 355.838 387.806 355.262 387.58 354.65C387.088 353.517 386.657 352.359 386.29 351.18C385.668 349.165 385.236 347.096 385 345C385 344.56 384.92 344.11 384.87 343.66C384.78 342.91 383.92 342.29 383.98 343.13C383.98 343.6 384.06 344.07 384.11 344.55C384.263 346.328 384.24 348.117 384.04 349.89C383.94 351.654 383.419 353.369 382.52 354.89C382.16 355.35 381.66 355.74 381.07 355.51C380.48 355.28 379.79 354.06 379.36 353.03C378.86 351.823 378.433 350.588 378.08 349.33C378.221 349.113 378.345 348.886 378.45 348.65C379.407 346.348 379.988 343.907 380.17 341.42C380.38 339.27 380.64 336.16 379.05 333.97C375.7 329.33 375.77 340.13 376.05 342.89C376.256 344.849 376.618 346.788 377.13 348.69C376.971 348.894 376.783 349.073 376.57 349.22C376.04 349.57 375.39 349.55 374.73 348.79C374.151 348.14 373.8 347.318 373.73 346.45C373.73 346.24 373.73 346.04 373.78 345.83C373.78 345.28 373.08 344.51 372.98 345.05C372.985 345.097 372.985 345.143 372.98 345.19V345.19L372.92 345.7C372.601 344.799 372.347 343.877 372.16 342.94C372.07 342.46 371.5 341.88 371.35 342.29L370.46 344.8C370.096 343.353 369.998 341.852 370.17 340.37C370.25 339.73 369.43 338.9 369.27 339.47C369.047 340.675 368.581 341.822 367.9 342.84C367.761 343.025 367.58 343.174 367.371 343.276C367.163 343.377 366.934 343.427 366.702 343.422C366.471 343.418 366.243 343.358 366.04 343.248C365.836 343.138 365.661 342.981 365.53 342.79L365.42 342.66C365.695 342.273 365.946 341.869 366.17 341.45C366.74 340.38 367.71 339 367.36 337.02C367.04 335.23 365.8 333.87 364.97 334.54C363.68 335.54 362.97 339.15 364.15 342.06C363.15 343.32 361.84 344.12 360.24 343.58C358.64 343.04 356.84 341.07 356.13 338.21C355.861 337.111 355.733 335.982 355.75 334.85C356.509 335.203 357.313 335.449 358.14 335.58C359.249 335.783 360.394 335.616 361.398 335.105C362.403 334.594 363.212 333.766 363.7 332.75C364.097 332.046 364.33 331.261 364.382 330.454C364.434 329.648 364.303 328.839 364 328.09C363.781 327.384 363.394 326.742 362.871 326.219C362.348 325.696 361.706 325.309 361 325.09C358.76 324.69 356.85 326.61 355.8 329.09C355.252 330.402 354.915 331.793 354.8 333.21C352.98 332.234 351.281 331.045 349.74 329.67C349.26 329.27 349.2 330.13 349.64 330.54C351.185 332.023 352.896 333.321 354.74 334.41C354.719 335.944 354.935 337.472 355.38 338.94C356.46 342.47 358.84 344.73 360.85 345.18C362.48 345.55 363.8 344.74 364.85 343.45C365.85 344.77 367.05 345.14 367.94 344.7C368.547 344.339 369.013 343.782 369.26 343.12C369.419 344.272 369.697 345.405 370.09 346.5C370.25 346.94 370.75 347.32 370.88 346.95L371.72 344.52C372.027 345.577 372.411 346.61 372.87 347.61C372.98 347.86 373.25 348.08 373.43 348.06C373.794 348.933 374.363 349.705 375.09 350.31C375.255 350.461 375.45 350.578 375.661 350.651C375.873 350.725 376.098 350.755 376.321 350.739C376.545 350.723 376.763 350.662 376.962 350.559C377.162 350.456 377.338 350.313 377.48 350.14C377.55 350.36 377.6 350.58 377.68 350.79C378.43 353.09 379.57 356.15 381.18 356.79C383 357.56 383.97 355.05 384.47 352.98C384.734 351.846 384.904 350.692 384.98 349.53C385.27 350.65 385.62 351.77 385.98 352.87C386.437 354.376 387.111 355.808 387.98 357.12C388.78 358.12 389.75 358.33 389.98 357.12C390.2 356.68 389.67 355.87 389.59 356.31ZM356.65 330.31C357.48 328.22 358.88 326.74 360.57 326.48C361.4 326.35 362.57 326.66 363.22 328.36C363.423 328.985 363.469 329.651 363.354 330.298C363.239 330.945 362.966 331.553 362.56 332.07C360.92 334.57 358.47 334.67 355.86 333.61C355.976 332.493 356.242 331.397 356.65 330.35V330.31ZM365.18 336.57C365.36 336.23 365.73 335.43 366.13 335.93C366.32 336.279 366.433 336.666 366.461 337.063C366.488 337.459 366.43 337.858 366.29 338.23C365.912 339.311 365.39 340.337 364.74 341.28C364.36 339.718 364.515 338.074 365.18 336.61V336.57ZM377.46 346.8C376.59 342.61 376.46 338.27 377.36 335.08C377.57 334.32 377.98 333.76 378.64 334.61C379.254 335.601 379.554 336.755 379.5 337.92C379.513 340.102 379.265 342.277 378.76 344.4C378.523 345.571 378.164 346.714 377.69 347.81C377.61 347.51 377.53 347.18 377.46 346.84V346.8Z" fill="#455A64"/>
<path d="M285.33 62.91C285.33 62.91 286.76 68.45 287.25 71.42C287.296 71.6622 287.389 71.8929 287.525 72.0989C287.661 72.3048 287.836 72.4819 288.04 72.62L374 122.23L375.6 123.14C375.621 123.152 375.645 123.159 375.67 123.159C375.694 123.159 375.719 123.152 375.74 123.14C375.86 123.06 375.92 122.86 375.87 122.58C375.87 122.58 375.87 122.58 375.87 122.52C374.37 114.41 372.17 107.86 364.35 101.36L351.83 92C351.83 92 348.49 88.85 347.92 85.58L347.14 81.21L345.69 72.64C345.69 72.64 345.49 70.13 342.38 67.08C339.27 64.03 333.91 55.85 333 50.52C331.51 42.06 325.4 32.65 319.35 29.47C318.231 28.8495 316.979 28.5066 315.7 28.47C314.929 28.4532 314.169 28.6468 313.5 29.03L309.64 31.24L309.47 31.34C309.47 31.84 308.73 48.09 306.21 48.14C306.067 48.1292 305.923 48.1292 305.78 48.14C305.55 48.1738 305.33 48.2519 305.13 48.37L301.24 50.62H301.15L306.34 62.09C306.92 65.35 305.05 65.67 304.11 65.29L302.39 64.6C299.99 63.6 297.99 62.68 293.39 60.6C292.782 60.2596 292.1 60.0718 291.403 60.0527C290.707 60.0335 290.016 60.1836 289.39 60.49L285.39 62.78L285.33 62.91ZM315.18 36.55C315.265 36.0754 315.457 35.6263 315.741 35.2366C316.025 34.8469 316.394 34.5267 316.82 34.3C317.72 33.89 328.66 52.68 327.47 53.62C327.066 53.9085 326.597 54.0924 326.105 54.1552C325.613 54.2181 325.113 54.1579 324.65 53.98C324.02 56.34 322.15 57.18 319.58 55.83C315.85 53.88 312.11 48.08 311.18 42.89C310.36 38.22 312.11 35.62 315.18 36.55Z" fill="#455A64"/>
<path opacity="0.5" d="M363.42 110.49L369.67 106.88C373.31 111.66 374.77 116.69 375.84 122.52C375.84 122.52 375.84 122.52 375.84 122.58C375.84 122.86 375.84 123.06 375.71 123.14C375.689 123.152 375.664 123.159 375.64 123.159C375.615 123.159 375.591 123.152 375.57 123.14V123.14L370.64 119.23L363.42 110.49Z" fill="#37474F"/>
<path opacity="0.5" d="M348.33 87L339.51 92.09L336.51 74.19L344.46 69.6C345.095 70.4945 345.522 71.5194 345.71 72.6L347.16 81.17L347.94 85.54C348.02 86.0387 348.15 86.5279 348.33 87V87Z" fill="#37474F"/>
<path opacity="0.5" d="M328.79 39.53C330.806 42.9286 332.22 46.65 332.97 50.53C333.602 53.2753 334.654 55.9064 336.09 58.33L328.52 62.7L324.76 54C325.208 54.1638 325.69 54.2147 326.162 54.1485C326.635 54.0822 327.084 53.9007 327.47 53.62C328.08 53.13 325.47 47.93 322.7 43.05L328.79 39.53Z" fill="#37474F"/>
<path d="M282.92 68.61C282.92 68.61 286.39 71.9 286.6 72.02C286.81 72.14 287.81 72.7 287.81 72.7L374 122.23L375.6 123.14C375.31 122.84 370.6 119.21 370.6 119.21C368.905 113.075 365.31 107.634 360.33 103.67L347.85 94.31C347.85 94.31 344.5 91.15 343.93 87.89L343.15 83.51L341.7 74.94C341.7 74.94 341.49 72.43 338.38 69.39C335.27 66.35 329.92 58.16 328.98 52.82C327.49 44.37 321.38 34.95 315.32 31.82C313.03 30.62 311.07 30.49 309.6 31.26L309.43 31.37C307.16 32.71 306.17 36.29 307.07 41.37C307.314 42.5364 307.322 43.7399 307.093 44.9094C306.865 46.079 306.405 47.191 305.74 48.18C305.359 48.8024 304.841 49.3302 304.226 49.7234C303.611 50.1167 302.915 50.3651 302.19 50.45C301.845 50.4483 301.505 50.5199 301.19 50.66H301.1C299.85 51.37 300.35 53.24 300.35 53.24L301.53 60.06L302.31 64.43C302.315 64.4999 302.315 64.57 302.31 64.64C302.78 67.71 300.96 68 300.06 67.64C296.7 66.31 294.98 65.48 289.3 62.98C288.693 62.6365 288.013 62.4452 287.316 62.4225C286.619 62.3999 285.927 62.5466 285.3 62.85H285.24C283.89 63.78 283.06 65.79 282.92 68.61ZM315.18 36.55C315.552 36.6721 315.914 36.826 316.26 37.01C320 39 323.74 44.75 324.66 50C324.939 51.3187 324.939 52.6813 324.66 54C324.03 56.36 322.16 57.2 319.59 55.85C315.86 53.9 312.12 48.1 311.19 42.91C310.36 38.22 312.11 35.62 315.18 36.55Z" fill="#37474F"/>
<path d="M311.18 42.8899C312.11 48.0799 315.85 53.8899 319.58 55.8299C322.15 57.1799 324.02 56.3399 324.65 53.9799C324.277 53.8555 323.912 53.7052 323.56 53.5299C319.84 51.5299 316.08 45.7799 315.17 40.5299C314.886 39.2118 314.886 37.8481 315.17 36.5299C312.11 35.6199 310.36 38.2199 311.18 42.8899Z" fill="#263238"/>
<path d="M314.78 36.77H315.13C315.475 36.8882 315.81 37.0354 316.13 37.21C319.79 39.11 323.5 44.84 324.41 49.97C324.671 51.2535 324.671 52.5765 324.41 53.86C324.115 54.3014 323.731 54.6768 323.284 54.9626C322.836 55.2483 322.334 55.4381 321.81 55.52C320.21 55.52 314.44 49.69 313.55 47.2C312.91 45.41 311.43 39.82 312.97 37.62C313.171 37.3334 313.441 37.103 313.757 36.9507C314.072 36.7984 314.42 36.7293 314.77 36.75L314.78 36.77ZM314.77 36.51C310.38 36.51 312.41 44.74 313.32 47.28C314.23 49.82 320.06 55.77 321.79 55.77C322.363 55.6897 322.914 55.4909 323.406 55.1861C323.899 54.8814 324.322 54.4775 324.65 54C324.929 52.6813 324.929 51.3187 324.65 50C323.73 44.8 319.97 39 316.25 37.06C315.904 36.876 315.542 36.7221 315.17 36.6H314.77V36.51Z" fill="#263238"/>
<path d="M375.57 123.15L287.81 72.7C287.81 72.7 286.81 72.16 286.61 72.03C286.41 71.9 282.92 68.61 282.92 68.61L370.61 119.22C370.61 119.22 375.92 123.33 375.57 123.15Z" fill="#263238"/>
<path d="M120 94.8999C131 97.1199 135 100.31 141.17 110.63C145.73 118.24 148.5 123.18 155.92 133.92L179.15 136.44L174.48 153.22C174.48 153.22 160.17 153.67 152.07 154.31C146.01 154.79 144.63 154.31 140.85 149.77C133.06 140.4 123.68 127.06 123.68 127.06L120 94.8999Z" fill="#E0E0E0"/>
<path opacity="0.02" d="M120 94.8999C131 97.1199 135 100.31 141.17 110.63C145.73 118.24 148.5 123.18 155.92 133.92L179.15 136.44L174.48 153.22C174.48 153.22 160.17 153.67 152.07 154.31C146.01 154.79 144.63 154.31 140.85 149.77C133.06 140.4 123.68 127.06 123.68 127.06L120 94.8999Z" fill="black"/>
<path d="M141.86 164.07L145.04 257.07C145.04 257.07 116.56 250.01 91.0402 254.37C65.5202 258.73 59.4202 264.68 59.4202 264.68L75.9002 120.81L134.8 122.6C134.8 122.6 141.86 132.25 141.86 164.07Z" fill="#EBEBEB"/>
<path d="M64.5701 410.87C64.3001 416.78 63.2601 419.82 60.6701 423.01C59.1866 424.67 57.2677 425.882 55.1309 426.508C52.9941 427.133 50.7248 427.148 48.5801 426.55C44.0101 425.32 39.2601 421.9 38.1901 416.94C37.1201 411.98 38.1201 407.17 39.1901 403.33L64.5701 410.87Z" fill="#263238"/>
<path d="M49.2401 314.62C52.5501 298.57 56.2401 291.39 56.9301 287.74C56.9301 287.74 61.7901 249.83 63.9901 217.57C65.0601 202.04 64.6701 191.57 74.8201 173.57L133.82 188.07C134.53 196.34 140.08 252.63 137.35 301.17C135.11 341.01 132.19 354.01 131.89 360.66C131.73 364.44 131.8 366.94 131.97 372.19C132.03 374.31 132.21 376.05 133.45 377.39C135.456 379.419 137.698 381.198 140.13 382.69C144.73 385.69 146.83 387.36 152.13 389.23C153.156 389.535 154.137 389.972 155.05 390.53C155.493 390.799 155.866 391.169 156.137 391.611C156.409 392.053 156.571 392.553 156.61 393.07C156.61 394.49 155.31 395.61 153.99 396.31C149.25 398.83 143.31 398.31 138.11 396.81C132.91 395.31 128.11 392.76 122.86 391.31C119.24 390.31 115.41 389.79 112.1 388.1C111.001 387.64 110.086 386.828 109.5 385.79C109.172 384.888 109.085 383.916 109.25 382.97C109.65 378.81 110.09 377.5 109.99 373.31C109.89 369.31 109.27 361.98 108.99 358C108.72 354.66 104.47 330.65 105.12 315.81C105.292 311.271 105.132 306.725 104.64 302.21L99.4001 249.48C97.0001 258.29 88.1101 283.81 85.3301 295.48C81.8601 309.72 80.0001 327 73.0001 353C71.0001 360.34 67.3301 369.2 66.4101 373.63C66.0301 379.26 63.9501 394.02 61.2501 400.22C57.1301 409.65 44.5601 409.34 43.5101 401.16C42.6101 394.21 47.2901 376.02 47.5101 371.46C47.7301 366.9 45.3901 333.32 49.2401 314.62Z" fill="#C8856A"/>
<path d="M45.5901 376.77C44.5901 382.64 43.7101 387.09 43.0501 390.49C41.1401 396.29 40.4001 399.1 39.3301 402.86C37.5701 409.02 37.9201 414.54 39.8001 417.86C42.6101 422.77 53.9601 427.86 59.9401 421.52C64.8101 416.37 64.6101 413.91 64.6001 406.26C64.6001 403.86 64.6001 401.69 64.6001 399.64C64.7401 392.8 64.8601 391.47 65.9801 387.13C66.6201 384.65 65.9801 380.87 66.5401 378.24C67.1001 375.38 67.3401 374.13 66.3701 373.68C66.3701 373.68 65.8701 377.35 65.2501 379.99C64.6801 382.42 64.2501 384.87 63.6901 387.31C63.0201 390.31 62.4601 393.31 61.5401 396.25C61.4301 396.57 61.2601 396.96 60.9001 397C60.5401 397.04 60.1801 396.55 60.1601 396.13C60.1817 395.887 60.1519 395.642 60.0726 395.411C59.9934 395.18 59.8664 394.969 59.7001 394.79C59.2082 394.4 58.6582 394.09 58.0701 393.87C56.909 393.449 55.7051 393.157 54.4801 393C52.7288 392.651 50.9334 392.58 49.1601 392.79C48.6363 392.854 48.1374 393.05 47.7101 393.36C47.3301 393.66 47.2001 394.08 46.8701 394.41C46.7497 394.551 46.5829 394.645 46.3996 394.674C46.2163 394.704 46.0285 394.667 45.8701 394.57C45.7375 394.43 45.6534 394.251 45.6301 394.06C45.5402 393.374 45.5201 392.68 45.5701 391.99C45.7201 388.15 46.0001 384.39 46.5701 380.58C47.147 377.59 47.4516 374.555 47.4801 371.51C46.4129 373.074 45.7624 374.884 45.5901 376.77Z" fill="#37474F"/>
<path d="M105.87 387L166.05 399.1C166.308 399.732 166.401 400.419 166.318 401.096C166.236 401.774 165.982 402.419 165.58 402.97C163.38 405.54 155.98 408.97 146.81 407.97C137.64 406.97 132.66 403.21 129.28 400.86C127.534 399.559 125.628 398.487 123.61 397.67C121.44 396.77 118.22 396.73 115.9 396.43C113.845 396.045 111.82 395.514 109.84 394.84C108.401 394.409 107.048 393.733 105.84 392.84C105.636 391.803 105.545 390.747 105.57 389.69C105.59 388.86 105.73 387.73 105.87 387Z" fill="#263238"/>
<path d="M119.71 381.55C117.83 379.55 115.31 378.46 112.78 377.38C110.62 376.45 110.03 375.6 109.97 373.31C109.97 373.12 108.21 373.24 107.97 373.51C107.716 373.776 107.518 374.09 107.387 374.433C107.257 374.777 107.197 375.143 107.21 375.51C107.06 377.23 106.84 378.03 106.54 379.81C105.87 383.76 104.91 385.01 105.54 389.66C108.23 392.96 116.54 394.55 121.01 395.09C128.01 395.95 133.6 401.57 138.85 403.25C148.5 406.33 157.95 404.68 161.6 402.9C165.84 400.84 168.22 397.45 164.74 395C162.61 393.49 150.54 387.52 148.38 386.38C146.65 385.47 145.01 384.38 143.32 383.44C143.046 383.259 142.741 383.13 142.42 383.06C142.03 383.011 141.634 383.049 141.26 383.17C139.146 383.657 137.084 384.343 135.1 385.22C134.746 385.331 134.419 385.512 134.137 385.753C133.855 385.993 133.625 386.288 133.46 386.62C133.1 387.8 135.54 389.88 134.06 390.26C132.73 390.61 130.46 388.94 129.4 388.4C125.94 386.61 122.4 384.59 119.87 381.71C119.82 381.653 119.767 381.6 119.71 381.55V381.55Z" fill="#37474F"/>
<path d="M133.73 170.65L134.35 176.65C140.04 209.82 140.56 253.78 139.96 267.14C138.17 306.53 133.1 376 133.1 376C133.1 376 131.52 379.86 120.32 380.75C111.7 381.44 106.69 378.51 106.69 378.51C106.69 378.51 102.69 331.43 102.06 320.06C101.848 315.195 101.952 310.322 102.37 305.47C102.88 299.414 102.81 293.323 102.16 287.28L99.1601 253.65C99.1601 253.65 88.0001 300.21 86.9101 305.88C81.5201 334.31 68.4801 387 68.4801 387C68.4801 387 59.3701 389.4 51.1701 388C42.9701 386.6 41.1201 383.66 41.1201 383.66C41.1201 383.66 46.1901 324.38 47.4801 312.88C49.1901 297.52 50.7801 290.37 51.9501 284.08C53.3201 276.68 53.9501 248.78 54.9501 232.55C55.5801 221.48 56.0301 213.07 57.3701 204.94C60.1801 187.94 68.4301 177.72 71.5601 171.46L72.0501 168.11C81.2701 175.51 116.39 180.14 133.73 170.65Z" fill="#455A64"/>
<path d="M99.1401 253.63L107.88 221.89C107.88 221.89 119.23 219.72 124.81 213.58C124.81 213.58 123.55 221.34 111.81 225.29L103.53 253L102 285.62L99.1401 253.63Z" fill="#37474F"/>
<path d="M77.7402 38.21C77.5102 27.95 97.4802 16.75 116.2 29.21C134.92 41.67 128.13 53.7 126.84 57.36L128.1 106.36L64.6602 107.77C64.6602 107.77 67.6602 63.6 67.4802 56.39C67.3002 49.18 67.8002 38.43 77.7402 38.21Z" fill="#263238"/>
<path d="M86 92L70.61 96.1C67.55 97.1 71 115.23 70.15 135.93C69.27 157.18 63.23 191.52 63.23 191.52C63.23 191.52 77.64 197.52 103.48 197.11C129 196.69 136.61 188.73 136.61 188.73L133.19 163.63L131.45 143.93C131.45 143.93 140.62 131.09 135.52 118.47C130.42 105.85 112.81 89.47 112.81 89.47L104.9 89.86L86 92Z" fill="#BA68C8"/>
<path opacity="0.7" d="M86 92L70.61 96.1C67.55 97.1 71 115.23 70.15 135.93C69.27 157.18 63.23 191.52 63.23 191.52C63.23 191.52 77.64 197.52 103.48 197.11C129 196.69 136.61 188.73 136.61 188.73L133.19 163.63L131.45 143.93C131.45 143.93 140.62 131.09 135.52 118.47C130.42 105.85 112.81 89.47 112.81 89.47L104.9 89.86L86 92Z" fill="#38C6AE"/>
<path opacity="0.3" d="M84.4199 142.36C86.0852 144.79 88.3485 146.751 90.9915 148.052C93.6346 149.353 96.5683 149.952 99.5099 149.79C102.271 149.632 104.952 148.801 107.317 147.368C109.683 145.935 111.662 143.944 113.08 141.57C113.08 141.57 111.31 152.22 98.5399 152.46C85.7699 152.7 84.4199 142.36 84.4199 142.36Z" fill="#BA68C8"/>
<path d="M104.27 90.45C110.63 95.76 120.54 102.9 126.4 110.57C138.26 126.09 140.84 140.37 141.78 158.41C141.97 131.46 145.28 116.27 112.78 88.41C106.98 83.41 104.69 82.33 104.69 82.33L104.27 90.45Z" fill="#E0E0E0"/>
<path d="M82.8799 86.8899C83.3499 93.5599 90.3799 110.27 91.0299 128.47C91.6799 146.67 81.6299 264.89 81.6299 264.89C81.6299 264.89 62.3499 267.33 48.1599 259.25C48.1599 259.25 53.1599 216.36 64.1599 168.7C66.9999 156.34 61.7799 141 60.7399 124.36C60.1602 115.302 61.342 106.218 64.2199 97.6099C64.2199 97.6099 74.5399 94.1599 77.6799 92.3299C79.8064 90.938 81.5853 89.077 82.8799 86.8899V86.8899Z" fill="#F0F0F0"/>
<path d="M82.1101 90.1299C82.5701 92.2699 83.2801 94.8699 84.1101 97.8799C86.3301 105.95 89.3601 116.99 89.7701 128.52C90.3701 145.52 81.4501 252 80.4601 263.74C79.3201 263.84 77.3001 263.98 74.7301 263.98C67.7301 263.98 57.8201 262.98 49.5101 258.56C50.2801 252.33 55.4001 212.4 65.3501 168.98C67.2001 160.9 65.7401 151.63 64.1901 141.82C63.3001 136.16 62.3801 130.31 62.0001 124.28C61.4794 115.599 62.5642 106.897 65.2001 98.6099C67.4601 97.8399 75.5001 95.0599 78.3201 93.4199C79.7586 92.5429 81.0397 91.4308 82.1101 90.1299V90.1299ZM82.8801 86.8899C81.5855 89.077 79.8066 90.938 77.6801 92.3299C74.5401 94.1599 64.2201 97.6099 64.2201 97.6099C61.3422 106.218 60.1604 115.302 60.7401 124.36C61.7401 141.01 66.9501 156.36 64.1201 168.7C53.2001 216.36 48.1201 259.25 48.1201 259.25C56.9701 264.25 67.7901 265.25 74.6901 265.25C76.9949 265.265 79.2987 265.149 81.5901 264.9C81.5901 264.9 91.5901 146.69 90.9901 128.48C90.3901 110.27 83.3101 93.5699 82.8401 86.8999L82.8801 86.8899Z" fill="#EBEBEB"/>
<path d="M116.81 41.3699C118.69 42.7799 121.17 47.1899 120.87 54.5899C120.67 56.8299 122.11 59.1699 122.21 63.3499C122.56 79.1599 119.8 81.9999 115.56 83.9999C112.558 85.3582 109.295 86.0409 106 85.9999L106.5 93.6299C109.22 98.1199 109.14 100.63 108.68 106.44C94.53 102.33 83.56 92.6299 83.54 92.5999L83 74.7599C83 74.7599 81.66 74.3899 81.66 74.3999C80.663 75.1866 79.43 75.6145 78.16 75.6145C76.89 75.6145 75.657 75.1866 74.66 74.3999C71.45 72.0399 69.25 66.1099 72.01 62.7099C74.77 59.3099 79.82 60.6199 81.67 63.5399C83.52 66.4599 87.93 65.5399 86.51 61.0699C88.51 60.0699 90.98 57.9599 88.95 49.7399C88.49 47.6399 89.19 43.9699 91.15 42.1499C94.43 39.1499 100.95 39.6399 104.71 43.2599C109.71 39.0499 112.92 38.4599 116.81 41.3699Z" fill="#C8856A"/>
<path d="M116.44 50.09L111.24 49.09C111.288 48.7486 111.405 48.4205 111.584 48.1257C111.763 47.831 112 47.5757 112.28 47.3755C112.561 47.1753 112.879 47.0343 113.216 46.9612C113.553 46.888 113.902 46.8842 114.24 46.95C114.938 47.0932 115.556 47.4983 115.965 48.0822C116.374 48.6662 116.544 49.3846 116.44 50.09V50.09Z" fill="#263238"/>
<path d="M93.15 52.5799L98.1 50.7099C97.9937 50.3824 97.822 50.0799 97.5953 49.8209C97.3686 49.5618 97.0915 49.3515 96.781 49.2028C96.4705 49.0541 96.133 48.97 95.789 48.9558C95.445 48.9415 95.1017 48.9974 94.78 49.1199C94.1156 49.3765 93.5755 49.8791 93.272 50.5234C92.9684 51.1677 92.9247 51.9042 93.15 52.5799Z" fill="#263238"/>
<path d="M100 70.46L107.4 72.76C107.274 73.2491 107.05 73.7074 106.741 74.1071C106.432 74.5067 106.045 74.8392 105.603 75.0843C105.162 75.3295 104.675 75.4821 104.172 75.5329C103.67 75.5838 103.162 75.5317 102.68 75.38C101.687 75.0612 100.854 74.3723 100.355 73.4563C99.8565 72.5403 99.7292 71.4673 100 70.46V70.46Z" fill="#AF6152"/>
<path d="M104.33 75.4899C104.291 74.5774 103.893 73.7173 103.222 73.0972C102.551 72.4772 101.663 72.1474 100.75 72.1799C100.468 72.1908 100.189 72.2378 99.9199 72.3199C100.056 73.0277 100.38 73.6857 100.859 74.2243C101.338 74.7629 101.953 75.1622 102.64 75.3799C103.187 75.5497 103.766 75.5874 104.33 75.4899Z" fill="#FFA8A7"/>
<path d="M104.56 54.1599L106.07 68.2299L113.05 66.1099L104.56 54.1599Z" fill="#AF6152"/>
<path d="M106 86C100.92 85.83 89.4599 83.06 86.6699 76.38C86.6699 76.38 87.1699 81.18 93.4799 84.76C98.4799 87.59 106.15 88.2 106.15 88.2L106 86Z" fill="#AF6152"/>
<path d="M100.33 57.7799C100.306 58.2244 100.15 58.6516 99.8826 59.0076C99.6153 59.3635 99.2484 59.6321 98.8284 59.7795C98.4083 59.9269 97.954 59.9463 97.5229 59.8354C97.0918 59.7245 96.7033 59.4882 96.4065 59.1565C96.1097 58.8247 95.918 58.4123 95.8557 57.9716C95.7933 57.5308 95.8631 57.0815 96.0562 56.6804C96.2493 56.2793 96.557 55.9445 96.9404 55.7184C97.3238 55.4922 97.7657 55.3849 98.2101 55.4099C98.8044 55.4461 99.3605 55.7153 99.7574 56.159C100.154 56.6028 100.36 57.1853 100.33 57.7799V57.7799Z" fill="#263238"/>
<path d="M116.93 56.73C116.847 57.1652 116.637 57.566 116.326 57.8817C116.015 58.1974 115.618 58.4139 115.184 58.5037C114.75 58.5935 114.299 58.5526 113.889 58.3863C113.478 58.2199 113.126 57.9355 112.877 57.569C112.628 57.2025 112.493 56.7704 112.49 56.3274C112.486 55.8844 112.614 55.4503 112.858 55.08C113.101 54.7097 113.449 54.42 113.857 54.2473C114.265 54.0746 114.715 54.0268 115.15 54.11C115.734 54.2214 116.249 54.5601 116.583 55.0514C116.916 55.5427 117.041 56.1465 116.93 56.73Z" fill="#263238"/>
<path d="M73.45 94.2C75.98 93.07 78.86 89.89 80.36 88.12C81.86 86.35 82.36 85.12 83.36 85.12L83.42 88.31C83.42 88.31 91.49 106.64 91.42 122.69C91.61 133.69 90.42 146.62 90.42 146.62C87.11 138.85 79.42 126.04 79.42 126.04L83.69 116C81 106 75.28 99.51 73.45 94.2Z" fill="#E0E0E0"/>
<path d="M84.8399 149.29C84.7414 149.233 84.6328 149.197 84.5202 149.182C84.4076 149.168 84.2932 149.176 84.1837 149.206C84.0741 149.235 83.9714 149.286 83.8816 149.356C83.7917 149.425 83.7164 149.511 83.6599 149.61C83.6035 149.708 83.5669 149.817 83.5525 149.93C83.538 150.042 83.5458 150.157 83.5755 150.266C83.6053 150.376 83.6563 150.478 83.7256 150.568C83.795 150.658 83.8814 150.733 83.9799 150.79V150.79L84.7299 151.22C84.7942 151.261 84.8688 151.283 84.9449 151.283C85.0211 151.283 85.0957 151.261 85.1599 151.22C85.3397 151.105 85.4897 150.949 85.5974 150.765C85.7052 150.58 85.7678 150.373 85.7799 150.16C85.7878 150.085 85.7752 150.009 85.7436 149.94C85.7119 149.872 85.6623 149.813 85.5999 149.77L84.8399 149.33V149.29Z" fill="#455A64"/>
<path d="M85.78 150.12C85.7879 150.045 85.7753 149.969 85.7436 149.9C85.7119 149.832 85.6623 149.773 85.6 149.73L84.84 149.29C84.7123 149.216 84.5674 149.177 84.42 149.177C84.2725 149.177 84.1277 149.216 84 149.29V149.29C84.23 149.2 84.59 149.41 85 149.65C85.41 149.89 85.62 150.2 85.29 150.83C85.05 151.29 84.77 151.24 84.64 151.18L84.72 151.23C84.7842 151.271 84.8588 151.293 84.935 151.293C85.0112 151.293 85.0858 151.271 85.15 151.23C85.3384 151.111 85.4945 150.948 85.6045 150.754C85.7144 150.561 85.7747 150.343 85.78 150.12Z" fill="#37474F"/>
<path d="M88.39 149.24C88.084 149.04 87.7404 148.904 87.3803 148.842C87.0201 148.779 86.651 148.79 86.2953 148.875C85.9397 148.959 85.605 149.116 85.3118 149.334C85.0185 149.552 84.7729 149.828 84.5898 150.145C84.4068 150.461 84.2901 150.812 84.247 151.175C84.2039 151.538 84.2353 151.906 84.3392 152.256C84.4431 152.607 84.6174 152.932 84.8513 153.213C85.0853 153.494 85.3741 153.724 85.7 153.89V153.89C85.9169 153.99 86.1567 154.03 86.3942 154.005C86.6318 153.98 86.8583 153.892 87.05 153.75C87.6034 153.392 88.064 152.908 88.3943 152.338C88.7245 151.768 88.915 151.128 88.95 150.47C88.9741 150.234 88.9349 149.995 88.8365 149.779C88.7381 149.563 88.584 149.377 88.39 149.24V149.24Z" fill="#46666B"/>
<path d="M87.0498 149.37C86.4974 149.731 86.0377 150.217 85.7076 150.788C85.3776 151.36 85.1865 152.001 85.1498 152.66C85.1258 152.895 85.1639 153.133 85.2604 153.349C85.3569 153.564 85.5085 153.751 85.6998 153.89L102.29 163.47C102.506 163.569 102.745 163.61 102.982 163.587C103.219 163.564 103.446 163.479 103.64 163.34C104.19 162.978 104.648 162.491 104.976 161.92C105.305 161.349 105.494 160.708 105.53 160.05C105.556 159.815 105.519 159.576 105.422 159.36C105.325 159.144 105.173 158.957 104.98 158.82L88.3898 149.24C88.1751 149.14 87.9377 149.1 87.7022 149.123C87.4666 149.146 87.2414 149.231 87.0498 149.37V149.37Z" fill="#6B8B91"/>
<path opacity="0.2" d="M87.0498 149.37C86.4974 149.731 86.0377 150.217 85.7076 150.788C85.3776 151.36 85.1865 152.001 85.1498 152.66C85.1258 152.895 85.1639 153.133 85.2604 153.349C85.3569 153.564 85.5085 153.751 85.6998 153.89L102.29 163.47C102.506 163.569 102.745 163.61 102.982 163.587C103.219 163.564 103.446 163.479 103.64 163.34C104.19 162.978 104.648 162.491 104.976 161.92C105.305 161.349 105.494 160.708 105.53 160.05C105.556 159.815 105.519 159.576 105.422 159.36C105.325 159.144 105.173 158.957 104.98 158.82L88.3898 149.24C88.1751 149.14 87.9377 149.1 87.7022 149.123C87.4666 149.146 87.2414 149.231 87.0498 149.37V149.37Z" fill="white"/>
<path d="M106.57 160.59C106.535 161.267 106.341 161.927 106.002 162.514C105.663 163.102 105.189 163.601 104.62 163.97C104.422 164.112 104.191 164.2 103.949 164.224C103.707 164.249 103.462 164.209 103.24 164.11L101.96 163.37C101.762 163.229 101.605 163.039 101.504 162.817C101.404 162.596 101.365 162.352 101.39 162.11C101.431 161.428 101.634 160.766 101.982 160.178C102.329 159.591 102.812 159.094 103.39 158.73C103.587 158.587 103.819 158.499 104.061 158.474C104.304 158.449 104.548 158.489 104.77 158.59L106.04 159.33C106.231 159.475 106.38 159.668 106.473 159.889C106.566 160.11 106.6 160.352 106.57 160.59Z" fill="#F0F0F0"/>
<path opacity="0.35" d="M106.57 160.59C106.535 161.267 106.341 161.927 106.002 162.514C105.663 163.102 105.189 163.601 104.62 163.97C104.422 164.112 104.191 164.2 103.949 164.224C103.707 164.249 103.462 164.209 103.24 164.11L101.96 163.37C101.762 163.229 101.605 163.039 101.504 162.817C101.404 162.596 101.365 162.352 101.39 162.11C101.431 161.428 101.634 160.766 101.982 160.178C102.329 159.591 102.812 159.094 103.39 158.73C103.587 158.587 103.819 158.499 104.061 158.474C104.304 158.449 104.548 158.489 104.77 158.59L106.04 159.33C106.231 159.475 106.38 159.668 106.473 159.889C106.566 160.11 106.6 160.352 106.57 160.59Z" fill="#F0F0F0"/>
<path opacity="0.15" d="M102.67 162.84C102.713 162.159 102.916 161.497 103.264 160.91C103.611 160.322 104.093 159.825 104.67 159.46C104.857 159.296 105.091 159.195 105.338 159.171C105.586 159.147 105.835 159.202 106.05 159.326C106.265 159.451 106.436 159.64 106.538 159.867C106.64 160.093 106.669 160.346 106.62 160.59C106.585 161.267 106.39 161.927 106.051 162.515C105.713 163.102 105.239 163.601 104.67 163.97C104.486 164.156 104.247 164.276 103.988 164.313C103.729 164.349 103.465 164.299 103.238 164.17C103.01 164.042 102.831 163.842 102.729 163.601C102.626 163.361 102.605 163.093 102.67 162.84V162.84Z" fill="#F0F0F0"/>
<path d="M118.68 172.6C118.506 172.48 118.368 172.316 118.28 172.124C118.192 171.932 118.157 171.72 118.18 171.51C118.214 170.923 118.386 170.352 118.681 169.843C118.977 169.334 119.387 168.901 119.88 168.58C120.05 168.457 120.25 168.381 120.459 168.36C120.668 168.339 120.879 168.373 121.07 168.46V168.46L121.69 169.06C121.805 169.179 121.894 169.32 121.95 169.475C122.007 169.63 122.031 169.795 122.02 169.96C121.987 170.5 121.829 171.025 121.558 171.494C121.287 171.963 120.911 172.362 120.46 172.66C120.321 172.75 120.165 172.812 120.002 172.841C119.839 172.87 119.672 172.867 119.51 172.83V172.83L118.68 172.6Z" fill="#F0F0F0"/>
<path opacity="0.15" d="M118.68 172.6C118.506 172.48 118.368 172.316 118.28 172.124C118.192 171.932 118.157 171.72 118.18 171.51C118.214 170.923 118.386 170.352 118.681 169.843C118.977 169.334 119.387 168.901 119.88 168.58C120.05 168.457 120.25 168.381 120.459 168.36C120.668 168.339 120.879 168.373 121.07 168.46V168.46L121.69 169.06C121.805 169.179 121.894 169.32 121.95 169.475C122.007 169.63 122.031 169.795 122.02 169.96C121.987 170.5 121.829 171.025 121.558 171.494C121.287 171.963 120.911 172.362 120.46 172.66C120.321 172.75 120.165 172.812 120.002 172.841C119.839 172.87 119.672 172.867 119.51 172.83V172.83L118.68 172.6Z" fill="#F0F0F0"/>
<path d="M118.18 171.51C118.214 170.923 118.386 170.352 118.681 169.843C118.977 169.334 119.387 168.901 119.88 168.58C120.05 168.457 120.25 168.381 120.459 168.36C120.668 168.339 120.879 168.373 121.07 168.46L106.07 159.82C105.877 159.731 105.665 159.696 105.454 159.717C105.243 159.738 105.041 159.815 104.87 159.94C104.378 160.258 103.968 160.689 103.674 161.197C103.38 161.704 103.211 162.274 103.18 162.86C103.158 163.071 103.192 163.285 103.28 163.478C103.368 163.672 103.506 163.838 103.68 163.96L118.68 172.6C118.506 172.48 118.368 172.316 118.28 172.124C118.192 171.932 118.157 171.72 118.18 171.51Z" fill="#6B8B91"/>
<path d="M121.75 169.14C121.577 169.06 121.386 169.027 121.196 169.045C121.007 169.062 120.825 169.13 120.67 169.24C120.229 169.531 119.863 169.922 119.601 170.381C119.339 170.839 119.188 171.353 119.16 171.88C119.138 172.071 119.167 172.264 119.244 172.44C119.321 172.615 119.444 172.767 119.6 172.88V172.88C120.6 173.43 123.44 174.48 124.86 174.31C124.939 174.31 125.016 174.286 125.08 174.24C125.246 174.13 125.384 173.982 125.481 173.808C125.579 173.634 125.633 173.439 125.64 173.24C125.651 173.17 125.651 173.099 125.64 173.03V173.03C125.07 171.67 122.7 169.69 121.75 169.14Z" fill="#46666B"/>
<path opacity="0.2" d="M104.91 159.94C104.738 160.04 104.578 160.157 104.43 160.29L119.43 168.94C119.576 168.803 119.737 168.682 119.91 168.58L120 168.53L105 159.89L104.91 159.94ZM103.91 158.49H103.76L89 150C87.06 148.89 86.26 148.91 85.48 149.36C86.25 149.09 88.02 150.11 88.25 150.24L103.13 158.85C103.187 158.801 103.251 158.76 103.32 158.73L104.59 159.46C104.776 159.359 104.974 159.281 105.18 159.23L103.91 158.49ZM125.55 173.64L125.33 173.18C125.33 173.18 125.33 172.83 124.4 171.84C123.283 170.796 122.019 169.92 120.65 169.24C120.45 169.36 120.268 169.508 120.11 169.68C121.535 170.393 122.877 171.261 124.11 172.27C124.62 172.697 125.077 173.184 125.47 173.72C125.511 173.705 125.546 173.677 125.57 173.64H125.55Z" fill="white"/>
<path d="M124.93 173.9L125.55 174.26C125.82 174.42 126.55 174.66 126.7 174.44C126.85 174.22 126.24 173.69 125.97 173.54L125.35 173.18C125.35 173.18 125.19 173.18 125.03 173.48C124.87 173.78 124.93 173.9 124.93 173.9Z" fill="#455A64"/>
<path d="M126.64 174.17C126.602 174.179 126.566 174.197 126.535 174.221C126.504 174.245 126.478 174.275 126.46 174.31C126.443 174.344 126.434 174.382 126.434 174.42C126.434 174.458 126.443 174.496 126.46 174.53C126.507 174.541 126.557 174.538 126.603 174.522C126.649 174.506 126.689 174.478 126.72 174.44C126.74 174.38 126.71 174.28 126.64 174.17Z" fill="#263238"/>
<path d="M43.9201 168.05C43.5901 161.96 44.9201 144.9 46.2901 128.9C48.2001 106.9 52.1901 103.77 63.6001 99.45C73.0401 104.58 74.8601 114.39 71.3501 136.45L68.3501 162.11C74.4801 163.41 82.8101 165.11 89.8401 163.11C91.2745 162.702 92.6023 161.986 93.7301 161.01C94.4083 160.474 95.1772 160.064 96.0001 159.8L97.5201 160.69C98.5201 160.78 99.5901 160.94 100.52 160.98C102.81 161.07 106 160.98 108.29 161.11C113.29 161.41 117.04 161.71 121.6 163.7C122.47 164.08 123.54 164.75 124.6 165.37C125.42 165.83 124.6 166.77 124.08 167.08C123.439 167.478 122.725 167.744 121.98 167.86C120.981 167.963 119.972 167.936 118.98 167.78C118.713 167.737 118.438 167.771 118.19 167.88C117.978 168.033 117.835 168.263 117.79 168.52C117.746 168.774 117.723 169.032 117.72 169.29C117.672 169.926 117.477 170.542 117.151 171.091C116.825 171.639 116.376 172.104 115.84 172.45C115.39 172.73 114.9 172.92 114.44 173.19C113.892 173.564 113.432 174.052 113.09 174.62C112.58 175.26 112.09 175.94 111.59 176.62C109.81 178.8 109.02 178.92 105.33 179.83C101.64 180.74 98.9701 179.46 93.7301 179.83C88.4901 180.2 69.6201 183.26 61.1001 183.5C45.2901 183.86 44.5101 179 43.9201 168.05Z" fill="#C8856A"/>
<path d="M68.3001 162.09C61.9101 160.9 55.07 161.17 51.05 164.09C57.64 157.03 68.56 159.95 68.56 159.95L68.3001 162.09Z" fill="#F28F8F"/>
<path d="M64.22 97.61C56 99.86 49 104.5 47.24 112.49C45.48 120.48 43.4 143.92 43.08 155.77C42.76 167.62 43.08 177.28 45.48 180.2C47.88 183.12 50.48 184.26 57.14 184.25C63.8 184.24 77.76 182.85 77.76 182.85C77.76 182.85 75.21 170.57 79.52 163.9L69.6 161.72C69.6 161.72 73.12 132.14 73.92 125.11C74.72 118.08 74.49 105.59 64.22 97.61Z" fill="#E0E0E0"/>
<path d="M203.69 112.17L151.54 124.28L131.08 182.45L132.06 183.77L181.75 171.27L204.68 113.49L203.69 112.17Z" fill="#6B9DA5"/>
<path opacity="0.35" d="M152.53 125.6L132.06 183.77L131.08 182.45L151.54 124.28L152.53 125.6Z" fill="black"/>
<path opacity="0.25" d="M204.68 113.49L152.53 125.6L132.06 183.77L181.75 171.27L204.68 113.49Z" fill="black"/>
<path opacity="0.1" d="M188.2 124L188.84 122C189.19 120.92 186.18 121.17 182.12 122.56L172.75 124.3C168.69 125.69 164.89 126.64 164.54 127.72L163.9 129.72L188.2 124Z" fill="black"/>
<path d="M192.19 115.32C192.42 114.64 191.25 114.65 189.6 114.9L186.6 115.56C186.6 115.56 188.1 112.79 181.05 113.88C173.3 115.08 172.72 118.82 172.72 118.82C171.486 119.199 170.231 119.503 168.96 119.73C166.37 120.27 166.04 120.73 165.76 121.4L165.24 122.63L191.82 116.47C191.82 116.47 192 116 192.19 115.32Z" fill="#37474F"/>
<path d="M189.08 118.85C186.59 119.67 185.55 120.08 185 121.74C184.38 123.65 184.21 124.45 184.21 124.45L170.3 128.22C170.3 128.22 171.3 125.43 171.63 124.5C171.96 123.57 170.15 123.36 167.72 124.17L168.54 121.84L190.11 116.44L189.08 118.85Z" fill="#37474F"/>
<path d="M188.89 124.15L189.52 122.15C189.87 121.07 186.86 121.32 182.8 122.72L173.44 124.45C169.38 125.84 165.57 126.79 165.22 127.87L164.59 129.87L188.89 124.15Z" fill="#37474F"/>
<path d="M197.35 140.24C199.14 138.24 199.03 137.98 198.35 136.79C197.826 135.848 197.086 135.045 196.19 134.445C195.295 133.845 194.27 133.467 193.2 133.34C191.31 133.18 189.41 132.92 188.38 133.34C187.35 133.76 187.94 135.86 190.33 136.7C194.09 138.02 193.94 139.06 193.94 139.06C192.339 138.49 190.711 138.002 189.06 137.6C187.64 137.35 184.95 137.73 183.29 137.79C181.63 137.85 181.07 139.92 183.74 140.97L180.74 141.1C178.62 141.19 177.74 142.21 179.26 143.7C179.744 144.202 180.38 144.529 181.07 144.63C181.07 144.63 178.85 144.37 178.71 145.1C178.33 147.21 179.64 147.93 183.98 149.76C187.4 151.2 188.65 153.2 188.41 154.68L188.07 155.54C188.07 155.54 189.54 154.61 191.21 153.73C192.42 153.08 193.48 152.32 193.21 150.5C193.21 150.5 195.65 150.84 195.98 149.34C196.149 148.231 196.077 147.099 195.77 146.02C196.238 145.823 196.641 145.498 196.933 145.082C197.225 144.667 197.394 144.177 197.42 143.67C197.536 142.708 197.332 141.734 196.84 140.9L197.35 140.24Z" fill="#C8856A"/>
<path d="M183.72 140.94C184.634 140.85 185.556 140.85 186.47 140.94C187.365 141.188 188.216 141.576 188.99 142.09C190.551 142.99 192.033 144.02 193.42 145.17C191.749 144.511 190.136 143.711 188.6 142.78C187.88 142.293 187.113 141.881 186.31 141.55C185.52 141.34 184.58 141.21 183.72 140.94Z" fill="#AF6152"/>
<path d="M181 144.6C181.986 144.436 182.998 144.526 183.94 144.86C184.874 145.175 185.775 145.58 186.63 146.07C188.339 147.008 189.945 148.124 191.42 149.4C189.652 148.61 187.926 147.729 186.25 146.76C184.648 145.722 182.868 144.99 181 144.6V144.6Z" fill="#AF6152"/>
<path d="M149.12 69.53H160.06C164.549 77.1237 171.727 82.7538 180.172 85.3046C188.616 87.8553 197.711 87.1404 205.653 83.3016C213.596 79.4628 219.806 72.7802 223.053 64.5784C226.301 56.3765 226.349 47.2539 223.187 39.0185C220.025 30.7832 213.885 24.0362 205.983 20.1146C198.081 16.1931 188.995 15.3833 180.524 17.8457C172.053 20.308 164.817 25.8629 160.249 33.4094C155.68 40.9558 154.114 49.9431 155.86 58.59L147.76 66C147.441 66.2679 147.214 66.6288 147.11 67.0323C147.006 67.4357 147.03 67.8616 147.18 68.2503C147.33 68.6391 147.597 68.9714 147.945 69.2008C148.293 69.4302 148.704 69.5453 149.12 69.53ZM178.74 21.39C185.919 18.6255 193.85 18.5191 201.1 21.09L204.53 22.52C212.088 26.2017 217.921 32.6757 220.797 40.5758C223.673 48.476 223.367 57.1844 219.945 64.8636C216.522 72.5429 210.25 78.5922 202.453 81.7353C194.655 84.8783 185.941 84.8692 178.15 81.71L174.8 80.12C169.363 77.1559 164.888 72.6962 161.907 67.2687C158.925 61.8411 157.561 55.6729 157.975 49.4941C158.39 43.3153 160.566 37.3846 164.246 32.4039C167.926 27.4233 172.955 23.6011 178.74 21.39Z" fill="#455A64"/>
<path d="M178.74 21.39C185.919 18.6255 193.849 18.5191 201.1 21.09L204.53 22.52C212.088 26.2017 217.921 32.6757 220.797 40.5758C223.673 48.476 223.367 57.1844 219.945 64.8636C216.522 72.5429 210.25 78.5922 202.453 81.7353C194.655 84.8783 185.941 84.8692 178.15 81.71L174.8 80.12C169.363 77.1559 164.888 72.6962 161.907 67.2687C158.925 61.8411 157.561 55.6729 157.975 49.4941C158.39 43.3153 160.566 37.3846 164.246 32.4039C167.926 27.4233 172.955 23.6011 178.74 21.39Z" fill="white"/>
<path d="M184.36 57.6699V69.66H196.35V57.6699H208.33V45.6899H196.35V33.7H184.36V45.6899H172.38V57.6699H184.36Z" fill="#38C6AE"/>
</svg>
