<svg width="21" height="17" viewBox="0 0 21 17" fill="none" xmlns="http://www.w3.org/2000/svg">
<path d="M0.570618 9.33217C0.606552 9.17029 0.639611 9.00842 0.679858 8.84944C0.870121 8.04179 1.32584 7.32231 1.97327 6.80744C2.6207 6.29256 3.42196 6.01241 4.24741 6.01231C5.07245 6.00219 5.8975 6.01231 6.72255 6.01231H6.97409C7.00642 6.94363 7.39338 7.82687 8.05499 8.47944C5.70346 9.38854 4.76773 11.146 4.95603 13.616C3.46436 13.5213 1.99074 13.2363 0.570618 12.7677L0.570618 9.33217Z" fill="white"/>
<path d="M15.4574 13.9675C15.4574 14.4951 15.4574 15.0226 15.4574 15.5487C15.4635 15.5983 15.4526 15.6486 15.4265 15.6912C15.4003 15.7338 15.3605 15.7661 15.3136 15.7828C14.5684 16.1236 13.7784 16.3553 12.9678 16.4708C10.5976 16.8509 8.28203 16.5676 6.00092 15.8782C5.63152 15.7655 5.63008 15.7669 5.63008 15.3868C5.63008 14.4546 5.61858 13.5224 5.63008 12.5901C5.65237 11.6679 6.02009 10.7882 6.65968 10.1268C7.29928 9.46548 8.16359 9.0713 9.07977 9.02314C10.0859 8.97834 11.0921 8.98556 12.1083 9.02314C13.5457 9.08384 14.9385 10.2647 15.2935 11.6839C15.3746 12.0596 15.4227 12.4416 15.4372 12.8257C15.4775 13.2073 15.4574 13.5888 15.4574 13.9675Z" fill="white"/>
<path d="M13.0757 8.51423C13.323 8.11966 13.609 7.75689 13.7944 7.34643C13.9798 6.93596 14.0474 6.47924 14.1753 6.00952H14.3104C15.0291 6.00952 15.7478 6.00952 16.4665 6.00952C18.6225 6.00952 20.2295 7.63838 20.2324 9.80922C20.2324 10.7227 20.2324 11.6361 20.2324 12.5553C20.2388 12.6078 20.227 12.6609 20.199 12.7057C20.1709 12.7504 20.1284 12.7841 20.0786 12.801C19.2076 13.1906 18.2812 13.4403 17.3332 13.541C16.948 13.5887 16.5614 13.6147 16.1373 13.6537C16.1373 13.2534 16.1632 12.8805 16.1373 12.5119C15.9821 10.5608 14.9774 9.24555 13.162 8.54892L13.0757 8.51423Z" fill="white"/>
<path d="M7.66394 5.89828C7.66565 5.32664 7.83588 4.76834 8.15312 4.29397C8.47035 3.8196 8.92034 3.45046 9.44619 3.23322C9.97205 3.01598 10.5502 2.9604 11.1074 3.0735C11.6647 3.1866 12.1761 3.4633 12.577 3.86862C12.9779 4.27395 13.2502 4.78969 13.3597 5.35065C13.4691 5.91161 13.4106 6.49259 13.1917 7.02015C12.9727 7.54771 12.6032 7.99814 12.1297 8.31452C11.6562 8.63089 11.1 8.79899 10.5315 8.79756C10.1539 8.79661 9.7801 8.72086 9.43159 8.57462C9.08308 8.42839 8.76663 8.21454 8.50034 7.9453C8.23404 7.67606 8.02311 7.3567 7.8796 7.00547C7.73609 6.65423 7.66281 6.278 7.66394 5.89828Z" fill="white"/>
<path d="M5.48492 0.017438C6.24363 0.0174165 6.97158 0.318984 7.51008 0.856397C8.04858 1.39381 8.35397 2.12349 8.35966 2.88636C8.36403 2.94285 8.35452 2.99956 8.33196 3.05148C8.3094 3.1034 8.27449 3.14894 8.23029 3.1841C7.61776 3.70047 7.19807 4.41095 7.04015 5.19885C7.01323 5.29915 6.94819 5.3848 6.85904 5.43732C5.85289 5.97208 4.84673 5.95041 3.90094 5.32459C2.95515 4.69877 2.52682 3.78534 2.60731 2.65656C2.66747 1.93281 2.99745 1.25866 3.53111 0.769234C4.06476 0.279807 4.76266 0.011268 5.48492 0.017438Z" fill="white"/>
<path d="M15.3208 0.017376C15.7424 0.0214449 16.1579 0.118696 16.5379 0.302237C16.9179 0.485778 17.2531 0.751117 17.5198 1.07945C17.7864 1.40778 17.978 1.79107 18.081 2.20215C18.1839 2.61323 18.1956 3.04205 18.1154 3.4582C18.0351 3.87435 17.8648 4.26766 17.6165 4.61026C17.3682 4.95285 17.048 5.23633 16.6786 5.44063C16.3092 5.64492 15.8997 5.76502 15.479 5.79241C15.0583 5.8198 14.6367 5.75382 14.2442 5.59913C14.1964 5.58617 14.1537 5.55866 14.1221 5.52036C14.0904 5.48207 14.0713 5.43487 14.0674 5.38523C13.9982 4.89364 13.8262 4.42236 13.5629 4.00237C13.2995 3.58238 12.9508 3.2232 12.5395 2.94845C12.4977 2.92121 12.4654 2.88142 12.4474 2.83472C12.4293 2.78802 12.4263 2.73679 12.4389 2.6883C12.4941 1.9591 12.8222 1.27808 13.357 0.78245C13.8918 0.286822 14.5935 0.0134335 15.3208 0.017376Z" fill="white"/>
</svg>
